<svg width="442" height="281" viewBox="0 0 442 281" fill="none" xmlns="http://www.w3.org/2000/svg">
<g opacity="0.2">
<path d="M0 140.906L20.0907 150.903L40.1814 160.9V140.906V120.878L20.0907 130.875L0 140.906Z" fill="#EBF6F3"/>
<path d="M0 180.928L20.0907 190.925L40.1814 200.956V180.928V160.901L20.0907 170.931L0 180.928Z" fill="#437DBF"/>
<path d="M40.1814 120.878L20.0907 130.876L0 140.906V120.878V100.851L20.0907 110.881L40.1814 120.878Z" fill="#6AC399"/>
<path d="M80.363 60.8284L60.2723 70.8257L40.1816 80.8559V60.8284V40.8008L60.2723 50.831L80.363 60.8284Z" fill="#6AC399"/>
<path d="M80.363 100.851L60.2723 110.881L40.1816 120.878V100.851V80.856L60.2723 90.8533L80.363 100.851Z" fill="#437DBF"/>
<path d="M80.363 140.906L60.2723 150.903L40.1816 160.9V140.906V120.878L60.2723 130.875L80.363 140.906Z" fill="#6AC399"/>
<path d="M80.363 180.928L60.2723 190.925L40.1816 200.956V180.928V160.901L60.2723 170.931L80.363 180.928Z" fill="#57B3DA"/>
<path d="M80.363 220.95L60.2723 230.98L40.1816 240.978V220.95V200.956L60.2723 210.953L80.363 220.95Z" fill="#EBF6F3"/>
<path d="M40.1816 40.8008L60.2723 50.831L80.363 60.8284V40.8008V20.8061L60.2723 30.8035L40.1816 40.8008Z" fill="#437DBF"/>
<path d="M40.1816 80.8559L60.2723 90.8533L80.363 100.851V80.8559V60.8283L60.2723 70.8257L40.1816 80.8559Z" fill="#4166AE"/>
<path d="M40.1816 120.878L60.2723 130.876L80.363 140.906V120.878V100.851L60.2723 110.881L40.1816 120.878Z" fill="#1C4F9D"/>
<path d="M40.1816 160.9L60.2723 170.931L80.363 180.928V160.9V140.906L60.2723 150.903L40.1816 160.9Z" fill="#437DBF"/>
<path d="M40.1816 200.956L60.2723 210.953L80.363 220.95V200.956V180.928L60.2723 190.925L40.1816 200.956Z" fill="#437DBF"/>
<path d="M80.3633 100.851L100.454 110.881L120.545 120.878V100.851V80.856L100.454 90.8533L80.3633 100.851Z" fill="#437DBF"/>
<path d="M80.3633 140.906L100.454 150.903L120.545 160.9V140.906V120.878L100.454 130.875L80.3633 140.906Z" fill="#4166AE"/>
<path d="M80.3633 180.928L100.454 190.925L120.545 200.956V180.928V160.901L100.454 170.931L80.3633 180.928Z" fill="#437DBF"/>
<path d="M80.3633 220.95L100.454 230.98L120.545 240.978V220.95V200.956L100.454 210.953L80.3633 220.95Z" fill="#437DBF"/>
<path d="M120.545 40.8008L100.454 50.831L80.3633 60.8284V40.8008V20.8061L100.454 30.8035L120.545 40.8008Z" fill="#4166AE"/>
<path d="M120.545 80.8559L100.454 90.8533L80.3633 100.851V80.8559V60.8283L100.454 70.8257L120.545 80.8559Z" fill="#1C4F9D"/>
<path d="M120.545 120.878L100.454 130.876L80.3633 140.906V120.878V100.851L100.454 110.881L120.545 120.878Z" fill="#EBF6F3"/>
<path d="M120.545 160.9L100.454 170.931L80.3633 180.928V160.9V140.906L100.454 150.903L120.545 160.9Z" fill="#1C4F9D"/>
<path d="M120.545 200.956L100.454 210.953L80.3633 220.95V200.956V180.928L100.454 190.925L120.545 200.956Z" fill="#6AC399"/>
<path d="M160.724 20.8061L140.634 30.8035L120.543 40.8009V20.8061V0.778564L140.634 10.7759L160.724 20.8061Z" fill="#1C4F9D"/>
<path d="M160.724 60.8284L140.634 70.8257L120.543 80.8559V60.8284V40.8008L140.634 50.831L160.724 60.8284Z" fill="#437DBF"/>
<path d="M160.724 100.851L140.634 110.881L120.543 120.878V100.851V80.856L140.634 90.8533L160.724 100.851Z" fill="#4166AE"/>
<path d="M160.724 140.906L140.634 150.903L120.543 160.9V140.906V120.878L140.634 130.875L160.724 140.906Z" fill="#57B3DA"/>
<path d="M160.724 180.928L140.634 190.925L120.543 200.956V180.928V160.901L140.634 170.931L160.724 180.928Z" fill="#4166AE"/>
<path d="M160.724 220.95L140.634 230.98L120.543 240.978V220.95V200.956L140.634 210.953L160.724 220.95Z" fill="#1C4F9D"/>
<path d="M160.724 261.005L140.634 271.003L120.543 281V261.005V240.978L140.634 250.975L160.724 261.005Z" fill="#437DBF"/>
<path d="M120.543 40.8008L140.634 50.831L160.724 60.8284V40.8008V20.8061L140.634 30.8035L120.543 40.8008Z" fill="#4166AE"/>
<path d="M120.543 80.8559L140.634 90.8533L160.724 100.851V80.8559V60.8283L140.634 70.8257L120.543 80.8559Z" fill="#57B3DA"/>
<path d="M120.543 120.878L140.634 130.876L160.724 140.906V120.878V100.851L140.634 110.881L120.543 120.878Z" fill="#437DBF"/>
<path d="M120.543 160.9L140.634 170.931L160.724 180.928V160.9V140.906L140.634 150.903L120.543 160.9Z" fill="#437DBF"/>
<path d="M120.543 200.956L140.634 210.953L160.724 220.95V200.956V180.928L140.634 190.925L120.543 200.956Z" fill="#EBF6F3"/>
<path d="M160.725 60.8284L180.815 70.8257L200.906 80.8559V60.8284V40.8008L180.815 50.831L160.725 60.8284Z" fill="#4166AE"/>
<path d="M160.725 100.851L180.815 110.881L200.906 120.878V100.851V80.856L180.815 90.8533L160.725 100.851Z" fill="#1C4F9D"/>
<path d="M160.725 140.906L180.815 150.903L200.906 160.9V140.906V120.878L180.815 130.875L160.725 140.906Z" fill="#437DBF"/>
<path d="M160.725 180.928L180.815 190.925L200.906 200.956V180.928V160.901L180.815 170.931L160.725 180.928Z" fill="#1C4F9D"/>
<path d="M160.725 220.95L180.815 230.98L200.906 240.978V220.95V200.956L180.815 210.953L160.725 220.95Z" fill="#EBF6F3"/>
<path d="M200.906 80.8559L180.815 90.8533L160.725 100.851V80.8559V60.8283L180.815 70.8257L200.906 80.8559Z" fill="#437DBF"/>
<path d="M200.906 120.878L180.815 130.876L160.725 140.906V120.878V100.851L180.815 110.881L200.906 120.878Z" fill="#6AC399"/>
<path d="M200.906 160.9L180.815 170.931L160.725 180.928V160.9V140.906L180.815 150.903L200.906 160.9Z" fill="#EBF6F3"/>
<path d="M200.906 200.956L180.815 210.953L160.725 220.95V200.956V180.928L180.815 190.925L200.906 200.956Z" fill="#4166AE"/>
<path d="M241.088 100.851L220.997 110.881L200.906 120.878V100.851V80.856L220.997 90.8533L241.088 100.851Z" fill="#437DBF"/>
<path d="M241.088 140.906L220.997 150.903L200.906 160.9V140.906V120.878L220.997 130.875L241.088 140.906Z" fill="#57B3DA"/>
<path d="M241.088 180.928L220.997 190.925L200.906 200.956V180.928V160.901L220.997 170.931L241.088 180.928Z" fill="#437DBF"/>
<path d="M200.906 40.8008L220.997 50.831L241.088 60.8284V40.8008V20.8061L220.997 30.8035L200.906 40.8008Z" fill="#437DBF"/>
<path d="M200.906 80.8559L220.997 90.8533L241.088 100.851V80.8559V60.8283L220.997 70.8257L200.906 80.8559Z" fill="#6AC399"/>
<path d="M200.906 120.878L220.997 130.876L241.088 140.906V120.878V100.851L220.997 110.881L200.906 120.878Z" fill="#1C4F9D"/>
<path d="M200.906 160.9L220.997 170.931L241.088 180.928V160.9V140.906L220.997 150.903L200.906 160.9Z" fill="#4166AE"/>
<path d="M200.906 200.956L220.997 210.953L241.088 220.95V200.956V180.928L220.997 190.925L200.906 200.956Z" fill="#57B3DA"/>
<path d="M241.09 20.8061L261.181 30.8035L281.271 40.8009V20.8061V0.778564L261.181 10.7759L241.09 20.8061Z" fill="#57B3DA"/>
<path d="M241.09 60.8284L261.181 70.8257L281.271 80.8559V60.8284V40.8008L261.181 50.831L241.09 60.8284Z" fill="#437DBF"/>
<path d="M241.09 100.851L261.181 110.881L281.271 120.878V100.851V80.856L261.181 90.8533L241.09 100.851Z" fill="#1C4F9D"/>
<path d="M241.09 140.906L261.181 150.903L281.271 160.9V140.906V120.878L261.181 130.875L241.09 140.906Z" fill="#4166AE"/>
<path d="M241.09 180.928L261.181 190.925L281.271 200.956V180.928V160.901L261.181 170.931L241.09 180.928Z" fill="#6AC399"/>
<path d="M241.09 220.95L261.181 230.98L281.271 240.978V220.95V200.956L261.181 210.953L241.09 220.95Z" fill="#EBF6F3"/>
<path d="M281.271 40.8008L261.181 50.831L241.09 60.8284V40.8008V20.8061L261.181 30.8035L281.271 40.8008Z" fill="#1C4F9D"/>
<path d="M281.271 80.8559L261.181 90.8533L241.09 100.851V80.8559V60.8283L261.181 70.8257L281.271 80.8559Z" fill="#4166AE"/>
<path d="M281.271 120.878L261.181 130.876L241.09 140.906V120.878V100.851L261.181 110.881L281.271 120.878Z" fill="#437DBF"/>
<path d="M281.271 160.9L261.181 170.931L241.09 180.928V160.9V140.906L261.181 150.903L281.271 160.9Z" fill="#437DBF"/>
<path d="M281.271 200.956L261.181 210.953L241.09 220.95V200.956V180.928L261.181 190.925L281.271 200.956Z" fill="#4166AE"/>
<path d="M321.451 60.8284L301.36 70.8257L281.27 80.8559V60.8284V40.8008L301.36 50.831L321.451 60.8284Z" fill="#57B3DA"/>
<path d="M321.451 100.851L301.36 110.881L281.27 120.878V100.851V80.856L301.36 90.8533L321.451 100.851Z" fill="#437DBF"/>
<path d="M321.451 140.906L301.36 150.903L281.27 160.9V140.906V120.878L301.36 130.875L321.451 140.906Z" fill="#EBF6F3"/>
<path d="M321.451 180.928L301.36 190.925L281.27 200.956V180.928V160.901L301.36 170.931L321.451 180.928Z" fill="#EBF6F3"/>
<path d="M321.451 220.95L301.36 230.98L281.27 240.978V220.95V200.956L301.36 210.953L321.451 220.95Z" fill="#437DBF"/>
<path d="M281.27 40.8008L301.36 50.831L321.451 60.8284V40.8008V20.8061L301.36 30.8035L281.27 40.8008Z" fill="#6AC399"/>
<path d="M281.27 80.8559L301.36 90.8533L321.451 100.851V80.8559V60.8283L301.36 70.8257L281.27 80.8559Z" fill="#4166AE"/>
<path d="M281.27 120.878L301.36 130.876L321.451 140.906V120.878V100.851L301.36 110.881L281.27 120.878Z" fill="#6AC399"/>
<path d="M281.27 160.9L301.36 170.931L321.451 180.928V160.9V140.906L301.36 150.903L281.27 160.9Z" fill="#1C4F9D"/>
<path d="M281.27 200.956L301.36 210.953L321.451 220.95V200.956V180.928L301.36 190.925L281.27 200.956Z" fill="#4166AE"/>
<path d="M321.453 60.8284L341.544 70.8257L361.635 80.8559V60.8284V40.8008L341.544 50.831L321.453 60.8284Z" fill="#57B3DA"/>
<path d="M321.453 100.851L341.544 110.881L361.635 120.878V100.851V80.856L341.544 90.8533L321.453 100.851Z" fill="#4166AE"/>
<path d="M321.453 220.95L341.544 230.98L361.635 240.978V220.95V200.956L341.544 210.953L321.453 220.95Z" fill="#437DBF"/>
<path opacity="0.4" d="M321.453 261.005L341.544 271.003L361.635 281V261.005V240.978L341.544 250.975L321.453 261.005Z" fill="white"/>
<path d="M361.635 80.8559L341.544 90.8533L321.453 100.851V80.8559V60.8283L341.544 70.8257L361.635 80.8559Z" fill="#437DBF"/>
<path d="M361.635 120.878L341.544 130.876L321.453 140.906V120.878V100.851L341.544 110.881L361.635 120.878Z" fill="#1C4F9D"/>
<path d="M361.635 160.9L341.544 170.931L321.453 180.928V160.9V140.906L341.544 150.903L361.635 160.9Z" fill="#437DBF"/>
<path d="M361.635 200.956L341.544 210.953L321.453 220.95V200.956V180.928L341.544 190.925L361.635 200.956Z" fill="#57B3DA"/>
<path d="M401.814 20.8061L381.724 30.8035L361.633 40.8009V20.8061V0.778564L381.724 10.7759L401.814 20.8061Z" fill="#437DBF"/>
<path d="M401.814 100.851L381.724 110.881L361.633 120.878V100.851V80.856L381.724 90.8533L401.814 100.851Z" fill="#437DBF"/>
<path d="M401.814 180.928L381.724 190.925L361.633 200.956V180.928V160.901L381.724 170.931L401.814 180.928Z" fill="#437DBF"/>
<path d="M361.633 80.8559L381.724 90.8533L401.814 100.851V80.8559V60.8283L381.724 70.8257L361.633 80.8559Z" fill="#6AC399"/>
<path d="M361.633 200.956L381.724 210.953L401.814 220.95V200.956V180.928L381.724 190.925L361.633 200.956Z" fill="#6AC399"/>
<path d="M401.812 60.5063L421.903 70.5364L441.994 80.5338V60.5063V40.5115L421.903 50.5089L401.812 60.5063Z" fill="#4166AE"/>
<path opacity="0.4" d="M441.994 241.047L421.903 251.077L401.812 261.074V241.047V221.052L421.903 231.05L441.994 241.047Z" fill="#EBF6F3"/>
</g>
</svg>
