<svg width="152" height="171" viewBox="0 0 152 171" fill="none" xmlns="http://www.w3.org/2000/svg">
<path d="M75.7017 170.728C158.47 141.009 151.244 33.0917 151.244 33.0917C99.3497 15.3866 75.7017 0 75.7017 0C75.7017 0 52.0538 15.3866 0.159665 33.0917C0.159665 33.0917 -7.06614 140.798 75.7017 170.728Z" fill="#64F9BF"/>
<path d="M75.4832 140.587C127.596 121.196 122.998 51.2184 122.998 51.2184C90.3726 39.8365 75.4832 29.7193 75.4832 29.7193C75.4832 29.7193 60.5937 39.8365 27.9683 51.2184C27.9683 51.2184 23.589 121.196 75.4832 140.587Z" fill="#41F6AF"/>
<path d="M92.7825 144.802C92.7825 145.224 93.0015 145.435 93.0015 145.856C93.0015 148.175 91.0308 150.072 88.6222 150.072C86.2137 150.072 84.243 148.175 84.243 145.856C84.243 143.538 86.2137 141.641 88.6222 141.641C89.7171 141.641 90.5929 142.062 91.2498 142.484C105.701 132.999 122.78 114.872 130.006 80.0945L130.225 79.0407L143.144 78.8299C147.523 57.5416 147.085 39.8365 146.866 35.621C103.074 20.656 80.3016 7.16635 75.7034 4.42627C71.1052 7.16635 48.3331 20.656 4.75953 35.621C4.54057 39.8365 4.10267 57.5416 8.48192 78.8299H21.4007L21.6197 79.8838C25.78 99.9074 35.8522 126.676 60.376 142.273C61.0329 141.641 62.1277 141.43 63.0036 141.43C65.4122 141.43 67.3828 143.327 67.3828 145.646C67.3828 147.964 65.4122 149.861 63.0036 149.861C60.595 149.861 58.6243 147.964 58.6243 145.646C58.6243 145.224 58.6244 145.013 58.8433 144.592C33.8816 128.573 23.3713 101.804 18.9921 81.3592H7.60605C8.04398 83.2562 8.48188 85.1531 8.91981 87.0501C9.35773 86.8393 9.79567 86.8393 10.2336 86.8393C12.6422 86.8393 14.6128 88.7363 14.6128 91.0548C14.6128 92.5303 13.737 93.7949 12.6422 94.638C23.8093 130.259 45.0486 154.077 75.7034 165.248C106.358 154.077 127.379 130.259 138.765 94.638C137.451 93.7949 136.794 92.5303 136.794 91.0548C136.794 88.7363 138.765 86.8393 141.173 86.8393C141.611 86.8393 142.049 86.8393 142.487 87.0501C142.925 85.1531 143.363 83.2562 143.801 81.3592L132.415 81.57C128.036 102.226 117.525 128.784 92.7825 144.802ZM85.3378 18.5482C87.7464 18.5482 89.7171 20.4452 89.7171 22.7637C89.7171 23.396 89.4981 23.8176 89.2791 24.4499C98.9135 29.087 113.803 35.8318 134.604 42.9981L135.48 43.2089V44.052C135.48 44.4735 136.137 53.3261 134.604 66.1834C136.137 66.8157 137.013 68.2911 137.013 69.9773C137.013 72.2959 135.042 74.1928 132.634 74.1928C130.225 74.1928 128.254 72.2959 128.254 69.9773C128.254 67.8696 129.787 66.1834 131.758 65.7618C132.853 55.6446 132.634 47.8459 132.634 45.3166C111.613 38.1503 96.5049 31.4055 87.0895 26.5577C86.4326 26.7684 85.7757 26.9792 85.1188 26.9792C82.7102 26.9792 80.7396 25.0822 80.7396 22.7637C80.9585 20.4452 82.9292 18.5482 85.3378 18.5482ZM18.5542 74.1928C16.1456 74.1928 14.175 72.2959 14.175 69.9773C14.175 68.2911 15.2697 66.8157 16.5835 66.1834C15.2697 53.3261 15.7077 44.4735 15.7077 44.052V43.2089L16.5835 42.9981C37.3849 35.8318 52.2744 29.2977 61.9088 24.4499C61.6898 24.0284 61.4708 23.396 61.4708 22.7637C61.4708 20.4452 63.4415 18.5482 65.8501 18.5482C68.2587 18.5482 70.2293 20.4452 70.2293 22.7637C70.2293 25.0822 68.2587 26.9792 65.8501 26.9792C65.1932 26.9792 64.5363 26.7684 63.8794 26.5577C54.464 31.4055 39.3556 37.9395 18.3352 45.3166C18.3352 47.8459 18.1163 55.6446 19.2111 65.7618C21.1817 66.1834 22.7145 67.8696 22.7145 69.9773C22.9335 72.2959 20.9628 74.1928 18.5542 74.1928ZM75.4845 140.798C23.5904 121.406 27.9696 51.4291 27.9696 51.4291C60.595 40.0473 75.4845 29.9301 75.4845 29.9301C75.4845 29.9301 90.3739 40.0473 122.999 51.4291C122.999 51.4291 127.598 121.406 75.4845 140.798Z" fill="#000C3F"/>
<path d="M120.372 53.3261C94.7533 44.2628 80.5207 36.0426 75.7035 33.3025C71.1053 36.2533 56.8727 44.2628 31.0352 53.3261C31.0352 58.3847 31.0351 72.5067 35.1954 88.104C41.9833 112.975 55.559 129.627 75.4846 137.636C95.4102 129.837 108.986 113.186 115.774 88.104C120.372 72.5067 120.372 58.3847 120.372 53.3261Z" fill="#000C3F"/>
<path d="M75.7035 33.3025C71.1053 36.2533 56.8727 44.2628 31.0352 53.3261C31.0352 58.3847 31.0351 72.5067 35.1954 88.104C41.9833 112.975 55.559 129.627 75.4846 137.636" fill="#1C445F"/>
<path d="M101.102 63.0217V83.8885L105.262 85.9962V65.1295L101.102 63.0217Z" fill="url(#paint0_linear)"/>
<path d="M46.3613 85.9962L50.5216 83.8885V63.0217L46.3613 65.3403V85.9962Z" fill="url(#paint1_linear)"/>
<path d="M66.2873 85.7855L85.1181 95.9027V91.4764L67.3821 81.9915L66.0684 82.6238V85.7855H66.2873Z" fill="#2BEDA7"/>
<path d="M86.2141 101.804L66.2885 91.0548V95.4811L71.5436 98.432L65.1937 101.804C64.7558 102.015 64.7558 102.647 65.1937 102.858L68.2591 104.544L75.7038 100.54L83.1486 104.544L86.2141 102.858C86.652 102.647 86.652 102.226 86.2141 101.804Z" fill="#2BEDA7"/>
<path d="M101.102 75.4575V93.7949C101.102 94.2165 101.539 94.638 101.977 94.4272L104.824 92.9518C105.043 92.741 105.262 92.741 105.262 92.3195V73.1389L101.102 75.4575Z" fill="url(#paint2_linear)"/>
<path d="M93.2198 99.2751L95.8474 97.7997C96.0664 97.5889 96.2854 97.3781 96.2854 96.9566V77.9868L92.125 80.3053V98.6428C92.125 99.0643 92.7819 99.4859 93.2198 99.2751Z" fill="url(#paint3_linear)"/>
<path d="M83.1465 104.544L86.8688 102.437C87.0877 102.226 87.3067 102.226 87.3067 101.804V82.6238L83.1465 84.9424V104.544Z" fill="url(#paint4_linear)"/>
<path d="M64.7543 102.648L68.4767 104.755V85.364L64.3164 83.0454V102.226C64.3164 102.226 64.5353 102.437 64.7543 102.648Z" fill="url(#paint5_linear)"/>
<path d="M55.7761 97.7997L58.4036 99.2751C58.8415 99.4859 59.2794 99.2751 59.2794 98.6428V80.3053L55.1191 77.9868V96.9566C55.3381 97.3781 55.5571 97.5889 55.7761 97.7997Z" fill="url(#paint6_linear)"/>
<path d="M46.7995 92.9518L49.427 94.4272C49.8649 94.638 50.3029 94.4272 50.3029 93.7949V75.4575L46.1426 73.1389V92.1087C46.3615 92.5303 46.5805 92.741 46.7995 92.9518Z" fill="url(#paint7_linear)"/>
<path d="M105.263 65.1295L101.103 62.811L93.6582 66.8157L88.841 64.0756L95.191 60.7032C95.6289 60.4925 95.6289 59.8601 95.191 59.6494L92.5634 58.1739C92.3444 57.9632 91.9065 57.9632 91.6876 58.1739L84.8997 61.9679L80.0825 59.2278L86.4325 55.8554C86.8704 55.6446 86.8704 55.0123 86.4325 54.8015L83.8049 53.3261C83.5859 53.1153 83.148 53.1153 82.9291 53.3261L76.1412 57.1201L69.3533 53.3261C69.1344 53.1153 68.6965 53.1153 68.4775 53.3261L65.8499 54.8015C65.412 55.0123 65.412 55.6446 65.8499 55.8554L101.76 75.2467L105.92 72.9282L98.4754 68.9235L105.263 65.1295Z" fill="#2BEDA7"/>
<path d="M59.0615 58.3847L56.4339 59.8602C55.996 60.0709 55.996 60.7033 56.4339 60.914L92.3438 80.3054L96.5041 77.9868L60.1563 58.3847C59.7184 58.174 59.2805 58.174 59.0615 58.3847Z" fill="#2BEDA7"/>
<path d="M46.3613 65.1295L53.806 69.1342L46.3613 73.139L50.5216 75.2467L57.9664 71.242L62.7835 73.9821L55.3388 77.9868L59.4991 80.0945L66.9438 76.0898L71.761 78.8299L64.3163 82.8346L68.4766 84.9424L75.9213 80.9376L83.366 84.9424L87.5263 82.8346L50.7406 62.811L46.3613 65.1295Z" fill="#2BEDA7"/>
<path d="M18.9921 81.7808L7.60605 81.57C8.04397 83.467 8.48188 85.3639 8.9198 87.2609C9.35773 87.0501 9.79567 87.0501 10.2336 87.0501C12.6422 87.0501 14.6128 88.9471 14.6128 91.2657C14.6128 92.7411 13.737 94.0057 12.6422 94.8488C23.8093 130.47 45.0486 154.287 75.7034 165.458C75.9223 165.458 76.1413 165.248 76.1413 165.248V140.587C76.1413 140.587 75.9224 140.587 75.9224 140.798C23.8093 121.406 28.4075 51.4292 28.4075 51.4292C61.0329 40.0473 75.9224 29.9301 75.9224 29.9301C75.9224 29.9301 75.9224 29.9301 76.1413 30.1409V4.84786C75.9224 4.63709 75.7034 4.63708 75.7034 4.63708C71.1052 7.37716 48.3331 20.8668 4.75953 35.8318C4.54057 40.0473 4.10267 57.7524 8.48192 79.0407L21.4007 79.2515L21.6197 80.3054C28.8454 115.083 45.7055 133.21 60.376 142.695C61.0329 142.062 62.1277 141.852 63.0036 141.852C65.4122 141.852 67.3828 143.749 67.3828 146.067C67.3828 148.386 65.4122 150.283 63.0036 150.283C60.595 150.283 58.6243 148.386 58.6243 146.067C58.6243 145.646 58.6243 145.435 58.8433 145.013C34.1005 128.784 23.5903 102.226 18.9921 81.7808ZM18.5542 45.3167C18.5542 47.846 18.3352 55.6447 19.43 65.7619C21.4007 66.1834 22.9335 67.8696 22.9335 69.9774C22.9335 72.2959 20.9628 74.1929 18.5542 74.1929C16.1456 74.1929 14.175 72.2959 14.175 69.9774C14.175 68.2912 15.2697 66.8157 16.5835 66.1834C15.2697 53.3261 15.7077 44.4736 15.7077 44.052V43.2089L16.5835 42.9982C37.3849 35.8318 52.2744 29.2978 61.9088 24.4499C61.6898 24.0284 61.4708 23.3961 61.4708 22.7637C61.4708 20.4452 63.4415 18.5482 65.8501 18.5482C68.2586 18.5482 70.2293 20.4452 70.2293 22.7637C70.2293 25.0823 68.2586 26.9792 65.8501 26.9792C65.1932 26.9792 64.5363 26.7685 63.8794 26.5577C54.683 31.1947 39.5746 37.9396 18.5542 45.3167Z" fill="#1C445F"/>
<defs>
<linearGradient id="paint0_linear" x1="103.257" y1="62.9783" x2="103.257" y2="85.9975" gradientUnits="userSpaceOnUse">
<stop stop-color="#2BEDA7"/>
<stop offset="1" stop-color="#018AFD"/>
</linearGradient>
<linearGradient id="paint1_linear" x1="48.3749" y1="62.9783" x2="48.3749" y2="85.9975" gradientUnits="userSpaceOnUse">
<stop stop-color="#2BEDA7"/>
<stop offset="1" stop-color="#018AFD"/>
</linearGradient>
<linearGradient id="paint2_linear" x1="103.257" y1="73.1655" x2="103.257" y2="94.4369" gradientUnits="userSpaceOnUse">
<stop stop-color="#2BEDA7"/>
<stop offset="1" stop-color="#018AFD"/>
</linearGradient>
<linearGradient id="paint3_linear" x1="94.2453" y1="78.0583" x2="94.2453" y2="99.308" gradientUnits="userSpaceOnUse">
<stop stop-color="#2BEDA7"/>
<stop offset="1" stop-color="#018AFD"/>
</linearGradient>
<linearGradient id="paint4_linear" x1="85.2321" y1="82.92" x2="85.2321" y2="104.625" gradientUnits="userSpaceOnUse">
<stop stop-color="#2BEDA7"/>
<stop offset="1" stop-color="#018AFD"/>
</linearGradient>
<linearGradient id="paint5_linear" x1="66.4116" y1="82.9287" x2="66.4116" y2="104.636" gradientUnits="userSpaceOnUse">
<stop stop-color="#2BEDA7"/>
<stop offset="1" stop-color="#018AFD"/>
</linearGradient>
<linearGradient id="paint6_linear" x1="57.3865" y1="78.0366" x2="57.3865" y2="99.3084" gradientUnits="userSpaceOnUse">
<stop stop-color="#2BEDA7"/>
<stop offset="1" stop-color="#018AFD"/>
</linearGradient>
<linearGradient id="paint7_linear" x1="48.3751" y1="73.1657" x2="48.3751" y2="94.4376" gradientUnits="userSpaceOnUse">
<stop stop-color="#2BEDA7"/>
<stop offset="1" stop-color="#018AFD"/>
</linearGradient>
</defs>
</svg>
