<svg width="29" height="29" viewBox="0 0 29 29" fill="none" xmlns="http://www.w3.org/2000/svg">
<path fill-rule="evenodd" clip-rule="evenodd" d="M14.2287 3.81927C8.35905 3.81927 3.55664 8.62164 3.55664 14.4912C3.55664 19.2269 6.62485 23.2288 10.827 24.6295C11.3606 24.6962 11.5607 24.4294 11.5607 24.0959C11.5607 23.8291 11.5607 23.1621 11.5607 22.295C8.55915 22.962 7.95885 20.8943 7.95885 20.8943C7.49195 19.6938 6.75825 19.3603 6.75825 19.3603C5.75774 18.6933 6.82495 18.6933 6.82495 18.6933C7.89215 18.76 8.49245 19.7605 8.49245 19.7605C9.42625 21.3612 10.9604 20.8943 11.6274 20.6275C11.6941 19.9606 12.0276 19.4937 12.2944 19.2269C9.89315 18.9601 7.42525 18.0263 7.42525 13.9576C7.42525 12.8237 7.82545 11.8232 8.49245 11.0895C8.35905 10.8227 8.02555 9.75553 8.62585 8.28814C8.62585 8.28814 9.49295 8.02134 11.5607 9.35533C12.4278 9.08853 13.2949 9.02183 14.2287 9.02183C15.1625 9.02183 16.0296 9.15523 16.8967 9.35533C18.9644 7.95464 19.8315 8.22144 19.8315 8.22144C20.4318 9.68883 20.0316 10.756 19.9649 11.0228C20.6319 11.7565 21.0321 12.6903 21.0321 13.8909C21.0321 17.9596 18.5642 18.8934 16.163 19.1602C16.5632 19.4937 16.8967 20.1606 16.8967 21.1611C16.8967 22.5618 16.8967 23.7624 16.8967 24.0959C16.8967 24.3627 17.0968 24.6962 17.6304 24.6295C21.8325 23.2288 24.9007 19.2269 24.9007 14.4912C24.9007 8.62164 20.0983 3.81927 14.2287 3.81927Z" fill="#BDBDBD"/>
</svg>
