<svg width="30" height="30" viewBox="0 0 30 30" fill="none" xmlns="http://www.w3.org/2000/svg">
<mask id="mask0" mask-type="alpha" maskUnits="userSpaceOnUse" x="5" y="5" width="19" height="20">
<path fill-rule="evenodd" clip-rule="evenodd" d="M5.49805 5.55762H23.8237V24.082H5.49805V5.55762Z" fill="white"/>
</mask>
<g mask="url(#mask0)">
<path fill-rule="evenodd" clip-rule="evenodd" d="M8.94504 9.30966C8.95008 9.81304 9.15965 10.2293 9.58753 10.5176C10.1121 10.871 10.9697 10.828 11.4938 10.4379C12.2293 9.89037 12.2232 8.70442 11.4827 8.16644C11.0954 7.88504 10.6604 7.82372 10.2014 7.88664C9.47301 7.98649 8.96299 8.56071 8.94504 9.30966ZM9.10314 16.0893C9.10314 17.4307 9.10464 18.7721 9.10071 20.1135C9.10033 20.2386 9.12764 20.2856 9.26181 20.2846C10.0765 20.2786 10.8914 20.2786 11.7061 20.2844C11.8389 20.2853 11.8684 20.2403 11.8683 20.1143C11.8652 17.4315 11.8648 14.7487 11.869 12.0658C11.8692 11.9226 11.8197 11.8957 11.6915 11.8965C10.8865 11.9016 10.0814 11.9027 9.27647 11.8957C9.13166 11.8944 9.09948 11.9406 9.10001 12.0799C9.10496 13.4163 9.103 14.7528 9.10314 16.0893ZM16.1394 11.9154C16.0936 11.9081 16.0655 11.8998 16.0374 11.8998C15.1936 11.8989 14.3498 11.9008 13.506 11.8967C13.3929 11.8962 13.3808 11.9487 13.382 12.0413C13.3898 12.6526 13.3993 13.2639 13.3984 13.8752C13.3953 15.9559 13.3893 18.0365 13.3799 20.1171C13.3793 20.2461 13.4118 20.2853 13.5424 20.2843C14.3618 20.2785 15.1812 20.2795 16.0006 20.2837C16.1124 20.2843 16.1418 20.2457 16.1406 20.1385C16.1358 19.7195 16.1378 19.3004 16.1391 18.8813C16.1426 17.7227 16.1505 16.5642 16.15 15.4057C16.1497 14.7244 16.7115 13.9551 17.5493 13.9107C18.1791 13.8773 18.6676 14.1505 18.8882 14.797C19.0268 15.203 19.0341 15.6185 19.0346 16.0372C19.0361 17.3931 19.0374 18.749 19.0321 20.1049C19.0315 20.2501 19.0764 20.2854 19.2142 20.2844C20.0189 20.2784 20.8238 20.2783 21.6285 20.2846C21.7655 20.2857 21.8006 20.2428 21.8002 20.1089C21.7961 18.5755 21.8014 17.0421 21.7958 15.5088C21.7932 14.8046 21.7099 14.1121 21.4214 13.4599C21.1893 12.9352 20.8508 12.5001 20.3683 12.1868C19.8432 11.8458 19.2616 11.7126 18.6451 11.7068C17.6798 11.6977 16.8902 12.0565 16.3066 12.8471C16.2619 12.9077 16.217 12.9682 16.1722 13.0287C16.1613 13.0252 16.1503 13.0217 16.1394 13.0182V11.9154ZM5.49805 21.5963V8.04332C5.51473 7.97754 5.53318 7.91214 5.54778 7.84588C5.79799 6.71163 6.46881 5.97489 7.57728 5.6529C7.70257 5.6165 7.83044 5.58916 7.95708 5.55762H21.3647C21.4299 5.57422 21.4946 5.59233 21.5602 5.60715C22.6818 5.8609 23.4122 6.53743 23.7293 7.65934C23.7652 7.78608 23.7925 7.91528 23.8237 8.04332V21.5963C23.8079 21.6573 23.7899 21.7178 23.7766 21.7793C23.5294 22.9273 22.8534 23.6702 21.7312 23.9906C21.6102 24.0252 21.4869 24.0518 21.3647 24.082H7.95708C7.89681 24.0662 7.837 24.0483 7.7762 24.0349C6.64715 23.7854 5.91292 23.1069 5.59228 21.9801C5.55627 21.8535 5.52925 21.7243 5.49805 21.5963Z" fill="#BDBDBD"/>
</g>
</svg>
