<svg width="28" height="30" viewBox="0 0 28 30" fill="none" xmlns="http://www.w3.org/2000/svg">
<mask id="mask0" mask-type="alpha" maskUnits="userSpaceOnUse" x="3" y="6" width="22" height="18">
<path fill-rule="evenodd" clip-rule="evenodd" d="M3.75391 6.12128H24.1411V23.5183H3.75391V6.12128Z" fill="white"/>
</mask>
<g mask="url(#mask0)">
<path fill-rule="evenodd" clip-rule="evenodd" d="M9.91164 19.7482C7.99251 19.5673 6.71215 18.5697 6.0021 16.682C6.642 16.7913 7.23228 16.7745 7.84936 16.6163C5.77226 15.9584 4.67098 14.5322 4.55406 12.285C5.13978 12.5549 5.72835 12.7692 6.423 12.7746C5.3719 11.9788 4.75824 10.9495 4.61395 9.65222C4.49988 8.62358 4.70577 7.7203 5.14948 6.94598C7.41535 9.72983 10.2789 11.2695 13.7818 11.5209C13.7544 11.2373 13.7179 10.9841 13.7071 10.731C13.6432 9.2773 14.1554 8.07134 15.2065 7.14001C16.6015 5.90241 18.6187 5.78599 20.1523 6.82598C20.3964 6.99195 20.6142 7.2021 20.8355 7.40269C20.9182 7.47732 20.9861 7.5012 21.0967 7.47493C21.8866 7.28687 22.6429 7.00747 23.3495 6.58957C23.4185 6.54897 23.4921 6.51673 23.6004 6.4624C23.2742 7.48389 22.6873 8.2385 21.8701 8.80745C21.8741 8.82298 21.8775 8.8391 21.8815 8.85462C22.1307 8.80925 22.3822 8.77342 22.6286 8.71492C22.883 8.65402 23.1339 8.57761 23.3831 8.49402C23.6301 8.41164 23.8719 8.31253 24.1411 8.24507C23.9574 8.49283 23.7818 8.74716 23.5896 8.98775C23.1755 9.50476 22.7067 9.96028 22.1957 10.3704C22.1353 10.4188 22.0885 10.5316 22.0914 10.6122C22.1296 11.882 21.9796 13.1286 21.6539 14.3489C21.3796 15.3775 20.9889 16.3596 20.4842 17.2909C20.077 18.0414 19.6071 18.7435 19.0664 19.3942C17.8767 20.824 16.4469 21.9034 14.7679 22.6157C13.4579 23.1703 12.0931 23.4569 10.6827 23.5088C9.68807 23.5452 8.69971 23.4801 7.72617 23.2622C6.74409 23.0431 5.79279 22.719 4.89854 22.2324C4.55178 22.0437 4.21301 21.8384 3.87025 21.6402C3.84345 21.6246 3.81892 21.6043 3.75391 21.559C6.04944 21.7805 8.07977 21.2002 9.91164 19.7482Z" fill="#BDBDBD"/>
</g>
</svg>
