<svg width="46" height="49" viewBox="0 0 46 49" fill="none" xmlns="http://www.w3.org/2000/svg">
<path fill-rule="evenodd" clip-rule="evenodd" d="M19.51 8.982L27.3349 0.994129C27.4491 0.877267 27.5947 0.797647 27.7532 0.765364C27.9118 0.733082 28.0762 0.749589 28.2256 0.812795C28.3749 0.876 28.5025 0.983057 28.5922 1.12039C28.6819 1.25773 28.7297 1.41916 28.7294 1.58422V17.56C28.7297 17.725 28.6819 17.8864 28.5922 18.0238C28.5025 18.1611 28.3749 18.2682 28.2256 18.3314C28.0762 18.3946 27.9118 18.4111 27.7532 18.3788C27.5947 18.3465 27.4491 18.2669 27.3349 18.15L19.51 10.1622C19.434 10.0848 19.3737 9.99278 19.3325 9.89153C19.2913 9.79027 19.2702 9.68172 19.2702 9.57209C19.2702 9.46246 19.2913 9.35391 19.3325 9.25265C19.3737 9.15139 19.434 9.05942 19.51 8.982ZM8.31813 7.07171C7.66852 7.07171 7.04552 7.33514 6.58617 7.80406C6.12683 8.27297 5.86878 8.90895 5.86878 9.57209C5.86878 10.2352 6.12683 10.8712 6.58617 11.3401C7.04552 11.809 7.66852 12.0725 8.31813 12.0725C8.96773 12.0725 9.59073 11.809 10.0501 11.3401C10.5094 10.8712 10.7675 10.2352 10.7675 9.57209C10.7675 8.90895 10.5094 8.27297 10.0501 7.80406C9.59073 7.33514 8.96773 7.07171 8.31813 7.07171ZM0.970078 9.57209C0.970485 8.19699 1.34116 6.84846 2.0416 5.67388C2.74204 4.4993 3.74529 3.54387 4.9417 2.91202C6.13811 2.28016 7.48164 1.99618 8.82547 2.09113C10.1693 2.18607 11.4617 2.65628 12.5614 3.45036C13.6612 4.24445 14.5259 5.33185 15.0612 6.59373C15.5964 7.85561 15.7816 9.24341 15.5964 10.6055C15.4113 11.9675 14.8629 13.2514 14.0113 14.3168C13.1596 15.3822 12.0375 16.1881 10.7675 16.6465V34.1691C12.4026 34.759 13.7808 35.92 14.6585 37.4469C15.5362 38.9738 15.8568 40.7683 15.5637 42.5132C15.2705 44.2581 14.3825 45.8411 13.0567 46.9822C11.7308 48.1234 10.0524 48.7493 8.31813 48.7493C6.58388 48.7493 4.90548 48.1234 3.57959 46.9822C2.2537 45.8411 1.36571 44.2581 1.07258 42.5132C0.779454 40.7683 1.10006 38.9738 1.97773 37.4469C2.85541 35.92 4.23363 34.759 5.86878 34.1691V16.6465C4.43579 16.1293 3.19516 15.1712 2.31783 13.9042C1.44049 12.6372 0.969619 11.1237 0.970078 9.57209ZM31.9952 7.07171H28.7294V12.0725H31.9952C32.8613 12.0725 33.692 12.4237 34.3044 13.0489C34.9169 13.6741 35.261 14.5221 35.261 15.4063V34.1691C33.6258 34.759 32.2476 35.92 31.3699 37.4469C30.4922 38.9738 30.1716 40.7683 30.4648 42.5132C30.7579 44.2581 31.6459 45.8411 32.9718 46.9822C34.2977 48.1234 35.9761 48.7493 37.7103 48.7493C39.4446 48.7493 41.123 48.1234 42.4488 46.9822C43.7747 45.8411 44.6627 44.2581 44.9559 42.5132C45.249 40.7683 44.9284 38.9738 44.0507 37.4469C43.173 35.92 41.7948 34.759 40.1597 34.1691V15.4063C40.1597 13.1958 39.2995 11.0759 37.7683 9.51286C36.2372 7.94982 34.1605 7.07171 31.9952 7.07171ZM35.261 41.2435C35.261 40.5804 35.519 39.9444 35.9784 39.4755C36.4377 39.0066 37.0607 38.7432 37.7103 38.7432C38.3599 38.7432 38.9829 39.0066 39.4423 39.4755C39.9016 39.9444 40.1597 40.5804 40.1597 41.2435C40.1597 41.9067 39.9016 42.5427 39.4423 43.0116C38.9829 43.4805 38.3599 43.7439 37.7103 43.7439C37.0607 43.7439 36.4377 43.4805 35.9784 43.0116C35.519 42.5427 35.261 41.9067 35.261 41.2435ZM8.31813 38.7432C7.66852 38.7432 7.04552 39.0066 6.58617 39.4755C6.12683 39.9444 5.86878 40.5804 5.86878 41.2435C5.86878 41.9067 6.12683 42.5427 6.58617 43.0116C7.04552 43.4805 7.66852 43.7439 8.31813 43.7439C8.96773 43.7439 9.59073 43.4805 10.0501 43.0116C10.5094 42.5427 10.7675 41.9067 10.7675 41.2435C10.7675 40.5804 10.5094 39.9444 10.0501 39.4755C9.59073 39.0066 8.96773 38.7432 8.31813 38.7432Z" fill="#063359"/>
</svg>
