<svg width="33" height="45" viewBox="0 0 33 45" fill="none" xmlns="http://www.w3.org/2000/svg">
<path d="M16.526 28.5387C20.3702 28.5387 23.4502 25.4356 23.4502 21.5914L23.4733 7.69664C23.4733 3.85243 20.3702 0.749268 16.526 0.749268C12.6817 0.749268 9.57859 3.85243 9.57859 7.69664V21.5914C9.57859 25.4356 12.6817 28.5387 16.526 28.5387ZM28.7996 21.5914C28.7996 28.5387 22.9175 33.4019 16.526 33.4019C10.1344 33.4019 4.25227 28.5387 4.25227 21.5914H0.31543C0.31543 29.4882 6.61438 36.0187 14.2102 37.1535V44.7493H18.8417V37.1535C26.4375 36.0419 32.7365 29.5114 32.7365 21.5914H28.7996Z" fill="#063359"/>
</svg>
