<svg width="48" height="49" viewBox="0 0 48 49" fill="none" xmlns="http://www.w3.org/2000/svg">
<rect y="0.249268" width="48" height="48" fill="white"/>
<g clip-path="url(#clip0)">
<path d="M42.9579 14.306C42.9869 14.7315 42.9869 15.157 42.9869 15.5864C42.9869 28.6707 33.1546 43.7609 15.1759 43.7609V43.753C9.86497 43.7609 4.66433 42.2197 0.193359 39.3138C0.965617 39.4079 1.74175 39.455 2.51981 39.457C6.9211 39.4609 11.1966 37.9648 14.6592 35.2099C10.4766 35.1295 6.80884 32.3668 5.52755 28.3334C6.99271 28.6197 8.50239 28.5609 9.94046 28.1628C5.38046 27.2295 2.09981 23.1707 2.09981 18.457C2.09981 18.4138 2.09981 18.3727 2.09981 18.3315C3.45852 19.0981 4.97981 19.5236 6.53594 19.5707C2.2411 16.6628 0.91723 10.8746 3.51078 6.34912C8.47336 12.5354 15.7953 16.2962 23.6553 16.6942C22.8676 13.255 23.9437 9.65108 26.483 7.23344C30.4198 3.48442 36.6114 3.67657 40.3121 7.66285C42.5011 7.22559 44.5992 6.41187 46.5192 5.25893C45.7895 7.55108 44.2624 9.49814 42.2224 10.7354C44.1598 10.504 46.0527 9.97853 47.8353 9.17657C46.523 11.1687 44.8701 12.904 42.9579 14.306Z" fill="#063359"/>
</g>
<defs>
<clipPath id="clip0">
<rect width="48" height="40" fill="white" transform="translate(0 4.24927)"/>
</clipPath>
</defs>
</svg>
