<?xml version="1.0" encoding="utf-8"?>
<!-- Generator: Adobe Illustrator 24.1.2, SVG Export Plug-In . SVG Version: 6.00 Build 0)  -->
<svg version="1.1" id="Layer_1" xmlns="http://www.w3.org/2000/svg" xmlns:xlink="http://www.w3.org/1999/xlink" x="0px" y="0px"
	 viewBox="0 0 1300 535.4" style="enable-background:new 0 0 1300 535.4;" xml:space="preserve">
<style type="text/css">
	.st0{enable-background:new    ;}
	.st1{fill:#888888;}
	.st2{fill:#F1F0F0;}
	.st3{fill:none;stroke:#888888;stroke-width:2;stroke-miterlimit:10;}
	.st4{fill:#212960;}
	.st5{fill:#FFFFFF;stroke:#212960;stroke-width:2;stroke-miterlimit:10;}
</style>
<g>
	<g class="st0">
		<path class="st1" d="M443.4,30.6c-1.2-1.1-1.9-2.7-1.9-4.8c0-0.4,0-1.1,0-2.1c0-1,0-1.7,0-2.2c0.1-2,0.7-3.6,2-4.8
			c1.2-1.1,2.9-1.7,5.1-1.7c1.4,0,2.7,0.2,3.7,0.7c1.1,0.5,1.9,1.2,2.4,2c0.6,0.8,0.9,1.8,0.9,2.8v0c0,0.1-0.1,0.2-0.2,0.3
			s-0.2,0.1-0.3,0.1h-2.3c-0.2,0-0.3,0-0.4-0.1c-0.1-0.1-0.2-0.2-0.2-0.5c-0.3-1-0.7-1.7-1.3-2.1c-0.6-0.4-1.4-0.6-2.4-0.6
			c-2.3,0-3.5,1.3-3.6,3.9c0,0.4,0,1.1,0,2s0,1.6,0,2c0.1,2.6,1.3,3.9,3.6,3.9c1,0,1.8-0.2,2.4-0.6c0.6-0.4,1-1.1,1.3-2.1
			c0-0.2,0.1-0.4,0.2-0.5c0.1-0.1,0.3-0.1,0.4-0.1h2.3c0.1,0,0.3,0,0.4,0.1c0.1,0.1,0.1,0.2,0.1,0.4c0,1.1-0.3,2-0.9,2.8
			c-0.6,0.8-1.4,1.5-2.4,2c-1.1,0.5-2.3,0.7-3.7,0.7C446.3,32.3,444.6,31.8,443.4,30.6z"/>
		<path class="st1" d="M458.4,31.9c-0.1-0.1-0.2-0.2-0.2-0.4V15.6c0-0.2,0.1-0.3,0.2-0.4s0.2-0.2,0.4-0.2h2c0.2,0,0.3,0.1,0.4,0.2
			c0.1,0.1,0.2,0.2,0.2,0.4v15.9c0,0.2-0.1,0.3-0.2,0.4c-0.1,0.1-0.2,0.2-0.4,0.2h-2C458.6,32.1,458.5,32,458.4,31.9z"/>
		<path class="st1" d="M465.7,30.9c-0.8-1-1.3-2.3-1.3-3.9v-6.7c0-0.2,0.1-0.3,0.2-0.4c0.1-0.1,0.2-0.2,0.4-0.2h2.1
			c0.2,0,0.3,0.1,0.4,0.2c0.1,0.1,0.2,0.2,0.2,0.4v6.6c0,2,0.9,3,2.6,3c0.8,0,1.5-0.3,2-0.8c0.5-0.5,0.7-1.3,0.7-2.2v-6.6
			c0-0.2,0.1-0.3,0.2-0.4c0.1-0.1,0.2-0.2,0.4-0.2h2.1c0.2,0,0.3,0.1,0.4,0.2c0.1,0.1,0.2,0.2,0.2,0.4v11.3c0,0.2-0.1,0.3-0.2,0.4
			c-0.1,0.1-0.2,0.2-0.4,0.2h-1.9c-0.2,0-0.3-0.1-0.4-0.2c-0.1-0.1-0.2-0.2-0.2-0.4v-1c-0.9,1.2-2.2,1.8-4,1.8
			C467.7,32.3,466.5,31.8,465.7,30.9z"/>
		<path class="st1" d="M481.2,31.8c-0.8-0.4-1.4-0.8-1.8-1.3c-0.4-0.5-0.6-0.9-0.6-1.3c0-0.2,0.1-0.3,0.2-0.4
			c0.1-0.1,0.2-0.1,0.4-0.1h1.9c0.1,0,0.3,0.1,0.4,0.2c0.1,0,0.2,0.2,0.5,0.4c0.3,0.3,0.6,0.5,1,0.6c0.4,0.1,0.8,0.2,1.2,0.2
			c0.6,0,1.2-0.1,1.6-0.4s0.6-0.6,0.6-1.1c0-0.3-0.1-0.6-0.3-0.8c-0.2-0.2-0.5-0.4-1-0.6s-1.2-0.3-2.1-0.5c-1.4-0.3-2.4-0.7-3-1.3
			s-1-1.4-1-2.4c0-0.6,0.2-1.2,0.6-1.8c0.4-0.6,1-1,1.7-1.4c0.8-0.4,1.7-0.5,2.7-0.5c1.1,0,2,0.2,2.8,0.5c0.8,0.3,1.4,0.8,1.8,1.2
			c0.4,0.5,0.6,0.9,0.6,1.3c0,0.1-0.1,0.3-0.2,0.4c-0.1,0.1-0.2,0.2-0.4,0.2H487c-0.1,0-0.3-0.1-0.4-0.2c-0.1-0.1-0.3-0.2-0.5-0.5
			c-0.2-0.2-0.5-0.4-0.8-0.5c-0.3-0.1-0.7-0.2-1.1-0.2c-0.6,0-1.1,0.1-1.4,0.4c-0.3,0.3-0.5,0.6-0.5,1c0,0.3,0.1,0.6,0.2,0.7
			c0.2,0.2,0.5,0.4,0.9,0.6c0.5,0.2,1.2,0.4,2.1,0.5c1.5,0.3,2.6,0.8,3.3,1.4c0.7,0.6,1,1.4,1,2.4c0,1.1-0.5,2-1.5,2.7
			c-1,0.7-2.3,1.1-4.1,1.1C483,32.3,482,32.1,481.2,31.8z"/>
		<path class="st1" d="M494.5,30.9c-0.7-0.8-1.1-1.9-1.1-3.3v-5.4h-1.9c-0.2,0-0.3-0.1-0.4-0.2s-0.2-0.3-0.2-0.4v-1.4
			c0-0.2,0.1-0.3,0.2-0.4c0.1-0.1,0.2-0.2,0.4-0.2h1.9v-4c0-0.2,0.1-0.3,0.2-0.4s0.2-0.2,0.4-0.2h1.9c0.2,0,0.3,0.1,0.4,0.2
			s0.2,0.2,0.2,0.4v4h3c0.2,0,0.3,0.1,0.4,0.2c0.1,0.1,0.2,0.2,0.2,0.4v1.4c0,0.2-0.1,0.3-0.2,0.4c-0.1,0.1-0.2,0.2-0.4,0.2h-3v5.2
			c0,0.7,0.1,1.2,0.4,1.6c0.2,0.4,0.6,0.5,1.2,0.5h1.7c0.2,0,0.3,0.1,0.4,0.2c0.1,0.1,0.2,0.2,0.2,0.4v1.5c0,0.2-0.1,0.3-0.2,0.4
			c-0.1,0.1-0.2,0.2-0.4,0.2h-1.9C496.4,32.1,495.3,31.7,494.5,30.9z"/>
		<path class="st1" d="M503.6,30.8c-1-1-1.6-2.5-1.7-4.4l0-0.6l0-0.6c0.1-1.8,0.6-3.3,1.7-4.3c1-1,2.5-1.6,4.2-1.6
			c1.9,0,3.3,0.6,4.4,1.7c1,1.2,1.5,2.7,1.5,4.6v0.5c0,0.2-0.1,0.3-0.2,0.4c-0.1,0.1-0.3,0.2-0.4,0.2h-8V27c0,0.9,0.3,1.6,0.7,2.2
			c0.5,0.6,1.1,0.9,1.9,0.9c0.9,0,1.7-0.4,2.3-1.1c0.1-0.2,0.3-0.3,0.3-0.3c0.1,0,0.2-0.1,0.4-0.1h2.1c0.1,0,0.3,0,0.4,0.1
			s0.2,0.2,0.2,0.3c0,0.4-0.2,0.8-0.7,1.4c-0.5,0.5-1.1,1-2,1.4c-0.8,0.4-1.8,0.6-3,0.6C506.1,32.3,504.7,31.8,503.6,30.8z
			 M510.5,24.8L510.5,24.8c0-1-0.2-1.8-0.7-2.4c-0.5-0.6-1.1-0.9-2-0.9s-1.5,0.3-1.9,0.9c-0.5,0.6-0.7,1.3-0.7,2.3v0.1H510.5z"/>
		<path class="st1" d="M516.5,31.9c-0.1-0.1-0.2-0.2-0.2-0.4V20.2c0-0.2,0.1-0.3,0.2-0.4c0.1-0.1,0.2-0.2,0.4-0.2h1.9
			c0.2,0,0.3,0.1,0.4,0.2c0.1,0.1,0.2,0.3,0.2,0.4v1c0.4-0.5,0.9-0.9,1.5-1.2c0.6-0.3,1.3-0.4,2-0.4h1c0.2,0,0.3,0.1,0.4,0.2
			c0.1,0.1,0.2,0.2,0.2,0.4v1.7c0,0.2-0.1,0.3-0.2,0.4c-0.1,0.1-0.2,0.2-0.4,0.2H522c-0.8,0-1.3,0.2-1.8,0.6c-0.4,0.4-0.6,1-0.6,1.8
			v6.6c0,0.2-0.1,0.3-0.2,0.4c-0.1,0.1-0.3,0.2-0.4,0.2h-2.1C516.7,32.1,516.6,32,516.5,31.9z"/>
	</g>
</g>
<g>
	<path class="st2" d="M849.8,47.9H450.2c-5.5,0-10,4.5-10,10v450.3c0,5.5,4.5,10,10,10h399.6c5.5,0,10-4.5,10-10V57.9
		C859.8,52.4,855.3,47.9,849.8,47.9z"/>
	<path class="st3" d="M849.8,47.9H450.2c-5.5,0-10,4.5-10,10v450.3c0,5.5,4.5,10,10,10h399.6c5.5,0,10-4.5,10-10V57.9
		C859.8,52.4,855.3,47.9,849.8,47.9z"/>
</g>
<g>
	<g class="st0">
		<path class="st4" d="M462.2,96.4c-0.1-0.1-0.2-0.2-0.2-0.4V80.4c0-0.2,0.1-0.3,0.2-0.4s0.2-0.2,0.4-0.2h1.8c0.2,0,0.3,0,0.4,0.1
			c0.1,0.1,0.2,0.2,0.3,0.3l6.9,10.8V80.4c0-0.2,0.1-0.3,0.2-0.4c0.1-0.1,0.2-0.2,0.4-0.2h2c0.2,0,0.3,0.1,0.4,0.2
			c0.1,0.1,0.2,0.3,0.2,0.4V96c0,0.2-0.1,0.3-0.2,0.4c-0.1,0.1-0.2,0.2-0.4,0.2h-1.9c-0.3,0-0.5-0.1-0.7-0.4l-6.9-10.5V96
			c0,0.2-0.1,0.3-0.2,0.4c-0.1,0.1-0.3,0.2-0.4,0.2h-2C462.5,96.6,462.3,96.5,462.2,96.4z"/>
		<path class="st4" d="M480.1,96.3c-0.7-0.3-1.2-0.8-1.6-1.3c-0.4-0.6-0.6-1.2-0.6-1.8c0-1.1,0.4-2,1.3-2.6s2.1-1.1,3.6-1.4l3.3-0.5
			v-0.5c0-0.7-0.2-1.2-0.5-1.6c-0.4-0.4-0.9-0.5-1.7-0.5c-0.5,0-1,0.1-1.3,0.3c-0.3,0.2-0.6,0.4-0.8,0.6c-0.2,0.2-0.3,0.3-0.4,0.4
			c-0.1,0.2-0.2,0.3-0.4,0.3h-1.8c-0.1,0-0.3,0-0.4-0.1c-0.1-0.1-0.2-0.2-0.2-0.4c0-0.4,0.2-0.9,0.6-1.4c0.4-0.5,1-1,1.7-1.3
			c0.8-0.4,1.7-0.6,2.9-0.6c1.9,0,3.3,0.4,4.1,1.3c0.9,0.8,1.3,2,1.3,3.3V96c0,0.2-0.1,0.3-0.2,0.4c-0.1,0.1-0.2,0.2-0.4,0.2h-1.9
			c-0.2,0-0.3-0.1-0.4-0.2c-0.1-0.1-0.2-0.2-0.2-0.4v-0.9c-0.4,0.5-0.9,0.9-1.5,1.3s-1.5,0.5-2.4,0.5
			C481.5,96.8,480.8,96.6,480.1,96.3z M485.3,93.7c0.6-0.6,0.8-1.4,0.8-2.5v-0.5l-2.4,0.4c-0.9,0.1-1.6,0.4-2.1,0.7
			c-0.5,0.3-0.7,0.7-0.7,1.2c0,0.5,0.2,0.9,0.6,1.2c0.4,0.3,1,0.4,1.6,0.4C484.1,94.5,484.8,94.2,485.3,93.7z"/>
		<path class="st4" d="M492.6,96.4c-0.1-0.1-0.2-0.2-0.2-0.4V84.7c0-0.2,0.1-0.3,0.2-0.4c0.1-0.1,0.2-0.2,0.4-0.2h1.9
			c0.2,0,0.3,0.1,0.4,0.2c0.1,0.1,0.2,0.2,0.2,0.4v0.8c0.8-1.1,2-1.6,3.5-1.6c1.8,0,3,0.7,3.7,2.1c0.4-0.6,0.9-1.2,1.6-1.5
			s1.5-0.6,2.3-0.6c1.3,0,2.4,0.4,3.2,1.3c0.8,0.9,1.2,2.2,1.2,3.9V96c0,0.2-0.1,0.3-0.2,0.4c-0.1,0.1-0.2,0.2-0.4,0.2h-2
			c-0.2,0-0.3-0.1-0.4-0.2c-0.1-0.1-0.2-0.2-0.2-0.4v-6.7c0-1-0.2-1.7-0.6-2.2c-0.4-0.5-1-0.7-1.7-0.7c-0.6,0-1.2,0.2-1.6,0.7
			c-0.4,0.5-0.7,1.2-0.7,2.2V96c0,0.2-0.1,0.3-0.2,0.4c-0.1,0.1-0.2,0.2-0.4,0.2h-2c-0.2,0-0.3-0.1-0.4-0.2
			c-0.1-0.1-0.2-0.2-0.2-0.4v-6.7c0-1-0.2-1.7-0.7-2.2c-0.4-0.5-1-0.7-1.7-0.7c-0.6,0-1.2,0.2-1.6,0.7c-0.4,0.5-0.7,1.2-0.7,2.2V96
			c0,0.2-0.1,0.3-0.2,0.4c-0.1,0.1-0.2,0.2-0.4,0.2h-2C492.9,96.6,492.7,96.5,492.6,96.4z"/>
		<path class="st4" d="M515.2,95.3c-1-1-1.6-2.5-1.7-4.4l0-0.6l0-0.6c0.1-1.8,0.6-3.3,1.7-4.3c1-1,2.5-1.6,4.2-1.6
			c1.9,0,3.3,0.6,4.4,1.7c1,1.2,1.5,2.7,1.5,4.6v0.5c0,0.2-0.1,0.3-0.2,0.4c-0.1,0.1-0.3,0.2-0.4,0.2h-8v0.2c0,0.9,0.3,1.6,0.7,2.2
			c0.5,0.6,1.1,0.9,1.9,0.9c0.9,0,1.7-0.4,2.3-1.1c0.1-0.2,0.3-0.3,0.3-0.3c0.1,0,0.2-0.1,0.4-0.1h2.1c0.1,0,0.3,0,0.4,0.1
			s0.2,0.2,0.2,0.3c0,0.4-0.2,0.8-0.7,1.4c-0.5,0.5-1.1,1-2,1.4c-0.8,0.4-1.8,0.6-3,0.6C517.7,96.8,516.3,96.3,515.2,95.3z
			 M522.1,89.3L522.1,89.3c0-1-0.2-1.8-0.7-2.4c-0.5-0.6-1.1-0.9-2-0.9s-1.5,0.3-1.9,0.9c-0.5,0.6-0.7,1.3-0.7,2.3v0.1H522.1z"/>
		<path class="st4" d="M529.6,96.3c-0.8-0.4-1.4-0.8-1.8-1.3c-0.4-0.5-0.6-0.9-0.6-1.3c0-0.2,0.1-0.3,0.2-0.4
			c0.1-0.1,0.2-0.1,0.4-0.1h1.9c0.1,0,0.3,0.1,0.4,0.2c0.1,0,0.2,0.2,0.5,0.4c0.3,0.3,0.6,0.5,1,0.6c0.4,0.1,0.8,0.2,1.2,0.2
			c0.6,0,1.2-0.1,1.6-0.4s0.6-0.6,0.6-1.1c0-0.3-0.1-0.6-0.3-0.8c-0.2-0.2-0.5-0.4-1-0.6s-1.2-0.3-2.1-0.5c-1.4-0.3-2.4-0.7-3-1.3
			s-1-1.4-1-2.4c0-0.6,0.2-1.2,0.6-1.8c0.4-0.6,1-1,1.7-1.4c0.8-0.4,1.7-0.5,2.7-0.5c1.1,0,2,0.2,2.8,0.5c0.8,0.3,1.4,0.8,1.8,1.2
			c0.4,0.5,0.6,0.9,0.6,1.3c0,0.1-0.1,0.3-0.2,0.4c-0.1,0.1-0.2,0.2-0.4,0.2h-1.8c-0.1,0-0.3-0.1-0.4-0.2c-0.1-0.1-0.3-0.2-0.5-0.5
			c-0.2-0.2-0.5-0.4-0.8-0.5c-0.3-0.1-0.7-0.2-1.1-0.2c-0.6,0-1.1,0.1-1.4,0.4c-0.3,0.3-0.5,0.6-0.5,1c0,0.3,0.1,0.6,0.2,0.7
			c0.2,0.2,0.5,0.4,0.9,0.6c0.5,0.2,1.2,0.4,2.1,0.5c1.5,0.3,2.6,0.8,3.3,1.4c0.7,0.6,1,1.4,1,2.4c0,1.1-0.5,2-1.5,2.7
			c-1,0.7-2.3,1.1-4.1,1.1C531.5,96.8,530.5,96.6,529.6,96.3z"/>
		<path class="st4" d="M540.9,101c-0.1-0.1-0.2-0.2-0.2-0.4V84.7c0-0.2,0.1-0.3,0.2-0.4c0.1-0.1,0.2-0.2,0.4-0.2h1.9
			c0.2,0,0.3,0.1,0.4,0.2c0.1,0.1,0.2,0.2,0.2,0.4v1c0.9-1.2,2.2-1.8,3.8-1.8c1.6,0,2.9,0.5,3.7,1.5c0.9,1,1.3,2.4,1.4,4.1
			c0,0.2,0,0.5,0,0.8c0,0.4,0,0.7,0,0.9c-0.1,1.7-0.5,3-1.4,4.1c-0.9,1-2.1,1.5-3.7,1.5c-1.6,0-2.8-0.6-3.7-1.7v5.4
			c0,0.2-0.1,0.3-0.2,0.4c-0.1,0.1-0.2,0.2-0.4,0.2h-2C541.1,101.1,541,101.1,540.9,101z M549.5,91.1c0-0.2,0-0.4,0-0.7
			c0-0.3,0-0.6,0-0.7c-0.1-2.1-1-3.2-2.8-3.2c-0.9,0-1.6,0.3-2.1,0.9c-0.4,0.6-0.7,1.3-0.7,2.2l0,0.9l0,0.9c0,0.8,0.3,1.5,0.8,2.1
			c0.5,0.6,1.2,0.9,2.1,0.9C548.5,94.2,549.4,93.2,549.5,91.1z"/>
		<path class="st4" d="M556.8,96.3c-0.7-0.3-1.2-0.8-1.6-1.3c-0.4-0.6-0.6-1.2-0.6-1.8c0-1.1,0.4-2,1.3-2.6s2.1-1.1,3.6-1.4l3.3-0.5
			v-0.5c0-0.7-0.2-1.2-0.5-1.6c-0.4-0.4-0.9-0.5-1.7-0.5c-0.5,0-1,0.1-1.3,0.3c-0.3,0.2-0.6,0.4-0.8,0.6c-0.2,0.2-0.3,0.3-0.4,0.4
			c-0.1,0.2-0.2,0.3-0.4,0.3H556c-0.1,0-0.3,0-0.4-0.1c-0.1-0.1-0.2-0.2-0.2-0.4c0-0.4,0.2-0.9,0.6-1.4c0.4-0.5,1-1,1.7-1.3
			c0.8-0.4,1.7-0.6,2.9-0.6c1.9,0,3.3,0.4,4.1,1.3c0.9,0.8,1.3,2,1.3,3.3V96c0,0.2-0.1,0.3-0.2,0.4c-0.1,0.1-0.2,0.2-0.4,0.2h-1.9
			c-0.2,0-0.3-0.1-0.4-0.2c-0.1-0.1-0.2-0.2-0.2-0.4v-0.9c-0.4,0.5-0.9,0.9-1.5,1.3s-1.5,0.5-2.4,0.5
			C558.3,96.8,557.5,96.6,556.8,96.3z M562,93.7c0.6-0.6,0.8-1.4,0.8-2.5v-0.5l-2.4,0.4c-0.9,0.1-1.6,0.4-2.1,0.7
			c-0.5,0.3-0.7,0.7-0.7,1.2c0,0.5,0.2,0.9,0.6,1.2c0.4,0.3,1,0.4,1.6,0.4C560.8,94.5,561.5,94.2,562,93.7z"/>
		<path class="st4" d="M570.3,95.3c-1-1-1.6-2.3-1.7-4.1l0-1l0-1c0.1-1.7,0.6-3.1,1.7-4.1c1-1,2.5-1.5,4.2-1.5
			c1.2,0,2.3,0.2,3.2,0.7c0.9,0.4,1.5,1,1.9,1.6c0.4,0.6,0.7,1.3,0.7,1.8c0,0.2,0,0.3-0.2,0.4c-0.1,0.1-0.3,0.2-0.4,0.2h-2.1
			c-0.2,0-0.3,0-0.4-0.1c-0.1-0.1-0.2-0.2-0.3-0.4c-0.2-0.6-0.6-1.1-0.9-1.3c-0.4-0.3-0.9-0.4-1.5-0.4c-0.8,0-1.5,0.3-1.9,0.8
			c-0.5,0.5-0.7,1.3-0.7,2.4l0,0.9l0,0.8c0.1,2.1,1,3.1,2.7,3.1c0.6,0,1.1-0.1,1.5-0.4c0.4-0.3,0.7-0.7,0.9-1.3
			c0.1-0.2,0.2-0.3,0.3-0.4s0.2-0.1,0.4-0.1h2.1c0.2,0,0.3,0.1,0.4,0.2c0.1,0.1,0.2,0.2,0.2,0.4c0,0.6-0.3,1.2-0.7,1.8
			c-0.4,0.6-1.1,1.2-1.9,1.7c-0.9,0.5-1.9,0.7-3.2,0.7C572.8,96.8,571.4,96.3,570.3,95.3z"/>
		<path class="st4" d="M584,95.3c-1-1-1.6-2.5-1.7-4.4l0-0.6l0-0.6c0.1-1.8,0.6-3.3,1.7-4.3c1-1,2.5-1.6,4.2-1.6
			c1.9,0,3.3,0.6,4.4,1.7c1,1.2,1.5,2.7,1.5,4.6v0.5c0,0.2-0.1,0.3-0.2,0.4c-0.1,0.1-0.3,0.2-0.4,0.2h-8v0.2c0,0.9,0.3,1.6,0.7,2.2
			c0.5,0.6,1.1,0.9,1.9,0.9c0.9,0,1.7-0.4,2.3-1.1c0.1-0.2,0.3-0.3,0.3-0.3c0.1,0,0.2-0.1,0.4-0.1h2.1c0.1,0,0.3,0,0.4,0.1
			s0.2,0.2,0.2,0.3c0,0.4-0.2,0.8-0.7,1.4c-0.5,0.5-1.1,1-2,1.4c-0.8,0.4-1.8,0.6-3,0.6C586.5,96.8,585,96.3,584,95.3z M590.9,89.3
			L590.9,89.3c0-1-0.2-1.8-0.7-2.4c-0.5-0.6-1.1-0.9-2-0.9s-1.5,0.3-1.9,0.9c-0.5,0.6-0.7,1.3-0.7,2.3v0.1H590.9z"/>
		<path class="st4" d="M596.8,88c-0.1-0.1-0.2-0.2-0.2-0.4v-2.3c0-0.2,0.1-0.3,0.2-0.4c0.1-0.1,0.2-0.2,0.4-0.2h2.4
			c0.2,0,0.3,0.1,0.4,0.2c0.1,0.1,0.2,0.3,0.2,0.4v2.3c0,0.2-0.1,0.3-0.2,0.4c-0.1,0.1-0.3,0.2-0.4,0.2h-2.4
			C597,88.2,596.9,88.1,596.8,88z M596.8,96.4c-0.1-0.1-0.2-0.2-0.2-0.4v-2.3c0-0.2,0.1-0.3,0.2-0.4c0.1-0.1,0.2-0.2,0.4-0.2h2.4
			c0.2,0,0.3,0.1,0.4,0.2c0.1,0.1,0.2,0.3,0.2,0.4V96c0,0.2-0.1,0.3-0.2,0.4c-0.1,0.1-0.3,0.2-0.4,0.2h-2.4
			C597,96.6,596.9,96.5,596.8,96.4z"/>
		<path class="st4" d="M609,96.4c-0.1-0.1-0.2-0.2-0.2-0.4V80.1c0-0.2,0.1-0.3,0.2-0.4s0.2-0.2,0.4-0.2h2c0.2,0,0.3,0.1,0.4,0.2
			c0.1,0.1,0.2,0.2,0.2,0.4V96c0,0.2-0.1,0.3-0.2,0.4c-0.1,0.1-0.2,0.2-0.4,0.2h-2C609.2,96.6,609.1,96.5,609,96.4z"/>
		<path class="st4" d="M615.2,81.9c-0.1-0.1-0.2-0.2-0.2-0.4v-1.7c0-0.2,0.1-0.3,0.2-0.4s0.2-0.2,0.4-0.2h2.2c0.2,0,0.3,0.1,0.4,0.2
			s0.2,0.2,0.2,0.4v1.7c0,0.2-0.1,0.3-0.2,0.4c-0.1,0.1-0.3,0.2-0.4,0.2h-2.2C615.4,82,615.3,82,615.2,81.9z M615.3,96.4
			c-0.1-0.1-0.2-0.2-0.2-0.4V84.7c0-0.2,0.1-0.3,0.2-0.4c0.1-0.1,0.2-0.2,0.4-0.2h2c0.2,0,0.3,0.1,0.4,0.2c0.1,0.1,0.2,0.2,0.2,0.4
			V96c0,0.2-0.1,0.3-0.2,0.4c-0.1,0.1-0.2,0.2-0.4,0.2h-2C615.5,96.6,615.4,96.5,615.3,96.4z"/>
		<path class="st4" d="M621.6,96.4c-0.1-0.1-0.2-0.2-0.2-0.4V84.7c0-0.2,0.1-0.3,0.2-0.4c0.1-0.1,0.2-0.2,0.4-0.2h2
			c0.2,0,0.3,0.1,0.4,0.2c0.1,0.1,0.2,0.2,0.2,0.4v1c0.9-1.2,2.3-1.8,4-1.8c1.5,0,2.6,0.5,3.5,1.5c0.9,1,1.3,2.3,1.3,3.9V96
			c0,0.2-0.1,0.3-0.2,0.4c-0.1,0.1-0.2,0.2-0.4,0.2h-2.1c-0.2,0-0.3-0.1-0.4-0.2c-0.1-0.1-0.2-0.2-0.2-0.4v-6.6
			c0-0.9-0.2-1.7-0.7-2.2c-0.5-0.5-1.1-0.8-2-0.8c-0.8,0-1.5,0.3-2,0.8c-0.5,0.5-0.7,1.3-0.7,2.2V96c0,0.2-0.1,0.3-0.2,0.4
			c-0.1,0.1-0.2,0.2-0.4,0.2H622C621.9,96.6,621.7,96.5,621.6,96.4z"/>
		<path class="st4" d="M636.6,96.4c-0.1-0.1-0.2-0.2-0.2-0.4V80.1c0-0.2,0.1-0.3,0.2-0.4s0.2-0.2,0.4-0.2h1.9c0.2,0,0.3,0.1,0.4,0.2
			s0.2,0.2,0.2,0.4v8.2l4-3.8c0,0,0.1-0.1,0.2-0.2c0.1-0.1,0.2-0.1,0.3-0.2c0.1,0,0.2,0,0.4,0h2.2c0.2,0,0.3,0,0.4,0.1
			c0.1,0.1,0.1,0.2,0.1,0.4c0,0.1-0.1,0.3-0.2,0.4l-4.9,4.6l5.5,6c0.2,0.2,0.2,0.3,0.2,0.4c0,0.2-0.1,0.3-0.2,0.4
			c-0.1,0.1-0.2,0.1-0.4,0.1H645c-0.2,0-0.4,0-0.5-0.1c-0.1-0.1-0.2-0.2-0.4-0.3l-4.6-4.8V96c0,0.2-0.1,0.3-0.2,0.4
			c-0.1,0.1-0.2,0.2-0.4,0.2H637C636.9,96.6,636.7,96.5,636.6,96.4z"/>
		<path class="st4" d="M650.2,95.3c-1-1-1.6-2.5-1.7-4.4l0-0.6l0-0.6c0.1-1.8,0.6-3.3,1.7-4.3s2.5-1.6,4.2-1.6
			c1.9,0,3.3,0.6,4.4,1.7c1,1.2,1.5,2.7,1.5,4.6v0.5c0,0.2-0.1,0.3-0.2,0.4c-0.1,0.1-0.3,0.2-0.4,0.2h-8v0.2c0,0.9,0.3,1.6,0.7,2.2
			c0.5,0.6,1.1,0.9,1.9,0.9c0.9,0,1.7-0.4,2.3-1.1c0.1-0.2,0.3-0.3,0.3-0.3c0.1,0,0.2-0.1,0.4-0.1h2.1c0.1,0,0.3,0,0.4,0.1
			c0.1,0.1,0.2,0.2,0.2,0.3c0,0.4-0.2,0.8-0.7,1.4c-0.5,0.5-1.1,1-2,1.4s-1.8,0.6-3,0.6C652.7,96.8,651.3,96.3,650.2,95.3z
			 M657.1,89.3L657.1,89.3c0-1-0.2-1.8-0.7-2.4s-1.1-0.9-2-0.9s-1.5,0.3-1.9,0.9c-0.5,0.6-0.7,1.3-0.7,2.3v0.1H657.1z"/>
		<path class="st4" d="M663.1,96.4c-0.1-0.1-0.2-0.2-0.2-0.4V84.7c0-0.2,0.1-0.3,0.2-0.4c0.1-0.1,0.2-0.2,0.4-0.2h1.9
			c0.2,0,0.3,0.1,0.4,0.2c0.1,0.1,0.2,0.3,0.2,0.4v1c0.4-0.5,0.9-0.9,1.5-1.2c0.6-0.3,1.3-0.4,2-0.4h1c0.2,0,0.3,0.1,0.4,0.2
			c0.1,0.1,0.2,0.2,0.2,0.4v1.7c0,0.2-0.1,0.3-0.2,0.4c-0.1,0.1-0.2,0.2-0.4,0.2h-1.9c-0.8,0-1.3,0.2-1.8,0.6
			c-0.4,0.4-0.6,1-0.6,1.8V96c0,0.2-0.1,0.3-0.2,0.4c-0.1,0.1-0.3,0.2-0.4,0.2h-2.1C663.3,96.6,663.2,96.5,663.1,96.4z"/>
		<path class="st4" d="M673.6,95.3c-0.9-1-1.3-2.4-1.4-4.2l0-0.8l0-0.8c0-1.7,0.5-3,1.4-4.1c0.9-1.1,2.1-1.6,3.7-1.6
			c1.6,0,2.8,0.5,3.7,1.6v-5.3c0-0.2,0.1-0.3,0.2-0.4s0.2-0.2,0.4-0.2h2c0.2,0,0.3,0.1,0.4,0.2c0.1,0.1,0.2,0.2,0.2,0.4V96
			c0,0.2-0.1,0.3-0.2,0.4c-0.1,0.1-0.2,0.2-0.4,0.2h-1.9c-0.2,0-0.3-0.1-0.4-0.2c-0.1-0.1-0.2-0.2-0.2-0.4v-0.9
			c-0.9,1.1-2.2,1.7-3.8,1.7C675.7,96.8,674.5,96.3,673.6,95.3z M680.3,93.4c0.4-0.6,0.7-1.3,0.7-2.2c0-0.2,0-0.5,0-0.9
			c0-0.4,0-0.7,0-0.9c0-0.8-0.3-1.5-0.8-2.1s-1.2-0.9-2.1-0.9c-1.7,0-2.6,1.1-2.8,3.2l0,0.7l0,0.7c0.1,2.1,1,3.2,2.8,3.2
			C679.2,94.2,679.9,93.9,680.3,93.4z"/>
		<path class="st4" d="M687.5,90.6c-0.1-0.1-0.2-0.2-0.2-0.4v-1.6c0-0.2,0.1-0.3,0.2-0.4c0.1-0.1,0.2-0.2,0.4-0.2h7.4
			c0.2,0,0.3,0.1,0.4,0.2c0.1,0.1,0.2,0.2,0.2,0.4v1.6c0,0.2-0.1,0.3-0.2,0.4c-0.1,0.1-0.2,0.2-0.4,0.2h-7.4
			C687.8,90.7,687.6,90.7,687.5,90.6z"/>
		<path class="st4" d="M699.2,96.4c-0.1-0.1-0.2-0.2-0.2-0.4V84.7c0-0.2,0.1-0.3,0.2-0.4c0.1-0.1,0.2-0.2,0.4-0.2h1.9
			c0.2,0,0.3,0.1,0.4,0.2c0.1,0.1,0.2,0.2,0.2,0.4v0.8c0.8-1.1,2-1.6,3.5-1.6c1.8,0,3,0.7,3.7,2.1c0.4-0.6,0.9-1.2,1.6-1.5
			s1.5-0.6,2.3-0.6c1.3,0,2.4,0.4,3.2,1.3c0.8,0.9,1.2,2.2,1.2,3.9V96c0,0.2-0.1,0.3-0.2,0.4c-0.1,0.1-0.2,0.2-0.4,0.2h-2
			c-0.2,0-0.3-0.1-0.4-0.2c-0.1-0.1-0.2-0.2-0.2-0.4v-6.7c0-1-0.2-1.7-0.6-2.2s-1-0.7-1.7-0.7c-0.6,0-1.2,0.2-1.6,0.7
			s-0.7,1.2-0.7,2.2V96c0,0.2-0.1,0.3-0.2,0.4c-0.1,0.1-0.2,0.2-0.4,0.2h-2c-0.2,0-0.3-0.1-0.4-0.2c-0.1-0.1-0.2-0.2-0.2-0.4v-6.7
			c0-1-0.2-1.7-0.7-2.2c-0.4-0.5-1-0.7-1.7-0.7c-0.6,0-1.2,0.2-1.6,0.7c-0.4,0.5-0.7,1.2-0.7,2.2V96c0,0.2-0.1,0.3-0.2,0.4
			c-0.1,0.1-0.2,0.2-0.4,0.2h-2C699.4,96.6,699.3,96.5,699.2,96.4z"/>
		<path class="st4" d="M721.8,95.4c-0.8-1-1.3-2.3-1.3-3.9v-6.7c0-0.2,0.1-0.3,0.2-0.4c0.1-0.1,0.2-0.2,0.4-0.2h2.1
			c0.2,0,0.3,0.1,0.4,0.2c0.1,0.1,0.2,0.2,0.2,0.4v6.6c0,2,0.9,3,2.6,3c0.8,0,1.5-0.3,2-0.8s0.7-1.3,0.7-2.2v-6.6
			c0-0.2,0.1-0.3,0.2-0.4c0.1-0.1,0.2-0.2,0.4-0.2h2.1c0.2,0,0.3,0.1,0.4,0.2c0.1,0.1,0.2,0.2,0.2,0.4V96c0,0.2-0.1,0.3-0.2,0.4
			c-0.1,0.1-0.2,0.2-0.4,0.2h-1.9c-0.2,0-0.3-0.1-0.4-0.2c-0.1-0.1-0.2-0.2-0.2-0.4v-1c-0.9,1.2-2.2,1.8-4,1.8
			C723.8,96.8,722.6,96.3,721.8,95.4z"/>
		<path class="st4" d="M735.7,96.4c-0.1-0.1-0.2-0.2-0.2-0.4V80.1c0-0.2,0.1-0.3,0.2-0.4c0.1-0.1,0.2-0.2,0.4-0.2h2
			c0.2,0,0.3,0.1,0.4,0.2c0.1,0.1,0.2,0.2,0.2,0.4V96c0,0.2-0.1,0.3-0.2,0.4c-0.1,0.1-0.2,0.2-0.4,0.2h-2
			C736,96.6,735.8,96.5,735.7,96.4z"/>
		<path class="st4" d="M744.3,95.4c-0.7-0.8-1.1-1.9-1.1-3.3v-5.4h-1.9c-0.2,0-0.3-0.1-0.4-0.2c-0.1-0.1-0.2-0.3-0.2-0.4v-1.4
			c0-0.2,0.1-0.3,0.2-0.4c0.1-0.1,0.2-0.2,0.4-0.2h1.9v-4c0-0.2,0.1-0.3,0.2-0.4c0.1-0.1,0.2-0.2,0.4-0.2h1.9c0.2,0,0.3,0.1,0.4,0.2
			c0.1,0.1,0.2,0.2,0.2,0.4v4h3c0.2,0,0.3,0.1,0.4,0.2c0.1,0.1,0.2,0.2,0.2,0.4V86c0,0.2-0.1,0.3-0.2,0.4c-0.1,0.1-0.2,0.2-0.4,0.2
			h-3v5.2c0,0.7,0.1,1.2,0.4,1.6c0.2,0.4,0.6,0.5,1.2,0.5h1.7c0.2,0,0.3,0.1,0.4,0.2c0.1,0.1,0.2,0.2,0.2,0.4V96
			c0,0.2-0.1,0.3-0.2,0.4c-0.1,0.1-0.2,0.2-0.4,0.2h-1.9C746.1,96.6,745,96.2,744.3,95.4z"/>
		<path class="st4" d="M752.3,81.9c-0.1-0.1-0.2-0.2-0.2-0.4v-1.7c0-0.2,0.1-0.3,0.2-0.4c0.1-0.1,0.2-0.2,0.4-0.2h2.2
			c0.2,0,0.3,0.1,0.4,0.2s0.2,0.2,0.2,0.4v1.7c0,0.2-0.1,0.3-0.2,0.4c-0.1,0.1-0.3,0.2-0.4,0.2h-2.2C752.5,82,752.4,82,752.3,81.9z
			 M752.4,96.4c-0.1-0.1-0.2-0.2-0.2-0.4V84.7c0-0.2,0.1-0.3,0.2-0.4c0.1-0.1,0.2-0.2,0.4-0.2h2c0.2,0,0.3,0.1,0.4,0.2
			c0.1,0.1,0.2,0.2,0.2,0.4V96c0,0.2-0.1,0.3-0.2,0.4c-0.1,0.1-0.2,0.2-0.4,0.2h-2C752.6,96.6,752.5,96.5,752.4,96.4z"/>
		<path class="st4" d="M759.7,95.3c-1-1-1.6-2.3-1.7-4.1l0-1l0-1c0.1-1.7,0.6-3.1,1.7-4.1s2.5-1.5,4.2-1.5c1.2,0,2.3,0.2,3.2,0.7
			c0.9,0.4,1.5,1,1.9,1.6c0.4,0.6,0.7,1.3,0.7,1.8c0,0.2,0,0.3-0.2,0.4c-0.1,0.1-0.3,0.2-0.4,0.2H767c-0.2,0-0.3,0-0.4-0.1
			c-0.1-0.1-0.2-0.2-0.3-0.4c-0.2-0.6-0.6-1.1-0.9-1.3c-0.4-0.3-0.9-0.4-1.5-0.4c-0.8,0-1.5,0.3-1.9,0.8c-0.5,0.5-0.7,1.3-0.7,2.4
			l0,0.9l0,0.8c0.1,2.1,1,3.1,2.7,3.1c0.6,0,1.1-0.1,1.5-0.4c0.4-0.3,0.7-0.7,0.9-1.3c0.1-0.2,0.2-0.3,0.3-0.4s0.2-0.1,0.4-0.1h2.1
			c0.2,0,0.3,0.1,0.4,0.2c0.1,0.1,0.2,0.2,0.2,0.4c0,0.6-0.3,1.2-0.7,1.8c-0.4,0.6-1.1,1.2-1.9,1.7c-0.9,0.5-1.9,0.7-3.2,0.7
			C762.2,96.8,760.8,96.3,759.7,95.3z"/>
		<path class="st4" d="M772.4,96.4c-0.1-0.1-0.2-0.2-0.2-0.4V80.1c0-0.2,0.1-0.3,0.2-0.4c0.1-0.1,0.2-0.2,0.4-0.2h2
			c0.2,0,0.3,0.1,0.4,0.2c0.1,0.1,0.2,0.2,0.2,0.4V96c0,0.2-0.1,0.3-0.2,0.4c-0.1,0.1-0.2,0.2-0.4,0.2h-2
			C772.7,96.6,772.5,96.5,772.4,96.4z"/>
		<path class="st4" d="M779.7,95.4c-0.8-1-1.3-2.3-1.3-3.9v-6.7c0-0.2,0.1-0.3,0.2-0.4c0.1-0.1,0.2-0.2,0.4-0.2h2.1
			c0.2,0,0.3,0.1,0.4,0.2c0.1,0.1,0.2,0.2,0.2,0.4v6.6c0,2,0.9,3,2.6,3c0.8,0,1.5-0.3,2-0.8s0.7-1.3,0.7-2.2v-6.6
			c0-0.2,0.1-0.3,0.2-0.4c0.1-0.1,0.2-0.2,0.4-0.2h2.1c0.2,0,0.3,0.1,0.4,0.2c0.1,0.1,0.2,0.2,0.2,0.4V96c0,0.2-0.1,0.3-0.2,0.4
			c-0.1,0.1-0.2,0.2-0.4,0.2h-1.9c-0.2,0-0.3-0.1-0.4-0.2c-0.1-0.1-0.2-0.2-0.2-0.4v-1c-0.9,1.2-2.2,1.8-4,1.8
			C781.8,96.8,780.6,96.3,779.7,95.4z"/>
		<path class="st4" d="M795.2,96.3c-0.8-0.4-1.4-0.8-1.8-1.3c-0.4-0.5-0.6-0.9-0.6-1.3c0-0.2,0.1-0.3,0.2-0.4s0.2-0.1,0.4-0.1h1.9
			c0.1,0,0.3,0.1,0.4,0.2c0.1,0,0.2,0.2,0.5,0.4c0.3,0.3,0.6,0.5,1,0.6c0.4,0.1,0.8,0.2,1.2,0.2c0.6,0,1.2-0.1,1.6-0.4
			s0.6-0.6,0.6-1.1c0-0.3-0.1-0.6-0.3-0.8s-0.5-0.4-1-0.6c-0.5-0.2-1.2-0.3-2.1-0.5c-1.4-0.3-2.4-0.7-3-1.3c-0.6-0.6-1-1.4-1-2.4
			c0-0.6,0.2-1.2,0.6-1.8c0.4-0.6,1-1,1.7-1.4c0.8-0.4,1.7-0.5,2.7-0.5c1.1,0,2,0.2,2.8,0.5c0.8,0.3,1.4,0.8,1.8,1.2
			c0.4,0.5,0.6,0.9,0.6,1.3c0,0.1-0.1,0.3-0.2,0.4c-0.1,0.1-0.2,0.2-0.4,0.2H801c-0.1,0-0.3-0.1-0.4-0.2c-0.1-0.1-0.3-0.2-0.5-0.5
			c-0.2-0.2-0.5-0.4-0.8-0.5s-0.7-0.2-1.1-0.2c-0.6,0-1.1,0.1-1.4,0.4c-0.3,0.3-0.5,0.6-0.5,1c0,0.3,0.1,0.6,0.2,0.7
			c0.2,0.2,0.5,0.4,0.9,0.6c0.5,0.2,1.2,0.4,2.1,0.5c1.5,0.3,2.6,0.8,3.3,1.4c0.7,0.6,1,1.4,1,2.4c0,1.1-0.5,2-1.5,2.7
			c-1,0.7-2.3,1.1-4.1,1.1C797,96.8,796,96.6,795.2,96.3z"/>
		<path class="st4" d="M808.6,95.4c-0.7-0.8-1.1-1.9-1.1-3.3v-5.4h-1.9c-0.2,0-0.3-0.1-0.4-0.2c-0.1-0.1-0.2-0.3-0.2-0.4v-1.4
			c0-0.2,0.1-0.3,0.2-0.4c0.1-0.1,0.2-0.2,0.4-0.2h1.9v-4c0-0.2,0.1-0.3,0.2-0.4c0.1-0.1,0.2-0.2,0.4-0.2h1.9c0.2,0,0.3,0.1,0.4,0.2
			c0.1,0.1,0.2,0.2,0.2,0.4v4h3c0.2,0,0.3,0.1,0.4,0.2c0.1,0.1,0.2,0.2,0.2,0.4V86c0,0.2-0.1,0.3-0.2,0.4c-0.1,0.1-0.2,0.2-0.4,0.2
			h-3v5.2c0,0.7,0.1,1.2,0.4,1.6c0.2,0.4,0.6,0.5,1.2,0.5h1.7c0.2,0,0.3,0.1,0.4,0.2c0.1,0.1,0.2,0.2,0.2,0.4V96
			c0,0.2-0.1,0.3-0.2,0.4c-0.1,0.1-0.2,0.2-0.4,0.2h-1.9C810.4,96.6,809.3,96.2,808.6,95.4z"/>
		<path class="st4" d="M817.7,95.3c-1-1-1.6-2.5-1.7-4.4l0-0.6l0-0.6c0.1-1.8,0.6-3.3,1.7-4.3c1-1,2.5-1.6,4.2-1.6
			c1.9,0,3.3,0.6,4.4,1.7c1,1.2,1.5,2.7,1.5,4.6v0.5c0,0.2-0.1,0.3-0.2,0.4c-0.1,0.1-0.3,0.2-0.4,0.2h-8v0.2c0,0.9,0.3,1.6,0.7,2.2
			c0.5,0.6,1.1,0.9,1.9,0.9c0.9,0,1.7-0.4,2.3-1.1c0.1-0.2,0.3-0.3,0.3-0.3c0.1,0,0.2-0.1,0.4-0.1h2.1c0.1,0,0.3,0,0.4,0.1
			c0.1,0.1,0.2,0.2,0.2,0.3c0,0.4-0.2,0.8-0.7,1.4c-0.5,0.5-1.1,1-2,1.4c-0.8,0.4-1.8,0.6-3,0.6C820.1,96.8,818.7,96.3,817.7,95.3z
			 M824.6,89.3L824.6,89.3c0-1-0.2-1.8-0.7-2.4c-0.5-0.6-1.1-0.9-2-0.9s-1.5,0.3-1.9,0.9s-0.7,1.3-0.7,2.3v0.1H824.6z"/>
		<path class="st4" d="M830.5,96.4c-0.1-0.1-0.2-0.2-0.2-0.4V84.7c0-0.2,0.1-0.3,0.2-0.4s0.2-0.2,0.4-0.2h1.9c0.2,0,0.3,0.1,0.4,0.2
			c0.1,0.1,0.2,0.3,0.2,0.4v1c0.4-0.5,0.9-0.9,1.5-1.2c0.6-0.3,1.3-0.4,2-0.4h1c0.2,0,0.3,0.1,0.4,0.2c0.1,0.1,0.2,0.2,0.2,0.4v1.7
			c0,0.2-0.1,0.3-0.2,0.4c-0.1,0.1-0.2,0.2-0.4,0.2H836c-0.8,0-1.3,0.2-1.8,0.6c-0.4,0.4-0.6,1-0.6,1.8V96c0,0.2-0.1,0.3-0.2,0.4
			c-0.1,0.1-0.3,0.2-0.4,0.2h-2.1C830.8,96.6,830.6,96.5,830.5,96.4z"/>
	</g>
</g>
<path class="st5" d="M830.9,138.3v80c0,5.5-4.5,10-10,10H479.1c-5.5,0-10-4.5-10-10v-80c0-5.5,4.5-10,10-10h341.8
	C826.4,128.3,830.9,132.8,830.9,138.3z"/>
<g>
	<g class="st0">
		<path class="st4" d="M603.4,183.6c-1.2-1.1-1.9-2.7-2-4.8c0-0.5,0-1.2,0-2.2c0-1,0-1.8,0-2.2c0.1-2,0.7-3.5,2-4.7s2.9-1.7,5.1-1.7
			c1.5,0,2.7,0.2,3.8,0.7c1.1,0.5,1.9,1.1,2.4,1.9c0.5,0.7,0.8,1.5,0.9,2.2v0c0,0.1,0,0.2-0.1,0.3s-0.2,0.1-0.4,0.1h-2.5
			c-0.2,0-0.3,0-0.4-0.1c-0.1-0.1-0.2-0.2-0.2-0.3c-0.2-0.6-0.6-1.1-1.2-1.5s-1.3-0.6-2.3-0.6c-1.1,0-2,0.3-2.6,0.9
			c-0.6,0.6-1,1.5-1,2.8c0,0.5,0,1.2,0,2.1c0,0.9,0,1.6,0,2.1c0.1,2.5,1.3,3.8,3.7,3.8c1.1,0,2-0.3,2.7-0.9c0.7-0.6,1-1.5,1-2.7
			v-0.7h-2.9c-0.2,0-0.3-0.1-0.4-0.2c-0.1-0.1-0.2-0.3-0.2-0.4v-1.3c0-0.2,0.1-0.3,0.2-0.4c0.1-0.1,0.2-0.2,0.4-0.2h5.7
			c0.2,0,0.3,0.1,0.4,0.2c0.1,0.1,0.2,0.3,0.2,0.4v2.5c0,1.3-0.3,2.5-0.9,3.5c-0.6,1-1.4,1.7-2.5,2.3c-1.1,0.5-2.4,0.8-3.8,0.8
			C606.4,185.3,604.7,184.8,603.4,183.6z"/>
		<path class="st4" d="M619.9,184.8c-0.7-0.3-1.2-0.8-1.6-1.3c-0.4-0.6-0.6-1.2-0.6-1.8c0-1.1,0.4-2,1.3-2.6s2.1-1.1,3.6-1.4
			l3.3-0.5v-0.5c0-0.7-0.2-1.2-0.5-1.6c-0.4-0.4-0.9-0.5-1.7-0.5c-0.5,0-1,0.1-1.3,0.3c-0.3,0.2-0.6,0.4-0.8,0.6
			c-0.2,0.2-0.3,0.3-0.4,0.4c-0.1,0.2-0.2,0.3-0.4,0.3h-1.8c-0.1,0-0.3,0-0.4-0.1c-0.1-0.1-0.2-0.2-0.2-0.4c0-0.4,0.2-0.9,0.6-1.4
			c0.4-0.5,1-1,1.7-1.3c0.8-0.4,1.7-0.6,2.9-0.6c1.9,0,3.3,0.4,4.1,1.3c0.9,0.8,1.3,2,1.3,3.3v7.5c0,0.2-0.1,0.3-0.2,0.4
			c-0.1,0.1-0.2,0.2-0.4,0.2h-1.9c-0.2,0-0.3-0.1-0.4-0.2c-0.1-0.1-0.2-0.2-0.2-0.4v-0.9c-0.4,0.5-0.9,0.9-1.5,1.3s-1.5,0.5-2.4,0.5
			C621.4,185.3,620.6,185.2,619.9,184.8z M625.2,182.2c0.6-0.6,0.8-1.4,0.8-2.5v-0.5l-2.4,0.4c-0.9,0.1-1.6,0.4-2.1,0.7
			c-0.5,0.3-0.7,0.7-0.7,1.2c0,0.5,0.2,0.9,0.6,1.2c0.4,0.3,1,0.4,1.6,0.4C623.9,183,624.6,182.8,625.2,182.2z"/>
		<path class="st4" d="M634.5,183.9c-0.7-0.8-1.1-1.9-1.1-3.3v-5.4h-1.9c-0.2,0-0.3-0.1-0.4-0.2s-0.2-0.3-0.2-0.4v-1.4
			c0-0.2,0.1-0.3,0.2-0.4c0.1-0.1,0.2-0.2,0.4-0.2h1.9v-4c0-0.2,0.1-0.3,0.2-0.4s0.2-0.2,0.4-0.2h1.9c0.2,0,0.3,0.1,0.4,0.2
			s0.2,0.2,0.2,0.4v4h3c0.2,0,0.3,0.1,0.4,0.2c0.1,0.1,0.2,0.2,0.2,0.4v1.4c0,0.2-0.1,0.3-0.2,0.4c-0.1,0.1-0.2,0.2-0.4,0.2h-3v5.2
			c0,0.7,0.1,1.2,0.4,1.6c0.2,0.4,0.6,0.5,1.2,0.5h1.7c0.2,0,0.3,0.1,0.4,0.2c0.1,0.1,0.2,0.2,0.2,0.4v1.5c0,0.2-0.1,0.3-0.2,0.4
			c-0.1,0.1-0.2,0.2-0.4,0.2h-1.9C636.3,185.1,635.2,184.7,634.5,183.9z"/>
		<path class="st4" d="M643.6,183.8c-1-1-1.6-2.5-1.7-4.4l0-0.6l0-0.6c0.1-1.8,0.6-3.3,1.7-4.3c1-1,2.5-1.6,4.2-1.6
			c1.9,0,3.3,0.6,4.4,1.7c1,1.2,1.5,2.7,1.5,4.6v0.5c0,0.2-0.1,0.3-0.2,0.4c-0.1,0.1-0.3,0.2-0.4,0.2h-8v0.2c0,0.9,0.3,1.6,0.7,2.2
			c0.5,0.6,1.1,0.9,1.9,0.9c0.9,0,1.7-0.4,2.3-1.1c0.1-0.2,0.3-0.3,0.3-0.3c0.1,0,0.2-0.1,0.4-0.1h2.1c0.1,0,0.3,0,0.4,0.1
			c0.1,0.1,0.2,0.2,0.2,0.3c0,0.4-0.2,0.8-0.7,1.4c-0.5,0.5-1.1,1-2,1.4s-1.8,0.6-3,0.6C646,185.3,644.6,184.8,643.6,183.8z
			 M650.5,177.8L650.5,177.8c0-1-0.2-1.8-0.7-2.4c-0.5-0.6-1.1-0.9-2-0.9s-1.5,0.3-1.9,0.9c-0.5,0.6-0.7,1.3-0.7,2.3v0.1H650.5z"/>
		<path class="st4" d="M658.8,184.9c-0.1-0.1-0.2-0.3-0.3-0.4l-3.4-11.1c0,0,0-0.1,0-0.2c0-0.1,0.1-0.3,0.2-0.4
			c0.1-0.1,0.2-0.2,0.3-0.2h1.8c0.2,0,0.3,0,0.4,0.1s0.2,0.2,0.2,0.3l2.4,7.9l2.5-7.9c0-0.1,0.1-0.3,0.3-0.4
			c0.1-0.1,0.3-0.2,0.5-0.2h1.2c0.2,0,0.3,0.1,0.5,0.2c0.1,0.1,0.2,0.2,0.3,0.4l2.5,7.9l2.4-7.9c0-0.1,0.1-0.2,0.2-0.3
			s0.3-0.1,0.4-0.1h1.8c0.1,0,0.3,0.1,0.4,0.2c0.1,0.1,0.2,0.2,0.2,0.4l0,0.2l-3.4,11.1c-0.1,0.2-0.2,0.3-0.3,0.4
			c-0.1,0.1-0.3,0.2-0.5,0.2h-1.6c-0.4,0-0.7-0.2-0.8-0.6l-2.5-7.6l-2.5,7.6c-0.1,0.4-0.4,0.6-0.8,0.6h-1.5
			C659.1,185.1,659,185,658.8,184.9z"/>
		<path class="st4" d="M676.6,184.8c-0.7-0.3-1.2-0.8-1.6-1.3c-0.4-0.6-0.6-1.2-0.6-1.8c0-1.1,0.4-2,1.3-2.6s2.1-1.1,3.6-1.4
			l3.3-0.5v-0.5c0-0.7-0.2-1.2-0.5-1.6c-0.4-0.4-0.9-0.5-1.7-0.5c-0.5,0-1,0.1-1.3,0.3c-0.3,0.2-0.6,0.4-0.8,0.6
			c-0.2,0.2-0.3,0.3-0.4,0.4c-0.1,0.2-0.2,0.3-0.4,0.3h-1.8c-0.1,0-0.3,0-0.4-0.1c-0.1-0.1-0.2-0.2-0.2-0.4c0-0.4,0.2-0.9,0.6-1.4
			c0.4-0.5,1-1,1.7-1.3s1.7-0.6,2.9-0.6c1.9,0,3.3,0.4,4.1,1.3c0.9,0.8,1.3,2,1.3,3.3v7.5c0,0.2-0.1,0.3-0.2,0.4
			c-0.1,0.1-0.2,0.2-0.4,0.2h-1.9c-0.2,0-0.3-0.1-0.4-0.2c-0.1-0.1-0.2-0.2-0.2-0.4v-0.9c-0.4,0.5-0.9,0.9-1.5,1.3
			c-0.6,0.3-1.5,0.5-2.4,0.5C678,185.3,677.3,185.2,676.6,184.8z M681.8,182.2c0.6-0.6,0.8-1.4,0.8-2.5v-0.5l-2.4,0.4
			c-0.9,0.1-1.6,0.4-2.1,0.7c-0.5,0.3-0.7,0.7-0.7,1.2c0,0.5,0.2,0.9,0.6,1.2c0.4,0.3,1,0.4,1.6,0.4
			C680.5,183,681.3,182.8,681.8,182.2z"/>
		<path class="st4" d="M690.5,189.5c-0.1-0.1-0.1-0.2-0.1-0.3c0-0.1,0-0.3,0.1-0.4l1.9-4.4l-4.6-10.9c-0.1-0.1-0.1-0.3-0.1-0.3
			c0-0.1,0.1-0.3,0.2-0.4c0.1-0.1,0.2-0.2,0.4-0.2h1.9c0.3,0,0.5,0.2,0.6,0.5l3.2,7.8l3.3-7.8c0.1-0.3,0.3-0.5,0.6-0.5h1.9
			c0.1,0,0.2,0,0.3,0.1c0.1,0.1,0.2,0.2,0.2,0.3c0,0.1,0,0.2-0.1,0.4l-6.8,15.7c-0.1,0.3-0.4,0.5-0.7,0.5h-1.9
			C690.7,189.6,690.6,189.6,690.5,189.5z"/>
	</g>
</g>
<path class="st5" d="M830.9,268.3v80c0,5.5-4.5,10-10,10H479.1c-5.5,0-10-4.5-10-10v-80c0-5.5,4.5-10,10-10h341.8
	C826.4,258.3,830.9,262.8,830.9,268.3z"/>
<g>
	<g class="st0">
		<path class="st4" d="M573.9,314.7c-1-0.4-1.8-1-2.3-1.7c-0.5-0.7-0.8-1.5-0.8-2.3c0-0.1,0-0.3,0.1-0.4c0.1-0.1,0.2-0.1,0.4-0.1
			h2.1c0.2,0,0.3,0,0.4,0.1c0.1,0.1,0.2,0.2,0.3,0.3c0.2,0.5,0.5,1,1.1,1.4c0.6,0.4,1.4,0.6,2.4,0.6c1.1,0,2-0.2,2.6-0.6
			s0.9-0.9,0.9-1.6c0-0.4-0.1-0.8-0.4-1.1c-0.3-0.3-0.7-0.5-1.3-0.7c-0.6-0.2-1.5-0.5-2.6-0.8c-1.9-0.4-3.3-1-4.1-1.8
			c-0.9-0.7-1.3-1.8-1.3-3.2c0-0.9,0.3-1.8,0.8-2.5c0.5-0.7,1.2-1.3,2.2-1.7c1-0.4,2.1-0.6,3.3-0.6c1.3,0,2.4,0.2,3.4,0.7
			s1.7,1,2.2,1.7c0.5,0.7,0.8,1.4,0.8,2.1c0,0.1,0,0.3-0.1,0.4c-0.1,0.1-0.2,0.1-0.4,0.1h-2.2c-0.3,0-0.6-0.2-0.7-0.5
			c-0.1-0.5-0.4-0.9-1-1.3c-0.5-0.3-1.2-0.5-2-0.5c-0.9,0-1.6,0.2-2.1,0.5c-0.5,0.3-0.8,0.8-0.8,1.5c0,0.4,0.1,0.8,0.4,1.1
			s0.7,0.5,1.2,0.8c0.6,0.2,1.3,0.5,2.4,0.7c1.4,0.3,2.5,0.7,3.4,1.1c0.8,0.4,1.5,0.9,1.9,1.5c0.4,0.6,0.6,1.4,0.6,2.3
			c0,1-0.3,1.9-0.9,2.7s-1.4,1.3-2.4,1.7c-1,0.4-2.2,0.6-3.6,0.6C576.1,315.3,574.9,315.1,573.9,314.7z"/>
		<path class="st4" d="M588,313.8c-1-1-1.6-2.5-1.7-4.4l0-0.6l0-0.6c0.1-1.8,0.6-3.3,1.7-4.3c1-1,2.5-1.6,4.2-1.6
			c1.9,0,3.3,0.6,4.4,1.7c1,1.2,1.5,2.7,1.5,4.6v0.5c0,0.2-0.1,0.3-0.2,0.4c-0.1,0.1-0.3,0.2-0.4,0.2h-8v0.2c0,0.9,0.3,1.6,0.7,2.2
			c0.5,0.6,1.1,0.9,1.9,0.9c0.9,0,1.7-0.4,2.3-1.1c0.1-0.2,0.3-0.3,0.3-0.3c0.1,0,0.2-0.1,0.4-0.1h2.1c0.1,0,0.3,0,0.4,0.1
			s0.2,0.2,0.2,0.3c0,0.4-0.2,0.8-0.7,1.4c-0.5,0.5-1.1,1-2,1.4c-0.8,0.4-1.8,0.6-3,0.6C590.4,315.3,589,314.8,588,313.8z
			 M594.9,307.8L594.9,307.8c0-1-0.2-1.8-0.7-2.4c-0.5-0.6-1.1-0.9-2-0.9s-1.5,0.3-1.9,0.9c-0.5,0.6-0.7,1.3-0.7,2.3v0.1H594.9z"/>
		<path class="st4" d="M600.9,314.9c-0.1-0.1-0.2-0.2-0.2-0.4v-11.3c0-0.2,0.1-0.3,0.2-0.4c0.1-0.1,0.2-0.2,0.4-0.2h1.9
			c0.2,0,0.3,0.1,0.4,0.2c0.1,0.1,0.2,0.3,0.2,0.4v1c0.4-0.5,0.9-0.9,1.5-1.2c0.6-0.3,1.3-0.4,2-0.4h1c0.2,0,0.3,0.1,0.4,0.2
			c0.1,0.1,0.2,0.2,0.2,0.4v1.7c0,0.2-0.1,0.3-0.2,0.4c-0.1,0.1-0.2,0.2-0.4,0.2h-1.9c-0.8,0-1.3,0.2-1.8,0.6
			c-0.4,0.4-0.6,1-0.6,1.8v6.6c0,0.2-0.1,0.3-0.2,0.4c-0.1,0.1-0.3,0.2-0.4,0.2h-2.1C601.1,315.1,601,315,600.9,314.9z"/>
		<path class="st4" d="M614.6,314.9c-0.1-0.1-0.2-0.3-0.3-0.4l-4.5-11.1l0-0.2c0-0.1,0.1-0.3,0.2-0.4c0.1-0.1,0.2-0.2,0.4-0.2h1.9
			c0.3,0,0.5,0.2,0.6,0.5l3.2,8.4l3.2-8.4c0-0.1,0.1-0.2,0.2-0.3c0.1-0.1,0.2-0.1,0.4-0.1h2c0.1,0,0.2,0.1,0.3,0.2
			c0.1,0.1,0.2,0.2,0.2,0.4c0,0.1,0,0.2,0,0.2l-4.5,11.1c-0.1,0.2-0.2,0.3-0.3,0.4c-0.1,0.1-0.3,0.2-0.6,0.2h-1.8
			C614.9,315.1,614.7,315,614.6,314.9z"/>
		<path class="st4" d="M624.5,300.4c-0.1-0.1-0.2-0.2-0.2-0.4v-1.7c0-0.2,0.1-0.3,0.2-0.4s0.2-0.2,0.4-0.2h2.2
			c0.2,0,0.3,0.1,0.4,0.2s0.2,0.2,0.2,0.4v1.7c0,0.2-0.1,0.3-0.2,0.4c-0.1,0.1-0.3,0.2-0.4,0.2H625
			C624.8,300.5,624.7,300.5,624.5,300.4z M624.6,314.9c-0.1-0.1-0.2-0.2-0.2-0.4v-11.3c0-0.2,0.1-0.3,0.2-0.4
			c0.1-0.1,0.2-0.2,0.4-0.2h2c0.2,0,0.3,0.1,0.4,0.2c0.1,0.1,0.2,0.2,0.2,0.4v11.3c0,0.2-0.1,0.3-0.2,0.4c-0.1,0.1-0.2,0.2-0.4,0.2
			h-2C624.9,315.1,624.8,315,624.6,314.9z"/>
		<path class="st4" d="M632,313.9c-1-1-1.6-2.3-1.7-4.1l0-1l0-1c0.1-1.7,0.6-3.1,1.7-4.1c1-1,2.5-1.5,4.2-1.5c1.2,0,2.3,0.2,3.2,0.7
			c0.9,0.4,1.5,1,1.9,1.6c0.4,0.6,0.7,1.3,0.7,1.8c0,0.2,0,0.3-0.2,0.4c-0.1,0.1-0.3,0.2-0.4,0.2h-2.1c-0.2,0-0.3,0-0.4-0.1
			c-0.1-0.1-0.2-0.2-0.3-0.4c-0.2-0.6-0.6-1.1-0.9-1.3c-0.4-0.3-0.9-0.4-1.5-0.4c-0.8,0-1.5,0.3-1.9,0.8c-0.5,0.5-0.7,1.3-0.7,2.4
			l0,0.9l0,0.8c0.1,2.1,1,3.1,2.7,3.1c0.6,0,1.1-0.1,1.5-0.4c0.4-0.3,0.7-0.7,0.9-1.3c0.1-0.2,0.2-0.3,0.3-0.4s0.2-0.1,0.4-0.1h2.1
			c0.2,0,0.3,0.1,0.4,0.2c0.1,0.1,0.2,0.2,0.2,0.4c0,0.6-0.3,1.2-0.7,1.8c-0.4,0.6-1.1,1.2-1.9,1.7c-0.9,0.5-1.9,0.7-3.2,0.7
			C634.4,315.3,633,314.8,632,313.9z"/>
		<path class="st4" d="M645.7,313.8c-1-1-1.6-2.5-1.7-4.4l0-0.6l0-0.6c0.1-1.8,0.6-3.3,1.7-4.3c1-1,2.5-1.6,4.2-1.6
			c1.9,0,3.3,0.6,4.4,1.7c1,1.2,1.5,2.7,1.5,4.6v0.5c0,0.2-0.1,0.3-0.2,0.4c-0.1,0.1-0.3,0.2-0.4,0.2h-8v0.2c0,0.9,0.3,1.6,0.7,2.2
			c0.5,0.6,1.1,0.9,1.9,0.9c0.9,0,1.7-0.4,2.3-1.1c0.1-0.2,0.3-0.3,0.3-0.3c0.1,0,0.2-0.1,0.4-0.1h2.1c0.1,0,0.3,0,0.4,0.1
			c0.1,0.1,0.2,0.2,0.2,0.3c0,0.4-0.2,0.8-0.7,1.4c-0.5,0.5-1.1,1-2,1.4c-0.8,0.4-1.8,0.6-3,0.6
			C648.1,315.3,646.7,314.8,645.7,313.8z M652.6,307.8L652.6,307.8c0-1-0.2-1.8-0.7-2.4c-0.5-0.6-1.1-0.9-2-0.9s-1.5,0.3-1.9,0.9
			c-0.5,0.6-0.7,1.3-0.7,2.3v0.1H652.6z"/>
		<path class="st4" d="M664.3,314.9c-0.1-0.1-0.2-0.2-0.2-0.4v-15.6c0-0.2,0.1-0.3,0.2-0.4c0.1-0.1,0.3-0.2,0.4-0.2h1.9
			c0.3,0,0.6,0.2,0.7,0.5l4.6,8.6l4.7-8.6c0.2-0.3,0.4-0.5,0.7-0.5h1.9c0.2,0,0.3,0.1,0.4,0.2c0.1,0.1,0.2,0.3,0.2,0.4v15.6
			c0,0.2-0.1,0.3-0.2,0.4c-0.1,0.1-0.3,0.2-0.4,0.2h-2c-0.2,0-0.3-0.1-0.4-0.2c-0.1-0.1-0.2-0.2-0.2-0.4v-10.4l-3.4,6.4
			c-0.2,0.4-0.5,0.5-0.8,0.5h-1c-0.3,0-0.6-0.2-0.8-0.5l-3.4-6.4v10.4c0,0.2-0.1,0.3-0.2,0.4c-0.1,0.1-0.2,0.2-0.4,0.2h-2
			C664.6,315.1,664.4,315,664.3,314.9z"/>
		<path class="st4" d="M683.4,300.4c-0.1-0.1-0.2-0.2-0.2-0.4v-1.7c0-0.2,0.1-0.3,0.2-0.4c0.1-0.1,0.2-0.2,0.4-0.2h2.2
			c0.2,0,0.3,0.1,0.4,0.2s0.2,0.2,0.2,0.4v1.7c0,0.2-0.1,0.3-0.2,0.4s-0.3,0.2-0.4,0.2h-2.2C683.6,300.5,683.5,300.5,683.4,300.4z
			 M683.5,314.9c-0.1-0.1-0.2-0.2-0.2-0.4v-11.3c0-0.2,0.1-0.3,0.2-0.4c0.1-0.1,0.2-0.2,0.4-0.2h2c0.2,0,0.3,0.1,0.4,0.2
			c0.1,0.1,0.2,0.2,0.2,0.4v11.3c0,0.2-0.1,0.3-0.2,0.4c-0.1,0.1-0.2,0.2-0.4,0.2h-2C683.7,315.1,683.6,315,683.5,314.9z"/>
		<path class="st4" d="M689.8,314.9c-0.1-0.1-0.2-0.2-0.2-0.4v-11.3c0-0.2,0.1-0.3,0.2-0.4c0.1-0.1,0.2-0.2,0.4-0.2h1.9
			c0.2,0,0.3,0.1,0.4,0.2c0.1,0.1,0.2,0.3,0.2,0.4v1c0.4-0.5,0.9-0.9,1.5-1.2c0.6-0.3,1.3-0.4,2-0.4h1c0.2,0,0.3,0.1,0.4,0.2
			c0.1,0.1,0.2,0.2,0.2,0.4v1.7c0,0.2-0.1,0.3-0.2,0.4c-0.1,0.1-0.2,0.2-0.4,0.2h-1.9c-0.8,0-1.3,0.2-1.8,0.6
			c-0.4,0.4-0.6,1-0.6,1.8v6.6c0,0.2-0.1,0.3-0.2,0.4c-0.1,0.1-0.3,0.2-0.4,0.2h-2.1C690.1,315.1,689.9,315,689.8,314.9z"/>
		<path class="st4" d="M699.8,314.9c-0.1-0.1-0.2-0.2-0.2-0.4v-11.3c0-0.2,0.1-0.3,0.2-0.4c0.1-0.1,0.2-0.2,0.4-0.2h1.9
			c0.2,0,0.3,0.1,0.4,0.2c0.1,0.1,0.2,0.3,0.2,0.4v1c0.4-0.5,0.9-0.9,1.5-1.2c0.6-0.3,1.3-0.4,2-0.4h1c0.2,0,0.3,0.1,0.4,0.2
			c0.1,0.1,0.2,0.2,0.2,0.4v1.7c0,0.2-0.1,0.3-0.2,0.4c-0.1,0.1-0.2,0.2-0.4,0.2h-1.9c-0.8,0-1.3,0.2-1.8,0.6
			c-0.4,0.4-0.6,1-0.6,1.8v6.6c0,0.2-0.1,0.3-0.2,0.4c-0.1,0.1-0.3,0.2-0.4,0.2h-2.1C700.1,315.1,699.9,315,699.8,314.9z"/>
		<path class="st4" d="M710.7,313.9c-1-1-1.6-2.3-1.7-4l0-1.1l0-1.1c0.1-1.7,0.6-3,1.7-4c1-1,2.5-1.5,4.3-1.5s3.3,0.5,4.3,1.5
			s1.6,2.3,1.7,4c0,0.2,0,0.5,0,1.1c0,0.5,0,0.9,0,1.1c-0.1,1.7-0.6,3-1.7,4c-1,1-2.5,1.5-4.3,1.5S711.7,314.8,710.7,313.9z
			 M717,312.1c0.5-0.5,0.7-1.3,0.8-2.4c0-0.2,0-0.5,0-0.9c0-0.5,0-0.8,0-0.9c0-1-0.3-1.8-0.8-2.4s-1.1-0.8-2-0.8s-1.5,0.3-2,0.8
			s-0.7,1.3-0.8,2.4l0,0.9l0,0.9c0,1,0.3,1.8,0.8,2.4c0.5,0.5,1.1,0.8,2,0.8S716.5,312.7,717,312.1z"/>
		<path class="st4" d="M723.9,314.9c-0.1-0.1-0.2-0.2-0.2-0.4v-11.3c0-0.2,0.1-0.3,0.2-0.4c0.1-0.1,0.2-0.2,0.4-0.2h1.9
			c0.2,0,0.3,0.1,0.4,0.2c0.1,0.1,0.2,0.3,0.2,0.4v1c0.4-0.5,0.9-0.9,1.5-1.2c0.6-0.3,1.3-0.4,2-0.4h1c0.2,0,0.3,0.1,0.4,0.2
			c0.1,0.1,0.2,0.2,0.2,0.4v1.7c0,0.2-0.1,0.3-0.2,0.4c-0.1,0.1-0.2,0.2-0.4,0.2h-1.9c-0.8,0-1.3,0.2-1.8,0.6
			c-0.4,0.4-0.6,1-0.6,1.8v6.6c0,0.2-0.1,0.3-0.2,0.4c-0.1,0.1-0.3,0.2-0.4,0.2h-2.1C724.1,315.1,724,315,723.9,314.9z"/>
	</g>
</g>
<path class="st5" d="M830.9,398.3v80c0,5.5-4.5,10-10,10H479.1c-5.5,0-10-4.5-10-10v-80c0-5.5,4.5-10,10-10h341.8
	C826.4,388.3,830.9,392.8,830.9,398.3z"/>
<g>
	<g class="st0">
		<path class="st4" d="M559.7,444.7c-1-0.4-1.8-1-2.3-1.7c-0.5-0.7-0.8-1.5-0.8-2.3c0-0.1,0-0.3,0.1-0.4c0.1-0.1,0.2-0.1,0.4-0.1
			h2.1c0.2,0,0.3,0,0.4,0.1c0.1,0.1,0.2,0.2,0.3,0.3c0.2,0.5,0.5,1,1.1,1.4c0.6,0.4,1.4,0.6,2.4,0.6c1.1,0,2-0.2,2.6-0.6
			s0.9-0.9,0.9-1.6c0-0.4-0.1-0.8-0.4-1.1c-0.3-0.3-0.7-0.5-1.3-0.7c-0.6-0.2-1.5-0.5-2.6-0.8c-1.9-0.4-3.3-1-4.1-1.8
			c-0.9-0.7-1.3-1.8-1.3-3.2c0-0.9,0.3-1.8,0.8-2.5c0.5-0.7,1.2-1.3,2.2-1.7c1-0.4,2.1-0.6,3.3-0.6c1.3,0,2.4,0.2,3.4,0.7
			s1.7,1,2.2,1.7c0.5,0.7,0.8,1.4,0.8,2.1c0,0.1,0,0.3-0.1,0.4c-0.1,0.1-0.2,0.1-0.4,0.1h-2.2c-0.3,0-0.6-0.2-0.7-0.5
			c-0.1-0.5-0.4-0.9-1-1.3c-0.5-0.3-1.2-0.5-2-0.5c-0.9,0-1.6,0.2-2.1,0.5c-0.5,0.3-0.8,0.8-0.8,1.5c0,0.4,0.1,0.8,0.4,1.1
			s0.7,0.5,1.2,0.8c0.6,0.2,1.3,0.5,2.4,0.7c1.4,0.3,2.5,0.7,3.4,1.1c0.8,0.4,1.5,0.9,1.9,1.5c0.4,0.6,0.6,1.4,0.6,2.3
			c0,1-0.3,1.9-0.9,2.7s-1.4,1.3-2.4,1.7c-1,0.4-2.2,0.6-3.6,0.6C561.9,445.3,560.7,445.1,559.7,444.7z"/>
		<path class="st4" d="M573.8,443.8c-1-1-1.6-2.5-1.7-4.4l0-0.6l0-0.6c0.1-1.8,0.6-3.3,1.7-4.3c1-1,2.5-1.6,4.2-1.6
			c1.9,0,3.3,0.6,4.4,1.7c1,1.2,1.5,2.7,1.5,4.6v0.5c0,0.2-0.1,0.3-0.2,0.4c-0.1,0.1-0.3,0.2-0.4,0.2h-8v0.2c0,0.9,0.3,1.6,0.7,2.2
			c0.5,0.6,1.1,0.9,1.9,0.9c0.9,0,1.7-0.4,2.3-1.1c0.1-0.2,0.3-0.3,0.3-0.3c0.1,0,0.2-0.1,0.4-0.1h2.1c0.1,0,0.3,0,0.4,0.1
			s0.2,0.2,0.2,0.3c0,0.4-0.2,0.8-0.7,1.4c-0.5,0.5-1.1,1-2,1.4c-0.8,0.4-1.8,0.6-3,0.6C576.2,445.3,574.8,444.8,573.8,443.8z
			 M580.7,437.8L580.7,437.8c0-1-0.2-1.8-0.7-2.4c-0.5-0.6-1.1-0.9-2-0.9s-1.5,0.3-1.9,0.9c-0.5,0.6-0.7,1.3-0.7,2.3v0.1H580.7z"/>
		<path class="st4" d="M586.7,444.9c-0.1-0.1-0.2-0.2-0.2-0.4v-11.3c0-0.2,0.1-0.3,0.2-0.4c0.1-0.1,0.2-0.2,0.4-0.2h1.9
			c0.2,0,0.3,0.1,0.4,0.2c0.1,0.1,0.2,0.3,0.2,0.4v1c0.4-0.5,0.9-0.9,1.5-1.2c0.6-0.3,1.3-0.4,2-0.4h1c0.2,0,0.3,0.1,0.4,0.2
			c0.1,0.1,0.2,0.2,0.2,0.4v1.7c0,0.2-0.1,0.3-0.2,0.4c-0.1,0.1-0.2,0.2-0.4,0.2h-1.9c-0.8,0-1.3,0.2-1.8,0.6
			c-0.4,0.4-0.6,1-0.6,1.8v6.6c0,0.2-0.1,0.3-0.2,0.4c-0.1,0.1-0.3,0.2-0.4,0.2h-2.1C586.9,445.1,586.8,445,586.7,444.9z"/>
		<path class="st4" d="M600.4,444.9c-0.1-0.1-0.2-0.3-0.3-0.4l-4.5-11.1l0-0.2c0-0.1,0.1-0.3,0.2-0.4c0.1-0.1,0.2-0.2,0.4-0.2h1.9
			c0.3,0,0.5,0.2,0.6,0.5l3.2,8.4l3.2-8.4c0-0.1,0.1-0.2,0.2-0.3c0.1-0.1,0.2-0.1,0.4-0.1h2c0.1,0,0.2,0.1,0.3,0.2
			c0.1,0.1,0.2,0.2,0.2,0.4c0,0.1,0,0.2,0,0.2l-4.5,11.1c-0.1,0.2-0.2,0.3-0.3,0.4c-0.1,0.1-0.3,0.2-0.6,0.2h-1.8
			C600.7,445.1,600.5,445,600.4,444.9z"/>
		<path class="st4" d="M610.3,430.4c-0.1-0.1-0.2-0.2-0.2-0.4v-1.7c0-0.2,0.1-0.3,0.2-0.4s0.2-0.2,0.4-0.2h2.2
			c0.2,0,0.3,0.1,0.4,0.2s0.2,0.2,0.2,0.4v1.7c0,0.2-0.1,0.3-0.2,0.4c-0.1,0.1-0.3,0.2-0.4,0.2h-2.2
			C610.6,430.5,610.5,430.5,610.3,430.4z M610.4,444.9c-0.1-0.1-0.2-0.2-0.2-0.4v-11.3c0-0.2,0.1-0.3,0.2-0.4
			c0.1-0.1,0.2-0.2,0.4-0.2h2c0.2,0,0.3,0.1,0.4,0.2c0.1,0.1,0.2,0.2,0.2,0.4v11.3c0,0.2-0.1,0.3-0.2,0.4c-0.1,0.1-0.2,0.2-0.4,0.2
			h-2C610.7,445.1,610.6,445,610.4,444.9z"/>
		<path class="st4" d="M617.8,443.9c-1-1-1.6-2.3-1.7-4.1l0-1l0-1c0.1-1.7,0.6-3.1,1.7-4.1c1-1,2.5-1.5,4.2-1.5
			c1.2,0,2.3,0.2,3.2,0.7c0.9,0.4,1.5,1,1.9,1.6c0.4,0.6,0.7,1.3,0.7,1.8c0,0.2,0,0.3-0.2,0.4c-0.1,0.1-0.3,0.2-0.4,0.2h-2.1
			c-0.2,0-0.3,0-0.4-0.1c-0.1-0.1-0.2-0.2-0.3-0.4c-0.2-0.6-0.6-1.1-0.9-1.3c-0.4-0.3-0.9-0.4-1.5-0.4c-0.8,0-1.5,0.3-1.9,0.8
			c-0.5,0.5-0.7,1.3-0.7,2.4l0,0.9l0,0.8c0.1,2.1,1,3.1,2.7,3.1c0.6,0,1.1-0.1,1.5-0.4c0.4-0.3,0.7-0.7,0.9-1.3
			c0.1-0.2,0.2-0.3,0.3-0.4s0.2-0.1,0.4-0.1h2.1c0.2,0,0.3,0.1,0.4,0.2c0.1,0.1,0.2,0.2,0.2,0.4c0,0.6-0.3,1.2-0.7,1.8
			c-0.4,0.6-1.1,1.2-1.9,1.7c-0.9,0.5-1.9,0.7-3.2,0.7C620.3,445.3,618.8,444.8,617.8,443.9z"/>
		<path class="st4" d="M631.5,443.8c-1-1-1.6-2.5-1.7-4.4l0-0.6l0-0.6c0.1-1.8,0.6-3.3,1.7-4.3c1-1,2.5-1.6,4.2-1.6
			c1.9,0,3.3,0.6,4.4,1.7c1,1.2,1.5,2.7,1.5,4.6v0.5c0,0.2-0.1,0.3-0.2,0.4c-0.1,0.1-0.3,0.2-0.4,0.2h-8v0.2c0,0.9,0.3,1.6,0.7,2.2
			c0.5,0.6,1.1,0.9,1.9,0.9c0.9,0,1.7-0.4,2.3-1.1c0.1-0.2,0.3-0.3,0.3-0.3c0.1,0,0.2-0.1,0.4-0.1h2.1c0.1,0,0.3,0,0.4,0.1
			s0.2,0.2,0.2,0.3c0,0.4-0.2,0.8-0.7,1.4c-0.5,0.5-1.1,1-2,1.4c-0.8,0.4-1.8,0.6-3,0.6C633.9,445.3,632.5,444.8,631.5,443.8z
			 M638.4,437.8L638.4,437.8c0-1-0.2-1.8-0.7-2.4c-0.5-0.6-1.1-0.9-2-0.9s-1.5,0.3-1.9,0.9c-0.5,0.6-0.7,1.3-0.7,2.3v0.1H638.4z"/>
		<path class="st4" d="M647.9,444.9c-0.1-0.1-0.2-0.2-0.2-0.4l0-0.2l5.8-15.5c0.1-0.4,0.4-0.6,0.8-0.6h2.6c0.4,0,0.7,0.2,0.8,0.6
			l5.8,15.5c0,0,0,0.1,0,0.2c0,0.1,0,0.3-0.1,0.4c-0.1,0.1-0.2,0.1-0.3,0.1h-2.1c-0.2,0-0.4,0-0.5-0.1c-0.1-0.1-0.2-0.2-0.2-0.3
			l-1.1-2.9h-7.1l-1.1,2.9c-0.1,0.3-0.4,0.5-0.7,0.5h-2.1C648.2,445.1,648,445,647.9,444.9z M658.5,438.9l-2.7-7.4l-2.7,7.4H658.5z"
			/>
		<path class="st4" d="M666.7,443.9c-1-1-1.6-2.3-1.7-4.1l0-1l0-1c0.1-1.7,0.6-3.1,1.7-4.1c1-1,2.5-1.5,4.2-1.5
			c1.2,0,2.3,0.2,3.2,0.7s1.5,1,1.9,1.6c0.4,0.6,0.7,1.3,0.7,1.8c0,0.2,0,0.3-0.2,0.4c-0.1,0.1-0.3,0.2-0.4,0.2H674
			c-0.2,0-0.3,0-0.4-0.1c-0.1-0.1-0.2-0.2-0.3-0.4c-0.2-0.6-0.6-1.1-0.9-1.3c-0.4-0.3-0.9-0.4-1.5-0.4c-0.8,0-1.5,0.3-1.9,0.8
			c-0.5,0.5-0.7,1.3-0.7,2.4l0,0.9l0,0.8c0.1,2.1,1,3.1,2.7,3.1c0.6,0,1.1-0.1,1.5-0.4c0.4-0.3,0.7-0.7,0.9-1.3
			c0.1-0.2,0.2-0.3,0.3-0.4s0.2-0.1,0.4-0.1h2.1c0.2,0,0.3,0.1,0.4,0.2c0.1,0.1,0.2,0.2,0.2,0.4c0,0.6-0.3,1.2-0.7,1.8
			c-0.4,0.6-1.1,1.2-1.9,1.7s-1.9,0.7-3.2,0.7C669.2,445.3,667.8,444.8,666.7,443.9z"/>
		<path class="st4" d="M680.4,443.9c-1-1-1.6-2.3-1.7-4.1l0-1l0-1c0.1-1.7,0.6-3.1,1.7-4.1c1-1,2.5-1.5,4.2-1.5
			c1.2,0,2.3,0.2,3.2,0.7s1.5,1,1.9,1.6c0.4,0.6,0.7,1.3,0.7,1.8c0,0.2,0,0.3-0.2,0.4c-0.1,0.1-0.3,0.2-0.4,0.2h-2.1
			c-0.2,0-0.3,0-0.4-0.1c-0.1-0.1-0.2-0.2-0.3-0.4c-0.2-0.6-0.6-1.1-0.9-1.3c-0.4-0.3-0.9-0.4-1.5-0.4c-0.8,0-1.5,0.3-1.9,0.8
			c-0.5,0.5-0.7,1.3-0.7,2.4l0,0.9l0,0.8c0.1,2.1,1,3.1,2.7,3.1c0.6,0,1.1-0.1,1.5-0.4c0.4-0.3,0.7-0.7,0.9-1.3
			c0.1-0.2,0.2-0.3,0.3-0.4s0.2-0.1,0.4-0.1h2.1c0.2,0,0.3,0.1,0.4,0.2c0.1,0.1,0.2,0.2,0.2,0.4c0,0.6-0.3,1.2-0.7,1.8
			c-0.4,0.6-1.1,1.2-1.9,1.7s-1.9,0.7-3.2,0.7C682.9,445.3,681.5,444.8,680.4,443.9z"/>
		<path class="st4" d="M694.1,443.9c-1-1-1.6-2.3-1.7-4l0-1.1l0-1.1c0.1-1.7,0.6-3,1.7-4s2.5-1.5,4.3-1.5c1.8,0,3.3,0.5,4.3,1.5
			s1.6,2.3,1.7,4c0,0.2,0,0.5,0,1.1c0,0.5,0,0.9,0,1.1c-0.1,1.7-0.6,3-1.7,4c-1,1-2.5,1.5-4.3,1.5S695.1,444.8,694.1,443.9z
			 M700.4,442.1c0.5-0.5,0.7-1.3,0.8-2.4c0-0.2,0-0.5,0-0.9c0-0.5,0-0.8,0-0.9c0-1-0.3-1.8-0.8-2.4s-1.1-0.8-2-0.8
			c-0.8,0-1.5,0.3-2,0.8c-0.5,0.5-0.7,1.3-0.8,2.4l0,0.9l0,0.9c0,1,0.3,1.8,0.8,2.4c0.5,0.5,1.1,0.8,2,0.8
			C699.3,443,700,442.7,700.4,442.1z"/>
		<path class="st4" d="M708.3,443.9c-0.8-1-1.3-2.3-1.3-3.9v-6.7c0-0.2,0.1-0.3,0.2-0.4c0.1-0.1,0.2-0.2,0.4-0.2h2.1
			c0.2,0,0.3,0.1,0.4,0.2c0.1,0.1,0.2,0.2,0.2,0.4v6.6c0,2,0.9,3,2.6,3c0.8,0,1.5-0.3,2-0.8c0.5-0.5,0.7-1.3,0.7-2.2v-6.6
			c0-0.2,0.1-0.3,0.2-0.4c0.1-0.1,0.2-0.2,0.4-0.2h2.1c0.2,0,0.3,0.1,0.4,0.2c0.1,0.1,0.2,0.2,0.2,0.4v11.3c0,0.2-0.1,0.3-0.2,0.4
			c-0.1,0.1-0.2,0.2-0.4,0.2h-1.9c-0.2,0-0.3-0.1-0.4-0.2c-0.1-0.1-0.2-0.2-0.2-0.4v-1c-0.9,1.2-2.2,1.8-4,1.8
			C710.3,445.3,709.1,444.8,708.3,443.9z"/>
		<path class="st4" d="M722.2,444.9c-0.1-0.1-0.2-0.2-0.2-0.4v-11.3c0-0.2,0.1-0.3,0.2-0.4c0.1-0.1,0.2-0.2,0.4-0.2h2
			c0.2,0,0.3,0.1,0.4,0.2c0.1,0.1,0.2,0.2,0.2,0.4v1c0.9-1.2,2.3-1.8,4-1.8c1.5,0,2.6,0.5,3.5,1.5c0.9,1,1.3,2.3,1.3,3.9v6.7
			c0,0.2-0.1,0.3-0.2,0.4c-0.1,0.1-0.2,0.2-0.4,0.2h-2.1c-0.2,0-0.3-0.1-0.4-0.2c-0.1-0.1-0.2-0.2-0.2-0.4v-6.6
			c0-0.9-0.2-1.7-0.7-2.2c-0.5-0.5-1.1-0.8-2-0.8c-0.8,0-1.5,0.3-2,0.8c-0.5,0.5-0.7,1.3-0.7,2.2v6.6c0,0.2-0.1,0.3-0.2,0.4
			c-0.1,0.1-0.2,0.2-0.4,0.2h-2.1C722.5,445.1,722.3,445,722.2,444.9z"/>
		<path class="st4" d="M739.2,443.9c-0.7-0.8-1.1-1.9-1.1-3.3v-5.4h-1.9c-0.2,0-0.3-0.1-0.4-0.2c-0.1-0.1-0.2-0.3-0.2-0.4v-1.4
			c0-0.2,0.1-0.3,0.2-0.4c0.1-0.1,0.2-0.2,0.4-0.2h1.9v-4c0-0.2,0.1-0.3,0.2-0.4c0.1-0.1,0.2-0.2,0.4-0.2h1.9c0.2,0,0.3,0.1,0.4,0.2
			c0.1,0.1,0.2,0.2,0.2,0.4v4h3c0.2,0,0.3,0.1,0.4,0.2c0.1,0.1,0.2,0.2,0.2,0.4v1.4c0,0.2-0.1,0.3-0.2,0.4c-0.1,0.1-0.2,0.2-0.4,0.2
			h-3v5.2c0,0.7,0.1,1.2,0.4,1.6c0.2,0.4,0.6,0.5,1.2,0.5h1.7c0.2,0,0.3,0.1,0.4,0.2c0.1,0.1,0.2,0.2,0.2,0.4v1.5
			c0,0.2-0.1,0.3-0.2,0.4c-0.1,0.1-0.2,0.2-0.4,0.2h-1.9C741.1,445.1,740,444.7,739.2,443.9z"/>
	</g>
</g>
</svg>
