<?xml version="1.0" encoding="utf-8"?>
<!-- Generator: Adobe Illustrator 24.1.2, SVG Export Plug-In . SVG Version: 6.00 Build 0)  -->
<svg version="1.1" id="Layer_1" xmlns="http://www.w3.org/2000/svg" xmlns:xlink="http://www.w3.org/1999/xlink" x="0px" y="0px"
	 viewBox="0 0 1300 535.38" style="enable-background:new 0 0 1300 535.38;" xml:space="preserve">
<style type="text/css">
	.st0{fill:#888888;}
	.st1{font-family:'Rubik-Medium';}
	.st2{font-size:24px;}
	.st3{fill:#F1F0F0;}
	.st4{fill:none;stroke:#888888;stroke-width:2;stroke-miterlimit:10;}
	.st5{fill:#212960;}
	.st6{fill:#FFFFFF;stroke:#212960;stroke-width:2;stroke-miterlimit:10;}
</style>
<g>
	<text transform="matrix(1 0 0 1 440.1898 32.0894)" class="st0 st1 st2">Cluster</text>
</g>
<g>
	<path class="st3" d="M849.81,47.94H450.19c-5.52,0-10,4.48-10,10v450.33c0,5.52,4.48,10,10,10h399.62c5.52,0,10-4.48,10-10V57.94
		C859.81,52.42,855.33,47.94,849.81,47.94z"/>
	<path class="st4" d="M849.81,47.94H450.19c-5.52,0-10,4.48-10,10v450.33c0,5.52,4.48,10,10,10h399.62c5.52,0,10-4.48,10-10V57.94
		C859.81,52.42,855.33,47.94,849.81,47.94z"/>
</g>
<g>
	<text transform="matrix(1 0 0 1 460.1868 96.5708)" class="st5 st1 st2">Namespace: linkerd-multicluster</text>
</g>
<path class="st6" d="M830.88,138.27v80c0,5.52-4.48,10-10,10H479.12c-5.52,0-10-4.48-10-10v-80c0-5.52,4.48-10,10-10h341.75
	C826.4,128.27,830.88,132.75,830.88,138.27z"/>
<g>
	<text transform="matrix(1 0 0 1 600.1722 185.0889)" class="st5 st1 st2">Gateway</text>
</g>
<path class="st6" d="M830.88,268.27v80c0,5.52-4.48,10-10,10H479.12c-5.52,0-10-4.48-10-10v-80c0-5.52,4.48-10,10-10h341.75
	C826.4,258.27,830.88,262.75,830.88,268.27z"/>
<g>
	<text transform="matrix(1 0 0 1 569.8485 315.0889)" class="st5 st1 st2">Service Mirror</text>
</g>
<path class="st6" d="M830.88,398.27v80c0,5.52-4.48,10-10,10H479.12c-5.52,0-10-4.48-10-10v-80c0-5.52,4.48-10,10-10h341.75
	C826.4,388.27,830.88,392.75,830.88,398.27z"/>
<g>
	<text transform="matrix(1 0 0 1 555.6527 445.0889)" class="st5 st1 st2">Service Account</text>
</g>
</svg>
