<?xml version="1.0" encoding="utf-8"?>
<!-- Generator: Adobe Illustrator 24.1.2, SVG Export Plug-In . SVG Version: 6.00 Build 0)  -->
<svg version="1.1" id="Layer_1" xmlns="http://www.w3.org/2000/svg" xmlns:xlink="http://www.w3.org/1999/xlink" x="0px" y="0px"
	 viewBox="0 0 1300 755.77" style="enable-background:new 0 0 1300 755.77;" xml:space="preserve">
<style type="text/css">
	.st0{fill:#888888;}
	.st1{font-family:'Rubik-Medium';}
	.st2{font-size:24px;}
	.st3{fill:#F1F0F0;}
	.st4{fill:none;stroke:#888888;stroke-width:2;stroke-miterlimit:10;}
	.st5{fill:#212960;}
	.st6{fill:#FFFFFF;stroke:#212960;stroke-width:2;stroke-miterlimit:10;}
	.st7{fill:none;stroke:#212960;stroke-width:2;stroke-miterlimit:10;}
	.st8{fill:#212960;stroke:#FFFFFF;stroke-width:2;stroke-miterlimit:10;}
	.st9{fill:#FFFFFF;}
	.st10{fill:#437CBF;stroke:#212960;stroke-width:2;stroke-miterlimit:10;}
</style>
<g>
	<text transform="matrix(1 0 0 1 174.52 32.0891)" class="st0 st1 st2">Cluster: west</text>
</g>
<g>
	<path class="st3" d="M584.14,47.94H184.52c-5.52,0-10,4.48-10,10v677.82c0,5.52,4.48,10,10,10h399.62c5.52,0,10-4.48,10-10V57.94
		C594.14,52.42,589.66,47.94,584.14,47.94z"/>
	<path class="st4" d="M584.14,47.94H184.52c-5.52,0-10,4.48-10,10v677.82c0,5.52,4.48,10,10,10h399.62c5.52,0,10-4.48,10-10V57.94
		C594.14,52.42,589.66,47.94,584.14,47.94z"/>
</g>
<g>
	<text transform="matrix(1 0 0 1 194.5176 96.5706)" class="st5 st1 st2">Namespace: linkerd-multicluster</text>
</g>
<path class="st6" d="M555.2,150.27v80c0,5.52-4.48,10-10,10H223.45c-5.52,0-10-4.48-10-10v-80c0-5.52,4.48-10,10-10H545.2
	C550.73,140.27,555.2,144.75,555.2,150.27z"/>
<g>
	<text transform="matrix(1 0 0 1 334.5029 197.0887)" class="st5 st1 st2">Gateway</text>
</g>
<path class="st6" d="M555.2,271.27v80c0,5.52-4.48,10-10,10H223.45c-5.52,0-10-4.48-10-10v-80c0-5.52,4.48-10,10-10H545.2
	C550.73,261.27,555.2,265.75,555.2,271.27z"/>
<g>
	<text transform="matrix(1 0 0 1 304.1792 318.0887)" class="st5 st1 st2">Service Mirror</text>
</g>
<path class="st7" d="M575.2,128.27v243c0,5.52-4.48,10-10,10H203.45c-5.52,0-10-4.48-10-10v-243c0-5.52,4.48-10,10-10H565.2
	C570.73,118.27,575.2,122.75,575.2,128.27z"/>
<g>
	<text transform="matrix(1 0 0 1 287.1201 441.0642)" class="st5 st1 st2">Namespace: test</text>
</g>
<path class="st6" d="M555.2,494.77v80c0,5.52-4.48,10-10,10H223.45c-5.52,0-10-4.48-10-10v-80c0-5.52,4.48-10,10-10H545.2
	C550.73,484.77,555.2,489.24,555.2,494.77z"/>
<g>
	<text transform="matrix(1 0 0 1 333.9272 541.5823)" class="st5 st1 st2">frontend</text>
</g>
<path class="st8" d="M555.2,615.77v80c0,5.52-4.48,10-10,10H223.45c-5.52,0-10-4.48-10-10v-80c0-5.52,4.48-10,10-10H545.2
	C550.73,605.77,555.2,610.24,555.2,615.77z"/>
<g>
	<text transform="matrix(1 0 0 1 340.8506 662.5823)" class="st9 st1 st2">podinfo</text>
</g>
<path class="st7" d="M575.2,472.77v243c0,5.52-4.48,10-10,10H203.45c-5.52,0-10-4.48-10-10v-243c0-5.52,4.48-10,10-10H565.2
	C570.73,462.77,575.2,467.24,575.2,472.77z"/>
<g>
	<text transform="matrix(1 0 0 1 704.8311 32.0891)" class="st0 st1 st2">Cluster: east</text>
</g>
<g>
	<path class="st3" d="M1114.45,47.94H714.83c-5.52,0-10,4.48-10,10v677.82c0,5.52,4.48,10,10,10h399.62c5.52,0,10-4.48,10-10V57.94
		C1124.45,52.42,1119.97,47.94,1114.45,47.94z"/>
	<path class="st4" d="M1114.45,47.94H714.83c-5.52,0-10,4.48-10,10v677.82c0,5.52,4.48,10,10,10h399.62c5.52,0,10-4.48,10-10V57.94
		C1124.45,52.42,1119.97,47.94,1114.45,47.94z"/>
</g>
<g>
	<text transform="matrix(1 0 0 1 724.8281 96.5706)" class="st5 st1 st2">Namespace: linkerd-multicluster</text>
</g>
<path class="st6" d="M1085.52,150.27v80c0,5.52-4.48,10-10,10H753.76c-5.52,0-10-4.48-10-10v-80c0-5.52,4.48-10,10-10h321.75
	C1081.04,140.27,1085.52,144.75,1085.52,150.27z"/>
<g>
	<text transform="matrix(1 0 0 1 864.814 197.0887)" class="st5 st1 st2">Gateway</text>
</g>
<path class="st6" d="M1085.52,271.27v80c0,5.52-4.48,10-10,10H753.76c-5.52,0-10-4.48-10-10v-80c0-5.52,4.48-10,10-10h321.75
	C1081.04,261.27,1085.52,265.75,1085.52,271.27z"/>
<g>
	<text transform="matrix(1 0 0 1 834.4902 318.0887)" class="st5 st1 st2">Service Mirror</text>
</g>
<path class="st7" d="M1105.52,128.27v243c0,5.52-4.48,10-10,10H733.76c-5.52,0-10-4.48-10-10v-243c0-5.52,4.48-10,10-10h361.75
	C1101.04,118.27,1105.52,122.75,1105.52,128.27z"/>
<g>
	<text transform="matrix(1 0 0 1 817.4307 441.0642)" class="st5 st1 st2">Namespace: test</text>
</g>
<path class="st6" d="M1085.52,494.77v80c0,5.52-4.48,10-10,10H753.76c-5.52,0-10-4.48-10-10v-80c0-5.52,4.48-10,10-10h321.75
	C1081.04,484.77,1085.52,489.24,1085.52,494.77z"/>
<g>
	<text transform="matrix(1 0 0 1 864.2383 541.5823)" class="st5 st1 st2">frontend</text>
</g>
<path class="st10" d="M1085.52,615.77v80c0,5.52-4.48,10-10,10H753.76c-5.52,0-10-4.48-10-10v-80c0-5.52,4.48-10,10-10h321.75
	C1081.04,605.77,1085.52,610.24,1085.52,615.77z"/>
<g>
	<text transform="matrix(1 0 0 1 871.1616 662.5823)" class="st9 st1 st2">podinfo</text>
</g>
<path class="st7" d="M1105.52,472.77v243c0,5.52-4.48,10-10,10H733.76c-5.52,0-10-4.48-10-10v-243c0-5.52,4.48-10,10-10h361.75
	C1101.04,462.77,1105.52,467.24,1105.52,472.77z"/>
</svg>
