<?xml version="1.0" encoding="utf-8"?>
<!-- Generator: Adobe Illustrator 24.1.2, SVG Export Plug-In . SVG Version: 6.00 Build 0)  -->
<svg version="1.1" id="Layer_1" xmlns="http://www.w3.org/2000/svg" xmlns:xlink="http://www.w3.org/1999/xlink" x="0px" y="0px"
	 viewBox="0 0 1300 626.94" style="enable-background:new 0 0 1300 626.94;" xml:space="preserve">
<style type="text/css">
	.st0{fill:#888888;}
	.st1{font-family:'Rubik-Medium';}
	.st2{font-size:24px;}
	.st3{fill:#F1F0F0;}
	.st4{fill:none;stroke:#888888;stroke-width:2;stroke-miterlimit:10;}
	.st5{fill:#FFFFFF;stroke:#212960;stroke-width:2;stroke-miterlimit:10;}
	.st6{fill:#212960;}
	.st7{fill:none;stroke:#212960;stroke-width:3;stroke-miterlimit:10;}
</style>
<g>
	<text transform="matrix(1 0 0 1 174.519 32.0894)" class="st0 st1 st2">Cluster: west</text>
</g>
<g>
	<path class="st3" d="M584.14,47.94H184.52c-5.52,0-10,4.48-10,10v549c0,5.52,4.48,10,10,10h399.62c5.52,0,10-4.48,10-10v-549
		C594.14,52.42,589.66,47.94,584.14,47.94z"/>
	<path class="st4" d="M584.14,47.94H184.52c-5.52,0-10,4.48-10,10v549c0,5.52,4.48,10,10,10h399.62c5.52,0,10-4.48,10-10v-549
		C594.14,52.42,589.66,47.94,584.14,47.94z"/>
</g>
<path class="st5" d="M565.2,88.27v80c0,5.52-4.48,10-10,10H213.45c-5.52,0-10-4.48-10-10v-80c0-5.52,4.48-10,10-10H555.2
	C560.73,78.27,565.2,82.75,565.2,88.27z"/>
<g>
	<text transform="matrix(1 0 0 1 304.1777 135.0889)" class="st6 st1 st2">Service Mirror</text>
</g>
<path class="st5" d="M565.2,496.94v80c0,5.52-4.48,10-10,10H213.45c-5.52,0-10-4.48-10-10v-80c0-5.52,4.48-10,10-10H555.2
	C560.73,486.94,565.2,491.42,565.2,496.94z"/>
<g>
	<text transform="matrix(1 0 0 1 319.8975 543.7608)" class="st6 st1 st2">Kubeconfig</text>
</g>
<g>
	<text transform="matrix(1 0 0 1 705.8608 32.0894)" class="st0 st1 st2">Cluster: east</text>
</g>
<g>
	<path class="st3" d="M1115.48,47.94H715.86c-5.52,0-10,4.48-10,10v547.8c0,5.52,4.48,10,10,10h399.62c5.52,0,10-4.48,10-10V57.94
		C1125.48,52.42,1121,47.94,1115.48,47.94z"/>
	<path class="st4" d="M1115.48,47.94H715.86c-5.52,0-10,4.48-10,10v547.8c0,5.52,4.48,10,10,10h399.62c5.52,0,10-4.48,10-10V57.94
		C1125.48,52.42,1121,47.94,1115.48,47.94z"/>
</g>
<path class="st5" d="M1096.55,88.27v80c0,5.52-4.48,10-10,10H744.8c-5.52,0-10-4.48-10-10v-80c0-5.52,4.48-10,10-10h341.75
	C1092.07,78.27,1096.55,82.75,1096.55,88.27z"/>
<path class="st5" d="M1096.55,256.94v80c0,5.52-4.48,10-10,10H744.8c-5.52,0-10-4.48-10-10v-80c0-5.52,4.48-10,10-10h341.75
	C1092.07,246.94,1096.55,251.42,1096.55,256.94z"/>
<g>
	<text transform="matrix(1 0 0 1 849.1636 303.7608)" class="st6 st1 st2">ClusterRole</text>
</g>
<path class="st5" d="M1096.55,376.94v80c0,5.52-4.48,10-10,10H744.8c-5.52,0-10-4.48-10-10v-80c0-5.52,4.48-10,10-10h341.75
	C1092.07,366.94,1096.55,371.42,1096.55,376.94z"/>
<g>
	<text transform="matrix(1 0 0 1 804.8721 423.7608)" class="st6 st1 st2">ClusterRoleBinding</text>
</g>
<path class="st5" d="M1096.55,496.94v80c0,5.52-4.48,10-10,10H744.8c-5.52,0-10-4.48-10-10v-80c0-5.52,4.48-10,10-10h341.75
	C1092.07,486.94,1096.55,491.42,1096.55,496.94z"/>
<g>
	<text transform="matrix(1 0 0 1 824.0718 543.7608)" class="st6 st1 st2">ServiceAccount</text>
</g>
<g>
	<g>
		<line class="st7" x1="566.59" y1="128.27" x2="723.68" y2="128.27"/>
		<g>
			<polygon class="st6" points="721.49,135.75 734.44,128.27 721.49,120.79 			"/>
		</g>
	</g>
</g>
<g>
	<g>
		<line class="st7" x1="577.35" y1="536.94" x2="734.44" y2="536.94"/>
		<g>
			<polygon class="st6" points="579.54,544.42 566.59,536.94 579.54,529.47 			"/>
		</g>
	</g>
</g>
<g>
	<g>
		<line class="st7" x1="384.33" y1="189.04" x2="384.33" y2="485.94"/>
		<g>
			<polygon class="st6" points="376.85,191.23 384.33,178.27 391.81,191.23 			"/>
		</g>
	</g>
</g>
<g>
	<text transform="matrix(1 0 0 1 855.7393 135.0889)" class="st6 st1 st2">API Server</text>
</g>
<g>
	<text transform="matrix(1 0 0 1 855.6431 227.0889)" class="st6 st1 st2">Resources</text>
</g>
</svg>
