<?xml version="1.0" encoding="utf-8"?>
<!-- Generator: Adobe Illustrator 24.1.2, SVG Export Plug-In . SVG Version: 6.00 Build 0)  -->
<svg version="1.1" id="Layer_1" xmlns="http://www.w3.org/2000/svg" xmlns:xlink="http://www.w3.org/1999/xlink" x="0px" y="0px"
	 viewBox="0 0 1300 488.27" style="enable-background:new 0 0 1300 488.27;" xml:space="preserve">
<style type="text/css">
	.st0{fill:none;stroke:#212960;stroke-width:3;stroke-miterlimit:10;}
	.st1{fill:#437CBF;stroke:#FFFFFF;stroke-width:3;stroke-miterlimit:10;}
	.st2{fill:#888888;}
	.st3{font-family:'Rubik-Medium';}
	.st4{font-size:24px;}
	.st5{fill:#F1F0F0;}
	.st6{fill:none;stroke:#888888;stroke-width:2;stroke-miterlimit:10;}
	.st7{fill:#FFFFFF;stroke:#212960;stroke-width:2;stroke-miterlimit:10;}
	.st8{fill:#212960;}
	.st9{fill:#FFFFFF;stroke:#437CBF;stroke-width:2;stroke-miterlimit:10;}
	.st10{fill:none;stroke:#437CBF;stroke-width:3;stroke-miterlimit:10;}
	.st11{fill:#437CBF;}
</style>
<line class="st0" x1="660.51" y1="116.71" x2="660.51" y2="388.27"/>
<rect x="658.93" y="136.76" class="st1" width="3.13" height="2.77"/>
<g>
	<text transform="matrix(1 0 0 1 174.519 32.0894)" class="st2 st3 st4">Cluster: west</text>
</g>
<g>
	<path class="st5" d="M584.14,47.94H184.52c-5.52,0-10,4.48-10,10v400.33c0,5.52,4.48,10,10,10h399.62c5.52,0,10-4.48,10-10V57.94
		C594.14,52.42,589.66,47.94,584.14,47.94z"/>
	<path class="st6" d="M584.14,47.94H184.52c-5.52,0-10,4.48-10,10v400.33c0,5.52,4.48,10,10,10h399.62c5.52,0,10-4.48,10-10V57.94
		C594.14,52.42,589.66,47.94,584.14,47.94z"/>
</g>
<path class="st7" d="M565.2,88.27v80c0,5.52-4.48,10-10,10H213.45c-5.52,0-10-4.48-10-10v-80c0-5.52,4.48-10,10-10H555.2
	C560.73,78.27,565.2,82.75,565.2,88.27z"/>
<g>
	<text transform="matrix(1 0 0 1 334.5015 135.0889)" class="st8 st3 st4">Gateway</text>
</g>
<path class="st7" d="M565.2,218.27v80c0,5.52-4.48,10-10,10H213.45c-5.52,0-10-4.48-10-10v-80c0-5.52,4.48-10,10-10H555.2
	C560.73,208.27,565.2,212.75,565.2,218.27z"/>
<g>
	<text transform="matrix(1 0 0 1 304.1777 265.0889)" class="st8 st3 st4">Service Mirror</text>
</g>
<path class="st9" d="M565.2,348.27v80c0,5.52-4.48,10-10,10H213.45c-5.52,0-10-4.48-10-10v-80c0-5.52,4.48-10,10-10H555.2
	C560.73,338.27,565.2,342.75,565.2,348.27z"/>
<g>
	<text transform="matrix(1 0 0 1 285.6504 395.0889)" class="st8 st3 st4">Service: foo-east</text>
</g>
<g>
	<text transform="matrix(1 0 0 1 705.8608 32.0894)" class="st2 st3 st4">Cluster: east</text>
</g>
<g>
	<path class="st5" d="M1115.48,47.94H715.86c-5.52,0-10,4.48-10,10v400.33c0,5.52,4.48,10,10,10h399.62c5.52,0,10-4.48,10-10V57.94
		C1125.48,52.42,1121,47.94,1115.48,47.94z"/>
	<path class="st6" d="M1115.48,47.94H715.86c-5.52,0-10,4.48-10,10v400.33c0,5.52,4.48,10,10,10h399.62c5.52,0,10-4.48,10-10V57.94
		C1125.48,52.42,1121,47.94,1115.48,47.94z"/>
</g>
<path class="st9" d="M1096.55,88.27v80c0,5.52-4.48,10-10,10H744.8c-5.52,0-10-4.48-10-10v-80c0-5.52,4.48-10,10-10h341.75
	C1092.07,78.27,1096.55,82.75,1096.55,88.27z"/>
<path class="st7" d="M1096.55,218.27v80c0,5.52-4.48,10-10,10H744.8c-5.52,0-10-4.48-10-10v-80c0-5.52,4.48-10,10-10h341.75
	C1092.07,208.27,1096.55,212.75,1096.55,218.27z"/>
<g>
	<text transform="matrix(1 0 0 1 835.5195 265.0889)" class="st8 st3 st4">Service Mirror</text>
</g>
<path class="st7" d="M1096.55,348.27v80c0,5.52-4.48,10-10,10H744.8c-5.52,0-10-4.48-10-10v-80c0-5.52,4.48-10,10-10h341.75
	C1092.07,338.27,1096.55,342.75,1096.55,348.27z"/>
<g>
	<text transform="matrix(1 0 0 1 814.0039 395.0889)" class="st8 st3 st4">Service: foo-west</text>
</g>
<g>
	<g>
		<line class="st10" x1="639.01" y1="138.27" x2="723.68" y2="138.27"/>
		<g>
			<polygon class="st11" points="721.49,145.75 734.44,138.27 721.49,130.79 			"/>
		</g>
	</g>
</g>
<g>
	<g>
		<line class="st0" x1="660.51" y1="118.27" x2="575.97" y2="118.27"/>
		<g>
			<polygon class="st8" points="578.16,110.79 565.2,118.27 578.16,125.75 			"/>
		</g>
	</g>
</g>
<line class="st10" x1="566.59" y1="388.27" x2="641.99" y2="388.27"/>
<line class="st0" x1="659.04" y1="388.27" x2="735.93" y2="388.27"/>
<line class="st10" x1="640.51" y1="136.76" x2="640.51" y2="388.27"/>
<g>
	<text transform="matrix(1 0 0 1 865.8433 135.0889)" class="st8 st3 st4">Gateway</text>
</g>
</svg>
