<?xml version="1.0" encoding="utf-8"?>
<!-- Generator: Adobe Illustrator 24.1.2, SVG Export Plug-In . SVG Version: 6.00 Build 0)  -->
<svg version="1.1" id="Layer_1" xmlns="http://www.w3.org/2000/svg" xmlns:xlink="http://www.w3.org/1999/xlink" x="0px" y="0px"
	 viewBox="0 0 1300 395.1" style="enable-background:new 0 0 1300 395.1;" xml:space="preserve">
<style type="text/css">
	.st0{enable-background:new    ;}
	.st1{fill:#888888;}
	.st2{fill:#F1F0F0;}
	.st3{fill:none;stroke:#888888;stroke-width:2;stroke-miterlimit:10;}
	.st4{fill:#FFFFFF;stroke:#212960;stroke-width:2;stroke-miterlimit:10;}
	.st5{fill:#212960;}
	.st6{fill:none;stroke:#212960;stroke-width:3;stroke-miterlimit:10;}
	.st7{fill:#FFFFFF;}
</style>
<g>
	<g class="st0">
		<path class="st1" d="M177.7,30.6c-1.2-1.1-1.9-2.7-1.9-4.8c0-0.4,0-1.1,0-2.1c0-1,0-1.7,0-2.2c0.1-2,0.7-3.6,2-4.8
			c1.2-1.1,2.9-1.7,5.1-1.7c1.4,0,2.7,0.2,3.7,0.7c1.1,0.5,1.9,1.2,2.4,2c0.6,0.8,0.9,1.8,0.9,2.8v0c0,0.1-0.1,0.2-0.2,0.3
			s-0.2,0.1-0.3,0.1h-2.3c-0.2,0-0.3,0-0.4-0.1c-0.1-0.1-0.2-0.2-0.2-0.5c-0.3-1-0.7-1.7-1.3-2.1c-0.6-0.4-1.4-0.6-2.4-0.6
			c-2.3,0-3.5,1.3-3.6,3.9c0,0.4,0,1.1,0,2s0,1.6,0,2c0.1,2.6,1.3,3.9,3.6,3.9c1,0,1.8-0.2,2.4-0.6c0.6-0.4,1-1.1,1.3-2.1
			c0-0.2,0.1-0.4,0.2-0.5c0.1-0.1,0.3-0.1,0.4-0.1h2.3c0.1,0,0.3,0,0.4,0.1c0.1,0.1,0.1,0.2,0.1,0.4c0,1.1-0.3,2-0.9,2.8
			c-0.6,0.8-1.4,1.5-2.4,2c-1.1,0.5-2.3,0.7-3.7,0.7C180.7,32.3,179,31.8,177.7,30.6z"/>
		<path class="st1" d="M192.7,31.9c-0.1-0.1-0.2-0.2-0.2-0.4V15.6c0-0.2,0.1-0.3,0.2-0.4s0.2-0.2,0.4-0.2h2c0.2,0,0.3,0.1,0.4,0.2
			c0.1,0.1,0.2,0.2,0.2,0.4v15.9c0,0.2-0.1,0.3-0.2,0.4c-0.1,0.1-0.2,0.2-0.4,0.2h-2C193,32.1,192.8,32,192.7,31.9z"/>
		<path class="st1" d="M200,30.9c-0.8-1-1.3-2.3-1.3-3.9v-6.7c0-0.2,0.1-0.3,0.2-0.4c0.1-0.1,0.2-0.2,0.4-0.2h2.1
			c0.2,0,0.3,0.1,0.4,0.2c0.1,0.1,0.2,0.2,0.2,0.4v6.6c0,2,0.9,3,2.6,3c0.8,0,1.5-0.3,2-0.8c0.5-0.5,0.7-1.3,0.7-2.2v-6.6
			c0-0.2,0.1-0.3,0.2-0.4c0.1-0.1,0.2-0.2,0.4-0.2h2.1c0.2,0,0.3,0.1,0.4,0.2c0.1,0.1,0.2,0.2,0.2,0.4v11.3c0,0.2-0.1,0.3-0.2,0.4
			c-0.1,0.1-0.2,0.2-0.4,0.2h-1.9c-0.2,0-0.3-0.1-0.4-0.2c-0.1-0.1-0.2-0.2-0.2-0.4v-1c-0.9,1.2-2.2,1.8-4,1.8
			C202,32.3,200.9,31.8,200,30.9z"/>
		<path class="st1" d="M215.5,31.8c-0.8-0.4-1.4-0.8-1.8-1.3c-0.4-0.5-0.6-0.9-0.6-1.3c0-0.2,0.1-0.3,0.2-0.4
			c0.1-0.1,0.2-0.1,0.4-0.1h1.9c0.1,0,0.3,0.1,0.4,0.2c0.1,0,0.2,0.2,0.5,0.4c0.3,0.3,0.6,0.5,1,0.6c0.4,0.1,0.8,0.2,1.2,0.2
			c0.6,0,1.2-0.1,1.6-0.4s0.6-0.6,0.6-1.1c0-0.3-0.1-0.6-0.3-0.8c-0.2-0.2-0.5-0.4-1-0.6s-1.2-0.3-2.1-0.5c-1.4-0.3-2.4-0.7-3-1.3
			s-1-1.4-1-2.4c0-0.6,0.2-1.2,0.6-1.8c0.4-0.6,1-1,1.7-1.4c0.8-0.4,1.7-0.5,2.7-0.5c1.1,0,2,0.2,2.8,0.5c0.8,0.3,1.4,0.8,1.8,1.2
			c0.4,0.5,0.6,0.9,0.6,1.3c0,0.1-0.1,0.3-0.2,0.4c-0.1,0.1-0.2,0.2-0.4,0.2h-1.8c-0.1,0-0.3-0.1-0.4-0.2c-0.1-0.1-0.3-0.2-0.5-0.5
			c-0.2-0.2-0.5-0.4-0.8-0.5c-0.3-0.1-0.7-0.2-1.1-0.2c-0.6,0-1.1,0.1-1.4,0.4c-0.3,0.3-0.5,0.6-0.5,1c0,0.3,0.1,0.6,0.2,0.7
			c0.2,0.2,0.5,0.4,0.9,0.6c0.5,0.2,1.2,0.4,2.1,0.5c1.5,0.3,2.6,0.8,3.3,1.4c0.7,0.6,1,1.4,1,2.4c0,1.1-0.5,2-1.5,2.7
			c-1,0.7-2.3,1.1-4.1,1.1C217.3,32.3,216.3,32.1,215.5,31.8z"/>
		<path class="st1" d="M228.9,30.9c-0.7-0.8-1.1-1.9-1.1-3.3v-5.4h-1.9c-0.2,0-0.3-0.1-0.4-0.2s-0.2-0.3-0.2-0.4v-1.4
			c0-0.2,0.1-0.3,0.2-0.4c0.1-0.1,0.2-0.2,0.4-0.2h1.9v-4c0-0.2,0.1-0.3,0.2-0.4s0.2-0.2,0.4-0.2h1.9c0.2,0,0.3,0.1,0.4,0.2
			s0.2,0.2,0.2,0.4v4h3c0.2,0,0.3,0.1,0.4,0.2c0.1,0.1,0.2,0.2,0.2,0.4v1.4c0,0.2-0.1,0.3-0.2,0.4c-0.1,0.1-0.2,0.2-0.4,0.2h-3v5.2
			c0,0.7,0.1,1.2,0.4,1.6c0.2,0.4,0.6,0.5,1.2,0.5h1.7c0.2,0,0.3,0.1,0.4,0.2c0.1,0.1,0.2,0.2,0.2,0.4v1.5c0,0.2-0.1,0.3-0.2,0.4
			c-0.1,0.1-0.2,0.2-0.4,0.2h-1.9C230.7,32.1,229.6,31.7,228.9,30.9z"/>
		<path class="st1" d="M237.9,30.8c-1-1-1.6-2.5-1.7-4.4l0-0.6l0-0.6c0.1-1.8,0.6-3.3,1.7-4.3c1-1,2.5-1.6,4.2-1.6
			c1.9,0,3.3,0.6,4.4,1.7c1,1.2,1.5,2.7,1.5,4.6v0.5c0,0.2-0.1,0.3-0.2,0.4c-0.1,0.1-0.3,0.2-0.4,0.2h-8V27c0,0.9,0.3,1.6,0.7,2.2
			c0.5,0.6,1.1,0.9,1.9,0.9c0.9,0,1.7-0.4,2.3-1.1c0.1-0.2,0.3-0.3,0.3-0.3c0.1,0,0.2-0.1,0.4-0.1h2.1c0.1,0,0.3,0,0.4,0.1
			s0.2,0.2,0.2,0.3c0,0.4-0.2,0.8-0.7,1.4c-0.5,0.5-1.1,1-2,1.4c-0.8,0.4-1.8,0.6-3,0.6C240.4,32.3,239,31.8,237.9,30.8z
			 M244.8,24.8L244.8,24.8c0-1-0.2-1.8-0.7-2.4c-0.5-0.6-1.1-0.9-2-0.9s-1.5,0.3-1.9,0.9c-0.5,0.6-0.7,1.3-0.7,2.3v0.1H244.8z"/>
		<path class="st1" d="M250.8,31.9c-0.1-0.1-0.2-0.2-0.2-0.4V20.2c0-0.2,0.1-0.3,0.2-0.4c0.1-0.1,0.2-0.2,0.4-0.2h1.9
			c0.2,0,0.3,0.1,0.4,0.2c0.1,0.1,0.2,0.3,0.2,0.4v1c0.4-0.5,0.9-0.9,1.5-1.2c0.6-0.3,1.3-0.4,2-0.4h1c0.2,0,0.3,0.1,0.4,0.2
			c0.1,0.1,0.2,0.2,0.2,0.4v1.7c0,0.2-0.1,0.3-0.2,0.4c-0.1,0.1-0.2,0.2-0.4,0.2h-1.9c-0.8,0-1.3,0.2-1.8,0.6
			c-0.4,0.4-0.6,1-0.6,1.8v6.6c0,0.2-0.1,0.3-0.2,0.4c-0.1,0.1-0.3,0.2-0.4,0.2h-2.1C251.1,32.1,250.9,32,250.8,31.9z"/>
		<path class="st1" d="M260.8,23.5c-0.1-0.1-0.2-0.2-0.2-0.4v-2.3c0-0.2,0.1-0.3,0.2-0.4c0.1-0.1,0.2-0.2,0.4-0.2h2.4
			c0.2,0,0.3,0.1,0.4,0.2c0.1,0.1,0.2,0.3,0.2,0.4v2.3c0,0.2-0.1,0.3-0.2,0.4c-0.1,0.1-0.3,0.2-0.4,0.2h-2.4
			C261,23.7,260.9,23.6,260.8,23.5z M260.8,31.9c-0.1-0.1-0.2-0.2-0.2-0.4v-2.3c0-0.2,0.1-0.3,0.2-0.4c0.1-0.1,0.2-0.2,0.4-0.2h2.4
			c0.2,0,0.3,0.1,0.4,0.2c0.1,0.1,0.2,0.3,0.2,0.4v2.3c0,0.2-0.1,0.3-0.2,0.4c-0.1,0.1-0.3,0.2-0.4,0.2h-2.4
			C261,32.1,260.9,32,260.8,31.9z"/>
		<path class="st1" d="M275.1,31.9c-0.1-0.1-0.2-0.3-0.3-0.4l-3.4-11.1c0,0,0-0.1,0-0.2c0-0.1,0.1-0.3,0.2-0.4
			c0.1-0.1,0.2-0.2,0.3-0.2h1.8c0.2,0,0.3,0,0.4,0.1c0.1,0.1,0.2,0.2,0.2,0.3l2.4,7.9l2.5-7.9c0-0.1,0.1-0.3,0.3-0.4
			c0.1-0.1,0.3-0.2,0.5-0.2h1.2c0.2,0,0.3,0.1,0.5,0.2c0.1,0.1,0.2,0.2,0.3,0.4l2.5,7.9l2.4-7.9c0-0.1,0.1-0.2,0.2-0.3
			s0.3-0.1,0.4-0.1h1.8c0.1,0,0.3,0.1,0.4,0.2c0.1,0.1,0.2,0.2,0.2,0.4l0,0.2l-3.4,11.1c-0.1,0.2-0.2,0.3-0.3,0.4
			c-0.1,0.1-0.3,0.2-0.5,0.2h-1.6c-0.4,0-0.7-0.2-0.8-0.6l-2.5-7.6l-2.5,7.6c-0.1,0.4-0.4,0.6-0.8,0.6h-1.5
			C275.4,32.1,275.2,32,275.1,31.9z"/>
		<path class="st1" d="M292.7,30.8c-1-1-1.6-2.5-1.7-4.4l0-0.6l0-0.6c0.1-1.8,0.6-3.3,1.7-4.3c1-1,2.5-1.6,4.2-1.6
			c1.9,0,3.3,0.6,4.4,1.7c1,1.2,1.5,2.7,1.5,4.6v0.5c0,0.2-0.1,0.3-0.2,0.4c-0.1,0.1-0.3,0.2-0.4,0.2h-8V27c0,0.9,0.3,1.6,0.7,2.2
			c0.5,0.6,1.1,0.9,1.9,0.9c0.9,0,1.7-0.4,2.3-1.1c0.1-0.2,0.3-0.3,0.3-0.3c0.1,0,0.2-0.1,0.4-0.1h2.1c0.1,0,0.3,0,0.4,0.1
			s0.2,0.2,0.2,0.3c0,0.4-0.2,0.8-0.7,1.4c-0.5,0.5-1.1,1-2,1.4c-0.8,0.4-1.8,0.6-3,0.6C295.1,32.3,293.7,31.8,292.7,30.8z
			 M299.6,24.8L299.6,24.8c0-1-0.2-1.8-0.7-2.4c-0.5-0.6-1.1-0.9-2-0.9s-1.5,0.3-1.9,0.9c-0.5,0.6-0.7,1.3-0.7,2.3v0.1H299.6z"/>
		<path class="st1" d="M307.1,31.8c-0.8-0.4-1.4-0.8-1.8-1.3c-0.4-0.5-0.6-0.9-0.6-1.3c0-0.2,0.1-0.3,0.2-0.4
			c0.1-0.1,0.2-0.1,0.4-0.1h1.9c0.1,0,0.3,0.1,0.4,0.2c0.1,0,0.2,0.2,0.5,0.4c0.3,0.3,0.6,0.5,1,0.6c0.4,0.1,0.8,0.2,1.2,0.2
			c0.6,0,1.2-0.1,1.6-0.4s0.6-0.6,0.6-1.1c0-0.3-0.1-0.6-0.3-0.8c-0.2-0.2-0.5-0.4-1-0.6s-1.2-0.3-2.1-0.5c-1.4-0.3-2.4-0.7-3-1.3
			s-1-1.4-1-2.4c0-0.6,0.2-1.2,0.6-1.8c0.4-0.6,1-1,1.7-1.4c0.8-0.4,1.7-0.5,2.7-0.5c1.1,0,2,0.2,2.8,0.5c0.8,0.3,1.4,0.8,1.8,1.2
			c0.4,0.5,0.6,0.9,0.6,1.3c0,0.1-0.1,0.3-0.2,0.4c-0.1,0.1-0.2,0.2-0.4,0.2h-1.8c-0.1,0-0.3-0.1-0.4-0.2c-0.1-0.1-0.3-0.2-0.5-0.5
			c-0.2-0.2-0.5-0.4-0.8-0.5c-0.3-0.1-0.7-0.2-1.1-0.2c-0.6,0-1.1,0.1-1.4,0.4c-0.3,0.3-0.5,0.6-0.5,1c0,0.3,0.1,0.6,0.2,0.7
			c0.2,0.2,0.5,0.4,0.9,0.6c0.5,0.2,1.2,0.4,2.1,0.5c1.5,0.3,2.6,0.8,3.3,1.4c0.7,0.6,1,1.4,1,2.4c0,1.1-0.5,2-1.5,2.7
			c-1,0.7-2.3,1.1-4.1,1.1C308.9,32.3,307.9,32.1,307.1,31.8z"/>
		<path class="st1" d="M320.4,30.9c-0.7-0.8-1.1-1.9-1.1-3.3v-5.4h-1.9c-0.2,0-0.3-0.1-0.4-0.2s-0.2-0.3-0.2-0.4v-1.4
			c0-0.2,0.1-0.3,0.2-0.4c0.1-0.1,0.2-0.2,0.4-0.2h1.9v-4c0-0.2,0.1-0.3,0.2-0.4s0.2-0.2,0.4-0.2h1.9c0.2,0,0.3,0.1,0.4,0.2
			s0.2,0.2,0.2,0.4v4h3c0.2,0,0.3,0.1,0.4,0.2c0.1,0.1,0.2,0.2,0.2,0.4v1.4c0,0.2-0.1,0.3-0.2,0.4c-0.1,0.1-0.2,0.2-0.4,0.2h-3v5.2
			c0,0.7,0.1,1.2,0.4,1.6c0.2,0.4,0.6,0.5,1.2,0.5h1.7c0.2,0,0.3,0.1,0.4,0.2c0.1,0.1,0.2,0.2,0.2,0.4v1.5c0,0.2-0.1,0.3-0.2,0.4
			c-0.1,0.1-0.2,0.2-0.4,0.2h-1.9C322.3,32.1,321.2,31.7,320.4,30.9z"/>
	</g>
</g>
<g>
	<path class="st2" d="M584.1,47.9H184.5c-5.5,0-10,4.5-10,10v313.3c0,5.5,4.5,10,10,10h399.6c5.5,0,10-4.5,10-10V57.9
		C594.1,52.4,589.7,47.9,584.1,47.9z"/>
	<path class="st3" d="M584.1,47.9H184.5c-5.5,0-10,4.5-10,10v313.3c0,5.5,4.5,10,10,10h399.6c5.5,0,10-4.5,10-10V57.9
		C594.1,52.4,589.7,47.9,584.1,47.9z"/>
</g>
<path class="st4" d="M565.2,88.3v80c0,5.5-4.5,10-10,10H213.4c-5.5,0-10-4.5-10-10v-80c0-5.5,4.5-10,10-10h341.8
	C560.7,78.3,565.2,82.8,565.2,88.3z"/>
<g>
	<g class="st0">
		<path class="st5" d="M308.2,134.7c-1-0.4-1.8-1-2.3-1.7c-0.5-0.7-0.8-1.5-0.8-2.3c0-0.1,0-0.3,0.1-0.4c0.1-0.1,0.2-0.1,0.4-0.1
			h2.1c0.2,0,0.3,0,0.4,0.1c0.1,0.1,0.2,0.2,0.3,0.3c0.2,0.5,0.5,1,1.1,1.4c0.6,0.4,1.4,0.6,2.4,0.6c1.1,0,2-0.2,2.6-0.6
			s0.9-0.9,0.9-1.6c0-0.4-0.1-0.8-0.4-1.1c-0.3-0.3-0.7-0.5-1.3-0.7c-0.6-0.2-1.5-0.5-2.6-0.8c-1.9-0.4-3.3-1-4.1-1.8
			c-0.9-0.7-1.3-1.8-1.3-3.2c0-0.9,0.3-1.8,0.8-2.5c0.5-0.7,1.2-1.3,2.2-1.7c1-0.4,2.1-0.6,3.3-0.6c1.3,0,2.4,0.2,3.4,0.7
			s1.7,1,2.2,1.7c0.5,0.7,0.8,1.4,0.8,2.1c0,0.1,0,0.3-0.1,0.4c-0.1,0.1-0.2,0.1-0.4,0.1h-2.2c-0.3,0-0.6-0.2-0.7-0.5
			c-0.1-0.5-0.4-0.9-1-1.3c-0.5-0.3-1.2-0.5-2-0.5c-0.9,0-1.6,0.2-2.1,0.5c-0.5,0.3-0.8,0.8-0.8,1.5c0,0.4,0.1,0.8,0.4,1.1
			s0.7,0.5,1.2,0.8c0.6,0.2,1.3,0.5,2.4,0.7c1.4,0.3,2.5,0.7,3.4,1.1c0.8,0.4,1.5,0.9,1.9,1.5c0.4,0.6,0.6,1.4,0.6,2.3
			c0,1-0.3,1.9-0.9,2.7s-1.4,1.3-2.4,1.7c-1,0.4-2.2,0.6-3.6,0.6C310.5,135.3,309.2,135.1,308.2,134.7z"/>
		<path class="st5" d="M322.3,133.8c-1-1-1.6-2.5-1.7-4.4l0-0.6l0-0.6c0.1-1.8,0.6-3.3,1.7-4.3c1-1,2.5-1.6,4.2-1.6
			c1.9,0,3.3,0.6,4.4,1.7c1,1.2,1.5,2.7,1.5,4.6v0.5c0,0.2-0.1,0.3-0.2,0.4c-0.1,0.1-0.3,0.2-0.4,0.2h-8v0.2c0,0.9,0.3,1.6,0.7,2.2
			c0.5,0.6,1.1,0.9,1.9,0.9c0.9,0,1.7-0.4,2.3-1.1c0.1-0.2,0.3-0.3,0.3-0.3c0.1,0,0.2-0.1,0.4-0.1h2.1c0.1,0,0.3,0,0.4,0.1
			s0.2,0.2,0.2,0.3c0,0.4-0.2,0.8-0.7,1.4c-0.5,0.5-1.1,1-2,1.4c-0.8,0.4-1.8,0.6-3,0.6C324.8,135.3,323.4,134.8,322.3,133.8z
			 M329.2,127.8L329.2,127.8c0-1-0.2-1.8-0.7-2.4c-0.5-0.6-1.1-0.9-2-0.9s-1.5,0.3-1.9,0.9c-0.5,0.6-0.7,1.3-0.7,2.3v0.1H329.2z"/>
		<path class="st5" d="M335.2,134.9c-0.1-0.1-0.2-0.2-0.2-0.4v-11.3c0-0.2,0.1-0.3,0.2-0.4c0.1-0.1,0.2-0.2,0.4-0.2h1.9
			c0.2,0,0.3,0.1,0.4,0.2c0.1,0.1,0.2,0.3,0.2,0.4v1c0.4-0.5,0.9-0.9,1.5-1.2c0.6-0.3,1.3-0.4,2-0.4h1c0.2,0,0.3,0.1,0.4,0.2
			c0.1,0.1,0.2,0.2,0.2,0.4v1.7c0,0.2-0.1,0.3-0.2,0.4c-0.1,0.1-0.2,0.2-0.4,0.2h-1.9c-0.8,0-1.3,0.2-1.8,0.6
			c-0.4,0.4-0.6,1-0.6,1.8v6.6c0,0.2-0.1,0.3-0.2,0.4c-0.1,0.1-0.3,0.2-0.4,0.2h-2.1C335.4,135.1,335.3,135,335.2,134.9z"/>
		<path class="st5" d="M348.9,134.9c-0.1-0.1-0.2-0.3-0.3-0.4l-4.5-11.1l0-0.2c0-0.1,0.1-0.3,0.2-0.4c0.1-0.1,0.2-0.2,0.4-0.2h1.9
			c0.3,0,0.5,0.2,0.6,0.5l3.2,8.4l3.2-8.4c0-0.1,0.1-0.2,0.2-0.3c0.1-0.1,0.2-0.1,0.4-0.1h2c0.1,0,0.2,0.1,0.3,0.2
			c0.1,0.1,0.2,0.2,0.2,0.4c0,0.1,0,0.2,0,0.2l-4.5,11.1c-0.1,0.2-0.2,0.3-0.3,0.4c-0.1,0.1-0.3,0.2-0.6,0.2h-1.8
			C349.2,135.1,349,135,348.9,134.9z"/>
		<path class="st5" d="M358.9,120.4c-0.1-0.1-0.2-0.2-0.2-0.4v-1.7c0-0.2,0.1-0.3,0.2-0.4s0.2-0.2,0.4-0.2h2.2
			c0.2,0,0.3,0.1,0.4,0.2s0.2,0.2,0.2,0.4v1.7c0,0.2-0.1,0.3-0.2,0.4c-0.1,0.1-0.3,0.2-0.4,0.2h-2.2
			C359.1,120.5,359,120.5,358.9,120.4z M359,134.9c-0.1-0.1-0.2-0.2-0.2-0.4v-11.3c0-0.2,0.1-0.3,0.2-0.4c0.1-0.1,0.2-0.2,0.4-0.2h2
			c0.2,0,0.3,0.1,0.4,0.2c0.1,0.1,0.2,0.2,0.2,0.4v11.3c0,0.2-0.1,0.3-0.2,0.4c-0.1,0.1-0.2,0.2-0.4,0.2h-2
			C359.2,135.1,359.1,135,359,134.9z"/>
		<path class="st5" d="M366.3,133.9c-1-1-1.6-2.3-1.7-4.1l0-1l0-1c0.1-1.7,0.6-3.1,1.7-4.1c1-1,2.5-1.5,4.2-1.5
			c1.2,0,2.3,0.2,3.2,0.7c0.9,0.4,1.5,1,1.9,1.6c0.4,0.6,0.7,1.3,0.7,1.8c0,0.2,0,0.3-0.2,0.4c-0.1,0.1-0.3,0.2-0.4,0.2h-2.1
			c-0.2,0-0.3,0-0.4-0.1c-0.1-0.1-0.2-0.2-0.3-0.4c-0.2-0.6-0.6-1.1-0.9-1.3c-0.4-0.3-0.9-0.4-1.5-0.4c-0.8,0-1.5,0.3-1.9,0.8
			c-0.5,0.5-0.7,1.3-0.7,2.4l0,0.9l0,0.8c0.1,2.1,1,3.1,2.7,3.1c0.6,0,1.1-0.1,1.5-0.4c0.4-0.3,0.7-0.7,0.9-1.3
			c0.1-0.2,0.2-0.3,0.3-0.4s0.2-0.1,0.4-0.1h2.1c0.2,0,0.3,0.1,0.4,0.2c0.1,0.1,0.2,0.2,0.2,0.4c0,0.6-0.3,1.2-0.7,1.8
			c-0.4,0.6-1.1,1.2-1.9,1.7c-0.9,0.5-1.9,0.7-3.2,0.7C368.8,135.3,367.4,134.8,366.3,133.9z"/>
		<path class="st5" d="M380,133.8c-1-1-1.6-2.5-1.7-4.4l0-0.6l0-0.6c0.1-1.8,0.6-3.3,1.7-4.3c1-1,2.5-1.6,4.2-1.6
			c1.9,0,3.3,0.6,4.4,1.7c1,1.2,1.5,2.7,1.5,4.6v0.5c0,0.2-0.1,0.3-0.2,0.4c-0.1,0.1-0.3,0.2-0.4,0.2h-8v0.2c0,0.9,0.3,1.6,0.7,2.2
			c0.5,0.6,1.1,0.9,1.9,0.9c0.9,0,1.7-0.4,2.3-1.1c0.1-0.2,0.3-0.3,0.3-0.3c0.1,0,0.2-0.1,0.4-0.1h2.1c0.1,0,0.3,0,0.4,0.1
			s0.2,0.2,0.2,0.3c0,0.4-0.2,0.8-0.7,1.4c-0.5,0.5-1.1,1-2,1.4c-0.8,0.4-1.8,0.6-3,0.6C382.4,135.3,381,134.8,380,133.8z
			 M386.9,127.8L386.9,127.8c0-1-0.2-1.8-0.7-2.4c-0.5-0.6-1.1-0.9-2-0.9s-1.5,0.3-1.9,0.9c-0.5,0.6-0.7,1.3-0.7,2.3v0.1H386.9z"/>
		<path class="st5" d="M398.6,134.9c-0.1-0.1-0.2-0.2-0.2-0.4v-15.6c0-0.2,0.1-0.3,0.2-0.4c0.1-0.1,0.3-0.2,0.4-0.2h1.9
			c0.3,0,0.6,0.2,0.7,0.5l4.6,8.6l4.7-8.6c0.2-0.3,0.4-0.5,0.7-0.5h1.9c0.2,0,0.3,0.1,0.4,0.2s0.2,0.3,0.2,0.4v15.6
			c0,0.2-0.1,0.3-0.2,0.4c-0.1,0.1-0.3,0.2-0.4,0.2h-2c-0.2,0-0.3-0.1-0.4-0.2c-0.1-0.1-0.2-0.2-0.2-0.4v-10.4l-3.4,6.4
			c-0.2,0.4-0.5,0.5-0.8,0.5h-1c-0.3,0-0.6-0.2-0.8-0.5l-3.4-6.4v10.4c0,0.2-0.1,0.3-0.2,0.4c-0.1,0.1-0.2,0.2-0.4,0.2h-2
			C398.9,135.1,398.8,135,398.6,134.9z"/>
		<path class="st5" d="M417.7,120.4c-0.1-0.1-0.2-0.2-0.2-0.4v-1.7c0-0.2,0.1-0.3,0.2-0.4s0.2-0.2,0.4-0.2h2.2
			c0.2,0,0.3,0.1,0.4,0.2s0.2,0.2,0.2,0.4v1.7c0,0.2-0.1,0.3-0.2,0.4c-0.1,0.1-0.3,0.2-0.4,0.2h-2.2
			C418,120.5,417.8,120.5,417.7,120.4z M417.8,134.9c-0.1-0.1-0.2-0.2-0.2-0.4v-11.3c0-0.2,0.1-0.3,0.2-0.4c0.1-0.1,0.2-0.2,0.4-0.2
			h2c0.2,0,0.3,0.1,0.4,0.2c0.1,0.1,0.2,0.2,0.2,0.4v11.3c0,0.2-0.1,0.3-0.2,0.4c-0.1,0.1-0.2,0.2-0.4,0.2h-2
			C418.1,135.1,417.9,135,417.8,134.9z"/>
		<path class="st5" d="M424.2,134.9c-0.1-0.1-0.2-0.2-0.2-0.4v-11.3c0-0.2,0.1-0.3,0.2-0.4c0.1-0.1,0.2-0.2,0.4-0.2h1.9
			c0.2,0,0.3,0.1,0.4,0.2c0.1,0.1,0.2,0.3,0.2,0.4v1c0.4-0.5,0.9-0.9,1.5-1.2c0.6-0.3,1.3-0.4,2-0.4h1c0.2,0,0.3,0.1,0.4,0.2
			c0.1,0.1,0.2,0.2,0.2,0.4v1.7c0,0.2-0.1,0.3-0.2,0.4c-0.1,0.1-0.2,0.2-0.4,0.2h-1.9c-0.8,0-1.3,0.2-1.8,0.6
			c-0.4,0.4-0.6,1-0.6,1.8v6.6c0,0.2-0.1,0.3-0.2,0.4c-0.1,0.1-0.3,0.2-0.4,0.2h-2.1C424.4,135.1,424.3,135,424.2,134.9z"/>
		<path class="st5" d="M434.2,134.9c-0.1-0.1-0.2-0.2-0.2-0.4v-11.3c0-0.2,0.1-0.3,0.2-0.4c0.1-0.1,0.2-0.2,0.4-0.2h1.9
			c0.2,0,0.3,0.1,0.4,0.2c0.1,0.1,0.2,0.3,0.2,0.4v1c0.4-0.5,0.9-0.9,1.5-1.2c0.6-0.3,1.3-0.4,2-0.4h1c0.2,0,0.3,0.1,0.4,0.2
			c0.1,0.1,0.2,0.2,0.2,0.4v1.7c0,0.2-0.1,0.3-0.2,0.4c-0.1,0.1-0.2,0.2-0.4,0.2h-1.9c-0.8,0-1.3,0.2-1.8,0.6
			c-0.4,0.4-0.6,1-0.6,1.8v6.6c0,0.2-0.1,0.3-0.2,0.4c-0.1,0.1-0.3,0.2-0.4,0.2h-2.1C434.4,135.1,434.3,135,434.2,134.9z"/>
		<path class="st5" d="M445,133.9c-1-1-1.6-2.3-1.7-4l0-1.1l0-1.1c0.1-1.7,0.6-3,1.7-4c1-1,2.5-1.5,4.3-1.5c1.8,0,3.3,0.5,4.3,1.5
			s1.6,2.3,1.7,4c0,0.2,0,0.5,0,1.1c0,0.5,0,0.9,0,1.1c-0.1,1.7-0.6,3-1.7,4c-1,1-2.5,1.5-4.3,1.5S446,134.8,445,133.9z
			 M451.3,132.1c0.5-0.5,0.7-1.3,0.8-2.4c0-0.2,0-0.5,0-0.9c0-0.5,0-0.8,0-0.9c0-1-0.3-1.8-0.8-2.4s-1.1-0.8-2-0.8
			c-0.8,0-1.5,0.3-2,0.8c-0.5,0.5-0.7,1.3-0.8,2.4l0,0.9l0,0.9c0,1,0.3,1.8,0.8,2.4c0.5,0.5,1.1,0.8,2,0.8
			C450.2,133,450.9,132.7,451.3,132.1z"/>
		<path class="st5" d="M458.2,134.9c-0.1-0.1-0.2-0.2-0.2-0.4v-11.3c0-0.2,0.1-0.3,0.2-0.4c0.1-0.1,0.2-0.2,0.4-0.2h1.9
			c0.2,0,0.3,0.1,0.4,0.2c0.1,0.1,0.2,0.3,0.2,0.4v1c0.4-0.5,0.9-0.9,1.5-1.2c0.6-0.3,1.3-0.4,2-0.4h1c0.2,0,0.3,0.1,0.4,0.2
			c0.1,0.1,0.2,0.2,0.2,0.4v1.7c0,0.2-0.1,0.3-0.2,0.4c-0.1,0.1-0.2,0.2-0.4,0.2h-1.9c-0.8,0-1.3,0.2-1.8,0.6
			c-0.4,0.4-0.6,1-0.6,1.8v6.6c0,0.2-0.1,0.3-0.2,0.4c-0.1,0.1-0.3,0.2-0.4,0.2h-2.1C458.5,135.1,458.3,135,458.2,134.9z"/>
	</g>
</g>
<path class="st4" d="M565.2,256.9v80c0,5.5-4.5,10-10,10H213.4c-5.5,0-10-4.5-10-10v-80c0-5.5,4.5-10,10-10h341.8
	C560.7,246.9,565.2,251.4,565.2,256.9z"/>
<g>
	<g class="st0">
		<path class="st5" d="M289.7,303.4c-1-0.4-1.8-1-2.3-1.7c-0.5-0.7-0.8-1.5-0.8-2.3c0-0.1,0-0.3,0.1-0.4c0.1-0.1,0.2-0.1,0.4-0.1
			h2.1c0.2,0,0.3,0,0.4,0.1c0.1,0.1,0.2,0.2,0.3,0.3c0.2,0.5,0.5,1,1.1,1.4c0.6,0.4,1.4,0.6,2.4,0.6c1.1,0,2-0.2,2.6-0.6
			s0.9-0.9,0.9-1.6c0-0.4-0.1-0.8-0.4-1.1c-0.3-0.3-0.7-0.5-1.3-0.7c-0.6-0.2-1.5-0.5-2.6-0.8c-1.9-0.4-3.3-1-4.1-1.8
			c-0.9-0.7-1.3-1.8-1.3-3.2c0-0.9,0.3-1.8,0.8-2.5c0.5-0.7,1.2-1.3,2.2-1.7c1-0.4,2.1-0.6,3.3-0.6c1.3,0,2.4,0.2,3.4,0.7
			s1.7,1,2.2,1.7c0.5,0.7,0.8,1.4,0.8,2.1c0,0.1,0,0.3-0.1,0.4c-0.1,0.1-0.2,0.1-0.4,0.1h-2.2c-0.3,0-0.6-0.2-0.7-0.5
			c-0.1-0.5-0.4-0.9-1-1.3c-0.5-0.3-1.2-0.5-2-0.5c-0.9,0-1.6,0.2-2.1,0.5c-0.5,0.3-0.8,0.8-0.8,1.5c0,0.4,0.1,0.8,0.4,1.1
			s0.7,0.5,1.2,0.8c0.6,0.2,1.3,0.5,2.4,0.7c1.4,0.3,2.5,0.7,3.4,1.1c0.8,0.4,1.5,0.9,1.9,1.5c0.4,0.6,0.6,1.4,0.6,2.3
			c0,1-0.3,1.9-0.9,2.7s-1.4,1.3-2.4,1.7c-1,0.4-2.2,0.6-3.6,0.6C291.9,304,290.7,303.8,289.7,303.4z"/>
		<path class="st5" d="M303.8,302.5c-1-1-1.6-2.5-1.7-4.4l0-0.6l0-0.6c0.1-1.8,0.6-3.3,1.7-4.3c1-1,2.5-1.6,4.2-1.6
			c1.9,0,3.3,0.6,4.4,1.7c1,1.2,1.5,2.7,1.5,4.6v0.5c0,0.2-0.1,0.3-0.2,0.4c-0.1,0.1-0.3,0.2-0.4,0.2h-8v0.2c0,0.9,0.3,1.6,0.7,2.2
			c0.5,0.6,1.1,0.9,1.9,0.9c0.9,0,1.7-0.4,2.3-1.1c0.1-0.2,0.3-0.3,0.3-0.3c0.1,0,0.2-0.1,0.4-0.1h2.1c0.1,0,0.3,0,0.4,0.1
			s0.2,0.2,0.2,0.3c0,0.4-0.2,0.8-0.7,1.4c-0.5,0.5-1.1,1-2,1.4c-0.8,0.4-1.8,0.6-3,0.6C306.2,304,304.8,303.5,303.8,302.5z
			 M310.7,296.4L310.7,296.4c0-1-0.2-1.8-0.7-2.4c-0.5-0.6-1.1-0.9-2-0.9s-1.5,0.3-1.9,0.9c-0.5,0.6-0.7,1.3-0.7,2.3v0.1H310.7z"/>
		<path class="st5" d="M316.7,303.6c-0.1-0.1-0.2-0.2-0.2-0.4v-11.3c0-0.2,0.1-0.3,0.2-0.4c0.1-0.1,0.2-0.2,0.4-0.2h1.9
			c0.2,0,0.3,0.1,0.4,0.2c0.1,0.1,0.2,0.3,0.2,0.4v1c0.4-0.5,0.9-0.9,1.5-1.2c0.6-0.3,1.3-0.4,2-0.4h1c0.2,0,0.3,0.1,0.4,0.2
			c0.1,0.1,0.2,0.2,0.2,0.4v1.7c0,0.2-0.1,0.3-0.2,0.4c-0.1,0.1-0.2,0.2-0.4,0.2h-1.9c-0.8,0-1.3,0.2-1.8,0.6
			c-0.4,0.4-0.6,1-0.6,1.8v6.6c0,0.2-0.1,0.3-0.2,0.4c-0.1,0.1-0.3,0.2-0.4,0.2h-2.1C316.9,303.8,316.8,303.7,316.7,303.6z"/>
		<path class="st5" d="M330.4,303.6c-0.1-0.1-0.2-0.3-0.3-0.4l-4.5-11.1l0-0.2c0-0.1,0.1-0.3,0.2-0.4c0.1-0.1,0.2-0.2,0.4-0.2h1.9
			c0.3,0,0.5,0.2,0.6,0.5l3.2,8.4l3.2-8.4c0-0.1,0.1-0.2,0.2-0.3c0.1-0.1,0.2-0.1,0.4-0.1h2c0.1,0,0.2,0.1,0.3,0.2
			c0.1,0.1,0.2,0.2,0.2,0.4c0,0.1,0,0.2,0,0.2l-4.5,11.1c-0.1,0.2-0.2,0.3-0.3,0.4c-0.1,0.1-0.3,0.2-0.6,0.2h-1.8
			C330.7,303.8,330.5,303.7,330.4,303.6z"/>
		<path class="st5" d="M340.3,289c-0.1-0.1-0.2-0.2-0.2-0.4v-1.7c0-0.2,0.1-0.3,0.2-0.4s0.2-0.2,0.4-0.2h2.2c0.2,0,0.3,0.1,0.4,0.2
			s0.2,0.2,0.2,0.4v1.7c0,0.2-0.1,0.3-0.2,0.4c-0.1,0.1-0.3,0.2-0.4,0.2h-2.2C340.6,289.2,340.5,289.2,340.3,289z M340.4,303.6
			c-0.1-0.1-0.2-0.2-0.2-0.4v-11.3c0-0.2,0.1-0.3,0.2-0.4c0.1-0.1,0.2-0.2,0.4-0.2h2c0.2,0,0.3,0.1,0.4,0.2c0.1,0.1,0.2,0.2,0.2,0.4
			v11.3c0,0.2-0.1,0.3-0.2,0.4c-0.1,0.1-0.2,0.2-0.4,0.2h-2C340.7,303.8,340.6,303.7,340.4,303.6z"/>
		<path class="st5" d="M347.8,302.5c-1-1-1.6-2.3-1.7-4.1l0-1l0-1c0.1-1.7,0.6-3.1,1.7-4.1c1-1,2.5-1.5,4.2-1.5
			c1.2,0,2.3,0.2,3.2,0.7c0.9,0.4,1.5,1,1.9,1.6c0.4,0.6,0.7,1.3,0.7,1.8c0,0.2,0,0.3-0.2,0.4c-0.1,0.1-0.3,0.2-0.4,0.2h-2.1
			c-0.2,0-0.3,0-0.4-0.1c-0.1-0.1-0.2-0.2-0.3-0.4c-0.2-0.6-0.6-1.1-0.9-1.3c-0.4-0.3-0.9-0.4-1.5-0.4c-0.8,0-1.5,0.3-1.9,0.8
			c-0.5,0.5-0.7,1.3-0.7,2.4l0,0.9l0,0.8c0.1,2.1,1,3.1,2.7,3.1c0.6,0,1.1-0.1,1.5-0.4c0.4-0.3,0.7-0.7,0.9-1.3
			c0.1-0.2,0.2-0.3,0.3-0.4s0.2-0.1,0.4-0.1h2.1c0.2,0,0.3,0.1,0.4,0.2c0.1,0.1,0.2,0.2,0.2,0.4c0,0.6-0.3,1.2-0.7,1.8
			c-0.4,0.6-1.1,1.2-1.9,1.7c-0.9,0.5-1.9,0.7-3.2,0.7C350.2,304,348.8,303.5,347.8,302.5z"/>
		<path class="st5" d="M361.5,302.5c-1-1-1.6-2.5-1.7-4.4l0-0.6l0-0.6c0.1-1.8,0.6-3.3,1.7-4.3c1-1,2.5-1.6,4.2-1.6
			c1.9,0,3.3,0.6,4.4,1.7c1,1.2,1.5,2.7,1.5,4.6v0.5c0,0.2-0.1,0.3-0.2,0.4c-0.1,0.1-0.3,0.2-0.4,0.2h-8v0.2c0,0.9,0.3,1.6,0.7,2.2
			c0.5,0.6,1.1,0.9,1.9,0.9c0.9,0,1.7-0.4,2.3-1.1c0.1-0.2,0.3-0.3,0.3-0.3c0.1,0,0.2-0.1,0.4-0.1h2.1c0.1,0,0.3,0,0.4,0.1
			s0.2,0.2,0.2,0.3c0,0.4-0.2,0.8-0.7,1.4c-0.5,0.5-1.1,1-2,1.4c-0.8,0.4-1.8,0.6-3,0.6C363.9,304,362.5,303.5,361.5,302.5z
			 M368.4,296.4L368.4,296.4c0-1-0.2-1.8-0.7-2.4c-0.5-0.6-1.1-0.9-2-0.9s-1.5,0.3-1.9,0.9c-0.5,0.6-0.7,1.3-0.7,2.3v0.1H368.4z"/>
		<path class="st5" d="M374.3,295.2c-0.1-0.1-0.2-0.2-0.2-0.4v-2.3c0-0.2,0.1-0.3,0.2-0.4c0.1-0.1,0.2-0.2,0.4-0.2h2.4
			c0.2,0,0.3,0.1,0.4,0.2c0.1,0.1,0.2,0.3,0.2,0.4v2.3c0,0.2-0.1,0.3-0.2,0.4c-0.1,0.1-0.3,0.2-0.4,0.2h-2.4
			C374.5,295.4,374.4,295.3,374.3,295.2z M374.3,303.6c-0.1-0.1-0.2-0.2-0.2-0.4v-2.3c0-0.2,0.1-0.3,0.2-0.4
			c0.1-0.1,0.2-0.2,0.4-0.2h2.4c0.2,0,0.3,0.1,0.4,0.2c0.1,0.1,0.2,0.3,0.2,0.4v2.3c0,0.2-0.1,0.3-0.2,0.4c-0.1,0.1-0.3,0.2-0.4,0.2
			h-2.4C374.5,303.8,374.4,303.7,374.3,303.6z"/>
		<path class="st5" d="M387.3,303.6c-0.1-0.1-0.2-0.2-0.2-0.4v-9.4h-1.9c-0.2,0-0.3-0.1-0.4-0.2c-0.1-0.1-0.2-0.3-0.2-0.4v-1.4
			c0-0.2,0.1-0.3,0.2-0.4c0.1-0.1,0.2-0.2,0.4-0.2h1.9v-1c0-2.9,1.6-4.3,4.7-4.3h1.6c0.2,0,0.3,0.1,0.4,0.2c0.1,0.1,0.2,0.2,0.2,0.4
			v1.4c0,0.2-0.1,0.3-0.2,0.4s-0.2,0.2-0.4,0.2h-1.5c-0.6,0-1.1,0.2-1.3,0.5s-0.4,0.8-0.4,1.4v0.9h3c0.2,0,0.3,0.1,0.4,0.2
			c0.1,0.1,0.2,0.2,0.2,0.4v1.4c0,0.2-0.1,0.3-0.2,0.4c-0.1,0.1-0.2,0.2-0.4,0.2h-3v9.4c0,0.2-0.1,0.3-0.2,0.4
			c-0.1,0.1-0.2,0.2-0.4,0.2h-2C387.6,303.8,387.4,303.7,387.3,303.6z"/>
		<path class="st5" d="M396.7,302.5c-1-1-1.6-2.3-1.7-4l0-1.1l0-1.1c0.1-1.7,0.6-3,1.7-4c1-1,2.5-1.5,4.3-1.5c1.8,0,3.3,0.5,4.3,1.5
			s1.6,2.3,1.7,4c0,0.2,0,0.5,0,1.1c0,0.5,0,0.9,0,1.1c-0.1,1.7-0.6,3-1.7,4c-1,1-2.5,1.5-4.3,1.5S397.7,303.5,396.7,302.5z
			 M403,300.8c0.5-0.5,0.7-1.3,0.8-2.4c0-0.2,0-0.5,0-0.9c0-0.5,0-0.8,0-0.9c0-1-0.3-1.8-0.8-2.4s-1.1-0.8-2-0.8
			c-0.8,0-1.5,0.3-2,0.8c-0.5,0.5-0.7,1.3-0.8,2.4l0,0.9l0,0.9c0,1,0.3,1.8,0.8,2.4c0.5,0.5,1.1,0.8,2,0.8
			C401.9,301.6,402.6,301.4,403,300.8z"/>
		<path class="st5" d="M410.9,302.5c-1-1-1.6-2.3-1.7-4l0-1.1l0-1.1c0.1-1.7,0.6-3,1.7-4c1-1,2.5-1.5,4.3-1.5c1.8,0,3.3,0.5,4.3,1.5
			s1.6,2.3,1.7,4c0,0.2,0,0.5,0,1.1c0,0.5,0,0.9,0,1.1c-0.1,1.7-0.6,3-1.7,4c-1,1-2.5,1.5-4.3,1.5S412,303.5,410.9,302.5z
			 M417.2,300.8c0.5-0.5,0.7-1.3,0.8-2.4c0-0.2,0-0.5,0-0.9c0-0.5,0-0.8,0-0.9c0-1-0.3-1.8-0.8-2.4s-1.1-0.8-2-0.8
			c-0.8,0-1.5,0.3-2,0.8c-0.5,0.5-0.7,1.3-0.8,2.4l0,0.9l0,0.9c0,1,0.3,1.8,0.8,2.4c0.5,0.5,1.1,0.8,2,0.8
			C416.1,301.6,416.8,301.4,417.2,300.8z"/>
		<path class="st5" d="M424.1,297.8c-0.1-0.1-0.2-0.2-0.2-0.4v-1.6c0-0.2,0.1-0.3,0.2-0.4c0.1-0.1,0.2-0.2,0.4-0.2h7.4
			c0.2,0,0.3,0.1,0.4,0.2c0.1,0.1,0.2,0.2,0.2,0.4v1.6c0,0.2-0.1,0.3-0.2,0.4c-0.1,0.1-0.2,0.2-0.4,0.2h-7.4
			C424.3,297.9,424.2,297.9,424.1,297.8z"/>
		<path class="st5" d="M436.6,302.5c-1-1-1.6-2.5-1.7-4.4l0-0.6l0-0.6c0.1-1.8,0.6-3.3,1.7-4.3c1-1,2.5-1.6,4.2-1.6
			c1.9,0,3.3,0.6,4.4,1.7c1,1.2,1.5,2.7,1.5,4.6v0.5c0,0.2-0.1,0.3-0.2,0.4c-0.1,0.1-0.3,0.2-0.4,0.2h-8v0.2c0,0.9,0.3,1.6,0.7,2.2
			c0.5,0.6,1.1,0.9,1.9,0.9c0.9,0,1.7-0.4,2.3-1.1c0.1-0.2,0.3-0.3,0.3-0.3c0.1,0,0.2-0.1,0.4-0.1h2.1c0.1,0,0.3,0,0.4,0.1
			s0.2,0.2,0.2,0.3c0,0.4-0.2,0.8-0.7,1.4c-0.5,0.5-1.1,1-2,1.4c-0.8,0.4-1.8,0.6-3,0.6C439.1,304,437.7,303.5,436.6,302.5z
			 M443.5,296.4L443.5,296.4c0-1-0.2-1.8-0.7-2.4c-0.5-0.6-1.1-0.9-2-0.9s-1.5,0.3-1.9,0.9c-0.5,0.6-0.7,1.3-0.7,2.3v0.1H443.5z"/>
		<path class="st5" d="M450.7,303.5c-0.7-0.3-1.2-0.8-1.6-1.3c-0.4-0.6-0.6-1.2-0.6-1.8c0-1.1,0.4-2,1.3-2.6s2.1-1.1,3.6-1.4
			l3.3-0.5v-0.5c0-0.7-0.2-1.2-0.5-1.6c-0.4-0.4-0.9-0.5-1.7-0.5c-0.5,0-1,0.1-1.3,0.3c-0.3,0.2-0.6,0.4-0.8,0.6
			c-0.2,0.2-0.3,0.3-0.4,0.4c-0.1,0.2-0.2,0.3-0.4,0.3h-1.8c-0.1,0-0.3,0-0.4-0.1c-0.1-0.1-0.2-0.2-0.2-0.4c0-0.4,0.2-0.9,0.6-1.4
			c0.4-0.5,1-1,1.7-1.3c0.8-0.4,1.7-0.6,2.9-0.6c1.9,0,3.3,0.4,4.1,1.3c0.9,0.8,1.3,2,1.3,3.3v7.5c0,0.2-0.1,0.3-0.2,0.4
			c-0.1,0.1-0.2,0.2-0.4,0.2h-1.9c-0.2,0-0.3-0.1-0.4-0.2c-0.1-0.1-0.2-0.2-0.2-0.4v-0.9c-0.4,0.5-0.9,0.9-1.5,1.3s-1.5,0.5-2.4,0.5
			C452.2,304,451.4,303.8,450.7,303.5z M456,300.9c0.6-0.6,0.8-1.4,0.8-2.5v-0.5l-2.4,0.4c-0.9,0.1-1.6,0.4-2.1,0.7
			c-0.5,0.3-0.7,0.7-0.7,1.2c0,0.5,0.2,0.9,0.6,1.2c0.4,0.3,1,0.4,1.6,0.4C454.7,301.7,455.4,301.4,456,300.9z"/>
		<path class="st5" d="M464.8,303.5c-0.8-0.4-1.4-0.8-1.8-1.3c-0.4-0.5-0.6-0.9-0.6-1.3c0-0.2,0.1-0.3,0.2-0.4
			c0.1-0.1,0.2-0.1,0.4-0.1h1.9c0.1,0,0.3,0.1,0.4,0.2c0.1,0,0.2,0.2,0.5,0.4c0.3,0.3,0.6,0.5,1,0.6c0.4,0.1,0.8,0.2,1.2,0.2
			c0.6,0,1.2-0.1,1.6-0.4s0.6-0.6,0.6-1.1c0-0.3-0.1-0.6-0.3-0.8c-0.2-0.2-0.5-0.4-1-0.6s-1.2-0.3-2.1-0.5c-1.4-0.3-2.4-0.7-3-1.3
			s-1-1.4-1-2.4c0-0.6,0.2-1.2,0.6-1.8c0.4-0.6,1-1,1.7-1.4c0.8-0.4,1.7-0.5,2.7-0.5c1.1,0,2,0.2,2.8,0.5c0.8,0.3,1.4,0.8,1.8,1.2
			c0.4,0.5,0.6,0.9,0.6,1.3c0,0.1-0.1,0.3-0.2,0.4c-0.1,0.1-0.2,0.2-0.4,0.2h-1.8c-0.1,0-0.3-0.1-0.4-0.2c-0.1-0.1-0.3-0.2-0.5-0.5
			c-0.2-0.2-0.5-0.4-0.8-0.5c-0.3-0.1-0.7-0.2-1.1-0.2c-0.6,0-1.1,0.1-1.4,0.4c-0.3,0.3-0.5,0.6-0.5,1c0,0.3,0.1,0.6,0.2,0.7
			c0.2,0.2,0.5,0.4,0.9,0.6c0.5,0.2,1.2,0.4,2.1,0.5c1.5,0.3,2.6,0.8,3.3,1.4c0.7,0.6,1,1.4,1,2.4c0,1.1-0.5,2-1.5,2.7
			c-1,0.7-2.3,1.1-4.1,1.1C466.6,304,465.6,303.8,464.8,303.5z"/>
		<path class="st5" d="M478.1,302.6c-0.7-0.8-1.1-1.9-1.1-3.3v-5.4h-1.9c-0.2,0-0.3-0.1-0.4-0.2s-0.2-0.3-0.2-0.4v-1.4
			c0-0.2,0.1-0.3,0.2-0.4c0.1-0.1,0.2-0.2,0.4-0.2h1.9v-4c0-0.2,0.1-0.3,0.2-0.4s0.2-0.2,0.4-0.2h1.9c0.2,0,0.3,0.1,0.4,0.2
			s0.2,0.2,0.2,0.4v4h3c0.2,0,0.3,0.1,0.4,0.2c0.1,0.1,0.2,0.2,0.2,0.4v1.4c0,0.2-0.1,0.3-0.2,0.4c-0.1,0.1-0.2,0.2-0.4,0.2h-3v5.2
			c0,0.7,0.1,1.2,0.4,1.6c0.2,0.4,0.6,0.5,1.2,0.5h1.7c0.2,0,0.3,0.1,0.4,0.2c0.1,0.1,0.2,0.2,0.2,0.4v1.5c0,0.2-0.1,0.3-0.2,0.4
			c-0.1,0.1-0.2,0.2-0.4,0.2h-1.9C480,303.8,478.9,303.4,478.1,302.6z"/>
	</g>
</g>
<g>
	<g class="st0">
		<path class="st1" d="M709.1,30.6c-1.2-1.1-1.9-2.7-1.9-4.8c0-0.4,0-1.1,0-2.1c0-1,0-1.7,0-2.2c0.1-2,0.7-3.6,2-4.8
			c1.2-1.1,2.9-1.7,5.1-1.7c1.4,0,2.7,0.2,3.7,0.7s1.9,1.2,2.4,2c0.6,0.8,0.9,1.8,0.9,2.8v0c0,0.1-0.1,0.2-0.2,0.3
			c-0.1,0.1-0.2,0.1-0.3,0.1h-2.3c-0.2,0-0.3,0-0.4-0.1c-0.1-0.1-0.2-0.2-0.2-0.5c-0.3-1-0.7-1.7-1.3-2.1s-1.4-0.6-2.4-0.6
			c-2.3,0-3.5,1.3-3.6,3.9c0,0.4,0,1.1,0,2s0,1.6,0,2c0.1,2.6,1.3,3.9,3.6,3.9c1,0,1.8-0.2,2.4-0.6c0.6-0.4,1-1.1,1.3-2.1
			c0-0.2,0.1-0.4,0.2-0.5s0.3-0.1,0.4-0.1h2.3c0.1,0,0.3,0,0.4,0.1c0.1,0.1,0.1,0.2,0.1,0.4c0,1.1-0.3,2-0.9,2.8
			c-0.6,0.8-1.4,1.5-2.4,2c-1.1,0.5-2.3,0.7-3.7,0.7C712,32.3,710.3,31.8,709.1,30.6z"/>
		<path class="st1" d="M724.1,31.9c-0.1-0.1-0.2-0.2-0.2-0.4V15.6c0-0.2,0.1-0.3,0.2-0.4c0.1-0.1,0.2-0.2,0.4-0.2h2
			c0.2,0,0.3,0.1,0.4,0.2c0.1,0.1,0.2,0.2,0.2,0.4v15.9c0,0.2-0.1,0.3-0.2,0.4c-0.1,0.1-0.2,0.2-0.4,0.2h-2
			C724.3,32.1,724.2,32,724.1,31.9z"/>
		<path class="st1" d="M731.4,30.9c-0.8-1-1.3-2.3-1.3-3.9v-6.7c0-0.2,0.1-0.3,0.2-0.4c0.1-0.1,0.2-0.2,0.4-0.2h2.1
			c0.2,0,0.3,0.1,0.4,0.2c0.1,0.1,0.2,0.2,0.2,0.4v6.6c0,2,0.9,3,2.6,3c0.8,0,1.5-0.3,2-0.8c0.5-0.5,0.7-1.3,0.7-2.2v-6.6
			c0-0.2,0.1-0.3,0.2-0.4c0.1-0.1,0.2-0.2,0.4-0.2h2.1c0.2,0,0.3,0.1,0.4,0.2c0.1,0.1,0.2,0.2,0.2,0.4v11.3c0,0.2-0.1,0.3-0.2,0.4
			c-0.1,0.1-0.2,0.2-0.4,0.2h-1.9c-0.2,0-0.3-0.1-0.4-0.2c-0.1-0.1-0.2-0.2-0.2-0.4v-1c-0.9,1.2-2.2,1.8-4,1.8
			C733.4,32.3,732.2,31.8,731.4,30.9z"/>
		<path class="st1" d="M746.8,31.8c-0.8-0.4-1.4-0.8-1.8-1.3c-0.4-0.5-0.6-0.9-0.6-1.3c0-0.2,0.1-0.3,0.2-0.4
			c0.1-0.1,0.2-0.1,0.4-0.1h1.9c0.1,0,0.3,0.1,0.4,0.2c0.1,0,0.2,0.2,0.5,0.4c0.3,0.3,0.6,0.5,1,0.6c0.4,0.1,0.8,0.2,1.2,0.2
			c0.6,0,1.2-0.1,1.6-0.4s0.6-0.6,0.6-1.1c0-0.3-0.1-0.6-0.3-0.8c-0.2-0.2-0.5-0.4-1-0.6c-0.5-0.2-1.2-0.3-2.1-0.5
			c-1.4-0.3-2.4-0.7-3-1.3c-0.6-0.6-1-1.4-1-2.4c0-0.6,0.2-1.2,0.6-1.8c0.4-0.6,1-1,1.7-1.4c0.8-0.4,1.7-0.5,2.7-0.5
			c1.1,0,2,0.2,2.8,0.5c0.8,0.3,1.4,0.8,1.8,1.2c0.4,0.5,0.6,0.9,0.6,1.3c0,0.1-0.1,0.3-0.2,0.4c-0.1,0.1-0.2,0.2-0.4,0.2h-1.8
			c-0.1,0-0.3-0.1-0.4-0.2c-0.1-0.1-0.3-0.2-0.5-0.5c-0.2-0.2-0.5-0.4-0.8-0.5c-0.3-0.1-0.7-0.2-1.1-0.2c-0.6,0-1.1,0.1-1.4,0.4
			c-0.3,0.3-0.5,0.6-0.5,1c0,0.3,0.1,0.6,0.2,0.7c0.2,0.2,0.5,0.4,0.9,0.6s1.2,0.4,2.1,0.5c1.5,0.3,2.6,0.8,3.3,1.4
			c0.7,0.6,1,1.4,1,2.4c0,1.1-0.5,2-1.5,2.7c-1,0.7-2.3,1.1-4.1,1.1C748.7,32.3,747.6,32.1,746.8,31.8z"/>
		<path class="st1" d="M760.2,30.9c-0.7-0.8-1.1-1.9-1.1-3.3v-5.4h-1.9c-0.2,0-0.3-0.1-0.4-0.2c-0.1-0.1-0.2-0.3-0.2-0.4v-1.4
			c0-0.2,0.1-0.3,0.2-0.4c0.1-0.1,0.2-0.2,0.4-0.2h1.9v-4c0-0.2,0.1-0.3,0.2-0.4c0.1-0.1,0.2-0.2,0.4-0.2h1.9c0.2,0,0.3,0.1,0.4,0.2
			c0.1,0.1,0.2,0.2,0.2,0.4v4h3c0.2,0,0.3,0.1,0.4,0.2c0.1,0.1,0.2,0.2,0.2,0.4v1.4c0,0.2-0.1,0.3-0.2,0.4c-0.1,0.1-0.2,0.2-0.4,0.2
			h-3v5.2c0,0.7,0.1,1.2,0.4,1.6c0.2,0.4,0.6,0.5,1.2,0.5h1.7c0.2,0,0.3,0.1,0.4,0.2c0.1,0.1,0.2,0.2,0.2,0.4v1.5
			c0,0.2-0.1,0.3-0.2,0.4c-0.1,0.1-0.2,0.2-0.4,0.2h-1.9C762,32.1,760.9,31.7,760.2,30.9z"/>
		<path class="st1" d="M769.3,30.8c-1-1-1.6-2.5-1.7-4.4l0-0.6l0-0.6c0.1-1.8,0.6-3.3,1.7-4.3s2.5-1.6,4.2-1.6
			c1.9,0,3.3,0.6,4.4,1.7c1,1.2,1.5,2.7,1.5,4.6v0.5c0,0.2-0.1,0.3-0.2,0.4c-0.1,0.1-0.3,0.2-0.4,0.2h-8V27c0,0.9,0.3,1.6,0.7,2.2
			c0.5,0.6,1.1,0.9,1.9,0.9c0.9,0,1.7-0.4,2.3-1.1c0.1-0.2,0.3-0.3,0.3-0.3c0.1,0,0.2-0.1,0.4-0.1h2.1c0.1,0,0.3,0,0.4,0.1
			c0.1,0.1,0.2,0.2,0.2,0.3c0,0.4-0.2,0.8-0.7,1.4c-0.5,0.5-1.1,1-2,1.4s-1.8,0.6-3,0.6C771.7,32.3,770.3,31.8,769.3,30.8z
			 M776.2,24.8L776.2,24.8c0-1-0.2-1.8-0.7-2.4s-1.1-0.9-2-0.9s-1.5,0.3-1.9,0.9c-0.5,0.6-0.7,1.3-0.7,2.3v0.1H776.2z"/>
		<path class="st1" d="M782.2,31.9c-0.1-0.1-0.2-0.2-0.2-0.4V20.2c0-0.2,0.1-0.3,0.2-0.4s0.2-0.2,0.4-0.2h1.9c0.2,0,0.3,0.1,0.4,0.2
			c0.1,0.1,0.2,0.3,0.2,0.4v1c0.4-0.5,0.9-0.9,1.5-1.2c0.6-0.3,1.3-0.4,2-0.4h1c0.2,0,0.3,0.1,0.4,0.2c0.1,0.1,0.2,0.2,0.2,0.4v1.7
			c0,0.2-0.1,0.3-0.2,0.4c-0.1,0.1-0.2,0.2-0.4,0.2h-1.9c-0.8,0-1.3,0.2-1.8,0.6c-0.4,0.4-0.6,1-0.6,1.8v6.6c0,0.2-0.1,0.3-0.2,0.4
			c-0.1,0.1-0.3,0.2-0.4,0.2h-2.1C782.4,32.1,782.3,32,782.2,31.9z"/>
		<path class="st1" d="M792.1,23.5c-0.1-0.1-0.2-0.2-0.2-0.4v-2.3c0-0.2,0.1-0.3,0.2-0.4c0.1-0.1,0.2-0.2,0.4-0.2h2.4
			c0.2,0,0.3,0.1,0.4,0.2c0.1,0.1,0.2,0.3,0.2,0.4v2.3c0,0.2-0.1,0.3-0.2,0.4c-0.1,0.1-0.3,0.2-0.4,0.2h-2.4
			C792.3,23.7,792.2,23.6,792.1,23.5z M792.1,31.9c-0.1-0.1-0.2-0.2-0.2-0.4v-2.3c0-0.2,0.1-0.3,0.2-0.4c0.1-0.1,0.2-0.2,0.4-0.2
			h2.4c0.2,0,0.3,0.1,0.4,0.2c0.1,0.1,0.2,0.3,0.2,0.4v2.3c0,0.2-0.1,0.3-0.2,0.4c-0.1,0.1-0.3,0.2-0.4,0.2h-2.4
			C792.3,32.1,792.2,32,792.1,31.9z"/>
		<path class="st1" d="M805.2,30.8c-1-1-1.6-2.5-1.7-4.4l0-0.6l0-0.6c0.1-1.8,0.6-3.3,1.7-4.3s2.5-1.6,4.2-1.6
			c1.9,0,3.3,0.6,4.4,1.7c1,1.2,1.5,2.7,1.5,4.6v0.5c0,0.2-0.1,0.3-0.2,0.4c-0.1,0.1-0.3,0.2-0.4,0.2h-8V27c0,0.9,0.3,1.6,0.7,2.2
			c0.5,0.6,1.1,0.9,1.9,0.9c0.9,0,1.7-0.4,2.3-1.1c0.1-0.2,0.3-0.3,0.3-0.3c0.1,0,0.2-0.1,0.4-0.1h2.1c0.1,0,0.3,0,0.4,0.1
			c0.1,0.1,0.2,0.2,0.2,0.3c0,0.4-0.2,0.8-0.7,1.4c-0.5,0.5-1.1,1-2,1.4s-1.8,0.6-3,0.6C807.7,32.3,806.3,31.8,805.2,30.8z
			 M812.1,24.8L812.1,24.8c0-1-0.2-1.8-0.7-2.4s-1.1-0.9-2-0.9s-1.5,0.3-1.9,0.9c-0.5,0.6-0.7,1.3-0.7,2.3v0.1H812.1z"/>
		<path class="st1" d="M819.3,31.8c-0.7-0.3-1.2-0.8-1.6-1.3c-0.4-0.6-0.6-1.2-0.6-1.8c0-1.1,0.4-2,1.3-2.6s2.1-1.1,3.6-1.4l3.3-0.5
			v-0.5c0-0.7-0.2-1.2-0.5-1.6s-0.9-0.5-1.7-0.5c-0.5,0-1,0.1-1.3,0.3c-0.3,0.2-0.6,0.4-0.8,0.6c-0.2,0.2-0.3,0.3-0.4,0.4
			c-0.1,0.2-0.2,0.3-0.4,0.3h-1.8c-0.1,0-0.3,0-0.4-0.1c-0.1-0.1-0.2-0.2-0.2-0.4c0-0.4,0.2-0.9,0.6-1.4c0.4-0.5,1-1,1.7-1.3
			c0.8-0.4,1.7-0.6,2.9-0.6c1.9,0,3.3,0.4,4.1,1.3c0.9,0.8,1.3,2,1.3,3.3v7.5c0,0.2-0.1,0.3-0.2,0.4c-0.1,0.1-0.2,0.2-0.4,0.2H826
			c-0.2,0-0.3-0.1-0.4-0.2c-0.1-0.1-0.2-0.2-0.2-0.4v-0.9c-0.4,0.5-0.9,0.9-1.5,1.3c-0.6,0.3-1.5,0.5-2.4,0.5
			C820.7,32.3,820,32.2,819.3,31.8z M824.5,29.2c0.6-0.6,0.8-1.4,0.8-2.5v-0.5l-2.4,0.4c-0.9,0.1-1.6,0.4-2.1,0.7s-0.7,0.7-0.7,1.2
			c0,0.5,0.2,0.9,0.6,1.2s1,0.4,1.6,0.4C823.2,30,824,29.8,824.5,29.2z"/>
		<path class="st1" d="M833.3,31.8c-0.8-0.4-1.4-0.8-1.8-1.3c-0.4-0.5-0.6-0.9-0.6-1.3c0-0.2,0.1-0.3,0.2-0.4
			c0.1-0.1,0.2-0.1,0.4-0.1h1.9c0.1,0,0.3,0.1,0.4,0.2c0.1,0,0.2,0.2,0.5,0.4c0.3,0.3,0.6,0.5,1,0.6c0.4,0.1,0.8,0.2,1.2,0.2
			c0.6,0,1.2-0.1,1.6-0.4s0.6-0.6,0.6-1.1c0-0.3-0.1-0.6-0.3-0.8c-0.2-0.2-0.5-0.4-1-0.6c-0.5-0.2-1.2-0.3-2.1-0.5
			c-1.4-0.3-2.4-0.7-3-1.3c-0.6-0.6-1-1.4-1-2.4c0-0.6,0.2-1.2,0.6-1.8c0.4-0.6,1-1,1.7-1.4c0.8-0.4,1.7-0.5,2.7-0.5
			c1.1,0,2,0.2,2.8,0.5c0.8,0.3,1.4,0.8,1.8,1.2c0.4,0.5,0.6,0.9,0.6,1.3c0,0.1-0.1,0.3-0.2,0.4c-0.1,0.1-0.2,0.2-0.4,0.2h-1.8
			c-0.1,0-0.3-0.1-0.4-0.2c-0.1-0.1-0.3-0.2-0.5-0.5c-0.2-0.2-0.5-0.4-0.8-0.5c-0.3-0.1-0.7-0.2-1.1-0.2c-0.6,0-1.1,0.1-1.4,0.4
			c-0.3,0.3-0.5,0.6-0.5,1c0,0.3,0.1,0.6,0.2,0.7c0.2,0.2,0.5,0.4,0.9,0.6s1.2,0.4,2.1,0.5c1.5,0.3,2.6,0.8,3.3,1.4
			c0.7,0.6,1,1.4,1,2.4c0,1.1-0.5,2-1.5,2.7c-1,0.7-2.3,1.1-4.1,1.1C835.1,32.3,834.1,32.1,833.3,31.8z"/>
		<path class="st1" d="M846.7,30.9c-0.7-0.8-1.1-1.9-1.1-3.3v-5.4h-1.9c-0.2,0-0.3-0.1-0.4-0.2c-0.1-0.1-0.2-0.3-0.2-0.4v-1.4
			c0-0.2,0.1-0.3,0.2-0.4c0.1-0.1,0.2-0.2,0.4-0.2h1.9v-4c0-0.2,0.1-0.3,0.2-0.4c0.1-0.1,0.2-0.2,0.4-0.2h1.9c0.2,0,0.3,0.1,0.4,0.2
			c0.1,0.1,0.2,0.2,0.2,0.4v4h3c0.2,0,0.3,0.1,0.4,0.2c0.1,0.1,0.2,0.2,0.2,0.4v1.4c0,0.2-0.1,0.3-0.2,0.4c-0.1,0.1-0.2,0.2-0.4,0.2
			h-3v5.2c0,0.7,0.1,1.2,0.4,1.6c0.2,0.4,0.6,0.5,1.2,0.5h1.7c0.2,0,0.3,0.1,0.4,0.2c0.1,0.1,0.2,0.2,0.2,0.4v1.5
			c0,0.2-0.1,0.3-0.2,0.4c-0.1,0.1-0.2,0.2-0.4,0.2H850C848.5,32.1,847.4,31.7,846.7,30.9z"/>
	</g>
</g>
<g>
	<path class="st2" d="M1115.5,47.9H715.9c-5.5,0-10,4.5-10,10v313.3c0,5.5,4.5,10,10,10h399.6c5.5,0,10-4.5,10-10V57.9
		C1125.5,52.4,1121,47.9,1115.5,47.9z"/>
	<path class="st3" d="M1115.5,47.9H715.9c-5.5,0-10,4.5-10,10v313.3c0,5.5,4.5,10,10,10h399.6c5.5,0,10-4.5,10-10V57.9
		C1125.5,52.4,1121,47.9,1115.5,47.9z"/>
</g>
<path class="st4" d="M1096.6,88.3v80c0,5.5-4.5,10-10,10H744.8c-5.5,0-10-4.5-10-10v-80c0-5.5,4.5-10,10-10h341.8
	C1092.1,78.3,1096.6,82.8,1096.6,88.3z"/>
<path class="st4" d="M1096.6,256.9v80c0,5.5-4.5,10-10,10H744.8c-5.5,0-10-4.5-10-10v-80c0-5.5,4.5-10,10-10h341.8
	C1092.1,246.9,1096.6,251.4,1096.6,256.9z"/>
<g>
	<g class="st0">
		<path class="st5" d="M852.1,303.4c-1-0.4-1.8-1-2.3-1.7c-0.5-0.7-0.8-1.5-0.8-2.3c0-0.1,0-0.3,0.1-0.4s0.2-0.1,0.4-0.1h2.1
			c0.2,0,0.3,0,0.4,0.1s0.2,0.2,0.3,0.3c0.2,0.5,0.5,1,1.1,1.4c0.6,0.4,1.4,0.6,2.4,0.6c1.1,0,2-0.2,2.6-0.6s0.9-0.9,0.9-1.6
			c0-0.4-0.1-0.8-0.4-1.1c-0.3-0.3-0.7-0.5-1.3-0.7s-1.5-0.5-2.6-0.8c-1.9-0.4-3.3-1-4.1-1.8c-0.9-0.7-1.3-1.8-1.3-3.2
			c0-0.9,0.3-1.8,0.8-2.5c0.5-0.7,1.2-1.3,2.2-1.7c1-0.4,2.1-0.6,3.3-0.6c1.3,0,2.4,0.2,3.4,0.7c1,0.5,1.7,1,2.2,1.7
			c0.5,0.7,0.8,1.4,0.8,2.1c0,0.1,0,0.3-0.1,0.4s-0.2,0.1-0.4,0.1h-2.2c-0.3,0-0.6-0.2-0.7-0.5c-0.1-0.5-0.4-0.9-1-1.3
			c-0.5-0.3-1.2-0.5-2-0.5c-0.9,0-1.6,0.2-2.1,0.5c-0.5,0.3-0.8,0.8-0.8,1.5c0,0.4,0.1,0.8,0.4,1.1s0.7,0.5,1.2,0.8
			c0.6,0.2,1.3,0.5,2.4,0.7c1.4,0.3,2.5,0.7,3.4,1.1c0.8,0.4,1.5,0.9,1.9,1.5c0.4,0.6,0.6,1.4,0.6,2.3c0,1-0.3,1.9-0.9,2.7
			c-0.6,0.8-1.4,1.3-2.4,1.7c-1,0.4-2.2,0.6-3.6,0.6C854.4,304,853.1,303.8,852.1,303.4z"/>
		<path class="st5" d="M866.2,302.5c-1-1-1.6-2.5-1.7-4.4l0-0.6l0-0.6c0.1-1.8,0.6-3.3,1.7-4.3c1-1,2.5-1.6,4.2-1.6
			c1.9,0,3.3,0.6,4.4,1.7c1,1.2,1.5,2.7,1.5,4.6v0.5c0,0.2-0.1,0.3-0.2,0.4c-0.1,0.1-0.3,0.2-0.4,0.2h-8v0.2c0,0.9,0.3,1.6,0.7,2.2
			c0.5,0.6,1.1,0.9,1.9,0.9c0.9,0,1.7-0.4,2.3-1.1c0.1-0.2,0.3-0.3,0.3-0.3c0.1,0,0.2-0.1,0.4-0.1h2.1c0.1,0,0.3,0,0.4,0.1
			s0.2,0.2,0.2,0.3c0,0.4-0.2,0.8-0.7,1.4c-0.5,0.5-1.1,1-2,1.4c-0.8,0.4-1.8,0.6-3,0.6C868.7,304,867.3,303.5,866.2,302.5z
			 M873.1,296.4L873.1,296.4c0-1-0.2-1.8-0.7-2.4c-0.5-0.6-1.1-0.9-2-0.9s-1.5,0.3-1.9,0.9c-0.5,0.6-0.7,1.3-0.7,2.3v0.1H873.1z"/>
		<path class="st5" d="M879.1,303.6c-0.1-0.1-0.2-0.2-0.2-0.4v-11.3c0-0.2,0.1-0.3,0.2-0.4c0.1-0.1,0.2-0.2,0.4-0.2h1.9
			c0.2,0,0.3,0.1,0.4,0.2c0.1,0.1,0.2,0.3,0.2,0.4v1c0.4-0.5,0.9-0.9,1.5-1.2c0.6-0.3,1.3-0.4,2-0.4h1c0.2,0,0.3,0.1,0.4,0.2
			c0.1,0.1,0.2,0.2,0.2,0.4v1.7c0,0.2-0.1,0.3-0.2,0.4c-0.1,0.1-0.2,0.2-0.4,0.2h-1.9c-0.8,0-1.3,0.2-1.8,0.6
			c-0.4,0.4-0.6,1-0.6,1.8v6.6c0,0.2-0.1,0.3-0.2,0.4c-0.1,0.1-0.3,0.2-0.4,0.2h-2.1C879.3,303.8,879.2,303.7,879.1,303.6z"/>
		<path class="st5" d="M892.8,303.6c-0.1-0.1-0.2-0.3-0.3-0.4L888,292l0-0.2c0-0.1,0.1-0.3,0.2-0.4c0.1-0.1,0.2-0.2,0.4-0.2h1.9
			c0.3,0,0.5,0.2,0.6,0.5l3.2,8.4l3.2-8.4c0-0.1,0.1-0.2,0.2-0.3s0.2-0.1,0.4-0.1h2c0.1,0,0.2,0.1,0.3,0.2c0.1,0.1,0.2,0.2,0.2,0.4
			c0,0.1,0,0.2,0,0.2l-4.5,11.1c-0.1,0.2-0.2,0.3-0.3,0.4c-0.1,0.1-0.3,0.2-0.6,0.2h-1.8C893.1,303.8,892.9,303.7,892.8,303.6z"/>
		<path class="st5" d="M902.8,289c-0.1-0.1-0.2-0.2-0.2-0.4v-1.7c0-0.2,0.1-0.3,0.2-0.4c0.1-0.1,0.2-0.2,0.4-0.2h2.2
			c0.2,0,0.3,0.1,0.4,0.2s0.2,0.2,0.2,0.4v1.7c0,0.2-0.1,0.3-0.2,0.4c-0.1,0.1-0.3,0.2-0.4,0.2h-2.2
			C903,289.2,902.9,289.2,902.8,289z M902.9,303.6c-0.1-0.1-0.2-0.2-0.2-0.4v-11.3c0-0.2,0.1-0.3,0.2-0.4c0.1-0.1,0.2-0.2,0.4-0.2h2
			c0.2,0,0.3,0.1,0.4,0.2c0.1,0.1,0.2,0.2,0.2,0.4v11.3c0,0.2-0.1,0.3-0.2,0.4c-0.1,0.1-0.2,0.2-0.4,0.2h-2
			C903.1,303.8,903,303.7,902.9,303.6z"/>
		<path class="st5" d="M910.2,302.5c-1-1-1.6-2.3-1.7-4.1l0-1l0-1c0.1-1.7,0.6-3.1,1.7-4.1c1-1,2.5-1.5,4.2-1.5
			c1.2,0,2.3,0.2,3.2,0.7c0.9,0.4,1.5,1,1.9,1.6c0.4,0.6,0.7,1.3,0.7,1.8c0,0.2,0,0.3-0.2,0.4c-0.1,0.1-0.3,0.2-0.4,0.2h-2.1
			c-0.2,0-0.3,0-0.4-0.1c-0.1-0.1-0.2-0.2-0.3-0.4c-0.2-0.6-0.6-1.1-0.9-1.3c-0.4-0.3-0.9-0.4-1.5-0.4c-0.8,0-1.5,0.3-1.9,0.8
			c-0.5,0.5-0.7,1.3-0.7,2.4l0,0.9l0,0.8c0.1,2.1,1,3.1,2.7,3.1c0.6,0,1.1-0.1,1.5-0.4c0.4-0.3,0.7-0.7,0.9-1.3
			c0.1-0.2,0.2-0.3,0.3-0.4s0.2-0.1,0.4-0.1h2.1c0.2,0,0.3,0.1,0.4,0.2c0.1,0.1,0.2,0.2,0.2,0.4c0,0.6-0.3,1.2-0.7,1.8
			c-0.4,0.6-1.1,1.2-1.9,1.7c-0.9,0.5-1.9,0.7-3.2,0.7C912.7,304,911.3,303.5,910.2,302.5z"/>
		<path class="st5" d="M923.9,302.5c-1-1-1.6-2.5-1.7-4.4l0-0.6l0-0.6c0.1-1.8,0.6-3.3,1.7-4.3c1-1,2.5-1.6,4.2-1.6
			c1.9,0,3.3,0.6,4.4,1.7c1,1.2,1.5,2.7,1.5,4.6v0.5c0,0.2-0.1,0.3-0.2,0.4c-0.1,0.1-0.3,0.2-0.4,0.2h-8v0.2c0,0.9,0.3,1.6,0.7,2.2
			c0.5,0.6,1.1,0.9,1.9,0.9c0.9,0,1.7-0.4,2.3-1.1c0.1-0.2,0.3-0.3,0.3-0.3c0.1,0,0.2-0.1,0.4-0.1h2.1c0.1,0,0.3,0,0.4,0.1
			s0.2,0.2,0.2,0.3c0,0.4-0.2,0.8-0.7,1.4c-0.5,0.5-1.1,1-2,1.4s-1.8,0.6-3,0.6C926.3,304,924.9,303.5,923.9,302.5z M930.8,296.4
			L930.8,296.4c0-1-0.2-1.8-0.7-2.4c-0.5-0.6-1.1-0.9-2-0.9s-1.5,0.3-1.9,0.9s-0.7,1.3-0.7,2.3v0.1H930.8z"/>
		<path class="st5" d="M936.7,295.2c-0.1-0.1-0.2-0.2-0.2-0.4v-2.3c0-0.2,0.1-0.3,0.2-0.4c0.1-0.1,0.2-0.2,0.4-0.2h2.4
			c0.2,0,0.3,0.1,0.4,0.2c0.1,0.1,0.2,0.3,0.2,0.4v2.3c0,0.2-0.1,0.3-0.2,0.4c-0.1,0.1-0.3,0.2-0.4,0.2h-2.4
			C936.9,295.4,936.8,295.3,936.7,295.2z M936.7,303.6c-0.1-0.1-0.2-0.2-0.2-0.4v-2.3c0-0.2,0.1-0.3,0.2-0.4
			c0.1-0.1,0.2-0.2,0.4-0.2h2.4c0.2,0,0.3,0.1,0.4,0.2c0.1,0.1,0.2,0.3,0.2,0.4v2.3c0,0.2-0.1,0.3-0.2,0.4c-0.1,0.1-0.3,0.2-0.4,0.2
			h-2.4C936.9,303.8,936.8,303.7,936.7,303.6z"/>
		<path class="st5" d="M949.7,303.6c-0.1-0.1-0.2-0.2-0.2-0.4v-9.4h-1.9c-0.2,0-0.3-0.1-0.4-0.2c-0.1-0.1-0.2-0.3-0.2-0.4v-1.4
			c0-0.2,0.1-0.3,0.2-0.4c0.1-0.1,0.2-0.2,0.4-0.2h1.9v-1c0-2.9,1.6-4.3,4.7-4.3h1.6c0.2,0,0.3,0.1,0.4,0.2c0.1,0.1,0.2,0.2,0.2,0.4
			v1.4c0,0.2-0.1,0.3-0.2,0.4s-0.2,0.2-0.4,0.2h-1.5c-0.6,0-1.1,0.2-1.3,0.5s-0.4,0.8-0.4,1.4v0.9h3c0.2,0,0.3,0.1,0.4,0.2
			c0.1,0.1,0.2,0.2,0.2,0.4v1.4c0,0.2-0.1,0.3-0.2,0.4c-0.1,0.1-0.2,0.2-0.4,0.2h-3v9.4c0,0.2-0.1,0.3-0.2,0.4
			c-0.1,0.1-0.2,0.2-0.4,0.2h-2C950,303.8,949.8,303.7,949.7,303.6z"/>
		<path class="st5" d="M959.1,302.5c-1-1-1.6-2.3-1.7-4l0-1.1l0-1.1c0.1-1.7,0.6-3,1.7-4s2.5-1.5,4.3-1.5s3.3,0.5,4.3,1.5
			c1,1,1.6,2.3,1.7,4c0,0.2,0,0.5,0,1.1c0,0.5,0,0.9,0,1.1c-0.1,1.7-0.6,3-1.7,4s-2.5,1.5-4.3,1.5S960.2,303.5,959.1,302.5z
			 M965.5,300.8c0.5-0.5,0.7-1.3,0.8-2.4c0-0.2,0-0.5,0-0.9c0-0.5,0-0.8,0-0.9c0-1-0.3-1.8-0.8-2.4s-1.1-0.8-2-0.8s-1.5,0.3-2,0.8
			s-0.7,1.3-0.8,2.4l0,0.9l0,0.9c0,1,0.3,1.8,0.8,2.4c0.5,0.5,1.1,0.8,2,0.8S965,301.4,965.5,300.8z"/>
		<path class="st5" d="M973.3,302.5c-1-1-1.6-2.3-1.7-4l0-1.1l0-1.1c0.1-1.7,0.6-3,1.7-4c1-1,2.5-1.5,4.3-1.5c1.8,0,3.3,0.5,4.3,1.5
			c1,1,1.6,2.3,1.7,4c0,0.2,0,0.5,0,1.1c0,0.5,0,0.9,0,1.1c-0.1,1.7-0.6,3-1.7,4c-1,1-2.5,1.5-4.3,1.5S974.4,303.5,973.3,302.5z
			 M979.7,300.8c0.5-0.5,0.7-1.3,0.8-2.4c0-0.2,0-0.5,0-0.9c0-0.5,0-0.8,0-0.9c0-1-0.3-1.8-0.8-2.4s-1.1-0.8-2-0.8
			c-0.8,0-1.5,0.3-2,0.8c-0.5,0.5-0.7,1.3-0.8,2.4l0,0.9l0,0.9c0,1,0.3,1.8,0.8,2.4c0.5,0.5,1.1,0.8,2,0.8
			C978.5,301.6,979.2,301.4,979.7,300.8z"/>
	</g>
</g>
<g>
	<g>
		<line class="st6" x1="566.6" y1="128.3" x2="723.7" y2="128.3"/>
		<g>
			<polygon class="st5" points="721.5,135.8 734.4,128.3 721.5,120.8 			"/>
		</g>
	</g>
</g>
<g>
	<g>
		<line class="st6" x1="384.3" y1="236.2" x2="384.3" y2="178.3"/>
		<g>
			<polygon class="st5" points="391.8,234 384.3,246.9 376.9,234 			"/>
		</g>
	</g>
</g>
<g>
	<g class="st0">
		<path class="st5" d="M856.2,134.9c-0.1-0.1-0.2-0.2-0.2-0.4l0-0.2l5.8-15.5c0.1-0.4,0.4-0.6,0.8-0.6h2.6c0.4,0,0.7,0.2,0.8,0.6
			l5.8,15.5c0,0,0,0.1,0,0.2c0,0.1,0,0.3-0.1,0.4c-0.1,0.1-0.2,0.1-0.3,0.1h-2.1c-0.2,0-0.4,0-0.5-0.1c-0.1-0.1-0.2-0.2-0.2-0.3
			l-1.1-2.9h-7.1l-1.1,2.9c-0.1,0.3-0.4,0.5-0.7,0.5h-2.1C856.5,135.1,856.3,135,856.2,134.9z M866.8,128.9l-2.7-7.4l-2.7,7.4H866.8
			z"/>
		<path class="st5" d="M874.4,134.9c-0.1-0.1-0.2-0.2-0.2-0.4v-15.6c0-0.2,0.1-0.3,0.2-0.4c0.1-0.1,0.2-0.2,0.4-0.2h6.4
			c1.9,0,3.4,0.5,4.5,1.4c1.1,0.9,1.7,2.2,1.7,4s-0.5,3.1-1.6,3.9c-1.1,0.9-2.6,1.3-4.5,1.3h-3.6v5.6c0,0.2-0.1,0.3-0.2,0.4
			c-0.1,0.1-0.2,0.2-0.4,0.2h-2.3C874.7,135.1,874.5,135,874.4,134.9z M881.1,126.2c0.9,0,1.6-0.2,2.1-0.7c0.5-0.4,0.7-1.1,0.7-2
			c0-0.8-0.2-1.5-0.7-2c-0.5-0.5-1.2-0.7-2.2-0.7h-3.5v5.3H881.1z"/>
		<path class="st5" d="M890.2,134.9c-0.1-0.1-0.2-0.2-0.2-0.4v-15.6c0-0.2,0.1-0.3,0.2-0.4c0.1-0.1,0.2-0.2,0.4-0.2h2.3
			c0.2,0,0.3,0.1,0.4,0.2c0.1,0.1,0.2,0.2,0.2,0.4v15.6c0,0.2-0.1,0.3-0.2,0.4c-0.1,0.1-0.2,0.2-0.4,0.2h-2.3
			C890.5,135.1,890.3,135,890.2,134.9z"/>
		<path class="st5" d="M904.9,134.7c-1-0.4-1.8-1-2.3-1.7c-0.5-0.7-0.8-1.5-0.8-2.3c0-0.1,0-0.3,0.1-0.4c0.1-0.1,0.2-0.1,0.4-0.1
			h2.1c0.2,0,0.3,0,0.4,0.1c0.1,0.1,0.2,0.2,0.3,0.3c0.2,0.5,0.5,1,1.1,1.4c0.6,0.4,1.4,0.6,2.4,0.6c1.1,0,2-0.2,2.6-0.6
			s0.9-0.9,0.9-1.6c0-0.4-0.1-0.8-0.4-1.1c-0.3-0.3-0.7-0.5-1.3-0.7s-1.5-0.5-2.6-0.8c-1.9-0.4-3.3-1-4.1-1.8
			c-0.9-0.7-1.3-1.8-1.3-3.2c0-0.9,0.3-1.8,0.8-2.5s1.2-1.3,2.2-1.7c1-0.4,2.1-0.6,3.3-0.6c1.3,0,2.4,0.2,3.4,0.7s1.7,1,2.2,1.7
			c0.5,0.7,0.8,1.4,0.8,2.1c0,0.1,0,0.3-0.1,0.4c-0.1,0.1-0.2,0.1-0.4,0.1h-2.2c-0.3,0-0.6-0.2-0.7-0.5c-0.1-0.5-0.4-0.9-1-1.3
			c-0.5-0.3-1.2-0.5-2-0.5c-0.9,0-1.6,0.2-2.1,0.5c-0.5,0.3-0.8,0.8-0.8,1.5c0,0.4,0.1,0.8,0.4,1.1s0.7,0.5,1.2,0.8
			c0.6,0.2,1.3,0.5,2.4,0.7c1.4,0.3,2.5,0.7,3.4,1.1c0.8,0.4,1.5,0.9,1.9,1.5c0.4,0.6,0.6,1.4,0.6,2.3c0,1-0.3,1.9-0.9,2.7
			c-0.6,0.8-1.4,1.3-2.4,1.7c-1,0.4-2.2,0.6-3.6,0.6C907.1,135.3,905.9,135.1,904.9,134.7z"/>
		<path class="st5" d="M919,133.8c-1-1-1.6-2.5-1.7-4.4l0-0.6l0-0.6c0.1-1.8,0.6-3.3,1.7-4.3s2.5-1.6,4.2-1.6c1.9,0,3.3,0.6,4.4,1.7
			c1,1.2,1.5,2.7,1.5,4.6v0.5c0,0.2-0.1,0.3-0.2,0.4c-0.1,0.1-0.3,0.2-0.4,0.2h-8v0.2c0,0.9,0.3,1.6,0.7,2.2
			c0.5,0.6,1.1,0.9,1.9,0.9c0.9,0,1.7-0.4,2.3-1.1c0.1-0.2,0.3-0.3,0.3-0.3c0.1,0,0.2-0.1,0.4-0.1h2.1c0.1,0,0.3,0,0.4,0.1
			c0.1,0.1,0.2,0.2,0.2,0.3c0,0.4-0.2,0.8-0.7,1.4c-0.5,0.5-1.1,1-2,1.4s-1.8,0.6-3,0.6C921.5,135.3,920,134.8,919,133.8z
			 M925.9,127.8L925.9,127.8c0-1-0.2-1.8-0.7-2.4s-1.1-0.9-2-0.9s-1.5,0.3-1.9,0.9c-0.5,0.6-0.7,1.3-0.7,2.3v0.1H925.9z"/>
		<path class="st5" d="M931.9,134.9c-0.1-0.1-0.2-0.2-0.2-0.4v-11.3c0-0.2,0.1-0.3,0.2-0.4s0.2-0.2,0.4-0.2h1.9
			c0.2,0,0.3,0.1,0.4,0.2c0.1,0.1,0.2,0.3,0.2,0.4v1c0.4-0.5,0.9-0.9,1.5-1.2c0.6-0.3,1.3-0.4,2-0.4h1c0.2,0,0.3,0.1,0.4,0.2
			c0.1,0.1,0.2,0.2,0.2,0.4v1.7c0,0.2-0.1,0.3-0.2,0.4c-0.1,0.1-0.2,0.2-0.4,0.2h-1.9c-0.8,0-1.3,0.2-1.8,0.6
			c-0.4,0.4-0.6,1-0.6,1.8v6.6c0,0.2-0.1,0.3-0.2,0.4c-0.1,0.1-0.3,0.2-0.4,0.2h-2.1C932.1,135.1,932,135,931.9,134.9z"/>
		<path class="st5" d="M945.6,134.9c-0.1-0.1-0.2-0.3-0.3-0.4l-4.5-11.1l0-0.2c0-0.1,0.1-0.3,0.2-0.4c0.1-0.1,0.2-0.2,0.4-0.2h1.9
			c0.3,0,0.5,0.2,0.6,0.5l3.2,8.4l3.2-8.4c0-0.1,0.1-0.2,0.2-0.3c0.1-0.1,0.2-0.1,0.4-0.1h2c0.1,0,0.2,0.1,0.3,0.2
			c0.1,0.1,0.2,0.2,0.2,0.4c0,0.1,0,0.2,0,0.2l-4.5,11.1c-0.1,0.2-0.2,0.3-0.3,0.4c-0.1,0.1-0.3,0.2-0.6,0.2h-1.8
			C945.9,135.1,945.7,135,945.6,134.9z"/>
		<path class="st5" d="M956.2,133.8c-1-1-1.6-2.5-1.7-4.4l0-0.6l0-0.6c0.1-1.8,0.6-3.3,1.7-4.3s2.5-1.6,4.2-1.6
			c1.9,0,3.3,0.6,4.4,1.7c1,1.2,1.5,2.7,1.5,4.6v0.5c0,0.2-0.1,0.3-0.2,0.4c-0.1,0.1-0.3,0.2-0.4,0.2h-8v0.2c0,0.9,0.3,1.6,0.7,2.2
			c0.5,0.6,1.1,0.9,1.9,0.9c0.9,0,1.7-0.4,2.3-1.1c0.1-0.2,0.3-0.3,0.3-0.3c0.1,0,0.2-0.1,0.4-0.1h2.1c0.1,0,0.3,0,0.4,0.1
			c0.1,0.1,0.2,0.2,0.2,0.3c0,0.4-0.2,0.8-0.7,1.4c-0.5,0.5-1.1,1-2,1.4s-1.8,0.6-3,0.6C958.6,135.3,957.2,134.8,956.2,133.8z
			 M963.1,127.8L963.1,127.8c0-1-0.2-1.8-0.7-2.4s-1.1-0.9-2-0.9s-1.5,0.3-1.9,0.9c-0.5,0.6-0.7,1.3-0.7,2.3v0.1H963.1z"/>
		<path class="st5" d="M969,134.9c-0.1-0.1-0.2-0.2-0.2-0.4v-11.3c0-0.2,0.1-0.3,0.2-0.4s0.2-0.2,0.4-0.2h1.9c0.2,0,0.3,0.1,0.4,0.2
			c0.1,0.1,0.2,0.3,0.2,0.4v1c0.4-0.5,0.9-0.9,1.5-1.2c0.6-0.3,1.3-0.4,2-0.4h1c0.2,0,0.3,0.1,0.4,0.2c0.1,0.1,0.2,0.2,0.2,0.4v1.7
			c0,0.2-0.1,0.3-0.2,0.4c-0.1,0.1-0.2,0.2-0.4,0.2h-1.9c-0.8,0-1.3,0.2-1.8,0.6c-0.4,0.4-0.6,1-0.6,1.8v6.6c0,0.2-0.1,0.3-0.2,0.4
			c-0.1,0.1-0.3,0.2-0.4,0.2h-2.1C969.3,135.1,969.2,135,969,134.9z"/>
	</g>
</g>
<circle class="st5" cx="650.5" cy="128.3" r="17.5"/>
<path class="st7" d="M650.6,119.8c-5.7,0-10.5,3.5-12.5,8.5c2,5,6.8,8.5,12.5,8.5s10.5-3.5,12.5-8.5
	C661.1,123.3,656.3,119.8,650.6,119.8z M650.6,133.9c-3.1,0-5.7-2.5-5.7-5.7c0-3.1,2.5-5.7,5.7-5.7c3.1,0,5.7,2.5,5.7,5.7
	C656.3,131.4,653.7,133.9,650.6,133.9z M650.6,124.9c-1.9,0-3.4,1.5-3.4,3.4s1.5,3.4,3.4,3.4c1.9,0,3.4-1.5,3.4-3.4
	C654,126.4,652.5,124.9,650.6,124.9z"/>
</svg>
