<svg width="76" height="74" viewBox="0 0 76 74" fill="none" xmlns="http://www.w3.org/2000/svg">
<path d="M42.4 50.3C47.7 48.3 50.5 44.5 50.5 38C50.5 31.5 45 25.7 38.1 25.7C30.9 25.7 25.4 31.4 25.5 38C25.6 44.6 28.7 48.9 33.7 50.5L24.9 72.3C13 69.2 1 55.2 1 38C1 17.6 17.4 1 37.9 1C58.4 1 75 17.5 75 38C75 55.5 63.1 69.3 51 72.4L42.4 50.3Z" stroke="#001443" stroke-width="1.5" stroke-linecap="round" stroke-linejoin="round"/>
<mask id="path-2-inside-1" fill="white">
<path d="M72 70C72.1 70 72.2 70.1 72.3 70.2C72.4 70.3 72.5 70.4 72.6 70.6L73 71.5H72.5L72.1 70.7C72 70.5 71.9 70.4 71.8 70.3C71.7 70.2 71.6 70.2 71.4 70.2H70.9V71.5H70.5V68.3H71.5C71.9 68.3 72.1 68.4 72.3 68.5C72.5 68.7 72.6 68.9 72.6 69.2C72.6 69.4 72.6 69.6 72.5 69.7C72.3 69.9 72.2 69.9 72 70ZM70.9 68.7V69.8H71.4C71.6 69.8 71.8 69.8 71.9 69.7C72 69.6 72.1 69.5 72.1 69.3C72.1 69.1 72 69 71.9 68.9C71.8 68.8 71.6 68.8 71.4 68.8L70.9 68.7Z"/>
</mask>
<path d="M72 70C72.1 70 72.2 70.1 72.3 70.2C72.4 70.3 72.5 70.4 72.6 70.6L73 71.5H72.5L72.1 70.7C72 70.5 71.9 70.4 71.8 70.3C71.7 70.2 71.6 70.2 71.4 70.2H70.9V71.5H70.5V68.3H71.5C71.9 68.3 72.1 68.4 72.3 68.5C72.5 68.7 72.6 68.9 72.6 69.2C72.6 69.4 72.6 69.6 72.5 69.7C72.3 69.9 72.2 69.9 72 70ZM70.9 68.7V69.8H71.4C71.6 69.8 71.8 69.8 71.9 69.7C72 69.6 72.1 69.5 72.1 69.3C72.1 69.1 72 69 71.9 68.9C71.8 68.8 71.6 68.8 71.4 68.8L70.9 68.7Z" fill="#001443"/>
<path d="M72 70L71.5528 69.1056L72 71V70ZM72.6 70.6L73.5138 70.1939L73.5046 70.1731L73.4944 70.1528L72.6 70.6ZM73 71.5V72.5H74.5388L73.9138 71.0939L73 71.5ZM72.5 71.5L71.6056 71.9473L71.882 72.5H72.5V71.5ZM70.9 70.2V69.2H69.9V70.2H70.9ZM70.9 71.5V72.5H71.9V71.5H70.9ZM70.5 71.5H69.5V72.5H70.5V71.5ZM70.5 68.3V67.3H69.5V68.3H70.5ZM72.3 68.5L73.0071 67.7929L72.8924 67.6782L72.7472 67.6056L72.3 68.5ZM70.9 68.7L71.0961 67.7195L69.9 67.4802V68.7H70.9ZM70.9 69.8H69.9V70.8H70.9V69.8ZM71.4 68.8L71.2039 69.7806L71.301 69.8H71.4V68.8ZM72 71C71.8562 71 71.7439 70.9639 71.6742 70.9334C71.6068 70.9039 71.5642 70.8732 71.55 70.8626C71.5347 70.8511 71.5303 70.846 71.5411 70.8562C71.5523 70.8666 71.5657 70.88 71.5929 70.9071L73.0071 69.4929C72.9702 69.456 72.868 69.351 72.75 69.2625C72.6425 69.1819 72.3763 69 72 69V71ZM71.5929 70.9071C71.6458 70.96 71.6583 70.9737 71.6691 70.9872C71.6752 70.9949 71.6871 71.0104 71.7056 71.0473L73.4944 70.1528C73.3207 69.8054 73.1278 69.6136 73.0071 69.4929L71.5929 70.9071ZM71.6862 71.0062L72.0862 71.9062L73.9138 71.0939L73.5138 70.1939L71.6862 71.0062ZM73 70.5H72.5V72.5H73V70.5ZM73.3944 71.0528L72.9944 70.2528L71.2056 71.1473L71.6056 71.9473L73.3944 71.0528ZM72.9944 70.2528C72.8207 69.9054 72.6277 69.7136 72.5071 69.5929L71.0929 71.0072C71.1458 71.06 71.1583 71.0738 71.1691 71.0872C71.1752 71.0949 71.1871 71.1104 71.2056 71.1473L72.9944 70.2528ZM72.5071 69.5929C72.0684 69.1542 71.519 69.2 71.4 69.2V71.2C71.4557 71.2 71.4778 71.2002 71.4928 71.2008C71.5061 71.2013 71.4824 71.2013 71.4414 71.1931C71.3946 71.1838 71.3283 71.1646 71.2555 71.126C71.1827 71.0875 71.1287 71.043 71.0929 71.0072L72.5071 69.5929ZM71.4 69.2H70.9V71.2H71.4V69.2ZM69.9 70.2V71.5H71.9V70.2H69.9ZM70.9 70.5H70.5V72.5H70.9V70.5ZM71.5 71.5V68.3H69.5V71.5H71.5ZM70.5 69.3H71.5V67.3H70.5V69.3ZM71.5 69.3C71.6118 69.3 71.6642 69.3134 71.6877 69.3204C71.7197 69.33 71.7488 69.3425 71.8528 69.3945L72.7472 67.6056C72.4906 67.4773 72.1266 67.3 71.5 67.3V69.3ZM71.5929 69.2072C71.6138 69.228 71.6216 69.2385 71.6225 69.2398C71.6228 69.2402 71.6215 69.2385 71.6193 69.2346C71.617 69.2306 71.6141 69.2253 71.6112 69.2187C71.6083 69.2121 71.6057 69.2053 71.6037 69.1988C71.6016 69.1923 71.6004 69.1871 71.5998 69.1837C71.5984 69.1768 71.6 69.1808 71.6 69.2H73.6C73.6 68.9334 73.5544 68.6664 73.4388 68.4064C73.3252 68.1507 73.1661 67.952 73.0071 67.7929L71.5929 69.2072ZM71.6 69.2C71.6 69.2531 71.5999 69.2867 71.599 69.3162C71.598 69.3452 71.5967 69.3523 71.5975 69.3461C71.5982 69.3414 71.6039 69.3015 71.6266 69.2435C71.6502 69.1831 71.6985 69.0873 71.7929 68.9929L73.2071 70.4071C73.4878 70.1264 73.5548 69.7875 73.5774 69.629C73.602 69.4574 73.6 69.2816 73.6 69.2H71.6ZM71.7929 68.9929C71.7725 69.0133 71.7676 69.0157 71.7756 69.0098C71.7858 69.0024 71.7971 68.996 71.8028 68.9931C71.8037 68.9926 71.8012 68.994 71.7916 68.9982C71.7801 69.0032 71.7687 69.008 71.7447 69.0181C71.701 69.0367 71.6328 69.0656 71.5528 69.1056L72.4472 70.8945C72.4672 70.8845 72.4865 70.8759 72.524 70.8601C72.5548 70.847 72.6252 70.818 72.6972 70.782C72.8761 70.6925 73.0375 70.5768 73.2071 70.4071L71.7929 68.9929ZM69.9 68.7V69.8H71.9V68.7H69.9ZM70.9 70.8H71.4V68.8H70.9V70.8ZM71.4 70.8C71.4815 70.8 71.6573 70.802 71.8289 70.7775C71.9875 70.7548 72.3264 70.6879 72.6071 70.4071L71.1929 68.9929C71.2872 68.8986 71.3831 68.8502 71.4434 68.8266C71.5014 68.8039 71.5413 68.7983 71.5461 68.7976C71.5522 68.7967 71.5452 68.7981 71.5162 68.799C71.4867 68.8 71.4531 68.8 71.4 68.8V70.8ZM72.6071 70.4071C72.7176 70.2966 73.1 69.9397 73.1 69.3H71.1C71.1 69.2651 71.1046 69.2177 71.1198 69.1632C71.1352 69.1084 71.1573 69.0609 71.18 69.023C71.2015 68.9872 71.2201 68.9658 71.2236 68.9619C71.2243 68.9611 71.2216 68.9643 71.1929 68.9929L72.6071 70.4071ZM73.1 69.3C73.1 68.6604 72.7176 68.3035 72.6071 68.1929L71.1929 69.6072C71.2215 69.6358 71.2242 69.639 71.2236 69.6382C71.2201 69.6342 71.2015 69.6128 71.18 69.577C71.1573 69.5392 71.1352 69.4917 71.1198 69.4369C71.1046 69.3824 71.1 69.335 71.1 69.3H73.1ZM72.6071 68.1929C72.3264 67.9122 71.9875 67.8453 71.8289 67.8226C71.6573 67.7981 71.4815 67.8 71.4 67.8V69.8C71.4531 69.8 71.4867 69.8001 71.5162 69.8011C71.5452 69.802 71.5522 69.8034 71.5461 69.8025C71.5413 69.8018 71.5014 69.7962 71.4434 69.7735C71.3831 69.7499 71.2872 69.7015 71.1929 69.6072L72.6071 68.1929ZM71.5961 67.8195L71.0961 67.7195L70.7039 69.6806L71.2039 69.7806L71.5961 67.8195Z" fill="#001443" mask="url(#path-2-inside-1)"/>
<path d="M74.8 69.9999C74.8 71.6999 73.4 72.9999 71.8 72.9999C70.1 72.9999 68.8 71.5999 68.8 69.9999C68.8 68.2999 70.2 66.9999 71.8 66.9999C73.4 66.8999 74.8 68.2999 74.8 69.9999Z" stroke="#001443" stroke-width="0.45" stroke-linecap="round" stroke-linejoin="round"/>
</svg>
