<svg width="74" height="74" viewBox="0 0 74 74" fill="none" xmlns="http://www.w3.org/2000/svg">
<path d="M72.4583 72.4587H1.54163V1.54199" stroke="#6E6E6E" stroke-width="1.5" stroke-miterlimit="10" stroke-linecap="round" stroke-linejoin="round"/>
<path d="M23.125 55.5C25.6793 55.5 27.75 53.4293 27.75 50.875C27.75 48.3207 25.6793 46.25 23.125 46.25C20.5707 46.25 18.5 48.3207 18.5 50.875C18.5 53.4293 20.5707 55.5 23.125 55.5Z" stroke="#6E6E6E" stroke-width="1.5" stroke-miterlimit="10" stroke-linecap="round" stroke-linejoin="round"/>
<path d="M52.1577 25.6348L64.7254 9.58301" stroke="#6E6E6E" stroke-width="1.5" stroke-miterlimit="10" stroke-linecap="round" stroke-linejoin="round"/>
<path d="M30.6267 23.0078L44.8655 28.0891" stroke="#6E6E6E" stroke-width="1.5" stroke-miterlimit="10" stroke-linecap="round" stroke-linejoin="round"/>
<path d="M1.54163 36.3253L22.2585 23.9766" stroke="#6E6E6E" stroke-width="1.5" stroke-miterlimit="10" stroke-linecap="round" stroke-linejoin="round"/>
<path d="M50.2551 48.569L63.8372 40.873" stroke="#6E6E6E" stroke-width="1.5" stroke-miterlimit="10" stroke-linecap="round" stroke-linejoin="round"/>
<path d="M27.75 50.875H41.625" stroke="#6E6E6E" stroke-width="1.5" stroke-miterlimit="10" stroke-linecap="round" stroke-linejoin="round"/>
<path d="M1.54163 64.7505L19.1536 53.2373" stroke="#6E6E6E" stroke-width="1.5" stroke-miterlimit="10" stroke-linecap="round" stroke-linejoin="round"/>
<path d="M26.2084 26.209C28.7627 26.209 30.8334 24.1383 30.8334 21.584C30.8334 19.0297 28.7627 16.959 26.2084 16.959C23.6541 16.959 21.5834 19.0297 21.5834 21.584C21.5834 24.1383 23.6541 26.209 26.2084 26.209Z" stroke="#6E6E6E" stroke-width="1.5" stroke-miterlimit="10" stroke-linecap="round" stroke-linejoin="round"/>
<path d="M49.3334 33.917C51.8877 33.917 53.9584 31.8463 53.9584 29.292C53.9584 26.7377 51.8877 24.667 49.3334 24.667C46.7791 24.667 44.7084 26.7377 44.7084 29.292C44.7084 31.8463 46.7791 33.917 49.3334 33.917Z" stroke="#6E6E6E" stroke-width="1.5" stroke-miterlimit="10" stroke-linecap="round" stroke-linejoin="round"/>
<path d="M67.8334 10.792C70.3877 10.792 72.4584 8.72131 72.4584 6.16699C72.4584 3.61268 70.3877 1.54199 67.8334 1.54199C65.2791 1.54199 63.2084 3.61268 63.2084 6.16699C63.2084 8.72131 65.2791 10.792 67.8334 10.792Z" stroke="#6E6E6E" stroke-width="1.5" stroke-miterlimit="10" stroke-linecap="round" stroke-linejoin="round"/>
<path d="M67.8334 43.167C70.3877 43.167 72.4584 41.0963 72.4584 38.542C72.4584 35.9877 70.3877 33.917 67.8334 33.917C65.2791 33.917 63.2084 35.9877 63.2084 38.542C63.2084 41.0963 65.2791 43.167 67.8334 43.167Z" stroke="#6E6E6E" stroke-width="1.5" stroke-miterlimit="10" stroke-linecap="round" stroke-linejoin="round"/>
<path d="M46.25 55.5C48.8043 55.5 50.875 53.4293 50.875 50.875C50.875 48.3207 48.8043 46.25 46.25 46.25C43.6957 46.25 41.625 48.3207 41.625 50.875C41.625 53.4293 43.6957 55.5 46.25 55.5Z" stroke="#6E6E6E" stroke-width="1.5" stroke-miterlimit="10" stroke-linecap="round" stroke-linejoin="round"/>
</svg>
