<svg width="74" height="74" viewBox="0 0 74 74" fill="none" xmlns="http://www.w3.org/2000/svg">
<path d="M72.5 72.5H1.5V1.5" stroke="#001443" stroke-width="1.5" stroke-miterlimit="10" stroke-linecap="round" stroke-linejoin="round"/>
<path d="M23.1 55.5C25.7 55.5 27.7 53.4001 27.7 50.9001C27.7 48.4001 25.6 46.3 23.1 46.3C20.6 46.3 18.5 48.4001 18.5 50.9001C18.5 53.4001 20.6 55.5 23.1 55.5Z" stroke="#001443" stroke-width="1.5" stroke-miterlimit="10" stroke-linecap="round" stroke-linejoin="round"/>
<path d="M52.2 25.6L64.6999 9.59998" stroke="#001443" stroke-width="1.5" stroke-miterlimit="10" stroke-linecap="round" stroke-linejoin="round"/>
<path d="M30.6 23L44.8 28.1" stroke="#001443" stroke-width="1.5" stroke-miterlimit="10" stroke-linecap="round" stroke-linejoin="round"/>
<path d="M1.5 36.3L22.3 24" stroke="#001443" stroke-width="1.5" stroke-miterlimit="10" stroke-linecap="round" stroke-linejoin="round"/>
<path d="M50.3 48.6L63.9001 40.9" stroke="#001443" stroke-width="1.5" stroke-miterlimit="10" stroke-linecap="round" stroke-linejoin="round"/>
<path d="M27.8 50.9H41.7001" stroke="#001443" stroke-width="1.5" stroke-miterlimit="10" stroke-linecap="round" stroke-linejoin="round"/>
<path d="M1.5 64.8001L19.1 53.3" stroke="#001443" stroke-width="1.5" stroke-miterlimit="10" stroke-linecap="round" stroke-linejoin="round"/>
<path d="M26.2 26.2C28.8 26.2 30.8 24.1 30.8 21.6C30.8 19.1 28.8 17 26.2 17C23.6 17 21.6 19.1 21.6 21.6C21.6 24.1 23.7 26.2 26.2 26.2Z" stroke="#001443" stroke-width="1.5" stroke-miterlimit="10" stroke-linecap="round" stroke-linejoin="round"/>
<path d="M49.2999 33.9C51.8999 33.9 53.9 31.7999 53.9 29.2999C53.9 26.7999 51.7999 24.7 49.2999 24.7C46.6999 24.7 44.7 26.7999 44.7 29.2999C44.7 31.7999 46.7999 33.9 49.2999 33.9Z" stroke="#001443" stroke-width="1.5" stroke-miterlimit="10" stroke-linecap="round" stroke-linejoin="round"/>
<path d="M67.8 10.8C70.4 10.8 72.4 8.69998 72.4 6.19998C72.4 3.59998 70.3 1.59998 67.8 1.59998C65.2 1.59998 63.2 3.69998 63.2 6.19998C63.2 8.69998 65.3 10.8 67.8 10.8Z" stroke="#001443" stroke-width="1.5" stroke-miterlimit="10" stroke-linecap="round" stroke-linejoin="round"/>
<path d="M67.8 43.2C70.4 43.2 72.4 41.1 72.4 38.6C72.4 36.1 70.3 34 67.8 34C65.2 34 63.2 36.1 63.2 38.6C63.2 41.1 65.3 43.2 67.8 43.2Z" stroke="#001443" stroke-width="1.5" stroke-miterlimit="10" stroke-linecap="round" stroke-linejoin="round"/>
<path d="M46.2 55.5C48.8 55.5 50.8 53.4001 50.8 50.9001C50.8 48.4001 48.7 46.3 46.2 46.3C43.7 46.3 41.6 48.4001 41.6 50.9001C41.6 53.4001 43.7 55.5 46.2 55.5Z" stroke="#001443" stroke-width="1.5" stroke-miterlimit="10" stroke-linecap="round" stroke-linejoin="round"/>
</svg>
