<svg width="74" height="74" viewBox="0 0 74 74" fill="none" xmlns="http://www.w3.org/2000/svg">
<path d="M35.5 47.8L1.5 32.4V57L35.4 72.4L35.5 47.8Z" stroke="#001443" stroke-width="1.5" stroke-miterlimit="10" stroke-linecap="round" stroke-linejoin="round"/>
<path d="M72.5 32.4L35.5 47.8V72.5L72.5 57.1V32.4Z" stroke="#001443" stroke-width="1.5" stroke-miterlimit="10" stroke-linecap="round" stroke-linejoin="round"/>
<path d="M37 38.5C42.1 38.5 46.2001 36.4001 46.2001 33.9001C46.2001 31.4001 42.1 29.3 37 29.3C31.9 29.3 27.8 31.4001 27.8 33.9001C27.8 36.4001 31.9 38.5 37 38.5Z" stroke="#001443" stroke-width="1.5" stroke-miterlimit="10" stroke-linecap="round" stroke-linejoin="round"/>
<path d="M37 21.6C42.1 21.6 46.2001 19.5 46.2001 17C46.2001 14.5 42.1 12.4 37 12.4C31.9 12.4 27.8 14.5 27.8 17C27.8 19.5 31.9 21.6 37 21.6Z" stroke="#001443" stroke-width="1.5" stroke-miterlimit="10" stroke-linecap="round" stroke-linejoin="round"/>
<path d="M58.5999 30.8C63.6999 30.8 67.7999 28.7 67.7999 26.2C67.7999 23.7 63.6999 21.6 58.5999 21.6C53.4999 21.6 49.3999 23.7 49.3999 26.2C49.3999 28.7 53.4999 30.8 58.5999 30.8Z" stroke="#001443" stroke-width="1.5" stroke-miterlimit="10" stroke-linecap="round" stroke-linejoin="round"/>
<path d="M17 30.8C22.1 30.8 26.2 28.7 26.2 26.2C26.2 23.7 22.1 21.6 17 21.6C11.9 21.6 7.69995 23.7 7.69995 26.2C7.69995 28.7 11.8 30.8 17 30.8Z" stroke="#001443" stroke-width="1.5" stroke-miterlimit="10" stroke-linecap="round" stroke-linejoin="round"/>
<path d="M9.5001 28.9L1.6001 32.4" stroke="#001443" stroke-width="1.5" stroke-miterlimit="10" stroke-linecap="round" stroke-linejoin="round"/>
<path d="M29.9999 20L23.3999 22.9" stroke="#001443" stroke-width="1.5" stroke-miterlimit="10" stroke-linecap="round" stroke-linejoin="round"/>
<path d="M51.5 23.3L44 20" stroke="#001443" stroke-width="1.5" stroke-miterlimit="10" stroke-linecap="round" stroke-linejoin="round"/>
<path d="M72.4999 32.4001L65.3999 29.3" stroke="#001443" stroke-width="1.5" stroke-miterlimit="10" stroke-linecap="round" stroke-linejoin="round"/>
</svg>
