<svg width="74" height="74" viewBox="0 0 74 74" fill="none" xmlns="http://www.w3.org/2000/svg">
<path d="M37 72.5C56.6 72.5 72.5 56.6 72.5 37C72.5 17.4 56.6 1.5 37 1.5C17.4 1.5 1.5 17.4 1.5 37C1.5 56.6 17.4 72.5 37 72.5Z" stroke="#001443" stroke-width="1.5" stroke-miterlimit="10" stroke-linecap="round" stroke-linejoin="round"/>
<path d="M22.9 50.1999C19.3 46.5999 23.1 35.4999 32.1 26.3999C36.7 21.7999 41.8 18.3999 44.9 16.8999V28.2999" fill="white"/>
<path d="M22.9 50.1999C19.3 46.5999 23.1 35.4999 32.1 26.3999C36.7 21.7999 41.8 18.3999 44.9 16.8999V28.2999" stroke="#001443" stroke-width="1.5" stroke-miterlimit="10" stroke-linecap="round" stroke-linejoin="round"/>
<path d="M34.7 38.5H49.5H34.7Z" fill="white"/>
<path d="M34.7 38.5H49.5" stroke="#001443" stroke-width="1.5" stroke-miterlimit="10" stroke-linecap="round" stroke-linejoin="round"/>
<path d="M28.5 44.7H44.9C36.3 52.6 26 53.4 22.9 50.2999" fill="white"/>
<path d="M28.5 44.7H44.9C36.3 52.6 26 53.3999 22.9 50.2999" stroke="#001443" stroke-width="1.5" stroke-miterlimit="10" stroke-linecap="round" stroke-linejoin="round"/>
<path d="M55.4001 17.8C58.2001 20.6 57.6 26.2001 54 32.4001H40.8" fill="white"/>
<path d="M55.4001 17.8C58.2001 20.6 57.6 26.2001 54 32.4001H40.8" stroke="#001443" stroke-width="1.5" stroke-miterlimit="10" stroke-linecap="round" stroke-linejoin="round"/>
<path d="M55.3 17.8999L18 55.1999L55.3 17.8999Z" fill="white"/>
<path d="M55.3 17.8999L18 55.1999" stroke="#001443" stroke-width="1.5" stroke-miterlimit="10" stroke-linecap="round" stroke-linejoin="round"/>
</svg>
