<svg width="74" height="74" viewBox="0 0 74 74" fill="none" xmlns="http://www.w3.org/2000/svg">
<path d="M63.2 38.5C66.6 38.5 69.4 35.7 69.4 32.3C69.4 28.9 66.6 26.1 63.2 26.1C59.8 26.1 57 28.9 57 32.3C57 35.8 59.8 38.5 63.2 38.5Z" stroke="#001443" stroke-width="1.5" stroke-miterlimit="10" stroke-linecap="round" stroke-linejoin="round"/>
<path d="M13.9 6.19998C10.5 6.19998 7.69995 8.99998 7.69995 12.4V27.8C7.69995 36.3 14.6 43.2 23.1 43.2C31.6 43.2 38.5 36.3 38.5 27.8V12.3C38.5 8.89998 35.6999 6.09998 32.2999 6.09998" stroke="#001443" stroke-width="1.5" stroke-miterlimit="10" stroke-linecap="round" stroke-linejoin="round"/>
<path d="M23.1001 43.2V66.3C23.1001 69.7 25.9001 72.5 29.3001 72.5C32.7001 72.5 35.5001 69.7 35.5001 66.3V50.9C35.5001 46.6 39.0001 43.2 43.2001 43.2C47.5001 43.2 50.9001 46.7 50.9001 50.9V60.1C50.9001 63.5 53.7001 66.3 57.1001 66.3C60.5001 66.3 63.3001 63.5 63.3001 60.1V38.5" stroke="#001443" stroke-width="1.5" stroke-miterlimit="10" stroke-linecap="round" stroke-linejoin="round"/>
<path d="M18.4999 6.2C18.4999 10.8 13.8999 10.8 13.8999 10.8V1.5C13.8999 1.5 18.4999 1.5 18.4999 6.2Z" stroke="#001443" stroke-width="1.5" stroke-miterlimit="10" stroke-linecap="round" stroke-linejoin="round"/>
<path d="M27.8 6.19998C27.8 1.59998 32.4001 1.59998 32.4001 1.59998V10.9C32.4001 10.8 27.8 10.8 27.8 6.19998Z" stroke="#001443" stroke-width="1.5" stroke-miterlimit="10" stroke-linecap="round" stroke-linejoin="round"/>
</svg>
