<svg width="74" height="74" viewBox="0 0 74 74" fill="none" xmlns="http://www.w3.org/2000/svg">
<path d="M63.2083 38.5423C66.614 38.5423 69.375 35.7814 69.375 32.3757C69.375 28.9699 66.614 26.209 63.2083 26.209C59.8025 26.209 57.0416 28.9699 57.0416 32.3757C57.0416 35.7814 59.8025 38.5423 63.2083 38.5423Z" stroke="#6E6E6E" stroke-width="1.5" stroke-miterlimit="10" stroke-linecap="round" stroke-linejoin="round"/>
<path d="M13.875 6.16699C10.471 6.16699 7.70837 8.92966 7.70837 12.3337V27.7503C7.70837 36.2665 14.6089 43.167 23.125 43.167C31.6412 43.167 38.5417 36.2665 38.5417 27.7503V12.3337C38.5417 8.92966 35.779 6.16699 32.375 6.16699" stroke="#6E6E6E" stroke-width="1.5" stroke-miterlimit="10" stroke-linecap="round" stroke-linejoin="round"/>
<path d="M23.125 43.167V66.292C23.125 69.696 25.8877 72.4587 29.2917 72.4587C32.6987 72.4587 35.4583 69.696 35.4583 66.292V50.8753C35.4583 46.6172 38.9086 43.167 43.1667 43.167C47.4217 43.167 50.875 46.6172 50.875 50.8784V60.1253C50.875 63.5293 53.6377 66.292 57.0417 66.292C60.4487 66.292 63.2083 63.5293 63.2083 60.1253V38.542" stroke="#6E6E6E" stroke-width="1.5" stroke-miterlimit="10" stroke-linecap="round" stroke-linejoin="round"/>
<path d="M18.5 6.16699C18.5 10.792 13.875 10.792 13.875 10.792V1.54199C13.875 1.54199 18.5 1.54199 18.5 6.16699Z" stroke="#6E6E6E" stroke-width="1.5" stroke-miterlimit="10" stroke-linecap="round" stroke-linejoin="round"/>
<path d="M27.75 6.16699C27.75 1.54199 32.375 1.54199 32.375 1.54199V10.792C32.375 10.792 27.75 10.792 27.75 6.16699Z" stroke="#6E6E6E" stroke-width="1.5" stroke-miterlimit="10" stroke-linecap="round" stroke-linejoin="round"/>
</svg>
