<svg width="400" height="148" viewBox="0 0 400 148" fill="none" xmlns="http://www.w3.org/2000/svg">
<path d="M322.322 65.8071V65.6689C322.322 54.0573 314.096 46.0395 300.549 46.0395H283.616C280.159 46.0395 277.396 48.8042 277.396 52.2601V102.785H283.755C287.071 102.785 289.906 100.366 289.906 97.2556V57.3748H301.241C306.494 57.8587 309.743 60.8307 309.743 65.8762V66.0144C309.743 70.5071 306.633 74.0322 301.241 74.585H301.102C298.959 74.585 297.024 75.4836 295.643 76.935C294.398 78.2483 293.639 80.1144 293.639 82.0497V85.713H299.306L302.139 85.5746C313.475 84.6762 322.322 77.9717 322.322 65.8071ZM117.32 97.2556C117.32 100.297 114.555 102.785 111.168 102.785H104.948V52.1909C104.948 48.8042 107.574 46.1087 110.892 46.0395H117.32V97.2556ZM152.016 55.9234L134.115 74.3777L152.016 92.832C154.435 95.2511 154.435 98.9834 152.155 101.472L151.947 101.61C149.529 103.891 145.726 103.822 143.378 101.472L117.734 74.4469L143.378 47.3528C145.796 45.0028 149.529 44.9338 151.947 47.2146L152.155 47.3528C154.435 49.772 154.367 53.5734 152.016 55.9234ZM195.698 83.1556V46.0395H189.271C185.884 46.1087 183.188 48.8734 183.188 52.2601V82.6026C183.188 89.1689 180.286 92.0026 175.378 92.0026C172.545 92.0026 170.333 91.035 167.845 89.1689C166.6 88.2703 165.633 87.8556 164.112 87.8556C160.794 87.8556 158.167 90.5511 158.167 93.8689C158.167 95.804 159.204 97.6703 160.518 98.6379C164.112 101.403 169.02 103.614 175.516 103.614C181.667 103.614 186.782 101.817 190.308 98.3613C193.763 94.9056 195.698 89.8599 195.698 83.1556Z" fill="#11175E"/>
<path d="M96.1692 91.3788H67.3471V45.9686H60.9194C57.5326 46.0378 54.8369 48.8025 54.8369 52.1892V102.714H90.4324C93.5426 102.714 96.1 100.295 96.1 97.1848L96.1692 91.3788Z" fill="#11175E"/>
<path d="M13.021 91.3788H44.3312V97.1848C44.3312 100.295 41.843 102.714 38.7326 102.714H0.579956V52.1892C0.579956 48.7333 3.34465 45.9686 6.80057 45.9686H44.262V51.5672C44.262 54.6774 41.7738 57.0966 38.6636 57.0966H13.021V68.6392H34.6549C37.7651 68.6392 40.2532 71.1274 40.2532 74.2376C40.2532 77.348 37.7651 79.767 34.6549 79.767H13.021V91.3788Z" fill="#11175E"/>
<path d="M220.512 81.1521C219.612 78.9403 219.198 76.5903 219.198 74.1711C219.198 71.7521 219.682 69.4711 220.512 67.2595C221.41 64.9787 222.792 62.905 224.59 61.177C226.316 59.4493 228.392 58.0668 230.671 57.0993C232.884 56.2007 235.233 55.786 237.584 55.786C240.002 55.786 242.353 56.2697 244.496 57.0993C245.186 57.3756 245.878 57.514 246.569 57.514C248.159 57.514 249.541 56.8919 250.578 55.786L255.486 50.9476C253.273 49.1507 251.2 47.9066 249.196 46.9389C248.988 46.8699 248.849 46.7315 248.643 46.6625C245.116 45.2109 241.316 44.5199 237.514 44.5199C233.643 44.5199 229.912 45.2801 226.386 46.6625C222.722 48.183 219.406 50.3256 216.571 53.1595C213.739 55.9934 211.527 59.3109 210.075 62.9742C208.622 66.4991 207.933 70.3007 207.933 74.1021C207.933 77.9726 208.692 81.705 210.075 85.2299C210.212 85.5064 210.49 86.0593 210.629 86.474C211.665 88.2711 212.702 89.8609 214.292 92.0034C214.292 92.0034 217.539 88.824 218.714 87.5799C219.475 87.027 220.029 86.2666 220.443 85.3683C221.065 84.055 221.065 82.5344 220.512 81.1521ZM264.953 62.9742C264.194 61.3154 263.296 59.6566 262.19 58.136C262.12 57.9976 260.737 56.2007 260.806 56.1315L255.969 61.0389C254.863 62.0756 254.241 63.527 254.241 65.0477C254.241 65.7389 254.38 66.4991 254.655 67.1211C255.553 69.333 255.969 71.6829 255.969 74.0329C255.969 76.4521 255.486 78.8021 254.655 80.9446C253.757 83.2256 252.375 85.2991 250.578 87.027C248.849 88.755 246.775 90.1372 244.496 91.105C242.284 92.0034 239.933 92.4183 237.584 92.4183C235.165 92.4183 232.814 91.9344 230.602 91.105C229.22 90.5519 227.7 90.5519 226.316 91.105C225.418 91.4505 224.659 92.0725 224.106 92.7638C223 93.8005 219.543 97.3254 219.543 97.3254C221.894 99.1917 224.037 100.436 226.11 101.334C226.11 101.334 226.316 101.403 226.386 101.473C229.912 102.924 233.712 103.615 237.514 103.615C241.386 103.615 245.116 102.855 248.643 101.473C252.306 99.9519 255.622 97.8093 258.457 94.9756C261.29 92.1417 263.502 88.824 264.953 85.1609C266.406 81.6358 267.096 77.8344 267.096 74.0329C267.235 70.1623 266.475 66.4301 264.953 62.9742Z" fill="#11175E"/>
<path d="M362.478 83.8471L345.82 101.541C335.731 111.632 334.002 124.489 334.002 129.464C333.933 129.948 333.933 130.432 333.933 130.985V131.124C333.933 135.34 334.9 140.799 335.453 142.32L336.698 146.191L371.878 110.458C376.855 105.481 379.273 98.6383 378.651 91.6575C378.098 86.2663 375.749 81.1516 371.878 77.3501L367.524 72.9956L365.657 71.0605C365.726 71.2679 367.455 77.834 362.478 83.8471Z" fill="url(#paint0_linear_273_1644)"/>
<path d="M335.592 6.29584C335.592 6.43421 332.827 16.6636 336.42 29.3811C339.325 39.6105 347.688 49.0795 347.688 49.0795L382.384 83.9146C388.259 89.7897 386.6 97.1852 386.461 97.3926L387.984 95.6646L392.476 91.3103C396.347 87.4397 398.696 82.3942 399.249 77.003C399.318 76.2426 399.388 75.5516 399.388 74.8603V74.653C399.388 68.5016 396.898 62.6265 392.545 58.203L336.42 2.5636L335.592 6.29584Z" fill="url(#paint1_linear_273_1644)"/>
<defs>
<linearGradient id="paint0_linear_273_1644" x1="323.729" y1="135.728" x2="377.639" y2="82.5079" gradientUnits="userSpaceOnUse">
<stop offset="0.2808" stop-color="#95C93D"/>
<stop offset="0.292" stop-color="#91C53E"/>
<stop offset="0.533" stop-color="#519846"/>
<stop offset="0.7397" stop-color="#0A7F48"/>
<stop offset="0.9021" stop-color="#007248"/>
<stop offset="1" stop-color="#006E47"/>
</linearGradient>
<linearGradient id="paint1_linear_273_1644" x1="325.774" y1="15.2867" x2="401.112" y2="88.5511" gradientUnits="userSpaceOnUse">
<stop stop-color="#006E47"/>
<stop offset="0.106" stop-color="#007047"/>
<stop offset="0.2349" stop-color="#007848"/>
<stop offset="0.3755" stop-color="#258548"/>
<stop offset="0.5247" stop-color="#559A46"/>
<stop offset="0.679" stop-color="#85BB3F"/>
<stop offset="0.7192" stop-color="#95C93D"/>
</linearGradient>
</defs>
</svg>
