<svg width="400" height="104" viewBox="0 0 400 104" fill="none" xmlns="http://www.w3.org/2000/svg">
<g clip-path="url(#clip0_273_1670)">
<path d="M95.119 35.2632L70.4397 38.7225L90.3175 23.7497C91.1562 23.1181 91.8496 22.3139 92.3508 21.3913C92.8521 20.4687 93.1494 19.4493 93.2228 18.4019C93.2962 17.3545 93.144 16.3036 92.7764 15.3201C92.4088 14.3366 91.8344 13.4435 91.0919 12.7011C90.3495 11.9587 89.4564 11.3842 88.4729 11.0166C87.4894 10.649 86.4385 10.4967 85.3911 10.5701C84.3438 10.6435 83.3243 10.9408 82.4017 11.442C81.4791 11.9432 80.6749 12.6366 80.0433 13.4753L65.0706 33.3529L68.5296 8.67372C68.6696 7.62687 68.5848 6.5622 68.2809 5.55068C67.9771 4.53917 67.461 3.60406 66.7673 2.8077C66.0735 2.01134 65.218 1.37202 64.2576 0.93237C63.2973 0.49272 62.2543 0.262841 61.1982 0.258058C60.1471 0.257525 59.1082 0.482518 58.1515 0.917848C57.1948 1.35318 56.3427 1.98871 55.6527 2.78153C54.9626 3.57435 54.4507 4.506 54.1515 5.51357C53.8523 6.52115 53.7728 7.58119 53.9183 8.62213L57.3778 33.3013L42.4049 13.4237C41.7733 12.585 40.969 11.8916 40.0464 11.3903C39.1238 10.8891 38.1043 10.5918 37.057 10.5183C36.0096 10.4449 34.9586 10.5972 33.9751 10.9648C32.9916 11.3324 32.0985 11.9069 31.3561 12.6493C30.6136 13.3917 30.0392 14.2849 29.6716 15.2684C29.3039 16.2519 29.1517 17.3028 29.2251 18.3502C29.2985 19.3976 29.5959 20.417 30.0971 21.3396C30.5983 22.2622 31.2918 23.0665 32.1305 23.6981L52.008 38.6708L27.3289 35.2116C26.2881 35.0666 25.2282 35.1466 24.2209 35.446C23.2135 35.7454 22.2821 36.2573 21.4894 36.9472C20.6967 37.6372 20.0612 38.4891 19.6257 39.4455C19.1902 40.4019 18.9648 41.4406 18.9648 42.4915C18.9648 43.5423 19.1902 44.581 19.6257 45.5374C20.0612 46.4938 20.6967 47.3457 21.4894 48.0357C22.2821 48.7256 23.2135 49.2376 24.2209 49.537C25.2282 49.8364 26.2881 49.9163 27.3289 49.7713L52.008 46.3121L2.95949 89.5781C2.1465 90.2954 1.48905 91.1715 1.02768 92.1526C0.566319 93.1337 0.310821 94.1989 0.276947 95.2825C0.243073 96.3662 0.431539 97.4452 0.830725 98.4532C1.22991 99.4612 1.83135 100.377 2.59796 101.143C3.36458 101.91 4.2801 102.511 5.28809 102.911C6.29608 103.31 7.37515 103.498 8.45878 103.464C9.54241 103.431 10.6076 103.175 11.5887 102.714C12.5698 102.252 13.446 101.595 14.1632 100.782L57.4294 51.7332L53.9699 76.4125C53.8249 77.4534 53.9048 78.5132 54.2042 79.5206C54.5036 80.5279 55.0156 81.4593 55.7055 82.252C56.3954 83.0447 57.2473 83.6802 58.2037 84.1157C59.1601 84.5512 60.1988 84.7766 61.2497 84.7766C62.3006 84.7766 63.3393 84.5512 64.2957 84.1157C65.2521 83.6802 66.104 83.0447 66.7939 82.252C67.4839 81.4593 67.9958 80.5279 68.2952 79.5206C68.5946 78.5132 68.6745 77.4534 68.5296 76.4125L65.0706 51.7332L80.0432 71.6111C80.6749 72.4498 81.4792 73.1432 82.4018 73.6444C83.3244 74.1456 84.3439 74.4429 85.3913 74.5163C86.4387 74.5897 87.4896 74.4374 88.4731 74.0697C89.4566 73.7021 90.3498 73.1276 91.0922 72.3852C91.8346 71.6427 92.409 70.7495 92.7766 69.766C93.1442 68.7825 93.2964 67.7315 93.223 66.6842C93.1496 65.6368 92.8522 64.6173 92.3509 63.6947C91.8497 62.7721 91.1563 61.9679 90.3175 61.3363L70.4397 46.3637L95.119 49.823C96.1598 49.9679 97.2197 49.888 98.227 49.5886C99.2344 49.2892 100.166 48.7773 100.958 48.0873C101.751 47.3974 102.387 46.5455 102.822 45.5891C103.258 44.6327 103.483 43.594 103.483 42.5431C103.483 41.4922 103.258 40.4535 102.822 39.4971C102.387 38.5407 101.751 37.6888 100.958 36.9989C100.166 36.3089 99.2344 35.797 98.227 35.4976C97.2197 35.1982 96.1598 35.1183 95.119 35.2632Z" fill="#7545FB"/>
<path d="M143.597 14.0023C143.597 9.99355 145.029 7.98921 148.036 7.98921C150.326 7.98921 153.047 9.56407 156.196 12.7138C159.498 15.9417 162.211 19.7207 164.214 23.881L169.225 2.69194C165.932 1.11707 161.923 0.258057 157.199 0.258057C148.751 0.258057 142.166 3.12144 137.727 8.84823C133.289 14.4318 130.998 21.4471 130.998 29.8942H123.84L122.838 34.9051H130.998V77.9992C130.998 87.5916 130.426 94.4638 127.706 101.908H152.045C149.324 94.4638 148.751 87.5916 148.751 77.9992V34.9051H163.355L164.071 29.8942H148.036C145.029 22.5925 143.597 17.2952 143.597 14.0023Z" fill="#330F3F"/>
<path d="M325.149 29.3221C323.182 28.838 321.162 28.5976 319.136 28.6062C310.403 28.6062 305.249 32.0423 302.242 43.4959C301.526 37.9122 299.522 31.1833 297.661 28.3199C293.079 30.7538 287.066 33.6172 279.765 36.7669C283.344 43.639 284.776 50.7975 284.776 59.8169V80.2902C284.776 89.0236 284.346 94.3212 281.482 101.909H305.964C303.101 94.3211 302.528 89.3103 302.528 80.2902V61.6782C302.528 48.5068 303.817 42.78 308.828 42.78C312.55 42.78 316.989 46.6456 322.143 54.3768L325.149 29.3221Z" fill="#330F3F"/>
<path d="M329.697 11.9987C329.697 18.4413 334.564 23.4522 341.293 23.4522C348.166 23.4522 353.176 18.4413 353.176 11.9987C353.176 5.55602 348.166 0.401926 341.293 0.401926C339.762 0.371343 338.24 0.650406 336.82 1.22237C335.399 1.79433 334.108 2.64741 333.025 3.73042C331.942 4.81343 331.089 6.10404 330.517 7.52485C329.945 8.94565 329.666 10.4674 329.697 11.9987ZM332.846 81.8653C332.912 85.3109 332.721 88.7566 332.274 92.1738C331.67 95.496 330.76 98.755 329.553 101.909H353.749C352.543 98.7551 351.632 95.4961 351.029 92.1738C350.582 88.7567 350.39 85.3109 350.456 81.8653V28.4631C343.71 31.6798 336.721 34.3606 329.553 36.4806C332.417 42.3506 332.846 48.2205 332.846 57.5264L332.846 81.8653Z" fill="#330F3F"/>
<path d="M390.198 89.3103C384.042 89.3103 383.039 84.0127 383.039 77.8566V34.9057H398.788L399.504 29.8948H383.039V9.13525C377.182 12.7584 370.999 15.826 364.571 18.2981C364.857 21.3046 365.143 25.1702 365.286 29.8948H357.841L357.125 34.9057H365.286V83.8697C365.286 97.1846 371.3 103.484 380.462 103.484C391.057 103.484 399.074 95.1803 399.074 85.5878C395.782 88.0214 392.918 89.3103 390.198 89.3103Z" fill="#330F3F"/>
<path d="M219.218 101.909C217.642 98.1869 216.497 94.7511 216.067 91.6009C215.545 87.1346 215.306 82.6398 215.352 78.1434V56.9541C215.352 39.2011 208.909 28.6066 190.727 28.6066C173.403 28.6066 163.954 38.7716 163.954 52.0864V55.9519L182.996 56.9541C180.848 52.2295 179.846 47.7913 179.846 43.6394C179.846 37.7695 182.566 34.4765 187.577 34.4765C195.165 34.4765 197.455 41.635 197.455 52.3727V57.6701C197.455 60.5335 194.163 62.681 182.709 67.4057C173.403 71.2713 168.249 73.4187 164.097 78.5727C161.949 81.1499 160.947 84.2995 160.947 87.8789C160.947 96.8985 167.39 103.055 177.126 103.055C185.286 103.055 192.588 99.0459 197.599 92.1738C197.885 96.0394 198.744 99.3321 200.319 101.909H219.218ZM197.455 88.7375C194.848 90.4085 191.819 91.3025 188.722 91.3147C182.423 91.3147 178.987 87.1629 178.987 80.7201C178.987 73.2756 182.566 70.126 193.017 70.126C196.883 70.126 197.455 70.6984 197.455 73.7049L197.455 88.7375Z" fill="#330F3F"/>
<path d="M262.985 29.8929C263.988 32.47 264.56 35.7629 264.56 39.9148C264.561 43.7969 263.982 47.6574 262.842 51.3684L253.107 82.8654L243.657 51.3684C242.349 47.0538 241.721 42.5616 241.796 38.0536C241.796 34.4744 242.226 31.7541 242.941 29.8929H214.451C216.333 32.3461 217.875 35.0432 219.032 37.9104C220.321 40.6307 222.182 45.3553 224.616 52.0842L242.369 101.907H251.818L269.428 52.0842C271.719 45.7847 273.58 41.2034 274.868 38.1968C276.3 35.1902 279.452 32.3268 280.309 29.8929H262.985Z" fill="#330F3F"/>
</g>
<defs>
<clipPath id="clip0_273_1670">
<rect width="400" height="103.742" fill="white"/>
</clipPath>
</defs>
</svg>
