<svg width="300" height="50" viewBox="0 0 300 50" fill="none" xmlns="http://www.w3.org/2000/svg">
<path d="M27.3475 10.9365L26.5766 3.44231C26.4076 0.134613 31.1905 0.132691 31.0234 3.44231L30.2525 10.9365C30.0456 12.6923 27.5449 12.6788 27.3475 10.9365ZM18.4443 14.1635L14.0772 8.06346C12.2962 5.28846 16.443 2.86154 17.9278 5.81346L20.962 12.6923C21.6513 14.3173 19.4772 15.5731 18.4462 14.1635M12.3266 21.4673L5.5348 18.3962C2.62024 16.8942 5.01265 12.6923 7.75822 14.4962L13.781 18.9192C15.1804 19.9769 13.9158 22.1635 12.3266 21.4673ZM10.9956 31.0154L3.59809 31.7962C0.332267 31.9654 0.330368 27.1231 3.59809 27.2923L10.9956 28.0731C12.731 28.2808 12.7177 30.8135 10.9956 31.0154ZM46.6861 27.9885L54.0835 27.2077C57.3493 27.0365 57.3531 31.8808 54.0835 31.7115L46.6861 30.9308C44.9506 30.7212 44.9658 28.1885 46.6861 27.9885ZM43.8607 18.8462L49.8816 14.4231C52.6215 12.6192 55.0196 16.8173 52.105 18.3231L45.3133 21.3923C43.7088 22.0904 42.469 19.8904 43.8607 18.8442M36.6494 12.65L39.6835 5.76923C41.1645 2.82115 45.3152 5.24423 43.5342 8.02307L39.1671 14.1212C38.1228 15.5385 35.9601 14.2596 36.6494 12.65ZM45.3607 35.8365C42.693 37.6231 39.7861 38.1827 36.8392 37.7654C39.5943 34.4673 40.7943 30.9288 41.269 29.0788C41.7496 27.2647 41.726 25.3514 41.2006 23.55C40.1943 20.2135 37.7164 18.2212 34.5759 18.2212C31.988 18.2212 30.019 19.5346 28.8607 22.0288C27.6987 19.5346 25.7335 18.2212 23.1437 18.2212C20.0051 18.2212 17.5272 20.2135 16.519 23.5481C15.993 25.2923 15.9683 27.2058 16.4506 29.0788C16.8228 30.525 17.5519 32.7077 18.9399 35.0269C15.8525 35.7277 13.0196 37.2875 10.7601 39.5308C10.539 39.7488 10.4089 40.0445 10.3965 40.3568C10.3841 40.6691 10.4905 40.9743 10.6937 41.2096C10.8906 41.4512 11.1717 41.6069 11.4788 41.6445C11.7859 41.6821 12.0956 41.5987 12.3437 41.4115C14.793 39.6192 17.5538 38.4981 20.3354 38.2692C23.6183 38 26.7532 38.3615 30.5658 40.1346C32.4019 40.9904 34.7164 41.9577 37.6481 41.9577C41.4494 41.9577 44.9221 40.3577 47.005 37.5577C47.1755 37.3281 47.2584 37.0439 47.2386 36.7574C47.2187 36.4709 47.0973 36.2012 46.8968 35.9981C46.7033 35.7884 46.4417 35.6564 46.1599 35.6264C45.878 35.5963 45.595 35.6703 45.3626 35.8346M37.8778 26.9115C37.8778 28.1654 37.0443 32.5192 32.755 36.4788C31.4924 35.9885 27.7329 34.3038 23.1057 34.5308C20.7323 31.725 19.8437 28.3981 19.8342 26.9154C19.8114 23.6615 21.7785 22.5885 23.4418 22.5885C25.1734 22.5885 26.4664 23.6981 26.8994 25.5558C27.1196 26.4904 27.9228 27.1423 28.8702 27.1423C29.8196 27.1423 30.6057 26.4885 30.824 25.5558C31.2588 23.6981 32.5519 22.5904 34.2797 22.5904C36.4785 22.5904 37.8778 24.3385 37.8778 26.9135" fill="#FFBC2B"/>
<path fill-rule="evenodd" clip-rule="evenodd" d="M203.115 9.22699C201.264 9.22699 199.853 10.4328 199.853 12.352C199.853 14.2731 201.264 15.4328 203.115 15.4328C204.965 15.4328 206.332 14.2712 206.332 12.352C206.332 10.4347 204.923 9.22699 203.115 9.22699ZM152.822 18.2885C150.22 18.2885 147.752 19.4039 146.343 21.9924V11.0866C146.343 10.8896 146.266 10.7005 146.129 10.561C145.991 10.4215 145.805 10.3429 145.61 10.3424H142.185C142.088 10.3424 141.993 10.3616 141.904 10.3991C141.815 10.4365 141.734 10.4913 141.666 10.5605C141.598 10.6296 141.544 10.7117 141.507 10.8019C141.47 10.8922 141.452 10.989 141.452 11.0866V40.8443C141.452 41.2539 141.78 41.5866 142.185 41.5866H145.61C145.804 41.5861 145.991 41.5077 146.128 41.3686C146.265 41.2295 146.343 41.041 146.343 40.8443V28.1058C146.343 24.7135 148.504 22.6616 151.544 22.6616C154.189 22.6616 156.082 24.6231 156.082 27.8828V40.8443C156.082 41.2539 156.41 41.5866 156.815 41.5866H160.24C160.434 41.5861 160.62 41.5077 160.758 41.3686C160.895 41.2295 160.972 41.041 160.973 40.8443V27.0808C160.973 21.7693 157.536 18.2885 152.822 18.2885ZM84.9874 18.2885C78.3779 18.2885 73.4848 23.1539 73.4848 30.1597C73.4848 37.1655 78.376 42.077 84.9874 42.077C91.5988 42.077 96.488 37.2116 96.488 30.1597C96.488 23.1078 91.5969 18.2885 84.9874 18.2885ZM84.9874 37.6597C81.2412 37.6597 78.5089 34.8905 78.5089 30.1597C78.5089 25.4289 81.2412 22.752 84.9874 22.752C88.7336 22.752 91.5076 25.4751 91.5076 30.1616C91.5076 34.8481 88.7317 37.6597 84.9874 37.6597ZM106.967 34.7116L101.239 19.2597C101.185 19.1188 101.091 18.9975 100.968 18.9118C100.846 18.826 100.7 18.7797 100.551 18.7789H96.8089C96.6889 18.7786 96.5706 18.8082 96.4645 18.8651C96.3584 18.9219 96.2677 19.0043 96.2004 19.1049C96.1331 19.2056 96.0913 19.3214 96.0785 19.4423C96.0657 19.5632 96.0825 19.6854 96.1272 19.7981L104.533 41.1193C104.588 41.2561 104.682 41.3733 104.803 41.4561C104.924 41.5389 105.067 41.5836 105.213 41.5847H108.801C109.103 41.5847 109.371 41.4001 109.483 41.1155L117.805 19.7943C117.849 19.6817 117.865 19.5599 117.852 19.4396C117.839 19.3192 117.797 19.204 117.73 19.1038C117.662 19.0037 117.572 18.9218 117.466 18.8651C117.361 18.8085 117.243 18.7789 117.123 18.7789H113.512C113.206 18.7789 112.931 18.9712 112.825 19.2597L106.967 34.7116ZM117.539 30.1597C117.539 23.0193 122.077 18.2885 128.425 18.2885C134.55 18.2885 138.911 23.0193 138.911 30.0289C138.911 30.1994 138.91 30.3744 138.908 30.5539C138.904 30.7474 138.825 30.9316 138.688 31.0668C138.551 31.2021 138.368 31.2775 138.177 31.277H122.476C122.827 35.6962 125.208 37.7943 128.468 37.7943C131.1 37.7943 133.154 36.7058 134.457 33.8462C134.536 33.6748 134.675 33.5394 134.847 33.4664C135.019 33.3935 135.212 33.3884 135.387 33.452L138.171 34.5328C138.558 34.6808 138.75 35.1289 138.585 35.5135C136.595 40.1328 132.796 42.077 128.558 42.077C122.121 42.077 117.539 37.3001 117.539 30.1597ZM128.381 22.3943C125.296 22.3943 123.268 24.2251 122.609 27.7501H133.889C133.272 24.0905 131.201 22.3943 128.381 22.3943ZM163.506 30.1597C163.506 23.152 168.399 18.2885 175.008 18.2885C181.62 18.2885 186.511 23.1078 186.511 30.1597C186.511 37.2116 181.62 42.077 175.008 42.077C168.397 42.077 163.506 37.1674 163.506 30.1597ZM168.53 30.1597C168.53 34.8905 171.262 37.6597 175.008 37.6597C178.754 37.6597 181.53 34.8481 181.53 30.1597C181.53 25.4751 178.754 22.752 175.008 22.752C171.262 22.752 168.53 25.4289 168.53 30.1597ZM204.763 18.7808H201.336C201.142 18.7808 200.956 18.8588 200.819 18.9976C200.681 19.1364 200.604 19.3247 200.603 19.5212V40.8462C200.603 41.2558 200.932 41.5885 201.338 41.5885H204.763C204.958 41.5885 205.144 41.5103 205.282 41.3711C205.419 41.2319 205.496 41.0431 205.496 40.8462V19.5193C205.496 19.3224 205.419 19.1336 205.282 18.9944C205.144 18.8552 204.958 18.777 204.763 18.777M229.618 10.3405H226.236C226.14 10.3405 226.044 10.3597 225.955 10.3971C225.866 10.4346 225.785 10.4894 225.717 10.5585C225.649 10.6277 225.595 10.7097 225.558 10.8C225.522 10.8903 225.503 10.987 225.503 11.0847V22.527C224.049 20.0731 221.668 18.2866 218.144 18.2866C212.282 18.2866 207.919 23.2866 207.919 30.1578C207.919 37.0289 212.282 42.0751 218.144 42.0751C221.67 42.0751 224.049 40.2905 225.503 37.8347V40.8424C225.503 41.252 225.832 41.5847 226.236 41.5847H229.618C229.812 41.5847 229.999 41.5065 230.136 41.3673C230.273 41.2281 230.351 41.0392 230.351 40.8424V11.0866C230.351 10.989 230.332 10.8922 230.295 10.8019C230.259 10.7117 230.205 10.6296 230.137 10.5605C230.069 10.4913 229.988 10.4365 229.899 10.3991C229.81 10.3616 229.714 10.3424 229.618 10.3424M219.247 37.6597C215.501 37.6597 212.858 34.8905 212.858 30.1597C212.858 25.4289 215.503 22.752 219.247 22.752C222.991 22.752 225.592 25.4751 225.592 30.1616C225.592 34.8481 222.949 37.6597 219.247 37.6597ZM274.982 18.7789H278.738C279.275 18.7789 279.629 19.3443 279.403 19.8366L266.117 48.6116C266.057 48.7385 265.963 48.8459 265.846 48.9214C265.729 48.9969 265.593 49.0375 265.454 49.0385H261.741C261.617 49.0382 261.496 49.0065 261.388 48.9462C261.28 48.886 261.189 48.7992 261.123 48.6939C261.056 48.5885 261.017 48.468 261.009 48.3434C261.001 48.2188 261.024 48.0941 261.076 47.9808L265.963 37.3885L257.615 19.8424C257.561 19.7291 257.536 19.6039 257.543 19.4783C257.55 19.3527 257.588 19.2309 257.654 19.1244C257.72 19.0179 257.812 18.9302 257.92 18.8694C258.029 18.8086 258.151 18.7768 258.275 18.777H262.185C262.473 18.777 262.735 18.9501 262.853 19.2174L268.477 31.9443L274.318 19.2078C274.377 19.0802 274.471 18.9722 274.589 18.8964C274.707 18.8205 274.843 18.7798 274.982 18.7789ZM291.849 28.3751L289.601 27.8385C286.912 27.1693 285.061 26.5443 285.061 24.8501C285.061 23.4212 286.648 22.4385 289.071 22.4385C291.494 22.4385 293.609 23.4231 294.334 25.9808C294.444 26.3655 294.832 26.5962 295.215 26.5001L297.929 25.8193C298.115 25.771 298.276 25.651 298.376 25.4848C298.477 25.3186 298.51 25.1192 298.468 24.9289C297.562 20.6578 293.791 18.3328 289.071 18.3328C283.783 18.3328 280.346 21.0097 280.346 24.9366C280.346 28.3731 282.461 30.6058 287.527 31.8558L289.732 32.4347C292.772 33.1501 294.139 33.8635 294.139 35.3808C294.139 36.9001 292.377 38.0155 289.555 38.0155C286.735 38.0155 284.561 36.7578 283.667 34.0385C283.607 33.8527 283.476 33.6985 283.304 33.6095C283.132 33.5205 282.932 33.504 282.748 33.5635L280.175 34.4058C279.992 34.4676 279.84 34.5992 279.752 34.7726C279.663 34.9461 279.645 35.1477 279.701 35.3347C281.13 40.0481 285.104 42.0751 289.601 42.0751C295.198 42.0751 298.853 39.2193 298.853 35.202C298.853 31.7655 296.563 29.5789 291.847 28.3751H291.849ZM68.7323 34.0578C68.7323 36.7462 70.2152 37.1116 72.1918 37.0385C72.2904 37.0349 72.3886 37.0514 72.4807 37.0871C72.5728 37.1227 72.6569 37.1768 72.728 37.2461C72.799 37.3154 72.8556 37.3984 72.8943 37.4903C72.933 37.5821 72.953 37.681 72.9532 37.7808V40.7078C72.953 40.8903 72.8865 41.0664 72.7664 41.2026C72.6463 41.3388 72.481 41.4255 72.3019 41.4462C67.1905 42.0231 64.126 39.5731 64.126 34.0578V11.1251C64.126 10.7155 64.4545 10.3828 64.8589 10.3828H67.9994C68.4038 10.3828 68.7323 10.7155 68.7323 11.1251V34.0578ZM197.11 37.0385C195.133 37.1116 193.65 36.7462 193.65 34.0578V11.1251C193.65 10.9282 193.573 10.7394 193.435 10.6002C193.298 10.461 193.112 10.3828 192.917 10.3828H189.777C189.583 10.3833 189.397 10.4617 189.26 10.6009C189.123 10.74 189.046 10.9285 189.046 11.1251V34.0578C189.046 39.5731 192.11 42.0212 197.222 41.4462C197.401 41.4255 197.566 41.3388 197.686 41.2026C197.806 41.0664 197.873 40.8903 197.873 40.7078V37.7808C197.873 37.6809 197.853 37.582 197.814 37.4901C197.775 37.3982 197.718 37.3152 197.647 37.246C197.576 37.1769 197.491 37.123 197.399 37.0877C197.307 37.0524 197.208 37.0344 197.11 37.0385ZM255.315 35.8212C255.657 36.8597 256.42 37.2578 257.419 37.3789C257.595 37.4028 257.759 37.4909 257.876 37.6269C257.992 37.7628 258.056 37.9372 258.055 38.1174V41.2424C258.055 41.4391 257.978 41.6278 257.841 41.7673C257.704 41.9067 257.518 41.9856 257.324 41.9866C253.861 41.9828 251.535 40.3712 250.737 37.1405L250.724 37.0962C250.513 37.5193 250.344 37.8385 250.344 37.8385C248.89 40.2943 246.511 42.0789 242.985 42.0789C237.123 42.0789 232.76 37.0347 232.76 30.1616C232.76 23.2885 237.125 18.2905 242.985 18.2905C246.509 18.2905 248.89 20.077 250.344 22.5308V19.5231C250.344 19.1135 250.673 18.7808 251.077 18.7808H254.459C254.865 18.7808 255.192 19.1135 255.192 19.5231V34.927C255.192 35.2308 255.222 35.5328 255.315 35.8212ZM237.697 30.1616C237.697 34.8924 240.34 37.6616 244.086 37.6616C247.789 37.6616 250.434 34.8481 250.434 30.1616C250.434 25.4751 247.83 22.752 244.086 22.752C240.342 22.752 237.697 25.4289 237.697 30.1616Z" fill="#0374DA"/>
</svg>
