<svg width="400" height="52" viewBox="0 0 400 52" fill="none" xmlns="http://www.w3.org/2000/svg">
<path fill-rule="evenodd" clip-rule="evenodd" d="M356.201 42.2188H395.793C397.345 42.2188 398.601 43.4448 398.601 44.96C398.601 46.4727 397.345 47.7016 395.793 47.7016H356.201C354.652 47.7016 353.39 46.4727 353.39 44.96C353.393 43.4448 354.652 42.2188 356.201 42.2188Z" fill="black"/>
<path fill-rule="evenodd" clip-rule="evenodd" d="M348.361 9.78173C348.954 9.81026 349.541 9.66257 350.05 9.36187C350.461 9.09222 350.696 8.63264 350.674 8.14732C350.699 7.70452 350.495 7.2732 350.134 7.00355C349.773 6.74257 349.152 6.61195 348.31 6.61195H346.025V9.78173H348.361ZM344.613 14.6715C344.453 14.5238 344.364 14.3196 344.366 14.104V6.31963C344.361 6.03012 344.475 5.74928 344.685 5.54201C344.889 5.32914 345.175 5.20998 345.474 5.21557H348.419C349.715 5.21557 350.682 5.47963 351.323 6.00746C351.952 6.52383 352.308 7.29585 352.282 8.09893C352.296 8.62956 352.115 9.1462 351.762 9.55208C351.415 9.94928 350.965 10.25 350.461 10.4318C350.957 10.6189 351.373 10.9596 351.653 11.4021C351.989 11.8903 352.162 12.5658 352.162 13.4312V14.0841C352.157 14.5325 351.785 14.8959 351.323 14.9014C351.096 14.9042 350.887 14.8161 350.73 14.66C350.571 14.5098 350.478 14.3026 350.484 14.0869V13.65C350.503 13.0567 350.397 12.4637 350.176 11.9104C349.975 11.4307 349.477 11.1924 348.685 11.1924H346.033V14.0984C346.039 14.314 345.95 14.5182 345.79 14.6631C345.636 14.8161 345.421 14.9042 345.197 14.9042C344.979 14.9098 344.764 14.8248 344.613 14.6715ZM351.821 16.377C352.962 15.7272 353.913 14.8022 354.579 13.6838C355.259 12.5602 355.608 11.2774 355.597 9.97194C355.608 8.67796 355.256 7.40663 354.579 6.29418C353.91 5.18732 352.959 4.26789 351.821 3.61782C350.674 2.95376 349.359 2.61054 348.025 2.62173C346.699 2.61054 345.396 2.95684 344.26 3.61782C343.127 4.27069 342.182 5.19012 341.516 6.29418C340.836 7.40942 340.484 8.67796 340.498 9.97194C340.484 11.2774 340.836 12.5602 341.516 13.6838C342.179 14.7994 343.122 15.7244 344.26 16.377C345.396 17.0382 346.699 17.3845 348.025 17.3761C349.359 17.3873 350.677 17.041 351.826 16.377H351.821ZM343.631 17.4584C342.294 16.7006 341.186 15.6136 340.408 14.3112C338.817 11.6435 338.817 8.34593 340.408 5.68103C341.186 4.37837 342.294 3.29446 343.631 2.5367C346.364 0.978654 349.737 0.978654 352.467 2.5367C353.799 3.29726 354.912 4.38146 355.684 5.68691C357.281 8.35153 357.281 11.6491 355.684 14.3168C354.909 15.6195 353.799 16.7006 352.467 17.4584C349.734 19.0136 346.364 19.0136 343.631 17.4584Z" fill="black"/>
<path fill-rule="evenodd" clip-rule="evenodd" d="M305.922 46.8392C305.359 46.2744 305.055 45.5139 305.077 44.7306V4.79021C305.057 3.99553 305.362 3.22937 305.922 2.65343C306.45 2.0744 307.208 1.74797 308.006 1.76224H334.112C334.864 1.74797 335.583 2.04896 336.098 2.58238C336.629 3.12168 336.926 3.84224 336.909 4.58882C336.932 5.33231 336.632 6.04728 336.095 6.56672C335.572 7.08616 334.853 7.37259 334.112 7.35861H310.987V21.9027H331.757C332.504 21.8884 333.228 22.1866 333.74 22.7228C334.28 23.2565 334.571 23.9801 334.554 24.7292C334.587 26.2277 333.371 27.4649 331.835 27.4962C331.81 27.499 331.782 27.499 331.757 27.499H310.987V42.1057H334.098C334.848 42.0943 335.572 42.395 336.087 42.9287C336.621 43.4649 336.915 44.1857 336.901 44.9379C336.92 45.6786 336.621 46.3936 336.084 46.9102C335.561 47.4297 334.842 47.7161 334.098 47.699H308C307.214 47.7161 306.462 47.4039 305.922 46.845V46.8392ZM256.571 45.1933C256.036 44.9634 255.586 44.586 255.267 44.1063C254.498 43.0109 254.593 41.5466 255.494 40.5533C255.975 40.0112 256.68 39.7077 257.413 39.7304C257.838 39.7276 258.257 39.8182 258.641 39.9941C262.663 41.802 267.046 42.7242 271.477 42.6987C279.074 42.6987 282.867 40.1732 282.867 35.1273C282.898 33.873 282.361 32.6725 281.399 31.838C280.347 30.9186 279.119 30.2148 277.785 29.7636C276.352 29.2613 274.313 28.6568 271.67 27.9558C268.775 27.2322 265.927 26.3441 263.141 25.2968C260.996 24.454 259.08 23.1371 257.547 21.4459C255.986 19.7345 255.206 17.4529 255.203 14.6036C255.175 12.1944 255.86 9.83021 257.166 7.78993C258.467 5.74937 260.386 4.12336 262.923 2.91721C265.463 1.71106 268.515 1.10938 272.073 1.10938C276.848 1.10938 281.166 1.83609 285.029 3.28056C286.243 3.72028 286.85 4.59721 286.85 5.91972C286.853 6.6207 286.599 7.29902 286.134 7.83804C285.678 8.3972 284.976 8.71217 284.246 8.69231C283.885 8.66965 283.53 8.57875 283.206 8.42854C279.841 7.24784 276.297 6.64616 272.722 6.65175C269.287 6.65175 266.501 7.31021 264.355 8.62714C262.218 9.94378 261.147 11.7857 261.138 14.1524C261.138 15.7359 261.645 17.0187 262.666 18.0062C263.757 19.0364 265.069 19.8227 266.506 20.3077C268.568 21.0031 270.663 21.5849 272.789 22.0559C276.224 22.8876 278.99 23.7217 281.088 24.5505C283.194 25.3877 285.046 26.7214 286.49 28.4383C287.986 30.195 288.733 32.5648 288.733 35.5443C288.766 37.9085 288.036 40.2213 286.652 42.1594C285.264 44.1119 283.309 45.6361 280.794 46.7343C278.271 47.8296 275.365 48.3773 272.07 48.3773C266.73 48.4087 261.443 47.3217 256.571 45.1933ZM211.121 30.4562H228.698L219.912 9.06406L211.121 30.4562ZM199.698 47.174C199.155 46.6036 198.858 45.8459 198.882 45.0655C198.908 44.6115 199.018 44.1659 199.21 43.7488L215.807 4.12895C216.13 3.37706 216.635 2.70714 217.28 2.19077C217.934 1.67413 218.753 1.40476 219.59 1.43022H220.241C221.08 1.40756 221.897 1.67693 222.553 2.19077C223.195 2.70994 223.701 3.37706 224.026 4.12895L240.615 43.7544C240.804 44.1717 240.914 44.6201 240.937 45.0741C240.958 45.8518 240.667 46.6092 240.124 47.1799C239.578 47.7502 238.805 48.0652 238.009 48.0369C237.416 48.0425 236.838 47.8666 236.35 47.5401C235.844 47.2081 235.447 46.7399 235.208 46.1922L230.981 35.9161H208.844L204.611 46.1866C204.37 46.7315 203.975 47.1997 203.472 47.5318C202.984 47.8579 202.406 48.031 201.813 48.031C201.017 48.0568 200.241 47.7446 199.698 47.174ZM167.691 42.1027C171.904 42.1027 174.884 41.4473 176.645 40.1304C178.4 38.8165 179.28 36.9519 179.28 34.5343C179.28 29.5337 175.437 27.0336 167.744 27.0336H155.518V42.1027H167.691ZM166.326 21.6358C170.187 21.6358 172.9 20.9776 174.463 19.6635C176.026 18.3469 176.808 16.5049 176.808 14.1326C176.86 12.1801 175.916 10.3326 174.289 9.19469C172.622 7.96867 170.329 7.35581 167.418 7.35581H155.518V21.6358H166.326ZM150.44 46.842C149.879 46.2803 149.577 45.5197 149.595 44.7362V4.79021C149.58 3.99553 149.882 3.22937 150.44 2.65343C150.969 2.0744 151.73 1.74798 152.523 1.76168H167.886C172.531 1.76168 176.122 2.83497 178.661 4.98601C181.201 7.13706 182.47 10.0319 182.47 13.6727C182.47 16.2157 181.874 18.3354 180.683 20.0269C179.536 21.6758 177.947 22.9869 176.09 23.8098C178.56 24.5561 180.776 25.9466 182.505 27.8255C184.173 29.6671 185.009 31.9941 185.012 34.8008C185.012 38.8392 183.664 41.9978 180.974 44.2794C178.281 46.5583 174.051 47.699 168.278 47.699H152.523C151.739 47.7161 150.98 47.4039 150.44 46.845V46.842ZM113.163 47.174C112.585 46.6207 112.269 45.8573 112.289 45.0655V28.285L96.7256 6.22909C96.3916 5.69539 96.2115 5.07972 96.2056 4.45259C96.1883 3.66629 96.4786 2.90014 97.0221 2.31552C97.5334 1.73371 98.2859 1.40756 99.0702 1.42742C100.157 1.42742 101.025 1.93259 101.673 2.93986L115.281 22.9471L128.886 2.94546C129.543 1.93539 130.411 1.43022 131.492 1.43022C132.285 1.41595 133.047 1.73958 133.578 2.31832C134.133 2.89454 134.418 3.66938 134.357 4.45819C134.351 5.08532 134.174 5.70126 133.837 6.23748L118.213 28.2937V45.0741C118.23 45.8573 117.928 46.6179 117.367 47.1799C116.827 47.7387 116.069 48.0509 115.284 48.0372C114.485 48.0453 113.721 47.7331 113.163 47.174ZM58.0543 30.4562H75.6339L66.8369 9.06406L58.0543 30.4562ZM46.6252 47.174C46.0851 46.6036 45.7885 45.8459 45.8118 45.0655C45.835 44.6115 45.9455 44.1659 46.1371 43.7488L62.7376 4.12895C63.0571 3.37706 63.5625 2.70714 64.2106 2.19077C64.8613 1.67413 65.6834 1.40756 66.5231 1.43022H67.1709C68.0076 1.40756 68.8299 1.67693 69.4834 2.19077C70.1284 2.70994 70.6339 3.37706 70.9564 4.12895L87.5424 43.7544C87.7312 44.1717 87.8414 44.6201 87.8646 45.0741C87.885 45.8518 87.5975 46.6092 87.0512 47.1799C86.508 47.7502 85.7351 48.0652 84.9393 48.0369C84.3435 48.0425 83.7625 47.8666 83.2744 47.5401C82.772 47.2081 82.3796 46.7399 82.1385 46.1922L77.9085 35.9248H55.7709L51.541 46.1922C51.2999 46.7399 50.9074 47.2053 50.402 47.5401C49.9139 47.8638 49.3329 48.0397 48.7432 48.0369C47.9413 48.0624 47.1715 47.7446 46.6252 47.174ZM17.9421 25.3222C22.3667 25.3222 25.4839 24.4652 27.2853 22.7569C29.0864 21.0428 29.9844 18.9144 29.9844 16.3717C29.9844 13.826 29.0837 11.6976 27.2853 9.98937C25.4839 8.27525 22.3698 7.41819 17.9421 7.42099H6.67274V25.3222H17.9421ZM1.6003 47.174C1.04253 46.6123 0.734563 45.8517 0.754983 45.0655V4.79301C0.740438 3.99832 1.04533 3.23217 1.6003 2.65343C2.13204 2.0744 2.89037 1.74518 3.68617 1.75889H18.5262C22.6515 1.75889 26.0129 2.46042 28.6188 3.86518C31.2218 5.27273 33.0898 7.06909 34.2171 9.26266C36.4744 13.7466 36.4744 18.9966 34.2171 23.4806C33.0898 25.6741 31.2218 27.4736 28.6188 28.8755C26.0129 30.2772 22.6515 30.9782 18.5262 30.981H6.67274V45.0655C6.68729 45.8573 6.37065 46.6207 5.79246 47.174C5.2375 47.7303 4.47358 48.0425 3.6775 48.031C2.89037 48.0453 2.13484 47.7331 1.59442 47.174H1.6003Z" fill="black"/>
</svg>
