<svg width="168" height="34" viewBox="0 0 168 34" fill="none" xmlns="http://www.w3.org/2000/svg">
<path d="M45.8107 23.1938C47.5826 23.1938 48.6655 22.167 48.6655 20.511C48.6655 19.0867 47.6811 17.8612 45.8107 17.8612H40.7575V23.1938H45.8107ZM45.7123 15.5759C47.4186 15.5759 48.3701 14.4829 48.3701 13.0918C48.3701 11.7007 47.4186 10.5745 45.7123 10.5745H40.7575V15.5759H45.7123ZM38.1981 24.0881V9.68024C38.1981 8.81909 38.6903 8.32227 39.5763 8.32227H46.1717C49.1905 8.32227 50.9624 10.2102 50.9624 12.6943C50.9624 14.8472 49.5514 16.3045 48.0092 16.6357C49.8139 16.9338 51.2905 18.7555 51.2905 20.8422C51.2905 23.525 49.5186 25.4792 46.3686 25.4792H39.5763C38.6903 25.446 38.1981 24.9492 38.1981 24.0881Z" fill="#8E9190"/>
<path d="M56.9999 9.48119C56.9999 8.78564 57.5905 8.18945 58.3124 8.18945C59.0343 8.18945 59.5921 8.78564 59.5921 9.48119V18.6889C59.5921 21.6036 61.1999 23.4916 64.1859 23.4916C67.1719 23.4916 68.7469 21.6036 68.7469 18.6889V9.48119C68.7469 8.78564 69.3376 8.18945 70.0594 8.18945C70.7813 8.18945 71.3392 8.78564 71.3392 9.48119V18.7221C71.3392 22.9947 68.9766 25.7438 64.2187 25.7438C59.4609 25.7438 57.0655 22.9285 57.0655 18.7221V9.48119H56.9999Z" fill="#8E9190"/>
<path d="M85.4817 10.3098C81.8394 10.3098 79.5425 13.1251 79.5425 16.901C79.5425 20.6437 81.8394 23.4921 85.4817 23.4921C89.0583 23.4921 91.4208 20.6768 91.4208 16.901C91.4208 13.1251 89.0911 10.3098 85.4817 10.3098ZM85.4817 8.02441C90.5677 8.02441 94.0459 11.8003 94.0459 16.901C94.0459 22.0017 90.5677 25.7775 85.4817 25.7775C80.3957 25.7775 76.9175 22.0017 76.9175 16.901C76.9175 11.8003 80.4285 8.02441 85.4817 8.02441Z" fill="#8E9190"/>
<path d="M111.568 10.0774L106.121 18.2584V24.2533C106.121 24.9489 105.563 25.5451 104.841 25.5451C104.119 25.5451 103.562 24.9489 103.562 24.2533V18.2915L98.0818 10.1105C97.9505 9.94489 97.8849 9.67992 97.8849 9.41495C97.8849 8.7194 98.4427 8.18945 99.099 8.18945C99.5255 8.18945 99.9193 8.38818 100.149 8.75252L104.841 16.0061L109.501 8.75252C109.73 8.4213 110.124 8.18945 110.551 8.18945C111.207 8.18945 111.765 8.7194 111.765 9.41495C111.765 9.67992 111.666 9.91177 111.568 10.0774Z" fill="#8E9190"/>
<path d="M125.612 19.6163L122.232 10.5411L118.885 19.6163H125.612ZM130.009 24.2533C130.009 24.982 129.418 25.5782 128.696 25.5782C128.138 25.5782 127.646 25.2139 127.515 24.7502L126.432 21.9017H117.999L116.916 24.7502C116.752 25.2139 116.26 25.5782 115.735 25.5782C115.013 25.5782 114.423 24.982 114.423 24.2533C114.423 24.0877 114.488 23.9221 114.521 23.7565L120.132 9.61367C120.427 8.78564 121.248 8.18945 122.199 8.18945C123.184 8.18945 123.971 8.81876 124.299 9.61367L129.91 23.7565C129.976 23.9221 130.009 24.0877 130.009 24.2533Z" fill="#8E9190"/>
<path d="M146.743 24.9158L137.72 12.2965V24.2865C137.72 24.982 137.162 25.5782 136.473 25.5782C135.751 25.5782 135.16 24.982 135.16 24.2865V9.87865C135.16 8.95125 135.915 8.18945 136.834 8.18945C137.359 8.18945 137.884 8.45442 138.179 8.885L147.006 21.1731V9.48119C147.006 8.78564 147.564 8.18945 148.253 8.18945C148.975 8.18945 149.565 8.78564 149.565 9.48119V23.9884C149.565 24.8495 148.843 25.5782 147.99 25.5782C147.465 25.5782 147.006 25.3464 146.743 24.9158Z" fill="#8E9190"/>
<mask id="mask0" mask-type="alpha" maskUnits="userSpaceOnUse" x="154" y="8" width="15" height="18">
<path d="M168 8.32617V25.5824H154.645V8.32617H168Z" fill="#8E9190"/>
</mask>
<g mask="url(#mask0)">
<path d="M160.061 24.2907V10.5784H155.795C155.172 10.5784 154.679 10.0816 154.679 9.48542C154.679 8.85611 155.204 8.32617 155.795 8.32617H166.853C167.476 8.32617 168.001 8.85611 168.001 9.48542C168.001 10.1147 167.476 10.5784 166.853 10.5784H162.587V24.2907C162.587 24.9863 161.997 25.5824 161.308 25.5824C160.618 25.5824 160.061 24.9863 160.061 24.2907Z" fill="#8E9190"/>
</g>
<path d="M18.1165 23.9883C18.1165 26.7043 18.1165 29.4203 18.1165 32.1362C18.1165 32.5006 18.018 32.7324 17.6899 32.898C17.1649 33.163 16.6399 33.4942 16.1149 33.8254C15.6227 34.0904 15.5243 34.0573 15.5243 33.4942C15.5243 28.3604 15.5243 23.2266 15.5243 18.0927C15.5243 17.7946 15.5243 17.4965 15.4258 17.1985C15.2946 16.7679 14.9992 16.5029 14.6383 16.3042C11.4226 14.4162 8.17414 12.5614 4.95847 10.6735C3.67876 9.94486 2.43187 9.21618 1.15216 8.45439C0.791221 8.22254 0.758408 8.12318 1.15216 7.89133C1.77561 7.56011 2.36625 7.19578 2.98969 6.86456C3.18657 6.7652 3.31782 6.7652 3.5147 6.86456C8.23977 9.61364 12.9648 12.3627 17.6899 15.1118C18.018 15.3105 18.1493 15.5093 18.1493 15.8736C18.1165 18.5564 18.1165 21.2724 18.1165 23.9883Z" fill="#8E9190"/>
<path d="M21.9882 21.7032C21.9882 24.4191 21.9882 27.1351 21.9882 29.8179C21.9882 30.2485 21.8569 30.4804 21.496 30.6791C20.9382 30.9772 20.3804 31.3084 19.8225 31.6396C19.5272 31.8052 19.4288 31.739 19.396 31.4078C19.396 31.3084 19.396 31.209 19.396 31.0766C19.396 25.9759 19.396 20.8752 19.396 15.7413C19.396 14.9133 19.1007 14.3834 18.3788 13.9528C13.9818 11.4355 9.58489 8.85207 5.18795 6.30172C5.02388 6.20236 4.79419 6.20236 4.79419 5.93739C4.79419 5.70554 5.05669 5.67241 5.18795 5.57305C5.74577 5.24183 6.3364 4.91062 6.89422 4.57941C7.05829 4.48004 7.18954 4.48004 7.3536 4.57941C12.013 7.29536 16.6725 10.0113 21.3319 12.6942C21.8569 12.9922 21.9882 13.3235 21.9882 13.8865C21.9554 16.5031 21.9554 19.1197 21.9882 21.7032Z" fill="#8E9190"/>
<path d="M29.7322 17.1983C29.7322 19.9143 29.7322 22.6633 29.7322 25.3793C29.7322 25.7105 29.6338 25.9424 29.3385 26.108C28.7806 26.4061 28.2556 26.7373 27.6978 27.0685C27.5666 27.1347 27.4353 27.2672 27.2712 27.201C27.0744 27.1016 27.14 26.9029 27.14 26.7373C27.14 21.5703 27.14 16.4034 27.14 11.2364C27.14 10.4415 26.8119 9.91159 26.1228 9.51413C21.9883 7.06315 17.8211 4.64528 13.6867 2.22742C13.3585 2.02869 13.0632 1.86308 12.7351 1.66435C12.4726 1.49875 12.4726 1.36626 12.7351 1.20065C13.3913 0.803195 14.0148 0.438859 14.6711 0.0745232C14.8351 -0.0248411 14.9664 -0.0248411 15.1304 0.0745232C19.8883 2.85672 24.679 5.63893 29.4369 8.388C29.6666 8.52049 29.765 8.6861 29.765 8.95107C29.7322 11.7001 29.7322 14.4492 29.7322 17.1983Z" fill="#8E9190"/>
<path d="M25.8605 19.4833C25.8605 22.1993 25.8605 24.9483 25.8605 27.6643C25.8605 28.0286 25.7621 28.2274 25.4339 28.393C24.8433 28.6911 24.2855 29.0554 23.6948 29.3866C23.3667 29.5853 23.2683 29.5191 23.2683 29.1216C23.2683 23.9547 23.2683 18.7878 23.2683 13.6208C23.2683 12.7265 22.9401 12.1303 22.1526 11.6666C17.7229 9.11629 13.2931 6.53282 8.89618 3.98247C8.53524 3.75062 8.50243 3.58501 8.89618 3.38628C9.51963 3.02194 10.1431 2.65761 10.7665 2.29327C10.9306 2.19391 11.0618 2.19391 11.2259 2.29327C15.6557 4.87675 20.0526 7.4271 24.4495 10.0106C24.8105 10.2093 25.1386 10.4411 25.5324 10.6068C25.7949 10.7392 25.8933 10.938 25.8933 11.2361C25.8605 13.9851 25.8605 16.7342 25.8605 19.4833Z" fill="#8E9190"/>
<path d="M14.2114 25.7435V33.3614C14.2114 33.4607 14.2114 33.527 14.2114 33.6264C14.2114 34.0238 14.113 34.0901 13.7521 33.8913C13.1614 33.5601 12.5708 33.1958 11.9473 32.8646C11.7177 32.7321 11.652 32.5996 11.652 32.3346C11.652 28.36 11.652 24.3524 11.6848 20.3778C11.6848 19.5166 11.3567 18.9536 10.6348 18.523C7.12384 16.4695 3.67847 14.449 0.200296 12.4286C0.069044 12.3293 0.00341797 12.263 0.00341797 12.0974C0.00341797 11.3356 0.00341797 10.5738 0.00341797 9.84517C0.00341797 9.44771 0.13467 9.38147 0.4628 9.5802C3.02221 11.0707 5.58163 12.5611 8.17385 14.0516C10.077 15.1777 12.013 16.3038 13.9489 17.3969C14.1786 17.5293 14.2443 17.6949 14.2443 17.9268C14.2114 20.5765 14.2114 23.16 14.2114 25.7435Z" fill="#8E9190"/>
<path d="M10.3397 25.8105C10.3397 27.6322 10.3397 29.4539 10.3397 31.2756C10.3397 31.7724 10.2413 31.8386 9.84754 31.5737C9.25691 31.2424 8.66628 30.8781 8.07564 30.5469C7.84595 30.4144 7.74751 30.2488 7.74751 29.9838C7.74751 27.4997 7.74751 25.0156 7.78033 22.5315C7.78033 21.7035 7.48501 21.1404 6.76312 20.7098C4.59747 19.5174 2.46462 18.2588 0.298963 17.0333C0.0692719 16.9009 0.00364589 16.7684 0.00364589 16.5365C0.00364589 15.841 0.00364589 15.1454 0.00364589 14.483C0.00364589 14.3505 -0.0291671 14.1518 0.102085 14.0855C0.26615 13.9862 0.397402 14.1187 0.495841 14.1849C3.64589 16.0066 6.76312 17.8283 9.91317 19.6499C10.2085 19.8155 10.3069 20.0474 10.3069 20.4117C10.3397 22.1672 10.3726 23.9888 10.3397 25.8105Z" fill="#8E9190"/>
<mask id="mask1" mask-type="alpha" maskUnits="userSpaceOnUse" x="0" y="18" width="7" height="12">
<path d="M0.00341797 29.4857V18.5225H6.46758V29.4857H0.00341797Z" fill="#8E9190"/>
</mask>
<g mask="url(#mask1)">
<path d="M6.46781 25.7762C6.46781 26.8692 6.46781 27.9953 6.46781 29.0883C6.46781 29.4858 6.33655 29.552 6.00842 29.3533C5.38498 28.989 4.76153 28.6246 4.13808 28.2934C3.94121 28.194 3.87558 28.0616 3.87558 27.8297C3.87558 26.8029 3.87558 25.7762 3.90839 24.7494C3.90839 23.9545 3.61308 23.4246 2.924 23.0271C2.07086 22.5634 1.25054 22.0666 0.397402 21.5698C0.102085 21.4042 0.00364589 21.2054 0.00364589 20.8742C0.0364589 20.2449 0.00364589 19.5825 0.00364589 18.92C0.00364589 18.7876 -0.0291671 18.622 0.102085 18.5557C0.26615 18.4563 0.364589 18.5557 0.495841 18.622C2.39899 19.715 4.30215 20.8411 6.2053 21.9341C6.40218 22.0335 6.46781 22.1991 6.46781 22.3978C6.46781 23.557 6.46781 24.6501 6.46781 25.7762Z" fill="#8E9190"/>
</g>
<path d="M0.0372314 24.4847C0.0372314 24.0873 0.0372314 23.7229 0.0372314 23.3255C0.0372314 23.0274 0.168483 22.928 0.398174 23.0605C1.08725 23.458 1.77632 23.8554 2.43258 24.2529C2.56383 24.3191 2.59665 24.4516 2.59665 24.6172C2.59665 25.3459 2.59665 26.1077 2.59665 26.8364C2.59665 27.2007 2.46539 27.2669 2.17008 27.1013C1.54663 26.737 0.890369 26.3727 0.266922 26.0083C0.102857 25.909 0.0372314 25.7765 0.0372314 25.6109C0.0372314 25.2465 0.0372314 24.8822 0.0372314 24.4847Z" fill="#8E9190"/>
</svg>
