<svg width="168" height="31" viewBox="0 0 168 31" fill="none" xmlns="http://www.w3.org/2000/svg">
<path d="M147.941 0C147.331 0 146.838 0.489951 146.838 1.0941V8.76762H167.253L157.956 0.000707802L147.941 0Z" fill="#8E9190"/>
<path d="M168 11.0885C168 10.483 167.51 9.99512 166.897 9.99512H159.171V30.2656L167.996 21.0306L168 11.0885Z" fill="#8E9190"/>
<path d="M156.83 31.0003C157.438 31.0003 157.931 30.5096 157.931 29.9041V22.2334H137.515L146.814 30.9989L156.83 31.0003Z" fill="#8E9190"/>
<path d="M136.769 19.9125C136.769 20.5174 137.263 21.0102 137.873 21.0102H145.598V0.738281L136.77 9.97046L136.769 19.9125Z" fill="#8E9190"/>
<path d="M43.1927 3.70051V13.0617H30.0573V3.70051L25.2732 3.69629V27.2998H30.0573V17.1597H43.1927V27.2998H47.9847V3.70051H43.1927Z" fill="#8E9190"/>
<path d="M106.837 3.7002V27.2939H127.826L125.168 23.1402H111.635V17.1593H124.739V13.1587H111.635V7.75655H125.145L127.749 3.7002H106.837Z" fill="#8E9190"/>
<path d="M7.49005 3.69434C2.51351 3.69434 0 6.69818 0 11.069V19.8796C0 24.9377 3.23912 27.2993 7.46519 27.2993L22.4751 27.2979L19.6925 22.9835H8.39249C5.99189 22.9835 4.94603 22.1221 4.94603 19.4545V11.4609C4.94603 8.88216 5.82646 7.87618 8.45638 7.87618H19.8104L22.4822 3.69434H7.49005Z" fill="#8E9190"/>
<path d="M85.8432 3.68923C82.969 3.68923 80.0231 5.4044 80.0231 9.81607V10.9496C80.0231 15.5488 82.8575 17.3035 85.6934 17.3155H95.6472C96.681 17.3155 97.5209 17.486 97.5209 19.221L97.5195 21.2252C97.4932 22.7838 96.7101 23.1406 95.6116 23.1406H82.5167L79.8342 27.2942H95.9198C99.7987 27.2942 102.432 25.3781 102.432 20.9524V19.326C102.432 15.0469 99.9854 13.025 96.1917 13.025H86.6874C85.6337 13.025 84.8995 12.7395 84.8995 11.19V9.55804C84.8995 8.23835 85.4029 7.75687 86.6306 7.75687L99.1014 7.75193L101.708 3.68359L85.8432 3.68923Z" fill="#8E9190"/>
<path d="M61.8842 3.7002L50.6125 27.2981H55.9399L58.1353 22.4247H70.3839L72.5721 27.2981H77.9229L66.625 3.7002H61.8842ZM64.2478 8.59968L68.579 18.4078H59.9444L64.2478 8.59968Z" fill="#8E9190"/>
</svg>
