<svg width="169" height="32" viewBox="0 0 169 32" fill="none" xmlns="http://www.w3.org/2000/svg">
<mask id="mask0" mask-type="alpha" maskUnits="userSpaceOnUse" x="0" y="0" width="29" height="32">
<path d="M28.886 32H0V0H28.886V32Z" fill="#8E9190"/>
</mask>
<g mask="url(#mask0)">
<path d="M28.0497 6.82066C28.3181 6.62814 28.1868 6.28787 27.8441 6.12913C27.5022 5.97124 15.4298 0.313254 15.4298 0.313254C15.1787 0.191667 14.8451 0 14.443 0C14.0409 0 13.7073 0.191667 13.4554 0.313254C13.4554 0.313254 1.38379 5.97124 1.04193 6.12913C0.700067 6.28787 0.567947 6.62814 0.836316 6.82066C1.04688 6.97179 13.3745 15.639 13.3745 15.639C13.5669 15.7843 13.9153 16.0536 14.443 16.0536C14.9698 16.0536 15.3183 15.7843 15.5115 15.639C15.5115 15.639 27.8391 6.97179 28.0497 6.82066Z" fill="#8E9190"/>
</g>
<mask id="mask1" mask-type="alpha" maskUnits="userSpaceOnUse" x="0" y="0" width="29" height="32">
<path d="M28.886 32H0V0H28.886V32Z" fill="#8E9190"/>
</mask>
<g mask="url(#mask1)">
<path d="M13.3233 19.8241C13.2622 18.7661 13.0599 18.414 12.2894 17.834L0.311123 8.60353C0.108814 8.44817 -0.083585 8.66601 0.0378001 8.94465L13.2316 31.8223C13.3835 32.0714 13.7287 32.0815 13.7089 31.7083L13.3233 19.8241Z" fill="#8E9190"/>
</g>
<mask id="mask2" mask-type="alpha" maskUnits="userSpaceOnUse" x="0" y="0" width="29" height="32">
<path d="M28.886 32H0V0H28.886V32Z" fill="#8E9190"/>
</mask>
<g mask="url(#mask2)">
<path d="M28.574 8.60362L16.5965 17.8332C15.8261 18.4133 15.6229 18.7662 15.5627 19.8242L15.177 31.7084C15.1564 32.0824 15.5016 32.0715 15.6535 31.8224L28.8481 8.94558C28.9695 8.66526 28.7771 8.44826 28.574 8.60362Z" fill="#8E9190"/>
</g>
<path d="M53.0559 31.5129C52.8858 31.5129 52.7239 31.431 52.6199 31.2926L41.3112 16.3738C41.284 16.3383 41.251 16.3214 41.2105 16.3214C41.1725 16.3214 41.0734 16.3459 41.0734 16.4582V30.9514C41.0734 31.2613 40.8274 31.5129 40.5235 31.5129H37.1189C36.815 31.5129 36.569 31.2613 36.569 30.9514V8.73324C36.569 8.42336 36.815 8.1709 37.1189 8.1709H40.4095C40.578 8.1709 40.7407 8.2528 40.8439 8.3879L51.8065 22.8567C51.8329 22.893 51.8668 22.9107 51.9073 22.9107C51.9461 22.9107 52.0443 22.8854 52.0443 22.7731V8.73324C52.0443 8.42336 52.2912 8.1709 52.5951 8.1709H55.998C56.3027 8.1709 56.5488 8.42336 56.5488 8.73324V30.9514C56.5488 31.2613 56.3027 31.5129 55.998 31.5129H53.0559Z" fill="#8E9190"/>
<path d="M96.069 31.5129C95.8874 31.5129 95.7172 31.4226 95.6157 31.2698L90.3301 23.4857C90.2657 23.392 90.1715 23.381 90.1344 23.381C90.0534 23.381 89.9816 23.4199 89.9362 23.4857L84.62 31.2731C84.5168 31.4234 84.3475 31.5129 84.1692 31.5129H80.2312C80.0239 31.5129 79.8364 31.3964 79.7431 31.209C79.6474 31.0207 79.6639 30.7961 79.7853 30.6238L87.4738 19.6481L80.099 9.06C79.9785 8.88775 79.9628 8.664 80.0578 8.47655C80.1527 8.28826 80.3393 8.1709 80.5466 8.1709H84.6126C84.7918 8.1709 84.961 8.26209 85.0634 8.41323L90.0344 15.7439C90.0988 15.8393 90.1938 15.8503 90.2318 15.8503C90.3111 15.8503 90.3821 15.8114 90.4292 15.7439L95.4282 8.41238C95.5315 8.26124 95.6999 8.1709 95.8799 8.1709H99.8171C100.025 8.1709 100.213 8.28826 100.307 8.47655C100.402 8.664 100.386 8.88775 100.265 9.06L92.9229 19.584L100.583 30.6264C100.703 30.7978 100.72 31.0215 100.625 31.209C100.53 31.3964 100.342 31.5129 100.136 31.5129H96.069Z" fill="#8E9190"/>
<path d="M122.401 8.73434V11.9868C122.401 12.2992 122.158 12.5483 121.851 12.5483H115.76C115.547 12.5483 115.378 12.7281 115.378 12.9451V30.9475C115.378 31.2607 115.128 31.5098 114.828 31.5098H111.33C111.023 31.5098 110.78 31.2607 110.78 30.9475V12.9451C110.78 12.7281 110.605 12.5483 110.392 12.5483H102.884C102.678 12.5483 102.491 12.4334 102.396 12.2418C102.297 12.0569 102.316 11.8331 102.433 11.6609L104.695 8.42109C104.796 8.26826 104.965 8.17285 105.151 8.17285H121.851C122.158 8.17285 122.401 8.42109 122.401 8.73434Z" fill="#8E9190"/>
<path d="M77.8737 27.5684C77.967 27.7542 77.948 27.9779 77.8299 28.1493L75.6178 31.3241C75.5368 31.4338 75.4303 31.5098 75.2809 31.5098H61.154C60.8534 31.5098 60.604 31.2616 60.604 30.9483V8.73434C60.604 8.42109 60.8534 8.17285 61.154 8.17285H75.2809C75.4303 8.17285 75.5368 8.24969 75.6178 8.35861L77.8299 11.5334C77.948 11.7056 77.967 11.9294 77.8737 12.1143C77.7738 12.3059 77.5855 12.4208 77.3799 12.4208H65.3207C65.2406 12.4208 65.1712 12.4917 65.1712 12.5744V17.622H75.7301C76.0364 17.622 76.28 17.8702 76.28 18.1835V21.3076C76.28 21.62 76.0364 21.8699 75.7301 21.8699H65.1712V27.1091C65.1712 27.1918 65.2406 27.2619 65.3207 27.2619H77.3799C77.5855 27.2619 77.7738 27.3767 77.8737 27.5684Z" fill="#8E9190"/>
<path d="M135.446 31.5175L125.469 8.16699H128.016L136.02 27.4021C136.167 27.7559 136.656 27.7567 136.804 27.403L144.848 8.16699H147.301L137.323 31.5175H135.446Z" fill="#8E9190"/>
<path d="M166.067 31.5264L158.999 22.128H152.581C152.392 22.128 152.238 22.285 152.238 22.4792V31.5264H149.924V8.1582H159.574C162.279 8.1582 164.581 8.98735 166.055 10.4937C167.184 11.6496 167.832 13.2733 167.832 14.9485C167.832 18.5251 165.517 21.0117 161.607 21.7421L169 31.5264H166.067ZM159.384 19.9234C163.11 19.9234 165.517 18.021 165.517 15.0785C165.517 12.1216 163.26 10.3949 159.479 10.3949H152.54C152.373 10.3949 152.238 10.5342 152.238 10.7039V19.9234H159.384Z" fill="#8E9190"/>
</svg>
