<svg width="141" height="34" viewBox="0 0 141 34" fill="none" xmlns="http://www.w3.org/2000/svg">
<mask id="mask0" mask-type="alpha" maskUnits="userSpaceOnUse" x="0" y="0" width="29" height="31">
<path d="M8.93243 1.05613C10.6901 0.352307 12.5523 0.000976562 14.52 0.000976562C16.487 0.000976562 18.3431 0.352692 20.0875 1.05613C21.8319 1.75994 23.3664 2.76846 24.6911 4.08077C26.0161 5.39346 27.0649 6.97625 27.8389 8.83029C28.613 10.6842 29 12.7484 29 15.0214C29 17.2951 28.613 19.3508 27.8391 21.1914C27.0649 23.032 26.0161 24.6081 24.6913 25.9216C23.3663 27.2339 21.8318 28.242 20.0873 28.9456C18.3429 29.6495 16.4869 30.001 14.5198 30.001C12.5522 30.001 10.69 29.6495 8.93231 28.9456C7.17476 28.2421 5.63346 27.2334 4.30903 25.9216C2.98399 24.6081 1.93451 23.032 1.16061 21.1914C0.386701 19.3508 0 17.2948 0 15.0214C0 12.748 0.386701 10.6843 1.16086 8.83029C1.93463 6.97676 2.98424 5.3932 4.30878 4.08077C5.63358 2.76795 7.17488 1.75956 8.93243 1.05613ZM11.7541 22.8618C12.6767 23.1875 13.6051 23.3509 14.5402 23.3509C15.4752 23.3509 16.4037 23.188 17.3261 22.8618C18.2487 22.536 19.0763 22.0276 19.8086 21.3364C20.5417 20.6458 21.1357 19.779 21.5907 18.7364C22.0454 17.6936 22.2731 16.4422 22.2731 14.9818C22.2731 13.5486 22.0455 12.2969 21.5907 11.2282C21.1357 10.1587 20.5417 9.2858 19.8086 8.60773C19.0875 7.93723 18.2437 7.41868 17.3261 7.0826C16.4037 6.74395 15.4752 6.57431 14.5402 6.57431C13.6051 6.57431 12.6767 6.74395 11.7541 7.0826C10.8323 7.42163 9.99805 7.93031 9.25293 8.60773C8.50719 9.2858 7.90711 10.1587 7.4522 11.2282C6.99717 12.2969 6.77003 13.5488 6.77003 14.9818C6.77003 16.4421 6.99717 17.6936 7.4522 18.7364C7.90711 19.779 8.50719 20.6458 9.25293 21.3364C9.99805 22.0276 10.8323 22.536 11.7541 22.8618Z" fill="#8E9190"/>
</mask>
<g mask="url(#mask0)">
<path d="M-1 31H30V-1H-1V31Z" fill="#8E9190"/>
</g>
<mask id="mask1" mask-type="alpha" maskUnits="userSpaceOnUse" x="25" y="0" width="32" height="29">
<path d="M50.3371 0.579989C49.371 0.966608 48.5494 1.51257 47.873 2.21764C47.1966 2.92121 46.6856 3.75712 46.3409 4.72397C45.9956 5.69146 45.8227 6.76851 45.8227 7.95701V9.73875H38.5752V7.95701C38.5752 7.43218 38.6652 7.00366 38.8449 6.6722C39.024 6.34086 39.2449 6.0782 39.5072 5.88458C39.7658 5.69346 40.062 5.55912 40.3771 5.49121C40.6944 5.42204 40.9913 5.38764 41.2675 5.38764C41.7368 5.38764 42.1233 5.40828 42.4273 5.45005C42.7306 5.49121 42.9653 5.53948 43.1308 5.59477L43.4573 0.455037C43.1538 0.3172 42.3851 0.207006 41.8057 0.124079C41.2257 0.0410266 40.6731 0.000248354 40.1485 0.000248354C38.9065 0.000248354 37.7947 0.193497 36.815 0.580615C35.8347 0.966983 35.0065 1.5132 34.3299 2.21802C33.6533 2.92184 33.1426 3.75786 32.7974 4.72472C32.4527 5.69208 32.2797 6.76926 32.2797 7.95738V9.73913H25V15.0446H32.28V29H38.5751V15.044H45.823V29H52.1177V15.044H55.4145L56.591 9.73888H52.1177V7.95738C52.1177 7.4323 52.2078 7.00378 52.387 6.67232C52.5667 6.34099 52.7875 6.07833 53.0497 5.8847C53.308 5.69333 53.6047 5.55925 53.9196 5.49133C54.2368 5.42216 54.5335 5.38776 54.8099 5.38776C55.2792 5.38776 55.6657 5.4084 55.9697 5.45018C56.2734 5.49133 56.5076 5.53961 56.6735 5.59489L57 0.414259C56.6963 0.276047 55.9279 0.172609 55.3485 0.103566C54.7851 0.035648 54.2179 0.000875793 53.6502 2.42402e-07C52.4077 -0.000249915 51.3033 0.193121 50.3371 0.579989Z" fill="#8E9190"/>
</mask>
<g mask="url(#mask1)">
<path d="M24 30H58V-1H24V30Z" fill="#8E9190"/>
</g>
<mask id="mask2" mask-type="alpha" maskUnits="userSpaceOnUse" x="57" y="7" width="20" height="22">
<path d="M63.2371 7.77219C64.4443 7.25752 65.6918 7 66.98 7C70.0922 7 72.5398 7.9322 74.3236 9.7966C76.1079 11.6618 77 14.2774 77 17.6449C77 18.0903 76.9868 18.5151 76.9596 18.918C76.9332 19.3221 76.906 19.5511 76.8793 19.6068H62.9558C62.9823 20.1918 63.1229 20.7274 63.378 21.2141C63.6318 21.7003 63.9735 22.1325 64.3842 22.4872C64.7996 22.8488 65.2763 23.1272 65.8128 23.323C66.3493 23.5175 66.9127 23.6146 67.5031 23.6146C68.6297 23.6146 69.5082 23.3637 70.1389 22.8637C70.7693 22.3621 71.232 21.7088 71.527 20.9012L76.6383 22.4039C76.3965 23.2942 76.0208 24.1438 75.512 24.9509C75.0015 25.7573 74.358 26.46 73.5796 27.0581C72.8014 27.6574 71.8959 28.1304 70.8635 28.4781C69.8303 28.8261 68.6835 29 67.4223 29C66.0542 29 64.7395 28.7498 63.4788 28.248C62.2177 27.748 61.1043 27.0242 60.1383 26.0777C59.1729 25.1316 58.4081 23.9768 57.8449 22.6129C57.2813 21.2491 57 19.6901 57 17.9371C57 16.2672 57.2746 14.7575 57.8247 13.4079C58.3748 12.058 59.1124 10.9102 60.0379 9.96379C60.9542 9.02378 62.0411 8.27918 63.2371 7.77219ZM63.5081 14.1706C63.3335 14.588 63.2328 14.992 63.2061 15.3819H71.2142C71.1877 14.9919 71.1005 14.588 70.9526 14.1706C70.8055 13.7534 70.5702 13.3776 70.2485 13.0434C69.9268 12.7095 69.5175 12.4309 69.0212 12.2087C68.5249 11.9858 67.9144 11.8747 67.1903 11.8747C66.546 11.8747 65.9826 11.9858 65.5003 12.2087C65.017 12.4309 64.6077 12.7095 64.2724 13.0434C63.9373 13.3776 63.6818 13.7534 63.5081 14.1706Z" fill="#8E9190"/>
</mask>
<g mask="url(#mask2)">
<path d="M55 30H78V6H55.0001L55 30Z" fill="#8E9190"/>
</g>
<mask id="mask3" mask-type="alpha" maskUnits="userSpaceOnUse" x="80" y="7" width="13" height="22">
<path d="M89.8177 7.08411C89.3331 7.14994 88.8218 7.25961 88.3285 7.48559C87.8356 7.71094 86.4999 8.42431 86.0471 9.57329V7.06187H80V29H86.2527V18.9207C86.2527 17.8754 86.3834 16.9863 86.6439 16.2526C86.9045 15.5182 87.2538 14.9257 87.6932 14.4734C88.1318 14.022 88.6391 13.6968 89.215 13.4994C89.7908 13.3016 90.3361 13.15 91.0254 13.0942C91.714 13.0389 92.5378 13.1129 92.8942 13.1976L93 7.26216C92.5335 7.12066 91.8302 7 91.3538 7C90.897 6.99987 90.312 7.01726 89.8177 7.08411Z" fill="#8E9190"/>
</mask>
<g mask="url(#mask3)">
<path d="M78 30H94V6H78V30Z" fill="#8E9190"/>
</g>
<mask id="mask4" mask-type="alpha" maskUnits="userSpaceOnUse" x="94" y="0" width="23" height="30">
<path d="M110.534 0V17.9684C110.534 19.7979 110.084 21.1631 109.184 22.0634C108.283 22.9643 107.055 23.4146 105.5 23.4146C103.945 23.4146 102.717 22.9643 101.817 22.0634C100.917 21.1632 100.466 19.798 100.466 17.9684V0H94V18.5176C94 20.4034 94.3002 22.0564 94.9007 23.4775C95.5009 24.8984 96.3195 26.0953 97.3565 27.0657C98.3928 28.0368 99.6069 28.7682 100.999 29.2604C102.39 29.7532 103.89 30 105.5 30C107.083 30 108.576 29.7532 109.982 29.2604C111.387 28.7688 112.608 28.0369 113.644 27.0657C114.681 26.0953 115.5 24.8984 116.1 23.4775C116.7 22.0565 117 20.4034 117 18.5176V0H110.534Z" fill="#8E9190"/>
</mask>
<g mask="url(#mask4)">
<path d="M93 31H119V-1H93V31Z" fill="#8E9190"/>
</g>
<mask id="mask5" mask-type="alpha" maskUnits="userSpaceOnUse" x="119" y="6" width="22" height="28">
<path d="M127.438 6.81904C128.502 6.27251 129.79 6 131.301 6C132.813 6 134.17 6.27251 135.373 6.81904C136.578 7.36507 137.592 8.12125 138.418 9.08655C139.244 10.053 139.88 11.2007 140.328 12.531C140.776 13.8604 141 15.5299 141 17.0977C141 18.6939 140.755 20.384 140.265 21.7278C139.775 23.0721 139.09 24.227 138.208 25.1931C137.326 26.158 136.276 26.9146 135.059 27.4603C133.841 28.0066 132.505 28.2798 131.049 28.2798C129.706 28.2798 128.544 28.0765 127.565 27.671C126.585 27.2645 125.857 26.7679 125.382 26.1799V34H119V6.5042H125.172V8.64598C125.62 7.97384 126.375 7.36507 127.438 6.81904ZM128.486 22.0114C129.054 22.2349 129.66 22.348 130.271 22.3475C130.886 22.3475 131.481 22.2418 132.055 22.0321C132.629 21.8226 133.139 21.4998 133.587 21.0667C134.035 20.633 134.385 20.0862 134.637 19.4284C134.889 18.7707 135.015 18.0078 135.015 17.1405C135.015 16.2716 134.889 15.4055 134.637 14.7617C134.385 14.1173 134.035 13.5787 133.587 13.1447C133.139 12.7108 132.629 12.3888 132.055 12.1787C131.484 11.9694 130.88 11.863 130.271 11.8642C129.655 11.8642 129.06 11.9688 128.486 12.1787C127.917 12.3862 127.401 12.7161 126.975 13.1451C126.541 13.5787 126.197 14.1173 125.946 14.7617C125.694 15.4055 125.568 16.2717 125.568 17.1405C125.568 18.0078 125.694 18.7632 125.946 19.4076C126.198 20.0515 126.541 20.5909 126.975 21.0245C127.403 21.4553 127.919 21.7913 128.486 22.0114Z" fill="#8E9190"/>
</mask>
<g mask="url(#mask5)">
<path d="M118 36H142V5H118V36Z" fill="#8E9190"/>
</g>
</svg>
