<svg width="157" height="100" viewBox="0 0 157 100" fill="none" xmlns="http://www.w3.org/2000/svg">
<path fill-rule="evenodd" clip-rule="evenodd" d="M155.602 65.044C155.012 65.0892 154.845 65.9386 152.401 66.1256L147.033 66.5356C147.027 66.5303 147.022 66.5243 147.015 66.5197L48.4744 74.0402C47.4063 74.1216 46.3825 74.6206 45.6277 75.4278L34.3557 87.4878L34.3505 76.2787C34.3497 75.5838 33.7823 75.0645 33.0838 75.118L19.5992 76.1468L3.70487 77.199C1.68267 77.3535 -0.000749268 79.2385 2.50188e-07 81.9994C0.00074977 83.1714 0.338783 84.6516 0.927905 84.6064C1.51853 84.5612 1.68567 83.7118 4.12985 83.5256L26.8335 81.7928C27.5486 81.7665 28.1227 82.2993 28.1235 83.0169L28.131 98.1912C28.1325 99.9277 30.2476 100.637 31.4843 99.3142L48.1873 81.4446C48.9578 80.6201 50.0034 80.1098 51.0932 80.0269L118.762 74.8625L152.825 72.4514C154.848 72.2969 156.531 70.4119 156.53 67.6511C156.53 66.479 156.192 64.9988 155.602 65.044Z" fill="#8E9190"/>
<path fill-rule="evenodd" clip-rule="evenodd" d="M151.842 43.6261C152.895 38.1617 157.632 41.9302 156.93 44.8094C155.351 49.6979 151.052 58.9489 143.07 59.585C136.141 60.1368 131.579 52.5613 131.579 46.7396C131.579 44.0052 139.738 40.5336 139.738 32.4177C139.738 30.2124 138.597 28.8037 136.93 28.9363C134.824 29.1044 130.877 32.2413 128.158 41.8074V56.9795C128.158 58.6557 128.246 60.7654 125.702 60.9681C123.959 61.1075 121.526 60.6885 121.495 57.4807C119.571 59.8858 117.036 61.6585 113.685 61.9253C109.563 62.2532 104.65 60.3516 104.65 52.5891C104.65 46.9439 106.562 42.6455 109.369 34.8364L101.405 33.3531C101.317 36.8005 100.791 44.5162 99.2118 49.7582C99.1848 49.8494 99.1466 49.9195 99.1151 50.0032C97.5306 55.87 94.0131 63.4923 86.7563 64.0696C83.6862 64.3138 81.3177 63.0031 80.0016 60.9907C78.2477 63.1591 75.7915 64.9424 72.4584 65.2085C68.4927 65.5242 65.6258 63.7885 63.9087 60.8219C61.6376 63.8337 58.5638 66.3149 54.5644 66.6337C47.8105 67.1711 44.2135 62.7823 44.2135 55.8143V24.7194C42.3772 26.2999 40.3528 27.7357 38.8635 28.454C39.2143 30.8967 39.3896 33.2641 39.3896 35.3813C39.3896 57.6978 29.7411 68.6107 19.4779 69.4277C6.67088 70.4475 0.00390625 58.0113 0.00390625 42.2219C0.00390625 12.232 17.7233 3.94044 18.4248 3.62012C18.6887 3.51083 19.0387 3.39401 19.3902 3.36612C21.3195 3.21236 22.4603 5.76818 22.4603 7.70897C22.4603 8.85536 22.1095 9.76584 21.3195 9.82839C21.1441 9.84271 21.0564 9.85025 20.881 9.77488C17.811 11.7835 7.02166 18.2006 7.02166 40.7816C7.02166 56.7466 13.5132 63.2865 19.741 62.7913C27.0211 62.211 32.4596 52.4279 32.548 35.9255C32.548 34.25 32.4596 32.4049 32.2842 30.5659L30.618 30.6985C23.3372 31.2781 17.4602 27.4244 17.4602 20.6328C17.4602 16.045 20.7056 11.9938 25.4426 11.6169C31.8457 11.1074 35.5304 15.9296 37.4596 21.9502C39.8873 20.8076 42.773 17.9956 44.2135 16.4535V15.6794C44.2135 9.06414 47.8105 4.10249 52.1959 3.75352C59.9145 3.1385 60.0029 12.394 60.0029 17.3323C60.0029 30.2998 52.0205 48.7528 50.8798 49.9022V55.0183C50.8798 58.5464 52.2836 60.993 55.529 60.7344C58.3772 60.5083 60.6962 57.5538 62.0948 54.4485C62.0506 53.884 62.0199 53.3104 62.0199 52.7203C62.0199 37.9899 72.1954 28.1819 82.897 27.3294C85.2647 27.141 86.9316 28.4193 86.9316 30.7128C86.9316 32.2127 86.6686 32.7629 85.7916 32.8323C85.0024 32.8956 84.1247 32.7885 83.2478 32.8586C76.5815 33.3892 68.7738 39.7452 68.7738 52.4459C68.7738 57.0338 70.7038 59.5263 73.7746 59.2821C76.1423 59.0936 77.7216 56.8498 78.6862 54.3031V40.7198C78.6862 39.0435 78.3354 38.5423 78.3354 37.925C78.3354 37.0432 79.3885 36.3415 80.6162 36.2435C83.5108 36.0136 85.3532 37.6303 85.3532 39.7483V54.3016C85.3532 56.2424 86.2301 58.2894 88.3355 58.1229C91.844 57.8432 93.4232 52.0714 94.2125 48.128C94.2275 48.0488 94.2485 47.9825 94.2649 47.9071C94.2777 47.831 94.2799 47.7564 94.2994 47.6795C95.2648 44.0745 95.6148 36.7251 95.7033 32.2195C93.5102 31.159 91.9309 29.433 91.9309 26.875C91.9309 24.4043 94.0363 22.6489 96.3171 22.468C98.4218 22.3 100.878 23.163 101.843 26.7024C105.904 27.2556 111.386 28.4133 111.386 28.4133C113.699 28.8896 115.948 30.9608 115.597 33.0177C115.597 34.0759 111.316 42.7073 111.316 51.5287C111.316 53.9986 112.457 56.2017 114.826 56.0125C118.86 55.6914 120.352 49.9278 121.141 45.9829C121.228 45.5164 121.348 45.1131 121.492 44.7679V4.49743C121.492 1.93935 120.614 1.83308 120.614 1.2158C120.614 0.597757 122.194 0.119908 123.421 0.021926C126.317 -0.208708 128.158 1.40874 128.158 3.52591V31.0467C130.965 26.942 134.474 23.2225 138.421 22.9082C143.86 22.4748 146.228 26.8735 146.228 31.8125C146.228 38.6049 141.316 44.024 137.807 46.861C138.684 50.5843 140.614 53.9586 144.035 53.6865C148.07 53.3655 151.052 47.5702 151.842 43.6261ZM30.3549 24.6334L31.4073 24.5505C30.5303 20.5627 28.7757 17.7031 26.0564 17.9194C24.3018 18.0589 23.8633 19.3289 23.8633 20.2996C23.8633 22.416 25.7934 24.9967 30.3549 24.6334ZM50.8798 13.208V38.3471C52.7221 34.4957 54.5644 22.7055 54.5644 17.8546C54.5644 12.0322 53.5998 9.4636 52.1959 9.57515C51.2313 9.65203 50.8798 11.7971 50.8798 13.208Z" fill="#8E9190"/>
</svg>
