<svg width="99" height="70" viewBox="0 0 99 70" fill="none" xmlns="http://www.w3.org/2000/svg">
<path d="M41.1978 7.63452C44.3906 4.27385 48.8358 2.18964 53.7519 2.18964C60.2871 2.18964 65.9887 5.87085 69.025 11.3357C71.6636 10.1447 74.5842 9.48225 77.6572 9.48225C89.4441 9.48225 99 19.2195 99 31.2305C99 43.2428 89.4441 52.9801 77.6572 52.9801C76.2187 52.9801 74.8127 52.8348 73.4532 52.557C70.7794 57.375 65.6841 60.6303 59.8358 60.6303C57.3876 60.6303 55.0719 60.059 53.0101 59.0433C50.2996 65.484 43.9845 70 36.6244 70C28.9596 70 22.4273 65.1007 19.9199 58.2298C18.8241 58.4649 17.6888 58.5874 16.524 58.5874C7.3982 58.5874 0 51.0369 0 41.7213C0 35.4787 3.32397 30.0281 8.26269 27.1119C7.2459 24.7485 6.68038 22.14 6.68038 19.3976C6.68038 8.68447 15.29 -3.33747e-06 25.9092 -3.33747e-06C32.144 -3.33747e-06 37.6849 2.99454 41.1978 7.63452Z" fill="#8E9190"/>
<path d="M14.3391 36.3005C14.2771 36.4644 14.3617 36.4986 14.3815 36.527C14.5676 36.6638 14.7566 36.7621 14.947 36.8718C15.9567 37.4132 16.91 37.5713 17.9071 37.5713C19.9379 37.5713 21.1986 36.48 21.1986 34.7235V34.6893C21.1986 33.0652 19.7757 32.4754 18.4402 32.0495L18.2667 31.9925C17.2598 31.662 16.3911 31.3771 16.3911 30.7075V30.6719C16.3911 30.0992 16.8988 29.6775 17.6857 29.6775C18.56 29.6775 19.598 29.971 20.2665 30.3442C20.2665 30.3442 20.4625 30.4724 20.5344 30.2801C20.5739 30.1775 20.9124 29.2572 20.9476 29.1575C20.9857 29.0492 20.918 28.9694 20.8489 28.9267C20.0859 28.458 19.0311 28.1375 17.9395 28.1375L17.7365 28.1389C15.8777 28.1389 14.5803 29.2729 14.5803 30.8984V30.9326C14.5803 32.6464 16.0117 33.202 17.3529 33.5895L17.5686 33.6564C18.5459 33.9599 19.3879 34.2206 19.3879 34.9158V34.95C19.3879 35.5854 18.8407 36.0583 17.9579 36.0583C17.6152 36.0583 16.5222 36.0512 15.3418 35.2976C15.1994 35.2135 15.1162 35.1523 15.0062 35.0853C14.9484 35.0483 14.8031 34.9842 14.7397 35.1779L14.3391 36.3005Z" fill="white"/>
<path d="M44.0688 36.3005C44.0067 36.4644 44.0913 36.4986 44.1111 36.527C44.2972 36.6638 44.4862 36.7621 44.6766 36.8718C45.6863 37.4132 46.6397 37.5713 47.6367 37.5713C49.6675 37.5713 50.9282 36.48 50.9282 34.7235V34.6893C50.9282 33.0652 49.5053 32.4754 48.1698 32.0495L47.9963 31.9925C46.9894 31.662 46.1207 31.3771 46.1207 30.7075V30.6719C46.1207 30.0992 46.6284 29.6775 47.4153 29.6775C48.2897 29.6775 49.3276 29.971 49.9961 30.3442C49.9961 30.3442 50.1921 30.4724 50.264 30.2801C50.3035 30.1775 50.642 29.2572 50.6772 29.1575C50.7153 29.0492 50.6476 28.9694 50.5785 28.9267C49.8156 28.458 48.7607 28.1375 47.6691 28.1375L47.4661 28.1389C45.6074 28.1389 44.3099 29.2729 44.3099 30.8984V30.9326C44.3099 32.6464 45.7413 33.202 47.0825 33.5895L47.2982 33.6564C48.2756 33.9599 49.1189 34.2206 49.1189 34.9158V34.95C49.1189 35.5854 48.5703 36.0583 47.6875 36.0583C47.3448 36.0583 46.2518 36.0512 45.0715 35.2976C44.929 35.2135 44.8444 35.1551 44.7372 35.0853C44.7006 35.0611 44.5285 34.9942 44.4693 35.1779L44.0688 36.3005Z" fill="white"/>
<path d="M64.3644 32.8596C64.3644 33.8526 64.1811 34.6347 63.8201 35.1875C63.4633 35.7345 62.9231 36.0009 62.1701 36.0009C61.4156 36.0009 60.8783 35.7359 60.5271 35.1875C60.1717 34.6361 59.9912 33.8526 59.9912 32.8596C59.9912 31.8681 60.1717 31.0874 60.5271 30.5404C60.8783 29.999 61.4156 29.7355 62.1701 29.7355C62.9231 29.7355 63.4633 29.999 63.8215 30.5404C64.1811 31.0874 64.3644 31.8681 64.3644 32.8596ZM66.0595 31.019C65.8931 30.4506 65.6336 29.9492 65.2881 29.5317C64.9426 29.1129 64.5054 28.7767 63.9865 28.5317C63.4689 28.288 62.8568 28.1641 62.1701 28.1641C61.4818 28.1641 60.8698 28.288 60.3522 28.5317C59.8333 28.7767 59.3961 29.1129 59.0492 29.5317C58.7051 29.9506 58.4456 30.452 58.2777 31.019C58.1127 31.5846 58.0295 32.2029 58.0295 32.8596C58.0295 33.5164 58.1127 34.1361 58.2777 34.7002C58.4456 35.2672 58.7036 35.7687 59.0506 36.1875C59.3961 36.6064 59.8347 36.9412 60.3522 37.1791C60.8712 37.417 61.4818 37.5381 62.1701 37.5381C62.8568 37.5381 63.4675 37.417 63.9865 37.1791C64.504 36.9412 64.9426 36.6064 65.2881 36.1875C65.6336 35.7701 65.8931 35.2687 66.0595 34.7002C66.226 34.1347 66.3092 33.515 66.3092 32.8596C66.3092 32.2043 66.226 31.5846 66.0595 31.019Z" fill="white"/>
<path fill-rule="evenodd" clip-rule="evenodd" d="M79.9797 35.7353C79.9233 35.5687 79.764 35.6313 79.764 35.6313C79.5172 35.7268 79.2549 35.8151 78.9756 35.8593C78.6922 35.9034 78.3805 35.9262 78.0463 35.9262C77.2255 35.9262 76.574 35.6798 76.1072 35.1926C75.639 34.7053 75.3767 33.9175 75.3795 32.8519C75.3823 31.8817 75.6136 31.1523 76.0296 30.5967C76.4428 30.044 77.0718 29.7605 77.9109 29.7605C78.6104 29.7605 79.1435 29.8417 79.7019 30.0198C79.7019 30.0198 79.8359 30.0782 79.8994 29.9015C80.0474 29.4855 80.1574 29.1878 80.3154 28.7305C80.3605 28.6009 80.2505 28.5453 80.211 28.5296C79.991 28.4427 79.472 28.3017 79.08 28.2418C78.7133 28.1849 78.2846 28.1549 77.8079 28.1549C77.0958 28.1549 76.4611 28.2775 75.9182 28.5225C75.3767 28.7661 74.9169 29.1023 74.5531 29.5212C74.1892 29.94 73.9128 30.4415 73.7281 31.0085C73.5447 31.574 73.4517 32.1952 73.4517 32.8519C73.4517 34.2723 73.831 35.4205 74.5799 36.261C75.3301 37.1044 76.4569 37.5332 77.9264 37.5332C78.7951 37.5332 79.6864 37.3551 80.3267 37.1001C80.3267 37.1001 80.4494 37.0403 80.3958 36.8964L79.9797 35.7353Z" fill="white"/>
<path fill-rule="evenodd" clip-rule="evenodd" d="M82.9456 31.9085C83.026 31.3572 83.1769 30.8985 83.4095 30.5409C83.7607 29.9981 84.2966 29.7004 85.0497 29.7004C85.8028 29.7004 86.3006 29.9995 86.6574 30.5409C86.8943 30.8985 86.9972 31.3771 87.0381 31.9085H82.9456ZM88.6529 30.6962C88.509 30.1477 88.1522 29.5935 87.9181 29.3399C87.5486 28.9382 87.1876 28.6575 86.8294 28.5008C86.3612 28.2985 85.7999 28.1646 85.1851 28.1646C84.4686 28.1646 83.8185 28.2857 83.2911 28.5364C82.7622 28.7872 82.318 29.1291 81.9697 29.555C81.6213 29.9796 81.359 30.4853 81.1926 31.0594C81.0248 31.6307 80.9402 32.2533 80.9402 32.91C80.9402 33.5782 81.0276 34.2007 81.2011 34.7606C81.376 35.3247 81.6552 35.8219 82.0331 36.2337C82.4097 36.6482 82.8948 36.973 83.4758 37.1995C84.0526 37.4246 84.7535 37.5415 85.5588 37.54C87.2158 37.5343 88.0888 37.1611 88.4484 36.9602C88.5119 36.9246 88.5725 36.8619 88.4963 36.6824L88.1212 35.6211C88.0648 35.4629 87.9054 35.5213 87.9054 35.5213C87.4951 35.6752 86.9112 35.9516 85.5503 35.9487C84.6604 35.9473 84.0004 35.6823 83.5872 35.2678C83.1627 34.8432 82.9554 34.2192 82.9188 33.3388L88.6571 33.3445C88.6571 33.3445 88.808 33.3417 88.8235 33.1935C88.8292 33.1308 89.021 32.0025 88.6529 30.6962" fill="white"/>
<path fill-rule="evenodd" clip-rule="evenodd" d="M36.9899 31.9085C37.0717 31.3572 37.2212 30.8985 37.4539 30.5409C37.805 29.9981 38.3409 29.7004 39.094 29.7004C39.8471 29.7004 40.3449 29.9995 40.7031 30.5409C40.9386 30.8985 41.0415 31.3771 41.0824 31.9085H36.9899ZM42.6958 30.6962C42.5519 30.1477 42.1965 29.5935 41.9624 29.3399C41.593 28.9382 41.2319 28.6575 40.8737 28.5008C40.4055 28.2985 39.8442 28.1646 39.2294 28.1646C38.5144 28.1646 37.8628 28.2857 37.3354 28.5364C36.8065 28.7872 36.3623 29.1291 36.014 29.555C35.6657 29.9796 35.4033 30.4853 35.2369 31.0594C35.0705 31.6307 34.9845 32.2533 34.9845 32.91C34.9845 33.5782 35.0719 34.2007 35.2454 34.7606C35.4203 35.3247 35.6995 35.8219 36.0774 36.2337C36.454 36.6482 36.9391 36.973 37.5201 37.1995C38.0969 37.4246 38.7978 37.5415 39.6031 37.54C41.2601 37.5343 42.1331 37.1611 42.4927 36.9602C42.5562 36.9246 42.6168 36.8619 42.5407 36.6824L42.1669 35.6211C42.1091 35.4629 41.9498 35.5213 41.9498 35.5213C41.5394 35.6752 40.9569 35.9516 39.5932 35.9487C38.7048 35.9473 38.0448 35.6823 37.6315 35.2678C37.2071 34.8432 36.9998 34.2192 36.9631 33.3388L42.7014 33.3445C42.7014 33.3445 42.8523 33.3417 42.8678 33.1935C42.8735 33.1308 43.0653 32.0025 42.6958 30.6962" fill="white"/>
<path d="M24.5865 35.7042C24.3623 35.5232 24.3313 35.4776 24.2551 35.3608C24.1423 35.1827 24.0845 34.9292 24.0845 34.6072C24.0845 34.0972 24.2509 33.7311 24.5964 33.4846C24.5922 33.486 25.09 33.0501 26.2605 33.0658C27.0827 33.0772 27.8174 33.1997 27.8174 33.1997V35.8352H27.8189C27.8189 35.8352 27.0898 35.9934 26.269 36.0432C25.1013 36.1144 24.5823 35.7027 24.5865 35.7042ZM26.8698 31.6312C26.6371 31.6141 26.3353 31.6041 25.9742 31.6041C25.4821 31.6041 25.0068 31.6668 24.5612 31.7879C24.1127 31.909 23.7094 32.0984 23.3624 32.3492C23.0141 32.6013 22.7335 32.9233 22.5304 33.3051C22.3273 33.6869 22.2244 34.1371 22.2244 34.6414C22.2244 35.1543 22.3118 35.6002 22.4867 35.9649C22.6615 36.331 22.914 36.6359 23.2355 36.8709C23.5542 37.106 23.9477 37.2784 24.4046 37.3824C24.8545 37.4864 25.365 37.5391 25.9235 37.5391C26.5115 37.5391 27.0982 37.4906 27.6665 37.3923C28.2292 37.2955 28.9203 37.1544 29.1121 37.1103C29.3024 37.0647 29.514 37.0063 29.514 37.0063C29.6564 36.9706 29.6451 36.8168 29.6451 36.8168L29.6423 31.5158C29.6423 30.3533 29.3349 29.4914 28.7299 28.9572C28.1277 28.4244 27.2406 28.1551 26.0941 28.1551C25.664 28.1551 24.9715 28.2149 24.5569 28.299C24.5569 28.299 23.3032 28.544 22.7871 28.9515C22.7871 28.9515 22.6742 29.0227 22.7363 29.1823L23.1424 30.2849C23.1932 30.4274 23.33 30.3789 23.33 30.3789C23.33 30.3789 23.3737 30.3618 23.4245 30.3319C24.5287 29.725 25.9249 29.7436 25.9249 29.7436C26.5454 29.7436 27.0221 29.8689 27.3436 30.1182C27.6567 30.3604 27.816 30.7265 27.816 31.4987V31.7437C27.3224 31.6725 26.8698 31.6312 26.8698 31.6312Z" fill="white"/>
<path fill-rule="evenodd" clip-rule="evenodd" d="M73.1518 28.6447C73.1956 28.5137 73.1039 28.451 73.0658 28.4368C72.9685 28.3983 72.4806 28.2943 72.104 28.2701C71.3834 28.2259 70.9829 28.3484 70.6247 28.5108C70.2693 28.6732 69.8744 28.9354 69.6544 29.2331V28.5279C69.6544 28.4296 69.5853 28.3513 69.4894 28.3513H68.0185C67.9226 28.3513 67.8535 28.4296 67.8535 28.5279V37.1739C67.8535 37.2708 67.9325 37.3506 68.0284 37.3506H69.536C69.6318 37.3506 69.7094 37.2708 69.7094 37.1739V32.8545C69.7094 32.2747 69.7729 31.6963 69.8998 31.333C70.0239 30.974 70.1931 30.6862 70.4018 30.4797C70.612 30.2745 70.8503 30.1306 71.1112 30.0494C71.3777 29.9668 71.6725 29.9397 71.8812 29.9397C72.1816 29.9397 72.5116 30.0181 72.5116 30.0181C72.6216 30.0309 72.6836 29.9625 72.7203 29.8614C72.819 29.5964 73.0983 28.8029 73.1518 28.6447Z" fill="white"/>
<path fill-rule="evenodd" clip-rule="evenodd" d="M59.0011 24.6374C58.8178 24.5804 58.6513 24.542 58.4342 24.5007C58.2142 24.4608 57.9519 24.4408 57.6543 24.4408C56.6163 24.4408 55.7984 24.7371 55.2244 25.3212C54.6533 25.9025 54.2654 26.7872 54.0708 27.9511L54.0003 28.3428H52.6972C52.6972 28.3428 52.5393 28.3371 52.5054 28.5109L52.2925 29.7176C52.277 29.8316 52.3263 29.9042 52.4787 29.9042H53.7465L52.4603 37.1584C52.3602 37.7425 52.2446 38.2226 52.1162 38.5873C51.9907 38.9463 51.868 39.2155 51.7157 39.4121C51.569 39.6002 51.4308 39.7398 51.1911 39.821C50.9937 39.8879 50.7652 39.9193 50.5156 39.9193C50.3774 39.9193 50.1926 39.8965 50.0558 39.868C49.9204 39.8409 49.8485 39.811 49.7456 39.7668C49.7456 39.7668 49.5975 39.7099 49.5383 39.8595C49.4917 39.9834 49.1533 40.9222 49.1124 41.0376C49.0729 41.153 49.1293 41.2428 49.2012 41.2698C49.3704 41.3297 49.496 41.3695 49.7258 41.4251C50.0446 41.5006 50.3139 41.5049 50.5663 41.5049C51.0938 41.5049 51.5761 41.4294 51.9752 41.2841C52.3757 41.1373 52.7254 40.8823 53.0357 40.5376C53.3699 40.1643 53.5801 39.774 53.7803 39.2397C53.9792 38.7126 54.1498 38.0573 54.2852 37.2937L55.5784 29.9042H57.4681C57.4681 29.9042 57.6275 29.9099 57.6599 29.7347L57.8743 28.5295C57.8884 28.4141 57.8404 28.3428 57.6867 28.3428H55.852C55.8619 28.3015 55.9451 27.6491 56.1552 27.035C56.2454 26.7743 56.4147 26.5621 56.5571 26.4168C56.6981 26.2743 56.8603 26.1732 57.038 26.1147C57.2199 26.0549 57.4272 26.0264 57.6543 26.0264C57.8263 26.0264 57.997 26.0464 58.1253 26.0734C58.303 26.1119 58.3721 26.1318 58.4187 26.1461C58.6062 26.2031 58.6316 26.1475 58.6683 26.0563L59.1069 24.8397C59.152 24.7086 59.0406 24.6531 59.0011 24.6374Z" fill="white"/>
<path fill-rule="evenodd" clip-rule="evenodd" d="M33.3661 37.1734C33.3661 37.2703 33.297 37.3486 33.2011 37.3486H31.6795C31.5836 37.3486 31.5159 37.2703 31.5159 37.1734V24.802C31.5159 24.7052 31.5836 24.6268 31.6795 24.6268H33.2011C33.297 24.6268 33.3661 24.7052 33.3661 24.802V37.1734Z" fill="white"/>
</svg>
