<svg width="169" height="41" viewBox="0 0 169 41" fill="none" xmlns="http://www.w3.org/2000/svg">
<path d="M0 8.60368C0 8.60368 4.20492 25.9143 4.87601 28.7241C5.65929 32.0036 7.07063 33.2106 11.1398 32.3966L13.7654 21.6641C14.4309 18.9983 14.8773 17.0977 15.305 14.3858H15.3803C15.6808 17.1243 16.1088 19.0062 16.6565 21.6735C16.6565 21.6735 17.7253 26.5457 18.2727 29.1048C18.8215 31.663 20.3487 33.2753 24.3345 32.3975L30.5907 8.6055H25.5395L23.4037 18.8919C22.8294 21.8861 22.3083 24.2257 21.9066 26.9649H21.8353C21.4702 24.2531 21.0058 22.0061 20.422 19.0889L18.198 8.6055H12.9351L10.5563 18.8248C9.88234 21.9301 9.252 24.4377 8.85116 27.084H8.77856C8.36806 24.5919 7.82131 21.4403 7.22925 18.4343C7.22925 18.4343 5.81592 11.125 5.32005 8.6055L0.000491817 8.60618L0 8.60368ZM48.1527 8.60368V32.3957H52.9619V27.3436V8.60254H48.1527V8.60368ZM115.885 8.60368V26.1555C115.885 28.5754 116.339 30.2709 117.308 31.3066C118.156 32.2125 119.551 32.7991 121.224 32.7991C122.645 32.7991 124.044 32.5282 124.704 32.2815L124.642 28.5058C124.151 28.6271 123.587 28.7242 122.815 28.7242C121.177 28.7242 120.627 27.6701 120.627 25.4973V18.782H124.816V14.2299H120.627V8.60374H115.885L115.885 8.60368ZM37.4053 14.1192C34.4165 14.1192 32.044 14.9622 30.7508 15.7131L31.6972 18.9689C32.8808 18.2193 34.7653 17.5987 36.5496 17.5987C39.5039 17.5911 39.9869 19.2769 39.9869 20.3582V20.6139C33.5496 20.6042 29.4834 22.8421 29.4834 27.4038C29.4834 30.189 31.5533 32.7991 35.1526 32.7991C37.3683 32.7991 39.2213 31.9113 40.3319 30.4889H40.4408C40.4408 30.4889 41.1762 33.578 45.2277 32.3967C45.0149 31.111 44.9457 29.7402 44.9457 28.0891V21.7332C44.9457 17.6822 43.2241 14.1192 37.4053 14.1192L37.4053 14.1192ZM66.1732 14.1192C63.1638 14.1192 61.8114 15.6513 60.9914 16.9513H60.9201V14.5227H56.3306V32.3969H61.1654V21.9144C61.1654 21.423 61.2213 20.9033 61.392 20.4512C61.7926 19.3958 62.77 18.1613 64.3304 18.1613C66.2812 18.1613 67.1941 19.8182 67.1941 22.2095V32.3967H72.0236V21.7874C72.0236 21.3183 72.0876 20.7532 72.225 20.3385C72.6221 19.138 73.6758 18.1611 75.1263 18.1611C77.104 18.1611 78.0532 19.7892 78.0532 22.603V32.3967H82.8861V21.8694C82.8861 16.3175 80.0801 14.1193 76.9125 14.1193C75.5097 14.1193 74.4024 14.4727 73.4013 15.0901C72.5598 15.6088 71.8066 16.3459 71.1482 17.3164H71.0769C70.3108 15.39 68.5136 14.1193 66.1723 14.1193L66.1732 14.1192ZM92.7222 14.1192C89.7341 14.1192 87.3621 14.9622 86.0677 15.7131L87.0154 18.9689C88.1978 18.2193 90.0835 17.5987 91.867 17.5987C94.8192 17.5911 95.3033 19.2769 95.3033 20.3582V20.6139C88.8669 20.6042 84.8002 22.8421 84.8002 27.4038C84.8002 30.189 86.8712 32.7991 90.4724 32.7991C92.6863 32.7991 94.54 31.9113 95.6485 30.4889H95.7579C95.7579 30.4889 96.4931 33.578 100.545 32.3967C100.332 31.111 100.264 29.7402 100.264 28.0891V21.7332C100.264 17.6822 98.5416 14.1192 92.7222 14.1192L92.7222 14.1192ZM112.8 14.1192C110.948 14.1192 108.842 15.3198 107.958 17.8935H107.823V14.5224H103.471V32.3966H108.432V23.2439C108.432 22.7501 108.462 22.3196 108.54 21.9249C108.907 20.0076 110.366 18.782 112.461 18.782C113.036 18.782 113.448 18.8445 113.893 18.9091V14.2297C113.52 14.1539 113.265 14.119 112.8 14.119L112.8 14.1192ZM40.1422 23.7813V26.0111C40.1422 26.3409 40.1136 26.6813 40.0227 26.9788C39.6505 28.2172 38.3735 29.2637 36.7772 29.2637C35.4463 29.2637 34.389 28.5049 34.389 26.8996C34.389 24.4441 37.0795 23.7653 40.1424 23.7813H40.1422ZM95.4591 23.7813V26.0111C95.4591 26.3409 95.43 26.6813 95.3396 26.9788C94.9674 28.2172 93.6909 29.2637 92.0945 29.2637C90.7634 29.2637 89.7059 28.5049 89.7059 26.8996C89.7059 24.4441 92.3964 23.7653 95.4593 23.7813H95.4591Z" fill="#8E9190"/>
<path d="M150.818 0C149.265 0 148.031 0.871031 148.031 1.93142L148.974 12.6575C149.078 13.3038 149.866 13.8022 150.819 13.8022C151.773 13.801 152.558 13.3029 152.664 12.6575L153.612 1.93142C153.612 0.871122 152.374 9.10787e-05 150.82 9.10787e-05L150.818 0ZM135.452 8.60398C134.646 8.62319 133.731 9.23627 133.148 10.2508C132.369 11.6017 132.507 13.1113 133.419 13.641L143.135 18.1869C143.742 18.4137 144.567 17.9807 145.044 17.1538C145.044 17.1537 145.044 17.1535 145.044 17.1534C145.524 16.3225 145.487 15.3882 144.982 14.9738L136.206 8.79001C135.978 8.65739 135.722 8.59771 135.453 8.60411L135.452 8.60398ZM166.183 8.60398C165.914 8.59757 165.658 8.65725 165.431 8.78987L156.654 14.9737C156.152 15.3881 156.115 16.3224 156.592 17.1532L156.593 17.1537C157.072 17.9805 157.894 18.4136 158.501 18.1868L168.221 13.641C169.136 13.1114 169.268 11.6018 168.494 10.2509C167.909 9.23634 166.992 8.62329 166.186 8.60407L166.183 8.60398ZM143.498 22.7556C143.373 22.7539 143.251 22.7734 143.137 22.8165L133.42 27.357C132.509 27.8889 132.371 29.3992 133.15 30.7515C133.926 32.0997 135.295 32.7407 136.207 32.212L144.983 26.033C145.488 25.6135 145.525 24.6795 145.045 23.8494L145.049 23.8512C144.661 23.1751 144.043 22.7629 143.498 22.7554L143.498 22.7556ZM158.141 22.7556C157.597 22.763 156.98 23.1752 156.591 23.8514L156.595 23.8495C156.117 24.6796 156.154 25.6136 156.656 26.0331L165.433 32.2121C166.343 32.7408 167.713 32.0999 168.493 30.7516C169.267 29.3993 169.136 27.889 168.221 27.3571L158.503 22.8166C158.389 22.7735 158.267 22.754 158.142 22.7557L158.141 22.7556ZM150.816 27.2009C149.865 27.202 149.079 27.6984 148.975 28.3429L148.032 39.0686C148.032 40.1307 149.266 41 150.819 41C152.374 41 153.611 40.1307 153.611 39.0686L152.666 28.3429C152.559 27.6984 151.774 27.2021 150.82 27.2009H150.816H150.816Z" fill="#8E9190"/>
</svg>
