<svg width="105" height="37" viewBox="0 0 105 37" fill="none" xmlns="http://www.w3.org/2000/svg">
<path d="M18.2417 17.9396H16.3663L12.4857 6.20285H12.4136L8.54022 17.9396H6.7009L0 0.50293H3.60651L7.5881 11.8326H7.65302L11.3533 0.50293H13.5172L17.2391 11.8326H17.304L21.2856 0.50293H24.8921L18.2417 17.9396Z" fill="#8E9190"/>
<path d="M28.4696 10.639C28.7436 11.9671 29.4775 13.1635 30.5487 14.0284C31.62 14.8934 32.9637 15.3744 34.3555 15.3913C35.4013 15.4044 36.4308 15.1384 37.3323 14.6224C38.2339 14.1064 38.973 13.36 39.4695 12.4641H42.8308C42.2008 14.1937 41.0361 15.691 39.4966 16.7505C37.9571 17.8101 36.1184 18.3799 34.2328 18.3817C29.1837 18.3817 25.1084 14.1278 25.1084 9.18598C25.0935 8.01514 25.3157 6.85291 25.7625 5.76567C26.2092 4.67843 26.8716 3.68747 27.7118 2.84939C28.5521 2.01131 29.5538 1.34252 30.6597 0.881207C31.7656 0.419899 32.954 0.17511 34.1571 0.16082C35.3602 0.14653 36.5544 0.363019 37.6715 0.797924C38.7887 1.23283 39.8068 1.87763 40.6678 2.69551C41.5289 3.51338 42.2159 4.48831 42.6898 5.56462C43.1636 6.64092 43.415 7.79752 43.4294 8.96837C43.4294 9.53696 43.3645 10.4144 43.3357 10.639H28.4696ZM40.0538 8.119C39.9102 6.72108 39.238 5.42495 38.1677 4.48224C37.0974 3.53953 35.7053 3.0175 34.2617 3.0175C32.8181 3.0175 31.426 3.53953 30.3557 4.48224C29.2854 5.42495 28.6132 6.72108 28.4696 8.119H40.0538Z" fill="#8E9190"/>
<path d="M45.9688 0.503498H49.0415V3.17797H49.1064C49.8206 2.18298 50.7765 1.37523 51.8889 0.826572C53.0014 0.277915 54.2359 0.00536956 55.4827 0.0331842C61.5633 0.0331842 64.7587 4.78546 64.7587 9.43945C64.7798 10.6095 64.5606 11.7718 64.114 12.8583C63.6674 13.9448 63.0023 14.9335 62.1578 15.7665C61.3133 16.5995 60.3063 17.26 59.196 17.7092C58.0857 18.1584 56.8943 18.3873 55.6919 18.3824C51.9411 18.3824 50.0658 16.5222 49.3877 15.4202H49.3228V23.7665H45.9688V0.503498ZM55.2519 3.03757C51.7247 3.03757 49.2723 5.99283 49.2723 9.20079C49.2402 9.99235 49.3722 10.7821 49.6603 11.523C49.9484 12.2639 50.3868 12.9408 50.9494 13.5133C51.512 14.0859 52.1872 14.5424 52.9348 14.8557C53.6825 15.169 54.4873 15.3326 55.3013 15.3368C56.1153 15.3411 56.9218 15.1859 57.6729 14.8804C58.4239 14.5749 59.1041 14.1255 59.673 13.5588C60.2418 12.9921 60.6876 12.3199 60.9839 11.582C61.2801 10.8442 61.4208 10.0558 61.3974 9.26396C61.3974 6.14024 58.9089 3.03757 55.2519 3.03757Z" fill="#8E9190"/>
<path d="M82.0624 17.9406V15.231H81.9975C81.3577 16.2364 80.4548 17.058 79.3812 17.6119C78.3077 18.1657 77.1021 18.4318 75.888 18.3828C74.6391 18.4241 73.3947 18.2172 72.2307 17.7749C71.0667 17.3325 70.0075 16.6639 69.1179 15.81C68.2282 14.956 67.5267 13.9345 67.0562 12.8079C66.5857 11.6813 66.356 10.4732 66.3813 9.25735C66.3813 5.01049 69.454 0.0055141 75.888 0.0055141C77.0723 -0.0406079 78.2495 0.2032 79.3118 0.714604C80.3742 1.22601 81.2876 1.98866 81.9686 2.93269H82.0335V0.503906H85.402V17.9406H82.0624ZM75.888 3.03798C71.7478 3.03798 69.7425 6.54779 69.7425 9.26437C69.7142 10.0712 69.853 10.8753 70.1507 11.6288C70.4485 12.3824 70.899 13.0699 71.4754 13.6504C72.0519 14.2309 72.7426 14.6926 73.5062 15.0079C74.2699 15.3232 75.0909 15.4856 75.9205 15.4856C76.75 15.4856 77.5711 15.3232 78.3348 15.0079C79.0984 14.6926 79.7891 14.2309 80.3655 13.6504C80.942 13.0699 81.3925 12.3824 81.6902 11.6288C81.988 10.8753 82.1268 10.0712 82.0984 9.26437C82.137 8.45219 82.0041 7.64094 81.7081 6.88065C81.4121 6.12035 80.9592 5.42713 80.3773 4.84373C79.7954 4.26034 79.0968 3.79913 78.3248 3.48857C77.5527 3.178 76.7234 3.02465 75.888 3.03798V3.03798Z" fill="#8E9190"/>
<path d="M95.1325 23.7659H91.6414L94.2597 17.5957L87.1116 0.50293H90.7181L95.9908 14.0367L101.393 0.50293H105L95.1325 23.7659Z" fill="#8E9190"/>
<path d="M54.9703 27.8311C54.8836 27.8329 54.801 27.8677 54.7404 27.9281C54.6797 27.9884 54.6457 28.0695 54.6458 28.154V30.4143H60.7696L57.9782 27.8311H54.9703Z" fill="#8E9190"/>
<path d="M61.0291 31.1159C61.0273 31.0308 60.9918 30.9497 60.9299 30.8895C60.8681 30.8294 60.7848 30.7948 60.6974 30.793H58.3748V36.7316L61.0291 34.015V31.1159Z" fill="#8E9190"/>
<path d="M57.6756 36.9563C57.7624 36.9544 57.8449 36.9196 57.9056 36.8592C57.9663 36.7989 58.0002 36.7178 58.0002 36.6334V34.373H51.8691L54.6606 36.9563H57.6756Z" fill="#8E9190"/>
<path d="M51.6455 33.6926C51.6473 33.7777 51.6829 33.8588 51.7447 33.9189C51.8066 33.9791 51.8899 34.0137 51.9773 34.0155H54.2999V28.0488L51.6455 30.7654V33.6926Z" fill="#8E9190"/>
<path d="M23.5506 28.9199V31.6786H19.6267V28.9199H18.1841V35.8693H19.6267V32.886H23.5722V35.8693H25.0148V28.9199H23.5506Z" fill="#8E9190"/>
<path d="M42.6577 28.9199V35.8623H48.9619L48.1612 34.6269H44.1003V32.872H48.0386V31.7067H44.1003V30.1133H48.154L48.9403 28.9199H42.6577Z" fill="#8E9190"/>
<path d="M12.8249 28.9193C12.5215 28.8894 12.215 28.9258 11.9278 29.0258C11.6407 29.1259 11.3801 29.2871 11.1652 29.4976C10.9502 29.7082 10.7863 29.9628 10.6853 30.2428C10.5844 30.5229 10.5489 30.8214 10.5816 31.1165V33.7137C10.5527 34.0068 10.5907 34.3025 10.6927 34.5796C10.7948 34.8568 10.9584 35.1086 11.172 35.3171C11.3856 35.5256 11.6438 35.6857 11.9283 35.7859C12.2127 35.8861 12.5164 35.924 12.8177 35.8968H17.3258L16.4891 34.6263H13.135C12.4137 34.6263 12.1036 34.3736 12.1036 33.5874V31.2077C12.1036 30.4426 12.3632 30.1478 13.1567 30.1478H16.5252L17.3258 28.9193H12.8249Z" fill="#8E9190"/>
<path d="M36.3538 28.9191C36.1123 28.9088 35.8714 28.9492 35.6475 29.0377C35.4236 29.1262 35.2219 29.2606 35.0562 29.4319C34.8905 29.6031 34.7647 29.8071 34.6874 30.0299C34.6101 30.2528 34.5831 30.4892 34.6082 30.7232V31.0531C34.5737 31.2886 34.5922 31.5286 34.6623 31.7564C34.7325 31.9843 34.8527 32.1946 35.0145 32.3729C35.1764 32.5511 35.3761 32.693 35.5999 32.7887C35.8237 32.8844 36.0661 32.9317 36.3105 32.9273H39.2967C39.6069 32.9273 39.8593 32.9765 39.8593 33.4889V34.0785C39.8593 34.5348 39.6213 34.6401 39.2895 34.6401H35.3584L34.5505 35.8615H39.3833C39.6443 35.8949 39.9098 35.8702 40.1595 35.7891C40.4093 35.7081 40.6369 35.5729 40.8252 35.3938C41.0135 35.2146 41.1574 34.9962 41.2463 34.755C41.3351 34.5138 41.3665 34.2561 41.338 34.0013V33.517C41.3686 33.2689 41.3415 33.0173 41.2585 32.7808C41.1755 32.5443 41.0389 32.3291 40.8587 32.151C40.6785 31.973 40.4595 31.8367 40.2178 31.7524C39.9761 31.668 39.718 31.6378 39.4626 31.6638H36.5774C36.2672 31.6638 36.0436 31.5796 36.0436 31.1233V30.646C36.0436 30.2529 36.1951 30.1125 36.563 30.1125H40.3065L41.0927 28.9121L36.3538 28.9191Z" fill="#8E9190"/>
<path d="M29.1622 28.9199L25.7793 35.8693H27.3734L28.037 34.4303H31.7156L32.372 35.8693H33.9733L30.5832 28.9199H29.1622ZM29.8835 30.366L31.1674 33.2229H28.5707L29.8835 30.366Z" fill="#8E9190"/>
<path d="M6.04445 34.963L5.92183 34.3242H5.87134C5.68918 34.5628 5.45522 34.7593 5.1861 34.8998C4.91322 35.0051 4.62118 35.0552 4.32775 35.0472C3.93525 35.0709 3.54826 34.9479 3.2458 34.7033C3.11244 34.5761 3.00867 34.4225 2.94147 34.253C2.87428 34.0835 2.84524 33.9019 2.8563 33.7205C2.8563 32.815 3.5776 32.3166 5.09955 32.3166H5.87855V32.0358C5.90401 31.7572 5.8217 31.4793 5.64774 31.2566C5.55157 31.1689 5.43798 31.1012 5.31393 31.0577C5.18989 31.0142 5.05802 30.9959 4.92643 31.0039C4.4701 31.0209 4.02368 31.1385 3.62088 31.3479L3.40449 30.8284C3.87303 30.5677 4.40123 30.4253 4.94086 30.4143C5.37992 30.3816 5.81608 30.5065 6.16707 30.7653C6.31188 30.9197 6.42197 31.1019 6.49028 31.3001C6.55859 31.4984 6.58363 31.7083 6.56379 31.9165V34.984L6.04445 34.963ZM4.47923 34.4856C4.85459 34.5029 5.22206 34.377 5.50348 34.1347C5.63255 34.0065 5.73261 33.8535 5.79721 33.6855C5.86181 33.5174 5.88952 33.3381 5.87855 33.1589V32.7518H5.15725C4.74071 32.7408 4.32755 32.8274 3.95268 33.0045C3.83114 33.0775 3.73255 33.1815 3.66767 33.3053C3.60279 33.4291 3.57413 33.5679 3.58481 33.7065C3.57784 33.8109 3.59495 33.9155 3.63488 34.0127C3.67482 34.1099 3.73658 34.1971 3.81563 34.268C3.99888 34.4226 4.23725 34.5007 4.47923 34.4856V34.4856Z" fill="#8E9190"/>
<path d="M66.5113 35.0467C66.222 35.0629 65.9327 35.0172 65.6635 34.9129C65.3943 34.8086 65.1519 34.6482 64.9533 34.443C64.5593 33.963 64.3638 33.3572 64.4051 32.7442C64.3642 32.1151 64.5618 31.4932 64.9605 30.9964C65.1666 30.7942 65.415 30.6376 65.6888 30.5371C65.9626 30.4365 66.2554 30.3945 66.5473 30.4137C66.7727 30.4163 66.9974 30.4398 67.2182 30.4839C67.3979 30.5185 67.5724 30.5751 67.7375 30.6524L67.5211 31.228C67.3576 31.1644 67.1886 31.1151 67.0162 31.0806C66.8582 31.0411 66.696 31.0199 66.5329 31.0174C65.5952 31.0174 65.0903 31.6 65.0903 32.7723C65.0613 33.2202 65.1801 33.6653 65.4293 34.0429C65.5505 34.1918 65.707 34.3099 65.8854 34.3869C66.0638 34.464 66.2588 34.4977 66.4536 34.4851C66.8601 34.4818 67.2621 34.4007 67.6365 34.2464V34.8501C67.2815 34.9976 66.8968 35.0648 66.5113 35.0467Z" fill="#8E9190"/>
<path d="M72.6929 32.7095C72.7329 33.3322 72.5294 33.9466 72.1231 34.4293C71.9236 34.6382 71.6793 34.8018 71.4076 34.9086C71.1358 35.0153 70.8433 35.0626 70.5507 35.047C70.1636 35.0512 69.7825 34.9542 69.4471 34.7663C69.1082 34.5679 68.8391 34.2742 68.6753 33.9239C68.4944 33.5338 68.4057 33.1093 68.4156 32.6814C68.3769 32.0622 68.5776 31.4512 68.9782 30.9687C69.1862 30.7665 69.4378 30.6119 69.7147 30.516C69.9917 30.4201 70.2871 30.3853 70.5795 30.4141C70.8688 30.4021 71.1572 30.4524 71.4241 30.5617C71.6909 30.6709 71.9296 30.8363 72.1231 31.0459C72.5133 31.5152 72.7157 32.1062 72.6929 32.7095V32.7095ZM69.1658 32.7095C69.1336 33.1738 69.2605 33.6354 69.5264 34.0222C69.6478 34.1753 69.8061 34.297 69.9872 34.3766C70.1683 34.4561 70.3668 34.4911 70.5651 34.4785C70.7635 34.4895 70.9618 34.4546 71.1437 34.3765C71.3255 34.2984 71.4857 34.1793 71.611 34.0292C71.8735 33.6386 71.9976 33.1751 71.9644 32.7095C71.997 32.2484 71.8728 31.7895 71.611 31.4039C71.4838 31.2545 71.3221 31.1365 71.139 31.0596C70.956 30.9828 70.7568 30.9492 70.5579 30.9616C70.3617 30.9489 70.1652 30.9817 69.9846 31.0574C69.804 31.133 69.6445 31.2494 69.5192 31.3969C69.2558 31.7845 69.1315 32.246 69.1658 32.7095V32.7095Z" fill="#8E9190"/>
<path d="M79.7473 34.9637V32.0365C79.7691 31.7484 79.6847 31.4622 79.5093 31.2293C79.4156 31.1372 79.3028 31.0657 79.1784 31.0197C79.0539 30.9737 78.9208 30.9542 78.788 30.9625C78.609 30.9479 78.4289 30.9732 78.2614 31.0365C78.094 31.0997 77.9435 31.1993 77.8214 31.3275C77.5883 31.656 77.4787 32.0527 77.5113 32.4507V34.9637H76.79V32.0365C76.8118 31.7484 76.7274 31.4622 76.5519 31.2293C76.4583 31.1372 76.3455 31.0657 76.221 31.0197C76.0966 30.9737 75.9635 30.9542 75.8306 30.9625C75.6495 30.9466 75.4671 30.9734 75.2989 31.0406C75.1306 31.1078 74.9815 31.2134 74.8641 31.3486C74.6305 31.7262 74.5245 32.1657 74.5611 32.6051V34.9637H73.8398V30.4641H74.4457L74.5539 31.0818C74.6853 30.8606 74.8811 30.6823 75.1165 30.5694C75.3648 30.4403 75.6429 30.375 75.9244 30.3799C76.2085 30.3453 76.4966 30.3977 76.7487 30.5298C77.0007 30.6619 77.2043 30.8671 77.3309 31.1169V31.1169C77.4707 30.8792 77.6788 30.6865 77.9296 30.5624C78.204 30.4181 78.5122 30.3455 78.824 30.3518C79.0371 30.3365 79.2512 30.3635 79.4533 30.4311C79.6554 30.4986 79.8413 30.6054 79.9998 30.7449C80.2917 31.099 80.4313 31.5493 80.3893 32.0014V34.9356L79.7473 34.9637Z" fill="#8E9190"/>
<path d="M83.9742 35.0477C83.6893 35.0498 83.4069 34.9949 83.1447 34.8863C82.8961 34.7736 82.6804 34.6023 82.5172 34.3879H82.4667C82.5005 34.6345 82.5173 34.8831 82.5172 35.1319V36.9851H81.7959V30.4639H82.3802L82.4811 31.0816C82.6392 30.8512 82.8586 30.6668 83.1159 30.5481C83.3732 30.4317 83.6545 30.3741 83.9382 30.3797C84.212 30.3618 84.4862 30.4087 84.7373 30.5163C84.9885 30.6238 85.2093 30.7889 85.3808 30.9974C85.7108 31.5123 85.8857 32.1069 85.8857 32.7137C85.8857 33.3205 85.7108 33.9151 85.3808 34.43C85.2133 34.6339 84.9984 34.7963 84.7539 34.9036C84.5094 35.011 84.2422 35.0604 83.9742 35.0477V35.0477ZM83.8732 30.9623C83.6831 30.9454 83.4914 30.9708 83.3127 31.0364C83.1341 31.1021 82.973 31.2064 82.8418 31.3414C82.6011 31.7012 82.4872 32.1274 82.5172 32.5557V32.7102C82.4743 33.1839 82.5881 33.6585 82.8418 34.065C82.9704 34.2092 83.1321 34.3218 83.3138 34.3938C83.4956 34.4657 83.6922 34.495 83.8877 34.4791C84.0729 34.4844 84.2564 34.4432 84.4206 34.3596C84.5848 34.2761 84.7241 34.1528 84.8254 34.0018C85.0715 33.6126 85.1898 33.1595 85.1644 32.7032C85.193 32.2487 85.0744 31.797 84.8254 31.4116C84.718 31.265 84.5746 31.1471 84.4082 31.0686C84.2419 30.9901 84.0579 30.9536 83.8732 30.9623V30.9623Z" fill="#8E9190"/>
<path d="M89.8887 34.9632L89.7516 34.3244C89.5592 34.567 89.3125 34.7639 89.0303 34.9C88.7575 35.0053 88.4654 35.0555 88.172 35.0475C87.7795 35.0711 87.3925 34.9481 87.09 34.7035C86.9567 34.5763 86.8529 34.4228 86.7857 34.2533C86.7185 34.0837 86.6895 33.9021 86.7005 33.7208C86.7005 32.8152 87.4218 32.3168 88.9438 32.3168H89.7228V32.036C89.7482 31.7574 89.6659 31.4796 89.492 31.2569C89.3958 31.1691 89.2822 31.1014 89.1582 31.0579C89.0341 31.0145 88.9023 30.9962 88.7707 31.0042C88.3143 31.0211 87.8679 31.1387 87.4651 31.3481L87.2487 30.8287C87.7285 30.5732 88.267 30.4403 88.814 30.4426C89.253 30.41 89.6892 30.5348 90.0402 30.7936C90.185 30.948 90.2951 31.1302 90.3634 31.3284C90.4317 31.5267 90.4567 31.7366 90.4369 31.9448V35.0124L89.8887 34.9632ZM88.309 34.4859C88.6844 34.5032 89.0519 34.3773 89.3333 34.1349C89.4624 34.0068 89.5624 33.8538 89.627 33.6857C89.6916 33.5177 89.7193 33.3383 89.7084 33.1592V32.752H88.9871C88.5705 32.741 88.1574 32.8277 87.7825 33.0048C87.661 33.0777 87.5624 33.1818 87.4975 33.3056C87.4326 33.4294 87.4039 33.5681 87.4146 33.7067C87.4077 33.8111 87.4248 33.9158 87.4647 34.0129C87.5046 34.1101 87.5664 34.1973 87.6454 34.2683C87.8287 34.4228 88.0671 34.501 88.309 34.4859V34.4859Z" fill="#8E9190"/>
<path d="M94.9451 34.9624V32.0493C94.967 31.7547 94.8772 31.4625 94.6927 31.228C94.5838 31.1322 94.456 31.0591 94.3171 31.0132C94.1781 30.9674 94.031 30.9497 93.8848 30.9612C93.6903 30.9446 93.4944 30.97 93.3111 31.0355C93.1278 31.101 92.9617 31.2051 92.8245 31.3403C92.5612 31.7091 92.4411 32.1568 92.4855 32.6038V34.9624H91.7642V30.4628H92.334L92.4783 31.1157C92.6253 30.8899 92.8355 30.7097 93.0841 30.5962C93.3551 30.4733 93.6508 30.411 93.9497 30.4137C94.4046 30.3815 94.8546 30.5224 95.2048 30.8068C95.3599 30.977 95.4776 31.1762 95.5508 31.3923C95.624 31.6084 95.6511 31.8367 95.6303 32.0633V34.9975L94.9451 34.9624Z" fill="#8E9190"/>
<path d="M96.2866 30.4639H97.0079L98.0177 33.033C98.1868 33.4437 98.3243 33.866 98.4289 34.2966H98.465C98.465 34.1632 98.5804 33.9245 98.6958 33.5946C98.8112 33.2647 99.1935 32.1907 99.8426 30.4779H100.564L98.5731 35.6022C98.4391 36.0117 98.2038 36.3829 97.8879 36.6832C97.616 36.8995 97.2723 37.0118 96.9214 36.9991C96.7077 37.0005 96.4946 36.9769 96.2866 36.9289V36.3814C96.4572 36.4172 96.6315 36.4337 96.806 36.4305C97.0423 36.4293 97.2715 36.3513 97.457 36.2089C97.6426 36.0664 97.7739 35.8677 97.8302 35.6443L98.0899 35.0056L96.2866 30.4639Z" fill="#8E9190"/>
</svg>
