<?xml version="1.0" encoding="utf-8"?>
<!-- Generator: Adobe Illustrator 27.7.0, SVG Export Plug-In . SVG Version: 6.00 Build 0)  -->
<svg version="1.1" id="Capa_1" xmlns="http://www.w3.org/2000/svg" xmlns:xlink="http://www.w3.org/1999/xlink" x="0px" y="0px"
	 viewBox="0 0 512 512" style="enable-background:new 0 0 512 512;" xml:space="preserve">
<style type="text/css">
	.st0{fill:#0085FD;}
	.st1{fill:#063359;}
</style>
<path class="st0" d="M88.1,245v-51.2h43.1V245h22V128.7h43.1V245h22V63.7h43.1V245h22V52.7c0-6.1-4.9-11-11-11h-65.1
	c-6.1,0-11,4.9-11,11v54.1h-54.1c-6.1,0-11,4.9-11,11v54.1H77.1c-6.1,0-11,4.9-11,11V245L88.1,245L88.1,245z"/>
<path class="st0" d="M410.2,118.1l-32.5-32.5c-2.1-2.1-4.9-3.2-7.8-3.2c-2.9,0-5.7,1.2-7.8,3.2l-32.5,32.5
	c-9.9,10.7,4.8,25.5,15.6,15.6l13.8-13.8v79.2c0,6.1,4.9,11,11,11s11-4.9,11-11v-79.2l13.8,13.8c2.1,2.1,5,3.2,7.8,3.2
	C412.1,136.9,417.2,125,410.2,118.1z"/>
<g>
	<path class="st1" d="M501.1,245H22V52.7c0-6.1-4.9-11-11-11s-11,4.9-11,11v406.7c0,6.1,4.9,11,11,11s11-4.9,11-11V267h239.3v192.3
		c0,6.1,4.9,11,11,11h65.1c6.1,0,11-4.9,11-11v-54.1h54.1c6.1,0,11-4.9,11-11v-54.1h54.1c6.1,0,11-4.9,11-11V267h22.6
		C515.6,266.4,515.6,245.6,501.1,245z M326.4,448.3h-43.1V267h43.1V448.3z M391.4,383.3h-43.1V267h43.1V383.3z M456.5,318.2h-43.1
		V267h43.1L456.5,318.2L456.5,318.2z"/>
	<path class="st1" d="M199.4,378.4l-13.8,13.8v-79.2c0-6.1-4.9-11-11-11s-11,4.9-11,11v79.2l-13.8-13.8c-4.3-4.3-11.3-4.3-15.6,0
		c-4.3,4.3-4.3,11.3,0,15.6l32.5,32.5c2.1,2.1,4.9,3.2,7.8,3.2c2.9,0,5.7-1.2,7.8-3.2l32.5-32.5
		C224.9,383.2,210.2,368.4,199.4,378.4z"/>
</g>
</svg>
