<?xml version="1.0" encoding="utf-8"?>
<!-- Generator: Adobe Illustrator 27.7.0, SVG Export Plug-In . SVG Version: 6.00 Build 0)  -->
<svg version="1.1" id="Capa_1" xmlns="http://www.w3.org/2000/svg" xmlns:xlink="http://www.w3.org/1999/xlink" x="0px" y="0px"
	 viewBox="0 0 512 512" style="enable-background:new 0 0 512 512;" xml:space="preserve">
<style type="text/css">
	.st0{fill:#0085FD;}
	.st1{fill:#063359;}
</style>
<g>
	<g>
		<path class="st0" d="M512,369.6c0,6.2-5,11.2-11.2,11.2c-27.5,0-52-2.8-74.1-7.7c-7.1,44.7-18.2,88.7-33.3,131.5
			c0,0,0,0.1-0.1,0.1c0.4-1.2,0.7-2.5,0.7-3.8c0-6.2-5-11.2-11.2-11.2c-2.7,0-5.3,0-7.9-0.1c13.6-39.9,23.6-80.7,30-122.2
			c-67.8-20.7-112.7-62.4-156.5-103.1c-19.6-18.2-38.9-36.1-59.9-52c1.7,14.5,2.5,29.1,2.5,43.8c0,43.2-7.3,85.5-21.4,125.5
			c12.1,9.5,23.5,19.4,34.8,29.4c44.8,39.3,87.1,76.5,170.5,78.7c-0.9,2.5-1.7,5-2.6,7.5c-2.1,5.8,1,12.2,6.8,14.3
			c1.2,0.4,2.5,0.6,3.7,0.6c-97.1,0-146-42.9-193.2-84.4c-9.4-8.3-18.8-16.5-28.4-24.3c-16.1,38.1-38.5,73.6-66.6,105
			c-2.2,2.5-5.3,3.7-8.3,3.7c-2.7,0-5.3-0.9-7.4-2.8c-4.6-4.1-5-11.2-0.9-15.8c27.7-31,49.5-66.2,64.8-104.1
			c-33.2-23.4-72.3-40.5-131.6-40.5c-6.2,0-11.2-5-11.2-11.2c0-6.2,5-11.2,11.2-11.2c62.3,0,104.7,17.6,139.5,41.2
			c11.8-35.7,17.9-73.3,17.9-111.6c0-20.6-1.8-41.1-5.3-61.2c-39.4-24.6-86.5-41.2-152.2-41.2c-6.2,0-11.2-5-11.2-11.2
			c0-6.2,5-11.2,11.2-11.2c60.8,0,107.2,13.6,145.8,34.2C142.8,111.3,115.9,61,78,18.6C73.8,14,74.2,7,78.8,2.8
			c4.6-4.1,11.7-3.7,15.8,0.9c45.3,50.6,75.8,112,89,177.6c29.7,19.8,55,43.3,80,66.4c42.7,39.6,83.7,77.6,144.4,97.1
			c7,2.2,14.2,4.2,21.8,6c21.1,4.8,44.5,7.5,71,7.5C507,358.4,512,363.4,512,369.6z"/>
	</g>
	<g>
		<path class="st0" d="M512,183.6c0,6.2-5,11.2-11.2,11.2c-25.9,0-48.3-3.2-68.3-8.7c2.2,23.2,3.2,46.5,3.2,70c0,31.9-2,63.6-6,94.9
			c-7.5-1.7-14.8-3.7-21.8-6c3.6-29.4,5.4-59,5.4-88.9c0-26.1-1.4-52.1-4.1-77.9c-42.2-17.1-72.4-45.1-101.9-72.5
			c-46.1-42.8-89.7-83.2-178.2-83.2c-6.2,0-11.2-5-11.2-11.2S123,0,129.2,0c97.3,0,146.2,45.3,193.4,89.2c25.8,24,50.9,47.2,83.5,63
			c-6.7-46.8-18-92.7-33.8-137.3c-2.1-5.8,1-12.2,6.8-14.3c5.8-2.1,12.2,1,14.3,6.8c17.7,50.1,29.9,101.7,36.6,154.4
			c20.2,6.7,43.4,10.6,70.9,10.6C507,172.4,512,177.4,512,183.6z"/>
	</g>
	<g>
		<path class="st1" d="M500.8,512H11.2C5,512,0,507,0,500.8V11.2C0,5,5,0,11.2,0h489.6C507,0,512,5,512,11.2v489.6
			C512,507,507,512,500.8,512z M22.4,489.7h467.3V22.4H22.4L22.4,489.7L22.4,489.7z"/>
	</g>
</g>
</svg>
