<?xml version="1.0" encoding="utf-8"?>
<!-- Generator: Adobe Illustrator 27.7.0, SVG Export Plug-In . SVG Version: 6.00 Build 0)  -->
<svg version="1.1" id="Capa_1" xmlns="http://www.w3.org/2000/svg" xmlns:xlink="http://www.w3.org/1999/xlink" x="0px" y="0px"
	 viewBox="0 0 512 512" style="enable-background:new 0 0 512 512;" xml:space="preserve">
<style type="text/css">
	.st0{fill:#063359;}
	.st1{fill:#0085FD;}
</style>
<path class="st0" d="M289.7,512h-67.4c-5.6,0-10.3-4.2-10.9-9.8l-5.5-48.7c-19.1-4.7-37.4-12.1-54.5-22.1l-37.9,30.2
	c-4.4,3.5-10.7,3.1-14.6-0.8l-47.7-47.7c-4-4-4.3-10.3-0.8-14.6L79.4,362c-11-17.5-19.3-36.4-24.6-56.2l-45-5.1
	C4.2,300,0,295.3,0,289.7v-67.4c0-5.6,4.2-10.3,9.8-10.9l42.6-4.8c4.7-21.4,12.6-41.7,23.7-60.7l-25.8-32.4
	c-3.5-4.4-3.1-10.7,0.8-14.6l47.7-47.7c4-4,10.3-4.3,14.6-0.8L144.5,75c19.3-12.3,40.2-21.1,62.4-26.5l4.4-38.8
	C212,4.2,216.7,0,222.3,0h67.4c5.6,0,10.3,4.2,10.9,9.8l4.4,38.8c22.2,5.3,43.1,14.2,62.4,26.5l31.1-24.7c4.4-3.5,10.7-3.1,14.6,0.8
	l47.7,47.7c4,4,4.3,10.3,0.8,14.6l-25.8,32.4c11.1,18.9,19.1,39.3,23.7,60.7l42.6,4.8c5.6,0.6,9.8,5.3,9.8,10.9v67.4
	c0,5.6-4.2,10.3-9.8,10.9l-45,5.1c-5.4,19.9-13.6,38.7-24.6,56.2l29.1,36.5c3.5,4.4,3.1,10.7-0.8,14.6l-47.7,47.7
	c-4,4-10.3,4.3-14.6,0.8l-37.9-30.2c-17.1,9.9-35.3,17.3-54.5,22.1l-5.5,48.7C300,507.8,295.3,512,289.7,512z M232.1,490h47.8
	l5.3-46.7c0.5-4.7,4-8.6,8.7-9.5c21.9-4.5,42.7-12.9,61.7-25c4-2.5,9.1-2.2,12.7,0.7l36.2,28.8l33.8-33.8l-27.9-35.1
	c-3-3.8-3.2-9.1-0.5-13.1c13.2-19.3,22.5-40.5,27.7-63.2c1-4.5,4.8-7.9,9.5-8.5l42.8-4.9v-47.8l-40.8-4.6c-4.8-0.6-8.7-4.2-9.6-9
	c-4.3-24.1-13.1-46.8-26.4-67.5c-2.5-4-2.3-9.1,0.7-12.8l24.5-30.7l-33.8-33.8l-29.6,23.6c-3.8,3-9.1,3.2-13.1,0.4
	c-20.9-14.5-44.1-24.3-69-29.3c-4.7-0.9-8.2-4.8-8.8-9.5L279.9,22h-47.8l-4.2,36.8c-0.5,4.7-4.1,8.6-8.8,9.5
	c-24.8,5-48,14.8-69,29.3c-4,2.8-9.3,2.6-13.1-0.4l-29.6-23.6l-33.8,33.8l24.5,30.7c2.9,3.7,3.2,8.8,0.7,12.8
	c-13.2,20.7-22.1,43.4-26.4,67.5c-0.8,4.8-4.8,8.5-9.6,9L22,232.1v47.8l42.8,4.9c4.6,0.5,8.4,3.9,9.5,8.5
	c5.2,22.6,14.6,43.9,27.7,63.2c2.7,4,2.5,9.3-0.5,13.1l-27.9,35.1l33.8,33.8l36.2-28.8c3.7-2.9,8.8-3.2,12.7-0.7
	c19,12,39.8,20.4,61.7,25c4.7,1,8.2,4.8,8.7,9.5L232.1,490z M501,289.7L501,289.7L501,289.7z"/>
<path class="st1" d="M256,398.7c-81.3,0-147.5-66.2-147.5-147.5c0-81.3,66.2-147.5,147.5-147.5s147.5,66.2,147.5,147.5
	C403.5,332.5,337.3,398.7,256,398.7z M256,125.7c-69.2,0-125.5,56.3-125.5,125.5S186.8,376.7,256,376.7s125.5-56.3,125.5-125.5
	S325.2,125.7,256,125.7z"/>
<path class="st0" d="M256,337.7c-47.7,0-86.5-38.8-86.5-86.5s38.8-86.5,86.5-86.5s86.5,38.8,86.5,86.5
	C342.5,298.9,303.7,337.7,256,337.7z M256,186.7c-35.6,0-64.5,28.9-64.5,64.5s28.9,64.5,64.5,64.5s64.5-28.9,64.5-64.5
	S291.6,186.7,256,186.7z"/>
</svg>
