<?xml version="1.0" encoding="utf-8"?>
<!-- Generator: Adobe Illustrator 27.7.0, SVG Export Plug-In . SVG Version: 6.00 Build 0)  -->
<svg version="1.1" id="Capa_1" xmlns="http://www.w3.org/2000/svg" xmlns:xlink="http://www.w3.org/1999/xlink" x="0px" y="0px"
	 viewBox="0 0 512 512" style="enable-background:new 0 0 512 512;" xml:space="preserve">
<style type="text/css">
	.st0{fill:#0085FD;}
	.st1{fill:#063359;}
</style>
<g>
	<g id="Startup">
		<path class="st0" d="M309.4,115.5H202.5c-6.1,0-11-4.9-11-11s4.9-11,11-11h106.9c6.1,0,11,4.9,11,11
			C320.4,110.6,315.5,115.5,309.4,115.5z"/>
		<path class="st0" d="M308.6,237.5H203.5c-6.1,0-11-4.9-11-11s4.9-11,11-11h105.1c6.1,0,11,4.9,11,11S314.6,237.5,308.6,237.5z"/>
		<path class="st0" d="M106.1,451c-4.5,0-8.8-2.8-10.4-7.3c-2.1-6.1-3.2-12.4-3.2-18.9c0-31.3,25.5-56.7,56.7-56.7
			c3.5,0,6.9,0.3,10.4,1c9.4-19,28.9-31.5,50.6-31.5c2.3,0,4.2-1.9,4.2-4.2v-45.7c0-6.1,4.9-11,11-11s11,4.9,11,11v45.7
			c0,14.5-11.8,26.2-26.2,26.2c-15.6,0-29.3,10.6-33.4,25.7c-0.8,3-2.9,5.6-5.7,7c-2.8,1.4-6.1,1.5-9,0.4c-4.2-1.7-8.6-2.6-12.9-2.6
			c-19.2,0-34.7,15.6-34.7,34.7c0,4,0.7,7.9,2,11.6c2,5.7-1,12-6.7,14C108.6,450.8,107.3,451,106.1,451z"/>
		<path class="st0" d="M406.9,451c-1.2,0-2.5-0.2-3.7-0.6c-5.7-2-8.7-8.3-6.7-14c1.3-3.7,2-7.6,2-11.6c0-18.8-16.4-34.7-35.8-34.7
			c-4.3,0-8.7,0.9-12.9,2.6c-2.9,1.2-6.2,1-9-0.4c-2.8-1.4-4.9-3.9-5.7-7c-4.1-15.1-17.8-25.7-33.4-25.7
			c-14.5,0-26.2-11.8-26.2-26.2v-45.7c0-6.1,4.9-11,11-11s11,4.9,11,11v45.7c0,2.3,1.9,4.2,4.2,4.2c21.7,0,41.2,12.5,50.6,31.5
			c3.4-0.7,6.9-1,10.4-1c15.2,0,29.5,5.9,40.5,16.5c11.1,10.8,17.2,25.1,17.2,40.2c0,6.5-1.1,12.8-3.2,18.9
			C415.7,448.2,411.4,451,406.9,451z"/>
		<path class="st1" d="M501,429h-19.5V165.5c0-22.9-18.6-41.5-41.5-41.5H325c-7.3-43.6-27.6-84.7-59.1-118.4c-0.5-0.6-0.9-1-1.2-1.3
			C262.7,1.6,259.4,0,256,0c-3.4,0-6.6,1.6-8.7,4.3c-0.3,0.3-0.6,0.7-1.2,1.2C214.6,39,194.3,80.2,187,124H72
			c-22.9,0-41.5,18.6-41.5,41.5V429H11c-6.1,0-11,4.9-11,11c0,39.7,32.3,72,72,72h368c39.7,0,72-32.3,72-72
			C512,433.9,507.1,429,501,429z M265.2,4.9c-0.1-0.2-0.2-0.3-0.4-0.5C265,4.6,265.1,4.8,265.2,4.9z M247.2,4.4
			c-0.1,0.2-0.3,0.4-0.4,0.5C246.9,4.8,247,4.6,247.2,4.4z M256,27.5c32.3,37.7,50,84.6,50,132.8c0,51.5-15.1,87.6-24.2,109.2
			c-1,2.5-2,4.9-2.9,7.1h-45.8c-0.8-2-1.8-4.2-2.8-6.7c-2.1-5-4.5-10.7-6.9-17.2c-0.2-1.1-0.6-2.2-1.2-3.2
			c-8-21.7-16.2-51.3-16.2-89.2C206,111.8,223.7,65,256,27.5z M52.5,165.5c0-10.8,8.7-19.5,19.5-19.5h112.5
			c-0.3,4.7-0.5,9.5-0.5,14.3c0,38.6,7.8,69,15.8,91.8L172,279.7c-4.3,4.3-4.3,11.2,0,15.6c2.1,2.2,5,3.2,7.8,3.2
			c2.8,0,5.6-1.1,7.8-3.2l20.9-20.8c0.6,1.3,1.1,2.6,1.6,3.9c1.8,4.3,3.4,8.2,4.5,11.1c0.9,5.1,5.4,9,10.8,9h61.1
			c4.8,0,9-3.1,10.5-7.6c1.1-3.3,2.9-7.8,5.1-13c0.5-1.2,1-2.4,1.5-3.6l20.8,21c2.1,2.2,5,3.2,7.8,3.2c2.8,0,5.6-1.1,7.8-3.2
			c4.3-4.3,4.3-11.2,0-15.6l-27.7-27.9c8-22.7,15.7-53.1,15.7-91.6c0-4.8-0.2-9.5-0.5-14.3H440c10.8,0,19.5,8.7,19.5,19.5V429h-407
			V165.5z M440,490H72c-23.8,0-43.8-16.7-48.8-39h465.6C483.8,473.3,463.8,490,440,490z"/>
	</g>
	<path class="st1" d="M256,177.5c-15.8-0.3-13.4-24.6,2.1-21.8C270.9,158,268.9,177.8,256,177.5z"/>
</g>
</svg>
