<?xml version="1.0" encoding="utf-8"?>
<!-- Generator: Adobe Illustrator 27.7.0, SVG Export Plug-In . SVG Version: 6.00 Build 0)  -->
<svg version="1.1" id="Capa_1" xmlns="http://www.w3.org/2000/svg" xmlns:xlink="http://www.w3.org/1999/xlink" x="0px" y="0px"
	 viewBox="0 0 512 512" style="enable-background:new 0 0 512 512;" xml:space="preserve">
<style type="text/css">
	.st0{fill:#0085FD;}
	.st1{fill:#063359;}
</style>
<g>
	<path class="st0" d="M380.5,182.3c-2.8,0-5.6-1.1-7.8-3.2c-4.3-4.3-4.3-11.3,0-15.6c9-9,9-15.3,0-24.3c-4.3-4.3-4.3-11.3,0-15.6
		c4.3-4.3,11.3-4.3,15.6,0c17.6,17.6,17.6,37.8,0,55.4C386.1,181.3,383.3,182.3,380.5,182.3z"/>
	<path class="st0" d="M350.6,222.2c-2.8,0-5.6-1.1-7.8-3.2c-4.3-4.3-4.3-11.3,0-15.6c4.5-4.5,6.7-8.6,6.7-12.1s-2.3-7.7-6.7-12.1
		c-4.3-4.3-4.3-11.3,0-15.6c4.3-4.3,11.3-4.3,15.6,0c8.7,8.7,13.2,18.1,13.2,27.7s-4.4,18.9-13.2,27.7
		C356.2,221.1,353.4,222.2,350.6,222.2z"/>
	<path class="st0" d="M400.4,262c-2.8,0-5.6-1.1-7.8-3.2c-4.3-4.3-4.3-11.3,0-15.6c9-9,9-15.3,0-24.3c-4.3-4.3-4.3-11.3,0-15.6
		c4.3-4.3,11.3-4.3,15.6,0c17.6,17.6,17.6,37.8,0,55.4C406,260.9,403.2,262,400.4,262z"/>
	<path class="st0" d="M136.5,222.2H53.8c-6.1,0-11-4.9-11-11s4.9-11,11-11h71.7v-68.7c0-6.1,4.9-11,11-11s11,4.9,11,11v79.7
		C147.5,217.3,142.6,222.2,136.5,222.2z"/>
	<g>
		<path class="st0" d="M76.7,471.2c-6.1,0-11-4.9-11-11v-59.8c0-6.1,4.9-11,11-11h39.8c6.1,0,11,4.9,11,11v56.4c0,6.1-4.9,11-11,11
			s-11-4.9-11-11v-45.4H87.7v48.8C87.7,466.2,82.8,471.2,76.7,471.2z"/>
		<path class="st0" d="M196.2,471.2c-6.1,0-11-4.9-11-11v-78.6h-17.8v76.3c0,6.1-4.9,11-11,11s-11-4.9-11-11v-87.3
			c0-6.1,4.9-11,11-11h39.8c6.1,0,11,4.9,11,11v89.6C207.2,466.2,202.3,471.2,196.2,471.2z"/>
		<path class="st0" d="M275.9,471.2c-6.1,0-11-4.9-11-11V351.7h-17.8v108.5c0,6.1-4.9,11-11,11s-11-4.9-11-11V340.7
			c0-6.1,4.9-11,11-11h39.8c6.1,0,11,4.9,11,11v119.5C286.9,466.2,282,471.2,275.9,471.2z"/>
		<path class="st0" d="M315.8,471.2c-6.1,0-11-4.9-11-11v-69.7c0-6.1,4.9-11,11-11h39.8c6.1,0,11,4.9,11,11v67.3c0,6.1-4.9,11-11,11
			s-11-4.9-11-11v-56.3h-17.8v58.7C326.8,466.2,321.8,471.2,315.8,471.2z"/>
		<path class="st0" d="M435.3,471.2c-6.1,0-11-4.9-11-11v-98.6h-17.8v98.6c0,6.1-4.9,11-11,11s-11-4.9-11-11V350.6
			c0-6.1,4.9-11,11-11h39.8c6.1,0,11,4.9,11,11v109.6C446.3,466.2,441.3,471.2,435.3,471.2z"/>
		<path class="st1" d="M455.2,471.2H56.8c-6.1,0-11-4.9-11-11s4.9-11,11-11h398.4c6.1,0,11,4.9,11,11S461.3,471.2,455.2,471.2z"/>
	</g>
	<path class="st1" d="M136.5,311.8c-52.7,0-95.7-42.9-95.7-95.7s42.9-95.7,95.7-95.7s95.7,42.9,95.7,95.7S189.2,311.8,136.5,311.8z
		 M136.5,142.5c-40.6,0-73.7,33-73.7,73.7s33,73.7,73.7,73.7s73.7-33,73.7-73.7S177.1,142.5,136.5,142.5z"/>
	<path class="st1" d="M460.2,120.5H261c-6.1,0-11,4.9-11,11v39.8v39.8V251c0,6.1,4.9,11,11,11h199.2c6.1,0,11-4.9,11-11v-39.8v-39.8
		v-39.8C471.2,125.4,466.2,120.5,460.2,120.5z M272,182.3h177.2v17.8H272V182.3z M272,142.5h177.2v17.8H272V142.5z M449.2,240H272
		v-17.8h177.2L449.2,240L449.2,240z"/>
	<g>
		<path class="st0" d="M51.8,62.8C36,62.5,38.4,38.2,54,41.1C66.7,43.3,64.8,63.2,51.8,62.8z"/>
		<path class="st0" d="M91.7,62.8c-15.8-0.3-13.4-24.6,2.2-21.8C106.6,43.3,104.6,63.2,91.7,62.8z"/>
		<path class="st0" d="M131.5,62.8c-15.8-0.3-13.4-24.6,2.2-21.8C146.4,43.3,144.4,63.1,131.5,62.8z"/>
		<path class="st1" d="M11,0C4.9,0,0,4.9,0,11v490c0,6.1,4.9,11,11,11h490c6.1,0,11-4.9,11-11V11c0-6.1-4.9-11-11-11H11z M490,22
			v58.7H208.1l-29-58.7H490z M22,22h132.6l29,58.7H22V22z M490,102.7V490H22V102.7H490z"/>
	</g>
</g>
</svg>
