<?xml version="1.0" encoding="utf-8"?>
<!-- Generator: Adobe Illustrator 27.7.0, SVG Export Plug-In . SVG Version: 6.00 Build 0)  -->
<svg version="1.1" id="Capa_1" xmlns="http://www.w3.org/2000/svg" xmlns:xlink="http://www.w3.org/1999/xlink" x="0px" y="0px"
	 viewBox="0 0 512 512" style="enable-background:new 0 0 512 512;" xml:space="preserve">
<style type="text/css">
	.st0{fill:#063359;}
	.st1{fill:#0085FD;}
</style>
<g>
	<g id="View">
		<path class="st0" d="M470.5,0h-429C18.6,0,0,18.6,0,41.5v429C0,493.4,18.6,512,41.5,512h429c22.9,0,41.5-18.6,41.5-41.5v-429
			C512,18.6,493.4,0,470.5,0z M41.5,22h429c10.8,0,19.5,8.7,19.5,19.5V122H22V41.5C22,30.7,30.7,22,41.5,22z M470.5,490h-429
			c-10.8,0-19.5-8.7-19.5-19.5V144h468v326.5C490,481.3,481.3,490,470.5,490z"/>
		<path class="st0" d="M440,83H256c-6.1,0-11-4.9-11-11s4.9-11,11-11h184c6.1,0,11,4.9,11,11S446.1,83,440,83z"/>
		<path class="st0" d="M256,419.5c-88.7,0-158.4-92-161.3-95.9c-2.9-3.9-2.9-9.3,0-13.2c2.9-3.9,72.6-95.9,161.3-95.9
			s158.4,92,161.3,95.9c2.9,3.9,2.9,9.3,0,13.2C414.4,327.5,344.7,419.5,256,419.5z M117.7,317c17.1,20.3,73.5,80.5,138.3,80.5
			c64.9,0,121.2-60.2,138.3-80.5c-17.1-20.3-73.5-80.5-138.3-80.5S134.8,296.7,117.7,317z"/>
		<path class="st1" d="M73,267c-6.1,0-11-4.9-11-11v-61c0-6.1,4.9-11,11-11h61c6.1,0,11,4.9,11,11s-4.9,11-11,11H84v50
			C84,262.1,79.1,267,73,267z"/>
		<path class="st1" d="M134,450H73c-6.1,0-11-4.9-11-11v-61c0-6.1,4.9-11,11-11s11,4.9,11,11v50h50c6.1,0,11,4.9,11,11
			S140.1,450,134,450z"/>
		<path class="st1" d="M440,267c-6.1,0-11-4.9-11-11v-50h-51c-6.1,0-11-4.9-11-11s4.9-11,11-11h62c6.1,0,11,4.9,11,11v61
			C451,262.1,446.1,267,440,267z"/>
		<path class="st1" d="M440,450h-62c-6.1,0-11-4.9-11-11s4.9-11,11-11h51v-50c0-6.1,4.9-11,11-11s11,4.9,11,11v61
			C451,445.1,446.1,450,440,450z"/>
		<path class="st0" d="M256,358.5c-22.9,0-41.5-18.6-41.5-41.5s18.6-41.5,41.5-41.5s41.5,18.6,41.5,41.5S278.9,358.5,256,358.5z
			 M256,297.5c-10.8,0-19.5,8.7-19.5,19.5s8.7,19.5,19.5,19.5c10.8,0,19.5-8.7,19.5-19.5S266.8,297.5,256,297.5z"/>
	</g>
	<path class="st0" d="M195,83c-12.9,0.3-14.9-19.6-2.1-21.8C208.4,58.4,210.8,82.7,195,83z"/>
	<path class="st0" d="M134,84c-15.8-0.3-13.4-24.6,2.2-21.8C148.9,64.4,146.9,84.3,134,84z"/>
	<path class="st0" d="M73,84c-15.8-0.3-13.4-24.6,2.2-21.8C87.9,64.4,85.9,84.3,73,84z"/>
</g>
</svg>
