<svg width="300" height="76" viewBox="0 0 300 76" fill="none" xmlns="http://www.w3.org/2000/svg">
<g clip-path="url(#clip0_126_405)">
<path d="M300 53.9028H0V75.7732H300V53.9028Z" fill="#0086FF"/>
<path d="M62.592 64.8748C62.592 62.0029 64.8748 59.6465 67.7467 59.5729H67.894C69.3667 59.4992 70.7658 60.0147 71.8704 60.972L70.4713 62.6656C69.7349 62.0029 68.7776 61.6347 67.8203 61.6347C66.1267 61.7083 64.8748 63.1075 64.8748 64.8011C64.8012 66.4948 66.053 67.8939 67.7467 68.0412H67.9676C68.704 68.0412 69.4404 67.8203 70.1031 67.4521V65.9793H67.8203V64.0648H72.2386V68.483C71.0604 69.5139 69.514 70.103 67.894 70.103C65.0957 70.2503 62.7393 68.1148 62.592 65.3166V64.8748Z" fill="white"/>
<path d="M74.8159 59.7939H79.4551C80.5596 59.7203 81.5906 60.0885 82.4006 60.8248C82.9897 61.4139 83.2842 62.2976 83.2842 63.1813C83.3579 64.5804 82.4742 65.9058 81.0751 66.3477L83.5788 69.9559H81.0015L78.7923 66.7159H77.025V69.9559H74.8159V59.7939ZM79.3078 64.7276C80.4124 64.7276 81.0015 64.1385 81.0015 63.2549C81.0015 62.2976 80.3387 61.7821 79.2342 61.7821H77.025V64.7276H79.3078Z" fill="white"/>
<path d="M89.1016 59.7202H91.1635L95.5081 69.9559H93.1517L92.1944 67.6731H87.9234L86.9661 69.9559H84.6833L89.1016 59.7202ZM91.458 65.6849L90.1325 62.3712L88.8071 65.6849H91.458Z" fill="white"/>
<path d="M97.4963 59.7937H101.473C104.639 59.7937 106.848 62.0028 106.848 64.8747C106.848 67.7466 104.639 69.9557 101.473 69.9557H97.4963V59.7937ZM101.399 67.8938C103.019 67.9675 104.345 66.7893 104.492 65.1693V64.8747C104.566 63.2547 103.314 61.9292 101.694 61.7819H99.7054V67.8938H101.399Z" fill="white"/>
<path d="M108.984 65.5376V59.7202H111.193V65.464C111.193 67.084 112.003 67.9676 113.402 67.9676C114.801 67.9676 115.611 67.1576 115.611 65.5376V59.7202H117.82V65.464C117.82 68.5567 116.127 70.0295 113.402 70.0295C110.677 70.1031 108.984 68.5567 108.984 65.5376Z" fill="white"/>
<path d="M123.638 59.7202H125.7L130.044 69.9559H127.688L126.73 67.6731H122.459L121.502 69.9559H119.219L123.638 59.7202ZM125.994 65.6849L124.669 62.3712L123.343 65.6849H125.994Z" fill="white"/>
<path d="M132.99 61.8556H129.897V59.7937H138.292V61.8556H135.272V69.9557H133.063V61.8556H132.99Z" fill="white"/>
<path d="M140.427 59.7937H148.085V61.7819H142.636V63.8438H147.423V65.832H142.636V67.9675H148.159V69.9557H140.427V59.7937Z" fill="white"/>
<path d="M150.442 59.7937H154.418C157.585 59.7937 159.794 62.0028 159.794 64.8747C159.794 67.7466 157.585 69.9557 154.418 69.9557H150.442V59.7937ZM154.418 67.8938C156.038 67.9675 157.364 66.7893 157.511 65.1693V64.8747C157.585 63.2547 156.333 61.9292 154.713 61.7819H152.725V67.8938H154.418Z" fill="white"/>
<path d="M166.863 59.7937H170.987C173.417 59.7937 174.89 61.2665 174.89 63.3283C174.89 65.6847 173.049 66.8629 170.766 66.8629H169.146V69.8821H166.937V59.7937H166.863ZM170.913 64.8747C171.797 64.9483 172.533 64.3592 172.68 63.5492V63.4019C172.68 62.371 172.018 61.8556 170.839 61.8556H169.146V64.9483L170.913 64.8747Z" fill="white"/>
<path d="M176.951 59.7939H181.591C182.695 59.7203 183.726 60.0885 184.536 60.8248C185.125 61.4139 185.42 62.2976 185.42 63.1813C185.493 64.5804 184.61 65.9058 183.211 66.3477L185.714 69.9559H183.137L180.928 66.7159H179.161V69.9559H176.951V59.7939ZM181.443 64.7276C182.548 64.7276 183.137 64.1385 183.137 63.2549C183.137 62.2976 182.474 61.7821 181.37 61.7821H179.161V64.7276H181.443Z" fill="white"/>
<path d="M187.334 64.8749C187.408 61.8557 189.912 59.4993 192.857 59.573C195.729 59.6466 198.012 61.9294 198.085 64.8012C198.012 67.7468 195.508 70.1032 192.563 70.0295C189.764 70.0295 187.408 67.7468 187.334 64.8749ZM195.803 64.8749C195.876 63.1076 194.551 61.7085 192.857 61.6348H192.783C191.09 61.6348 189.764 62.9603 189.764 64.654V64.8012C189.691 66.4949 191.016 67.9677 192.71 67.9677H192.783C194.477 67.9677 195.803 66.6422 195.803 64.8749Z" fill="white"/>
<path d="M199.043 68.5566L200.442 67.0102C200.884 67.5993 201.546 67.9675 202.283 68.0411C203.093 68.0411 203.682 67.5257 203.682 66.3475V59.7937H205.965V66.4211C206.038 67.452 205.67 68.4093 205.007 69.1457C204.271 69.8084 203.314 70.1766 202.356 70.103C201.031 70.103 199.853 69.5139 199.043 68.5566Z" fill="white"/>
<path d="M208.616 59.7937H216.274V61.7819H210.825V63.8438H215.611V65.832H210.825V67.9675H216.348V69.9557H208.616V59.7937Z" fill="white"/>
<path d="M218.189 64.8747C218.115 62.0029 220.398 59.6465 223.27 59.5728H223.49C224.963 59.4992 226.436 60.0883 227.467 61.1192L226.068 62.7392C225.405 62.0029 224.448 61.6347 223.49 61.561C221.797 61.561 220.545 62.9602 220.545 64.6538V64.7275C220.471 66.4211 221.723 67.8202 223.343 67.8939H223.417C224.448 67.8939 225.405 67.4521 226.068 66.7157L227.467 68.1884C226.436 69.3666 224.89 70.103 223.27 70.0294C220.471 70.103 218.115 67.8202 218.041 65.022C218.189 65.022 218.189 64.9484 218.189 64.8747Z" fill="white"/>
<path d="M232.106 61.8556H229.013V59.7937H237.408V61.8556H234.315V69.9557H232.106V61.8556Z" fill="white"/>
<path d="M71.2813 20.8395C72.4595 20.8395 73.5641 20.6186 74.595 20.1031C75.6259 19.5876 76.5096 18.8513 77.246 17.9676L80.4124 21.2077C77.9087 24.0059 74.9632 25.405 71.5758 25.405C70.0295 25.4787 68.4831 25.1841 67.084 24.6686C65.6112 24.1532 64.3594 23.2695 63.1812 22.2386C62.0766 21.2077 61.2666 19.9558 60.6775 18.5567C60.0884 17.1576 59.8675 15.6848 59.9411 14.1384C59.8675 12.5921 60.162 11.1193 60.7511 9.72019C61.3402 8.32107 62.2239 7.06923 63.2548 5.96466C64.433 4.8601 65.8321 3.97644 67.3785 3.46098C68.9249 2.87188 70.5449 2.65097 72.165 2.7246C73.785 2.79824 75.3314 3.24007 76.8041 3.90281C78.2769 4.63918 79.5287 5.59647 80.6333 6.84832L77.6141 10.3093C76.9514 9.42563 76.0678 8.68926 75.0368 8.17379C74.0059 7.65833 72.9013 7.43742 71.7968 7.43742C70.0295 7.43742 68.3358 8.02652 67.0103 9.20472C66.3476 9.79382 65.8321 10.6038 65.4639 11.4139C65.0957 12.2239 64.9485 13.1812 65.0221 14.0648C64.9485 14.9485 65.0957 15.9058 65.4639 16.7158C65.7585 17.5994 66.2739 18.3358 66.9367 18.9985C68.0412 20.2504 69.6613 20.8395 71.2813 20.8395ZM84.3152 25.1841V3.16643H89.2489V20.8395H98.6745V25.1841H84.3152ZM120.177 22.165C117.968 24.2268 115.022 25.405 111.929 25.405C108.837 25.405 105.891 24.2268 103.682 22.165C102.577 21.134 101.767 19.8822 101.178 18.4831C100.589 17.084 100.295 15.6112 100.368 14.0648C100.295 12.5921 100.589 11.0457 101.178 9.64655C101.767 8.24743 102.651 6.99559 103.682 5.96466C105.891 3.90281 108.837 2.7246 111.929 2.7246C115.022 2.7246 117.968 3.90281 120.177 5.96466C121.281 6.99559 122.091 8.24743 122.68 9.64655C123.27 11.0457 123.564 12.5184 123.49 14.0648C123.564 15.5376 123.27 17.084 122.68 18.4831C122.091 19.8086 121.281 21.0604 120.177 22.165ZM118.483 14.0648C118.483 12.2239 117.82 10.3829 116.568 8.98381C115.979 8.32107 115.243 7.80561 114.433 7.43742C113.623 7.06923 112.739 6.92195 111.856 6.92195C110.972 6.92195 110.088 7.14287 109.278 7.43742C108.468 7.80561 107.732 8.32107 107.143 8.98381C105.891 10.3829 105.155 12.1502 105.228 14.0648C105.228 15.9058 105.891 17.7467 107.143 19.1458C107.732 19.8086 108.468 20.324 109.278 20.6922C110.088 21.0604 110.972 21.2077 111.856 21.2077C112.739 21.2077 113.623 20.9868 114.433 20.6922C115.243 20.324 115.979 19.8086 116.568 19.1458C117.231 18.4831 117.747 17.6731 118.041 16.7894C118.336 15.9058 118.483 14.9485 118.483 14.0648ZM133.505 19.514C133.873 20.0295 134.389 20.3977 134.978 20.6922C135.567 20.9868 136.23 21.0604 136.819 21.0604C137.482 21.0604 138.071 20.9868 138.66 20.6922C139.249 20.3977 139.691 20.0295 140.059 19.514C140.943 18.3358 141.311 16.863 141.237 15.3903V3.24007H146.171V15.5376C146.171 18.704 145.287 21.2077 143.52 22.9013C142.636 23.785 141.532 24.4477 140.427 24.8896C139.249 25.3314 137.997 25.5523 136.819 25.4787C135.567 25.5523 134.315 25.3314 133.137 24.8896C131.959 24.4477 130.928 23.785 129.971 22.9013C128.203 21.2077 127.32 18.7776 127.32 15.5376V3.24007H132.253V15.3903C132.18 16.863 132.622 18.3358 133.505 19.514ZM168.189 6.0383C170.25 7.95288 171.355 10.6038 171.355 14.0648C171.355 17.5258 170.324 20.2504 168.336 22.2386C166.348 24.2268 163.108 25.1841 158.984 25.1841H151.326V3.16643H159.131C163.108 3.16643 166.127 4.12372 168.189 6.0383ZM164.654 19.1458C165.832 18.0412 166.421 16.3476 166.421 14.1384C166.421 11.9293 165.832 10.3093 164.654 9.13108C163.476 8.02652 161.635 7.36378 159.057 7.36378H156.333V20.8395H159.426C161.34 20.9868 163.181 20.3977 164.654 19.1458ZM199.411 3.16643H204.345V25.1841H199.411L188.881 11.4139V25.1841H183.947V3.16643H188.586L199.411 17.3049V3.16643ZM225.479 25.1841L223.417 20.4713H214.065L212.003 25.1841H206.701L216.274 3.16643H221.06L230.56 25.1841H225.479ZM218.851 9.72019L216.127 16.1267H221.65L218.851 9.72019ZM241.016 7.43742V25.2577H236.156V7.43742H229.897V3.24007H247.349V7.43742H241.016ZM250.884 3.16643H255.817V25.1841H250.884V3.16643ZM269.367 17.1576L275.037 3.16643H280.412L271.576 25.1841H267.452L258.616 3.16643H263.991L269.367 17.1576ZM298.822 3.16643V7.51105H287.85V12.003H297.717V16.2003H287.85V20.8395H299.19V25.2577H282.916V3.24007H298.822V3.16643ZM65.6848 43.9617C66.3476 43.9617 66.9367 43.8144 67.5258 43.5199C68.1149 43.2253 68.6303 42.7835 68.9985 42.2681L70.7658 44.109C70.1767 44.8454 69.3667 45.4345 68.5567 45.8763C67.6731 46.3181 66.7894 46.539 65.8321 46.539C64.9485 46.539 64.1384 46.4654 63.3284 46.0972C62.5184 45.8027 61.782 45.2872 61.1929 44.6981C60.6038 44.109 60.0884 43.4463 59.7938 42.6362C59.4993 41.8262 59.352 41.0162 59.352 40.2062C59.352 39.3225 59.4993 38.5125 59.7938 37.7025C60.0884 36.8925 60.6038 36.2298 61.1929 35.567C61.782 34.9779 62.5184 34.4625 63.3284 34.1679C64.1384 33.8734 64.9485 33.7261 65.8321 33.7261C66.7894 33.7261 67.7467 33.8734 68.6303 34.3152C69.514 34.6834 70.324 35.2725 70.9131 36.0088L69.2194 37.9234C68.8513 37.408 68.3358 36.9661 67.8203 36.6716C67.2312 36.377 66.6421 36.2298 65.9794 36.2298C65.0221 36.2298 64.0648 36.5979 63.3284 37.2607C62.9602 37.6289 62.6657 38.0707 62.4448 38.5125C62.2239 38.9544 62.1502 39.4698 62.2239 39.9853C62.2239 40.5007 62.2975 41.0162 62.4448 41.458C62.5921 41.8999 62.8866 42.3417 63.2548 42.7099C63.5493 43.0781 63.9912 43.299 64.433 43.5199C64.8748 43.7408 65.1694 43.9617 65.6848 43.9617ZM83.0633 44.6981C81.8115 45.8763 80.1915 46.539 78.4242 46.539C77.5405 46.539 76.7305 46.3918 75.9205 46.0972C75.1105 45.8027 74.3741 45.2872 73.785 44.6981C72.6068 43.5199 71.944 41.8999 71.944 40.2062C71.944 38.5125 72.6068 36.8925 73.785 35.7143C75.0368 34.5361 76.6569 33.8734 78.4242 33.8734C79.3078 33.8734 80.1178 34.0206 80.9278 34.3152C81.7379 34.6097 82.4742 35.1252 83.0633 35.7143C84.2415 36.8925 84.9043 38.5125 84.9043 40.2062C84.9043 41.8999 84.2415 43.4463 83.0633 44.6981ZM82.106 40.1326C82.106 39.1016 81.7379 38.0707 81.0751 37.3343C80.7806 36.9661 80.3387 36.6716 79.8969 36.4507C79.4551 36.2298 78.9396 36.1561 78.4978 36.1561C77.9823 36.1561 77.5405 36.2298 77.025 36.4507C76.5832 36.6716 76.1414 36.9661 75.8468 37.3343C75.4787 37.7025 75.1841 38.1443 75.0368 38.6598C74.8896 39.1753 74.8159 39.6907 74.8159 40.2062C74.8159 41.2371 75.1841 42.2681 75.8468 43.0044C76.1414 43.3726 76.5832 43.6672 77.025 43.8881C77.4669 44.109 77.9823 44.1826 78.4242 44.1826C78.9396 44.1826 79.3815 44.109 79.8969 43.8881C80.3387 43.6672 80.7806 43.3726 81.0751 43.0044C81.8115 42.1944 82.1797 41.1635 82.106 40.1326ZM98.3063 38.5862L94.9926 45.3608H93.3726L90.0589 38.5862V46.3918H87.3343V34.0206H91.0162L94.1826 40.7953L97.3491 34.0206H101.031V46.3918H98.3063V38.5862ZM112.666 35.1988C113.108 35.6407 113.476 36.1561 113.697 36.7452C113.918 37.3343 113.991 37.9971 113.991 38.5862C113.991 40.1326 113.549 41.2371 112.666 41.8999C111.782 42.6362 110.457 42.9308 108.616 42.9308H106.996V46.3181H104.271V34.0206H108.689C110.457 34.0943 111.782 34.4625 112.666 35.1988ZM110.677 39.9853C111.046 39.5435 111.193 38.9544 111.193 38.3653C111.193 38.0707 111.193 37.7762 111.046 37.5552C110.898 37.2607 110.751 37.0398 110.53 36.8925C109.941 36.5243 109.205 36.377 108.542 36.4507H106.996V40.5744H108.837C109.205 40.5744 109.499 40.5744 109.794 40.5007C110.088 40.4271 110.383 40.2062 110.677 39.9853ZM119.44 43.2253C119.661 43.5199 119.956 43.7408 120.25 43.8881C120.545 44.0354 120.913 44.109 121.281 44.109C121.649 44.109 122.018 44.0354 122.312 43.8881C122.607 43.7408 122.901 43.5199 123.122 43.2253C123.638 42.5626 123.859 41.6789 123.785 40.8689V34.0206H126.51V40.9426C126.583 41.6789 126.436 42.489 126.215 43.1517C125.994 43.8881 125.552 44.5508 125.037 45.0663C124.006 46.0236 122.607 46.4654 121.208 46.4654C119.809 46.4654 118.483 45.9499 117.452 44.9926C116.937 44.4035 116.568 43.8144 116.274 43.0781C116.053 42.3417 115.906 41.6053 115.979 40.8689V33.947H118.704V40.7217C118.704 41.6053 118.925 42.489 119.44 43.2253ZM134.61 36.4507V46.3918H131.885V36.4507H128.424V34.0943H138.218V36.4507H134.61ZM140.206 34.0943H142.931V46.4654H140.206V34.0943ZM154.639 34.0943H157.364V46.4654H154.639L148.748 38.7334V46.4654H146.024V34.0943H148.601L154.713 42.0471V34.0943H154.639ZM168.483 40.1326H171.208V44.4772C170.545 45.1399 169.735 45.729 168.851 46.0972C167.968 46.4654 167.01 46.6127 166.053 46.6127C164.359 46.6127 162.666 46.0236 161.414 44.8454C160.825 44.2563 160.309 43.5935 160.015 42.7835C159.72 41.9735 159.573 41.1635 159.573 40.3535C159.573 39.5435 159.72 38.6598 160.015 37.8498C160.309 37.0398 160.825 36.377 161.414 35.7143C162.003 35.0516 162.739 34.6097 163.476 34.3152C164.286 34.0206 165.096 33.7997 165.979 33.7997C167.673 33.7997 169.367 34.3888 170.619 35.567L169.219 37.6289C168.778 37.187 168.262 36.8189 167.673 36.6716C167.231 36.5243 166.716 36.377 166.2 36.377C165.243 36.377 164.286 36.7452 163.549 37.408C163.181 37.7762 162.887 38.218 162.666 38.7334C162.445 39.2489 162.371 39.7644 162.445 40.2798C162.445 41.3108 162.813 42.3417 163.476 43.0781C163.77 43.3726 164.138 43.6672 164.58 43.8144C165.022 43.9617 165.464 44.109 165.906 44.109C166.716 44.1826 167.526 43.9617 168.262 43.5935V40.1326H168.483ZM186.819 34.0943V36.5243H181.075V39.1753H186.524V41.6053H181.075V46.3918H178.351V34.0943H186.819ZM199.632 44.6981C198.38 45.8763 196.76 46.539 194.993 46.539C194.109 46.539 193.299 46.3918 192.489 46.0972C191.679 45.8027 190.943 45.2872 190.353 44.6981C189.175 43.5199 188.513 41.8999 188.513 40.2062C188.513 38.5125 189.175 36.8925 190.353 35.7143C191.605 34.5361 193.225 33.8734 194.993 33.8734C195.876 33.8734 196.686 34.0206 197.496 34.3152C198.306 34.6097 199.043 35.1252 199.632 35.7143C200.81 36.8925 201.473 38.5125 201.473 40.2062C201.473 41.8999 200.81 43.4463 199.632 44.6981ZM198.675 40.1326C198.675 39.1016 198.306 38.0707 197.644 37.3343C197.349 36.9661 196.907 36.6716 196.465 36.4507C196.024 36.2298 195.508 36.1561 195.066 36.1561C194.551 36.1561 194.109 36.2298 193.594 36.4507C193.078 36.6716 192.71 36.9661 192.415 37.3343C192.047 37.7025 191.753 38.1443 191.605 38.6598C191.458 39.1753 191.384 39.6907 191.384 40.2062C191.384 41.2371 191.753 42.2681 192.415 43.0044C192.71 43.3726 193.152 43.6672 193.594 43.8881C194.035 44.109 194.551 44.1826 194.993 44.1826C195.508 44.1826 195.95 44.109 196.465 43.8881C196.907 43.6672 197.349 43.3726 197.644 43.0044C198.012 42.6362 198.306 42.1944 198.454 41.6789C198.601 41.1635 198.675 40.648 198.675 40.1326ZM207.143 43.2253C207.364 43.5199 207.658 43.7408 207.953 43.8881C208.247 44.0354 208.616 44.109 208.984 44.109C209.352 44.109 209.72 44.0354 210.015 43.8881C210.309 43.7408 210.604 43.5199 210.825 43.2253C211.34 42.5626 211.561 41.6789 211.488 40.8689V34.0206H214.212V40.9426C214.286 41.6789 214.138 42.489 213.918 43.1517C213.697 43.8881 213.255 44.5508 212.739 45.0663C211.708 46.0236 210.309 46.4654 208.91 46.4654C207.511 46.4654 206.186 45.9499 205.155 44.9926C204.639 44.4035 204.271 43.8144 203.976 43.0781C203.756 42.3417 203.608 41.6053 203.682 40.8689V33.947H206.406V40.7217C206.333 41.6053 206.554 42.489 207.143 43.2253ZM225.773 34.0943H228.498V46.4654H225.773L219.882 38.7334V46.4654H217.158V34.0943H219.735L225.847 42.0471L225.773 34.0943ZM241.016 35.7143C241.605 36.3034 242.121 37.0398 242.415 37.7762C242.71 38.5862 242.857 39.3962 242.784 40.2062C242.857 41.0162 242.71 41.8999 242.415 42.6362C242.121 43.4463 241.679 44.109 241.09 44.6981C239.985 45.8027 238.218 46.3918 235.788 46.3918H231.591V34.0943H235.935C238.144 34.0943 239.838 34.6097 241.016 35.7143ZM238.954 43.0781C239.323 42.7099 239.543 42.2681 239.764 41.8262C239.912 41.3844 240.059 40.8689 239.985 40.3535C239.985 39.838 239.912 39.3225 239.764 38.8071C239.617 38.2916 239.323 37.8498 238.954 37.4816C238.513 37.1134 237.997 36.8189 237.482 36.6716C236.966 36.5243 236.377 36.4507 235.862 36.5243H234.315V44.0354H236.083C237.113 44.0354 238.144 43.6672 238.954 43.0781ZM253.608 46.3918L252.504 43.7408H247.275L246.171 46.3918H243.225L248.601 34.0206H251.252L256.627 46.3918H253.608ZM249.926 37.7025L248.38 41.2371H251.473L249.926 37.7025ZM262.371 36.4507V46.3918H259.647V36.4507H256.038V34.0943H265.832V36.4507H262.371ZM267.894 34.0943H270.619V46.4654H267.894V34.0943ZM284.021 44.6981C282.769 45.8763 281.149 46.539 279.381 46.539C278.498 46.539 277.688 46.3918 276.878 46.0972C276.068 45.8027 275.331 45.2872 274.742 44.6981C273.564 43.5199 272.901 41.8999 272.901 40.2062C272.901 38.5125 273.564 36.8925 274.742 35.7143C275.994 34.5361 277.614 33.8734 279.381 33.8734C280.265 33.8734 281.075 34.0206 281.885 34.3152C282.695 34.6097 283.432 35.1252 284.021 35.7143C285.199 36.8925 285.862 38.5125 285.862 40.2062C285.935 41.8262 285.273 43.4463 284.021 44.6981ZM283.137 40.1326C283.137 39.1016 282.769 38.0707 282.106 37.3343C281.812 36.9661 281.37 36.6716 280.928 36.4507C280.486 36.2298 279.971 36.1561 279.529 36.1561C279.013 36.1561 278.571 36.2298 278.056 36.4507C277.614 36.6716 277.172 36.9661 276.878 37.3343C276.51 37.7025 276.215 38.1443 276.068 38.6598C275.921 39.1753 275.847 39.6907 275.847 40.2062C275.847 41.2371 276.215 42.2681 276.878 43.0044C277.172 43.3726 277.614 43.6672 278.056 43.8881C278.498 44.109 279.013 44.1826 279.455 44.1826C279.971 44.1826 280.412 44.109 280.928 43.8881C281.37 43.6672 281.812 43.3726 282.106 43.0044C282.842 42.1944 283.211 41.1635 283.137 40.1326ZM296.907 34.0943H299.632V46.4654H296.907L291.016 38.7334V46.4654H288.292V34.0943H290.869L296.981 42.0471L296.907 34.0943Z" fill="black"/>
<path d="M6.92194 31.7378H0.147275V47.6435H15.9794V40.7952H6.92194V31.7378Z" fill="#0086FF"/>
<path d="M41.0162 31.8114V40.7952H31.8851V47.6435H47.7172V31.7378H40.8689L41.0162 31.8114Z" fill="#0086FF"/>
<path d="M0.147275 15.9057H6.99558L6.92194 15.8321V6.84831H15.9794V0H0.147275V15.9057Z" fill="#0086FF"/>
<path d="M31.8851 0V6.84831H41.0162V15.9057H47.7909V0H31.8851Z" fill="#0086FF"/>
<path d="M31.0015 15.9057L21.944 6.84831H31.8851V0H15.9794V6.84831L25.0368 15.9057H31.0015Z" fill="#93EAFF"/>
<path d="M22.8277 31.7378H16.863L24.3741 39.2488L25.8468 40.7952H15.9794V47.6435H31.8851V40.7216L27.3196 36.2297L22.8277 31.7378Z" fill="#93EAFF"/>
<path d="M41.0162 15.9058V25.7732L39.4698 24.2268L31.8851 16.7158V22.7541L36.377 27.246L40.9426 31.8115H47.7909V15.9058H41.0162Z" fill="#93EAFF"/>
<path d="M15.9794 24.8896L6.99558 15.9058H0.147275V31.7379H6.92194V21.8704L15.9794 30.9279V24.8896Z" fill="#93EAFF"/>
</g>
<defs>
<clipPath id="clip0_126_405">
<rect width="300" height="75.7732" fill="white"/>
</clipPath>
</defs>
</svg>
