<svg width="266" height="75" viewBox="0 0 266 75" fill="none" xmlns="http://www.w3.org/2000/svg">
<path d="M70.2855 26.8087C74.3848 26.1204 76.2611 23.9759 76.2611 20.1112C76.2611 15.1368 73.3881 12.9158 64.0036 12.9158H56.9937C56.1126 12.9158 55.6143 13.4137 55.6143 14.294V40.1259C55.6143 41.0062 56.1111 41.504 56.9937 41.504H64.3864C73.8099 41.504 77.2564 38.8631 77.2564 33.6968C77.2564 29.3717 75.1489 27.3817 70.284 26.8087M64.3849 38.6337H58.792V15.7862H63.9256C70.8199 15.7862 72.9274 16.857 72.9274 20.3782C72.9274 24.0913 70.5902 25.5446 64.4629 25.5446H63.2756C62.7773 25.5446 62.3555 25.9645 62.3555 26.4624V27.3427C62.3555 27.8406 62.7773 28.2605 63.2756 28.2605H64.4629C71.5494 28.2605 73.924 29.5608 73.924 33.5034C73.963 37.1011 71.2041 38.6322 64.3864 38.6322M97.2518 41.885C89.5905 41.885 85.5691 37.5225 85.5691 28.1075V14.3301C85.5691 13.4498 86.0675 12.9519 86.9471 12.9519H87.4065C88.2876 12.9519 88.7859 13.4498 88.7859 14.3301V28.0686C88.7859 35.7994 91.4668 38.9367 97.2894 38.9367C103.112 38.9367 105.793 35.8369 105.793 28.1061V14.3286C105.793 13.4483 106.291 12.9505 107.172 12.9505H107.632C108.513 12.9505 109.011 13.4483 109.011 14.3286V28.1061C108.934 37.4821 104.913 41.8836 97.2518 41.8836M163.403 41.4622C162.522 41.4622 162.025 40.9643 162.025 40.084V33.31L151.031 14.5581C150.495 13.6013 150.878 12.9129 151.912 12.9129H152.64C153.368 12.9129 153.865 13.2189 154.25 13.8697L163.597 29.9807L173.058 13.8308C173.44 13.1799 173.939 12.874 174.667 12.874H175.356C176.429 12.874 176.849 13.5623 176.313 14.5191L165.167 33.271V40.0826C165.167 40.9629 164.67 41.4607 163.787 41.4607H163.404L163.403 41.4622ZM215.573 41.4622C214.692 41.4622 214.195 40.9643 214.195 40.084V14.2911C214.195 13.4108 214.694 12.9129 215.573 12.9129H216.494C217.22 12.9129 217.796 13.1424 218.14 13.7932L234.419 36.7172V14.2911C234.419 13.4108 234.916 12.9129 235.799 12.9129H236.258C237.139 12.9129 237.637 13.4108 237.637 14.2911V40.123C237.637 41.0033 237.139 41.5012 236.258 41.5012H235.453C234.725 41.5012 234.15 41.2717 233.807 40.6208L217.412 17.5439V40.123C217.412 41.0033 216.914 41.5012 216.033 41.5012L215.573 41.4622ZM254.95 41.4622C254.069 41.4622 253.572 40.9643 253.572 40.084V15.8598H246.563C245.681 15.8598 245.183 15.3619 245.183 14.4816V14.2911C245.183 13.4108 245.681 12.9129 246.563 12.9129H263.723C264.604 12.9129 265.101 13.4108 265.101 14.2911V14.4816C265.101 15.3619 264.604 15.8598 263.723 15.8598H256.752V40.084C256.752 40.9643 256.253 41.4622 255.372 41.4622H254.95ZM139.846 19.228C139.731 19.534 139.655 20.3753 139.885 20.7592C141.072 22.6728 141.264 24.4334 141.264 27.4177C141.264 34.8036 137.396 39.0507 131.075 39.0507C124.754 39.0507 120.925 34.8411 120.925 27.4177C120.925 19.9943 124.87 15.8223 131.153 15.8223C132.723 15.8223 133.834 16.0142 135.098 16.5496C135.824 16.8945 136.744 16.5106 137.052 15.7458V15.7083C137.358 14.9809 136.975 14.1006 136.208 13.7947C134.523 13.1063 133.029 12.8379 131.114 12.8379C124.065 12.8379 117.746 17.2784 117.746 27.3802C117.746 37.4821 123.951 41.9601 130.998 41.9601C138.046 41.9601 144.404 37.7115 144.404 27.3802C144.404 23.4766 143.945 21.143 142.375 18.8456C141.8 17.9278 140.306 18.1572 139.846 19.228ZM206.189 41.4622H205.614C204.886 41.4622 204.313 41.0798 204.044 40.3899L201.822 35.1471L200.674 32.4687L200.368 31.7803H193.281C192.4 31.7803 191.903 31.2824 191.903 30.4021V29.9042C191.903 29.0239 192.402 28.5261 193.281 28.5261H198.988L193.894 16.4717L187.151 32.4311L186.003 35.1096L183.781 40.3524C183.475 41.0408 182.939 41.4247 182.211 41.4247H181.675C180.641 41.4247 180.219 40.7738 180.602 39.856L191.863 13.9477C192.169 13.2593 192.705 12.8754 193.433 12.8754H194.275C195.003 12.8754 195.578 13.2203 195.845 13.9477L207.222 39.895C207.604 40.8517 207.222 41.4636 206.187 41.4636" fill="#063359"/>
<path d="M130.997 42.035C127.223 42.035 124 40.8473 121.677 38.5989C119.02 36.0273 117.672 32.2535 117.672 27.3816C117.672 22.5096 119.077 18.8325 121.735 16.2695C124.078 14.0111 127.409 12.7671 131.112 12.7671C133.077 12.7671 134.56 13.0456 136.234 13.7297C136.626 13.8855 136.944 14.2001 137.108 14.5912C137.264 14.965 137.27 15.3662 137.123 15.724L137.117 15.7746C136.96 16.1685 136.637 16.4846 136.232 16.6433C135.846 16.7948 135.42 16.7847 135.066 16.6173C133.844 16.0993 132.745 15.8972 131.151 15.8972C128.07 15.8972 125.507 16.9464 123.736 18.9292C121.943 20.938 120.996 23.8733 120.996 27.4205C120.996 30.9677 121.92 33.9867 123.668 35.9739C125.4 37.9423 127.961 38.9828 131.073 38.9828C137.409 38.9828 141.19 34.6607 141.19 27.422C141.19 24.4304 140.985 22.677 139.822 20.8009C139.577 20.3925 139.655 19.5368 139.778 19.2063V19.2034C140.017 18.6464 140.566 18.2567 141.174 18.2091C141.702 18.1687 142.174 18.3938 142.435 18.8109C143.942 21.0131 144.476 23.2571 144.476 27.383C144.476 32.2449 143.103 36.0201 140.394 38.6004C138.036 40.8473 134.786 42.0365 130.998 42.0365L130.997 42.035ZM131.112 12.9114C127.446 12.9114 124.152 14.1409 121.835 16.3734C119.206 18.909 117.816 22.7145 117.816 27.3816C117.816 32.0486 119.15 35.9508 121.778 38.495C124.074 40.716 127.262 41.8907 130.997 41.8907C134.732 41.8907 137.962 40.716 140.293 38.495C142.973 35.9422 144.331 32.2045 144.331 27.383C144.331 23.2903 143.803 21.0679 142.314 18.8903C142.08 18.5165 141.658 18.3173 141.186 18.3534C140.631 18.3967 140.132 18.7517 139.913 19.2582C139.799 19.5656 139.736 20.3738 139.947 20.7259C141.128 22.6294 141.336 24.403 141.336 27.422C141.336 34.7516 137.5 39.1271 131.075 39.1271C127.919 39.1271 125.322 38.0693 123.561 36.0692C121.789 34.056 120.853 31.0644 120.853 27.4205C120.853 23.7767 121.813 20.8688 123.629 18.834C125.427 16.8179 128.029 15.7529 131.151 15.7529C132.766 15.7529 133.88 15.9578 135.125 16.486C135.447 16.639 135.83 16.6462 136.18 16.5105C136.544 16.3677 136.834 16.0863 136.978 15.7356L136.984 15.6836C137.121 15.3575 137.118 14.9909 136.975 14.6489C136.827 14.2925 136.536 14.0067 136.181 13.8653C134.526 13.1899 133.058 12.9143 131.114 12.9143L131.112 12.9114ZM97.2518 41.9585C93.3763 41.9585 90.4268 40.8199 88.4825 38.5759C86.5008 36.2871 85.4969 32.7659 85.4969 28.1103V14.3329C85.4969 13.4107 86.0255 12.8825 86.9471 12.8825H87.4064C88.3294 12.8825 88.8581 13.4107 88.8581 14.3329V28.0714C88.8581 35.6391 91.3801 38.8674 97.2893 38.8674C103.199 38.8674 105.721 35.6506 105.721 28.1089V14.3314C105.721 13.4093 106.249 12.8811 107.172 12.8811H107.632C108.555 12.8811 109.083 13.4093 109.083 14.3314V28.1089C109.046 32.7543 108.017 36.2712 106.03 38.56C104.072 40.8141 101.119 41.9571 97.2518 41.9571V41.9585ZM86.9471 13.0269C86.105 13.0269 85.6413 13.4901 85.6413 14.3329V28.1103C85.6413 32.7312 86.6337 36.2207 88.5923 38.482C90.5077 40.6944 93.4211 41.8157 97.2518 41.8157C101.082 41.8157 103.993 40.69 105.921 38.4676C107.886 36.2048 108.901 32.7197 108.939 28.1103V14.3343C108.939 13.493 108.475 13.0283 107.632 13.0283H107.172C106.33 13.0283 105.865 13.4915 105.865 14.3343V28.1118C105.865 35.7531 103.3 39.0146 97.2893 39.0146C94.2979 39.0146 92.1745 38.1761 90.798 36.4516C89.3954 34.6953 88.7136 31.9548 88.7136 28.0728V14.3343C88.7136 13.493 88.25 13.0283 87.4064 13.0283H86.9471V13.0269ZM236.258 41.5761H235.453C234.63 41.5761 234.07 41.2759 233.742 40.6583L217.483 17.7747V40.1272C217.483 41.0494 216.954 41.5775 216.031 41.5775L215.569 41.5386C214.649 41.5386 214.122 41.009 214.122 40.0882V14.2954C214.122 13.3732 214.65 12.845 215.572 12.845H216.492C217.315 12.845 217.876 13.1452 218.204 13.7628L234.347 36.4934V14.2939C234.347 13.3718 234.876 12.8436 235.799 12.8436H236.258C237.181 12.8436 237.71 13.3718 237.71 14.2939V40.1258C237.71 41.0479 237.181 41.5761 236.258 41.5761ZM215.573 12.9893C214.731 12.9893 214.268 13.4526 214.268 14.2954V40.0882C214.268 40.9296 214.731 41.3943 215.573 41.3943H215.579L216.038 41.4332C216.875 41.4332 217.34 40.9685 217.34 40.1272V17.3216L217.471 17.5063L233.866 40.5832C234.175 41.1648 234.678 41.4332 235.455 41.4332H236.259C237.101 41.4332 237.567 40.97 237.567 40.1272V14.2954C237.567 13.454 237.103 12.9893 236.259 12.9893H235.8C234.958 12.9893 234.493 13.4526 234.493 14.2954V36.948L218.082 13.8393C217.773 13.2578 217.271 12.9893 216.494 12.9893H215.573ZM64.3863 41.5761H56.9937C56.0721 41.5761 55.542 41.0479 55.542 40.1258V14.2939C55.542 13.3718 56.0707 12.8436 56.9937 12.8436H64.0035C72.9909 12.8436 76.3333 14.8134 76.3333 20.1111C76.3333 23.8907 74.5552 26.025 70.7491 26.7957C75.354 27.4508 77.3285 29.5347 77.3285 33.6967C77.3285 36.404 76.368 38.3334 74.3934 39.5976C72.3149 40.9281 69.0418 41.5747 64.3849 41.5747L64.3863 41.5761ZM56.9937 12.9893C56.1515 12.9893 55.6864 13.4526 55.6864 14.2954V40.1272C55.6864 40.9685 56.1501 41.4332 56.9937 41.4332H64.3863C73.3563 41.4332 77.1841 39.1199 77.1841 33.6981C77.1841 29.4351 75.1821 27.4595 70.2768 26.8808L69.7755 26.8216L70.2739 26.7379C74.3097 26.0597 76.1889 23.9542 76.1889 20.1111C76.1889 15.7139 74.1508 12.9879 64.0035 12.9879H56.9937V12.9893ZM255.372 41.5386H254.95C254.029 41.5386 253.5 41.0104 253.5 40.0882V15.9362H246.563C245.64 15.9362 245.111 15.408 245.111 14.4858V14.2954C245.111 13.3732 245.64 12.845 246.563 12.845H263.723C264.644 12.845 265.173 13.3732 265.173 14.2954V14.4858C265.173 15.408 264.644 15.9362 263.723 15.9362H256.824V40.0882C256.824 41.0104 256.295 41.5386 255.372 41.5386ZM246.563 12.9893C245.72 12.9893 245.255 13.4526 245.255 14.2954V14.4858C245.255 15.3272 245.719 15.7919 246.563 15.7919H253.645V40.0882C253.645 40.9296 254.108 41.3943 254.95 41.3943H255.372C256.214 41.3943 256.679 40.931 256.679 40.0882V15.7919H263.723C264.565 15.7919 265.028 15.3286 265.028 14.4858V14.2954C265.028 13.454 264.565 12.9893 263.723 12.9893H246.563ZM206.19 41.5386H205.615C204.851 41.5386 204.255 41.1316 203.977 40.4202L201.756 35.1787L200.608 32.5003L200.32 31.8552H193.28C192.358 31.8552 191.83 31.3271 191.83 30.4049V29.907C191.83 28.9863 192.358 28.4567 193.28 28.4567H198.879L193.894 16.6592L187.219 32.4599L186.071 35.1383L183.849 40.3812C183.524 41.1114 182.958 41.4967 182.213 41.4967H181.677C181.145 41.4967 180.754 41.3322 180.547 41.0219C180.346 40.7203 180.342 40.296 180.537 39.8285L191.799 13.9187C192.124 13.1885 192.691 12.8032 193.436 12.8032H194.278C195.068 12.8032 195.65 13.2 195.916 13.9216L207.291 39.8646C207.493 40.3682 207.493 40.791 207.291 41.0898C207.093 41.3813 206.713 41.5357 206.19 41.5357V41.5386ZM193.281 28.6039C192.439 28.6039 191.976 29.0671 191.976 29.9099V30.4078C191.976 31.2491 192.439 31.7138 193.281 31.7138H200.415L200.74 32.4455L201.89 35.1254L204.112 40.3682C204.366 41.0219 204.913 41.3957 205.615 41.3957H206.19C206.663 41.3957 207.002 41.2629 207.171 41.0133C207.344 40.7579 207.34 40.3812 207.158 39.9252L195.782 13.9808C195.533 13.3068 195.013 12.9518 194.278 12.9518H193.436C192.751 12.9518 192.231 13.3083 191.931 13.9808L180.67 39.8891C180.492 40.3163 180.491 40.6828 180.667 40.9469C180.846 41.2153 181.196 41.3582 181.677 41.3582H182.213C182.897 41.3582 183.417 41.0017 183.718 40.3292L185.939 35.0878L187.088 32.4094L193.897 16.2941L199.1 28.6068H193.283L193.281 28.6039ZM163.787 41.5386H163.404C162.483 41.5386 161.954 41.0104 161.954 40.0882V33.3344L150.971 14.5999C150.692 14.102 150.644 13.6488 150.835 13.3241C151.015 13.0153 151.4 12.8465 151.914 12.8465H152.642C153.383 12.8465 153.914 13.1611 154.313 13.8393L163.598 29.8435L172.996 13.8004C173.394 13.1235 173.926 12.8075 174.667 12.8075H175.356C175.905 12.8075 176.312 12.985 176.501 13.3083C176.692 13.633 176.647 14.0774 176.377 14.5594L165.239 33.2955V40.0868C165.239 41.009 164.71 41.5371 163.787 41.5371V41.5386ZM151.912 12.9893C151.45 12.9893 151.112 13.1336 150.958 13.3963C150.793 13.6763 150.842 14.0774 151.095 14.5277L162.097 33.2955V40.0882C162.097 40.9296 162.561 41.3943 163.403 41.3943H163.786C164.628 41.3943 165.093 40.931 165.093 40.0882V33.2565L165.103 33.2392L176.25 14.4873C176.494 14.0529 176.539 13.6589 176.376 13.3804C176.212 13.1033 175.85 12.9504 175.354 12.9504H174.665C173.971 12.9504 173.494 13.2347 173.118 13.8711L163.595 30.1278L154.186 13.9086C153.81 13.2722 153.334 12.9879 152.64 12.9879H151.912V12.9893ZM64.3863 38.7072H58.7212V15.7154H63.927C70.8805 15.7154 73.001 16.8049 73.001 20.3795C73.001 24.1504 70.6075 25.6181 64.4643 25.6181H63.277C62.8177 25.6181 62.4291 26.0063 62.4291 26.4637V27.344C62.4291 27.803 62.8177 28.1897 63.277 28.1897H64.4643C71.5912 28.1897 73.9977 29.5304 73.9977 33.5047C74.0121 34.8497 73.6394 35.8873 72.8609 36.6738C71.4887 38.0592 68.7962 38.7043 64.3878 38.7043L64.3863 38.7072ZM58.8657 38.5629H64.3863C68.7529 38.5629 71.4121 37.9308 72.7554 36.5742C73.5065 35.8152 73.8648 34.8122 73.8503 33.5076C73.8503 31.493 73.222 30.249 71.8151 29.4698C70.3967 28.6847 68.1289 28.3355 64.4629 28.3355H63.2755C62.7382 28.3355 62.2832 27.8823 62.2832 27.3455V26.4652C62.2832 25.9283 62.7382 25.4752 63.2755 25.4752H64.4629C70.5021 25.4752 72.8551 24.0465 72.8551 20.381C72.8551 16.9175 70.7693 15.8611 63.9255 15.8611H58.8642V38.5643L58.8657 38.5629Z" fill="#063359"/>
<path d="M70.2855 26.8088C74.3848 26.1204 76.2611 23.9759 76.2611 20.1113C76.2611 15.1368 73.3881 12.9159 64.0036 12.9159H56.9937C56.1126 12.9159 55.6143 13.4137 55.6143 14.294V40.1259C55.6143 41.0062 56.1111 41.5041 56.9937 41.5041H64.3864C73.8099 41.5041 77.2564 38.8632 77.2564 33.6968C77.2564 29.3718 75.1489 27.3817 70.284 26.8088H70.2855ZM64.3864 38.6337H58.7935V15.7862H63.927C70.8214 15.7862 72.9288 16.857 72.9288 20.3782C72.9288 24.0914 70.5917 25.5446 64.4644 25.5446H63.277C62.7787 25.5446 62.3569 25.9646 62.3569 26.4624V27.3427C62.3569 27.8406 62.7787 28.2606 63.277 28.2606H64.4644C71.5508 28.2606 73.9255 29.5608 73.9255 33.5034C73.9645 37.1011 71.2056 38.6323 64.3878 38.6323L64.3864 38.6337ZM97.2518 41.8865C89.5905 41.8865 85.5691 37.5239 85.5691 28.109V14.3316C85.5691 13.4513 86.0675 12.9534 86.9471 12.9534H87.4065C88.2876 12.9534 88.7859 13.4513 88.7859 14.3316V28.0701C88.7859 35.8009 91.4668 38.9382 97.2894 38.9382C103.112 38.9382 105.793 35.8384 105.793 28.1076V14.3301C105.793 13.4498 106.291 12.9519 107.172 12.9519H107.632C108.513 12.9519 109.011 13.4498 109.011 14.3301V28.1076C108.934 37.4835 104.913 41.8851 97.2518 41.8851V41.8865ZM163.403 41.4651C162.522 41.4651 162.025 40.9672 162.025 40.0869V33.3129L151.031 14.561C150.495 13.6042 150.878 12.9159 151.912 12.9159H152.64C153.368 12.9159 153.865 13.2218 154.25 13.8727L163.597 29.9836L173.058 13.8337C173.44 13.1828 173.939 12.8769 174.667 12.8769H175.356C176.429 12.8769 176.849 13.5653 176.313 14.5221L165.167 33.274V40.0855C165.167 40.9658 164.67 41.4637 163.787 41.4637H163.404L163.403 41.4651ZM215.573 41.4651C214.692 41.4651 214.195 40.9672 214.195 40.0869V14.294C214.195 13.4137 214.694 12.9159 215.573 12.9159H216.494C217.22 12.9159 217.796 13.1453 218.14 13.7962L234.419 36.7201V14.294C234.419 13.4137 234.916 12.9159 235.799 12.9159H236.258C237.139 12.9159 237.637 13.4137 237.637 14.294V40.1259C237.637 41.0062 237.139 41.5041 236.258 41.5041H235.453C234.725 41.5041 234.15 41.2746 233.807 40.6238L217.412 17.5468V40.1259C217.412 41.0062 216.914 41.5041 216.033 41.5041L215.573 41.4651ZM254.95 41.4651C254.069 41.4651 253.572 40.9672 253.572 40.0869V15.8627H246.563C245.681 15.8627 245.183 15.3648 245.183 14.4845V14.294C245.183 13.4137 245.681 12.9159 246.563 12.9159H263.723C264.604 12.9159 265.101 13.4137 265.101 14.294V14.4845C265.101 15.3648 264.604 15.8627 263.723 15.8627H256.752V40.0869C256.752 40.9672 256.253 41.4651 255.372 41.4651H254.95ZM139.846 19.231C139.731 19.5369 139.655 20.3782 139.885 20.7621C141.072 22.6757 141.264 24.4363 141.264 27.4207C141.264 34.8066 137.396 39.0537 131.075 39.0537C124.754 39.0537 120.925 34.8441 120.925 27.4207C120.925 19.9973 124.87 15.8252 131.153 15.8252C132.723 15.8252 133.834 16.0171 135.098 16.5525C135.824 16.8974 136.744 16.5136 137.052 15.7487V15.7112C137.358 14.9839 136.975 14.1035 136.208 13.7976C134.523 13.1092 133.029 12.8408 131.114 12.8408C124.065 12.8408 117.746 17.2813 117.746 27.3831C117.746 37.485 123.951 41.963 130.998 41.963C138.046 41.963 144.404 37.7144 144.404 27.3831C144.404 23.4795 143.945 21.146 142.375 18.8485C141.8 17.9307 140.306 18.1602 139.846 19.231ZM206.189 41.4651H205.614C204.886 41.4651 204.313 41.0827 204.044 40.3929L201.822 35.15L200.674 32.4716L200.368 31.7832H193.281C192.4 31.7832 191.903 31.2853 191.903 30.405V29.9072C191.903 29.0269 192.402 28.529 193.281 28.529H198.988L193.894 16.4746L187.151 32.4341L186.003 35.1125L183.781 40.3554C183.475 41.0437 182.939 41.4276 182.211 41.4276H181.675C180.641 41.4276 180.219 40.7767 180.602 39.8589L191.863 13.9506C192.169 13.2622 192.705 12.8783 193.433 12.8783H194.275C195.003 12.8783 195.578 13.2232 195.845 13.9506L207.222 39.8979C207.604 40.8547 207.222 41.4666 206.187 41.4666L206.189 41.4651Z" fill="#063359"/>
<path d="M130.996 42.276C127.158 42.276 123.878 41.0638 121.509 38.7722C118.802 36.1529 117.43 32.3214 117.43 27.3816C117.43 22.4418 118.86 18.7056 121.567 16.0964C123.955 13.7932 127.345 12.5261 131.112 12.5261C133.11 12.5261 134.62 12.8104 136.325 13.506C136.774 13.6849 137.141 14.0472 137.33 14.4974C137.505 14.9145 137.517 15.3633 137.363 15.7688V15.8063L137.34 15.8626C137.158 16.3172 136.786 16.6838 136.319 16.867C135.871 17.0431 135.376 17.0301 134.961 16.8338C133.78 16.3331 132.708 16.1368 131.151 16.1368C124.943 16.1368 121.238 20.355 121.238 27.4191C121.238 34.4832 124.823 38.739 131.074 38.739C134.1 38.739 136.601 37.7216 138.304 35.7979C140.034 33.8425 140.95 30.9447 140.95 27.4191C140.95 24.4131 140.758 22.7622 139.618 20.9251C139.318 20.4243 139.416 19.4834 139.553 19.1197L139.559 19.1053C139.838 18.4573 140.45 18.0201 141.158 17.9652C141.776 17.9176 142.332 18.1846 142.641 18.6796C144.174 20.9193 144.719 23.1994 144.719 27.3802C144.719 32.3113 143.32 36.1442 140.561 38.7722C138.156 41.0638 134.85 42.2746 130.999 42.2746L130.996 42.276ZM131.112 13.1524C124.801 13.1524 118.057 16.8901 118.057 27.3816C118.057 32.1439 119.366 35.8253 121.945 38.3219C124.194 40.4981 127.325 41.6497 130.996 41.6497C134.668 41.6497 137.84 40.4981 140.127 38.3205C142.757 35.8152 144.09 32.1352 144.09 27.3816C144.09 23.3438 143.573 21.1574 142.116 19.0245C141.922 18.7157 141.594 18.5627 141.204 18.5916C140.739 18.6276 140.322 18.9235 140.137 19.3463C140.041 19.609 139.991 20.3291 140.153 20.6004C141.363 22.5515 141.577 24.3539 141.577 27.4206C141.577 34.9017 137.651 39.3667 131.074 39.3667C127.847 39.3667 125.187 38.2815 123.378 36.2279C121.567 34.17 120.609 31.1236 120.609 27.4206C120.609 23.7175 121.59 20.7534 123.446 18.6738C125.292 16.6058 127.956 15.5119 131.149 15.5119C132.799 15.5119 133.94 15.7226 135.217 16.2638C135.491 16.3937 135.798 16.3995 136.089 16.2855C136.378 16.1729 136.611 15.955 136.735 15.6837V15.6476L136.76 15.5899C136.871 15.3243 136.868 15.0227 136.75 14.7413C136.625 14.444 136.384 14.2074 136.088 14.089C134.462 13.4252 133.02 13.1553 131.11 13.1553L131.112 13.1524ZM97.2513 42.1996C93.3036 42.1996 90.2919 41.0335 88.3 38.7332C86.2793 36.3997 85.2551 32.8251 85.2551 28.1089V14.3315C85.2551 13.2722 85.8878 12.6401 86.9466 12.6401H87.4059C88.4662 12.6401 89.0988 13.2722 89.0988 14.3315V28.07C89.0988 35.4688 91.5486 38.625 97.2888 38.625C100.159 38.625 102.183 37.8399 103.48 36.2265C104.826 34.551 105.479 31.8957 105.479 28.1089V14.3315C105.479 13.2722 106.111 12.6401 107.172 12.6401H107.631C108.691 12.6401 109.324 13.2722 109.324 14.3315V28.1089C109.285 32.8149 108.238 36.3838 106.211 38.7188C104.206 41.0278 101.192 42.1996 97.2498 42.1996H97.2513ZM86.9466 13.2679C86.2403 13.2679 85.882 13.6258 85.882 14.3329V28.1104C85.882 37.1703 89.6015 41.5747 97.2513 41.5747C104.901 41.5747 108.623 37.1703 108.697 28.1089V14.3344C108.697 13.6287 108.339 13.2693 107.631 13.2693H107.172C106.465 13.2693 106.106 13.6272 106.106 14.3344V28.1118C106.106 32.0472 105.407 34.831 103.968 36.6219C102.545 38.3941 100.36 39.2556 97.2888 39.2556C91.1904 39.2556 88.4719 35.8065 88.4719 28.0743V14.3358C88.4719 13.6301 88.1137 13.2708 87.4059 13.2708H86.9466V13.2679ZM236.257 41.8171H235.453C234.54 41.8171 233.913 41.4809 233.539 40.7896L217.725 18.5309V40.1272C217.725 41.1865 217.092 41.8186 216.032 41.8186H216.006L215.558 41.7796C214.507 41.7738 213.88 41.1432 213.88 40.0883V14.2954C213.88 13.2361 214.513 12.6041 215.571 12.6041H216.492C217.404 12.6041 218.031 12.9403 218.405 13.633L234.104 35.7387V14.2968C234.104 13.2376 234.736 12.6055 235.797 12.6055H236.256C237.316 12.6055 237.949 13.2376 237.949 14.2968V40.1287C237.949 41.1879 237.316 41.82 236.256 41.82L236.257 41.8171ZM217.098 16.564L234.083 40.4765C234.345 40.97 234.768 41.1894 235.454 41.1894H236.259C236.967 41.1894 237.325 40.8315 237.325 40.1244V14.2925C237.325 13.5854 236.967 13.2275 236.259 13.2275H235.799C235.093 13.2275 234.733 13.5854 234.733 14.2925V37.7014L217.864 13.9418C217.602 13.4483 217.181 13.2289 216.494 13.2289H215.574C214.868 13.2289 214.51 13.5868 214.51 14.2939V40.0868C214.51 40.794 214.868 41.1519 215.574 41.1519H215.6L216.047 41.1908C216.746 41.1865 217.1 40.8286 217.1 40.1258V16.564H217.098ZM64.3844 41.8171H56.9917C55.9315 41.8171 55.2988 41.1851 55.2988 40.1258V14.2939C55.2988 13.2347 55.9315 12.6026 56.9917 12.6026H64.0016C68.7466 12.6026 71.8652 13.1683 73.8151 14.382C75.6958 15.5523 76.5726 17.3736 76.5726 20.1112C76.5726 23.6396 75.079 25.7826 71.9027 26.7553C75.8547 27.6024 77.5693 29.7425 77.5693 33.6981C77.5693 36.4935 76.5726 38.4907 74.5229 39.8025C72.4039 41.1591 69.0889 41.8186 64.3844 41.8186V41.8171ZM56.9917 13.2304C56.2854 13.2304 55.9257 13.5883 55.9257 14.2954V40.1272C55.9257 40.8329 56.2839 41.1923 56.9917 41.1923H64.3844C73.1854 41.1923 76.9409 38.9511 76.9409 33.6981C76.9409 29.5867 75.001 27.6818 70.2459 27.1204L68.0692 26.8635L70.2315 26.4999C74.1835 25.836 75.9457 23.8662 75.9457 20.1112C75.9457 17.5756 75.1859 15.9737 73.4844 14.9145C71.6369 13.7658 68.6253 13.2304 64.0016 13.2304H56.9917ZM255.37 41.7796H254.948C253.89 41.7796 253.257 41.1475 253.257 40.0883V16.1772H246.561C245.5 16.1772 244.868 15.5451 244.868 14.4859V14.2954C244.868 13.2361 245.5 12.6041 246.561 12.6041H263.721C264.779 12.6041 265.412 13.2361 265.412 14.2954V14.4859C265.412 15.5451 264.779 16.1772 263.721 16.1772H257.063V40.0883C257.063 41.1475 256.43 41.7796 255.37 41.7796ZM246.561 13.2304C245.854 13.2304 245.495 13.5883 245.495 14.2954V14.4859C245.495 15.1916 245.853 15.5509 246.561 15.5509H253.884V40.0883C253.884 40.7954 254.242 41.1533 254.948 41.1533H255.37C256.077 41.1533 256.436 40.7954 256.436 40.0883V15.5509H263.721C264.427 15.5509 264.785 15.193 264.785 14.4859V14.2954C264.785 13.5883 264.427 13.2304 263.721 13.2304H246.561ZM206.188 41.7796H205.613C204.744 41.7796 204.065 41.3164 203.752 40.5082L201.533 35.274L200.385 32.597L200.162 32.0992H193.279C192.219 32.0992 191.586 31.4671 191.586 30.4078V29.91C191.586 28.8507 192.219 28.2186 193.279 28.2186H198.514L193.892 17.2826L187.438 32.5581L186.288 35.2379L184.067 40.4794C183.704 41.2962 183.044 41.7421 182.208 41.7421H181.672C181.064 41.7421 180.591 41.5357 180.341 41.1591C180.094 40.7882 180.083 40.2831 180.31 39.739L191.573 13.8264C191.936 13.0125 192.595 12.5665 193.431 12.5665H194.273C195.169 12.5665 195.829 13.0168 196.135 13.8336L207.509 39.7722C207.806 40.514 207.66 40.9729 207.487 41.2283C207.316 41.4794 206.952 41.7796 206.187 41.7796H206.188ZM193.279 28.8449C192.573 28.8449 192.215 29.2028 192.215 29.91V30.4078C192.215 31.1135 192.573 31.4728 193.279 31.4728H200.569L200.958 32.3474L202.109 35.0301L204.332 40.2744C204.555 40.8459 205.008 41.1547 205.613 41.1547H206.188C206.46 41.1547 206.815 41.1071 206.97 40.8791C207.094 40.6944 207.081 40.3884 206.932 40.0161L195.551 14.0616C195.339 13.4858 194.91 13.1943 194.276 13.1943H193.434C192.843 13.1943 192.411 13.4916 192.15 14.0804L180.889 39.9858C180.747 40.3264 180.737 40.6222 180.864 40.8127C180.994 41.009 181.282 41.1158 181.673 41.1158H182.209C182.8 41.1158 183.232 40.8171 183.493 40.2297L185.713 34.9912L186.863 32.3113L193.893 15.6707L199.46 28.8449H193.279ZM163.785 41.7796H163.402C162.344 41.7796 161.711 41.1475 161.711 40.0883V33.3994L150.761 14.7211C150.436 14.141 150.388 13.6027 150.625 13.2015C150.852 12.8162 151.308 12.6041 151.912 12.6041H152.64C153.475 12.6041 154.073 12.9576 154.519 13.7153L163.597 29.363L172.787 13.6777C173.233 12.9187 173.831 12.5665 174.666 12.5665H175.355C175.994 12.5665 176.475 12.7873 176.709 13.1871C176.944 13.5883 176.901 14.1179 176.586 14.6778L165.48 33.3633V40.0897C165.48 41.149 164.847 41.7811 163.787 41.7811L163.785 41.7796ZM151.91 13.2304C151.538 13.2304 151.273 13.3328 151.164 13.5175C151.047 13.7167 151.097 14.0428 151.302 14.4094L162.336 33.2291V40.0868C162.336 40.794 162.695 41.1519 163.401 41.1519H163.784C164.49 41.1519 164.85 40.794 164.85 40.0868V33.1887L164.893 33.1151L176.04 14.3632C176.236 14.0111 176.283 13.7023 176.164 13.5017C176.047 13.3011 175.758 13.1914 175.352 13.1914H174.663C174.057 13.1914 173.657 13.431 173.324 13.9938L163.592 30.607L153.975 14.0299C153.644 13.4699 153.244 13.2289 152.637 13.2289H151.909L151.91 13.2304ZM64.3844 38.9482H58.478V15.4744H63.925C70.9768 15.4744 73.2403 16.6664 73.2403 20.3796C73.2403 22.4028 72.5787 23.7507 71.1559 24.6224C69.7779 25.4666 67.6517 25.8606 64.4609 25.8606H63.2736C62.95 25.8606 62.6669 26.1434 62.6669 26.4652V27.3455C62.6669 27.6673 62.95 27.9502 63.2736 27.9502H64.4609C68.1963 27.9502 70.5218 28.3153 72.0009 29.1321C73.5263 29.9749 74.2355 31.3646 74.2355 33.5062C74.2514 34.9161 73.8556 36.01 73.0279 36.8456C71.608 38.28 68.8607 38.9482 64.3844 38.9482ZM59.1049 38.3219H64.3844C68.683 38.3219 71.2874 37.7129 72.583 36.4054C73.2865 35.6954 73.6216 34.7473 73.6086 33.5105C73.6086 29.7757 71.3856 28.5779 64.4609 28.5779H63.2736C62.6048 28.5779 62.04 28.0137 62.04 27.3455V26.4652C62.04 25.7971 62.6048 25.2328 63.2736 25.2328H64.4609C70.4034 25.2328 72.6119 23.9167 72.6119 20.3796C72.6119 17.0604 70.6634 16.1007 63.9236 16.1007H59.1035V38.3219H59.1049Z" fill="#063359"/>
<mask id="mask0_209_7631" style="mask-type:luminance" maskUnits="userSpaceOnUse" x="0" y="0" width="36" height="55">
<path d="M20.8303 6.34829C20.3537 6.34829 19.8813 6.57774 19.6112 6.99336C19.1894 7.64421 19.3816 8.56203 20.033 8.98342C22.4452 10.5521 23.6716 12.5422 24.2089 15.642C24.3244 16.3318 24.8979 16.8282 25.6259 16.8282C25.7024 16.8282 25.779 16.8282 25.8166 16.7893C26.5836 16.6753 27.1194 15.9479 27.0039 15.1441C26.3914 11.2419 24.7058 8.59956 21.6031 6.57197C21.3691 6.42044 21.1004 6.34829 20.8318 6.34829H20.8303ZM17.5587 0.00288576C17.0632 0.00432888 16.5331 0.0230898 15.9727 0.0663834C15.5119 0.103905 15.0916 0.33336 14.8229 0.678266C14.5557 0.984208 14.4401 1.4056 14.4777 1.82699C14.5152 2.2859 14.7463 2.70729 15.0901 2.97571C15.3963 3.24269 15.8181 3.35814 16.2384 3.31918C18.0007 3.16621 19.266 3.31918 20.0691 3.43463C23.2108 3.85602 26.3134 5.50117 28.6115 7.98767C31.0628 10.6286 32.4422 14.0343 32.4422 17.5166C32.4422 20.5775 31.6377 23.2963 30.0285 25.6298C28.5725 27.7339 26.4666 29.457 23.8998 30.6043C23.0577 30.9867 22.7124 31.906 23.0577 32.7473C23.2108 33.2062 23.5936 33.5511 24.0543 33.6651L19.8409 41.3569H19.4957V34.9668C19.4957 34.0865 18.7287 33.3216 17.81 33.3216C16.8913 33.3216 16.1633 34.0879 16.1633 34.9668V41.4724H15.665L11.2219 34.2005C11.7578 34.3924 12.4468 34.6219 13.1372 34.7359C13.2528 34.7749 13.4044 34.7749 13.4824 34.7749C14.287 34.7749 14.976 34.2005 15.0916 33.4357C15.2447 32.5554 14.6698 31.714 13.7887 31.5235C12.3717 31.2551 11.3374 30.7572 11.2219 30.6807C9.80344 29.9534 8.463 28.9591 7.23666 27.6964L7.16011 27.6199C6.58522 26.9705 5.93522 26.2042 5.43689 25.4004C3.94333 23.1433 3.17778 20.5024 3.17778 17.8225C3.17778 15.603 3.63711 13.3835 4.47922 11.3934C5.39933 9.28792 6.73978 7.52876 8.463 6.1881C8.76922 5.95864 9.00033 6.07265 9.191 6.1881C9.45967 6.38003 9.49722 6.57053 9.38311 6.83895C8.30989 9.36441 7.73644 12.2348 7.774 15.1427C7.813 18.205 8.541 21.2283 9.958 23.8678C10.4173 24.6716 11.375 24.94 12.1796 24.5186C12.5623 24.3267 12.8686 23.9818 12.9841 23.5604C13.1372 23.1404 13.0621 22.719 12.87 22.3366C11.7202 20.1936 11.1078 17.7056 11.0688 15.1037C11.0312 12.6172 11.4906 10.2822 12.4092 8.10023C13.0982 6.4926 12.6403 4.61798 11.2609 3.58471C9.88144 2.47495 7.92855 2.47495 6.54911 3.58471C4.36511 5.26883 2.67944 7.44939 1.57011 10.0528C0.535888 12.4253 0 15.0662 0 17.7446C0 20.9974 0.957667 24.2127 2.79644 27.083C3.33233 27.9244 3.98378 28.7282 4.82589 29.685L11.9499 41.318H9.57522C8.77066 41.318 8.12067 42.0078 8.12067 42.7726C8.12067 43.5765 8.80966 44.2259 9.57522 44.2259H24.7058V49.2003C24.7058 50.7315 23.4419 52.0331 21.8718 52.0331H13.8652C12.3341 52.0331 11.0312 50.769 11.0312 49.2003V48.5495C11.0312 47.7471 10.3798 47.0962 9.57522 47.0962C8.77066 47.0962 8.12067 47.7846 8.12067 48.5495V49.1613C8.12067 52.3001 10.6874 54.8646 13.8277 54.8646H21.8718C25.012 54.8646 27.5788 52.3001 27.5788 49.1613V43.1926C27.5788 42.1593 26.7367 41.3165 25.7024 41.3165V41.3555H23.5184L29.1099 31.1757C30.5269 30.0284 31.7157 28.7657 32.6733 27.4251C34.6652 24.5172 35.6604 21.1489 35.6604 17.4372C35.6604 13.1887 34.0138 9.01806 31.0642 5.80279C28.2302 2.74193 24.3996 0.712901 20.5689 0.216468C19.8756 0.109677 18.8876 0.00288624 17.6814 0H17.5572L17.5587 0.00288576Z" fill="white"/>
</mask>
<g mask="url(#mask0_209_7631)">
<path d="M7.98088 -14.8436L-22.8838 42.5938L27.6844 69.7174L58.5491 12.28L7.98088 -14.8436Z" fill="url(#paint0_linear_209_7631)"/>
</g>
<path d="M55.2803 62.6053C55.2803 58.4636 57.99 56.5947 60.7807 56.5947C62.6845 56.5947 64.7645 57.4332 65.6846 59.7537C65.894 60.2848 65.6196 60.6557 65.088 60.7524L64.8295 60.8C64.3297 60.8967 64.087 60.6874 63.8458 60.2198C63.1843 58.9629 62.1356 58.3178 60.7807 58.3178C58.6357 58.3178 57.1999 59.9615 57.1999 62.6039C57.1999 65.2462 58.6025 66.8582 60.7807 66.8582C62.1674 66.8582 63.2319 66.1972 63.8776 64.8768C64.1029 64.4092 64.3774 64.2 64.8613 64.2967L65.1198 64.3443C65.6514 64.441 65.894 64.9085 65.6037 65.6012C64.6677 67.7933 62.6354 68.5986 60.7807 68.5986C57.99 68.5986 55.2803 66.8582 55.2803 62.6039V62.6053Z" fill="#063359"/>
<path d="M71.9086 59.0769C72.4575 59.0769 72.7319 59.4319 72.6669 59.9471L72.651 60.0755C72.6033 60.5907 72.2957 60.7841 71.7641 60.7841C70.2475 60.8159 69.5224 61.9126 69.5224 63.8464V67.6014C69.5224 68.1166 69.232 68.4067 68.7163 68.4067H68.5228C68.0071 68.4067 67.7168 68.1166 67.7168 67.6014V59.9947C67.7168 59.4795 68.0071 59.1895 68.5228 59.1895H68.7163C69.232 59.1895 69.5224 59.4637 69.5224 59.963V60.7365C69.8127 59.9139 70.5551 59.0769 71.91 59.0769H71.9086Z" fill="#063359"/>
<path d="M73.0049 63.7974C73.0049 60.9616 74.9087 59.012 77.6661 59.012C80.4236 59.012 82.0529 60.8 82.1656 63.4597C82.1814 63.9907 81.8752 64.2649 81.3596 64.2649H74.8104C74.8754 66.0529 75.9877 67.0689 77.7788 67.0689C78.7783 67.0689 79.4081 66.8106 79.9888 66.2954C80.3441 65.9894 80.5694 65.7311 81.0215 65.8437L81.2151 65.8913C81.7799 66.0371 81.8926 66.343 81.5863 66.7933C80.7803 67.9853 79.4731 68.5813 77.747 68.5813C74.8754 68.5813 73.0049 66.6793 73.0049 63.7959V63.7974ZM80.4568 62.8463C80.3282 61.3801 79.3272 60.445 77.6993 60.445C76.0714 60.445 75.0704 61.2502 74.861 62.8463H80.4582H80.4568Z" fill="#063359"/>
<path d="M83.6494 63.7973C83.6494 60.6225 85.585 59.012 87.8759 59.012C89.3275 59.012 90.6174 59.7205 91.1504 60.9934V59.9947C91.1504 59.4795 91.4407 59.1895 91.9564 59.1895H92.15C92.6656 59.1895 92.956 59.4795 92.956 59.9947V67.5841C92.956 68.0993 92.6656 68.3894 92.15 68.3894H91.9564C91.4407 68.3894 91.1504 68.0993 91.1504 67.5841V66.649C90.6347 67.89 89.3275 68.6145 87.8917 68.6145C85.6009 68.6145 83.6494 66.9866 83.6494 63.7959V63.7973ZM91.1981 63.7973C91.1981 61.7828 90.0209 60.5417 88.3106 60.5417C86.6004 60.5417 85.4564 61.7669 85.4564 63.7973C85.4564 65.8278 86.6177 67.0689 88.3439 67.0689C90.07 67.0689 91.1981 65.8278 91.1981 63.7973Z" fill="#063359"/>
<path d="M99.1491 68.5366C96.7774 68.5366 95.6969 67.5538 95.6969 64.7339V60.5922H95.1654C94.6497 60.5922 94.3594 60.3339 94.3594 59.8836C94.3594 59.4334 94.6006 59.1909 95.0368 59.1909H95.6984V58.224C95.6984 57.7406 95.9396 57.4505 96.4076 57.3538L96.6329 57.3062C97.1977 57.1778 97.5198 57.4505 97.5198 58.0148V59.1909H99.4395C99.9552 59.1909 100.245 59.4319 100.245 59.8836C100.245 60.3353 99.9552 60.5922 99.4395 60.5922H97.5198V64.5247C97.5198 66.4267 98.0196 67.0862 99.4236 67.0862C99.9234 67.0862 100.25 67.2623 100.295 67.6981C100.347 68.1902 100.13 68.4716 99.6171 68.5192C99.4554 68.5337 99.295 68.5351 99.1491 68.5351V68.5366Z" fill="#063359"/>
<path d="M101.052 63.7973C101.052 60.4782 103.359 59.012 105.713 59.012C108.067 59.012 110.39 60.4782 110.39 63.7973C110.39 67.1165 108.083 68.6159 105.729 68.6159C103.374 68.6159 101.052 67.1497 101.052 63.7973ZM108.585 63.7973C108.585 61.7828 107.423 60.5417 105.713 60.5417C104.003 60.5417 102.859 61.7669 102.859 63.7973C102.859 65.8278 104.004 67.0689 105.73 67.0689C107.456 67.0689 108.585 65.8278 108.585 63.7973Z" fill="#063359"/>
<path d="M116.39 59.0769C116.939 59.0769 117.213 59.4319 117.148 59.9471L117.132 60.0755C117.085 60.5907 116.777 60.7841 116.246 60.7841C114.729 60.8159 114.004 61.9126 114.004 63.8464V67.6014C114.004 68.1166 113.713 68.4067 113.198 68.4067H113.004C112.489 68.4067 112.198 68.1166 112.198 67.6014V59.9947C112.198 59.4795 112.489 59.1895 113.004 59.1895H113.198C113.713 59.1895 114.004 59.4637 114.004 59.963V60.7365C114.294 59.9139 115.037 59.0769 116.391 59.0769H116.39Z" fill="#063359"/>
<path d="M121.876 68.5685C120.329 68.5685 118.695 67.9495 117.921 66.9739C117.59 66.5568 117.753 66.1196 118.292 65.9594L118.454 65.9103C118.806 65.8035 119.05 65.8151 119.518 66.2336C120.161 66.8094 121.037 67.0215 121.876 67.0215C123.218 67.0215 124.018 66.5424 124.018 65.7328C124.018 63.6057 118.036 65.2941 118.036 61.7036C118.036 60.0051 119.754 59.0281 121.734 59.0281C122.93 59.0281 124.427 59.5101 125.23 60.35C125.608 60.7468 125.478 61.1928 124.955 61.3486L124.794 61.3962C124.359 61.5261 124.136 61.3674 123.713 61.1105C123.111 60.7454 122.458 60.5102 121.763 60.5102C120.6 60.5102 119.81 60.894 119.81 61.6185C119.81 63.6793 125.841 61.9533 125.841 65.6823C125.841 67.3953 124.184 68.5671 121.876 68.5671V68.5685Z" fill="#063359"/>
<path d="M131.566 63.7973C131.566 60.4782 133.873 59.012 136.228 59.012C138.582 59.012 140.905 60.4782 140.905 63.7973C140.905 67.1165 138.598 68.6159 136.244 68.6159C133.889 68.6159 131.566 67.1497 131.566 63.7973ZM139.099 63.7973C139.099 61.7828 137.938 60.5417 136.228 60.5417C134.517 60.5417 133.373 61.7669 133.373 63.7973C133.373 65.8278 134.519 67.0689 136.245 67.0689C137.971 67.0689 139.099 65.8278 139.099 63.7973Z" fill="#063359"/>
<path d="M143.743 68.407C143.227 68.407 142.937 68.1169 142.937 67.6017V60.5925H142.469C141.953 60.5925 141.663 60.3342 141.663 59.8839C141.663 59.4337 141.953 59.1912 142.469 59.1912H142.937V58.8204C142.937 56.839 144.018 55.8389 146.147 55.8389C146.405 55.8389 146.696 55.8475 146.953 55.8706C147.52 55.924 147.727 56.2083 147.646 56.66C147.565 57.1276 147.363 57.3123 146.852 57.2878C146.704 57.282 146.628 57.2719 146.502 57.2719C145.325 57.2719 144.76 57.7871 144.76 58.8665V59.1884H146.55C147.065 59.1884 147.356 59.4294 147.356 59.881C147.356 60.3327 147.065 60.5896 146.55 60.5896H144.76V67.5989C144.76 68.114 144.47 68.4041 143.954 68.4041H143.745L143.743 68.407Z" fill="#063359"/>
<path d="M186.39 67.7963V57.8445C186.39 57.3726 186.798 56.9729 187.303 56.9729C187.807 56.9729 188.184 57.3726 188.184 57.8445V67.1916H192.881C193.311 67.1916 193.688 67.5207 193.688 67.9406C193.688 68.3606 193.311 68.73 192.881 68.73H187.355C186.725 68.73 186.39 68.3923 186.39 67.7963Z" fill="#063359"/>
<path d="M197.171 67.9392V57.8431C197.171 57.3712 197.58 56.9714 198.084 56.9714C198.588 56.9714 198.965 57.3712 198.965 57.8431V67.9392C198.965 68.4111 198.566 68.8108 198.084 68.8108C197.601 68.8108 197.171 68.4111 197.171 67.9392Z" fill="#063359"/>
<path d="M211.349 68.3604L205.015 59.7738V67.9405C205.015 68.4124 204.616 68.8121 204.134 68.8121C203.651 68.8121 203.221 68.4124 203.221 67.9405V58.1215C203.221 57.4952 203.735 56.9626 204.405 56.9626C204.782 56.9626 205.139 57.1373 205.348 57.4345L211.557 65.796V57.8444C211.557 57.3725 211.955 56.9727 212.438 56.9727C212.92 56.9727 213.351 57.3725 213.351 57.8444V67.724C213.351 68.3186 212.846 68.8107 212.238 68.8107C211.871 68.8107 211.545 68.6563 211.347 68.359" fill="#063359"/>
<path d="M226.532 67.9693C226.532 68.421 226.176 68.8107 225.715 68.8107C225.484 68.8107 225.264 68.7587 225.085 68.5639L220.545 63.6804L219.403 64.8709V67.9289C219.403 68.4008 219.004 68.8006 218.511 68.8006C218.019 68.8006 217.62 68.4008 217.62 67.9289V57.8444C217.62 57.3725 218.029 56.9727 218.511 56.9727C218.994 56.9727 219.403 57.3725 219.403 57.8444V62.8823L224.656 57.2296C224.834 57.0348 225.055 56.9626 225.286 56.9626C225.736 56.9626 226.124 57.3119 226.124 57.7621C226.124 57.9671 226.072 58.1619 225.892 58.3264L221.74 62.6457L226.301 67.4065C226.438 67.571 226.532 67.786 226.532 67.9708" fill="#063359"/>
<path d="M230.14 67.7962V57.9873C230.14 57.3928 230.475 57.0637 231.105 57.0637H237.438C237.867 57.0637 238.246 57.413 238.246 57.8531C238.246 58.2933 237.867 58.6021 237.438 58.6021H231.934V62.018H237.313C237.742 62.018 238.12 62.347 238.12 62.7669C238.12 63.2085 237.742 63.5578 237.313 63.5578H231.934V67.2002H237.438C237.867 67.2002 238.246 67.5292 238.246 67.9492C238.246 68.3908 237.867 68.74 237.438 68.74H231.105C230.486 68.7299 230.14 68.3908 230.14 67.7962Z" fill="#063359"/>
<path d="M250.881 68.0112C250.881 68.3807 250.546 68.8107 250.042 68.8107C249.739 68.8107 249.456 68.6664 249.288 68.4413L246.299 64.2245H243.783V67.9391C243.783 68.411 243.385 68.8107 242.902 68.8107C242.42 68.8107 241.989 68.411 241.989 67.9391V57.9873C241.989 57.3928 242.326 57.0637 242.954 57.0637H247.012C249.288 57.0637 250.839 58.4996 250.839 60.6542C250.839 62.614 249.591 63.7324 248.176 64.0095L250.692 67.4773C250.808 67.5898 250.881 67.7342 250.881 68.0112ZM243.782 62.6861H246.78C248.07 62.6861 248.993 61.865 248.993 60.634C248.993 59.403 248.06 58.5819 246.78 58.5819H243.782V62.6861Z" fill="#063359"/>
<path d="M254.657 67.7962V57.9873C254.657 57.3928 254.992 57.0637 255.622 57.0637H258.915C262.638 57.0637 265.102 59.5459 265.102 62.9112C265.102 66.2766 262.638 68.7386 258.915 68.7386H255.622C254.994 68.7285 254.657 68.3893 254.657 67.7948M258.914 67.1901C261.673 67.1901 263.255 65.2606 263.255 62.9011C263.255 60.5416 261.713 58.6021 258.914 58.6021H256.45V67.1887H258.914V67.1901Z" fill="#063359"/>
<mask id="mask1_209_7631" style="mask-type:luminance" maskUnits="userSpaceOnUse" x="179" y="55" width="2" height="12">
<path d="M179.092 65.0454L180.906 66.0614V56.4689L179.092 55.4429V65.0454Z" fill="white"/>
</mask>
<g mask="url(#mask1_209_7631)">
<path d="M180.906 55.4429H179.092V66.0614H180.906V55.4429Z" fill="url(#paint1_linear_209_7631)"/>
</g>
<mask id="mask2_209_7631" style="mask-type:luminance" maskUnits="userSpaceOnUse" x="154" y="55" width="3" height="12">
<path d="M154.857 56.4694V66.0618L156.672 65.0459V55.4434L154.857 56.4694Z" fill="white"/>
</mask>
<g mask="url(#mask2_209_7631)">
<path d="M156.672 55.4434H154.857V66.0618H156.672V55.4434Z" fill="url(#paint2_linear_209_7631)"/>
</g>
<path d="M163.718 65.9694L172.045 70.6682V68.6261L164.254 64.2261L163.718 64.5234V64.5335V65.9694Z" fill="#2BEDA7"/>
<path d="M172.517 73.3872L163.719 68.4214V70.4634L166.067 71.7867L163.246 73.3872C163.057 73.4896 163.057 73.7667 163.246 73.8692L164.63 74.6485L167.882 72.8128L171.132 74.6485L172.515 73.8692C172.705 73.7667 172.705 73.4997 172.515 73.3872" fill="#2BEDA7"/>
<mask id="mask3_209_7631" style="mask-type:luminance" maskUnits="userSpaceOnUse" x="179" y="60" width="2" height="10">
<path d="M179.092 61.1677V69.6734C179.092 69.8885 179.333 70.0227 179.521 69.9202L180.759 69.2232C180.842 69.1727 180.906 69.0789 180.906 68.9764V60.1431L179.092 61.1691V61.1677Z" fill="white"/>
</mask>
<g mask="url(#mask3_209_7631)">
<path d="M180.906 60.1418H179.092V70.0215H180.906V60.1418Z" fill="url(#paint3_linear_209_7631)"/>
</g>
<mask id="mask4_209_7631" style="mask-type:luminance" maskUnits="userSpaceOnUse" x="175" y="62" width="2" height="11">
<path d="M175.116 63.4255V71.9312C175.116 72.1361 175.347 72.2689 175.547 72.1665L176.711 71.5098C176.847 71.4377 176.92 71.2948 176.92 71.1505V62.3994L175.116 63.4255Z" fill="white"/>
</mask>
<g mask="url(#mask4_209_7631)">
<path d="M176.92 62.3994H175.116V72.2689H176.92V62.3994Z" fill="url(#paint4_linear_209_7631)"/>
</g>
<mask id="mask5_209_7631" style="mask-type:luminance" maskUnits="userSpaceOnUse" x="171" y="64" width="2" height="11">
<path d="M171.133 74.6499H171.143V74.6441L171.133 74.6499ZM171.143 65.652V74.6441L172.8 73.7061C172.883 73.6541 172.947 73.5618 172.947 73.4593V64.626L171.143 65.652Z" fill="white"/>
</mask>
<g mask="url(#mask5_209_7631)">
<path d="M172.947 64.626H171.133V74.6499H172.947V64.626Z" fill="url(#paint5_linear_209_7631)"/>
</g>
<mask id="mask6_209_7631" style="mask-type:luminance" maskUnits="userSpaceOnUse" x="162" y="64" width="3" height="11">
<path d="M162.827 73.4793C162.817 73.5717 162.869 73.664 162.965 73.7145L164.632 74.6583V65.6706L162.827 64.6445V73.4779V73.4793Z" fill="white"/>
</mask>
<g mask="url(#mask6_209_7631)">
<path d="M164.632 64.646H162.817V74.6598H164.632V64.646Z" fill="url(#paint6_linear_209_7631)"/>
</g>
<mask id="mask7_209_7631" style="mask-type:luminance" maskUnits="userSpaceOnUse" x="158" y="62" width="3" height="11">
<path d="M158.841 71.14C158.841 71.2944 158.914 71.4272 159.05 71.5094L160.214 72.166C160.404 72.2685 160.645 72.1357 160.645 71.9193V63.4135L158.841 62.3875V71.1385V71.14Z" fill="white"/>
</mask>
<g mask="url(#mask7_209_7631)">
<path d="M160.645 62.3889H158.841V72.2685H160.645V62.3889Z" fill="url(#paint7_linear_209_7631)"/>
</g>
<mask id="mask8_209_7631" style="mask-type:luminance" maskUnits="userSpaceOnUse" x="154" y="60" width="3" height="10">
<path d="M154.857 68.8929C154.857 69.0473 154.941 69.1801 155.077 69.2623L156.241 69.919C156.43 70.0214 156.672 69.8887 156.672 69.6722V61.1664L154.857 60.1404V68.8915V68.8929Z" fill="white"/>
</mask>
<g mask="url(#mask8_209_7631)">
<path d="M156.672 60.1421H154.857V70.0217H156.672V60.1421Z" fill="url(#paint8_linear_209_7631)"/>
</g>
<path d="M180.905 56.4693L179.091 55.4433L175.841 57.2804L173.67 56.0595L176.501 54.4591C176.69 54.3566 176.69 54.0795 176.501 53.9771L175.337 53.3204C175.201 53.2483 175.044 53.2483 174.906 53.3204L171.866 55.0334L169.695 53.8125L172.526 52.2121C172.715 52.1097 172.715 51.8326 172.526 51.7301L171.362 51.0735C171.226 51.0013 171.069 51.0013 170.931 51.0735L167.891 52.7865L164.85 51.0634C164.714 50.9912 164.557 50.9912 164.42 51.0634L163.245 51.7301C163.056 51.8326 163.056 52.1097 163.245 52.2121L179.091 61.1681L180.895 60.1421L177.644 58.305L180.905 56.4693Z" fill="#2BEDA7"/>
<path d="M160.435 53.319L159.261 53.9756C159.072 54.0781 159.072 54.3552 159.261 54.4576L175.107 63.4151L176.921 62.389L160.866 53.319C160.73 53.2469 160.561 53.2469 160.435 53.319Z" fill="#2BEDA7"/>
<path d="M154.857 56.4694L158.119 58.3051L154.857 60.1523L156.672 61.1682L159.922 59.3311L162.093 60.552L158.841 62.3992L160.645 63.4152L163.907 61.5781L166.068 62.7989L162.816 64.6461L164.631 65.6621L167.881 63.825L171.132 65.6621L172.946 64.6461L156.672 55.4434L154.857 56.4694Z" fill="#2BEDA7"/>
<defs>
<linearGradient id="paint0_linear_209_7631" x1="5.26481" y1="53.7721" x2="34.4734" y2="-0.683136" gradientUnits="userSpaceOnUse">
<stop stop-color="#0185FD"/>
<stop offset="0.23" stop-color="#0388FB"/>
<stop offset="0.39" stop-color="#0B91F7"/>
<stop offset="0.54" stop-color="#18A0EE"/>
<stop offset="0.66" stop-color="#2BB6E3"/>
<stop offset="0.79" stop-color="#43D3D3"/>
<stop offset="0.9" stop-color="#61F5C1"/>
<stop offset="0.91" stop-color="#64F9BF"/>
<stop offset="1" stop-color="#64F9BF"/>
</linearGradient>
<linearGradient id="paint1_linear_209_7631" x1="183.446" y1="58.1124" x2="183.446" y2="68.7256" gradientUnits="userSpaceOnUse">
<stop stop-color="#2BEDA7"/>
<stop offset="1" stop-color="#018AFD"/>
</linearGradient>
<linearGradient id="paint2_linear_209_7631" x1="159.197" y1="32883.1" x2="159.197" y2="32889.1" gradientUnits="userSpaceOnUse">
<stop stop-color="#2BEDA7"/>
<stop offset="1" stop-color="#018AFD"/>
</linearGradient>
<linearGradient id="paint3_linear_209_7631" x1="179.24" y1="59.5331" x2="179.24" y2="69.3417" gradientUnits="userSpaceOnUse">
<stop stop-color="#2BEDA7"/>
<stop offset="1" stop-color="#018AFD"/>
</linearGradient>
<linearGradient id="paint4_linear_209_7631" x1="175.436" y1="61.9259" x2="175.436" y2="71.7243" gradientUnits="userSpaceOnUse">
<stop stop-color="#2BEDA7"/>
<stop offset="1" stop-color="#018AFD"/>
</linearGradient>
<linearGradient id="paint5_linear_209_7631" x1="172.386" y1="64.9174" x2="172.386" y2="74.9252" gradientUnits="userSpaceOnUse">
<stop stop-color="#2BEDA7"/>
<stop offset="1" stop-color="#018AFD"/>
</linearGradient>
<linearGradient id="paint6_linear_209_7631" x1="168.255" y1="68.1833" x2="168.255" y2="78.1911" gradientUnits="userSpaceOnUse">
<stop stop-color="#2BEDA7"/>
<stop offset="1" stop-color="#018AFD"/>
</linearGradient>
<linearGradient id="paint7_linear_209_7631" x1="158.762" y1="61.6362" x2="158.762" y2="71.4448" gradientUnits="userSpaceOnUse">
<stop stop-color="#2BEDA7"/>
<stop offset="1" stop-color="#018AFD"/>
</linearGradient>
<linearGradient id="paint8_linear_209_7631" x1="155.016" y1="59.5334" x2="155.016" y2="69.342" gradientUnits="userSpaceOnUse">
<stop stop-color="#2BEDA7"/>
<stop offset="1" stop-color="#018AFD"/>
</linearGradient>
</defs>
</svg>
