<svg width="18" height="18" viewBox="0 0 18 18" fill="none" xmlns="http://www.w3.org/2000/svg">
<path d="M3.33344 14.3334H15.3334V17H3.33344C2.59687 17 2 16.4034 2 15.6666C2 14.9297 2.59656 14.3331 3.33344 14.3331V14.3334ZM4.66687 13V1H4.00031C2.89531 1 2 1.89531 2 3V13.51C2.36594 13.1806 2.84125 12.9994 3.33344 13H4.66687ZM15.3334 2.33344V13H6V1H14C14.7366 1 15.3334 1.59656 15.3334 2.33344ZM13.6128 6.72937L11.4134 4.53L10.4706 5.47281L12.0053 7H7.33344V8.33344H11.9981L10.4709 9.86063L11.4137 10.8034L13.6137 8.60406C14.1297 8.0875 14.1291 7.24594 13.6137 6.72937H13.6131H13.6128Z" fill="white"/>
</svg>
