<svg width="135" height="135" viewBox="0 0 135 135" fill="none" xmlns="http://www.w3.org/2000/svg">
<g clip-path="url(#clip0)">
<path d="M7.22712 122.089L35.7146 69.605L7.22712 12.9106L0 16.4891V118.511L7.22712 122.089ZM76.4111 39.223L29.1892 31.2942L39.8544 16.2786L87.5675 37.4688L76.4111 39.223ZM76.9724 95.5665L20.9797 104.758L32.6975 120.897L87.5675 97.1803L76.9724 95.5665Z" fill="#9D5125"/>
<path d="M24.0665 16.7698V118.16L7.22656 122.089V12.9106L24.0665 16.7698Z" fill="#F58534"/>
<path d="M24.0675 130.509L15.2266 126.089V8.91114L24.0675 4.49066L40.6969 74.5867L24.0675 130.509ZM87.568 37.4688L76.3414 39.223V95.4261L87.568 97.1803L97.8122 68.6226L87.568 37.4688Z" fill="#9D5125"/>
<path d="M41.2571 9.4023V125.668L24.0664 130.509V4.49066L41.2571 9.4023Z" fill="#F58534"/>
<path d="M99.2846 109.249V95.0051L24.0664 108.968V130.509L99.2846 109.249ZM99.425 25.8914V39.7141L24.0664 25.4002V4.49066L99.425 25.8914Z" fill="#F58534"/>
<path d="M87.5664 112.547V22.5234L99.635 25.8212V109.249L87.5664 112.547Z" fill="#F58534"/>
<path d="M123.913 30.8732L135 56.4839L102.653 58.0275L91.2158 57.2557L123.913 30.8732Z" fill="#6B3B19"/>
<path d="M91.2158 36.2058V57.2557L123.913 55.3612V30.8732L91.2158 36.2058Z" fill="#9D5125"/>
<path d="M76.0602 56.2032L60.4131 55.1507L93.6017 21.7515L110.442 54.028L76.0602 56.2032Z" fill="#6B3B19"/>
<path d="M60.4131 29.4698V55.1507L93.6017 52.344V21.7515L60.4131 29.4698ZM91.2161 99.2852V78.2354L135 78.937L123.914 104.548L91.2161 99.2852Z" fill="#9D5125"/>
<path d="M60.4131 105.951V80.2702L110.442 81.3929L93.6017 113.669L60.4131 105.951Z" fill="#9D5125"/>
<path d="M76.0602 79.2177L60.4131 80.2702L93.6017 83.0769L110.442 81.3929L76.0602 79.2177ZM123.914 80.0597L135 78.9371L102.653 77.4636L91.2161 78.2354L123.914 80.0597Z" fill="#FCBF92"/>
<path d="M123.913 30.8731V55.3612L135 56.4838V34.171L123.913 30.8731ZM110.441 26.8035V54.028L93.6016 52.344V21.7515L110.441 26.8035ZM123.913 104.548V80.0597L135 78.937V101.25L123.913 104.548ZM110.441 108.617V81.3928L93.6016 83.0768V113.669L110.441 108.617Z" fill="#F58534"/>
</g>
<defs>
<clipPath id="clip0">
<rect width="135" height="135" fill="white"/>
</clipPath>
</defs>
</svg>
