<svg width="120" height="60" viewBox="0 0 120 60" fill="none" xmlns="http://www.w3.org/2000/svg">
<path d="M98.3563 39.0859C95.9186 41.6559 92.6677 43.0643 89.2321 43.0643H29.4122C25.9727 43.0643 22.7237 41.6559 20.2781 39.0859C17.8463 36.5199 16.5046 33.1065 16.5046 29.4698C16.5046 21.9792 22.2974 15.8812 29.4122 15.8812H89.2321C92.6677 15.8812 95.9186 17.2916 98.3563 19.8655C100.788 22.4256 102.128 25.847 102.128 29.4698C102.128 33.1065 100.788 36.5199 98.3563 39.0859" fill="#E3F2FE"/>
<path d="M97.7477 38.5631C95.3453 40.9711 92.1493 42.3025 88.7687 42.3025H29.9213C26.5269 42.3025 23.3407 40.9711 20.9403 38.5631C18.5418 36.1452 17.2179 32.9412 17.2179 29.5277C17.2179 22.4796 22.9164 16.7609 29.9213 16.7609H88.7687C92.1493 16.7609 95.3453 18.0805 97.7477 20.4924C100.14 22.9102 101.474 26.1143 101.474 29.5277C101.474 32.9412 100.14 36.1452 97.7477 38.5631ZM98.7966 19.4415C96.1193 16.7491 92.5598 15.2715 88.7687 15.2715H29.9213C22.1032 15.2715 15.7368 21.6559 15.7368 29.5277C15.7368 33.3323 17.212 36.9196 19.8992 39.6061C22.5746 42.3025 26.1321 43.7899 29.9213 43.7899H88.7687C92.5598 43.7899 96.1193 42.3025 98.7966 39.6061C101.476 36.9196 102.945 33.3323 102.945 29.5277C102.945 25.7113 101.476 22.1359 98.7966 19.4415Z" fill="#001E64"/>
<path d="M88.7682 18.0306H29.9187C23.6112 18.0306 18.5 23.1765 18.5 29.5253C18.5 35.8703 23.6112 41.0201 29.9187 41.0201H88.7682C95.0776 41.0201 100.187 35.8703 100.187 29.5253C100.187 23.1765 95.0776 18.0306 88.7682 18.0306Z" fill="#001E64"/>
<path fill-rule="evenodd" clip-rule="evenodd" d="M101.759 43.5261C102.576 43.5261 103.264 42.8959 103.264 42.0287C103.264 41.1734 102.576 40.5472 101.759 40.5472C100.94 40.5472 100.248 41.1734 100.248 42.0287C100.248 42.8959 100.94 43.5261 101.759 43.5261ZM100.551 42.0287C100.551 41.3294 101.085 40.7823 101.759 40.7823C102.435 40.7823 102.965 41.3293 102.965 42.0287C102.965 42.7498 102.434 43.2791 101.759 43.2791C101.085 43.2791 100.551 42.75 100.551 42.0287ZM101.441 42.153H101.739L102.191 42.8958H102.484L102.008 42.1432C102.254 42.0984 102.446 41.9673 102.446 41.6633C102.446 41.3295 102.246 41.1734 101.839 41.1734H101.187V42.8959H101.441L101.441 42.153ZM101.441 41.9217V41.3887H101.804C101.979 41.3887 102.172 41.4458 102.172 41.6474C102.172 41.9178 101.979 41.9217 101.759 41.9217H101.441" fill="#001E64"/>
<path d="M27.6115 23.1477H34.0859L33.915 29.0067H37.8574L37.6119 23.2267H43.9174L43.3339 36.1891H38.0263L37.8577 31.6695H33.8425L33.7657 36.1121H28.2714L27.6115 23.1477Z" fill="#E3F2FE"/>
<path d="M52.1422 23.3081H68.2752L68.1066 26.8815H58.4558V29.09H65.3801L65.2954 31.6698L58.3672 31.6643V33.8727H67.7803L67.694 36.2748H52.7297L52.1422 23.3081Z" fill="#E3F2FE"/>
<path d="M45.9475 29.1799H49.9194V31.5879H46.0261L45.9475 29.1799Z" fill="#E3F2FE"/>
<path d="M70.1775 31.6698H73.9883V29.179H70.1775V31.6698Z" fill="#E3F2FE"/>
<path d="M76.8331 36.3592L76.2517 23.308H88.4285C90.8073 23.308 92.6184 24.7322 92.6184 27.0355C92.6184 29.5758 90.6071 30.4411 89.894 30.4904L89.9051 30.5929C91.0974 30.8577 91.8282 31.4799 91.8282 33.0661C91.8282 36.1891 88.8856 36.3709 87.3181 36.3709L76.8324 36.3597" fill="#E3F2FE"/>
<path d="M82.6255 34.0036V31.6173H84.8353C85.4993 31.6173 86.1554 31.9987 86.1554 32.7828C86.1554 33.5414 85.3186 34.0036 84.417 34.0036H82.6255" fill="#001E64"/>
<path d="M82.6705 29.4039V26.66H84.8725C85.7565 26.66 86.6326 27.164 86.6326 28.0764C86.6326 28.8369 85.6052 29.4256 84.6938 29.4039C83.9277 29.3871 82.6705 29.4039 82.6705 29.4039" fill="#001E64"/>
</svg>
