<svg width="84" height="95" viewBox="0 0 84 95" fill="none" xmlns="http://www.w3.org/2000/svg">
<path d="M50.9697 66.8548C50.9697 74.5474 50.9697 82.269 50.9697 89.9615C50.9697 90.7163 50.7399 91.2097 50.0508 91.5871C48.2418 92.6031 46.4615 93.6772 44.6525 94.7222C43.5614 95.3608 42.7 94.8673 42.7 93.5611C42.7 79.0758 42.7 64.5616 42.7 50.0763C42.7 48.8281 42.4702 47.725 41.5514 46.8542C41.2642 46.5929 40.9771 46.4187 40.6612 46.2155C28.8884 39.3648 17.1443 32.4851 5.37143 25.6343C4.59615 25.1989 3.82086 24.7344 3.07429 24.27C2.21287 23.7475 2.21287 22.7315 3.07429 22.209C4.99815 21.0478 6.97943 19.9157 8.932 18.7836C9.36271 18.5223 9.79343 18.5514 10.2241 18.8126C13.5263 20.7575 16.8571 22.6734 20.1593 24.5893C27.9408 29.1468 35.7511 33.7043 43.5327 38.2327C45.7437 39.539 47.9547 40.8453 50.1944 42.1225C50.7687 42.4418 50.9984 42.9063 50.9984 43.5449C50.9697 51.3536 50.9697 59.1042 50.9697 66.8548Z" fill="#018BFE"/>
<path d="M82.9569 48.2185C82.9569 55.882 82.9569 63.5165 82.9569 71.1801C82.9569 72.0219 82.6984 72.5734 81.9519 72.9798C80.2003 73.9378 78.4775 74.9247 76.7833 75.9988C75.5486 76.7826 74.6585 75.9988 74.6585 74.7506C74.6872 63.5746 74.6872 52.3696 74.6872 41.1936C74.6872 37.8263 74.6585 34.488 74.6872 31.1207C74.6872 29.4951 74.0267 28.363 72.6485 27.5792C60.2439 20.3221 47.8106 13.065 35.4061 5.83686C35.2912 5.7788 35.1764 5.69171 35.0615 5.60463C34.2862 5.11114 34.2575 4.09514 35.0615 3.60166C37.0428 2.44052 39.0241 1.27938 41.0054 0.147265C41.4648 -0.113992 41.8668 0.00212199 42.2975 0.263379C45.8581 2.35343 49.4186 4.41446 53.0079 6.50451C59.727 10.4234 66.4462 14.3422 73.1653 18.2901C76.1803 20.0318 79.1666 21.8025 82.1816 23.5443C82.7559 23.8926 83.0143 24.328 83.0143 24.9957C82.9569 32.7463 82.9569 40.4679 82.9569 48.2185Z" fill="#02C2FE"/>
<path d="M72.2758 54.4306C72.2758 62.1812 72.2758 69.9028 72.2758 77.6534C72.2758 78.3501 72.0461 78.7855 71.4431 79.1048C69.6341 80.1499 67.8251 81.2239 66.0161 82.269C65.7003 82.4431 65.4131 82.5883 65.0398 82.5592C64.4943 82.4722 64.121 82.0948 64.0923 81.5432C64.0923 81.311 64.0923 81.0788 64.0923 80.8466C64.0923 66.4484 64.0923 52.0793 64.0923 37.6811C64.0923 35.8523 63.3744 34.6041 61.7951 33.6752C51.3144 27.6082 40.8911 21.4832 30.4392 15.3872C28.5153 14.2551 26.5914 13.0649 24.6389 12.0199C23.519 11.4103 23.5764 10.2201 24.6102 9.6686C26.5053 8.65261 28.343 7.52049 30.1807 6.41741C30.6402 6.15615 31.0996 6.15615 31.559 6.41741C38.1059 10.2492 44.624 14.0519 51.1708 17.8837C56.9137 21.222 62.6566 24.5893 68.3994 27.9275C69.4331 28.5371 70.4668 29.1758 71.5293 29.7563C72.0748 30.0466 72.2758 30.4821 72.2758 31.0917C72.2758 38.8713 72.2758 46.6509 72.2758 54.4306Z" fill="#04B6FE"/>
<path d="M61.5934 60.6718C61.5934 68.3644 61.5934 76.057 61.5934 83.7495C61.5934 84.5333 61.335 85.0268 60.6458 85.4041C58.8368 86.4201 57.0852 87.4652 55.305 88.5102C54.8455 88.7714 54.4148 88.9166 53.9267 88.6263C53.4673 88.336 53.3524 87.9296 53.3524 87.4071C53.3524 72.8058 53.3524 58.2044 53.3524 43.6031C53.3524 42.0065 52.692 40.8454 51.3137 40.0616C38.8517 32.8045 26.3897 25.5183 13.9565 18.2612C13.698 18.116 13.4396 17.9709 13.2673 17.7096C12.894 17.1581 13.095 16.4324 13.7267 16.026C15.6506 14.8939 17.6032 13.7617 19.527 12.6296C20.0726 12.3103 20.5607 12.4845 21.0489 12.7748C23.7767 14.3713 26.4759 15.9679 29.2037 17.5355C36.0951 21.5704 42.9866 25.5764 49.878 29.6113C53.5247 31.7304 57.1427 33.8785 60.8181 35.9686C61.4211 36.3169 61.6221 36.7814 61.5934 37.449C61.5934 45.1996 61.5934 52.9502 61.5934 60.6718Z" fill="#0095FE"/>
<path d="M40.2589 71.7026C40.2589 78.9888 40.2589 86.304 40.2589 93.5901C40.2589 94.8383 39.4262 95.3318 38.3351 94.7222C36.4686 93.6482 34.6309 92.5451 32.7645 91.471C32.1902 91.1517 32.0466 90.6873 32.0466 90.0777C32.0754 82.0658 32.0754 74.0539 32.0754 66.042C32.0754 62.7328 32.0754 59.3945 32.0754 56.0853C32.0754 54.4597 31.4149 53.2695 29.9792 52.4567C21.0491 47.2606 12.119 42.0355 3.16013 36.8103C2.24127 36.2588 1.32242 35.7363 0.374848 35.2137C0.0877054 35.0396 0.0302734 34.8364 0.0302734 34.5461C0.0589877 32.2238 0.0589894 29.8725 0.0589894 27.5502C0.0589894 26.4471 0.949129 25.9246 1.8967 26.4762C3.93541 27.6663 5.97412 28.8565 8.01283 30.0467C13.8418 33.443 19.6421 36.8393 25.4711 40.2357C30.1802 42.9644 34.8606 45.7221 39.5698 48.4508C40.0579 48.741 40.2876 49.1184 40.2876 49.699C40.2589 57.0432 40.2589 64.3874 40.2589 71.7026Z" fill="#0074FE"/>
<path d="M29.6354 71.6736C29.6354 76.8407 29.6354 82.0368 29.6354 87.2039C29.6354 87.4651 29.6354 87.7264 29.5493 87.9876C29.3196 88.6553 28.573 89.0036 27.97 88.6553C25.9313 87.4941 23.9213 86.304 21.9113 85.1138C21.5093 84.8816 21.3944 84.4461 21.3944 83.9817C21.3944 80.266 21.3944 76.5504 21.3944 72.8347C21.3944 69.2642 21.3944 65.6937 21.3944 62.1232C21.3944 60.6137 20.7627 59.5106 19.4993 58.7849C16.3407 56.9271 13.1535 55.0983 9.99489 53.2405C6.92246 51.4697 3.85004 49.67 0.806331 47.8992C0.318189 47.6089 0.0884756 47.2316 0.0884756 46.651C0.0884756 44.4739 0.145904 42.2677 0.0884756 40.0905C0.0597614 38.9004 1.09347 38.4069 2.01233 38.9584C6.83632 41.8032 11.6603 44.619 16.513 47.4348C20.5043 49.757 24.4956 52.1374 28.5156 54.4306C29.377 54.9241 29.6929 55.5047 29.6929 56.4917C29.6067 61.5426 29.6354 66.6226 29.6354 71.6736Z" fill="#005CFE"/>
<path d="M18.9532 71.7316C18.9532 74.8667 18.9532 77.9727 18.9532 81.1078C18.9532 81.6594 18.8383 82.1238 18.3215 82.4141C17.8333 82.6754 17.4026 82.5302 16.9432 82.269C15.1055 81.1659 13.2678 80.0918 11.43 79.0468C10.8845 78.7275 10.6835 78.3211 10.6835 77.7115C10.7122 74.7506 10.6835 71.8187 10.7409 68.8578C10.7696 67.029 10.0805 65.6937 8.44377 64.7938C5.94563 63.4295 3.53364 61.92 1.0355 60.5266C0.288928 60.0912 -0.0269258 59.5687 0.00178847 58.6978C0.0592169 56.6368 0.0592169 54.6048 0.00178847 52.5438C-0.0269258 51.4117 0.97807 50.8021 1.98307 51.4117C7.35263 54.6048 12.7509 57.7399 18.1492 60.875C18.6947 61.1943 18.9245 61.6297 18.9245 62.2393C18.9532 65.4034 18.9532 68.5675 18.9532 71.7316Z" fill="#003DFE"/>
<path d="M8.30007 71.7606C8.30007 72.8637 8.30007 73.9378 8.30007 75.0409C8.30007 76.1439 7.40993 76.6665 6.46236 76.1149C4.56722 75.0118 2.67208 73.8797 0.748222 72.8057C0.26008 72.5154 0.059082 72.109 0.059082 71.5574C0.059082 69.3803 0.059082 67.2031 0.059082 65.055C0.059082 63.7488 0.920507 63.2843 2.04036 63.952C3.87807 65.026 5.71579 66.1001 7.5535 67.1741C8.04164 67.4644 8.27135 67.8418 8.27135 68.4223C8.27135 69.4964 8.30007 70.6285 8.30007 71.7606Z" fill="#0E13FE"/>
</svg>
