<svg width="1201" height="1201" viewBox="0 0 1201 1201" fill="none" xmlns="http://www.w3.org/2000/svg">
<path d="M267.156 433.232C267.156 278.792 372.506 148.621 515.363 110.563C454.69 169.581 413.322 290.375 413.322 433.232C413.322 576.089 454.138 696.883 515.363 755.901C373.057 718.394 267.156 588.223 267.156 433.232Z" fill="#64F9BF"/>
<path d="M686.351 755.901C747.023 696.883 788.391 576.089 788.391 433.232C788.391 290.375 747.575 169.581 686.351 110.563C829.207 148.621 934.557 278.792 934.557 433.232C934.557 588.223 829.207 718.394 686.351 755.901Z" fill="#02A398"/>
<path d="M600.859 100.079C687.456 100.079 760.815 252.864 760.815 433.779C760.815 614.695 687.456 767.48 600.859 767.48C514.262 767.48 440.904 614.695 440.904 433.779C441.455 252.864 514.262 100.079 600.859 100.079Z" fill="#01C1B4"/>
<path d="M733.233 929.644V1038.85C733.233 1072.5 705.655 1100.08 672.009 1100.08H530.255C496.609 1100.08 469.031 1072.5 469.031 1038.85V929.644H733.233Z" fill="#01C1B4"/>
<path d="M545.15 910.892L456.347 765.277C440.903 758.658 426.01 750.936 412.221 742.111L514.813 910.892H545.15Z" fill="#01C1B4"/>
<path d="M615.196 910.893V793.96C610.784 794.512 605.82 795.063 601.407 795.063C596.995 795.063 592.03 794.512 587.618 793.96V910.893H615.196Z" fill="#01C1B4"/>
<path d="M739.302 767.482L652.154 910.891H682.49L782.876 745.971C769.087 754.245 754.194 761.415 739.302 767.482Z" fill="#01C1B4"/>
</svg>
