<svg width="25" height="56" viewBox="0 0 25 56" fill="none" xmlns="http://www.w3.org/2000/svg">
<path d="M2.25931 53.6999C2.11767 54.1143 2.30424 54.5696 2.69596 54.7654L2.69656 54.7657C2.70973 54.7723 2.72178 54.7784 2.77438 54.8178C2.96609 54.9616 3.20838 55.0204 3.44469 54.9806C3.681 54.9409 3.89065 54.8059 4.02469 54.6072C7.05809 50.112 10.0977 45.6139 13.1541 41.091C16.5444 36.0739 19.9555 31.0262 23.4018 25.9175C23.5828 25.6493 23.6009 25.3031 23.4491 25.0174C23.2972 24.7317 23 24.5531 22.6765 24.5531H22.6603H22.6442H22.628H22.6119H22.5958H22.5796H22.5635H22.5474H22.5313H22.5152H22.4991H22.483H22.467H22.4509H22.4348H22.4188H22.4027H22.3867H22.3706H22.3546H22.3385H22.3225H22.3065H22.2905H22.2745H22.2585H22.2425H22.2265H22.2105H22.1945H22.1785H22.1626H22.1466H22.1306H22.1147H22.0987H22.0828H22.0668H22.0509H22.035H22.0191H22.0032H21.9872H21.9713H21.9554H21.9395H21.9237H21.9078H21.8919H21.876H21.8602H21.8443H21.8284H21.8126H21.7967H21.7809H21.765H21.7492H21.7334H21.7176H21.7017H21.6859H21.6701H21.6543H21.6385H21.6227H21.6069H21.5912H21.5754H21.5596H21.5438H21.5281H21.5123H21.4966H21.4808H21.4651H21.4493H21.4336H21.4179H21.4021H21.3864H21.3707H21.355H21.3393H21.3236H21.3079H21.2922H21.2765H21.2608H21.2451H21.2294H21.2138H21.1981H21.1824H21.1668H21.1511H21.1355H21.1198H21.1042H21.0885H21.0729H21.0573H21.0417H21.026H21.0104H20.9948H20.9792H20.9636H20.948H20.9324H20.9168H20.9012H20.8856H20.87H20.8545H20.8389H20.8233H20.8077H20.7922H20.7766H20.7611H20.7455H20.73H20.7144H20.6989H20.6834H20.6678H20.6523H20.6368H20.6212H20.6057H20.5902H20.5747H20.5592H20.5437H20.5282H20.5127H20.4972H20.4817H20.4662H20.4507H20.4353H20.4198H20.4043H20.3888H20.3734H20.3579H20.3425H20.327H20.3116H20.2961H20.2807H20.2652H20.2498H20.2343H20.2189H20.2035H20.188H20.1726H20.1572H20.1418H20.1264H20.1109H20.0955H20.0801H20.0647H20.0493H20.0339H20.0185H20.0031H19.9877H19.9724H19.957H19.9416H19.9262H19.9108H19.8955H19.8801H19.8647H19.8494H19.834H19.8186H19.8033H19.7879H19.7726H19.7572H19.7419H19.7265H19.7112H19.6958H19.6805H19.6652H19.6498H19.6345H19.6192H19.6039H19.5885H19.5732H19.5579H19.5426H19.5273H19.5119H19.4966H19.4813H19.466H19.4507H19.4354H19.4201H19.4048H19.3895H19.3742H19.3589H19.3436H19.3284H19.3131H19.2978H19.2825H19.2672H19.2519H19.2367H19.2214H19.2061H19.1909H19.1756H19.1603H19.1451H19.1298H19.1145H19.0993H19.084H19.0687H19.0535H19.0382H19.023H19.0077H18.9925H18.9772H18.962H18.9467H18.9315H18.9163H18.901H18.8858H18.8705H18.8553H18.8401H18.8248H18.8096H18.7944H18.7791H18.7639H18.7487H18.7334H18.7182H18.703H18.6878H18.6726H18.6573H18.6421H18.6269H18.6117H18.5965H18.5812H18.566H18.5508H18.5356H18.5204H18.5052H18.49H18.4747H18.4595H18.4443H18.4291H18.4139H18.3987H18.3835H18.3683H18.3531H18.3379H18.3227H18.3075H18.2923H18.2771H18.2619H18.2467H18.2315H18.2163H18.2011H18.1859H18.1707H18.1555H18.1403H18.1251H18.1099H18.0947H18.0795H18.0643H18.0491H18.0339H18.0187H18.0036H17.9884H17.9732H17.958H17.9428H17.9276H17.9124H17.8972H17.882H17.8668H17.8516H17.8364H17.8212H17.806H17.7909H17.7757H17.7605H17.7453H17.7301H17.7149H17.6997H17.6845H17.6693H17.6541H17.6389H17.6237H17.6085H17.5933H17.5781H17.5629H17.5478H17.5326H17.5174H17.5022H17.487H17.4718H17.4566H17.4414H17.4262H17.411H17.3958H17.3806H17.3654H17.3502H17.335H17.3198H17.3046H17.2893H17.2741H17.2589H17.2437H17.2285H17.2133H17.1981H17.1829H17.1677H17.1525H17.1373H17.122H17.1068H17.0916H17.0764H17.0612H17.046H17.0307H17.0155H17.0003H16.9851H16.9698H16.9546H16.9394H16.9242H16.9089H16.8937H16.8785H16.8632H16.848H16.8328H16.8175H16.8023H16.7871H16.7718H16.7566H16.7413H16.7261H16.7108H16.6956H16.6803H16.6651H16.6498H16.6346H16.6193H16.6041H16.5888H16.5736H16.5583H16.543H16.5278H16.5125H16.4972H16.482H16.4667H16.4514H16.4361H16.4209H16.4056H16.3903H16.375H16.3597H16.3444H16.3291H16.3139H16.2986H16.2833H16.268H16.2527H16.2374H16.2221H16.2068H16.1915H16.1761H16.1608H16.1455H16.1302H16.1149H16.0996H16.0842H16.0689H16.0536H16.0383H16.0229H16.0076H16.0033C18.5983 17.1111 21.127 9.81809 23.6554 2.52598L23.6574 2.52013C23.8105 2.07857 23.5896 1.59464 23.1557 1.42106C23.125 1.40879 23.096 1.396 23.0511 1.37605L23.0472 1.37431C23.0056 1.35585 22.9494 1.33086 22.8857 1.30538C22.5061 1.15351 22.0718 1.28486 21.84 1.62171C15.2843 11.1468 8.72859 20.6911 2.01882 30.4665C1.83501 30.7343 1.81467 31.0819 1.96599 31.3693C2.11732 31.6568 2.41541 31.8367 2.74023 31.8367H2.75718H2.77411H2.79104H2.80796H2.82488H2.84178H2.85868H2.87558H2.89246H2.90934H2.92622H2.94308H2.95994H2.9768H2.99364H3.01048H3.02731H3.04414H3.06096H3.07777H3.09457H3.11137H3.12817H3.14495H3.16173H3.1785H3.19527H3.21203H3.22878H3.24553H3.26227H3.27901H3.29573H3.31246H3.32917H3.34588H3.36258H3.37928H3.39597H3.41265H3.42933H3.446H3.46267H3.47933H3.49598H3.51263H3.52927H3.5459H3.56253H3.57915H3.59577H3.61238H3.62899H3.64558H3.66218H3.67876H3.69535H3.71192H3.72849H3.74506H3.76161H3.77817H3.79471H3.81125H3.82779H3.84432H3.86084H3.87736H3.89387H3.91038H3.92688H3.94338H3.95987H3.97635H3.99283H4.00931H4.02578H4.04224H4.0587H4.07515H4.0916H4.10804H4.12448H4.14091H4.15734H4.17376H4.19017H4.20658H4.22299H4.23939H4.25578H4.27217H4.28856H4.30494H4.32131H4.33768H4.35405H4.37041H4.38676H4.40311H4.41946H4.4358H4.45213H4.46846H4.48479H4.50111H4.51743H4.53374H4.55005H4.56635H4.58264H4.59894H4.61523H4.63151H4.64779H4.66406H4.68033H4.6966H4.71286H4.72911H4.74536H4.76161H4.77785H4.79409H4.81033H4.82656H4.84278H4.859H4.87522H4.89143H4.90764H4.92384H4.94004H4.95624H4.97243H4.98861H5.0048H5.02098H5.03715H5.05332H5.06949H5.08565H5.10181H5.11796H5.13411H5.15026H5.1664H5.18254H5.19868H5.21481H5.23094H5.24706H5.26318H5.27929H5.29541H5.31152H5.32762H5.34372H5.35982H5.37591H5.392H5.40809H5.42417H5.44025H5.45633H5.4724H5.48847H5.50453H5.5206H5.53666H5.55271H5.56876H5.58481H5.60086H5.6169H5.63294H5.64897H5.665H5.68103H5.69706H5.71308H5.7291H5.74512H5.76113H5.77714H5.79315H5.80915H5.82515H5.84115H5.85714H5.87314H5.88912H5.90511H5.92109H5.93707H5.95305H5.96903H5.985H6.00097H6.01693H6.0329H6.04886H6.06481H6.08077H6.09672H6.11267H6.12862H6.14456H6.16051H6.17645H6.19238H6.20832H6.22425H6.24018H6.25611H6.27203H6.28795H6.30387H6.31979H6.33571H6.35162H6.36753H6.38344H6.39934H6.41525H6.43115H6.44705H6.46294H6.47884H6.49473H6.51062H6.52651H6.5424H6.55828H6.57417H6.59005H6.60593H6.6218H6.63768H6.65355H6.66942H6.68529H6.70116H6.71702H6.73289H6.74875H6.76461H6.78047H6.79632H6.81218H6.82803H6.84388H6.85973H6.87558H6.89143H6.90727H6.92312H6.93896H6.9548H6.97064H6.98648H7.00231H7.01815H7.03398H7.04981H7.06564H7.08147H7.0973H7.11313H7.12895H7.14478H7.1606H7.17642H7.19224H7.20806H7.22388H7.2397H7.25552H7.27133H7.28714H7.30296H7.31877H7.33458H7.35039H7.3662H7.38201H7.39782H7.41362H7.42943H7.44523H7.46104H7.47684H7.49264H7.50844H7.52424H7.54004H7.55584H7.57164H7.58744H7.60324H7.61904H7.63483H7.65063H7.66642H7.68222H7.69801H7.71381H7.7296H7.74539H7.76119H7.77698H7.79277H7.80856H7.82435H7.84014H7.85593H7.87173H7.88752H7.90331H7.9191H7.93488H7.95067H7.96646H7.98225H7.99804H8.01383H8.02962H8.04541H8.0612H8.07699H8.09278H8.10857H8.12436H8.14014H8.15593H8.17172H8.18751H8.2033H8.21909H8.23489H8.25068H8.26647H8.28226H8.29805H8.31384H8.32963H8.34543H8.36122H8.37701H8.39281H8.4086H8.4244H8.44019H8.45599H8.47179H8.48759H8.50338H8.51918H8.53498H8.55078H8.56658H8.58238H8.59819H8.61399H8.62979H8.6456H8.6614H8.67721H8.69302H8.70882H8.72463H8.74044H8.75625H8.77206H8.78788H8.80369H8.81951H8.83532H8.85114H8.86696H8.88277H8.8986H8.91442H8.93024H8.94606H8.96189H8.97771H8.99354H9.00937H9.0252H9.04103H9.05687H9.0727H9.08854H9.10437H9.12021H9.13605H9.15189H9.16774H9.18358H9.19943H9.21528H9.23112H9.24698H9.26283H9.27868H9.29454H9.3104H9.32626H9.34212H9.35798H9.37384H9.38971H9.40558H9.42145H9.43732H9.4532H9.46907H9.48495H9.50083H9.51671H9.5326H9.54848H9.56437H9.58026H9.59615H9.61205H9.62794H9.64384H9.65974H9.67565H9.69155H9.70746H9.72337H9.73928H9.74942C8.49661 35.5016 7.25388 39.1249 6.01731 42.7302C4.75966 46.397 3.50837 50.0452 2.25931 53.6999Z" stroke="#001443" stroke-width="1.75" stroke-linecap="round" stroke-linejoin="round"/>
</svg>
