<?xml version="1.0" encoding="utf-8"?>
<!-- Generator: Adobe Illustrator 26.0.3, SVG Export Plug-In . SVG Version: 6.00 Build 0)  -->
<svg version="1.1" id="Layer_1" xmlns="http://www.w3.org/2000/svg" xmlns:xlink="http://www.w3.org/1999/xlink" x="0px" y="0px"
	 viewBox="0 0 130 144" style="enable-background:new 0 0 130 144;" xml:space="preserve">
<style type="text/css">
	.st0{fill-rule:evenodd;clip-rule:evenodd;fill:#FFFFFF;}
	.st1{fill-rule:evenodd;clip-rule:evenodd;fill:#D16323;}
	.st2{fill-rule:evenodd;clip-rule:evenodd;fill:#F58220;}
	.st3{fill-rule:evenodd;clip-rule:evenodd;fill:#B54625;}
	.st4{fill-rule:evenodd;clip-rule:evenodd;fill:#BCBEC0;}
	.st5{fill-rule:evenodd;clip-rule:evenodd;fill:#939598;}
</style>
<g>
	<g id="Layer_1_00000141440388971594065810000000724155091963793308_">
		<path class="st0" d="M66.7,13.4l24.9,14.4l24.9,14.4v57.6l-24.9,14.4l-24.9,14.4l-24.9-14.4L16.9,99.8V42.2l24.9-14.4L66.7,13.4z"
			/>
		<path class="st1" d="M76.5,14.3l17.2,9.9c5.2,3,12.7,7.1,17.1,9.4c7.1,3.8,9.9,8.2,9.8,17.3V71c0,6,0.2,14.6,0.4,19.5
			c0.3,8.1-2.2,12.7-10.1,17.2l-17.2,10c-5.2,3-12.5,7.5-16.7,10.1c-6.9,4.3-12.1,4.4-20-0.1l-17.2-9.9c-5.2-3-12.7-7.1-17.1-9.4
			c-7.1-3.8-9.9-8.2-9.8-17.4V71c0-6.1-0.2-14.6-0.4-19.5c-0.3-8.1,2.2-12.7,10.1-17.2l17.2-9.9c5.2-3,12.5-7.5,16.7-10.1
			C63.4,9.9,68.6,9.7,76.5,14.3z M66.7,21.8L45.4,34.1v24.6l10.7-6.1l10.6-6.1l10.6,6.1l10.6,6.1l21.3-12.3L88,34.1L66.7,21.8z
			 M24.1,66.1l17-9.8V36.6l-17,9.8V66.1z M45.4,58.7L24.2,71v24.6l21.3,12.3l21.3,12.3l21.3-12.3l21.3-12.3V71L88,83.3l-10.6,6.1
			l-10.7,6.1l-10.6-6.1l-10.6-6.1L45.4,58.7L45.4,58.7z"/>
		<path class="st2" d="M76.5,14.3l17.2,9.9c5.2,3,12.7,7.1,17.1,9.4c7.1,3.8,9.9,8.2,9.8,17.4v20c0,6,0.2,14.6,0.4,19.5
			c0.2,4.4-0.5,7.7-2.4,10.6l-9.4-5.5h0.1V71L88,83.2L66.9,70.9l-0.1-24.5l10.6,6.1L88,58.6l21.3-12.3L88,34.1L66.7,21.8V10.9
			C69.7,11.1,72.8,12.2,76.5,14.3z"/>
		<path class="st3" d="M118.8,100.8c-1.6,2.6-4.1,4.8-7.9,6.9l-17.2,9.9c-5.2,3-12.5,7.5-16.7,10.1c-6.9,4.3-12.1,4.4-20-0.1
			l-17.2-9.9c-5.2-3-12.7-7.1-17.1-9.4c-3.9-2.1-6.5-4.3-8-7.5l9.5-5.4v0.2l21.3,12.3l21.3,12.3l21.3-12.3l21.3-12.3v-0.2
			L118.8,100.8L118.8,100.8z M66.7,71L45.4,83.2v0.1L56,89.4l10.6,6.1l10.6-6.1l10.6-6.1l0.1-0.1L66.7,71z"/>
		<path class="st4" d="M24.1,66.1l17-9.8V36.6l-17,9.8V66.1z"/>
		<path class="st5" d="M24.1,66.1l17-9.8V36.6L24.1,66.1z"/>
	</g>
</g>
</svg>
