<svg width="132" height="128" viewBox="0 0 132 128" fill="none" xmlns="http://www.w3.org/2000/svg">
<path d="M65.5551 1.83439C64.4205 1.89146 63.3088 2.17237 62.2853 2.66064L17.6652 23.9494C16.5104 24.5001 15.4956 25.3015 14.6964 26.2939C13.8971 27.2863 13.3339 28.4443 13.0486 29.6819L2.04054 77.5018C1.78635 78.6036 1.7579 79.7447 1.95688 80.8576C2.15586 81.9704 2.57823 83.0324 3.19898 83.9808C3.3495 84.2126 3.51138 84.437 3.68405 84.6532L34.5682 122.997C35.3677 123.989 36.3825 124.79 37.5374 125.341C38.6923 125.891 39.9576 126.177 41.2393 126.177L90.767 126.165C92.0482 126.166 93.3132 125.881 94.468 125.332C95.6229 124.782 96.638 123.982 97.438 122.991L128.311 84.6418C129.111 83.6491 129.674 82.4907 129.96 81.2526C130.245 80.0145 130.245 78.7286 129.96 77.4904L118.935 29.6705C118.649 28.4329 118.086 27.2749 117.287 26.2825C116.488 25.2901 115.473 24.4887 114.318 23.938L69.6924 2.66064C68.405 2.04644 66.9823 1.76233 65.5551 1.83439V1.83439Z" fill="#326CE5"/>
<path d="M65.9976 18.1082C64.5226 18.1083 63.3267 19.4349 63.3269 21.0713C63.3269 21.0964 63.332 21.1204 63.3326 21.1453C63.3304 21.3677 63.3197 21.6355 63.3269 21.8291C63.3621 22.7729 63.5681 23.4953 63.6921 24.3649C63.9168 26.226 64.105 27.7688 63.9889 29.2027C63.8759 29.7434 63.477 30.2379 63.1215 30.5817L63.0587 31.7099C61.4559 31.8425 59.8425 32.0853 58.2309 32.4507C51.2963 34.0229 45.3257 37.5898 40.7801 42.4056C40.4851 42.2047 39.9691 41.835 39.8156 41.7218C39.3388 41.7861 38.8569 41.933 38.2292 41.568C37.034 40.7646 35.9455 39.6557 34.6283 38.3199C34.0248 37.681 33.5878 37.0725 32.8707 36.4566C32.7079 36.3167 32.4593 36.1276 32.2772 35.9837C31.7166 35.5374 31.0554 35.3046 30.4169 35.2828C29.5959 35.2547 28.8055 35.5752 28.2883 36.223C27.3688 37.3746 27.6632 39.1347 28.9445 40.1548C28.9575 40.1651 28.9714 40.1732 28.9845 40.1833C29.1606 40.3258 29.3762 40.5084 29.538 40.6278C30.299 41.1887 30.994 41.4759 31.7522 41.9213C33.3495 42.9063 34.6737 43.723 35.724 44.7077C36.1342 45.1443 36.2058 45.9136 36.2604 46.2463L37.1164 47.0098C32.5341 53.8958 30.4133 62.4015 31.6666 71.068L30.5481 71.3928C30.2533 71.7729 29.8368 72.371 29.4011 72.5495C28.0269 72.9817 26.4803 73.1404 24.6132 73.3359C23.7366 73.4087 22.9803 73.3652 22.051 73.541C21.8464 73.5797 21.5614 73.6538 21.3376 73.7063C21.3299 73.7079 21.3226 73.7102 21.3148 73.7119C21.3026 73.7148 21.2866 73.7207 21.2749 73.7233C19.7007 74.1031 18.6895 75.5479 19.015 76.9714C19.3407 78.3952 20.8783 79.261 22.4618 78.9202C22.4733 78.9176 22.4899 78.9171 22.5018 78.9145C22.5197 78.9104 22.5354 78.9017 22.5531 78.8974C22.7739 78.849 23.0505 78.7952 23.2436 78.7435C24.1573 78.4993 24.819 78.1404 25.6404 77.8261C27.4075 77.1932 28.8711 76.6645 30.297 76.4585C30.8925 76.412 31.52 76.8254 31.8321 76.9999L32.9962 76.8004C35.6752 85.094 41.2894 91.7974 48.3984 96.0036L47.9133 97.1661C48.0882 97.6175 48.281 98.2282 48.1508 98.6739C47.6324 100.016 46.7445 101.433 45.7334 103.013C45.2438 103.742 44.7428 104.309 44.301 105.144C44.1953 105.344 44.0607 105.65 43.9586 105.862C43.2722 107.328 43.7757 109.017 45.0943 109.651C46.4211 110.289 48.068 109.616 48.7807 108.147C48.7818 108.145 48.7854 108.143 48.7864 108.141C48.7872 108.139 48.7857 108.137 48.7864 108.135C48.8879 107.927 49.0318 107.653 49.1174 107.457C49.4958 106.592 49.6217 105.85 49.8878 105.013C50.5944 103.24 50.9827 101.38 51.9554 100.222C52.2218 99.9044 52.6561 99.7823 53.1063 99.6619L53.7112 98.5679C59.9088 100.943 66.8459 101.581 73.7757 100.01C75.3566 99.6511 76.8827 99.1873 78.3581 98.6306C78.5281 98.9317 78.8441 99.5105 78.9288 99.6562C79.3863 99.8049 79.8857 99.8816 80.2926 100.482C81.0204 101.724 81.5181 103.193 82.1245 104.967C82.3906 105.804 82.5221 106.546 82.9006 107.412C82.9868 107.609 83.1299 107.887 83.2315 108.095C83.9428 109.57 85.5949 110.245 86.9237 109.605C88.2421 108.971 88.7461 107.282 88.0593 105.816C87.9573 105.605 87.817 105.298 87.7112 105.098C87.2694 104.263 86.7685 103.702 86.2789 102.973C85.2677 101.393 84.4291 100.081 83.9106 98.7388C83.6939 98.0465 83.9472 97.616 84.1161 97.1661C84.0149 97.0503 83.7985 96.3966 83.671 96.0891C91.0589 91.7332 96.5083 84.7799 99.0674 76.7492C99.413 76.8034 100.014 76.9095 100.209 76.9486C100.61 76.6841 100.98 76.3389 101.704 76.3959C103.13 76.6018 104.593 77.1307 106.36 77.7635C107.182 78.0776 107.844 78.4423 108.757 78.6866C108.95 78.7382 109.227 78.7864 109.448 78.8347C109.465 78.8391 109.481 78.8477 109.499 78.8518C109.511 78.8545 109.528 78.8549 109.539 78.8575C111.123 79.1979 112.661 78.3326 112.986 76.9087C113.311 75.4851 112.3 74.04 110.726 73.6607C110.497 73.6087 110.172 73.5204 109.95 73.4783C109.021 73.3026 108.264 73.3459 107.388 73.2732C105.521 73.0778 103.974 72.919 102.6 72.4868C102.039 72.2698 101.641 71.6041 101.447 71.3301L100.368 71.0167C100.928 66.9769 100.777 62.7726 99.8093 58.5659C98.8326 54.3201 97.1065 50.4368 94.8046 47.0155C95.0812 46.7644 95.6037 46.3024 95.7518 46.1665C95.7952 45.688 95.7579 45.1863 96.254 44.6564C97.3043 43.6717 98.6286 42.8551 100.226 41.87C100.984 41.4246 101.685 41.1375 102.446 40.5765C102.618 40.4496 102.853 40.2487 103.033 40.1035C104.315 39.0831 104.61 37.323 103.69 36.1717C102.77 35.0204 100.988 34.9119 99.7065 35.9324C99.5242 36.0766 99.2767 36.2647 99.113 36.4053C98.396 37.0213 97.9532 37.6297 97.3497 38.2687C96.0326 39.6045 94.944 40.719 93.7488 41.5224C93.2309 41.8234 92.4724 41.7193 92.1281 41.699L91.1124 42.4227C85.3201 36.3578 77.4339 32.4803 68.9422 31.727C68.9185 31.3717 68.8873 30.7294 68.8794 30.5361C68.5318 30.2039 68.1118 29.9203 68.0063 29.2027C67.8902 27.7688 68.0841 26.226 68.3088 24.3649C68.4328 23.4953 68.6388 22.7729 68.674 21.8291C68.682 21.6146 68.6692 21.3032 68.6683 21.0713C68.6681 19.4349 67.4725 18.108 65.9976 18.1082H65.9976ZM62.6535 38.7929L61.8603 52.7822L61.8032 52.8107C61.75 54.0622 60.7185 55.0615 59.4521 55.0615C58.9333 55.0615 58.4545 54.8951 58.0654 54.6113L58.0426 54.6227L46.5552 46.4913C50.0857 43.0247 54.6016 40.4629 59.8059 39.283C60.7566 39.0674 61.7068 38.9075 62.6535 38.7929ZM69.3474 38.7929C75.4235 39.5391 81.0427 42.2864 85.3487 46.497L73.9355 54.5771L73.8955 54.56C72.8825 55.2989 71.4552 55.1155 70.6656 54.127C70.3421 53.722 70.1724 53.2458 70.152 52.7651L70.1406 52.7594L69.3474 38.7929ZM42.3893 51.7166L52.8781 61.0846L52.8667 61.1416C53.8134 61.9634 53.953 63.3895 53.1634 64.3782C52.84 64.7832 52.407 65.0548 51.9422 65.1816L51.9308 65.2272L38.486 69.102C37.8017 62.854 39.2765 56.7803 42.3893 51.7166ZM89.5317 51.7223C91.0901 54.2446 92.2702 57.0617 92.9728 60.1159C93.6669 63.1333 93.8411 66.1454 93.5548 69.0565L80.0416 65.1702L80.0302 65.1132C78.8201 64.783 78.0764 63.5539 78.3581 62.3211C78.4735 61.8161 78.742 61.3888 79.1057 61.0732L79.1 61.0447L89.5317 51.7223H89.5317ZM63.8462 61.8082H68.1433L70.814 65.1417L69.8553 69.3015L65.9976 71.1534L62.1285 69.2958L61.1698 65.136L63.8462 61.8082ZM77.622 73.2162C77.8046 73.207 77.9864 73.2234 78.1641 73.2561L78.1869 73.2276L92.0939 75.5753C90.0586 81.2851 86.164 86.2316 80.9603 89.5418L75.5619 76.5212L75.579 76.4984C75.0831 75.3478 75.5794 73.9985 76.7203 73.4498C77.0124 73.3093 77.3176 73.2316 77.622 73.2162H77.622ZM54.2648 73.2732C55.3261 73.288 56.278 74.0236 56.5246 75.1023C56.6401 75.6073 56.5839 76.1077 56.3934 76.5497L56.4333 76.601L51.0919 89.4905C46.098 86.2906 42.1203 81.4994 39.9926 75.6209L53.7797 73.2846L53.8026 73.3131C53.9568 73.2847 54.1132 73.2711 54.2648 73.2732V73.2732ZM65.912 78.9202C66.2817 78.9066 66.6568 78.9824 67.0134 79.1538C67.4808 79.3786 67.8418 79.7324 68.0691 80.1567H68.1205L74.917 92.4194C74.035 92.7147 73.1282 92.967 72.2007 93.1773C67.0027 94.3558 61.8213 93.9987 57.1295 92.4023L63.909 80.1624H63.9204C64.3272 79.403 65.0987 78.95 65.912 78.9202Z" fill="white" stroke="white" stroke-width="0.25"/>
</svg>
