<svg width="49" height="49" viewBox="0 0 49 49" fill="none" xmlns="http://www.w3.org/2000/svg">
<g clip-path="url(#clip0)">
<g clip-path="url(#clip1)">
<path d="M23.4787 31.1232L0.992188 21.134V37.0908L23.4125 47.08L23.4787 31.1232Z" stroke="#001443" stroke-width="1.5" stroke-miterlimit="10" stroke-linecap="round" stroke-linejoin="round"/>
<path d="M47.9491 21.134L23.4785 31.1232V47.1448L47.9491 37.1557V21.134Z" stroke="#001443" stroke-width="1.5" stroke-miterlimit="10" stroke-linecap="round" stroke-linejoin="round"/>
<path d="M24.4703 25.0908C27.8433 25.0908 30.5549 23.7286 30.5549 22.107C30.5549 20.4854 27.8433 19.1232 24.4703 19.1232C21.0973 19.1232 18.3857 20.4854 18.3857 22.107C18.3857 23.7286 21.0973 25.0908 24.4703 25.0908Z" stroke="#001443" stroke-width="1.5" stroke-miterlimit="10" stroke-linecap="round" stroke-linejoin="round"/>
<path d="M24.4703 14.1286C27.8433 14.1286 30.5549 12.7664 30.5549 11.1448C30.5549 9.52317 27.8433 8.16101 24.4703 8.16101C21.0973 8.16101 18.3857 9.52317 18.3857 11.1448C18.3857 12.7664 21.0973 14.1286 24.4703 14.1286Z" stroke="#001443" stroke-width="1.5" stroke-miterlimit="10" stroke-linecap="round" stroke-linejoin="round"/>
<path d="M38.7564 20.0962C42.1294 20.0962 44.841 18.734 44.841 17.1124C44.841 15.4908 42.1294 14.1286 38.7564 14.1286C35.3835 14.1286 32.6719 15.4908 32.6719 17.1124C32.6719 18.734 35.3835 20.0962 38.7564 20.0962Z" stroke="#001443" stroke-width="1.5" stroke-miterlimit="10" stroke-linecap="round" stroke-linejoin="round"/>
<path d="M11.2435 20.0962C14.6165 20.0962 17.3281 18.734 17.3281 17.1124C17.3281 15.4908 14.6165 14.1286 11.2435 14.1286C7.87052 14.1286 5.09277 15.4908 5.09277 17.1124C5.09277 18.734 7.80438 20.0962 11.2435 20.0962Z" stroke="#001443" stroke-width="1.5" stroke-miterlimit="10" stroke-linecap="round" stroke-linejoin="round"/>
<path d="M6.28339 18.8637L1.05859 21.134" stroke="#001443" stroke-width="1.5" stroke-miterlimit="10" stroke-linecap="round" stroke-linejoin="round"/>
<path d="M19.8406 13.0908L15.4756 14.9718" stroke="#001443" stroke-width="1.5" stroke-miterlimit="10" stroke-linecap="round" stroke-linejoin="round"/>
<path d="M34.0608 15.2313L29.1006 13.0908" stroke="#001443" stroke-width="1.5" stroke-miterlimit="10" stroke-linecap="round" stroke-linejoin="round"/>
<path d="M47.9486 21.134L43.2529 19.1232" stroke="#001443" stroke-width="1.5" stroke-miterlimit="10" stroke-linecap="round" stroke-linejoin="round"/>
</g>
</g>
<defs>
<clipPath id="clip0">
<rect width="48.9412" height="48" fill="white" transform="translate(0 0.117798)"/>
</clipPath>
<clipPath id="clip1">
<rect width="48.9412" height="48" fill="white" transform="translate(0 0.117798)"/>
</clipPath>
</defs>
</svg>
