<svg width="38" height="48" viewBox="0 0 38 48" fill="none" xmlns="http://www.w3.org/2000/svg">
<path d="M31.8099 15.9095H30.5897V12.594C30.5897 6.32788 25.5046 1.2428 19.2385 1.2428C12.9724 1.2428 7.88728 6.32788 7.88728 12.594V15.9095H6.66704C3.87903 15.9095 1.60156 18.1869 1.60156 20.9749V41.9273C1.60156 44.7153 3.87903 46.9928 6.66704 46.9928H31.8099C34.5979 46.9928 36.8754 44.7153 36.8754 41.9273V20.9749C36.8754 18.1869 34.5979 15.9095 31.8099 15.9095ZM19.2385 34.7666C17.417 34.7666 15.923 33.2726 15.923 31.4511C15.923 29.6296 17.417 28.1357 19.2385 28.1357C21.06 28.1357 22.5539 29.6296 22.5539 31.4511C22.5539 33.2726 21.06 34.7666 19.2385 34.7666ZM24.8587 15.9095H13.6182V12.594C13.6182 9.49438 16.1389 6.97375 19.2385 6.97375C22.3381 6.97375 24.8587 9.49438 24.8587 12.594V15.9095Z" stroke="#001443" stroke-width="1.75" stroke-linecap="round" stroke-linejoin="round"/>
<line x1="6.62988" y1="15.9095" x2="31.208" y2="15.9095" stroke="#001443" stroke-width="1.75"/>
</svg>
