<svg width="190" height="180" viewBox="0 0 190 180" fill="none" xmlns="http://www.w3.org/2000/svg">
<g clip-path="url(#clip0_131_434)">
<path d="M48.8561 37.1227C51.1263 43.4125 55.6059 67.3166 40.0493 66.731C24.4852 66.1454 35.5241 54.2427 36.0269 46.7057C36.5297 39.1762 34.3432 32.0954 31.7682 27.1366C29.1933 22.1702 27.4334 18.6565 30.0694 17.4852C32.7053 16.314 42.4034 19.2421 48.8637 37.1227H48.8561Z" fill="#64F9BF" stroke="black" stroke-width="0.77" stroke-miterlimit="10"/>
<path d="M52.6043 107.177C50.334 110.965 13.3168 109.839 2.60545 66.7384C-8.10585 23.6379 21.4988 -2.82174 28.5762 0.585538C35.6459 4.00042 27.5858 14.5797 29.1171 29.806C30.6484 45.0322 32.4158 54.4175 35.646 58.8135C38.8761 63.2095 40.3464 64.0917 41.8091 64.0917C43.2719 64.0917 44.4527 62.6238 45.6259 61.1636C46.7991 59.7033 50.0293 56.1819 52.9699 63.2171C55.9106 70.2522 59.2855 96.0425 52.6043 107.185V107.177Z" fill="#1C82DF" stroke="black" stroke-width="0.77" stroke-miterlimit="10"/>
<path d="M65.2278 114.919C61.4643 118.677 54.8364 118.152 50.4178 113.741C45.9992 109.329 45.4735 102.713 49.237 98.9554C53.0004 95.1983 59.6283 95.7231 64.0469 100.134C68.4579 104.546 68.9912 111.162 65.2278 114.919Z" fill="#1C82DF" stroke="black" stroke-width="0.77" stroke-miterlimit="10"/>
<path d="M70.3091 127.408C76.7129 127.408 81.9042 121.37 81.9042 113.923C81.9042 106.476 76.7129 100.438 70.3091 100.438C63.9054 100.438 58.7141 106.476 58.7141 113.923C58.7141 121.37 63.9054 127.408 70.3091 127.408Z" fill="#46A7FF" stroke="black" stroke-width="0.77" stroke-miterlimit="10"/>
<path d="M53.8689 97.6551C53.8689 97.6551 55.3392 96.4838 58.7141 97.6551C62.089 98.8263 62.3861 100.88 61.2129 100.88C60.0397 100.88 59.4912 99.7618 57.8532 99.2903C56.2229 98.8263 52.9928 99.701 53.8689 97.6551Z" fill="white"/>
<path d="M44.8793 63.9169C44.8793 63.9169 47.1115 59.5513 48.8789 59.848C50.6464 60.1446 52.6957 61.6048 55.0421 78.0252C55.0421 78.0252 51.2253 64.5406 49.1684 64.5406C47.1115 64.5406 43.8204 65.651 44.8793 63.9245V63.9169Z" fill="white"/>
<path d="M29.1018 1.62761C31.5321 3.65068 30.0694 6.51036 30.0694 6.51036C30.0694 6.51036 28.9723 3.33125 23.6852 5.69657C18.3982 8.06189 10.9399 16.9375 6.42983 22.9155C6.42983 22.9155 8.02967 17.7437 12.5092 11.9939C17.7735 5.23263 25.567 -1.30812 29.1018 1.62761Z" fill="white"/>
<path d="M30.0846 17.9262L29.7875 20.2687C29.7875 20.2687 41.8244 25.836 45.9383 32.2855C45.9383 32.2855 39.7751 17.333 30.0846 17.9186V17.9262Z" fill="white"/>
<path d="M161.797 121.62L160.517 117.315C160.517 117.315 153.79 117.977 152.061 124.213C151.566 125.993 152.358 127.72 153.745 129.279" fill="white"/>
<path d="M153.745 129.279C157.211 133.195 164.41 136.07 164.41 136.07L165.66 134.618L161.797 121.62" fill="#1C82DF"/>
<path d="M163.031 123.369L160.091 125.727C160.091 125.727 156.19 126.784 156.731 132.017C156.731 132.017 154.514 130.541 152.701 127.94C152.701 127.94 153.242 122.738 158.597 120.601C163.953 118.464 163.024 123.369 163.024 123.369H163.031Z" fill="#64F9BF"/>
<path d="M160.517 117.315C160.517 117.315 153.79 117.977 152.061 124.213C150.332 130.45 164.403 136.07 164.403 136.07L165.652 134.618L160.51 117.315H160.517Z" stroke="black" stroke-width="0.77" stroke-miterlimit="10"/>
<path d="M185.559 135.302C180.409 137.599 172.28 137.812 172.28 137.812L171.533 136.017L180.942 124.639" fill="#1C82DF"/>
<path d="M180.934 124.655L183.502 121.552C183.502 121.552 190.251 124.48 189.665 130.929C189.49 132.891 187.806 134.298 185.551 135.302" fill="white"/>
<path d="M179.807 126.016L181.688 129.279C181.688 129.279 184.941 131.674 182.534 136.359C182.534 136.359 185.132 135.789 187.768 134.017C187.768 134.017 189.154 128.974 184.934 125.042C180.713 121.11 179.807 126.016 179.807 126.016Z" fill="#64F9BF"/>
<path d="M183.502 121.552C183.502 121.552 190.251 124.48 189.665 130.929C189.078 137.379 172.272 137.82 172.272 137.82L171.526 136.025L183.502 121.544V121.552Z" stroke="black" stroke-width="0.77" stroke-miterlimit="10"/>
<path d="M185.559 124.213C181.582 130.883 172.28 137.82 172.28 137.82L169.713 137.379L173.75 119.673" fill="#1C82DF"/>
<path d="M173.743 119.673L174.984 114.22C174.984 114.22 187.608 111.581 187.318 119.201C187.257 120.768 186.587 122.487 185.551 124.213" fill="white"/>
<path d="M178.984 125.795C178.984 125.795 181.787 126.016 181.688 129.279C181.688 129.279 185.498 124.83 186.633 122.092C186.633 122.092 187.532 115.969 178.984 116.342V125.803V125.795Z" fill="#64F9BF"/>
<path d="M174.992 114.22C174.992 114.22 187.615 111.581 187.326 119.201C187.036 126.822 172.28 137.82 172.28 137.82L169.713 137.379L175 114.22H174.992Z" stroke="black" stroke-width="0.77" stroke-miterlimit="10"/>
<path d="M169.187 122.084L168.836 113.459C168.836 113.459 158.034 109.018 157.059 116.585C156.853 118.205 157.203 120.068 157.897 122.008" fill="white"/>
<path d="M157.897 122C160.426 129.111 167.435 137.143 167.435 137.143L169.796 137.082L169.187 122.084" fill="#1C82DF"/>
<path d="M163.907 125.02C163.907 125.02 161.409 124.693 160.868 127.91C160.868 127.91 157.698 122.807 157.127 119.901C157.127 119.901 157.439 113.726 165.751 115.749L163.907 125.027V125.02Z" fill="#64F9BF"/>
<path d="M168.836 113.459C168.836 113.459 158.034 109.018 157.059 116.585C156.083 124.153 167.435 137.143 167.435 137.143L169.796 137.082L168.844 113.459H168.836Z" stroke="black" stroke-width="0.77" stroke-miterlimit="10"/>
<path d="M180.188 120.616C180.15 121.072 180.089 121.536 180.012 122C178.862 129.035 174.124 134.116 169.438 133.348C164.753 132.579 161.881 126.259 163.039 119.224C163.1 118.836 163.176 118.448 163.267 118.068" fill="#1C82DF"/>
<path d="M163.26 118.076C164.715 111.649 169.187 107.154 173.613 107.884C177.994 108.599 180.782 114.159 180.188 120.624" fill="white"/>
<path d="M171.526 121.065C176.005 121.795 178.984 125.795 178.984 125.795C178.984 125.795 180.393 122.114 180.264 119.407C180.264 119.407 179.251 113.482 173.08 112.6C166.909 111.718 163.626 116.684 163.626 116.684C163.626 116.684 162.757 118.996 162.78 122.396C162.78 122.396 165.858 120.137 171.526 121.057V121.065Z" fill="#64F9BF"/>
<path d="M180.012 122C178.862 129.035 174.124 134.116 169.438 133.348C164.753 132.58 161.881 126.259 163.039 119.224C164.189 112.189 168.928 107.109 173.613 107.877C178.298 108.645 181.17 114.965 180.012 122Z" stroke="black" stroke-width="0.77" stroke-miterlimit="10"/>
<path d="M86.9475 148.81C86.9475 148.81 86.0333 144.056 89.1339 142.474C92.2346 140.892 96.836 144.018 95.4114 157.259C93.9944 170.501 90.7642 175.193 88.1207 174.311C85.4771 173.429 90.0405 166.85 88.395 157.259L86.9475 148.81Z" fill="#1BA499" stroke="black" stroke-width="0.77" stroke-miterlimit="10"/>
<path d="M97.7807 149.015C97.7807 149.015 96.9579 144.741 99.7462 143.311C102.534 141.889 106.679 144.703 105.399 156.621C104.119 168.546 101.217 172.767 98.832 171.976C96.4551 171.185 100.546 165.261 99.0834 156.621C97.8112 149.099 97.7807 149.015 97.7807 149.015Z" fill="#1BA499" stroke="black" stroke-width="0.77" stroke-miterlimit="10"/>
<path d="M106.808 146.749C106.808 146.749 106.245 142.429 109.109 141.174C111.981 139.919 115.95 142.969 113.962 154.795C111.974 166.622 108.82 170.66 106.488 169.733C104.157 168.797 108.599 163.131 107.654 154.423C106.831 146.84 106.801 146.749 106.801 146.749H106.808Z" fill="#1BA499" stroke="black" stroke-width="0.77" stroke-miterlimit="10"/>
<path d="M117.101 148.855C117.101 148.855 117.116 145.098 119.721 144.353C122.319 143.607 125.359 146.68 122.289 156.567C119.219 166.454 116.049 169.542 114.168 168.478C112.286 167.413 116.735 163.078 116.941 155.518C117.116 148.939 117.101 148.855 117.101 148.855Z" fill="#1BA499" stroke="black" stroke-width="0.77" stroke-miterlimit="10"/>
<path d="M100.112 130.632C109.802 118.616 118.906 115.391 132.413 128.29C145.921 141.189 157.371 141.189 162.071 136.496C166.772 131.804 168.539 130.26 170.749 130.709C174.702 131.515 177.636 145.585 157.965 157.602C139.232 169.048 98.9463 164.34 93.3468 156.111C86.8637 146.581 100.119 130.632 100.119 130.632H100.112Z" fill="#1C82DF" stroke="black" stroke-width="0.77" stroke-miterlimit="10"/>
<path d="M130.204 164.355C130.204 164.355 140.641 158.781 142.104 149.692C143.574 140.603 138.47 133.348 138.47 133.348" stroke="black" stroke-width="0.77" stroke-miterlimit="10"/>
<path d="M150.301 138.938C150.301 138.938 154.727 141.478 155.314 147.053C155.901 152.628 152.335 158.682 150.301 161.07" stroke="black" stroke-width="0.77" stroke-miterlimit="10"/>
<path d="M160.35 137.827C160.35 137.827 171.952 137.166 168.486 148.848" stroke="black" stroke-width="0.77" stroke-miterlimit="10"/>
<path d="M83.3745 65.5596C97.1788 65.5596 108.576 83.9041 113.154 90.4144C117.733 96.9248 128.886 116.273 130.059 129.172C131.233 142.071 124.772 154.088 113.322 157.313C101.872 160.537 91.9984 160.499 73.3869 138.261C55.4763 116.859 60.4663 65.5596 83.3669 65.5596H83.3745Z" fill="#1C82DF" stroke="black" stroke-width="0.77" stroke-miterlimit="10"/>
<path d="M75.8476 62.1904C75.8476 62.1904 73.3946 43.5796 81.6147 42.4008C89.8348 41.2219 95.419 58.5245 96.0056 60.578C96.5922 62.6315 97.1788 64.3884 98.3521 63.8027C99.5253 63.2171 93.065 39.4727 82.7879 39.4727C72.5108 39.4727 72.0614 55.315 72.5794 62.6391C72.5794 62.6391 74.1869 64.9816 75.8476 62.198V62.1904Z" fill="#64F9BF" stroke="black" stroke-width="0.77" stroke-miterlimit="10"/>
<path d="M87.0008 62.5784C87.0008 62.5784 86.3151 43.5722 106.869 44.1578C127.423 44.7434 134.767 68.1989 135.057 71.7126C135.346 75.2264 133.587 73.7661 132.413 70.8304C131.24 67.8946 125.953 50.3107 110.389 47.3825C94.8248 44.4544 91.6479 54.6306 90.7414 63.0271C89.8348 71.4236 87.0008 62.5784 87.0008 62.5784Z" fill="#64F9BF" stroke="black" stroke-width="0.77" stroke-miterlimit="10"/>
<path d="M71.6347 62.9205C71.6347 62.9205 69.5778 69.0734 70.751 74.3517C70.751 74.3517 75.1087 72.8838 78.6512 68.6323C78.6512 68.6323 78.0265 64.3808 76.739 62.3273C76.739 62.3273 75.1544 61.7417 71.6271 62.9129L71.6347 62.9205Z" fill="#64F9BF" stroke="black" stroke-width="0.77" stroke-miterlimit="10"/>
<path d="M85.7285 62.9206C85.7285 62.9206 83.9687 66.4419 83.9687 69.0734C83.9687 69.0734 86.3151 74.6407 93.0726 75.2263C93.0726 75.2263 93.6592 71.2562 92.1888 63.567C92.1888 63.567 88.3721 61.7417 85.7285 62.9129V62.9206Z" fill="#64F9BF" stroke="black" stroke-width="0.77" stroke-miterlimit="10"/>
<path d="M100.112 81.6757C99.929 84.6646 98.733 87.0223 97.4379 86.9463C96.1428 86.8702 95.2362 84.3832 95.419 81.3942C95.6019 78.4053 96.7979 76.0476 98.093 76.1236C99.3881 76.1997 100.295 78.6867 100.112 81.6757Z" fill="black"/>
<path d="M69.6006 89.4333C70.1949 90.9544 71.8785 93.2133 76.6247 92.8254C83.6716 92.2398 89.1644 86.0869 91.4118 88.1328C93.6592 90.1863 91.3051 99.8605 78.6816 99.2749C66.0581 98.6893 69.5778 89.3116 69.5778 89.3116L69.6006 89.4409V89.4333Z" fill="white"/>
<path d="M76.6247 92.8179L76.8456 99.1076" stroke="black" stroke-width="0.77" stroke-miterlimit="10"/>
<path d="M82.2089 91.2891L83.4964 98.9402" stroke="black" stroke-width="0.77" stroke-miterlimit="10"/>
<path d="M86.6351 89.0532L89.7129 95.7613" stroke="black" stroke-width="0.77" stroke-miterlimit="10"/>
<path d="M72.2747 92.2322L71.2157 96.9172" stroke="black" stroke-width="0.77" stroke-miterlimit="10"/>
<path d="M69.2807 88.1328C69.2807 88.1328 69.5778 93.411 76.6247 92.8254C83.6716 92.2398 89.1644 86.0869 91.4118 88.1328C93.6592 90.1863 91.3051 99.8605 78.6816 99.2749C66.0581 98.6893 69.5778 89.3116 69.5778 89.3116" stroke="black" stroke-width="0.77" stroke-miterlimit="10"/>
<path d="M106.877 158.377C103.807 158.781 95.8532 159.807 83.2298 148.376C76.7618 142.52 70.3091 135.188 67.3685 127.126C67.3685 127.126 65.7229 117.68 80.6472 117.787C95.5638 117.893 103.494 128.929 109.513 138.656C115.531 148.384 117.642 151.259 119.935 153.746C119.935 153.746 116.118 157.176 106.877 158.385V158.377Z" fill="#46A7FF"/>
<path d="M94.322 156.933C94.322 156.933 100.843 160.096 108.012 158.842C113.276 157.914 117.878 155.997 120.255 154.301C120.255 154.301 124.292 159.648 131.796 162.074C139.308 164.5 123.058 164.044 123.058 164.044C123.058 164.044 100.836 163.032 94.3144 156.933H94.322Z" fill="#46A7FF"/>
<path d="M142.896 163.222C140.893 161.549 142.172 157.853 145.403 156.765C148.633 155.677 155.588 150.118 157.439 147.661C159.291 145.205 162.125 148.011 161.63 149.487C161.134 150.962 154.522 157.959 149.372 161.207C144.572 164.234 143.78 163.96 142.896 163.222Z" fill="#0955B2" stroke="black" stroke-width="0.77" stroke-miterlimit="10"/>
<path d="M167.747 150.027C167.747 150.027 167.732 146.27 165.126 145.524C162.528 144.779 159.489 147.852 162.559 157.739C165.629 167.626 168.798 170.714 170.68 169.649C172.562 168.584 168.113 164.249 167.907 156.689C167.732 150.11 167.747 150.027 167.747 150.027Z" fill="#64F9BF" stroke="black" stroke-width="0.77" stroke-miterlimit="10"/>
<path d="M161.881 151.145C161.881 151.145 162.445 146.825 159.58 145.57C156.708 144.315 152.739 147.365 154.727 159.191C156.716 171.018 159.87 175.056 162.201 174.129C164.532 173.193 160.091 167.527 161.035 158.819C161.858 151.236 161.889 151.145 161.889 151.145H161.881Z" fill="#64F9BF" stroke="black" stroke-width="0.77" stroke-miterlimit="10"/>
<path d="M131.53 164.933C128.871 162.941 130.509 158.583 134.76 157.313C139.011 156.043 148.107 149.509 150.522 146.612C152.937 143.714 156.7 147.053 156.068 148.794C155.436 150.536 146.797 158.773 140.047 162.591C133.754 166.143 132.703 165.816 131.53 164.933Z" fill="#0955B2" stroke="black" stroke-width="0.77" stroke-miterlimit="10"/>
<path d="M156.228 151.365C156.228 151.365 157.051 147.091 154.263 145.661C151.474 144.239 147.33 147.053 148.61 158.971C149.89 170.896 152.792 175.117 155.177 174.326C157.554 173.535 153.463 167.611 154.925 158.971C156.198 151.449 156.228 151.365 156.228 151.365Z" fill="#64F9BF" stroke="black" stroke-width="0.77" stroke-miterlimit="10"/>
<path d="M123.02 163.177C122.319 161.435 122.433 159.655 126.25 158.195C130.067 156.735 137.998 149.989 140.055 147.053C142.111 144.117 145.73 147.129 145.243 148.848C144.755 150.567 137.342 160.538 131.21 163.169C125.077 165.801 123.607 164.637 123.02 163.169V163.177Z" fill="#0955B2" stroke="black" stroke-width="0.77" stroke-miterlimit="10"/>
<path d="M145.921 152.62C145.921 152.62 146.835 147.867 143.734 146.285C140.634 144.703 136.032 147.829 137.457 161.07C138.874 174.311 142.104 179.004 144.747 178.121C147.391 177.239 142.828 170.66 144.473 161.07L145.921 152.62Z" fill="#64F9BF" stroke="black" stroke-width="0.77" stroke-miterlimit="10"/>
<path d="M98.4968 81.828C98.9848 81.828 99.3805 81.0414 99.3805 80.0711C99.3805 79.1008 98.9848 78.3142 98.4968 78.3142C98.0087 78.3142 97.6131 79.1008 97.6131 80.0711C97.6131 81.0414 98.0087 81.828 98.4968 81.828Z" fill="white"/>
<path d="M73.9888 65.7726C73.9126 67.0656 73.2955 68.0847 72.6099 68.0467C71.9242 68.0086 71.4367 66.921 71.5128 65.6281C71.589 64.3352 72.2061 63.316 72.8918 63.3541C73.5774 63.3921 74.065 64.4797 73.9888 65.7726Z" fill="white"/>
<path d="M87.8236 65.9781C87.4655 67.2102 86.6427 68.0544 85.9952 67.8642C85.3476 67.6741 85.1115 66.518 85.4771 65.286C85.8352 64.0539 86.658 63.2096 87.3055 63.3998C87.9531 63.5899 88.1892 64.746 87.8236 65.9781Z" fill="white"/>
<path d="M70.0044 74.3516L70.3853 75.6674C70.3853 75.6674 66.1953 82.9991 64.4354 89.7376C64.4354 89.7376 64.7097 82.9991 70.0044 74.344V74.3516Z" fill="white"/>
<path d="M78.6512 66.7386L78.895 68.2673C78.895 68.2673 81.1119 67.6056 83.4964 68.2673L83.9687 65.9933C83.9687 65.9933 81.1271 65.7271 78.6588 66.7462L78.6512 66.7386Z" fill="white"/>
<path d="M143.864 153.943C144.592 153.943 145.182 152.5 145.182 150.719C145.182 148.938 144.592 147.494 143.864 147.494C143.136 147.494 142.546 148.938 142.546 150.719C142.546 152.5 143.136 153.943 143.864 153.943Z" fill="white"/>
<path d="M154.285 152.765C154.933 152.765 155.459 151.518 155.459 149.981C155.459 148.444 154.933 147.197 154.285 147.197C153.638 147.197 153.112 148.444 153.112 149.981C153.112 151.518 153.638 152.765 154.285 152.765Z" fill="white"/>
<path d="M160.159 152.476C160.807 152.476 161.332 151.427 161.332 150.133C161.332 148.839 160.807 147.791 160.159 147.791C159.511 147.791 158.986 148.839 158.986 150.133C158.986 151.427 159.511 152.476 160.159 152.476Z" fill="white"/>
<path d="M166.901 148.954C167.077 150.156 166.764 151.198 166.2 151.282C165.637 151.365 165.043 150.46 164.867 149.258C164.692 148.057 165.004 147.015 165.568 146.931C166.132 146.847 166.726 147.753 166.901 148.954Z" fill="white"/>
<path d="M99.9671 45.4811C99.9671 45.4811 102.9 44.3098 107.014 44.5988C111.128 44.8879 114.358 46.0667 114.358 46.0667C114.358 46.0667 104.668 44.8955 99.9671 45.4811Z" fill="white"/>
<path d="M77.0666 42.5454C77.0666 42.5454 78.8264 39.9062 82.3536 39.9062C85.8809 39.9062 88.5778 42.7203 88.5778 42.7203C88.5778 42.7203 83.2374 38.4384 77.0666 42.5454Z" fill="white"/>
<path d="M130.242 126.853C130.242 126.853 130.501 128.731 130.798 130.488C131.088 132.222 139.902 137.523 139.902 137.523C139.902 137.523 139.316 135.181 138.142 133.713C138.142 133.713 131.682 128.434 130.25 126.853H130.242Z" fill="white"/>
<path d="M139.605 134.595C139.605 134.595 141.075 136.937 141.365 138.116C141.365 138.116 149.349 141.79 152.701 141.858C152.701 141.858 151.939 140.459 150.179 139.288C150.179 139.288 145.776 138.702 139.605 134.595Z" fill="white"/>
<path d="M151.81 139.592C151.81 139.592 153.348 140.908 153.966 141.851C153.966 141.851 160.456 141.623 163.976 138.694C163.976 138.694 163.191 138.329 160.502 138.223C160.502 138.223 156.64 140.459 151.81 139.592Z" fill="white"/>
<path d="M161.439 137.523C161.439 137.523 163.1 137.523 164.563 138.109C164.563 138.109 168.676 131.37 170.139 131.074C170.139 131.074 168.379 130.777 165.736 133.416C163.679 135.47 161.538 137.523 161.431 137.523H161.439Z" fill="white"/>
<path d="M114.358 119.308C120.762 119.308 125.953 113.271 125.953 105.823C125.953 98.3759 120.762 92.3386 114.358 92.3386C107.954 92.3386 102.763 98.3759 102.763 105.823C102.763 113.271 107.954 119.308 114.358 119.308Z" fill="#46A7FF" stroke="black" stroke-width="0.77" stroke-miterlimit="10"/>
<path d="M136.832 116.965C139.186 112.204 136.565 106.105 130.966 103.344C125.366 100.583 118.921 102.203 116.56 106.972C114.206 111.733 116.826 117.832 122.426 120.593C128.025 123.354 134.47 121.734 136.832 116.965Z" fill="#1C82DF" stroke="black" stroke-width="0.77" stroke-miterlimit="10"/>
<path d="M112.766 118.258C109.536 117.513 106.138 114.471 104.957 110.949C103.776 107.428 107.182 108.181 108.713 109.565C110.244 110.949 112.591 116.73 114.937 116.92C117.283 117.11 116.453 119.11 112.758 118.258H112.766Z" fill="white"/>
<path d="M124.049 120.335C126.905 121.688 130.075 120.92 130.44 120.038C130.806 119.156 128.802 118.631 125.839 117.87C122.875 117.11 120.91 113.817 119.249 114.288C117.588 114.76 118.464 117.695 124.049 120.335Z" fill="white"/>
<path d="M81.6147 133.492C87.1379 129.712 109.178 119.354 112.537 134.534C115.897 149.715 101.575 142.056 94.1468 143.478C86.7189 144.893 80.411 148.795 76.2514 152.536C72.0918 156.278 69.1283 158.864 67.3228 156.613C65.5172 154.354 65.9134 144.254 81.6147 133.507V133.492Z" fill="#64F9BF" stroke="black" stroke-width="0.77" stroke-miterlimit="10"/>
<path d="M148.572 112.197C153.112 114.075 161.066 149.479 121.992 170.699C82.9174 191.918 49.7931 169.991 51.3168 162.302C52.8404 154.613 65.1363 159.731 79.5044 154.4C93.8801 149.076 102.527 145.007 105.97 140.778C109.414 136.55 109.901 134.907 109.528 133.492C109.155 132.07 107.441 131.31 105.727 130.541C104.012 129.773 99.7843 127.545 105.864 122.936C111.943 118.327 136.55 107.23 148.572 112.197Z" fill="#1C82DF" stroke="black" stroke-width="0.77" stroke-miterlimit="10"/>
<path d="M108.583 130.572C108.583 130.572 103.791 129.515 103.632 127.735C103.472 125.955 104.37 123.605 119.691 117.194C119.691 117.194 107.585 124.282 108.103 126.267C108.621 128.252 110.526 131.157 108.583 130.564V130.572Z" fill="white"/>
<path d="M52.1929 161.534C53.5413 158.674 56.68 159.366 56.68 159.366C56.68 159.366 53.8765 161.229 57.5028 165.74C61.1291 170.25 71.6119 175.216 78.5445 178.06C78.5445 178.06 73.1279 177.825 66.4238 174.942C58.5389 171.55 50.235 165.679 52.1929 161.526V161.534Z" fill="white"/>
<path d="M67.7342 156.469L70.0806 156.157C70.0806 156.157 72.4423 143.121 77.6532 137.523C77.6532 137.523 64.7173 147.251 67.7342 156.461V156.469Z" fill="white"/>
</g>
<defs>
<clipPath id="clip0_131_434">
<rect width="190" height="180" fill="white"/>
</clipPath>
</defs>
</svg>
