<svg width="76" height="74" viewBox="0 0 76 74" fill="none" xmlns="http://www.w3.org/2000/svg">
<path d="M42.4248 50.268C47.7161 48.2936 50.4865 44.5027 50.4865 37.974C50.4865 31.4453 44.9982 25.6801 38.1313 25.6669C30.8967 25.6537 25.4216 31.4058 25.5135 37.974C25.6054 44.5422 28.7172 48.8991 33.7065 50.4654L24.8701 72.276C13.027 69.2091 1 55.204 1 37.974C1 17.5587 17.3598 1 37.8687 1C58.3776 1 75 17.5455 75 37.9609C75 55.4673 63.0781 69.275 50.9854 72.3287L42.4248 50.268Z" stroke="#6E6E6E" stroke-width="1.5" stroke-linecap="round" stroke-linejoin="round"/>
<path d="M72.3526 70.026C72.4751 70.0669 72.5976 70.157 72.7119 70.2961C72.8344 70.4353 72.9487 70.6235 73.0712 70.8691L73.6591 72.0397H73.0385L72.4914 70.9346C72.3526 70.6481 72.2138 70.4598 72.075 70.3616C71.9444 70.2716 71.7647 70.2224 71.5361 70.2224H70.9074V72.0397H70.3276V67.7422H71.6341C72.124 67.7422 72.4914 67.8486 72.7282 68.0532C72.9732 68.2579 73.0875 68.5689 73.0875 68.9864C73.0875 69.2565 73.0222 69.4776 72.8997 69.6576C72.7772 69.8377 72.5894 69.9605 72.3526 70.026ZM70.8992 68.2251V69.7477H71.6259C71.9035 69.7477 72.1158 69.6822 72.2546 69.5512C72.4016 69.4203 72.4669 69.232 72.4669 68.9782C72.4669 68.7245 72.3934 68.5362 72.2546 68.4134C72.1158 68.2824 71.9035 68.217 71.6259 68.217H70.8992" fill="#6E6E6E"/>
<path d="M74.7504 69.9728C74.7504 71.6445 73.3981 73.0003 71.7306 73.0003C70.0631 73.0003 68.7107 71.6445 68.7107 69.9728C68.7107 68.3012 70.0631 66.9454 71.7306 66.9454C73.3981 66.9322 74.7504 68.288 74.7504 69.9728ZM74.7504 69.9728C74.7504 69.9597 74.7504 69.9728 74.7504 69.9728Z" stroke="#2E6B44" stroke-width="0.45" stroke-linecap="round" stroke-linejoin="round"/>
</svg>
