<svg width="74" height="74" viewBox="0 0 74 74" fill="none" xmlns="http://www.w3.org/2000/svg">
<path d="M35.4583 47.7917L1.54163 32.375V57.0417L35.4583 72.4583V47.7917Z" stroke="#6E6E6E" stroke-width="1.5" stroke-miterlimit="10" stroke-linecap="round" stroke-linejoin="round"/>
<path d="M72.4584 32.375L35.4584 47.7917V72.4583L72.4584 57.0417V32.375Z" stroke="#6E6E6E" stroke-width="1.5" stroke-miterlimit="10" stroke-linecap="round" stroke-linejoin="round"/>
<path d="M37 38.541C42.1086 38.541 46.25 36.4703 46.25 33.916C46.25 31.3617 42.1086 29.291 37 29.291C31.8914 29.291 27.75 31.3617 27.75 33.916C27.75 36.4703 31.8914 38.541 37 38.541Z" stroke="#6E6E6E" stroke-width="1.5" stroke-miterlimit="10" stroke-linecap="round" stroke-linejoin="round"/>
<path d="M37 21.583C42.1086 21.583 46.25 19.5123 46.25 16.958C46.25 14.4037 42.1086 12.333 37 12.333C31.8914 12.333 27.75 14.4037 27.75 16.958C27.75 19.5123 31.8914 21.583 37 21.583Z" stroke="#6E6E6E" stroke-width="1.5" stroke-miterlimit="10" stroke-linecap="round" stroke-linejoin="round"/>
<path d="M58.5834 30.833C63.692 30.833 67.8334 28.7623 67.8334 26.208C67.8334 23.6537 63.692 21.583 58.5834 21.583C53.4747 21.583 49.3334 23.6537 49.3334 26.208C49.3334 28.7623 53.4747 30.833 58.5834 30.833Z" stroke="#6E6E6E" stroke-width="1.5" stroke-miterlimit="10" stroke-linecap="round" stroke-linejoin="round"/>
<path d="M16.9584 30.833C22.067 30.833 26.2084 28.7623 26.2084 26.208C26.2084 23.6537 22.067 21.583 16.9584 21.583C11.8497 21.583 7.70837 23.6537 7.70837 26.208C7.70837 28.7623 11.8497 30.833 16.9584 30.833Z" stroke="#6E6E6E" stroke-width="1.5" stroke-miterlimit="10" stroke-linecap="round" stroke-linejoin="round"/>
<path d="M9.47813 28.9248L1.54163 32.3751" stroke="#6E6E6E" stroke-width="1.5" stroke-miterlimit="10" stroke-linecap="round" stroke-linejoin="round"/>
<path d="M30.0225 19.9922L23.3779 22.8813" stroke="#6E6E6E" stroke-width="1.5" stroke-miterlimit="10" stroke-linecap="round" stroke-linejoin="round"/>
<path d="M51.4732 23.2514L43.9714 19.9893" stroke="#6E6E6E" stroke-width="1.5" stroke-miterlimit="10" stroke-linecap="round" stroke-linejoin="round"/>
<path d="M72.4581 32.3743L65.3665 29.291" stroke="#6E6E6E" stroke-width="1.5" stroke-miterlimit="10" stroke-linecap="round" stroke-linejoin="round"/>
</svg>
