<svg width="74" height="74" viewBox="0 0 74 74" fill="none" xmlns="http://www.w3.org/2000/svg">
<path d="M37 72.4587C56.5831 72.4587 72.4583 56.5834 72.4583 37.0003C72.4583 17.4172 56.5831 1.54199 37 1.54199C17.4169 1.54199 1.54163 17.4172 1.54163 37.0003C1.54163 56.5834 17.4169 72.4587 37 72.4587Z" stroke="#6E6E6E" stroke-width="1.5" stroke-miterlimit="10" stroke-linecap="round" stroke-linejoin="round"/>
<path d="M55.321 17.8867L17.9757 55.2382" stroke="#6E6E6E" stroke-width="1.5" stroke-miterlimit="10" stroke-linecap="round" stroke-linejoin="round"/>
<path d="M22.8842 50.2467C19.2459 46.6114 23.0353 35.5207 32.0695 26.4896C36.713 21.843 41.7943 18.4852 44.8777 16.959V28.3612" stroke="#6E6E6E" stroke-width="1.5" stroke-miterlimit="10" stroke-linecap="round" stroke-linejoin="round"/>
<path d="M34.6935 38.542H49.5027" stroke="#6E6E6E" stroke-width="1.5" stroke-miterlimit="10" stroke-linecap="round" stroke-linejoin="round"/>
<path d="M28.527 44.709H44.8779C36.2415 52.5592 26.0172 53.4287 22.8845 50.296" stroke="#6E6E6E" stroke-width="1.5" stroke-miterlimit="10" stroke-linecap="round" stroke-linejoin="round"/>
<path d="M55.3549 17.8252C58.1669 20.6434 57.5194 26.2088 53.9859 32.3754H40.8293" stroke="#6E6E6E" stroke-width="1.5" stroke-miterlimit="10" stroke-linecap="round" stroke-linejoin="round"/>
</svg>
