<svg width="79" height="110" viewBox="0 0 79 110" fill="none" xmlns="http://www.w3.org/2000/svg">
<path d="M78.0684 35V48.8601L57.2999 84.7C57.4999 83.8 57.6 82.8 57.6 81.8C57.6 78.7 56.5999 75.8 54.8999 73.4L63.3999 58.6C64.6999 57 65.7 55.1 66.6 53.1L72.6 42.7H69.2999C69.2999 42.3688 69.3685 42.1061 69.4489 41.7985C69.4656 41.7346 69.4828 41.6688 69.5 41.6C72.1 40 74.0999 37.7 75.3999 35H78.0684Z" fill="#F4F4F4"/>
<path fill-rule="evenodd" clip-rule="evenodd" d="M43.1 92.5C37.2 92.5 32.3999 87.7 32.3999 81.8C32.3999 77.3 35.2 73.5 39 71.9V20.6C35 19.1 32.2 15.2 32.2 10.7C32.2 4.8 36.9999 0 42.8999 0C48.7999 0 53.6 4.8 53.6 10.7C53.6 15.2 50.7999 19 46.7999 20.6V55.1C48.3999 55 50.4999 54.7 52.2999 53.3C55.4999 50.9 57.5 45.9 58 38.8C54.1 37.2 51.3999 33.3 51.3999 28.9C51.3999 23 56.2 18.2 62.1 18.2C68 18.2 72.7999 23 72.7999 28.9C72.7999 33.5 69.8999 37.4 65.8999 38.9C65.1999 48.8 62.3 55.7 57 59.6C53.5 62.1 49.9 62.8 47 62.8V71.9C51 73.4 53.7999 77.3 53.7999 81.8C53.7999 87.7 49 92.5 43.1 92.5ZM65 29.1C65 27.5 63.7 26.2 62.1 26.2C60.5 26.2 59.2 27.5 59.2 29.1C59.2 30.7 60.5 32 62.1 32C63.7 32 65 30.7 65 29.1ZM45.8999 10.7C45.8999 9.1 44.6 7.8 43 7.8C41.4 7.8 40.1 9.1 40.1 10.7C40.1 12.3 41.4 13.6 43 13.6C44.6 13.6 45.8999 12.3 45.8999 10.7ZM45.8999 81.8C45.8999 80.2 44.6 78.9 43 78.9C41.4 78.9 40.1 80.2 40.1 81.8C40.1 83.4 41.4 84.7 43 84.7C44.6 84.7 45.8999 83.4 45.8999 81.8Z" fill="#F4F4F4"/>
<path d="M43 109.4L52.7 92.7C50.1 95 46.8 96.4 43 96.4C39.3 96.4 35.8999 95 33.2999 92.7L43 109.4Z" fill="#F4F4F4"/>
<path d="M0 34.9L28.7999 84.7C28.5999 83.8 28.5 82.8 28.6 81.8C28.6 78.7 29.5999 75.8 31.2999 73.4L13.5 42.6H35.2999V34.9H0Z" fill="#F4F4F4"/>
<path d="M53.7499 41.9C53.7999 41.625 53.8499 41.35 53.8999 41.1C52.7001 40.3001 51.7002 39.3003 50.7004 38.3004L50.7 42.7H53.6C53.65 42.45 53.7 42.175 53.7499 41.9Z" fill="#F4F4F4"/>
</svg>
