<svg width="79" height="92" viewBox="0 0 79 92" fill="none" xmlns="http://www.w3.org/2000/svg">
<path fill-rule="evenodd" clip-rule="evenodd" d="M79 2.09088C74.8586 0.860533 70.4717 0.199951 65.9301 0.199951C40.6301 0.199951 20.1301 20.7 20.1301 46C20.1301 71.3 40.6301 91.7999 65.9301 91.7999C70.4717 91.7999 74.8586 91.1394 79 89.909V73.2452C78.6351 74.0552 78.2469 74.8419 77.83 75.6C75.23 80.5 72.1301 83.7999 68.9301 85.1V70.2999C72.3492 70.2145 75.7683 69.9098 79 69.3859V63.2616C75.7773 63.7949 72.4336 64.154 68.9301 64.2999V49H79V43H68.9301V27.7C72.4336 27.8459 75.7773 28.1517 79 28.6951V22.6027C75.7487 22.0836 72.4255 21.7697 69.0301 21.6V6.79995C72.1301 8.09995 75.3301 11.5 77.9301 16.3999C78.2898 17.1194 78.6496 17.8648 79 18.6314V2.09088ZM51.23 22.8999C52.03 20.5999 52.9301 18.3999 54.0301 16.3999C56.6301 11.5 59.7301 8.09995 62.9301 6.79995V21.7C58.9301 21.7999 54.93 22.2 51.23 22.8999ZM47.6301 43C47.8301 38.2 48.33 33.7 49.33 29.3999C53.63 28.3999 58.1301 27.7999 62.9301 27.7V43H47.6301ZM36.33 34C38.33 32.9 40.53 32 42.83 31.2C42.23 35 41.7301 38.9 41.5301 42.9H26.73C28.03 39.8 31.43 36.6 36.33 34ZM36.33 57.9C31.43 55.3 28.03 52.2 26.73 49H41.6301C41.7301 53 42.13 57 42.83 60.7C40.53 59.8999 38.33 59 36.33 57.9ZM62.9301 64.2999C58.1301 64.1 53.63 63.6 49.33 62.6C48.33 58.2999 47.8301 53.7 47.6301 49H62.9301V64.2999ZM54.0301 75.6C52.9301 73.6 52.03 71.4 51.23 69.1C54.93 69.7 58.8301 70.2 62.9301 70.2999V85.2C59.8301 83.8999 56.6301 80.5 54.0301 75.6ZM44.33 24.3999C38.13 26.2 32.83 28.7 28.73 31.7C32.83 21.2 41.2301 12.9 51.6301 8.79995C48.6301 12.8 46.13 18.2 44.33 24.3999ZM44.4301 67.5C46.2301 73.7 48.73 79 51.73 83.1C41.23 79.1 32.83 70.7 28.83 60.2C32.83 63.2 38.2301 65.7 44.4301 67.5Z" fill="#F4F4F4"/>
<path d="M2.4301 3.49995C-1.1699 3.49995 2.3301 17.5 5.9301 17.5H25.33C29.33 11.9 34.5301 7.09995 40.4301 3.49995H2.4301Z" fill="#F4F4F4"/>
<path d="M24.23 19.2999C21.53 23.5 19.3301 28.2999 18.0301 33.2999H9.4301C5.8301 33.2999 2.3301 19.2999 5.9301 19.2999H24.23Z" fill="#F4F4F4"/>
<path d="M17.6301 35C16.8301 38.5 16.4301 42.2 16.4301 46C16.4301 46.9997 16.4301 48.0002 16.5301 49H12.9301C9.3301 49 5.8301 35 9.4301 35H17.6301Z" fill="#F4F4F4"/>
</svg>
