<?xml version="1.0" encoding="utf-8"?>
<!-- Generator: Adobe Illustrator 23.0.2, SVG Export Plug-In . SVG Version: 6.00 Build 0)  -->
<svg version="1.1" id="Layer_1" xmlns="http://www.w3.org/2000/svg" xmlns:xlink="http://www.w3.org/1999/xlink" x="0px" y="0px"
	 viewBox="0 0 600 600" style="enable-background:new 0 0 600 600;" xml:space="preserve">
<style type="text/css">
	.st0{fill:#437CBF;}
	.st1{opacity:0.5;}
	.st2{fill:#878787;}
	.st3{fill:#919090;}
	.st4{fill:#B2B2B2;}
	.st5{fill:#A9A8A8;}
	.st6{fill:#797979;}
	.st7{fill:#676868;}
	.st8{fill:#575757;}
	.st9{fill:#494949;}
</style>
<rect x="-0.4" y="-0.9" class="st0" width="600" height="600"/>
<g class="st1">
	<g id="Page-1_5_">
		<g id="working-state_5_" transform="translate(-109.000000, -9.000000)">
			<g id="buoyant_black_7_" transform="translate(109.000000, 9.000000)">
				<g id="angles_7_" transform="translate(0.000000, 0.734694)">
					<path id="Fill-16_8_" class="st2" d="M343.4,392.4c0,36.2-0.1,72.4,0.1,108.6c0,4.9-1.4,7.8-5.8,10.1
						c-7.3,3.7-14.2,8.1-21.3,12.2c-6.5,3.7-7.8,3-7.8-4.3c0-68.3,0-136.6,0.1-204.9c0-4,0.1-7.9-1.2-11.8c-1.8-5.6-5.8-9.1-10.8-12
						c-43.3-24.9-86.6-49.9-129.9-74.9c-17-9.8-34-19.6-51-29.4c-5.1-2.9-5.1-4.6-0.1-7.5c8.2-4.7,16.4-9.4,24.6-14.2
						c2.4-1.4,4.4-1.5,7,0c63.4,36.6,126.9,73.2,190.4,109.6c4.4,2.5,6,5.3,6,10.3C343.3,320.3,343.4,356.3,343.4,392.4"/>
					<path id="Fill-18_8_" class="st3" d="M395.4,362.2c0,36.1-0.1,72.1,0.1,108.2c0,5.6-1.7,8.8-6.6,11.3
						c-7.7,3.9-15,8.5-22.5,12.7c-3.8,2.1-5.5,1.2-5.7-3.2c-0.1-1.4,0-2.8,0-4.2c0-68-0.1-136,0.1-204c0-11-4.1-18.3-13.6-23.7
						c-59.3-34-118.4-68.2-177.6-102.4c-2-1.2-5.4-1.5-5.3-4.7c0.1-3.1,3.4-3.5,5.4-4.7c7.6-4.6,15.4-8.9,23.1-13.4
						c2.2-1.3,4-1.2,6.2,0c62.5,36.1,124.9,72.3,187.6,108c7,4,9,8.2,8.9,15.9c-0.4,34.8-0.2,69.6-0.2,104.3L395.4,362.2
						L395.4,362.2z"/>
					<path id="Fill-20_8_" class="st4" d="M499.7,302.2c0,36.3-0.1,72.7,0.1,109c0,4.4-1.2,7.3-5.3,9.5c-7.5,3.9-14.7,8.5-22,12.7
						c-1.8,1-3.6,2.8-5.8,1.6c-2.4-1.4-1.7-4-1.7-6.2c0-68.8-0.1-137.7,0.1-206.5c0-10.6-4.3-17.7-13.5-23
						c-56-32.1-111.8-64.4-167.7-96.6c-4.3-2.5-8.6-4.9-12.8-7.5c-3.6-2.2-3.6-4-0.1-6.1c8.6-5.1,17.4-10,26-15.1
						c2.2-1.3,4-1.1,6.3,0.2c64.1,37,128.2,73.9,192.3,110.8c3.1,1.8,4.3,3.9,4.3,7.5C499.7,228.9,499.7,265.6,499.7,302.2"/>
					<path id="Fill-22_8_" class="st5" d="M447.6,332.2c0,36.3-0.1,72.7,0.1,109c0,4.7-1.5,7.5-5.7,9.7c-7.9,4.1-15.5,8.8-23.2,13.2
						c-4.4,2.5-5.7,1.7-5.7-3.5c0-68.7-0.1-137.5,0.1-206.2c0-11.8-4.6-20-14.9-25.9c-59.5-34-118.8-68.3-178.2-102.4
						c-5-2.9-5.1-5.1-0.1-8c8.3-4.8,16.7-9.5,25-14.4c2.3-1.3,4-1.2,6.3,0.1c59.1,34.1,118.2,68.2,177.2,102.3
						c4.8,2.7,9.4,5.7,14.4,8.2c3.7,1.8,4.9,4.3,4.9,8.4C447.6,259.3,447.6,295.7,447.6,332.2"/>
					<path id="Fill-24_8_" class="st6" d="M291.1,415.8v101.4c0,1.1,0,2.3,0,3.4c-0.2,5.3-1.5,6-6.1,3.4
						c-8.1-4.6-16.1-9.4-24.3-13.8c-3.1-1.6-4.1-3.6-4.1-7c0.1-53.1,0-106.1,0.3-159.2c0.1-11.4-4.2-19.2-14.2-24.8
						c-46.7-26.7-93.2-53.6-139.9-80.4c-1.9-1.1-2.4-2.2-2.4-4.3c0.1-10,0-20.1,0.1-30.1c0-5.2,1.6-6.1,6.1-3.5
						c34.5,19.9,69,39.8,103.4,59.7c25.8,14.9,51.5,29.9,77.4,44.6c3.2,1.8,3.8,4,3.7,7.2C291.1,346.8,291.1,381.3,291.1,415.8"/>
					<path id="Fill-26_7_" class="st7" d="M239.1,416.7c0,24.3,0,48.6,0,72.9c0,6.6-1.2,7.3-6.8,4.1c-8-4.6-15.8-9.4-23.9-13.7
						c-3.2-1.7-4.3-3.8-4.2-7.4c0.1-33.1-0.1-66.2,0.3-99.2c0.1-11.2-3.9-18.5-13.7-24c-29-16.3-57.7-33.2-86.7-49.7
						c-2.9-1.7-3.9-3.5-3.8-6.7c0.1-9.2-0.1-18.4-0.1-27.6c0-1.9-0.6-4.2,1.5-5.4c2-1.1,3.7,0.3,5.5,1.3
						c42.2,24.3,84.3,48.7,126.6,72.9c4.2,2.4,5.4,5.5,5.4,10C239.1,368.4,239.1,392.5,239.1,416.7L239.1,416.7L239.1,416.7z"/>
					<g id="Group-30_7_" transform="translate(0.000000, 18.199719)">
						<path id="Fill-28_7_" class="st8" d="M187.1,397.9c0,14.7,0,29.4,0,44.1c0,5.4-1.7,6.4-6.4,3.7c-8.3-4.8-16.6-9.6-25-14.3
							c-2.5-1.4-3.5-3.2-3.5-6.1c0.2-13.7,0-27.4,0.3-41.1c0.2-10.4-4.2-17.7-13.2-22.7c-11.4-6.2-22.5-12.9-33.9-19.2
							c-3.8-2.1-5.5-4.7-5.2-9.3c0.5-8.6,0.1-17.2,0.2-25.8c0-1.8-0.5-3.8,1.4-5c2-1.3,3.7-0.1,5.5,1c25.5,14.8,51,29.5,76.6,44.2
							c2.6,1.5,3.5,3.3,3.4,6.2C187.1,368.3,187.1,383.1,187.1,397.9"/>
					</g>
					<path id="Fill-31_7_" class="st9" d="M100.5,399.1c0-5.1,0-10.2,0-15.2c0-3.8,1.8-5.1,4.9-3.4c9.2,5.1,18.3,10.5,27.5,15.8
						c1.8,1,2.2,2.8,2.2,4.7c-0.1,9.9,0,19.8-0.1,29.6c-0.1,4.9-1.7,5.9-5.9,3.5c-8.6-4.8-17-9.9-25.6-14.7c-2.3-1.3-3-2.9-2.9-5.5
						C100.6,409,100.5,404.1,100.5,399.1"/>
				</g>
			</g>
		</g>
	</g>
</g>
</svg>
