<svg id="Layer_1" data-name="Layer 1" xmlns="http://www.w3.org/2000/svg" xmlns:xlink="http://www.w3.org/1999/xlink" viewBox="0 0 340.16 340.16"><defs><style>.cls-1{fill:url(#linear-gradient);}.cls-2{fill:none;}</style><linearGradient id="linear-gradient" x1="90.52" y1="-715.6" x2="239.35" y2="-438.37" gradientTransform="matrix(1, 0, 0, -1, 0, -414.16)" gradientUnits="userSpaceOnUse"><stop offset="0" stop-color="#0185fd"/><stop offset="0.23" stop-color="#0388fb"/><stop offset="0.39" stop-color="#0b91f7"/><stop offset="0.54" stop-color="#18a0ee"/><stop offset="0.66" stop-color="#2bb6e3"/><stop offset="0.79" stop-color="#43d3d3"/><stop offset="0.9" stop-color="#61f5c1"/><stop offset="0.91" stop-color="#64f9bf"/></linearGradient></defs><path class="cls-1" d="M215.05,106.66C212,87.34,203.72,74.17,188.19,64a4.76,4.76,0,0,0-2.57-.73,4.68,4.68,0,0,0-4.73,5.78,4.83,4.83,0,0,0,2,3.07c13.08,8.49,19.88,19.35,22.83,36.28a4.62,4.62,0,0,0,4.46,4l0,0,.85-.11A4.88,4.88,0,0,0,215.05,106.66ZM236.74,59.6C222.52,44.22,203.28,34,183.93,31.43a99,99,0,0,0-15-1.08c-2.77,0-5.57.09-8.34.32a5.86,5.86,0,0,0-4.09,2.17l0,0-.06.06a5.33,5.33,0,0,0-1.14,4,5.85,5.85,0,0,0,2.16,4.12l.06.06.06,0A5.21,5.21,0,0,0,161,42.35c.21,0,.38,0,.59,0,2.63-.23,5.25-.35,7.79-.35a82.1,82.1,0,0,1,12.67,1c16.87,2.24,33.6,11.15,45.86,24.43a75.41,75.41,0,0,1,20.55,51.23c0,16.43-4.38,31.09-13,43.58a78.45,78.45,0,0,1-32.87,26.74,5.85,5.85,0,0,0-3,7.74l0,.09,0,.05a4.7,4.7,0,0,0,3.33,3.07l3.3.82-1.63,3L182.79,243.6l-.73,1.34h-6V209.15a6.18,6.18,0,0,0-6.1-5.9,6,6,0,0,0-5.93,5.9v36.4h-6.68l-.76-1.25-23-37.75-3.88-6.33,7,2.51a59.08,59.08,0,0,0,9.49,2.66l.2,0,.18.05a3.48,3.48,0,0,0,1,.06,5.72,5.72,0,0,0,5.75-4.7,6.07,6.07,0,0,0-4.7-7,52.75,52.75,0,0,1-14-4.65,81.05,81.05,0,0,1-21.25-16l-.38-.35-.06-.06-.06-.06a89.68,89.68,0,0,1-9.19-11.88,73.55,73.55,0,0,1-12.12-40.69,88.81,88.81,0,0,1,7-34.39,70.67,70.67,0,0,1,21.45-28.08,5.7,5.7,0,0,1,3.42-1.23,6.45,6.45,0,0,1,3.33,1.05l.08.06.09.06a5,5,0,0,1,1.87,6.56,104.39,104.39,0,0,0-8.12,42,95.91,95.91,0,0,0,11,44.08,5.83,5.83,0,0,0,5.11,3,6,6,0,0,0,2.86-.73,5.36,5.36,0,0,0,2.86-3.33l0-.09,0-.11a5.24,5.24,0,0,0-.47-4.27,84.75,84.75,0,0,1-9.6-38.68,91.66,91.66,0,0,1,7.15-37.39,17.14,17.14,0,0,0-26.33-20.38,80.52,80.52,0,0,0-25,32.55,98.1,98.1,0,0,0-7.91,38.89,87.17,87.17,0,0,0,14.07,47A105.32,105.32,0,0,0,104.62,180l.14.17.12.21,37,60.37,2.45,4h-17a4.92,4.92,0,0,0,0,9.83h81.09V283A17.37,17.37,0,0,1,191,300.37H149.51A17.35,17.35,0,0,1,132.2,283v-3.36a4.94,4.94,0,0,0-4.93-4.93,5,5,0,0,0-4.9,4.93v3.15a27,27,0,0,0,26.94,27H191a27,27,0,0,0,27-27v-31a7.17,7.17,0,0,0-5.43-6.92H195.14l2.13-3.88,29-52.81.23-.47.41-.32a96,96,0,0,0,18-18.94c10-14.54,15-31.47,15-50.3A86.69,86.69,0,0,0,236.74,59.6Z"/><rect class="cls-2" width="340.16" height="340.16"/></svg>