<?xml version="1.0" encoding="utf-8"?>
<!-- Generator: Adobe Illustrator 22.0.1, SVG Export Plug-In . SVG Version: 6.00 Build 0)  -->
<svg version="1.1" xmlns="http://www.w3.org/2000/svg" xmlns:xlink="http://www.w3.org/1999/xlink" x="0px" y="0px"
	 viewBox="0 0 512 512" style="enable-background:new 0 0 512 512;" xml:space="preserve">
<style type="text/css">
	.st0{fill:#FF576B;}
	.st1{fill:#6D6E71;}
	.st2{fill:#FFFFFF;}
	.st3{fill:url(#SVGID_1_);}
	.st4{fill:url(#SVGID_2_);}
	.st5{fill:#2BEDA7;}
	.st6{fill:url(#SVGID_3_);}
	.st7{fill:url(#SVGID_4_);}
	.st8{fill:url(#SVGID_5_);}
	.st9{fill:url(#SVGID_6_);}
	.st10{fill:url(#SVGID_7_);}
	.st11{fill:url(#SVGID_8_);}
	.st12{fill:url(#SVGID_9_);}
	.st13{fill:url(#SVGID_10_);}
	.st14{fill:url(#SVGID_11_);}
	.st15{fill:url(#SVGID_12_);}
	.st16{fill:url(#SVGID_13_);}
	.st17{fill:url(#SVGID_14_);}
	.st18{fill:url(#SVGID_15_);}
	.st19{fill:url(#SVGID_16_);}
	.st20{fill:url(#SVGID_17_);}
	.st21{fill:url(#SVGID_18_);}
	.st22{fill:url(#SVGID_19_);}
	.st23{fill:url(#SVGID_20_);}
	.st24{fill:url(#SVGID_21_);}
	.st25{fill:url(#SVGID_22_);}
	.st26{fill:url(#SVGID_23_);}
	.st27{fill:url(#SVGID_24_);}
	.st28{filter:url(#Adobe_OpacityMaskFilter);}
	.st29{mask:url(#mask-2_6_);}
	.st30{fill:#018AFD;}
	.st31{fill:#00A2FD;}
	.st32{fill:#06C0FD;}
	.st33{fill:#03B5FD;}
	.st34{fill:#0074FD;}
	.st35{fill:#005CFD;}
	.st36{filter:url(#Adobe_OpacityMaskFilter_1_);}
	.st37{mask:url(#mask-4_6_);fill:#003CFD;}
	.st38{fill:#0E13FD;}
	.st39{filter:url(#Adobe_OpacityMaskFilter_2_);}
	.st40{mask:url(#mask-2_5_);fill:#FFFFFF;}
	.st41{filter:url(#Adobe_OpacityMaskFilter_3_);}
	.st42{mask:url(#mask-4_5_);fill:#003CFD;}
	.st43{filter:url(#Adobe_OpacityMaskFilter_4_);}
	.st44{mask:url(#mask-2_1_);fill:#FFFFFF;}
	.st45{filter:url(#Adobe_OpacityMaskFilter_5_);}
	.st46{mask:url(#mask-4_4_);fill:#FFFFFF;}
	.st47{fill:#018BFE;}
	.st48{fill:#02C2FE;}
	.st49{fill:#04B6FE;}
	.st50{fill:#0095FE;}
	.st51{fill:#0074FE;}
	.st52{fill:#005CFE;}
	.st53{fill:#003DFE;}
	.st54{fill:#0E13FE;}
	.st55{filter:url(#Adobe_OpacityMaskFilter_6_);}
	.st56{mask:url(#mask-2_7_);}
	.st57{filter:url(#Adobe_OpacityMaskFilter_7_);}
	.st58{mask:url(#mask-2_2_);fill:#FFFFFF;}
	.st59{filter:url(#Adobe_OpacityMaskFilter_8_);}
	.st60{mask:url(#mask-4_3_);fill:#003CFD;}
	.st61{filter:url(#Adobe_OpacityMaskFilter_9_);}
	.st62{mask:url(#mask-4_7_);fill:#003CFD;}
	.st63{filter:url(#Adobe_OpacityMaskFilter_10_);}
	.st64{mask:url(#mask-4_1_);fill:#003CFD;}
	.st65{fill:url(#SVGID_25_);}
	.st66{fill:url(#SVGID_26_);}
	.st67{fill:url(#SVGID_27_);}
	.st68{fill:url(#SVGID_28_);}
	.st69{fill:url(#SVGID_29_);}
	.st70{fill:url(#SVGID_30_);}
	.st71{fill:url(#SVGID_31_);}
	.st72{fill:url(#SVGID_32_);}
	.st73{fill:url(#SVGID_33_);}
	.st74{fill:url(#SVGID_34_);}
	.st75{fill:url(#SVGID_35_);}
	.st76{fill:url(#SVGID_36_);}
	.st77{fill:url(#SVGID_37_);}
	.st78{fill:url(#SVGID_38_);}
	.st79{fill:url(#SVGID_39_);}
	.st80{fill:url(#SVGID_40_);}
	.st81{fill:url(#SVGID_41_);}
	.st82{fill:url(#SVGID_42_);}
	.st83{fill:url(#SVGID_43_);}
	.st84{fill:url(#SVGID_44_);}
	.st85{fill:url(#SVGID_45_);}
	.st86{fill:url(#SVGID_46_);}
	.st87{fill:url(#SVGID_47_);}
	.st88{fill:url(#SVGID_48_);}
	.st89{fill:url(#SVGID_49_);}
	.st90{fill:url(#SVGID_50_);}
	.st91{fill:url(#SVGID_51_);}
	.st92{fill:url(#SVGID_52_);}
	.st93{fill:url(#SVGID_53_);}
	.st94{fill:url(#SVGID_54_);}
	.st95{fill:url(#SVGID_55_);}
	.st96{fill:url(#SVGID_56_);}
	.st97{fill:url(#SVGID_57_);}
	.st98{fill:url(#SVGID_58_);}
	.st99{fill:url(#SVGID_59_);}
	.st100{fill:url(#SVGID_60_);}
	.st101{fill:url(#SVGID_61_);}
	.st102{fill:url(#SVGID_62_);}
	.st103{fill:url(#SVGID_63_);}
	.st104{fill:url(#SVGID_64_);}
	.st105{fill:#BDBDBD;}
	.st106{fill:url(#SVGID_65_);}
	.st107{fill:url(#SVGID_66_);}
	.st108{fill:url(#SVGID_67_);}
	.st109{fill:url(#SVGID_68_);}
	.st110{fill:url(#SVGID_69_);}
	.st111{fill:url(#SVGID_70_);}
	.st112{fill:url(#SVGID_71_);}
	.st113{fill:url(#SVGID_72_);}
	.st114{fill:url(#SVGID_73_);}
	.st115{fill:url(#SVGID_74_);}
	.st116{fill:url(#SVGID_75_);}
	.st117{fill:url(#SVGID_76_);}
	.st118{fill:url(#SVGID_77_);}
	.st119{fill:url(#SVGID_78_);}
	.st120{fill:url(#SVGID_79_);}
	.st121{fill:url(#SVGID_80_);}
	.st122{display:none;}
	.st123{display:inline;}
</style>
<g id="Layer_1">
	<g id="Page-1_2_">
		<g id="working-state_2_" transform="translate(-109.000000, -9.000000)">
			<g id="buoyant_black_5_" transform="translate(109.000000, 9.000000)">
				<g id="angles_5_" transform="translate(0.000000, 0.734694)">
					<path id="Fill-16_7_" class="st30" d="M289.8,328.4c0,28.8-0.1,57.7,0.1,86.5c0,3.9-1.1,6.2-4.6,8c-5.8,3-11.3,6.5-17,9.7
						c-5.2,3-6.2,2.4-6.2-3.5c0-54.4,0-108.8,0-163.2c0-3.2,0-6.3-1-9.4c-1.5-4.4-4.7-7.3-8.6-9.5c-34.5-19.9-69-39.8-103.5-59.6
						c-13.5-7.8-27.1-15.6-40.6-23.4c-4-2.3-4-3.7-0.1-6c6.5-3.8,13.1-7.5,19.6-11.3c1.9-1.1,3.5-1.2,5.6,0
						c50.5,29.2,101,58.3,151.6,87.3c3.5,2,4.8,4.2,4.7,8.2C289.7,271,289.8,299.7,289.8,328.4"/>
					<path id="Fill-18_7_" class="st50" d="M331.2,304.4c0,28.7-0.1,57.4,0.1,86.1c0,4.4-1.4,7-5.3,9c-6.1,3.1-11.9,6.8-17.9,10.2
						c-3,1.7-4.4,1-4.5-2.5c-0.1-1.1,0-2.2,0-3.4c0-54.2-0.1-108.3,0.1-162.5c0-8.7-3.3-14.6-10.8-18.9
						c-47.2-27.1-94.3-54.3-141.4-81.6c-1.6-0.9-4.3-1.2-4.2-3.8c0-2.5,2.7-2.8,4.3-3.8c6.1-3.6,12.3-7.1,18.4-10.7
						c1.8-1.1,3.2-1,5,0c49.7,28.7,99.5,57.5,149.4,86c5.5,3.2,7.2,6.5,7.1,12.6c-0.4,27.7-0.2,55.4-0.2,83.1H331.2z"/>
					<path id="Fill-20_7_" class="st32" d="M414.3,256.6c0,28.9,0,57.9,0,86.8c0,3.5-0.9,5.8-4.3,7.6c-6,3.1-11.7,6.7-17.6,10.1
						c-1.4,0.8-2.9,2.3-4.6,1.3c-1.9-1.1-1.3-3.2-1.3-4.9c0-54.8-0.1-109.7,0-164.5c0-8.5-3.4-14.1-10.7-18.3
						c-44.6-25.5-89.1-51.3-133.6-76.9c-3.4-2-6.8-3.9-10.2-5.9c-2.9-1.8-2.9-3.2-0.1-4.9c6.9-4,13.8-8,20.7-12.1
						c1.8-1,3.2-0.9,5,0.1c51,29.4,102.1,58.9,153.2,88.2c2.5,1.4,3.4,3.1,3.4,5.9C414.2,198.3,414.3,227.4,414.3,256.6"/>
					<path id="Fill-22_7_" class="st33" d="M372.8,280.5c0,28.9-0.1,57.9,0.1,86.8c0,3.8-1.2,6-4.5,7.7c-6.3,3.3-12.3,7-18.5,10.5
						c-3.5,2-4.5,1.3-4.5-2.8c0-54.7-0.1-109.5,0.1-164.2c0-9.4-3.6-15.9-11.9-20.6c-47.4-27.1-94.6-54.4-141.9-81.6
						c-4-2.3-4.1-4.1-0.1-6.3c6.6-3.8,13.3-7.6,19.9-11.4c1.8-1.1,3.2-0.9,5,0.1c47,27.2,94.1,54.3,141.2,81.5
						c3.8,2.2,7.5,4.5,11.4,6.5c2.9,1.5,3.9,3.4,3.9,6.7C372.7,222.4,372.8,251.5,372.8,280.5"/>
					<path id="Fill-24_7_" class="st34" d="M248.1,347.1v80.7c0,0.9,0,1.8,0,2.7c-0.1,4.2-1.2,4.8-4.9,2.7
						c-6.4-3.7-12.8-7.5-19.3-11c-2.4-1.3-3.3-2.9-3.3-5.6c0.1-42.3,0-84.5,0.2-126.8c0-9.1-3.4-15.3-11.3-19.8
						c-37.2-21.2-74.2-42.7-111.4-64c-1.5-0.9-1.9-1.8-1.9-3.4c0.1-8,0-16,0-24c0-4.1,1.3-4.8,4.9-2.8
						c27.5,15.8,54.9,31.7,82.4,47.5c20.5,11.9,41,23.8,61.6,35.5c2.5,1.5,3,3.2,3,5.7C248.1,292.2,248.1,319.6,248.1,347.1"/>
					<path id="Fill-26_5_" class="st35" d="M206.7,347.8c0,19.4,0,38.7,0,58.1c0,5.2-1,5.8-5.4,3.3c-6.3-3.6-12.6-7.5-19-10.9
						c-2.6-1.4-3.4-3.1-3.4-5.9c0.1-26.3-0.1-52.7,0.2-79c0.1-8.9-3.1-14.8-10.9-19.1c-23.1-13-46-26.4-69-39.6
						c-2.3-1.3-3.1-2.8-3-5.3c0.1-7.3,0-14.6-0.1-21.9c0-1.5-0.5-3.3,1.2-4.3c1.6-0.9,3,0.2,4.3,1c33.6,19.4,67.2,38.8,100.8,58
						c3.3,1.9,4.3,4.4,4.3,8C206.8,309.3,206.8,328.5,206.7,347.8L206.7,347.8z"/>
					<g id="Group-30_5_" transform="translate(0.000000, 18.199719)">
						<defs>
							<filter id="Adobe_OpacityMaskFilter" filterUnits="userSpaceOnUse" x="96" y="252.4" width="69.3" height="115.9">
								<feColorMatrix  type="matrix" values="1 0 0 0 0  0 1 0 0 0  0 0 1 0 0  0 0 0 1 0"/>
							</filter>
						</defs>
						<mask maskUnits="userSpaceOnUse" x="96" y="252.4" width="69.3" height="115.9" id="mask-4_3_">
							<g class="st28">
								<polygon id="path-3_3_" class="st2" points="96,368.3 96,252.4 165.3,252.4 165.3,368.3 								"/>
							</g>
						</mask>
						<path id="Fill-28_5_" class="st60" d="M165.3,329.1c0,11.7,0,23.4,0,35.1c0,4.3-1.4,5.1-5.1,2.9c-6.6-3.8-13.2-7.6-19.9-11.4
							c-2-1.1-2.8-2.6-2.8-4.9c0.1-10.9,0-21.8,0.2-32.7c0.2-8.3-3.3-14.1-10.5-18.1c-9.1-5-17.9-10.3-27-15.3
							c-3.1-1.7-4.4-3.7-4.2-7.4c0.4-6.8,0.1-13.7,0.1-20.6c0-1.4-0.4-3.1,1.1-4c1.6-1,3,0,4.4,0.8c20.3,11.8,40.6,23.5,61,35.2
							c2,1.2,2.7,2.6,2.7,4.9C165.2,305.5,165.3,317.3,165.3,329.1"/>
					</g>
					<path id="Fill-31_5_" class="st38" d="M96.3,333.8c0-4,0-8.1,0-12.1c0-3,1.4-4.1,3.9-2.7c7.3,4.1,14.6,8.4,21.9,12.6
						c1.4,0.8,1.8,2.2,1.7,3.8c0,7.9,0,15.7-0.1,23.6c0,3.9-1.3,4.7-4.7,2.8c-6.8-3.9-13.6-7.9-20.4-11.7c-1.8-1-2.4-2.3-2.3-4.4
						C96.4,341.7,96.3,337.7,96.3,333.8"/>
				</g>
			</g>
		</g>
	</g>
</g>
<g id="nyt_x5F_exporter_x5F_info" class="st122">
</g>
</svg>
