<svg width="173" height="144" viewBox="0 0 173 144" fill="none" xmlns="http://www.w3.org/2000/svg">
<path opacity="0.4" d="M172.5 57.2688L143.75 42.8798L115 28.5377L115 57.2688L115 85.9529L143.75 71.6109L172.5 57.2688Z" fill="#4166AE"/>
<path opacity="0.4" d="M57.5 114.684L86.25 100.342L115 85.9529L115 114.684L115 143.415L86.25 129.026L57.5 114.684Z" fill="#6AC399"/>
<path opacity="0.4" d="M-5.93351e-05 85.684L28.7499 71.3419L57.5 56.9999L57.5 85.684L57.5 114.415L28.7499 100.073L-5.93351e-05 85.684Z" fill="#437DBF"/>
<path opacity="0.4" d="M3.1346e-05 28.731L28.75 14.3419L57.5 -8.48509e-05L57.5 28.731L57.5 57.415L28.75 43.073L3.1346e-05 28.731Z" fill="#2B9ED5"/>
</svg>
