<svg width="115" height="144" viewBox="0 0 115 144" fill="none" xmlns="http://www.w3.org/2000/svg">
<path opacity="0.4" d="M115 57.4154L86.25 43.0734L57.4999 28.6843L57.4999 57.4154L57.4999 86.1465L86.25 71.7574L115 57.4154Z" fill="#57B3DA"/>
<path opacity="0.4" d="M57.4999 28.6842L86.25 14.3422L115 0.000137405L115 28.6842L115 57.4153L86.25 43.0732L57.4999 28.6842Z" fill="#437DBF"/>
<path opacity="0.4" d="M-5.93351e-05 114.83L28.7499 100.488L57.5 86.1464L57.5 114.83L57.5 143.562L28.7499 129.219L-5.93351e-05 114.83Z" fill="#437DBF"/>
<path opacity="0.4" d="M57.5 28.6842L28.7499 14.3422L-5.68275e-05 0.000132378L-5.93351e-05 28.6842L-6.18469e-05 57.4153L28.7499 43.0732L57.5 28.6842Z" fill="#6AC399"/>
</svg>
