<svg width="78" height="106" viewBox="0 0 78 106" fill="none" xmlns="http://www.w3.org/2000/svg">
<path d="M78 0.149902H0.330065C-4.26994 72.1499 47.9302 105.85 47.9302 105.85C47.9302 105.85 64.4361 95.5796 78 72.4779V53.0728C74.8048 60.9936 70.7482 68.461 65.8301 75.4499C59.1301 85.0499 52.2301 91.5499 47.8301 95.1499C43.2301 91.3499 35.9301 84.4499 28.8301 74.4499C15.2301 55.2499 8.43014 33.1499 8.53014 8.7499H78V0.149902Z" fill="#F4F4F4"/>
<path d="M48.0301 25.8999C47.9051 26.0749 47.7801 26.2499 47.6301 26.4499C47.6301 26.3807 47.5822 26.3114 47.5859 26.3086C47.5875 26.3073 47.5993 26.3191 47.6301 26.3499C46.9301 25.3499 46.2301 24.5499 45.3301 23.7499C41.6301 20.3499 37.2301 19.0499 32.3301 20.0499C26.6301 21.2499 22.8301 24.6499 20.8301 30.1499C19.8301 32.8499 19.8301 35.7499 20.3301 38.5499C20.8301 41.7499 22.1301 44.6499 24.0301 47.2499C25.7301 49.6499 27.7302 51.7499 29.9302 53.7499C30.112 53.9144 30.2946 54.0797 30.4778 54.2456C32.4111 55.9955 34.4206 57.8144 36.4302 59.5499C40.6302 63.2499 44.5301 67.3499 47.6301 72.0499C47.6301 72.1498 47.6301 72.1499 47.7301 72.2499C47.7301 72.1999 47.7551 72.1749 47.7801 72.1499C47.8051 72.1249 47.8301 72.0999 47.8301 72.0499C48.2021 71.529 48.5603 71.0082 48.915 70.4925C49.5136 69.622 50.1021 68.7663 50.7301 67.9499C52.9301 65.0499 55.5301 62.4499 58.2301 59.9499C59.3301 58.9499 60.43 57.9749 61.53 56.9999C62.63 56.0249 63.73 55.0499 64.8301 54.0499C66.9301 52.1499 68.9301 50.1499 70.7301 47.9499C73.6301 44.3499 75.3301 40.3499 75.5301 35.6499C75.5301 33.7499 75.4301 31.9499 74.8301 30.2499C72.4301 22.9499 65.2301 18.5499 57.6301 19.8499C53.8301 20.5499 50.8302 22.3499 48.4302 25.3499C48.2802 25.5499 48.1551 25.7249 48.0301 25.8999Z" fill="#F4F4F4"/>
</svg>
