<svg width="104" height="130" viewBox="0 0 104 130" fill="none" xmlns="http://www.w3.org/2000/svg">
<g clip-path="url(#clip0)">
<mask id="mask0" mask-type="alpha" maskUnits="userSpaceOnUse" x="0" y="25" width="104" height="105">
<path d="M51.2647 129.435L0.304688 78.4753C-0.101562 78.0691 -0.101562 77.4109 0.304688 77.0047L51.2647 26.0447C51.6709 25.6384 52.3291 25.6384 52.7353 26.0447L103.695 77.0047C104.102 77.4109 104.102 78.0691 103.695 78.4753L52.7353 129.435C52.3291 129.842 51.6709 129.842 51.2647 129.435Z" fill="white"/>
</mask>
<g mask="url(#mask0)">
<path d="M51.2647 129.435L0.304688 78.4753C-0.101562 78.0691 -0.101562 77.4109 0.304688 77.0047L51.2647 26.0447C51.6709 25.6384 52.3291 25.6384 52.7353 26.0447L103.695 77.0047C104.102 77.4109 104.102 78.0691 103.695 78.4753L52.7353 129.435C52.3291 129.842 51.6709 129.842 51.2647 129.435Z" fill="url(#paint0_linear)"/>
<g filter="url(#filter0_d)">
<path d="M52.7415 78.4342C52.6441 78.3368 52.5285 78.2595 52.4013 78.2068C52.2741 78.1541 52.1378 78.127 52.0001 78.127C51.8624 78.127 51.726 78.1541 51.5988 78.2068C51.4716 78.2595 51.356 78.3368 51.2587 78.4342L37.0111 92.6814C36.8145 92.8782 36.7041 93.1449 36.7041 93.423C36.7041 93.7011 36.8145 93.9679 37.0111 94.1646L51.2582 108.412C51.3556 108.509 51.4712 108.587 51.5984 108.639C51.7257 108.692 51.8621 108.719 51.9999 108.719C52.1376 108.719 52.274 108.692 52.4013 108.639C52.5285 108.587 52.6441 108.509 52.7415 108.412L66.9891 94.1646C67.1855 93.9679 67.2958 93.7012 67.2958 93.4232C67.2958 93.1452 67.1855 92.8786 66.9891 92.6818L52.7419 78.4342H52.7415Z" fill="black"/>
</g>
<g filter="url(#filter1_d)">
<path d="M71.0929 60.0823C70.9956 59.9849 70.88 59.9076 70.7528 59.8549C70.6256 59.8022 70.4892 59.775 70.3515 59.775C70.2138 59.775 70.0775 59.8022 69.9502 59.8549C69.823 59.9076 69.7074 59.9849 69.6101 60.0823L55.3629 74.3295C55.2655 74.4268 55.1882 74.5424 55.1355 74.6696C55.0828 74.7968 55.0557 74.9332 55.0557 75.0709C55.0557 75.2086 55.0828 75.3449 55.1355 75.4721C55.1882 75.5994 55.2655 75.7149 55.3629 75.8123L69.6101 90.0594C69.8069 90.2559 70.0735 90.3662 70.3515 90.3662C70.6295 90.3662 70.8962 90.2559 71.0929 90.0594L85.3401 75.8123C85.4375 75.7149 85.5148 75.5994 85.5675 75.4721C85.6202 75.3449 85.6474 75.2086 85.6474 75.0709C85.6474 74.9332 85.6202 74.7968 85.5675 74.6696C85.5148 74.5424 85.4375 74.4268 85.3401 74.3295L71.0933 60.0823H71.0929Z" fill="black"/>
</g>
<g filter="url(#filter2_d)">
<path d="M48.637 74.3295L34.3898 60.0823C34.2925 59.9849 34.1769 59.9076 34.0497 59.8549C33.9225 59.8022 33.7861 59.775 33.6484 59.775C33.5107 59.775 33.3743 59.8022 33.2471 59.8549C33.1199 59.9076 33.0043 59.9849 32.907 60.0823L18.6598 74.3295C18.5624 74.4268 18.4851 74.5424 18.4324 74.6696C18.3797 74.7968 18.3525 74.9332 18.3525 75.0709C18.3525 75.2086 18.3797 75.3449 18.4324 75.4721C18.4851 75.5994 18.5624 75.7149 18.6598 75.8123L32.9066 90.0594C33.1033 90.2559 33.37 90.3662 33.648 90.3662C33.926 90.3662 34.1927 90.2559 34.3894 90.0594L48.6366 75.8123C48.734 75.7149 48.8113 75.5994 48.864 75.4721C48.9167 75.3449 48.9438 75.2086 48.9438 75.0709C48.9438 74.9332 48.9167 74.7968 48.864 74.6696C48.8113 74.5424 48.734 74.4268 48.6366 74.3295H48.637Z" fill="black"/>
</g>
<g filter="url(#filter3_d)">
<path d="M103.693 55.9772L89.4456 41.73C89.2488 41.5335 88.9822 41.4232 88.7042 41.4232C88.4261 41.4232 88.1595 41.5335 87.9628 41.73L73.7152 55.9772C73.5186 56.1739 73.4082 56.4407 73.4082 56.7188C73.4082 56.9969 73.5186 57.2636 73.7152 57.4604L87.9623 71.7076C88.0597 71.805 88.1753 71.8824 88.3025 71.9351C88.4298 71.9879 88.5662 72.015 88.704 72.015C88.8417 72.015 88.9781 71.9879 89.1054 71.9351C89.2326 71.8824 89.3482 71.805 89.4456 71.7076L103.693 57.4604C103.79 57.363 103.867 57.2475 103.92 57.1203C103.973 56.993 104 56.8567 104 56.719C104 56.5813 103.973 56.4449 103.92 56.3177C103.867 56.1905 103.79 56.0749 103.693 55.9776V55.9772Z" fill="black"/>
</g>
<g filter="url(#filter4_d)">
<path d="M51.2587 41.73L37.0111 55.9771C36.8145 56.1739 36.7041 56.4406 36.7041 56.7188C36.7041 56.9969 36.8145 57.2636 37.0111 57.4604L51.2582 71.7076C51.3556 71.805 51.4712 71.8824 51.5984 71.9351C51.7257 71.9879 51.8621 72.015 51.9999 72.015C52.1376 72.015 52.274 71.9879 52.4013 71.9351C52.5285 71.8824 52.6441 71.805 52.7415 71.7076L66.9891 57.4604C67.1855 57.2636 67.2958 56.997 67.2958 56.719C67.2958 56.4409 67.1855 56.1743 66.9891 55.9776L52.7419 41.7304C52.5451 41.5338 52.2784 41.4234 52.0003 41.4234C51.7221 41.4234 51.4554 41.5338 51.2587 41.7304V41.73Z" fill="black"/>
</g>
<g filter="url(#filter5_d)">
<path d="M30.2849 57.4604L16.0377 71.7076C15.9403 71.805 15.8247 71.8824 15.6975 71.9351C15.5702 71.9879 15.4338 72.015 15.2961 72.015C15.1583 72.015 15.0219 71.9879 14.8946 71.9351C14.7674 71.8824 14.6518 71.805 14.5544 71.7076L0.307259 57.46C0.20985 57.3626 0.132578 57.2471 0.0798568 57.1198C0.0271359 56.9926 0 56.8563 0 56.7186C0 56.5809 0.0271359 56.4445 0.0798568 56.3173C0.132578 56.1901 0.20985 56.0745 0.307259 55.9772L14.5544 41.73C14.7512 41.5335 15.0178 41.4232 15.2959 41.4232C15.5739 41.4232 15.8405 41.5335 16.0373 41.73L30.2849 55.9772C30.4813 56.1739 30.5916 56.4406 30.5916 56.7186C30.5916 56.9966 30.4813 57.2632 30.2849 57.46V57.4604Z" fill="black"/>
</g>
<g filter="url(#filter6_d)">
<path d="M55.3635 37.015L69.6107 51.2626C69.708 51.3601 69.8236 51.4373 69.9508 51.4901C70.078 51.5428 70.2144 51.5699 70.3521 51.5699C70.4898 51.5699 70.6262 51.5428 70.7534 51.4901C70.8806 51.4373 70.9962 51.3601 71.0935 51.2626L85.3407 37.0155C85.4382 36.9181 85.5155 36.8025 85.5682 36.6753C85.621 36.548 85.6482 36.4116 85.6482 36.2738C85.6482 36.1361 85.621 35.9997 85.5682 35.8724C85.5155 35.7452 85.4382 35.6296 85.3407 35.5322L71.0939 21.285C70.9966 21.1876 70.881 21.1104 70.7538 21.0576C70.6266 21.0049 70.4902 20.9778 70.3525 20.9778C70.2148 20.9778 70.0784 21.0049 69.9512 21.0576C69.824 21.1104 69.7084 21.1876 69.6111 21.285L55.3639 35.5322C55.2665 35.6296 55.1892 35.7451 55.1365 35.8724C55.0838 35.9996 55.0566 36.1359 55.0566 36.2736C55.0566 36.4113 55.0838 36.5477 55.1365 36.6749C55.1892 36.8021 55.2665 36.9177 55.3639 37.015H55.3635Z" fill="black"/>
</g>
<g filter="url(#filter7_d)">
<path d="M32.907 51.2626C33.0043 51.3601 33.1199 51.4373 33.2471 51.4901C33.3743 51.5428 33.5107 51.5699 33.6484 51.5699C33.7861 51.5699 33.9225 51.5428 34.0497 51.4901C34.1769 51.4373 34.2925 51.3601 34.3898 51.2626L48.637 37.0155C48.7345 36.9181 48.8118 36.8025 48.8645 36.6753C48.9173 36.548 48.9445 36.4116 48.9445 36.2738C48.9445 36.1361 48.9173 35.9997 48.8645 35.8724C48.8118 35.7452 48.7345 35.6296 48.637 35.5322L34.3898 21.285C34.2925 21.1876 34.1769 21.1104 34.0497 21.0576C33.9225 21.0049 33.7861 20.9778 33.6484 20.9778C33.5107 20.9778 33.3743 21.0049 33.2471 21.0576C33.1199 21.1104 33.0043 21.1876 32.907 21.285L18.6598 35.5322C18.5624 35.6296 18.4851 35.7451 18.4324 35.8724C18.3797 35.9996 18.3525 36.1359 18.3525 36.2736C18.3525 36.4113 18.3797 36.5477 18.4324 36.6749C18.4851 36.8021 18.5624 36.9177 18.6598 37.015L32.9066 51.2626H32.907Z" fill="black"/>
</g>
<g filter="url(#filter8_d)">
<path d="M51.2584 30.2843C51.3558 30.3817 51.4714 30.4589 51.5986 30.5117C51.7258 30.5644 51.8621 30.5915 51.9998 30.5915C52.1376 30.5915 52.2739 30.5644 52.4011 30.5117C52.5283 30.4589 52.6439 30.3817 52.7413 30.2843L66.9888 16.0371C67.1853 15.8403 67.2956 15.5737 67.2956 15.2957C67.2956 15.0177 67.1853 14.751 66.9888 14.5543L52.7417 0.307079C52.5449 0.110527 52.2782 0.00012207 52.0001 0.00012207C51.7219 0.00012207 51.4552 0.110527 51.2584 0.307079L37.0109 14.5543C36.8144 14.751 36.7041 15.0177 36.7041 15.2957C36.7041 15.5737 36.8144 15.8403 37.0109 16.0371L51.258 30.2843H51.2584Z" fill="black"/>
</g>
</g>
<path d="M52.7415 78.4343C52.6441 78.3369 52.5286 78.2596 52.4013 78.2069C52.2741 78.1542 52.1378 78.127 52.0001 78.127C51.8624 78.127 51.726 78.1542 51.5988 78.2069C51.4716 78.2596 51.356 78.3369 51.2587 78.4343L37.0111 92.6815C36.8145 92.8782 36.7041 93.145 36.7041 93.4231C36.7041 93.7012 36.8145 93.9679 37.0111 94.1647L51.2582 108.412C51.3556 108.509 51.4712 108.587 51.5984 108.639C51.7257 108.692 51.8621 108.719 51.9999 108.719C52.1376 108.719 52.274 108.692 52.4013 108.639C52.5285 108.587 52.6441 108.509 52.7415 108.412L66.9891 94.1647C67.1855 93.9679 67.2958 93.7013 67.2958 93.4233C67.2958 93.1453 67.1855 92.8786 66.9891 92.6819L52.7419 78.4343H52.7415Z" fill="url(#paint1_linear)"/>
<path d="M71.0937 60.0823C70.9963 59.9849 70.8808 59.9077 70.7536 59.8549C70.6263 59.8022 70.49 59.7751 70.3523 59.7751C70.2146 59.7751 70.0782 59.8022 69.951 59.8549C69.8238 59.9077 69.7082 59.9849 69.6109 60.0823L55.3637 74.3295C55.2663 74.4269 55.189 74.5424 55.1363 74.6697C55.0836 74.7969 55.0564 74.9332 55.0564 75.0709C55.0564 75.2086 55.0836 75.345 55.1363 75.4722C55.189 75.5994 55.2663 75.715 55.3637 75.8123L69.6109 90.0595C69.8076 90.256 70.0743 90.3663 70.3523 90.3663C70.6303 90.3663 70.8969 90.256 71.0937 90.0595L85.3409 75.8123C85.4383 75.715 85.5156 75.5994 85.5683 75.4722C85.621 75.345 85.6481 75.2086 85.6481 75.0709C85.6481 74.9332 85.621 74.7969 85.5683 74.6697C85.5156 74.5424 85.4383 74.4269 85.3409 74.3295L71.0941 60.0823H71.0937ZM48.637 74.3295L34.3898 60.0823C34.2925 59.9849 34.1769 59.9077 34.0497 59.8549C33.9225 59.8022 33.7861 59.7751 33.6484 59.7751C33.5107 59.7751 33.3743 59.8022 33.2471 59.8549C33.1199 59.9077 33.0043 59.9849 32.907 60.0823L18.6598 74.3295C18.5624 74.4269 18.4851 74.5424 18.4324 74.6697C18.3797 74.7969 18.3525 74.9332 18.3525 75.0709C18.3525 75.2086 18.3797 75.345 18.4324 75.4722C18.4851 75.5994 18.5624 75.715 18.6598 75.8123L32.9066 90.0595C33.1033 90.256 33.37 90.3663 33.648 90.3663C33.926 90.3663 34.1927 90.256 34.3894 90.0595L48.6366 75.8123C48.734 75.715 48.8113 75.5994 48.864 75.4722C48.9167 75.345 48.9438 75.2086 48.9438 75.0709C48.9438 74.9332 48.9167 74.7969 48.864 74.6697C48.8113 74.5424 48.734 74.4269 48.6366 74.3295H48.637Z" fill="url(#paint2_linear)"/>
<path d="M103.693 55.9772L89.4458 41.73C89.2491 41.5336 88.9824 41.4233 88.7044 41.4233C88.4264 41.4233 88.1597 41.5336 87.963 41.73L73.7154 55.9772C73.5188 56.174 73.4084 56.4407 73.4084 56.7188C73.4084 56.9969 73.5188 57.2637 73.7154 57.4604L87.9626 71.7076C88.0599 71.8051 88.1755 71.8824 88.3028 71.9352C88.43 71.9879 88.5664 72.0151 88.7042 72.0151C88.8419 72.0151 88.9783 71.9879 89.1056 71.9352C89.2328 71.8824 89.3485 71.8051 89.4458 71.7076L103.693 57.4604C103.79 57.3631 103.868 57.2475 103.92 57.1203C103.973 56.9931 104 56.8567 104 56.719C104 56.5813 103.973 56.445 103.92 56.3178C103.868 56.1906 103.79 56.075 103.693 55.9776V55.9772ZM51.2587 41.73L37.0111 55.9772C36.8146 56.174 36.7042 56.4407 36.7042 56.7188C36.7042 56.9969 36.8146 57.2637 37.0111 57.4604L51.2583 71.7076C51.3557 71.8051 51.4713 71.8824 51.5985 71.9352C51.7258 71.9879 51.8622 72.0151 51.9999 72.0151C52.1377 72.0151 52.2741 71.9879 52.4013 71.9352C52.5286 71.8824 52.6442 71.8051 52.7415 71.7076L66.9891 57.4604C67.1855 57.2637 67.2959 56.9971 67.2959 56.719C67.2959 56.441 67.1855 56.1744 66.9891 55.9776L52.7419 41.7304C52.5452 41.5339 52.2784 41.4235 52.0003 41.4235C51.7222 41.4235 51.4555 41.5339 51.2587 41.7304V41.73ZM30.2848 57.4604L16.0377 71.7076C15.9403 71.8051 15.8247 71.8824 15.6975 71.9352C15.5702 71.9879 15.4338 72.0151 15.2961 72.0151C15.1583 72.0151 15.0219 71.9879 14.8946 71.9352C14.7674 71.8824 14.6518 71.8051 14.5544 71.7076L0.307259 57.46C0.20985 57.3627 0.132578 57.2471 0.0798568 57.1199C0.0271359 56.9927 0 56.8563 0 56.7186C0 56.5809 0.0271359 56.4446 0.0798568 56.3174C0.132578 56.1901 0.20985 56.0746 0.307259 55.9772L14.5544 41.73C14.7512 41.5336 15.0178 41.4233 15.2958 41.4233C15.5739 41.4233 15.8405 41.5336 16.0373 41.73L30.2848 55.9772C30.4813 56.174 30.5916 56.4406 30.5916 56.7186C30.5916 56.9966 30.4813 57.2633 30.2848 57.46V57.4604Z" fill="url(#paint3_linear)"/>
<path d="M55.3637 37.015L69.6109 51.2626C69.7082 51.3601 69.8238 51.4373 69.951 51.4901C70.0782 51.5428 70.2146 51.5699 70.3523 51.5699C70.49 51.5699 70.6263 51.5428 70.7535 51.4901C70.8808 51.4373 70.9963 51.3601 71.0937 51.2626L85.3409 37.0155C85.4383 36.9181 85.5157 36.8025 85.5684 36.6753C85.6212 36.548 85.6483 36.4116 85.6483 36.2738C85.6483 36.1361 85.6212 35.9997 85.5684 35.8724C85.5157 35.7452 85.4383 35.6296 85.3409 35.5322L71.0941 21.285C70.9967 21.1876 70.8812 21.1104 70.754 21.0576C70.6267 21.0049 70.4904 20.9778 70.3527 20.9778C70.215 20.9778 70.0786 21.0049 69.9514 21.0576C69.8242 21.1104 69.7086 21.1876 69.6113 21.285L55.3641 35.5322C55.2667 35.6296 55.1894 35.7451 55.1367 35.8724C55.084 35.9996 55.0568 36.1359 55.0568 36.2736C55.0568 36.4113 55.084 36.5477 55.1367 36.6749C55.1894 36.8021 55.2667 36.9177 55.3641 37.015H55.3637ZM32.907 51.2626C33.0043 51.3601 33.1199 51.4373 33.2471 51.4901C33.3743 51.5428 33.5107 51.5699 33.6484 51.5699C33.7861 51.5699 33.9225 51.5428 34.0497 51.4901C34.1769 51.4373 34.2925 51.3601 34.3898 51.2626L48.637 37.0155C48.7345 36.9181 48.8118 36.8025 48.8645 36.6753C48.9173 36.548 48.9445 36.4116 48.9445 36.2738C48.9445 36.1361 48.9173 35.9997 48.8645 35.8724C48.8118 35.7452 48.7345 35.6296 48.637 35.5322L34.3898 21.285C34.2925 21.1876 34.1769 21.1104 34.0497 21.0576C33.9225 21.0049 33.7861 20.9778 33.6484 20.9778C33.5107 20.9778 33.3743 21.0049 33.2471 21.0576C33.1199 21.1104 33.0043 21.1876 32.907 21.285L18.6598 35.5322C18.5624 35.6296 18.4851 35.7451 18.4324 35.8724C18.3797 35.9996 18.3525 36.1359 18.3525 36.2736C18.3525 36.4113 18.3797 36.5477 18.4324 36.6749C18.4851 36.8021 18.5624 36.9177 18.6598 37.015L32.9066 51.2626H32.907Z" fill="url(#paint4_linear)"/>
<path d="M51.2584 30.2843C51.3558 30.3817 51.4714 30.4589 51.5986 30.5117C51.7258 30.5644 51.8621 30.5915 51.9999 30.5915C52.1376 30.5915 52.2739 30.5644 52.4011 30.5117C52.5283 30.4589 52.6439 30.3817 52.7413 30.2843L66.9888 16.0371C67.1853 15.8403 67.2956 15.5737 67.2956 15.2957C67.2956 15.0177 67.1853 14.751 66.9888 14.5543L52.7417 0.307079C52.5449 0.110527 52.2782 0.00012207 52.0001 0.00012207C51.7219 0.00012207 51.4552 0.110527 51.2584 0.307079L37.0109 14.5543C36.8144 14.751 36.7041 15.0177 36.7041 15.2957C36.7041 15.5737 36.8144 15.8403 37.0109 16.0371L51.258 30.2843H51.2584Z" fill="url(#paint5_linear)"/>
</g>
<defs>
<filter id="filter0_d" x="-17.9834" y="78.127" width="139.967" height="139.967" filterUnits="userSpaceOnUse" color-interpolation-filters="sRGB">
<feFlood flood-opacity="0" result="BackgroundImageFix"/>
<feColorMatrix in="SourceAlpha" type="matrix" values="0 0 0 0 0 0 0 0 0 0 0 0 0 0 0 0 0 0 127 0"/>
<feOffset dy="54.6875"/>
<feGaussianBlur stdDeviation="27.3438"/>
<feColorMatrix type="matrix" values="0 0 0 0 0 0 0 0 0 0 0 0 0 0 0 0 0 0 0.2 0"/>
<feBlend mode="normal" in2="BackgroundImageFix" result="effect1_dropShadow"/>
<feBlend mode="normal" in="SourceGraphic" in2="effect1_dropShadow" result="shape"/>
</filter>
<filter id="filter1_d" x="0.368164" y="59.775" width="139.967" height="139.966" filterUnits="userSpaceOnUse" color-interpolation-filters="sRGB">
<feFlood flood-opacity="0" result="BackgroundImageFix"/>
<feColorMatrix in="SourceAlpha" type="matrix" values="0 0 0 0 0 0 0 0 0 0 0 0 0 0 0 0 0 0 127 0"/>
<feOffset dy="54.6875"/>
<feGaussianBlur stdDeviation="27.3438"/>
<feColorMatrix type="matrix" values="0 0 0 0 0 0 0 0 0 0 0 0 0 0 0 0 0 0 0.2 0"/>
<feBlend mode="normal" in2="BackgroundImageFix" result="effect1_dropShadow"/>
<feBlend mode="normal" in="SourceGraphic" in2="effect1_dropShadow" result="shape"/>
</filter>
<filter id="filter2_d" x="-36.335" y="59.775" width="139.966" height="139.966" filterUnits="userSpaceOnUse" color-interpolation-filters="sRGB">
<feFlood flood-opacity="0" result="BackgroundImageFix"/>
<feColorMatrix in="SourceAlpha" type="matrix" values="0 0 0 0 0 0 0 0 0 0 0 0 0 0 0 0 0 0 127 0"/>
<feOffset dy="54.6875"/>
<feGaussianBlur stdDeviation="27.3438"/>
<feColorMatrix type="matrix" values="0 0 0 0 0 0 0 0 0 0 0 0 0 0 0 0 0 0 0.2 0"/>
<feBlend mode="normal" in2="BackgroundImageFix" result="effect1_dropShadow"/>
<feBlend mode="normal" in="SourceGraphic" in2="effect1_dropShadow" result="shape"/>
</filter>
<filter id="filter3_d" x="18.7207" y="41.4232" width="139.967" height="139.967" filterUnits="userSpaceOnUse" color-interpolation-filters="sRGB">
<feFlood flood-opacity="0" result="BackgroundImageFix"/>
<feColorMatrix in="SourceAlpha" type="matrix" values="0 0 0 0 0 0 0 0 0 0 0 0 0 0 0 0 0 0 127 0"/>
<feOffset dy="54.6875"/>
<feGaussianBlur stdDeviation="27.3438"/>
<feColorMatrix type="matrix" values="0 0 0 0 0 0 0 0 0 0 0 0 0 0 0 0 0 0 0.2 0"/>
<feBlend mode="normal" in2="BackgroundImageFix" result="effect1_dropShadow"/>
<feBlend mode="normal" in="SourceGraphic" in2="effect1_dropShadow" result="shape"/>
</filter>
<filter id="filter4_d" x="-17.9834" y="41.4234" width="139.967" height="139.967" filterUnits="userSpaceOnUse" color-interpolation-filters="sRGB">
<feFlood flood-opacity="0" result="BackgroundImageFix"/>
<feColorMatrix in="SourceAlpha" type="matrix" values="0 0 0 0 0 0 0 0 0 0 0 0 0 0 0 0 0 0 127 0"/>
<feOffset dy="54.6875"/>
<feGaussianBlur stdDeviation="27.3438"/>
<feColorMatrix type="matrix" values="0 0 0 0 0 0 0 0 0 0 0 0 0 0 0 0 0 0 0.2 0"/>
<feBlend mode="normal" in2="BackgroundImageFix" result="effect1_dropShadow"/>
<feBlend mode="normal" in="SourceGraphic" in2="effect1_dropShadow" result="shape"/>
</filter>
<filter id="filter5_d" x="-54.6875" y="41.4232" width="139.967" height="139.967" filterUnits="userSpaceOnUse" color-interpolation-filters="sRGB">
<feFlood flood-opacity="0" result="BackgroundImageFix"/>
<feColorMatrix in="SourceAlpha" type="matrix" values="0 0 0 0 0 0 0 0 0 0 0 0 0 0 0 0 0 0 127 0"/>
<feOffset dy="54.6875"/>
<feGaussianBlur stdDeviation="27.3438"/>
<feColorMatrix type="matrix" values="0 0 0 0 0 0 0 0 0 0 0 0 0 0 0 0 0 0 0.2 0"/>
<feBlend mode="normal" in2="BackgroundImageFix" result="effect1_dropShadow"/>
<feBlend mode="normal" in="SourceGraphic" in2="effect1_dropShadow" result="shape"/>
</filter>
<filter id="filter6_d" x="0.369141" y="20.9778" width="139.967" height="139.967" filterUnits="userSpaceOnUse" color-interpolation-filters="sRGB">
<feFlood flood-opacity="0" result="BackgroundImageFix"/>
<feColorMatrix in="SourceAlpha" type="matrix" values="0 0 0 0 0 0 0 0 0 0 0 0 0 0 0 0 0 0 127 0"/>
<feOffset dy="54.6875"/>
<feGaussianBlur stdDeviation="27.3438"/>
<feColorMatrix type="matrix" values="0 0 0 0 0 0 0 0 0 0 0 0 0 0 0 0 0 0 0.2 0"/>
<feBlend mode="normal" in2="BackgroundImageFix" result="effect1_dropShadow"/>
<feBlend mode="normal" in="SourceGraphic" in2="effect1_dropShadow" result="shape"/>
</filter>
<filter id="filter7_d" x="-36.335" y="20.9778" width="139.967" height="139.967" filterUnits="userSpaceOnUse" color-interpolation-filters="sRGB">
<feFlood flood-opacity="0" result="BackgroundImageFix"/>
<feColorMatrix in="SourceAlpha" type="matrix" values="0 0 0 0 0 0 0 0 0 0 0 0 0 0 0 0 0 0 127 0"/>
<feOffset dy="54.6875"/>
<feGaussianBlur stdDeviation="27.3438"/>
<feColorMatrix type="matrix" values="0 0 0 0 0 0 0 0 0 0 0 0 0 0 0 0 0 0 0.2 0"/>
<feBlend mode="normal" in2="BackgroundImageFix" result="effect1_dropShadow"/>
<feBlend mode="normal" in="SourceGraphic" in2="effect1_dropShadow" result="shape"/>
</filter>
<filter id="filter8_d" x="-17.9834" y="0.00012207" width="139.966" height="139.966" filterUnits="userSpaceOnUse" color-interpolation-filters="sRGB">
<feFlood flood-opacity="0" result="BackgroundImageFix"/>
<feColorMatrix in="SourceAlpha" type="matrix" values="0 0 0 0 0 0 0 0 0 0 0 0 0 0 0 0 0 0 127 0"/>
<feOffset dy="54.6875"/>
<feGaussianBlur stdDeviation="27.3438"/>
<feColorMatrix type="matrix" values="0 0 0 0 0 0 0 0 0 0 0 0 0 0 0 0 0 0 0.2 0"/>
<feBlend mode="normal" in2="BackgroundImageFix" result="effect1_dropShadow"/>
<feBlend mode="normal" in="SourceGraphic" in2="effect1_dropShadow" result="shape"/>
</filter>
<linearGradient id="paint0_linear" x1="52" y1="25.74" x2="52" y2="129.74" gradientUnits="userSpaceOnUse">
<stop stop-color="#7540B7"/>
<stop offset="1" stop-color="#9351E5"/>
</linearGradient>
<linearGradient id="paint1_linear" x1="52" y1="108.719" x2="52" y2="78.127" gradientUnits="userSpaceOnUse">
<stop stop-color="#E9DCF9"/>
<stop offset="1" stop-color="white"/>
</linearGradient>
<linearGradient id="paint2_linear" x1="-24.2012" y1="90.3663" x2="-24.2012" y2="59.7751" gradientUnits="userSpaceOnUse">
<stop stop-color="#DECBF7"/>
<stop offset="1" stop-color="#F4EDFC"/>
</linearGradient>
<linearGradient id="paint3_linear" x1="52.0001" y1="41.4233" x2="52.0001" y2="72.0151" gradientUnits="userSpaceOnUse">
<stop stop-color="#D3B9F4"/>
<stop offset="1" stop-color="#BE96EF"/>
</linearGradient>
<linearGradient id="paint4_linear" x1="52.0004" y1="20.9778" x2="52.0004" y2="51.5699" gradientUnits="userSpaceOnUse">
<stop stop-color="#BE96EF"/>
<stop offset="1" stop-color="#A873EA"/>
</linearGradient>
<linearGradient id="paint5_linear" x1="51.9999" y1="0.00012207" x2="51.9999" y2="30.5915" gradientUnits="userSpaceOnUse">
<stop stop-color="#A873EA"/>
<stop offset="1" stop-color="#9351E5"/>
</linearGradient>
<clipPath id="clip0">
<rect width="104" height="130" fill="white"/>
</clipPath>
</defs>
</svg>
