<svg width="89" height="24" viewBox="0 0 89 24" fill="none" xmlns="http://www.w3.org/2000/svg">
<path d="M27.0923 5.12769C27.4729 5.12255 27.8385 5.27645 28.1008 5.55231C28.3759 5.82426 28.5277 6.19703 28.5208 6.58385C28.5277 6.96635 28.3775 7.33498 28.1054 7.60385C27.8471 7.87695 27.4866 8.02999 27.1108 8.02615C26.7272 8.03147 26.3589 7.87579 26.0954 7.59692C25.8196 7.32067 25.668 6.94414 25.6754 6.55385C25.6754 5.76928 26.3101 5.13254 27.0946 5.13L27.0923 5.12769V5.12769ZM25.9754 9.98538H28.2092V19.2992H25.9754V9.98538V9.98538ZM35.6908 11.46L34.3062 12.8446C33.7431 12.2815 33.2308 12 32.7692 12C32.561 11.9879 32.3545 12.0438 32.1808 12.1592C32.0485 12.2481 31.969 12.3968 31.9685 12.5562C31.9692 12.6799 32.0171 12.7987 32.1023 12.8885C32.3011 13.0627 32.5262 13.2044 32.7692 13.3085L33.5885 13.7169C34.45 14.1431 35.0423 14.5769 35.3654 15.0185C36.136 16.1287 35.9706 17.637 34.9777 18.5538C34.3962 19.0831 33.6169 19.3477 32.64 19.3477C31.419 19.3814 30.2595 18.8128 29.5385 17.8269L30.9231 16.3292C31.1817 16.6317 31.4948 16.883 31.8462 17.07C32.1267 17.2371 32.4433 17.3345 32.7692 17.3538C33.0242 17.3666 33.2759 17.2917 33.4823 17.1415C33.646 17.0305 33.7464 16.8477 33.7523 16.65C33.7523 16.3054 33.4277 15.97 32.7785 15.6438L32.0262 15.2677C30.5862 14.5415 29.8662 13.6331 29.8662 12.5423C29.8608 11.8506 30.1584 11.1912 30.6808 10.7377C31.2502 10.2288 31.9945 9.96003 32.7577 9.98769C33.9139 9.98137 35.0033 10.5287 35.6885 11.46H35.6908V11.46ZM46.0985 12.0162L44.2385 13.0385C43.9489 12.7163 43.5962 12.4571 43.2023 12.2769C42.8202 12.1279 42.4124 12.0558 42.0023 12.0646C41.2533 12.0319 40.5225 12.3013 39.9738 12.8123C39.4555 13.3119 39.1736 14.0082 39.1985 14.7277C39.176 15.4206 39.4466 16.0908 39.9438 16.5738C40.4719 17.0716 41.178 17.3361 41.9031 17.3077C42.9031 17.3077 43.6815 16.9669 44.2385 16.2854L46.0015 17.4923C45.0462 18.7338 43.6985 19.3546 41.9585 19.3546C40.3923 19.3546 39.1662 18.8931 38.28 17.97C37.2453 16.93 36.7652 15.4609 36.9859 14.0106C37.2066 12.5603 38.102 11.3005 39.3992 10.6154C40.1994 10.19 41.0939 9.97336 42 9.98538C42.8243 9.9721 43.6402 10.1531 44.3815 10.5138C45.0729 10.8596 45.664 11.3768 46.0985 12.0162V12.0162ZM51.6023 9.98538C52.434 9.98298 53.2516 10.2003 53.9723 10.6154C55.4324 11.4361 56.3333 12.9835 56.3262 14.6585C56.3298 15.4853 56.114 16.2984 55.7008 17.0146C55.3002 17.7307 54.7123 18.3243 54 18.7315C53.2749 19.1449 52.4531 19.3583 51.6185 19.35C50.3865 19.3685 49.2022 18.8746 48.3485 17.9862C47.461 17.1154 46.971 15.9177 46.9938 14.6746C46.9823 12.1088 49.0435 10.0145 51.6092 9.98538H51.6023ZM51.6392 12.09C50.9849 12.0749 50.355 12.3382 49.9062 12.8146C49.4394 13.3137 49.1903 13.9779 49.2138 14.6608C49.1853 15.3555 49.4344 16.0331 49.9062 16.5438C50.3542 17.0207 50.9851 17.2828 51.6392 17.2638C52.299 17.2818 52.9349 17.0163 53.3862 16.5346C53.8572 16.0271 54.1063 15.3526 54.0785 14.6608C54.1053 13.9725 53.8561 13.3021 53.3862 12.7985C52.9312 12.3244 52.2958 12.0667 51.6392 12.09V12.09ZM57.6923 10.2162H59.9515V14.5038C59.9226 15.0891 59.9802 15.6754 60.1223 16.2438C60.2224 16.5483 60.4163 16.8132 60.6762 17.0008C60.9529 17.1876 61.2817 17.2821 61.6154 17.2708C61.9513 17.2818 62.2824 17.1892 62.5638 17.0054C62.8354 16.8131 63.0384 16.539 63.1431 16.2231C63.2354 15.9662 63.2815 15.4177 63.2815 14.5777V10.2162H65.5154V13.9892C65.5154 15.5446 65.3923 16.6085 65.1462 17.1808C64.8796 17.8423 64.4164 18.4062 63.8192 18.7962C63.1463 19.1934 62.3731 19.3881 61.5923 19.3569C60.6154 19.3569 59.8254 19.1385 59.2223 18.7015C58.6092 18.2496 58.1622 17.6079 57.9508 16.8762C57.7785 16.3315 57.6923 15.3469 57.6923 13.9223V10.2162V10.2162ZM66.9946 10.2162H68.91V11.3377C69.0871 10.9324 69.3731 10.5841 69.7362 10.3315C70.0691 10.1059 70.4624 9.986 70.8646 9.98769C71.1813 9.99427 71.4923 10.0732 71.7738 10.2185L71.0815 12.1431C70.8834 12.0306 70.6626 11.9636 70.4354 11.9469C70.0908 11.9469 69.8 12.16 69.5631 12.5862C69.3262 13.0123 69.2077 13.8469 69.2077 15.09V19.1215H66.99L66.9946 10.2162V10.2162ZM78.0992 11.46L76.7146 12.8446C76.1531 12.2815 75.6431 12 75.1846 12C74.9764 11.9879 74.7699 12.0438 74.5962 12.1592C74.4639 12.2481 74.3843 12.3968 74.3838 12.5562C74.3846 12.6799 74.4325 12.7987 74.5177 12.8885C74.7171 13.0601 74.9421 13.1994 75.1846 13.3015L76.0038 13.71C76.8654 14.1362 77.4577 14.57 77.7808 15.0115C78.5504 16.122 78.3851 17.6296 77.3931 18.5469C76.8115 19.0762 76.0323 19.3408 75.0554 19.3408C73.8308 19.377 72.667 18.8072 71.9446 17.8177L73.3292 16.32C73.5878 16.6226 73.9009 16.8738 74.2523 17.0608C74.5372 17.2291 74.8587 17.3258 75.1892 17.3423C75.4442 17.3551 75.6959 17.2802 75.9023 17.13C76.0558 17.0174 76.1486 16.8403 76.1538 16.65C76.1538 16.3054 75.8292 15.97 75.18 15.6438L74.4277 15.2677C72.9877 14.5415 72.2677 13.6331 72.2677 12.5423C72.2623 11.8506 72.56 11.1912 73.0823 10.7377C73.6519 10.229 74.3961 9.96027 75.1592 9.98769C76.3154 9.98137 77.4049 10.5287 78.09 11.46H78.0992V11.46ZM88.7123 15.3138H81.5354C81.6149 15.9028 81.9111 16.4409 82.3662 16.8231C82.8552 17.2101 83.4668 17.4091 84.09 17.3838C84.8966 17.3961 85.6735 17.0804 86.2431 16.5092L88.1262 17.3931C87.6993 18.0215 87.1185 18.5299 86.4392 18.87C85.7081 19.205 84.9101 19.3684 84.1062 19.3477C82.7092 19.3477 81.5715 18.9069 80.6931 18.0254C79.8211 17.1496 79.3479 15.9537 79.3846 14.7185C79.3454 13.4587 79.8193 12.2369 80.6977 11.3331C81.5585 10.4418 82.7544 9.95353 83.9931 9.98769C85.3946 9.98769 86.5354 10.4362 87.4154 11.3331C88.2954 12.23 88.7346 13.4154 88.7331 14.8892L88.7123 15.3138V15.3138ZM86.4785 13.5531C86.3366 13.0636 86.0322 12.637 85.6154 12.3438C85.1735 12.0331 84.644 11.8714 84.1038 11.8823C83.5141 11.8712 82.9373 12.0554 82.4631 12.4062C82.0995 12.7178 81.8182 13.114 81.6438 13.56L86.4785 13.5531V13.5531ZM11.97 0C5.47154 0 0 5.26846 0 11.7692V23.9562L11.9677 23.9446C18.4662 23.9446 23.7369 18.4731 23.7369 11.9746C23.7369 5.47615 18.4615 0 11.97 0Z" fill="black"/>
<path d="M12.0854 4.55542C9.51506 4.55694 7.13512 5.91063 5.82009 8.11907C4.50506 10.3275 4.44892 13.0649 5.6723 15.3254L4.35229 19.5716L9.0923 18.5008C11.8066 19.7237 14.9917 19.1745 17.1397 17.1131C19.2876 15.0517 19.9674 11.8919 18.8571 9.1296C17.7468 6.3673 15.0694 4.55687 12.0923 4.55542H12.0854Z" fill="#FFF9AE"/>
<path d="M17.7894 16.3648C15.7174 18.9786 12.136 19.8535 9.09229 18.4893L4.35229 19.5739L9.17768 19.0039C12.3766 20.8778 16.4723 20.0533 18.697 17.0876C20.9217 14.122 20.5672 9.95912 17.8731 7.41235C19.8959 10.0645 19.8614 13.751 17.7894 16.3648Z" fill="#00AEEF"/>
<path d="M17.3813 14.9789C15.5936 17.7947 12.1233 19.0387 8.95383 18L4.35229 19.5738L9.0923 18.5007C12.4681 20.0256 16.4508 18.7774 18.3524 15.5985C20.2539 12.4196 19.4701 8.32009 16.53 6.06689C18.8185 8.49331 19.169 12.1631 17.3813 14.9789Z" fill="#00A94F"/>
<path d="M6.10845 15.4869C4.78736 12.3025 5.87607 8.62798 8.71865 6.67719C11.5612 4.7264 15.3814 5.03206 17.8777 7.41001C15.5658 4.37607 11.3068 3.63551 8.1065 5.71097C4.90618 7.78643 3.84518 11.9771 5.67229 15.3254L4.35229 19.5716L6.10845 15.4869Z" fill="#F15D22"/>
<path d="M5.67233 15.3253C4.03312 12.2975 4.73421 8.53582 7.35411 6.30181C9.97401 4.06779 13.7992 3.96986 16.53 6.06689C13.9105 3.30862 9.61114 3.02635 6.65346 5.41845C3.69578 7.81055 3.0728 12.0739 5.22233 15.2123L4.35464 19.5738L5.67233 15.3253Z" fill="#D0232B"/>
</svg>
