<svg width="181" height="130" viewBox="0 0 181 130" fill="none" xmlns="http://www.w3.org/2000/svg">
<path d="M36.2878 104.748C31.1439 104.748 26.4676 100.54 26.4676 95.3957C26.4676 90.2518 30.6763 86.0432 36.2878 86.0432C41.8993 86.0432 46.1079 90.2518 46.1079 95.3957C46.1079 100.54 41.4316 104.748 36.2878 104.748ZM156.935 53.777C156 46.295 151.324 40.2158 145.245 35.5396L142.906 33.6691L141.036 36.0072C137.295 40.2158 135.892 47.6978 136.36 53.3094C136.827 57.518 138.23 61.7266 140.568 65C138.698 65.9353 136.36 66.8705 134.489 67.8058C130.281 69.2086 126.072 69.6763 121.863 69.6763H0.748201L0.280576 72.482C-0.654676 81.3669 0.748201 90.7194 4.48921 99.1367L6.35971 102.41V102.878C17.5827 121.583 37.6906 130 59.6691 130C101.755 130 136.36 111.763 152.727 72.482C163.482 72.9496 174.237 70.1439 179.381 59.8561L180.784 57.518L178.446 56.1151C172.367 52.3741 163.95 51.9065 156.935 53.777V53.777ZM96.6115 46.295H78.3741V64.5324H96.6115V46.295ZM96.6115 23.3813H78.3741V41.6187H96.6115V23.3813ZM96.6115 0H78.3741V18.2374H96.6115V0V0ZM119.058 46.295H100.82V64.5324H119.058V46.295ZM51.2518 46.295H33.0144V64.5324H51.2518V46.295V46.295ZM74.1655 46.295H55.9281V64.5324H74.1655V46.295ZM28.8058 46.295H10.5683V64.5324H28.8058V46.295V46.295ZM74.1655 23.3813H55.9281V41.6187H74.1655V23.3813ZM51.2518 23.3813H33.0144V41.6187H51.2518V23.3813V23.3813Z" fill="#1793DF"/>
</svg>
