<svg xmlns="http://www.w3.org/2000/svg" viewBox="0 0 179.32 178.5"><defs><style>.cls-1{fill:#c5ebfc;}.cls-2,.cls-7{fill:#fff;}.cls-2{opacity:0.5;}.cls-3{fill:none;stroke:#67bcff;stroke-miterlimit:10;}.cls-4{fill:#17b2cc;}.cls-5{fill:#fbd000;}.cls-6{fill:#074370;}.cls-8{fill:#eaeaea;}.cls-9{fill:#28a5c6;}</style></defs><title>Asset 9</title><g id="Layer_2" data-name="Layer 2"><g id="Layer_5" data-name="Layer 5"><circle class="cls-1" cx="91.47" cy="90.65" r="87.85"/><path class="cls-2" d="M161.88,143.2v-5.68h3.88q.86-1.36,1.66-2.75h-5.54V110.07h15.26c.21-.91.4-1.82.58-2.75H161.88V82.61h17.06c-.08-.92-.19-1.83-.3-2.75H161.88V55.16h10c-.41-.92-.81-1.84-1.25-2.75h-8.71V38.09q-1.33-1.78-2.75-3.48v17.8H134.42V27.7h18.31q-1.44-1.41-2.95-2.75H134.42V14c-.9-.51-1.82-1-2.75-1.47V25H107V4.18c-.91-.16-1.82-.32-2.75-.46V25H79.51V3.62q-1.38.19-2.75.42V25H52.06V12.13c-.92.46-1.84.93-2.75,1.42V25H33.16q-1.51,1.34-2.95,2.75H49.31V52.41H24.61V33.69q-1.41,1.66-2.75,3.38V52.41H12.35c-.44.9-.84,1.82-1.25,2.75H21.86V79.87H4.3c-.11.91-.22,1.83-.3,2.75H21.86v24.71H5.22c.18.92.37,1.84.58,2.75H21.86v24.71H15.52q.81,1.39,1.67,2.75h4.68v6.69q1.33,1.73,2.75,3.38V137.52H49.31v24.71H40.57q2,1.43,4.09,2.75h4.66v2.76c.9.49,1.82,1,2.75,1.42V165H76.77v12.28q1.37.23,2.75.42V165h24.71v12.59c.92-.13,1.83-.3,2.75-.46V165h24.71v3.77c.92-.48,1.84-1,2.75-1.47V165h3.86q2.09-1.32,4.09-2.75h-7.94V137.52h24.71v9.16Q160.55,145,161.88,143.2ZM49.31,134.78H24.61V110.07H49.31Zm0-27.45H24.61V82.61H49.31Zm0-27.45H24.61V55.16H49.31Zm27.45,82.36H52.06V137.52H76.77Zm0-27.45H52.06V110.07H76.77Zm0-27.45H52.06V82.61H76.77Zm0-27.45H52.06V55.16H76.77Zm0-27.45H52.06V27.7H76.77Zm27.45,109.82H79.51V137.52h24.71Zm0-27.45H79.51V110.07h24.71Zm0-27.45H79.51V82.61h24.71Zm0-27.45H79.51V55.16h24.71Zm0-27.45H79.51V27.7h24.71Zm27.45,109.82H107V137.52h24.71Zm0-27.45H107V110.07h24.71Zm0-27.45H107V82.61h24.71Zm0-27.45H107V55.16h24.71Zm0-27.45H107V27.7h24.71Zm2.75,2.75h24.71V79.87H134.42Zm0,27.45h24.71v24.71H134.42Zm0,52.16V110.07h24.71v24.71Z"/><circle class="cls-3" cx="88.35" cy="88.35" r="87.85"/><path class="cls-4" d="M152.9,83.74,26.67,150.18A88.09,88.09,0,0,0,53.83,170L167,110.47Z"/><rect class="cls-5" x="11.16" y="110.53" width="157.86" height="30.2" transform="translate(-48.14 56.42) rotate(-27.76)"/><path class="cls-6" d="M27.27,177.13a1.36,1.36,0,0,1-.41-.06,1.38,1.38,0,0,1-.81-.67L12,149.67a1.37,1.37,0,0,1,.58-1.85l139.7-73.52a1.36,1.36,0,0,1,1-.1,1.37,1.37,0,0,1,.81.67l14.06,26.73a1.37,1.37,0,0,1-.58,1.85L27.91,177A1.38,1.38,0,0,1,27.27,177.13ZM15.06,149.6l12.79,24.3,137.27-72.24-12.79-24.3Z"/><path class="cls-6" d="M37.57,170.16a1.37,1.37,0,0,1-1.22-.73L30,157.28A1.37,1.37,0,0,1,32.39,156l6.39,12.15a1.37,1.37,0,0,1-1.21,2Z"/><path class="cls-6" d="M57,159.93a1.37,1.37,0,0,1-1.22-.73L49.4,147a1.37,1.37,0,1,1,2.43-1.28l6.39,12.15a1.37,1.37,0,0,1-1.21,2Z"/><path class="cls-6" d="M47.29,165a1.38,1.38,0,0,1-1.22-.72l-3.84-7.18a1.34,1.34,0,0,1,.58-1.83,1.39,1.39,0,0,1,1.85.57l3.84,7.18a1.34,1.34,0,0,1-.58,1.83A1.38,1.38,0,0,1,47.29,165Z"/><path class="cls-6" d="M76.44,149.7a1.37,1.37,0,0,1-1.22-.73l-6.39-12.15a1.37,1.37,0,0,1,2.43-1.28l6.39,12.15a1.37,1.37,0,0,1-1.21,2Z"/><path class="cls-6" d="M66.72,154.81a1.37,1.37,0,0,1-1.22-.73l-3.84-7.29a1.37,1.37,0,1,1,2.43-1.28l3.84,7.29a1.37,1.37,0,0,1-1.21,2Z"/><path class="cls-6" d="M95.88,139.47a1.37,1.37,0,0,1-1.22-.73l-6.39-12.15a1.37,1.37,0,1,1,2.43-1.28l6.39,12.15a1.37,1.37,0,0,1-1.21,2Z"/><path class="cls-6" d="M86.16,144.58a1.37,1.37,0,0,1-1.22-.73l-3.84-7.29a1.37,1.37,0,1,1,2.43-1.28l3.84,7.29a1.37,1.37,0,0,1-1.21,2Z"/><path class="cls-6" d="M115.31,129.24a1.37,1.37,0,0,1-1.22-.73l-6.39-12.15a1.37,1.37,0,1,1,2.43-1.28l6.39,12.15a1.37,1.37,0,0,1-1.21,2Z"/><path class="cls-6" d="M105.59,134.36a1.37,1.37,0,0,1-1.22-.73l-3.84-7.29a1.37,1.37,0,0,1,2.43-1.28l3.84,7.29a1.37,1.37,0,0,1-1.21,2Z"/><path class="cls-6" d="M134.75,119a1.37,1.37,0,0,1-1.22-.73l-6.39-12.15a1.37,1.37,0,1,1,2.43-1.28L136,117a1.37,1.37,0,0,1-1.21,2Z"/><path class="cls-6" d="M125,124.13a1.37,1.37,0,0,1-1.22-.73L120,116.1a1.37,1.37,0,1,1,2.43-1.28l3.84,7.29a1.37,1.37,0,0,1-1.21,2Z"/><path class="cls-6" d="M154.18,108.78A1.37,1.37,0,0,1,153,108L146.57,95.9A1.37,1.37,0,1,1,149,94.62l6.39,12.15a1.37,1.37,0,0,1-1.21,2Z"/><path class="cls-6" d="M144.47,113.9a1.37,1.37,0,0,1-1.22-.73l-3.84-7.29a1.37,1.37,0,0,1,2.43-1.28l3.84,7.29a1.37,1.37,0,0,1-1.21,2Z"/><path class="cls-7" d="M132.65,94.34a1.37,1.37,0,0,1-.64-2.59l17.52-9.22A1.37,1.37,0,0,1,150.81,85l-17.52,9.22A1.37,1.37,0,0,1,132.65,94.34Z"/><path class="cls-7" d="M24.21,151.41a1.37,1.37,0,0,1-.64-2.59l96.09-50.57a1.37,1.37,0,1,1,1.28,2.43L24.85,151.26A1.37,1.37,0,0,1,24.21,151.41Z"/><path class="cls-4" d="M37.23,33.26,27.9,29.42A88.15,88.15,0,0,0,16.49,44L69.8,65.94l15.83-2.4-9-14.11Z"/><polygon class="cls-8" points="76.59 42.79 85.63 56.9 69.8 59.3 76.59 42.79"/><rect class="cls-8" x="35.7" y="8.42" width="17.85" height="61.77" transform="matrix(0.38, -0.92, 0.92, 0.38, -8.69, 65.64)"/><rect class="cls-9" x="16.02" y="21.61" width="17.85" height="19.22" transform="translate(-13.41 42.43) rotate(-67.66)"/><path class="cls-6" d="M69.87,60.45a1.35,1.35,0,0,1-.52-.1L12.7,37A1.37,1.37,0,0,1,12,35.21l6.73-16.42A1.36,1.36,0,0,1,20.46,18L77.11,41.4a1.37,1.37,0,0,1,.74,1.78L71.13,59.6a1.36,1.36,0,0,1-1.26.85ZM15,35,69.13,57.3l5.69-13.89L20.68,21.09Z"/><path class="cls-6" d="M69.83,60.67a1.41,1.41,0,0,1-1.1-.52,1.35,1.35,0,0,1-.19-1.37l6.91-16.51a1.41,1.41,0,0,1,2.47-.22l9.21,14.11a1.35,1.35,0,0,1,.1,1.31,1.39,1.39,0,0,1-1.06.79L70,60.66ZM77,45.75l-5,11.82,11.55-1.72Z"/><polygon class="cls-6" points="79.3 57.86 85.63 56.9 82.01 51.26 79.3 57.86"/><path class="cls-7" d="M29.74,30.25a1.35,1.35,0,0,1-.5-.1l-7.35-2.92a1.27,1.27,0,0,1-.72-1.67,1.34,1.34,0,0,1,1.73-.7l7.35,2.92A1.27,1.27,0,0,1,31,29.45,1.33,1.33,0,0,1,29.74,30.25Z"/><path class="cls-7" d="M68.15,46.64a1.36,1.36,0,0,1-.52-.1L41,35.58A1.37,1.37,0,1,1,42,33L68.67,44a1.37,1.37,0,0,1-.52,2.64Z"/><rect class="cls-4" x="124.41" y="48.09" width="28.83" height="15.1" rx="4.12" ry="4.12"/><rect class="cls-8" x="124.41" y="42.6" width="28.83" height="15.1" rx="4.12" ry="4.12"/><path class="cls-6" d="M149.12,59.07H128.53A5.5,5.5,0,0,1,123,53.58V46.72a5.5,5.5,0,0,1,5.49-5.49h20.59a5.5,5.5,0,0,1,5.49,5.49v6.86A5.5,5.5,0,0,1,149.12,59.07ZM128.53,44a2.75,2.75,0,0,0-2.75,2.75v6.86a2.75,2.75,0,0,0,2.75,2.75h20.59a2.75,2.75,0,0,0,2.75-2.75V46.72A2.75,2.75,0,0,0,149.12,44Z"/><path class="cls-7" d="M146.38,49.46h-15.1a1.37,1.37,0,0,1,0-2.75h15.1a1.37,1.37,0,1,1,0,2.75Z"/></g></g></svg>