<svg width="25" height="25" viewBox="0 0 25 25" fill="none" xmlns="http://www.w3.org/2000/svg">
<path d="M10.759 13.2921C11.1885 13.8662 11.7364 14.3413 12.3656 14.685C12.9948 15.0288 13.6905 15.2332 14.4057 15.2844C15.1208 15.3356 15.8386 15.2324 16.5104 14.9819C17.1821 14.7313 17.7921 14.3391 18.299 13.8321L21.299 10.8321C22.2098 9.88907 22.7138 8.62606 22.7024 7.31507C22.691 6.00409 22.1652 4.75003 21.2381 3.82299C20.3111 2.89595 19.057 2.3701 17.746 2.35871C16.4351 2.34732 15.172 2.85129 14.229 3.76208L12.509 5.47208" stroke="#001443" stroke-width="2" stroke-linecap="round" stroke-linejoin="round"/>
<path d="M14.759 11.2921C14.3295 10.718 13.7816 10.2429 13.1524 9.89916C12.5232 9.5554 11.8275 9.35098 11.1123 9.29976C10.3972 9.24854 9.6794 9.35173 9.00764 9.60231C8.33588 9.8529 7.72587 10.245 7.21899 10.7521L4.21899 13.7521C3.3082 14.6951 2.80423 15.9581 2.81562 17.2691C2.82701 18.5801 3.35286 19.8341 4.2799 20.7612C5.20694 21.6882 6.461 22.2141 7.77198 22.2255C9.08297 22.2369 10.346 21.7329 11.289 20.8221L12.999 19.1121" stroke="#001443" stroke-width="2" stroke-linecap="round" stroke-linejoin="round"/>
</svg>
