<svg width="255" height="197" viewBox="0 0 255 197" fill="none" xmlns="http://www.w3.org/2000/svg">
<path d="M208.141 0H46.0458C42.4619 0 38.9804 1.53597 36.4205 4.19831L3.75548 38.9111C-1.05721 44.031 -1.262 52.018 3.2435 57.3427L117.007 192.201C119.67 195.375 123.356 196.911 127.145 196.911C130.831 196.911 134.62 195.375 137.282 192.201L251.046 57.3427C255.551 52.018 255.347 44.031 250.534 38.9111L217.869 4.19831C215.207 1.53597 211.725 0 208.141 0Z" fill="#64F9BF"/>
<path d="M208.141 6.55345C209.985 6.55345 211.725 7.37263 212.954 8.7038L245.619 43.4166C248.077 46.079 248.179 50.3797 245.824 53.1444L132.06 188.002C130.729 189.538 128.886 190.46 126.94 190.46C124.994 190.46 123.151 189.641 121.82 188.002L8.05639 53.1444C5.70124 50.3797 5.80359 46.079 8.26113 43.4166L40.9259 8.7038C42.1547 7.37263 43.9978 6.55345 45.7385 6.55345H208.141ZM208.141 0H46.0458C42.4619 0 38.9804 1.53597 36.4205 4.19831L3.75548 38.9111C-1.05721 44.031 -1.262 52.018 3.2435 57.3427L117.007 192.201C119.67 195.375 123.356 196.911 127.145 196.911C130.831 196.911 134.62 195.375 137.282 192.201L251.046 57.3427C255.551 52.018 255.347 44.031 250.534 38.9111L217.869 4.19831C215.207 1.53597 211.725 0 208.141 0ZM114.652 99.9402L139.535 114.276V104.65L114.652 90.3148V99.9402ZM84.2402 61.6434L89.7696 58.4691L84.2402 55.2948V61.6434ZM114.652 114.276L120.182 111.102L114.652 107.927V114.276ZM118.748 84.7853L139.535 96.7658V87.1405L127.042 79.9726L118.748 84.7853ZM169.947 61.541V55.1924L164.418 58.3667L169.947 61.541ZM228.518 44.3382L207.22 21.7083C205.991 20.3772 204.25 19.6604 202.407 19.6604H51.5754C49.7323 19.6604 47.9913 20.3772 46.7625 21.7083L25.464 44.3382C23.2112 46.7957 23.1087 50.4821 25.259 53.042L122.025 167.625C124.687 170.697 129.398 170.697 132.06 167.625L228.826 53.042C230.976 50.5845 230.874 46.7957 228.518 44.3382ZM145.884 118.577L139.535 122.263L127.145 115.095L114.755 122.263L109.532 119.191C109.43 119.191 109.43 119.089 109.43 119.089L108.508 118.577C108.201 118.372 107.894 118.065 107.996 117.655V83.1469L120.489 75.9791L112.195 71.1664L99.7023 78.3342V111.613C99.7023 112.433 98.7807 112.945 98.0639 112.535L93.5585 109.975C93.0465 109.668 92.7392 109.156 92.7392 108.542V74.3407L105.129 67.1729L96.8351 62.3602L84.4449 69.528V102.807C84.4449 103.626 83.5235 104.138 82.8067 103.729L78.3011 101.169C77.7891 100.862 77.4818 100.35 77.4818 99.7354V65.5345V51.1989L84.4449 47.2053L146.703 83.1469V117.655C146.396 118.065 146.293 118.474 145.884 118.577ZM161.653 76.9007V108.644C161.653 109.258 161.346 109.77 160.834 110.078L156.328 112.637C155.611 113.047 154.69 112.535 154.69 111.716V80.8942V78.4366L94.0705 43.4166C93.3537 43.007 93.3537 41.9831 94.0705 41.4711L98.5759 38.9111C99.0878 38.6039 99.7023 38.6039 100.214 38.9111L161.653 74.3407V76.9007ZM176.808 100.145C176.808 100.555 176.603 100.862 176.296 101.067L171.585 103.831C170.869 104.241 169.947 103.729 169.947 102.91V84.7853V69.6304L109.43 34.7128C108.713 34.3032 108.713 33.2793 109.43 32.7673L113.936 30.2073C114.448 29.9001 115.062 29.9001 115.574 30.2073L127.247 36.9656L138.92 30.2073C139.432 29.9001 140.047 29.9001 140.559 30.2073L145.064 32.7673C145.781 33.1769 145.781 34.2008 145.064 34.7128L134.313 40.9591L142.607 45.7718L154.28 39.0135C154.792 38.7063 155.407 38.7063 155.919 39.0135L160.424 41.5735C161.141 41.9831 161.141 43.007 160.424 43.519L149.57 49.7653L157.864 54.578L170.254 47.4101L177.217 51.4037L176.808 100.145Z" fill="#001443"/>
</svg>
