<svg width="1024" height="282" viewBox="0 0 1024 282" fill="none" xmlns="http://www.w3.org/2000/svg">
<path d="M1024 129.897V200.912L804.657 281.55H724.138L1024 129.897Z" fill="url(#paint0_radial)"/>
<path d="M972.915 0H1024V50.087L673.805 281.55H638.539L972.915 0Z" fill="url(#paint1_radial)"/>
<path d="M799.754 0H876.935L611.858 281.55H590.403L799.754 0Z" fill="url(#paint2_radial)"/>
<path d="M678.122 0H734.914L572.378 281.55H556.591L678.122 0Z" fill="url(#paint3_radial)"/>
<path d="M578.874 0H626.767L542.315 281.55H529.002L578.874 0Z" fill="url(#paint4_radial)"/>
<path d="M487.772 0H532.954L516.237 281.55H503.677L487.772 0Z" fill="url(#paint5_radial)"/>
<path d="M394.004 0H441.888L490.922 281.55H477.611L394.004 0Z" fill="url(#paint6_radial)"/>
<path d="M342.617 0L463.326 281.55H447.552L285.873 0H342.617Z" fill="url(#paint7_radial)"/>
<path d="M143.81 0H220.977L429.512 281.55H408.061L143.81 0Z" fill="url(#paint8_radial)"/>
<path d="M0 52.6856V0H47.6498L381.33 281.55H345.946L0 52.6856Z" fill="url(#paint9_radial)"/>
<path d="M0 203.171V132.314L295.303 281.55H213.931L0 203.171Z" fill="url(#paint10_radial)"/>
<path d="M960.329 281.55H1024V266.231L960.329 281.55Z" fill="url(#paint11_radial)"/>
<path d="M55.9302 281.55L0 268.192V281.55H55.9302Z" fill="url(#paint12_radial)"/>
<defs>
<radialGradient id="paint0_radial" cx="0" cy="0" r="1" gradientUnits="userSpaceOnUse" gradientTransform="translate(512 459.5) rotate(-90) scale(827.5 648.794)">
<stop stop-color="#0185FD"/>
<stop offset="1" stop-color="#0185FD" stop-opacity="0"/>
</radialGradient>
<radialGradient id="paint1_radial" cx="0" cy="0" r="1" gradientUnits="userSpaceOnUse" gradientTransform="translate(512 459.5) rotate(-90) scale(827.5 648.794)">
<stop stop-color="#0185FD"/>
<stop offset="1" stop-color="#0185FD" stop-opacity="0"/>
</radialGradient>
<radialGradient id="paint2_radial" cx="0" cy="0" r="1" gradientUnits="userSpaceOnUse" gradientTransform="translate(512 459.5) rotate(-90) scale(827.5 648.794)">
<stop stop-color="#0185FD"/>
<stop offset="1" stop-color="#0185FD" stop-opacity="0"/>
</radialGradient>
<radialGradient id="paint3_radial" cx="0" cy="0" r="1" gradientUnits="userSpaceOnUse" gradientTransform="translate(512 459.5) rotate(-90) scale(827.5 648.794)">
<stop stop-color="#0185FD"/>
<stop offset="1" stop-color="#0185FD" stop-opacity="0"/>
</radialGradient>
<radialGradient id="paint4_radial" cx="0" cy="0" r="1" gradientUnits="userSpaceOnUse" gradientTransform="translate(512 459.5) rotate(-90) scale(827.5 648.794)">
<stop stop-color="#0185FD"/>
<stop offset="1" stop-color="#0185FD" stop-opacity="0"/>
</radialGradient>
<radialGradient id="paint5_radial" cx="0" cy="0" r="1" gradientUnits="userSpaceOnUse" gradientTransform="translate(512 459.5) rotate(-90) scale(827.5 648.794)">
<stop stop-color="#0185FD"/>
<stop offset="1" stop-color="#0185FD" stop-opacity="0"/>
</radialGradient>
<radialGradient id="paint6_radial" cx="0" cy="0" r="1" gradientUnits="userSpaceOnUse" gradientTransform="translate(512 459.5) rotate(-90) scale(827.5 648.794)">
<stop stop-color="#0185FD"/>
<stop offset="1" stop-color="#0185FD" stop-opacity="0"/>
</radialGradient>
<radialGradient id="paint7_radial" cx="0" cy="0" r="1" gradientUnits="userSpaceOnUse" gradientTransform="translate(512 459.5) rotate(-90) scale(827.5 648.794)">
<stop stop-color="#0185FD"/>
<stop offset="1" stop-color="#0185FD" stop-opacity="0"/>
</radialGradient>
<radialGradient id="paint8_radial" cx="0" cy="0" r="1" gradientUnits="userSpaceOnUse" gradientTransform="translate(512 459.5) rotate(-90) scale(827.5 648.794)">
<stop stop-color="#0185FD"/>
<stop offset="1" stop-color="#0185FD" stop-opacity="0"/>
</radialGradient>
<radialGradient id="paint9_radial" cx="0" cy="0" r="1" gradientUnits="userSpaceOnUse" gradientTransform="translate(512 459.5) rotate(-90) scale(827.5 648.794)">
<stop stop-color="#0185FD"/>
<stop offset="1" stop-color="#0185FD" stop-opacity="0"/>
</radialGradient>
<radialGradient id="paint10_radial" cx="0" cy="0" r="1" gradientUnits="userSpaceOnUse" gradientTransform="translate(512 459.5) rotate(-90) scale(827.5 648.794)">
<stop stop-color="#0185FD"/>
<stop offset="1" stop-color="#0185FD" stop-opacity="0"/>
</radialGradient>
<radialGradient id="paint11_radial" cx="0" cy="0" r="1" gradientUnits="userSpaceOnUse" gradientTransform="translate(512 459.5) rotate(-90) scale(827.5 648.794)">
<stop stop-color="#0185FD"/>
<stop offset="1" stop-color="#0185FD" stop-opacity="0"/>
</radialGradient>
<radialGradient id="paint12_radial" cx="0" cy="0" r="1" gradientUnits="userSpaceOnUse" gradientTransform="translate(512 459.5) rotate(-90) scale(827.5 648.794)">
<stop stop-color="#0185FD"/>
<stop offset="1" stop-color="#0185FD" stop-opacity="0"/>
</radialGradient>
</defs>
</svg>
