<?xml version="1.0" encoding="utf-8"?>
<!-- Generator: Adobe Illustrator 23.0.3, SVG Export Plug-In . SVG Version: 6.00 Build 0)  -->
<svg version="1.1" xmlns="http://www.w3.org/2000/svg" xmlns:xlink="http://www.w3.org/1999/xlink" x="0px" y="0px"
	 viewBox="0 0 180 117.6" style="enable-background:new 0 0 180 117.6;" xml:space="preserve">
<style type="text/css">
	.st0{fill:#3D3D44;}
	.st1{fill:#FFFFFF;}
	.st2{fill:#3C64AE;}
	.st3{fill:#4177BB;}
	.st4{fill:#F7ABB5;}
	.st5{fill:#77B7E4;}
	.st6{fill:#D6D6D6;}
</style>
<g id="Layer_1">
	<g>
		<path class="st0" d="M158.9,97.1H21.1V14.9c0-2.7,2.2-4.9,4.9-4.9h127.9c2.8,0,5,2.2,5,5V97.1z"/>
		<path d="M154.6,10.5c2.1,0,3.8,1.7,3.8,3.8v82.8H21.6V14.3c0-2.1,1.7-3.8,3.8-3.8H154.6 M154.6,10H25.4c-2.4,0-4.3,1.9-4.3,4.3
			v82.8h137.8V14.3C158.9,11.9,157,10,154.6,10L154.6,10z"/>
	</g>
	<g>
		<rect x="25.1" y="14.1" class="st1" width="129.8" height="83"/>
		<path d="M154.4,14.7v82.5H25.6V14.7H154.4 M154.9,14.1H25.1v83h129.8V14.1L154.9,14.1z"/>
	</g>
	<g>
		<rect x="25.1" y="14.1" class="st2" width="129.8" height="6.2"/>
		<path d="M154.4,14.7v5.1H25.6v-5.1H154.4 M154.9,14.1H25.1v6.2h129.8V14.1L154.9,14.1z"/>
	</g>
	<g>
		<rect x="30.5" y="30.6" class="st3" width="63.4" height="36.5"/>
	</g>
	<g>
		<rect x="30.5" y="86.8" class="st4" width="17.7" height="5.8"/>
		<path d="M47.6,87.4v4.7H31v-4.7H47.6 M48.1,86.8H30.5v5.8h17.7V86.8L48.1,86.8z"/>
	</g>
	<g>
		<rect x="98.2" y="86.8" class="st4" width="8.8" height="5.8"/>
		<path d="M106.5,87.4v4.7h-7.8v-4.7H106.5 M107,86.8h-8.8v5.8h8.8V86.8L107,86.8z"/>
	</g>
	<g>
		<rect x="125.5" y="86.8" class="st4" width="8.8" height="5.8"/>
		<path d="M133.8,87.4v4.7H126v-4.7H133.8 M134.3,86.8h-8.8v5.8h8.8V86.8L134.3,86.8z"/>
	</g>
	<g>
		<rect x="98.2" y="44.9" class="st4" width="10.6" height="6"/>
		<path d="M108.2,45.5v4.9h-9.5v-4.9H108.2 M108.8,44.9H98.2v6h10.6V44.9L108.8,44.9z"/>
	</g>
	<g>
		<rect x="98.2" y="56.2" class="st5" width="24.8" height="9.2"/>
	</g>
	<g>
		<rect x="126" y="56.2" class="st3" width="24.1" height="9.2"/>
	</g>
	<rect x="30.5" y="24.6" width="27.8" height="0.5"/>
	<rect x="30.5" y="72" width="45.8" height="0.5"/>
	<rect x="29.9" y="76.1" width="17.7" height="0.5"/>
	<rect x="29.9" y="82.7" width="37" height="0.5"/>
	<rect x="69.1" y="82.7" width="9.9" height="0.5"/>
	<rect x="98.2" y="30.3" width="16.1" height="0.5"/>
	<rect x="116.4" y="30.3" width="32.4" height="0.5"/>
	<rect x="98.2" y="34.1" width="46.5" height="0.5"/>
	<rect x="98.2" y="39.8" width="41.7" height="0.5"/>
	<rect x="98.2" y="72" width="18.3" height="0.5"/>
	<rect x="98.2" y="76.1" width="10.6" height="0.5"/>
	<rect x="98.2" y="82.7" width="15.5" height="0.5"/>
	<rect x="125.5" y="72" width="24.6" height="0.5"/>
	<rect x="125.5" y="76.1" width="9.9" height="0.5"/>
	<rect x="125.5" y="82.7" width="18.3" height="0.5"/>
	<g>
		<path class="st6" d="M161.5,107.6H18.5c-5.8,0-10.4-4.7-10.4-10.4v0H172v0C172,102.9,167.3,107.6,161.5,107.6z"/>
		<path d="M171.4,97.7c-0.3,5.2-4.6,9.4-9.9,9.4H18.5c-5.3,0-9.6-4.1-9.9-9.4H171.4 M172,97.1H8c0,5.8,4.7,10.4,10.4,10.4h143.1
			C167.3,107.6,172,102.9,172,97.1L172,97.1z"/>
	</g>
	<g>
		<rect x="76.1" y="97.1" class="st6" width="27.7" height="3.3"/>
		<path d="M103.3,97.7v2.2H76.7v-2.2H103.3 M103.9,97.1H76.1v3.3h27.7V97.1L103.9,97.1z"/>
	</g>
</g>
<g id="Layer_2">
</g>
</svg>
