<?xml version="1.0" encoding="UTF-8"?>
<svg width="123px" height="123px" viewBox="0 0 123 123" version="1.1" xmlns="http://www.w3.org/2000/svg" xmlns:xlink="http://www.w3.org/1999/xlink">
    <!-- Generator: Sketch 46.1 (44463) - http://www.bohemiancoding.com/sketch -->
    <title>discourse</title>
    <desc>Created with Sketch.</desc>
    <defs></defs>
    <g id="Page-1" stroke="none" stroke-width="1" fill="none" fill-rule="evenodd">
        <g id="slack-svg-copy" fill-rule="nonzero">
            <g id="discourse">
                <path d="M0.0353090926,89.2798595 C0.0353090926,79.9509141 0.126786935,70.6149253 0.0353090926,61.2895015 C-0.323565519,32.1369874 20.6987463,7.63661997 48.4481978,1.50184349 C83.3012557,-6.20360482 114.882221,16.6732655 121.549549,48.791039 C125.870118,69.5936364 120.494035,88.1141815 106.012389,103.669467 C93.8915751,116.699704 78.6710695,122.975348 60.8715925,122.961261 C41.234349,122.947175 21.5959328,122.960088 1.95634378,123 C0.278077212,123 -0.00691144996,122.492877 0.000125307122,120.964466 C0.0634561209,110.406452 0.0353090926,99.8413949 0.0353090926,89.2798595 Z" id="Shape" fill="#1E191A"></path>
                <path d="M22.6784987,100.42029 L22.5797101,99.9125938 C22.8407942,99.3766924 22.9043012,98.777329 23.13716,98.2308506 C23.1690176,98.0546793 23.2150327,97.8813605 23.2747583,97.7125775 C25.2893396,92.3183068 27.7484695,87.1179478 30.0453039,81.8470754 C30.7159947,80.4804221 30.7950895,78.8983714 30.26405,77.4717225 C27.349787,69.1229428 27.392125,60.721278 30.4510427,52.4394859 C33.8416077,43.2727514 39.8641826,36.3201358 48.6034433,31.7473455 C61.00604,25.2164455 75.9881215,25.9777989 87.6637402,33.7322961 C88.6136991,34.327407 89.4111474,35.1363651 89.992328,36.0944931 C99.2290598,50.0490836 98.2447022,68.7527477 87.1274594,81.4627777 C79.7712387,89.8750195 70.4533592,94.4301814 59.1208984,94.6099904 C55.095264,94.6734524 51.1331365,94.3949247 47.2627412,93.2526086 C46.2325175,92.9494012 45.2940261,93.2244032 44.3378938,93.545239 C38.9280432,95.3480301 33.5181927,97.1472955 28.1083422,98.9430353 C26.3195633,99.5459244 24.5060874,100.004261 22.6784987,100.42029 Z" id="Shape" fill="#EFEA88"></path>
                <path d="M23.4037836,97.6901643 C23.396523,97.7810322 23.3607545,97.8672952 23.301571,97.9366708 C23.2545605,97.9967235 23.1849434,98.0348687 23.1089905,98.0421912 C23.0330375,98.0495136 22.957405,98.0253716 22.8997697,97.9754076 C24.0699278,92.0134714 25.2048401,86.0409706 26.4243421,80.089599 C26.7829657,78.6913781 26.5346951,77.2068796 25.7405751,76.0011123 C13.4045716,56.1855099 22.5402633,29.5381554 44.6040866,21.597124 C59.0830301,16.3852719 72.2719801,19.1320588 83.9136428,29.2000893 C84.2922917,29.5665842 84.6455635,29.9583765 84.9710145,30.372756 C84.2308543,30.7671664 83.7479879,30.203723 83.2334003,29.8726999 C78.3730149,26.7455887 73.1143529,24.6326757 67.3728244,23.9917587 C56.4607482,22.7768338 46.6412895,25.417975 38.1823157,32.5842716 C30.4916987,39.1307804 26.2586872,47.5577818 25.3352493,57.5518603 C24.7243274,64.0766987 25.9692405,70.6413183 28.9267886,76.4906038 C29.656375,77.9555569 29.5612116,79.2585199 29.0924435,80.7164299 C27.2561412,86.3860797 25.5572973,92.1155955 23.4037836,97.6901643 Z" id="Shape" fill="#E51520"></path>
                <path d="M22.5797101,100.330845 C30.1438016,97.7526857 37.70086,95.1886535 45.2684681,92.5787088 C46.0174925,92.3208929 46.6328881,92.5327964 47.2939988,92.7270413 C68.4425094,98.9993845 90.7409307,85.4622833 94.8271577,63.7351122 C96.4693849,54.9729029 95.1788123,46.5603344 90.807745,38.7093101 C90.3259782,37.8440376 89.8547609,36.9681698 89.3765106,36.0993655 C89.5242056,35.8027006 89.6472847,35.4459964 90.0798199,35.7991689 L94.2996757,40.3904112 C102.943347,52.36649 102.465097,71.3035985 92.6539319,83.7493968 C86.5949224,91.4379617 78.8092884,96.2870199 69.2056,98.1093899 C62.133825,99.4514453 55.2273277,98.7097831 48.4861081,96.234044 C47.5471902,95.8808715 46.6293716,95.527699 45.5919903,95.7360708 C39.5857289,97.0110235 33.6357323,98.4872844 27.597822,99.6562854 C26.6923804,99.6911877 25.7930832,99.821397 24.914697,100.044775 C24.1867719,100.581597 23.3779662,100.408543 22.5797101,100.330845 Z" id="Shape" fill="#01A950"></path>
                <path d="M90.9130435,35.6499993 L90.2064035,35.9483262 C87.1254534,32.3929725 82.9174125,30.6170506 78.592776,29.3570585 C63.5766772,24.9839385 50.3271783,28.2620236 39.3177279,39.3387226 C33.4314172,45.2526129 30.2409378,52.5598649 29.2975735,60.8568599 C28.6262656,66.7286334 29.4707003,72.3617455 31.4952237,77.8685075 C31.7142821,78.4651611 31.9863385,79.0161883 31.6754169,79.7076045 C29.0231617,85.6133054 26.3873947,91.5271957 23.7681159,97.4492754 C24.0825707,94.7046687 25.3863214,92.2408402 26.0752954,89.5980157 C26.8103283,86.7781081 27.6996602,84.0001271 28.739328,81.2764526 C29.5130987,79.2548497 29.4954327,77.514025 28.4814044,75.5345389 C25.6195126,69.9470533 24.7150135,63.8892642 25.1884622,57.7156541 C25.7559924,49.6848181 28.9864525,42.0671487 34.3747815,36.053618 C40.8440702,28.6831909 49.0375604,24.4399308 58.6973284,23.4186002 C68.1415713,22.4148182 77.016969,24.4715183 84.8430064,30.1046304 C85.0470001,30.2154875 85.2642338,30.3003887 85.4895819,30.3573308 C87.4116426,31.9998831 89.7435544,33.2388168 90.9130435,35.6499993 Z" id="Shape" fill="#F05C1E"></path>
                <path d="M27.3341913,99.5279473 L45.8119571,95.3049366 C46.3861688,95.1862665 46.9830008,95.2518979 47.5180309,95.4925473 C57.8390722,99.5916642 68.1706883,99.6447615 78.2167839,94.8412196 C90.2615237,89.081925 97.5511116,79.4854605 99.5885302,66.1438617 C100.93506,57.3332383 99.2184109,49.0606682 94.6536061,41.3898683 C94.5091392,41.0747457 94.3992199,40.7447829 94.3257862,40.4057971 C95.3832699,40.710222 95.7780638,41.7296915 96.3667298,42.487214 C113.103172,64.1261617 100.769387,96.8129019 73.9480745,102.002285 C64.8572393,103.772197 56.2175971,102.618214 48.0432478,98.2182122 C46.2455255,97.2518401 44.4689528,98.0872387 42.7170547,98.2465308 C37.8138551,98.6854691 32.9318052,99.3084782 28.0391804,99.8677705 C27.6866858,100.019983 27.3130416,100.193434 27.3341913,99.5279473 Z" id="Shape" fill="#01AFEF"></path>
                <path d="M27.7508813,99.2319973 L28.5217391,99.5295748 C27.3654524,99.8955952 26.1629142,99.8271524 24.9565217,99.8092977 C25.8035429,99.4259056 26.7690552,99.2264356 27.7508813,99.2319973 Z" id="Shape" fill="#03AED0"></path>
                <path d="M22.8282459,98.0726579 L23.173913,98.0434783 C23.1430088,98.485119 22.9408539,98.9043311 22.6008332,99.2318841 C22.5376262,98.8341967 22.6170867,98.4291503 22.8282459,98.0726579 L22.8282459,98.0726579 Z" id="Shape" fill="#F05C1E"></path>
            </g>
        </g>
    </g>
</svg>