<svg width="501" height="369" viewBox="0 0 501 369" fill="none" xmlns="http://www.w3.org/2000/svg">
<g opacity="0.4">
<path d="M0 289.462L28.75 303.804L57.5 318.146V289.462V260.731L28.75 275.073L0 289.462Z" fill="#005EFD"/>
<path d="M57.5 260.731L28.75 275.073L0 289.462V260.731V232L28.75 246.389L57.5 260.731Z" fill="#6AC399"/>
<path d="M131 28.7311L159.75 43.0731L188.5 57.4151V28.7311V0L159.75 14.342L131 28.7311Z" fill="#57B3DA"/>
<path d="M131 201.731L159.75 216.073L188.5 230.415V201.731V173L159.75 187.342L131 201.731Z" fill="#005EFD"/>
<path d="M271 339.731L299.75 354.073L328.5 368.462V339.731V311L299.75 325.389L271 339.731Z" fill="#57B3DA"/>
<path opacity="0.4" d="M328.5 311.415L357.25 325.804L386 340.146V311.415V282.731L357.25 297.073L328.5 311.415Z" fill="#005EFD"/>
<path d="M386 282.731L414.75 297.073L443.5 311.415V282.731V254L414.75 268.342L386 282.731Z" fill="#437DBF"/>
<path d="M58 318.731L86.75 333.073L115.5 347.415V318.731V290L86.75 304.342L58 318.731Z" fill="#57B3DA"/>
<path d="M443.5 311.415L414.75 325.804L386 340.146V311.415V282.731L414.75 297.073L443.5 311.415Z" fill="#1C4F9D"/>
<path d="M267.5 258.684L238.75 273.073L210 287.415V258.684V230L238.75 244.342L267.5 258.684Z" fill="#1C4F9D"/>
<path d="M440 57.7311L468.75 72.0731L497.5 86.4622V57.7311V29L468.75 43.389L440 57.7311Z" fill="#57B3DA"/>
<path d="M386.5 39.7311L357.75 54.0731L329 68.4151V39.7311V11L357.75 25.342L386.5 39.7311Z" fill="#437DBF"/>
<path d="M57.5001 28.6841L28.75 43.0731L0 57.4151V28.6841V0L28.75 14.342L57.5001 28.6841Z" fill="#437DBF"/>
<path d="M115 57.4152L86.2501 71.7572L57.5 86.1463V57.4152V28.6841L86.2501 43.0731L115 57.4152Z" fill="#005EFD"/>
<path d="M57.5 86.1462L86.2501 100.488L115 114.83V86.1462V57.415L86.2501 71.7571L57.5 86.1462Z" fill="#6AC399"/>
<path d="M500.5 179.731L471.75 194.073L443 208.415V179.731V151L471.75 165.342L500.5 179.731Z" fill="#6AC399"/>
</g>
</svg>
