<svg width="37" height="36" viewBox="0 0 37 36" fill="none" xmlns="http://www.w3.org/2000/svg">
<path fill-rule="evenodd" clip-rule="evenodd" d="M18.5002 32.4001C26.674 32.4001 33.3002 25.953 33.3002 18.0001C33.3002 10.0472 26.674 3.6001 18.5002 3.6001C10.3264 3.6001 3.7002 10.0472 3.7002 18.0001C3.7002 25.953 10.3264 32.4001 18.5002 32.4001ZM17.6764 12.9024C17.1087 12.5342 16.3788 12.4999 15.7773 12.8131C15.1757 13.1263 14.8002 13.7363 14.8002 14.4001V21.6001C14.8002 22.2639 15.1757 22.8739 15.7773 23.1871C16.3788 23.5003 17.1087 23.466 17.6764 23.0978L23.2264 19.4978C23.7411 19.164 24.0502 18.6019 24.0502 18.0001C24.0502 17.3983 23.7411 16.8362 23.2264 16.5024L17.6764 12.9024Z" fill="white"/>
</svg>