<svg width="88" height="64" viewBox="0 0 88 64" fill="none" xmlns="http://www.w3.org/2000/svg">
<g clip-path="url(#clip0_286_1644)">
<mask id="mask0_286_1644" style="mask-type:luminance" maskUnits="userSpaceOnUse" x="0" y="0" width="88" height="64">
<path d="M88 0H0V63.3333H88V0Z" fill="white"/>
</mask>
<g mask="url(#mask0_286_1644)">
<path d="M67.5186 20.9656C71.7261 21.3694 75.2561 22.3321 78.4383 24.4665C82.3693 27.0643 85.3268 30.9297 86.8356 35.4416C88.3444 39.9535 88.3169 44.8499 86.7576 49.3441C83.7953 58.0981 74.9368 63.9497 65.6561 63.2863C55.9 62.5869 48.1164 55.6536 46.5802 45.89C44.7 33.9308 49.2446 14.9553 66.5643 5.77219C71.9642 2.94922 77.7906 1.06402 83.8024 0.194566C84.0924 0.142545 84.3849 0.106421 84.6787 0.0863846C85.9736 0.0431192 87.4139 -0.198397 87.9142 1.48895C88.4144 3.1763 87.006 3.60536 86.0055 4.28679C81.8583 7.10264 77.6011 9.77784 73.61 12.8064C71.8149 14.1693 70.4951 16.1991 69.0654 18.0127C68.4516 18.7662 68.1253 19.7434 67.5186 20.9656Z" fill="#E3F2FE"/>
<path d="M21.459 20.8864C22.8994 21.1099 24.1162 21.2469 25.3083 21.4921C36.0222 23.7779 43.1601 34.3131 41.5814 45.4828C40.0595 56.2234 30.2289 64.1012 19.3978 63.2612C8.33263 62.4031 -0.114348 53.3354 -0.000822239 42.0648C0.116251 31.0718 3.2772 21.1063 10.9295 13.0012C16.7264 6.85395 24.0204 3.37468 32.0488 1.37005C34.3264 0.803998 36.6608 0.447023 38.981 0.0720564C40.1269 -0.115427 41.2763 -0.0324488 41.7056 1.3881C42.1348 2.80865 41.3011 3.4324 40.2865 4.10662C36.0293 6.94411 31.6586 9.66983 27.5823 12.7597C24.8201 14.8194 22.6954 17.6393 21.459 20.8864Z" fill="#E3F2FE"/>
</g>
</g>
<defs>
<clipPath id="clip0_286_1644">
<rect width="88" height="64" fill="white"/>
</clipPath>
</defs>
</svg>
