<svg width="44" height="44" viewBox="0 0 44 44" fill="none" xmlns="http://www.w3.org/2000/svg">
<path d="M32.892 14.9967C35.5614 16.126 38.7624 15.609 40.9367 13.4328C43.1147 11.2549 43.6335 8.19318 42.5024 5.52202L38.9952 9.16668H34.8335V5.00502L38.4782 1.49602C35.8089 0.366684 32.6757 0.885517 30.5014 3.06168C28.3234 5.23785 27.8394 8.43885 28.9687 11.1082L11.1084 29.0033C8.43902 27.874 5.23802 28.391 3.06369 30.569C0.885688 32.7433 0.366854 35.8069 1.49619 38.478L5.00519 34.8333H9.16685V38.995L5.52035 42.504C8.18969 43.6352 11.3229 43.1145 13.499 40.9383C15.677 38.7622 16.161 35.563 15.0317 32.8937L32.892 14.9967Z" stroke="#D6E2F6" stroke-width="1.5" stroke-miterlimit="10" stroke-linecap="round" stroke-linejoin="round"/>
<path d="M22.0002 25.9012L29.0036 32.8917C27.8742 35.561 28.3912 38.762 30.5692 40.9345C32.7454 43.1125 35.8071 43.6314 38.4782 42.5002L34.8336 38.9949V34.8332H38.9952L42.5042 38.4797C43.6336 35.8104 43.1147 32.6772 40.9386 30.501C38.7624 28.323 35.5614 27.8409 32.8921 28.9684L25.9071 21.998" stroke="#D6E2F6" stroke-width="1.5" stroke-miterlimit="10" stroke-linecap="round" stroke-linejoin="round"/>
<path d="M21.9984 18.0968L14.9969 11.1081C16.1263 8.43878 15.6093 5.23778 13.4313 3.06344C11.2569 0.885443 8.19343 0.36661 5.52226 1.49594L9.16693 5.00494V9.16661H5.00526L1.49626 5.52194C0.366928 8.19311 0.885761 11.3244 3.06193 13.4988C5.23626 15.6768 8.43909 16.1608 11.1084 15.0333L18.0916 22.0018" stroke="#D6E2F6" stroke-width="1.5" stroke-miterlimit="10" stroke-linecap="round" stroke-linejoin="round"/>
</svg>
