<svg width="81" height="24" viewBox="0 0 81 24" fill="none" xmlns="http://www.w3.org/2000/svg">
<g clip-path="url(#clip0)">
<path d="M28.466 9.41526C28.466 7.03215 30.2035 5.36809 33.3612 5.36809C35.2879 5.36809 36.8646 5.98324 37.7188 6.58586C37.841 6.6719 38.0591 6.88065 37.9283 7.26888C37.7607 7.68703 37.4534 8.31586 37.2329 8.72436C37.1046 8.96238 36.7768 8.93118 36.6089 8.8461C36.0005 8.5378 35.0026 8.01624 34.0859 7.92007C33.8538 7.89469 33.6202 7.88448 33.3868 7.88951C32.5794 7.90768 31.9048 8.188 31.6672 8.80397C31.6207 8.92051 31.5947 9.04426 31.5905 9.16968C31.5685 9.98137 32.6981 10.2749 34.0666 10.51C36.6108 10.9458 38.5354 11.6918 38.5354 14.3103C38.5354 16.5341 36.768 18.5437 33.3054 18.4821C31.0226 18.436 29.4031 17.6647 28.5353 16.9162C28.5057 16.8908 28.1754 16.5543 28.3524 16.1497C28.5551 15.6289 28.8972 15.0319 29.1656 14.7151C29.3148 14.5113 29.7087 14.479 29.9134 14.6058C30.6288 15.0504 31.806 15.7632 33.1631 15.8103C33.2702 15.8142 33.3763 15.8148 33.4805 15.8119C34.7012 15.7825 35.4397 15.3198 35.4243 14.5398C35.4111 13.8531 34.4432 13.4518 32.902 13.1615C30.444 12.6984 28.4665 11.8881 28.4665 9.41542L28.466 9.41526ZM50.7971 12.8088C49.0639 12.8314 47.4744 13.3052 47.4288 14.6599C47.4285 15.7347 48.3004 16.2627 49.5243 16.1936C50.6984 16.0805 51.5937 15.5712 51.9882 14.8957C52.134 14.6453 52.1562 13.7083 52.1474 13.3079C52.1451 13.2227 51.9766 13.0613 51.9029 13.0303C51.5346 12.8751 51.2619 12.8272 50.7973 12.8084L50.7971 12.8088ZM45.0297 7.35026C45.8403 6.62494 47.4474 5.49594 50.0089 5.55545C53.3888 5.62573 55.1746 7.21034 55.3407 11.001C55.4093 12.5642 55.2957 16.9245 55.2687 18.0109C55.2647 18.1669 55.2119 18.2747 55.0017 18.2785C54.4453 18.301 53.1593 18.292 52.5684 18.2843C52.2703 18.2698 52.2355 18.1219 52.2318 17.967C52.2293 17.8657 52.2206 17.5653 52.2141 17.3205C52.2109 17.1902 52.0887 17.1941 52.0577 17.2272C51.2648 18.074 49.9663 18.4828 48.5854 18.4828C46.4867 18.4828 44.3943 17.2481 44.4007 14.8031C44.4072 12.299 46.1827 11.0639 48.1332 10.7728C49.3822 10.5867 50.79 10.7519 51.8563 11.1757C51.9243 11.203 52.0638 11.1634 52.0647 11.0668C52.0691 10.7477 52.0535 10.1396 51.9924 9.85142C51.8359 9.11709 51.2233 8.52622 49.9364 8.367C49.6713 8.33435 49.4045 8.32358 49.1374 8.34481C48.1145 8.42522 46.8833 9.22292 46.3734 9.52157C46.2535 9.59169 46.0656 9.54039 46.0048 9.46206C45.7073 9.07769 44.9595 7.95352 44.9006 7.77388C44.8417 7.59472 44.9247 7.44386 45.0293 7.34962L45.0297 7.35026V7.35026ZM56.4553 12.0116C56.4352 8.5193 58.8685 5.57314 62.8196 5.54725C65.2851 5.53116 67.076 6.6489 67.3919 7.17609C67.4562 7.29992 67.4231 7.40333 67.3787 7.52797C67.17 7.96864 66.6428 8.82021 66.2671 9.30269C66.1071 9.50822 65.9334 9.33212 65.7315 9.19783C65.1714 8.82471 64.1072 8.36845 63.0596 8.36845C61.1593 8.36877 59.7442 9.67178 59.7599 12.069C59.7747 14.3695 61.1301 15.6337 63.0662 15.6796C64.0782 15.705 65.0588 15.1231 65.5863 14.6468C65.752 14.502 65.9234 14.5744 66.1127 14.7223C66.4842 15.1022 67.017 15.6884 67.3124 16.0919C67.5059 16.3161 67.3612 16.5355 67.2915 16.6236C66.49 17.638 64.9419 18.4916 62.893 18.5032C58.6033 18.5333 56.4752 15.517 56.4554 12.0123L56.4553 12.0116ZM76.9325 18.3456C77.1339 18.3306 79.2827 18.0341 79.9422 17.8831C80.106 17.8457 80.1642 17.7081 80.0725 17.5717C79.7042 17.0196 78.736 15.4512 77.7219 14.0472C76.7891 12.7563 75.8061 11.6208 75.488 11.184C75.4108 11.0779 75.4148 10.9733 75.4993 10.891C76.104 10.2992 78.6342 7.81843 79.5855 6.79397C79.9538 6.39544 79.7327 6.224 79.4199 6.13088C78.8157 5.95076 77.8383 5.72625 77.2825 5.609C77.0482 5.55947 76.7659 5.57684 76.561 5.78752C75.6099 6.67447 72.7072 9.58783 71.8408 10.4587C71.6848 10.6158 71.5938 10.5809 71.5931 10.3564C71.5859 8.6774 71.5529 1.48881 71.4928 0.306421C71.4886 0.150099 71.3006 0.0314093 71.1946 0.0257804C70.6497 -0.0025249 69.2732 -0.0107271 68.7308 0.0209555C68.5788 0.0383247 68.4336 0.193039 68.4204 0.324112C68.2952 2.21478 68.4734 16.0937 68.5477 18.0352C68.553 18.1758 68.6576 18.2845 68.7909 18.2925C69.3321 18.3239 70.6706 18.3218 71.2956 18.3102C71.6031 18.3102 71.6407 18.0939 71.6407 18.0939L71.6871 14.3697C71.6871 14.3697 71.7187 14.204 71.77 14.1493C71.9904 13.9121 72.5999 13.2588 72.8598 13.0063C72.9222 12.9459 73.0206 12.9501 73.0843 13.0359C73.3931 13.4525 74.2736 14.8066 75.0898 16.016C75.8397 17.127 76.5398 18.1132 76.5887 18.1827C76.7016 18.3435 76.8335 18.3499 76.9329 18.3467V18.3464L76.9325 18.3456ZM40.3877 18.3327C40.5766 18.3392 42.0104 18.3375 42.6457 18.3367C42.8596 18.3409 42.9705 18.1791 42.9778 18.036C43.1129 15.3139 43.055 2.35357 42.9697 0.307065C42.9626 0.130156 42.8869 0.0638959 42.7661 0.0478134C42.2209 -0.0252015 40.6714 -0.00815378 40.1747 0.121793C40.0776 0.147043 40.0203 0.220862 40.0171 0.315749C39.8957 5.59083 39.9777 17.7525 40.0035 17.9828C40.0292 18.2134 40.1498 18.325 40.3878 18.333H40.3875L40.3877 18.3327Z" fill="black"/>
<path d="M2.01563 12.9201C1.13206 12.9268 0.383577 12.4003 0.1076 11.5785C0.0973618 11.5474 0.0878171 11.5162 0.0789729 11.4847C-0.221771 10.4321 0.361222 9.33124 1.40659 8.97871L18.171 3.36219C18.3701 3.30461 18.5761 3.27452 18.7833 3.27277C19.6904 3.2657 20.4594 3.80382 20.7422 4.64301L20.7673 4.72406C21.0809 5.82025 20.3017 6.79872 19.3681 7.11233C19.3674 7.11281 19.1976 7.17022 2.69657 12.8039C2.4773 12.8787 2.24746 12.918 2.0158 12.9201H2.01563Z" fill="#70CADB"/>
<path d="M4.81007 21.1648C3.91958 21.1713 3.16853 20.6521 2.89577 19.842C2.88541 19.8112 2.87576 19.7801 2.86682 19.7488C2.56173 18.6841 3.14424 17.5712 4.19299 17.2183L20.9582 11.5504C21.1749 11.478 21.3986 11.441 21.6236 11.4389C22.5165 11.4322 23.301 11.9777 23.5776 12.7969L23.6033 12.8822C23.7655 13.4483 23.6698 14.0848 23.3476 14.5869C23.108 14.9605 22.351 15.2892 22.351 15.2892L5.52221 21.0434C5.29269 21.1211 5.05237 21.1622 4.81007 21.1651V21.1648V21.1648Z" fill="#E01765"/>
<path d="M18.7659 21.2007C18.3314 21.2049 17.9067 21.0714 17.5526 20.8194C17.1986 20.5674 16.9334 20.2098 16.795 19.7978L11.1999 3.17811L11.1719 3.08484C10.8686 2.025 11.4517 0.91948 12.4965 0.567272C12.7055 0.497152 12.9217 0.460484 13.1393 0.458554C13.4625 0.456142 13.7754 0.528996 14.07 0.674543C14.3127 0.794548 14.5293 0.96136 14.7073 1.16538C14.8854 1.36941 15.0213 1.60662 15.1073 1.86337L20.7018 18.4815L20.7179 18.5349C21.0323 19.6352 20.4506 20.7414 19.4055 21.0936C19.1992 21.1625 18.9833 21.1987 18.7658 21.2007H18.7659Z" fill="#E8A723"/>
<path d="M10.449 24C10.0142 24.0041 9.58928 23.8705 9.23508 23.6183C8.88088 23.3661 8.61562 23.0082 8.47731 22.596L2.8838 5.97689C2.79712 5.72051 2.76186 5.44955 2.78004 5.17952C2.79821 4.9095 2.86947 4.64571 2.98972 4.40326C3.10998 4.16081 3.27687 3.94445 3.48085 3.76658C3.68482 3.58872 3.92188 3.45282 4.17844 3.36669C4.38514 3.29759 4.6014 3.26134 4.81933 3.25926C5.25395 3.25496 5.67877 3.38839 6.03289 3.64041C6.38701 3.89243 6.65224 4.25009 6.79057 4.66214L12.3844 21.2819C12.4711 21.5384 12.5064 21.8095 12.4881 22.0796C12.4699 22.3498 12.3985 22.6137 12.2781 22.8562C12.1577 23.0987 11.9906 23.3151 11.7864 23.4929C11.5822 23.6708 11.3449 23.8066 11.0881 23.8925C10.8817 23.9617 10.6657 23.9979 10.4481 23.9998H10.4489L10.449 24Z" fill="#3EB890"/>
<path d="M16.0074 17.4579L19.9087 16.124L18.6333 12.3365L14.7275 13.6564L16.0072 17.4577L16.0074 17.4579Z" fill="#CC2027"/>
<path d="M7.70365 20.2972L11.6046 18.9635L10.3196 15.1471L6.41479 16.4675L7.70365 20.2972V20.2972Z" fill="#361238"/>
<path d="M13.23 9.20827L17.1317 7.87615L15.8713 4.13293L11.9624 5.44254L13.23 9.20827Z" fill="#65863A"/>
<path d="M4.92516 12.0436L8.82678 10.7115L7.55096 6.92053L3.64209 8.22997L4.92516 12.0436V12.0436Z" fill="#1A937D"/>
</g>
<defs>
<clipPath id="clip0">
<rect width="80.1156" height="24" fill="white"/>
</clipPath>
</defs>
</svg>
