<?xml version="1.0" encoding="utf-8"?>
<!-- Generator: Adobe Illustrator 24.1.2, SVG Export Plug-In . SVG Version: 6.00 Build 0)  -->
<svg version="1.1" id="Layer_1" xmlns="http://www.w3.org/2000/svg" xmlns:xlink="http://www.w3.org/1999/xlink" x="0px" y="0px"
	 viewBox="0 0 1300 374.2" style="enable-background:new 0 0 1300 374.2;" xml:space="preserve">
<style type="text/css">
	.st0{fill:#F1F0F0;}
	.st1{enable-background:new    ;}
	.st2{fill:#888888;}
	.st3{fill:none;stroke:#888888;stroke-width:2;stroke-miterlimit:10;}
	.st4{fill:#FFFFFF;stroke:#212960;stroke-width:2;stroke-miterlimit:10;}
	.st5{fill:#212960;}
</style>
<path class="st0" d="M1125.5,265.1v80c0,5.5-4.5,10-10,10h-931c-5.5,0-10-4.5-10-10v-80c0-5.5,4.5-10,10-10h931
	C1121,255.1,1125.5,259.6,1125.5,265.1z"/>
<g>
	<g class="st1">
		<path class="st2" d="M177.7,30.6c-1.2-1.1-1.9-2.7-1.9-4.8c0-0.4,0-1.1,0-2.1c0-1,0-1.7,0-2.2c0.1-2,0.7-3.6,2-4.8
			c1.2-1.1,2.9-1.7,5.1-1.7c1.4,0,2.7,0.2,3.7,0.7c1.1,0.5,1.9,1.2,2.4,2c0.6,0.8,0.9,1.8,0.9,2.8v0c0,0.1-0.1,0.2-0.2,0.3
			s-0.2,0.1-0.3,0.1h-2.3c-0.2,0-0.3,0-0.4-0.1c-0.1-0.1-0.2-0.2-0.2-0.5c-0.3-1-0.7-1.7-1.3-2.1c-0.6-0.4-1.4-0.6-2.4-0.6
			c-2.3,0-3.5,1.3-3.6,3.9c0,0.4,0,1.1,0,2s0,1.6,0,2c0.1,2.6,1.3,3.9,3.6,3.9c1,0,1.8-0.2,2.4-0.6c0.6-0.4,1-1.1,1.3-2.1
			c0-0.2,0.1-0.4,0.2-0.5c0.1-0.1,0.3-0.1,0.4-0.1h2.3c0.1,0,0.3,0,0.4,0.1c0.1,0.1,0.1,0.2,0.1,0.4c0,1.1-0.3,2-0.9,2.8
			c-0.6,0.8-1.4,1.5-2.4,2c-1.1,0.5-2.3,0.7-3.7,0.7C180.7,32.3,179,31.8,177.7,30.6z"/>
		<path class="st2" d="M192.7,31.9c-0.1-0.1-0.2-0.2-0.2-0.4V15.6c0-0.2,0.1-0.3,0.2-0.4s0.2-0.2,0.4-0.2h2c0.2,0,0.3,0.1,0.4,0.2
			c0.1,0.1,0.2,0.2,0.2,0.4v15.9c0,0.2-0.1,0.3-0.2,0.4c-0.1,0.1-0.2,0.2-0.4,0.2h-2C193,32.1,192.8,32,192.7,31.9z"/>
		<path class="st2" d="M200,30.9c-0.8-1-1.3-2.3-1.3-3.9v-6.7c0-0.2,0.1-0.3,0.2-0.4c0.1-0.1,0.2-0.2,0.4-0.2h2.1
			c0.2,0,0.3,0.1,0.4,0.2c0.1,0.1,0.2,0.2,0.2,0.4v6.6c0,2,0.9,3,2.6,3c0.8,0,1.5-0.3,2-0.8c0.5-0.5,0.7-1.3,0.7-2.2v-6.6
			c0-0.2,0.1-0.3,0.2-0.4c0.1-0.1,0.2-0.2,0.4-0.2h2.1c0.2,0,0.3,0.1,0.4,0.2c0.1,0.1,0.2,0.2,0.2,0.4v11.3c0,0.2-0.1,0.3-0.2,0.4
			c-0.1,0.1-0.2,0.2-0.4,0.2h-1.9c-0.2,0-0.3-0.1-0.4-0.2c-0.1-0.1-0.2-0.2-0.2-0.4v-1c-0.9,1.2-2.2,1.8-4,1.8
			C202,32.3,200.9,31.8,200,30.9z"/>
		<path class="st2" d="M215.5,31.8c-0.8-0.4-1.4-0.8-1.8-1.3c-0.4-0.5-0.6-0.9-0.6-1.3c0-0.2,0.1-0.3,0.2-0.4
			c0.1-0.1,0.2-0.1,0.4-0.1h1.9c0.1,0,0.3,0.1,0.4,0.2c0.1,0,0.2,0.2,0.5,0.4c0.3,0.3,0.6,0.5,1,0.6c0.4,0.1,0.8,0.2,1.2,0.2
			c0.6,0,1.2-0.1,1.6-0.4s0.6-0.6,0.6-1.1c0-0.3-0.1-0.6-0.3-0.8c-0.2-0.2-0.5-0.4-1-0.6s-1.2-0.3-2.1-0.5c-1.4-0.3-2.4-0.7-3-1.3
			s-1-1.4-1-2.4c0-0.6,0.2-1.2,0.6-1.8c0.4-0.6,1-1,1.7-1.4c0.8-0.4,1.7-0.5,2.7-0.5c1.1,0,2,0.2,2.8,0.5c0.8,0.3,1.4,0.8,1.8,1.2
			c0.4,0.5,0.6,0.9,0.6,1.3c0,0.1-0.1,0.3-0.2,0.4c-0.1,0.1-0.2,0.2-0.4,0.2h-1.8c-0.1,0-0.3-0.1-0.4-0.2c-0.1-0.1-0.3-0.2-0.5-0.5
			c-0.2-0.2-0.5-0.4-0.8-0.5c-0.3-0.1-0.7-0.2-1.1-0.2c-0.6,0-1.1,0.1-1.4,0.4c-0.3,0.3-0.5,0.6-0.5,1c0,0.3,0.1,0.6,0.2,0.7
			c0.2,0.2,0.5,0.4,0.9,0.6c0.5,0.2,1.2,0.4,2.1,0.5c1.5,0.3,2.6,0.8,3.3,1.4c0.7,0.6,1,1.4,1,2.4c0,1.1-0.5,2-1.5,2.7
			c-1,0.7-2.3,1.1-4.1,1.1C217.3,32.3,216.3,32.1,215.5,31.8z"/>
		<path class="st2" d="M228.9,30.9c-0.7-0.8-1.1-1.9-1.1-3.3v-5.4h-1.9c-0.2,0-0.3-0.1-0.4-0.2s-0.2-0.3-0.2-0.4v-1.4
			c0-0.2,0.1-0.3,0.2-0.4c0.1-0.1,0.2-0.2,0.4-0.2h1.9v-4c0-0.2,0.1-0.3,0.2-0.4s0.2-0.2,0.4-0.2h1.9c0.2,0,0.3,0.1,0.4,0.2
			s0.2,0.2,0.2,0.4v4h3c0.2,0,0.3,0.1,0.4,0.2c0.1,0.1,0.2,0.2,0.2,0.4v1.4c0,0.2-0.1,0.3-0.2,0.4c-0.1,0.1-0.2,0.2-0.4,0.2h-3v5.2
			c0,0.7,0.1,1.2,0.4,1.6c0.2,0.4,0.6,0.5,1.2,0.5h1.7c0.2,0,0.3,0.1,0.4,0.2c0.1,0.1,0.2,0.2,0.2,0.4v1.5c0,0.2-0.1,0.3-0.2,0.4
			c-0.1,0.1-0.2,0.2-0.4,0.2h-1.9C230.7,32.1,229.6,31.7,228.9,30.9z"/>
		<path class="st2" d="M237.9,30.8c-1-1-1.6-2.5-1.7-4.4l0-0.6l0-0.6c0.1-1.8,0.6-3.3,1.7-4.3c1-1,2.5-1.6,4.2-1.6
			c1.9,0,3.3,0.6,4.4,1.7c1,1.2,1.5,2.7,1.5,4.6v0.5c0,0.2-0.1,0.3-0.2,0.4c-0.1,0.1-0.3,0.2-0.4,0.2h-8V27c0,0.9,0.3,1.6,0.7,2.2
			c0.5,0.6,1.1,0.9,1.9,0.9c0.9,0,1.7-0.4,2.3-1.1c0.1-0.2,0.3-0.3,0.3-0.3c0.1,0,0.2-0.1,0.4-0.1h2.1c0.1,0,0.3,0,0.4,0.1
			s0.2,0.2,0.2,0.3c0,0.4-0.2,0.8-0.7,1.4c-0.5,0.5-1.1,1-2,1.4c-0.8,0.4-1.8,0.6-3,0.6C240.4,32.3,239,31.8,237.9,30.8z
			 M244.8,24.8L244.8,24.8c0-1-0.2-1.8-0.7-2.4c-0.5-0.6-1.1-0.9-2-0.9s-1.5,0.3-1.9,0.9c-0.5,0.6-0.7,1.3-0.7,2.3v0.1H244.8z"/>
		<path class="st2" d="M250.8,31.9c-0.1-0.1-0.2-0.2-0.2-0.4V20.2c0-0.2,0.1-0.3,0.2-0.4c0.1-0.1,0.2-0.2,0.4-0.2h1.9
			c0.2,0,0.3,0.1,0.4,0.2c0.1,0.1,0.2,0.3,0.2,0.4v1c0.4-0.5,0.9-0.9,1.5-1.2c0.6-0.3,1.3-0.4,2-0.4h1c0.2,0,0.3,0.1,0.4,0.2
			c0.1,0.1,0.2,0.2,0.2,0.4v1.7c0,0.2-0.1,0.3-0.2,0.4c-0.1,0.1-0.2,0.2-0.4,0.2h-1.9c-0.8,0-1.3,0.2-1.8,0.6
			c-0.4,0.4-0.6,1-0.6,1.8v6.6c0,0.2-0.1,0.3-0.2,0.4c-0.1,0.1-0.3,0.2-0.4,0.2h-2.1C251.1,32.1,250.9,32,250.8,31.9z"/>
		<path class="st2" d="M260.8,23.5c-0.1-0.1-0.2-0.2-0.2-0.4v-2.3c0-0.2,0.1-0.3,0.2-0.4c0.1-0.1,0.2-0.2,0.4-0.2h2.4
			c0.2,0,0.3,0.1,0.4,0.2c0.1,0.1,0.2,0.3,0.2,0.4v2.3c0,0.2-0.1,0.3-0.2,0.4c-0.1,0.1-0.3,0.2-0.4,0.2h-2.4
			C261,23.7,260.9,23.6,260.8,23.5z M260.8,31.9c-0.1-0.1-0.2-0.2-0.2-0.4v-2.3c0-0.2,0.1-0.3,0.2-0.4c0.1-0.1,0.2-0.2,0.4-0.2h2.4
			c0.2,0,0.3,0.1,0.4,0.2c0.1,0.1,0.2,0.3,0.2,0.4v2.3c0,0.2-0.1,0.3-0.2,0.4c-0.1,0.1-0.3,0.2-0.4,0.2h-2.4
			C261,32.1,260.9,32,260.8,31.9z"/>
		<path class="st2" d="M275.1,31.9c-0.1-0.1-0.2-0.3-0.3-0.4l-3.4-11.1c0,0,0-0.1,0-0.2c0-0.1,0.1-0.3,0.2-0.4
			c0.1-0.1,0.2-0.2,0.3-0.2h1.8c0.2,0,0.3,0,0.4,0.1c0.1,0.1,0.2,0.2,0.2,0.3l2.4,7.9l2.5-7.9c0-0.1,0.1-0.3,0.3-0.4
			c0.1-0.1,0.3-0.2,0.5-0.2h1.2c0.2,0,0.3,0.1,0.5,0.2c0.1,0.1,0.2,0.2,0.3,0.4l2.5,7.9l2.4-7.9c0-0.1,0.1-0.2,0.2-0.3
			s0.3-0.1,0.4-0.1h1.8c0.1,0,0.3,0.1,0.4,0.2c0.1,0.1,0.2,0.2,0.2,0.4l0,0.2l-3.4,11.1c-0.1,0.2-0.2,0.3-0.3,0.4
			c-0.1,0.1-0.3,0.2-0.5,0.2h-1.6c-0.4,0-0.7-0.2-0.8-0.6l-2.5-7.6l-2.5,7.6c-0.1,0.4-0.4,0.6-0.8,0.6h-1.5
			C275.4,32.1,275.2,32,275.1,31.9z"/>
		<path class="st2" d="M292.7,30.8c-1-1-1.6-2.5-1.7-4.4l0-0.6l0-0.6c0.1-1.8,0.6-3.3,1.7-4.3c1-1,2.5-1.6,4.2-1.6
			c1.9,0,3.3,0.6,4.4,1.7c1,1.2,1.5,2.7,1.5,4.6v0.5c0,0.2-0.1,0.3-0.2,0.4c-0.1,0.1-0.3,0.2-0.4,0.2h-8V27c0,0.9,0.3,1.6,0.7,2.2
			c0.5,0.6,1.1,0.9,1.9,0.9c0.9,0,1.7-0.4,2.3-1.1c0.1-0.2,0.3-0.3,0.3-0.3c0.1,0,0.2-0.1,0.4-0.1h2.1c0.1,0,0.3,0,0.4,0.1
			s0.2,0.2,0.2,0.3c0,0.4-0.2,0.8-0.7,1.4c-0.5,0.5-1.1,1-2,1.4c-0.8,0.4-1.8,0.6-3,0.6C295.1,32.3,293.7,31.8,292.7,30.8z
			 M299.6,24.8L299.6,24.8c0-1-0.2-1.8-0.7-2.4c-0.5-0.6-1.1-0.9-2-0.9s-1.5,0.3-1.9,0.9c-0.5,0.6-0.7,1.3-0.7,2.3v0.1H299.6z"/>
		<path class="st2" d="M307.1,31.8c-0.8-0.4-1.4-0.8-1.8-1.3c-0.4-0.5-0.6-0.9-0.6-1.3c0-0.2,0.1-0.3,0.2-0.4
			c0.1-0.1,0.2-0.1,0.4-0.1h1.9c0.1,0,0.3,0.1,0.4,0.2c0.1,0,0.2,0.2,0.5,0.4c0.3,0.3,0.6,0.5,1,0.6c0.4,0.1,0.8,0.2,1.2,0.2
			c0.6,0,1.2-0.1,1.6-0.4s0.6-0.6,0.6-1.1c0-0.3-0.1-0.6-0.3-0.8c-0.2-0.2-0.5-0.4-1-0.6s-1.2-0.3-2.1-0.5c-1.4-0.3-2.4-0.7-3-1.3
			s-1-1.4-1-2.4c0-0.6,0.2-1.2,0.6-1.8c0.4-0.6,1-1,1.7-1.4c0.8-0.4,1.7-0.5,2.7-0.5c1.1,0,2,0.2,2.8,0.5c0.8,0.3,1.4,0.8,1.8,1.2
			c0.4,0.5,0.6,0.9,0.6,1.3c0,0.1-0.1,0.3-0.2,0.4c-0.1,0.1-0.2,0.2-0.4,0.2h-1.8c-0.1,0-0.3-0.1-0.4-0.2c-0.1-0.1-0.3-0.2-0.5-0.5
			c-0.2-0.2-0.5-0.4-0.8-0.5c-0.3-0.1-0.7-0.2-1.1-0.2c-0.6,0-1.1,0.1-1.4,0.4c-0.3,0.3-0.5,0.6-0.5,1c0,0.3,0.1,0.6,0.2,0.7
			c0.2,0.2,0.5,0.4,0.9,0.6c0.5,0.2,1.2,0.4,2.1,0.5c1.5,0.3,2.6,0.8,3.3,1.4c0.7,0.6,1,1.4,1,2.4c0,1.1-0.5,2-1.5,2.7
			c-1,0.7-2.3,1.1-4.1,1.1C308.9,32.3,307.9,32.1,307.1,31.8z"/>
		<path class="st2" d="M320.4,30.9c-0.7-0.8-1.1-1.9-1.1-3.3v-5.4h-1.9c-0.2,0-0.3-0.1-0.4-0.2s-0.2-0.3-0.2-0.4v-1.4
			c0-0.2,0.1-0.3,0.2-0.4c0.1-0.1,0.2-0.2,0.4-0.2h1.9v-4c0-0.2,0.1-0.3,0.2-0.4s0.2-0.2,0.4-0.2h1.9c0.2,0,0.3,0.1,0.4,0.2
			s0.2,0.2,0.2,0.4v4h3c0.2,0,0.3,0.1,0.4,0.2c0.1,0.1,0.2,0.2,0.2,0.4v1.4c0,0.2-0.1,0.3-0.2,0.4c-0.1,0.1-0.2,0.2-0.4,0.2h-3v5.2
			c0,0.7,0.1,1.2,0.4,1.6c0.2,0.4,0.6,0.5,1.2,0.5h1.7c0.2,0,0.3,0.1,0.4,0.2c0.1,0.1,0.2,0.2,0.2,0.4v1.5c0,0.2-0.1,0.3-0.2,0.4
			c-0.1,0.1-0.2,0.2-0.4,0.2h-1.9C322.3,32.1,321.2,31.7,320.4,30.9z"/>
	</g>
</g>
<path class="st0" d="M584.1,47.9H184.5c-5.5,0-10,4.5-10,10v140.3c0,5.5,4.5,10,10,10h399.6c5.5,0,10-4.5,10-10V57.9
	C594.1,52.4,589.7,47.9,584.1,47.9z"/>
<path class="st3" d="M584.1,47.9H184.5c-5.5,0-10,4.5-10,10v140.3c0,5.5,4.5,10,10,10h399.6c5.5,0,10-4.5,10-10V57.9
	C594.1,52.4,589.7,47.9,584.1,47.9z"/>
<path class="st4" d="M565.2,88.3v80c0,5.5-4.5,10-10,10H213.4c-5.5,0-10-4.5-10-10v-80c0-5.5,4.5-10,10-10h341.8
	C560.7,78.3,565.2,82.8,565.2,88.3z"/>
<g>
	<g class="st1">
		<path class="st5" d="M287.4,134.9c-0.1-0.1-0.2-0.2-0.2-0.4v-15.6c0-0.2,0.1-0.3,0.2-0.4c0.1-0.1,0.2-0.2,0.4-0.2h2.3
			c0.2,0,0.3,0.1,0.4,0.2c0.1,0.1,0.2,0.2,0.2,0.4v15.6c0,0.2-0.1,0.3-0.2,0.4c-0.1,0.1-0.2,0.2-0.4,0.2h-2.3
			C287.6,135.1,287.5,135,287.4,134.9z"/>
		<path class="st5" d="M295.8,134.8c-0.8-0.4-1.4-0.8-1.8-1.3c-0.4-0.5-0.6-0.9-0.6-1.3c0-0.2,0.1-0.3,0.2-0.4
			c0.1-0.1,0.2-0.1,0.4-0.1h1.9c0.1,0,0.3,0.1,0.4,0.2c0.1,0,0.2,0.2,0.5,0.4c0.3,0.3,0.6,0.5,1,0.6c0.4,0.1,0.8,0.2,1.2,0.2
			c0.6,0,1.2-0.1,1.6-0.4s0.6-0.6,0.6-1.1c0-0.3-0.1-0.6-0.3-0.8c-0.2-0.2-0.5-0.4-1-0.6s-1.2-0.3-2.1-0.5c-1.4-0.3-2.4-0.7-3-1.3
			s-1-1.4-1-2.4c0-0.6,0.2-1.2,0.6-1.8c0.4-0.6,1-1,1.7-1.4c0.8-0.4,1.7-0.5,2.7-0.5c1.1,0,2,0.2,2.8,0.5c0.8,0.3,1.4,0.8,1.8,1.2
			c0.4,0.5,0.6,0.9,0.6,1.3c0,0.1-0.1,0.3-0.2,0.4c-0.1,0.1-0.2,0.2-0.4,0.2h-1.8c-0.1,0-0.3-0.1-0.4-0.2c-0.1-0.1-0.3-0.2-0.5-0.5
			c-0.2-0.2-0.5-0.4-0.8-0.5c-0.3-0.1-0.7-0.2-1.1-0.2c-0.6,0-1.1,0.1-1.4,0.4c-0.3,0.3-0.5,0.6-0.5,1c0,0.3,0.1,0.6,0.2,0.7
			c0.2,0.2,0.5,0.4,0.9,0.6c0.5,0.2,1.2,0.4,2.1,0.5c1.5,0.3,2.6,0.8,3.3,1.4c0.7,0.6,1,1.4,1,2.4c0,1.1-0.5,2-1.5,2.7
			c-1,0.7-2.3,1.1-4.1,1.1C297.6,135.3,296.6,135.1,295.8,134.8z"/>
		<path class="st5" d="M308.6,134.8c-0.8-0.4-1.4-0.8-1.8-1.3c-0.4-0.5-0.6-0.9-0.6-1.3c0-0.2,0.1-0.3,0.2-0.4
			c0.1-0.1,0.2-0.1,0.4-0.1h1.9c0.1,0,0.3,0.1,0.4,0.2c0.1,0,0.2,0.2,0.5,0.4c0.3,0.3,0.6,0.5,1,0.6c0.4,0.1,0.8,0.2,1.2,0.2
			c0.6,0,1.2-0.1,1.6-0.4s0.6-0.6,0.6-1.1c0-0.3-0.1-0.6-0.3-0.8c-0.2-0.2-0.5-0.4-1-0.6s-1.2-0.3-2.1-0.5c-1.4-0.3-2.4-0.7-3-1.3
			s-1-1.4-1-2.4c0-0.6,0.2-1.2,0.6-1.8c0.4-0.6,1-1,1.7-1.4c0.8-0.4,1.7-0.5,2.7-0.5c1.1,0,2,0.2,2.8,0.5c0.8,0.3,1.4,0.8,1.8,1.2
			c0.4,0.5,0.6,0.9,0.6,1.3c0,0.1-0.1,0.3-0.2,0.4c-0.1,0.1-0.2,0.2-0.4,0.2h-1.8c-0.1,0-0.3-0.1-0.4-0.2c-0.1-0.1-0.3-0.2-0.5-0.5
			c-0.2-0.2-0.5-0.4-0.8-0.5c-0.3-0.1-0.7-0.2-1.1-0.2c-0.6,0-1.1,0.1-1.4,0.4c-0.3,0.3-0.5,0.6-0.5,1c0,0.3,0.1,0.6,0.2,0.7
			c0.2,0.2,0.5,0.4,0.9,0.6c0.5,0.2,1.2,0.4,2.1,0.5c1.5,0.3,2.6,0.8,3.3,1.4c0.7,0.6,1,1.4,1,2.4c0,1.1-0.5,2-1.5,2.7
			c-1,0.7-2.3,1.1-4.1,1.1C310.4,135.3,309.4,135.1,308.6,134.8z"/>
		<path class="st5" d="M320.8,133.9c-0.8-1-1.3-2.3-1.3-3.9v-6.7c0-0.2,0.1-0.3,0.2-0.4c0.1-0.1,0.2-0.2,0.4-0.2h2.1
			c0.2,0,0.3,0.1,0.4,0.2c0.1,0.1,0.2,0.2,0.2,0.4v6.6c0,2,0.9,3,2.6,3c0.8,0,1.5-0.3,2-0.8c0.5-0.5,0.7-1.3,0.7-2.2v-6.6
			c0-0.2,0.1-0.3,0.2-0.4c0.1-0.1,0.2-0.2,0.4-0.2h2.1c0.2,0,0.3,0.1,0.4,0.2c0.1,0.1,0.2,0.2,0.2,0.4v11.3c0,0.2-0.1,0.3-0.2,0.4
			c-0.1,0.1-0.2,0.2-0.4,0.2h-1.9c-0.2,0-0.3-0.1-0.4-0.2c-0.1-0.1-0.2-0.2-0.2-0.4v-1c-0.9,1.2-2.2,1.8-4,1.8
			C322.8,135.3,321.6,134.8,320.8,133.9z"/>
		<path class="st5" d="M335.7,133.8c-1-1-1.6-2.5-1.7-4.4l0-0.6l0-0.6c0.1-1.8,0.6-3.3,1.7-4.3c1-1,2.5-1.6,4.2-1.6
			c1.9,0,3.3,0.6,4.4,1.7c1,1.2,1.5,2.7,1.5,4.6v0.5c0,0.2-0.1,0.3-0.2,0.4c-0.1,0.1-0.3,0.2-0.4,0.2h-8v0.2c0,0.9,0.3,1.6,0.7,2.2
			c0.5,0.6,1.1,0.9,1.9,0.9c0.9,0,1.7-0.4,2.3-1.1c0.1-0.2,0.3-0.3,0.3-0.3c0.1,0,0.2-0.1,0.4-0.1h2.1c0.1,0,0.3,0,0.4,0.1
			s0.2,0.2,0.2,0.3c0,0.4-0.2,0.8-0.7,1.4c-0.5,0.5-1.1,1-2,1.4c-0.8,0.4-1.8,0.6-3,0.6C338.1,135.3,336.7,134.8,335.7,133.8z
			 M342.6,127.8L342.6,127.8c0-1-0.2-1.8-0.7-2.4c-0.5-0.6-1.1-0.9-2-0.9s-1.5,0.3-1.9,0.9c-0.5,0.6-0.7,1.3-0.7,2.3v0.1H342.6z"/>
		<path class="st5" d="M348.6,134.9c-0.1-0.1-0.2-0.2-0.2-0.4v-11.3c0-0.2,0.1-0.3,0.2-0.4c0.1-0.1,0.2-0.2,0.4-0.2h1.9
			c0.2,0,0.3,0.1,0.4,0.2c0.1,0.1,0.2,0.3,0.2,0.4v1c0.4-0.5,0.9-0.9,1.5-1.2c0.6-0.3,1.3-0.4,2-0.4h1c0.2,0,0.3,0.1,0.4,0.2
			c0.1,0.1,0.2,0.2,0.2,0.4v1.7c0,0.2-0.1,0.3-0.2,0.4c-0.1,0.1-0.2,0.2-0.4,0.2h-1.9c-0.8,0-1.3,0.2-1.8,0.6
			c-0.4,0.4-0.6,1-0.6,1.8v6.6c0,0.2-0.1,0.3-0.2,0.4c-0.1,0.1-0.3,0.2-0.4,0.2H349C348.8,135.1,348.7,135,348.6,134.9z"/>
		<path class="st5" d="M365,133.6c-1.2-1.1-1.9-2.7-1.9-4.8c0-0.4,0-1.1,0-2.1c0-1,0-1.7,0-2.2c0.1-2,0.7-3.6,2-4.8
			c1.2-1.1,2.9-1.7,5.1-1.7c1.4,0,2.7,0.2,3.7,0.7c1.1,0.5,1.9,1.2,2.4,2c0.6,0.8,0.9,1.8,0.9,2.8v0c0,0.1-0.1,0.2-0.2,0.3
			s-0.2,0.1-0.3,0.1h-2.3c-0.2,0-0.3,0-0.4-0.1c-0.1-0.1-0.2-0.2-0.2-0.5c-0.3-1-0.7-1.7-1.3-2.1c-0.6-0.4-1.4-0.6-2.4-0.6
			c-2.3,0-3.5,1.3-3.6,3.9c0,0.4,0,1.1,0,2s0,1.6,0,2c0.1,2.6,1.3,3.9,3.6,3.9c1,0,1.8-0.2,2.4-0.6c0.6-0.4,1-1.1,1.3-2.1
			c0-0.2,0.1-0.4,0.2-0.5c0.1-0.1,0.3-0.1,0.4-0.1h2.3c0.1,0,0.3,0,0.4,0.1c0.1,0.1,0.1,0.2,0.1,0.4c0,1.1-0.3,2-0.9,2.8
			c-0.6,0.8-1.4,1.5-2.4,2c-1.1,0.5-2.3,0.7-3.7,0.7C367.9,135.3,366.2,134.8,365,133.6z"/>
		<path class="st5" d="M380.9,133.8c-1-1-1.6-2.5-1.7-4.4l0-0.6l0-0.6c0.1-1.8,0.6-3.3,1.7-4.3c1-1,2.5-1.6,4.2-1.6
			c1.9,0,3.3,0.6,4.4,1.7c1,1.2,1.5,2.7,1.5,4.6v0.5c0,0.2-0.1,0.3-0.2,0.4c-0.1,0.1-0.3,0.2-0.4,0.2h-8v0.2c0,0.9,0.3,1.6,0.7,2.2
			c0.5,0.6,1.1,0.9,1.9,0.9c0.9,0,1.7-0.4,2.3-1.1c0.1-0.2,0.3-0.3,0.3-0.3c0.1,0,0.2-0.1,0.4-0.1h2.1c0.1,0,0.3,0,0.4,0.1
			s0.2,0.2,0.2,0.3c0,0.4-0.2,0.8-0.7,1.4c-0.5,0.5-1.1,1-2,1.4c-0.8,0.4-1.8,0.6-3,0.6C383.4,135.3,382,134.8,380.9,133.8z
			 M387.8,127.8L387.8,127.8c0-1-0.2-1.8-0.7-2.4c-0.5-0.6-1.1-0.9-2-0.9s-1.5,0.3-1.9,0.9c-0.5,0.6-0.7,1.3-0.7,2.3v0.1H387.8z"/>
		<path class="st5" d="M393.8,134.9c-0.1-0.1-0.2-0.2-0.2-0.4v-11.3c0-0.2,0.1-0.3,0.2-0.4c0.1-0.1,0.2-0.2,0.4-0.2h1.9
			c0.2,0,0.3,0.1,0.4,0.2c0.1,0.1,0.2,0.3,0.2,0.4v1c0.4-0.5,0.9-0.9,1.5-1.2c0.6-0.3,1.3-0.4,2-0.4h1c0.2,0,0.3,0.1,0.4,0.2
			c0.1,0.1,0.2,0.2,0.2,0.4v1.7c0,0.2-0.1,0.3-0.2,0.4c-0.1,0.1-0.2,0.2-0.4,0.2h-1.9c-0.8,0-1.3,0.2-1.8,0.6
			c-0.4,0.4-0.6,1-0.6,1.8v6.6c0,0.2-0.1,0.3-0.2,0.4c-0.1,0.1-0.3,0.2-0.4,0.2h-2.1C394.1,135.1,393.9,135,393.8,134.9z"/>
		<path class="st5" d="M406,133.9c-0.7-0.8-1.1-1.9-1.1-3.3v-5.4H403c-0.2,0-0.3-0.1-0.4-0.2s-0.2-0.3-0.2-0.4v-1.4
			c0-0.2,0.1-0.3,0.2-0.4c0.1-0.1,0.2-0.2,0.4-0.2h1.9v-4c0-0.2,0.1-0.3,0.2-0.4s0.2-0.2,0.4-0.2h1.9c0.2,0,0.3,0.1,0.4,0.2
			s0.2,0.2,0.2,0.4v4h3c0.2,0,0.3,0.1,0.4,0.2c0.1,0.1,0.2,0.2,0.2,0.4v1.4c0,0.2-0.1,0.3-0.2,0.4c-0.1,0.1-0.2,0.2-0.4,0.2h-3v5.2
			c0,0.7,0.1,1.2,0.4,1.6c0.2,0.4,0.6,0.5,1.2,0.5h1.7c0.2,0,0.3,0.1,0.4,0.2c0.1,0.1,0.2,0.2,0.2,0.4v1.5c0,0.2-0.1,0.3-0.2,0.4
			c-0.1,0.1-0.2,0.2-0.4,0.2h-1.9C407.8,135.1,406.7,134.7,406,133.9z"/>
		<path class="st5" d="M414,120.4c-0.1-0.1-0.2-0.2-0.2-0.4v-1.7c0-0.2,0.1-0.3,0.2-0.4s0.2-0.2,0.4-0.2h2.2c0.2,0,0.3,0.1,0.4,0.2
			s0.2,0.2,0.2,0.4v1.7c0,0.2-0.1,0.3-0.2,0.4c-0.1,0.1-0.3,0.2-0.4,0.2h-2.2C414.3,120.5,414.1,120.5,414,120.4z M414.1,134.9
			c-0.1-0.1-0.2-0.2-0.2-0.4v-11.3c0-0.2,0.1-0.3,0.2-0.4c0.1-0.1,0.2-0.2,0.4-0.2h2c0.2,0,0.3,0.1,0.4,0.2c0.1,0.1,0.2,0.2,0.2,0.4
			v11.3c0,0.2-0.1,0.3-0.2,0.4c-0.1,0.1-0.2,0.2-0.4,0.2h-2C414.4,135.1,414.2,135,414.1,134.9z"/>
		<path class="st5" d="M421.8,134.9c-0.1-0.1-0.2-0.2-0.2-0.4v-9.4h-1.9c-0.2,0-0.3-0.1-0.4-0.2c-0.1-0.1-0.2-0.3-0.2-0.4v-1.4
			c0-0.2,0.1-0.3,0.2-0.4c0.1-0.1,0.2-0.2,0.4-0.2h1.9v-1c0-2.9,1.6-4.3,4.7-4.3h4.9c0.2,0,0.3,0.1,0.4,0.2c0.1,0.1,0.2,0.2,0.2,0.4
			v1.4c0,0.2-0.1,0.3-0.2,0.4c-0.1,0.1-0.2,0.2-0.4,0.2h-4.8c-0.6,0-1.1,0.2-1.3,0.5s-0.4,0.8-0.4,1.4v0.9h6.5
			c0.2,0,0.3,0.1,0.4,0.2c0.1,0.1,0.2,0.2,0.2,0.4v11.3c0,0.2-0.1,0.3-0.2,0.4c-0.1,0.1-0.2,0.2-0.4,0.2h-1.9
			c-0.2,0-0.3-0.1-0.4-0.2c-0.1-0.1-0.2-0.2-0.2-0.4v-9.4h-4v9.4c0,0.2-0.1,0.3-0.2,0.4c-0.1,0.1-0.2,0.2-0.4,0.2h-2
			C422,135.1,421.9,135,421.8,134.9z"/>
		<path class="st5" d="M436.2,133.9c-1-1-1.6-2.3-1.7-4.1l0-1l0-1c0.1-1.7,0.6-3.1,1.7-4.1c1-1,2.5-1.5,4.2-1.5
			c1.2,0,2.3,0.2,3.2,0.7c0.9,0.4,1.5,1,1.9,1.6c0.4,0.6,0.7,1.3,0.7,1.8c0,0.2,0,0.3-0.2,0.4c-0.1,0.1-0.3,0.2-0.4,0.2h-2.1
			c-0.2,0-0.3,0-0.4-0.1c-0.1-0.1-0.2-0.2-0.3-0.4c-0.2-0.6-0.6-1.1-0.9-1.3c-0.4-0.3-0.9-0.4-1.5-0.4c-0.8,0-1.5,0.3-1.9,0.8
			c-0.5,0.5-0.7,1.3-0.7,2.4l0,0.9l0,0.8c0.1,2.1,1,3.1,2.7,3.1c0.6,0,1.1-0.1,1.5-0.4c0.4-0.3,0.7-0.7,0.9-1.3
			c0.1-0.2,0.2-0.3,0.3-0.4s0.2-0.1,0.4-0.1h2.1c0.2,0,0.3,0.1,0.4,0.2c0.1,0.1,0.2,0.2,0.2,0.4c0,0.6-0.3,1.2-0.7,1.8
			c-0.4,0.6-1.1,1.2-1.9,1.7c-0.9,0.5-1.9,0.7-3.2,0.7C438.6,135.3,437.2,134.8,436.2,133.9z"/>
		<path class="st5" d="M450.1,134.8c-0.7-0.3-1.2-0.8-1.6-1.3c-0.4-0.6-0.6-1.2-0.6-1.8c0-1.1,0.4-2,1.3-2.6s2.1-1.1,3.6-1.4
			l3.3-0.5v-0.5c0-0.7-0.2-1.2-0.5-1.6c-0.4-0.4-0.9-0.5-1.7-0.5c-0.5,0-1,0.1-1.3,0.3c-0.3,0.2-0.6,0.4-0.8,0.6
			c-0.2,0.2-0.3,0.3-0.4,0.4c-0.1,0.2-0.2,0.3-0.4,0.3h-1.8c-0.1,0-0.3,0-0.4-0.1c-0.1-0.1-0.2-0.2-0.2-0.4c0-0.4,0.2-0.9,0.6-1.4
			c0.4-0.5,1-1,1.7-1.3c0.8-0.4,1.7-0.6,2.9-0.6c1.9,0,3.3,0.4,4.1,1.3c0.9,0.8,1.3,2,1.3,3.3v7.5c0,0.2-0.1,0.3-0.2,0.4
			c-0.1,0.1-0.2,0.2-0.4,0.2h-1.9c-0.2,0-0.3-0.1-0.4-0.2c-0.1-0.1-0.2-0.2-0.2-0.4v-0.9c-0.4,0.5-0.9,0.9-1.5,1.3s-1.5,0.5-2.4,0.5
			C451.5,135.3,450.8,135.2,450.1,134.8z M455.3,132.2c0.6-0.6,0.8-1.4,0.8-2.5v-0.5l-2.4,0.4c-0.9,0.1-1.6,0.4-2.1,0.7
			c-0.5,0.3-0.7,0.7-0.7,1.2c0,0.5,0.2,0.9,0.6,1.2c0.4,0.3,1,0.4,1.6,0.4C454,133,454.7,132.8,455.3,132.2z"/>
		<path class="st5" d="M464.7,133.9c-0.7-0.8-1.1-1.9-1.1-3.3v-5.4h-1.9c-0.2,0-0.3-0.1-0.4-0.2s-0.2-0.3-0.2-0.4v-1.4
			c0-0.2,0.1-0.3,0.2-0.4c0.1-0.1,0.2-0.2,0.4-0.2h1.9v-4c0-0.2,0.1-0.3,0.2-0.4s0.2-0.2,0.4-0.2h1.9c0.2,0,0.3,0.1,0.4,0.2
			s0.2,0.2,0.2,0.4v4h3c0.2,0,0.3,0.1,0.4,0.2c0.1,0.1,0.2,0.2,0.2,0.4v1.4c0,0.2-0.1,0.3-0.2,0.4c-0.1,0.1-0.2,0.2-0.4,0.2h-3v5.2
			c0,0.7,0.1,1.2,0.4,1.6c0.2,0.4,0.6,0.5,1.2,0.5h1.7c0.2,0,0.3,0.1,0.4,0.2c0.1,0.1,0.2,0.2,0.2,0.4v1.5c0,0.2-0.1,0.3-0.2,0.4
			c-0.1,0.1-0.2,0.2-0.4,0.2h-1.9C466.5,135.1,465.4,134.7,464.7,133.9z"/>
		<path class="st5" d="M473.7,133.8c-1-1-1.6-2.5-1.7-4.4l0-0.6l0-0.6c0.1-1.8,0.6-3.3,1.7-4.3c1-1,2.5-1.6,4.2-1.6
			c1.9,0,3.3,0.6,4.4,1.7c1,1.2,1.5,2.7,1.5,4.6v0.5c0,0.2-0.1,0.3-0.2,0.4c-0.1,0.1-0.3,0.2-0.4,0.2h-8v0.2c0,0.9,0.3,1.6,0.7,2.2
			c0.5,0.6,1.1,0.9,1.9,0.9c0.9,0,1.7-0.4,2.3-1.1c0.1-0.2,0.3-0.3,0.3-0.3c0.1,0,0.2-0.1,0.4-0.1h2.1c0.1,0,0.3,0,0.4,0.1
			s0.2,0.2,0.2,0.3c0,0.4-0.2,0.8-0.7,1.4c-0.5,0.5-1.1,1-2,1.4c-0.8,0.4-1.8,0.6-3,0.6C476.2,135.3,474.8,134.8,473.7,133.8z
			 M480.6,127.8L480.6,127.8c0-1-0.2-1.8-0.7-2.4c-0.5-0.6-1.1-0.9-2-0.9s-1.5,0.3-1.9,0.9c-0.5,0.6-0.7,1.3-0.7,2.3v0.1H480.6z"/>
	</g>
</g>
<path class="st3" d="M1125.5,265.1v80c0,5.5-4.5,10-10,10h-931c-5.5,0-10-4.5-10-10v-80c0-5.5,4.5-10,10-10h931
	C1121,255.1,1125.5,259.6,1125.5,265.1z"/>
<g>
	<g class="st1">
		<path class="st2" d="M580.7,311.7c-0.1-0.1-0.2-0.2-0.2-0.4v-13.3h-4.4c-0.2,0-0.3-0.1-0.4-0.2c-0.1-0.1-0.2-0.2-0.2-0.4v-1.8
			c0-0.2,0.1-0.3,0.2-0.4c0.1-0.1,0.2-0.2,0.4-0.2h12.2c0.2,0,0.3,0.1,0.4,0.2c0.1,0.1,0.2,0.3,0.2,0.4v1.8c0,0.2-0.1,0.3-0.2,0.4
			s-0.3,0.2-0.4,0.2h-4.4v13.3c0,0.2-0.1,0.3-0.2,0.4c-0.1,0.1-0.3,0.2-0.4,0.2h-2.2C581,311.9,580.8,311.8,580.7,311.7z"/>
		<path class="st2" d="M589.6,311.7c-0.1-0.1-0.2-0.2-0.2-0.4V300c0-0.2,0.1-0.3,0.2-0.4c0.1-0.1,0.2-0.2,0.4-0.2h1.9
			c0.2,0,0.3,0.1,0.4,0.2c0.1,0.1,0.2,0.3,0.2,0.4v1c0.4-0.5,0.9-0.9,1.5-1.2c0.6-0.3,1.3-0.4,2-0.4h1c0.2,0,0.3,0.1,0.4,0.2
			c0.1,0.1,0.2,0.2,0.2,0.4v1.7c0,0.2-0.1,0.3-0.2,0.4s-0.2,0.2-0.4,0.2h-1.9c-0.8,0-1.3,0.2-1.8,0.6s-0.6,1-0.6,1.8v6.6
			c0,0.2-0.1,0.3-0.2,0.4c-0.1,0.1-0.3,0.2-0.4,0.2H590C589.9,311.9,589.8,311.8,589.6,311.7z"/>
		<path class="st2" d="M600.6,310.7c-0.8-1-1.3-2.3-1.3-3.9V300c0-0.2,0.1-0.3,0.2-0.4c0.1-0.1,0.2-0.2,0.4-0.2h2.1
			c0.2,0,0.3,0.1,0.4,0.2c0.1,0.1,0.2,0.2,0.2,0.4v6.6c0,2,0.9,3,2.6,3c0.8,0,1.5-0.3,2-0.8c0.5-0.5,0.7-1.3,0.7-2.2V300
			c0-0.2,0.1-0.3,0.2-0.4c0.1-0.1,0.2-0.2,0.4-0.2h2.1c0.2,0,0.3,0.1,0.4,0.2c0.1,0.1,0.2,0.2,0.2,0.4v11.3c0,0.2-0.1,0.3-0.2,0.4
			c-0.1,0.1-0.2,0.2-0.4,0.2h-1.9c-0.2,0-0.3-0.1-0.4-0.2c-0.1-0.1-0.2-0.2-0.2-0.4v-1c-0.9,1.2-2.2,1.8-4,1.8
			C602.6,312.1,601.5,311.7,600.6,310.7z"/>
		<path class="st2" d="M616.1,311.6c-0.8-0.4-1.4-0.8-1.8-1.3c-0.4-0.5-0.6-0.9-0.6-1.3c0-0.2,0.1-0.3,0.2-0.4
			c0.1-0.1,0.2-0.1,0.4-0.1h1.9c0.1,0,0.3,0.1,0.4,0.2c0.1,0,0.2,0.2,0.5,0.4c0.3,0.3,0.6,0.5,1,0.6c0.4,0.1,0.8,0.2,1.2,0.2
			c0.6,0,1.2-0.1,1.6-0.4s0.6-0.6,0.6-1.1c0-0.3-0.1-0.6-0.3-0.8c-0.2-0.2-0.5-0.4-1-0.6s-1.2-0.3-2.1-0.5c-1.4-0.3-2.4-0.7-3-1.3
			s-1-1.4-1-2.4c0-0.6,0.2-1.2,0.6-1.8c0.4-0.6,1-1,1.7-1.4c0.8-0.4,1.7-0.5,2.7-0.5c1.1,0,2,0.2,2.8,0.5c0.8,0.3,1.4,0.8,1.8,1.2
			c0.4,0.5,0.6,0.9,0.6,1.3c0,0.1-0.1,0.3-0.2,0.4c-0.1,0.1-0.2,0.2-0.4,0.2h-1.8c-0.1,0-0.3-0.1-0.4-0.2c-0.1-0.1-0.3-0.2-0.5-0.5
			c-0.2-0.2-0.5-0.4-0.8-0.5c-0.3-0.1-0.7-0.2-1.1-0.2c-0.6,0-1.1,0.1-1.4,0.4c-0.3,0.3-0.5,0.6-0.5,1c0,0.3,0.1,0.6,0.2,0.7
			c0.2,0.2,0.5,0.4,0.9,0.6c0.5,0.2,1.2,0.4,2.1,0.5c1.5,0.3,2.6,0.8,3.3,1.4c0.7,0.6,1,1.4,1,2.4c0,1.1-0.5,2-1.5,2.7
			c-1,0.7-2.3,1.1-4.1,1.1C617.9,312.1,616.9,312,616.1,311.6z"/>
		<path class="st2" d="M629.5,310.8c-0.7-0.8-1.1-1.9-1.1-3.3V302h-1.9c-0.2,0-0.3-0.1-0.4-0.2c-0.1-0.1-0.2-0.3-0.2-0.4V300
			c0-0.2,0.1-0.3,0.2-0.4c0.1-0.1,0.2-0.2,0.4-0.2h1.9v-4c0-0.2,0.1-0.3,0.2-0.4c0.1-0.1,0.2-0.2,0.4-0.2h1.9c0.2,0,0.3,0.1,0.4,0.2
			c0.1,0.1,0.2,0.2,0.2,0.4v4h3c0.2,0,0.3,0.1,0.4,0.2c0.1,0.1,0.2,0.2,0.2,0.4v1.4c0,0.2-0.1,0.3-0.2,0.4s-0.2,0.2-0.4,0.2h-3v5.2
			c0,0.7,0.1,1.2,0.4,1.6c0.2,0.4,0.6,0.5,1.2,0.5h1.7c0.2,0,0.3,0.1,0.4,0.2c0.1,0.1,0.2,0.2,0.2,0.4v1.5c0,0.2-0.1,0.3-0.2,0.4
			c-0.1,0.1-0.2,0.2-0.4,0.2h-1.9C631.3,311.9,630.2,311.5,629.5,310.8z"/>
		<path class="st2" d="M641.2,311.8c-0.1-0.1-0.2-0.2-0.2-0.4l0-0.2l5.8-15.5c0.1-0.4,0.4-0.6,0.8-0.6h2.6c0.4,0,0.7,0.2,0.8,0.6
			l5.8,15.5c0,0,0,0.1,0,0.2c0,0.1,0,0.3-0.1,0.4c-0.1,0.1-0.2,0.1-0.3,0.1h-2.1c-0.2,0-0.4,0-0.5-0.1c-0.1-0.1-0.2-0.2-0.2-0.3
			l-1.1-2.9h-7.1l-1.1,2.9c-0.1,0.3-0.4,0.5-0.7,0.5h-2.1C641.4,311.9,641.3,311.9,641.2,311.8z M651.7,305.8l-2.7-7.4l-2.7,7.4
			H651.7z"/>
		<path class="st2" d="M659.1,311.7c-0.1-0.1-0.2-0.2-0.2-0.4V300c0-0.2,0.1-0.3,0.2-0.4c0.1-0.1,0.2-0.2,0.4-0.2h2
			c0.2,0,0.3,0.1,0.4,0.2c0.1,0.1,0.2,0.2,0.2,0.4v1c0.9-1.2,2.3-1.8,4-1.8c1.5,0,2.6,0.5,3.5,1.5s1.3,2.3,1.3,3.9v6.7
			c0,0.2-0.1,0.3-0.2,0.4c-0.1,0.1-0.2,0.2-0.4,0.2h-2.1c-0.2,0-0.3-0.1-0.4-0.2c-0.1-0.1-0.2-0.2-0.2-0.4v-6.6
			c0-0.9-0.2-1.7-0.7-2.2s-1.1-0.8-2-0.8c-0.8,0-1.5,0.3-2,0.8c-0.5,0.5-0.7,1.3-0.7,2.2v6.6c0,0.2-0.1,0.3-0.2,0.4
			c-0.1,0.1-0.2,0.2-0.4,0.2h-2.1C659.3,311.9,659.2,311.8,659.1,311.7z"/>
		<path class="st2" d="M675.1,310.7c-1-1-1.6-2.3-1.7-4.1l0-1l0-1c0.1-1.7,0.6-3.1,1.7-4.1c1-1,2.5-1.5,4.2-1.5
			c1.2,0,2.3,0.2,3.2,0.7c0.9,0.4,1.5,1,1.9,1.6c0.4,0.6,0.7,1.3,0.7,1.8c0,0.2,0,0.3-0.2,0.4c-0.1,0.1-0.3,0.2-0.4,0.2h-2.1
			c-0.2,0-0.3,0-0.4-0.1s-0.2-0.2-0.3-0.4c-0.2-0.6-0.6-1.1-0.9-1.3c-0.4-0.3-0.9-0.4-1.5-0.4c-0.8,0-1.5,0.3-1.9,0.8
			s-0.7,1.3-0.7,2.4l0,0.9l0,0.8c0.1,2.1,1,3.1,2.7,3.1c0.6,0,1.1-0.1,1.5-0.4c0.4-0.3,0.7-0.7,0.9-1.3c0.1-0.2,0.2-0.3,0.3-0.4
			s0.2-0.1,0.4-0.1h2.1c0.2,0,0.3,0.1,0.4,0.2c0.1,0.1,0.2,0.3,0.2,0.4c0,0.6-0.3,1.2-0.7,1.8s-1.1,1.2-1.9,1.7
			c-0.9,0.5-1.9,0.7-3.2,0.7C677.5,312.1,676.1,311.7,675.1,310.7z"/>
		<path class="st2" d="M687.8,311.7c-0.1-0.1-0.2-0.2-0.2-0.4v-15.9c0-0.2,0.1-0.3,0.2-0.4c0.1-0.1,0.2-0.2,0.4-0.2h2.1
			c0.2,0,0.3,0.1,0.4,0.2c0.1,0.1,0.2,0.2,0.2,0.4v5.5c1-1.2,2.3-1.7,3.9-1.7c1.5,0,2.6,0.5,3.5,1.5s1.3,2.3,1.3,3.9v6.7
			c0,0.2-0.1,0.3-0.2,0.4c-0.1,0.1-0.2,0.2-0.4,0.2h-2.2c-0.2,0-0.3-0.1-0.4-0.2c-0.1-0.1-0.2-0.2-0.2-0.4v-6.6
			c0-0.9-0.2-1.7-0.7-2.2s-1.1-0.8-2-0.8c-0.8,0-1.5,0.3-2,0.8s-0.7,1.3-0.7,2.2v6.6c0,0.2-0.1,0.3-0.2,0.4
			c-0.1,0.1-0.2,0.2-0.4,0.2h-2.1C688,311.9,687.9,311.8,687.8,311.7z"/>
		<path class="st2" d="M703.9,310.7c-1-1-1.6-2.3-1.7-4l0-1.1l0-1.1c0.1-1.7,0.6-3,1.7-4c1-1,2.5-1.5,4.3-1.5c1.8,0,3.3,0.5,4.3,1.5
			c1,1,1.6,2.3,1.7,4c0,0.2,0,0.5,0,1.1c0,0.5,0,0.9,0,1.1c-0.1,1.7-0.6,3-1.7,4c-1,1-2.5,1.5-4.3,1.5S704.9,311.7,703.9,310.7z
			 M710.2,309c0.5-0.5,0.7-1.3,0.8-2.4c0-0.2,0-0.5,0-0.9c0-0.5,0-0.8,0-0.9c0-1-0.3-1.8-0.8-2.4c-0.5-0.5-1.1-0.8-2-0.8
			c-0.8,0-1.5,0.3-2,0.8c-0.5,0.5-0.7,1.3-0.8,2.4l0,0.9l0,0.9c0,1,0.3,1.8,0.8,2.4c0.5,0.5,1.1,0.8,2,0.8
			C709,309.8,709.7,309.5,710.2,309z"/>
		<path class="st2" d="M717.1,311.7c-0.1-0.1-0.2-0.2-0.2-0.4V300c0-0.2,0.1-0.3,0.2-0.4c0.1-0.1,0.2-0.2,0.4-0.2h1.9
			c0.2,0,0.3,0.1,0.4,0.2c0.1,0.1,0.2,0.3,0.2,0.4v1c0.4-0.5,0.9-0.9,1.5-1.2c0.6-0.3,1.3-0.4,2-0.4h1c0.2,0,0.3,0.1,0.4,0.2
			c0.1,0.1,0.2,0.2,0.2,0.4v1.7c0,0.2-0.1,0.3-0.2,0.4c-0.1,0.1-0.2,0.2-0.4,0.2h-1.9c-0.8,0-1.3,0.2-1.8,0.6
			c-0.4,0.4-0.6,1-0.6,1.8v6.6c0,0.2-0.1,0.3-0.2,0.4c-0.1,0.1-0.3,0.2-0.4,0.2h-2.1C717.3,311.9,717.2,311.8,717.1,311.7z"/>
	</g>
</g>
<g>
	<g class="st1">
		<path class="st2" d="M709.1,30.6c-1.2-1.1-1.9-2.7-1.9-4.8c0-0.4,0-1.1,0-2.1c0-1,0-1.7,0-2.2c0.1-2,0.7-3.6,2-4.8
			c1.2-1.1,2.9-1.7,5.1-1.7c1.4,0,2.7,0.2,3.7,0.7s1.9,1.2,2.4,2c0.6,0.8,0.9,1.8,0.9,2.8v0c0,0.1-0.1,0.2-0.2,0.3
			c-0.1,0.1-0.2,0.1-0.3,0.1h-2.3c-0.2,0-0.3,0-0.4-0.1c-0.1-0.1-0.2-0.2-0.2-0.5c-0.3-1-0.7-1.7-1.3-2.1s-1.4-0.6-2.4-0.6
			c-2.3,0-3.5,1.3-3.6,3.9c0,0.4,0,1.1,0,2s0,1.6,0,2c0.1,2.6,1.3,3.9,3.6,3.9c1,0,1.8-0.2,2.4-0.6c0.6-0.4,1-1.1,1.3-2.1
			c0-0.2,0.1-0.4,0.2-0.5s0.3-0.1,0.4-0.1h2.3c0.1,0,0.3,0,0.4,0.1c0.1,0.1,0.1,0.2,0.1,0.4c0,1.1-0.3,2-0.9,2.8
			c-0.6,0.8-1.4,1.5-2.4,2c-1.1,0.5-2.3,0.7-3.7,0.7C712,32.3,710.3,31.8,709.1,30.6z"/>
		<path class="st2" d="M724.1,31.9c-0.1-0.1-0.2-0.2-0.2-0.4V15.6c0-0.2,0.1-0.3,0.2-0.4c0.1-0.1,0.2-0.2,0.4-0.2h2
			c0.2,0,0.3,0.1,0.4,0.2c0.1,0.1,0.2,0.2,0.2,0.4v15.9c0,0.2-0.1,0.3-0.2,0.4c-0.1,0.1-0.2,0.2-0.4,0.2h-2
			C724.3,32.1,724.2,32,724.1,31.9z"/>
		<path class="st2" d="M731.4,30.9c-0.8-1-1.3-2.3-1.3-3.9v-6.7c0-0.2,0.1-0.3,0.2-0.4c0.1-0.1,0.2-0.2,0.4-0.2h2.1
			c0.2,0,0.3,0.1,0.4,0.2c0.1,0.1,0.2,0.2,0.2,0.4v6.6c0,2,0.9,3,2.6,3c0.8,0,1.5-0.3,2-0.8c0.5-0.5,0.7-1.3,0.7-2.2v-6.6
			c0-0.2,0.1-0.3,0.2-0.4c0.1-0.1,0.2-0.2,0.4-0.2h2.1c0.2,0,0.3,0.1,0.4,0.2c0.1,0.1,0.2,0.2,0.2,0.4v11.3c0,0.2-0.1,0.3-0.2,0.4
			c-0.1,0.1-0.2,0.2-0.4,0.2h-1.9c-0.2,0-0.3-0.1-0.4-0.2c-0.1-0.1-0.2-0.2-0.2-0.4v-1c-0.9,1.2-2.2,1.8-4,1.8
			C733.4,32.3,732.2,31.8,731.4,30.9z"/>
		<path class="st2" d="M746.8,31.8c-0.8-0.4-1.4-0.8-1.8-1.3c-0.4-0.5-0.6-0.9-0.6-1.3c0-0.2,0.1-0.3,0.2-0.4
			c0.1-0.1,0.2-0.1,0.4-0.1h1.9c0.1,0,0.3,0.1,0.4,0.2c0.1,0,0.2,0.2,0.5,0.4c0.3,0.3,0.6,0.5,1,0.6c0.4,0.1,0.8,0.2,1.2,0.2
			c0.6,0,1.2-0.1,1.6-0.4s0.6-0.6,0.6-1.1c0-0.3-0.1-0.6-0.3-0.8c-0.2-0.2-0.5-0.4-1-0.6c-0.5-0.2-1.2-0.3-2.1-0.5
			c-1.4-0.3-2.4-0.7-3-1.3c-0.6-0.6-1-1.4-1-2.4c0-0.6,0.2-1.2,0.6-1.8c0.4-0.6,1-1,1.7-1.4c0.8-0.4,1.7-0.5,2.7-0.5
			c1.1,0,2,0.2,2.8,0.5c0.8,0.3,1.4,0.8,1.8,1.2c0.4,0.5,0.6,0.9,0.6,1.3c0,0.1-0.1,0.3-0.2,0.4c-0.1,0.1-0.2,0.2-0.4,0.2h-1.8
			c-0.1,0-0.3-0.1-0.4-0.2c-0.1-0.1-0.3-0.2-0.5-0.5c-0.2-0.2-0.5-0.4-0.8-0.5c-0.3-0.1-0.7-0.2-1.1-0.2c-0.6,0-1.1,0.1-1.4,0.4
			c-0.3,0.3-0.5,0.6-0.5,1c0,0.3,0.1,0.6,0.2,0.7c0.2,0.2,0.5,0.4,0.9,0.6s1.2,0.4,2.1,0.5c1.5,0.3,2.6,0.8,3.3,1.4
			c0.7,0.6,1,1.4,1,2.4c0,1.1-0.5,2-1.5,2.7c-1,0.7-2.3,1.1-4.1,1.1C748.7,32.3,747.6,32.1,746.8,31.8z"/>
		<path class="st2" d="M760.2,30.9c-0.7-0.8-1.1-1.9-1.1-3.3v-5.4h-1.9c-0.2,0-0.3-0.1-0.4-0.2c-0.1-0.1-0.2-0.3-0.2-0.4v-1.4
			c0-0.2,0.1-0.3,0.2-0.4c0.1-0.1,0.2-0.2,0.4-0.2h1.9v-4c0-0.2,0.1-0.3,0.2-0.4c0.1-0.1,0.2-0.2,0.4-0.2h1.9c0.2,0,0.3,0.1,0.4,0.2
			c0.1,0.1,0.2,0.2,0.2,0.4v4h3c0.2,0,0.3,0.1,0.4,0.2c0.1,0.1,0.2,0.2,0.2,0.4v1.4c0,0.2-0.1,0.3-0.2,0.4c-0.1,0.1-0.2,0.2-0.4,0.2
			h-3v5.2c0,0.7,0.1,1.2,0.4,1.6c0.2,0.4,0.6,0.5,1.2,0.5h1.7c0.2,0,0.3,0.1,0.4,0.2c0.1,0.1,0.2,0.2,0.2,0.4v1.5
			c0,0.2-0.1,0.3-0.2,0.4c-0.1,0.1-0.2,0.2-0.4,0.2h-1.9C762,32.1,760.9,31.7,760.2,30.9z"/>
		<path class="st2" d="M769.3,30.8c-1-1-1.6-2.5-1.7-4.4l0-0.6l0-0.6c0.1-1.8,0.6-3.3,1.7-4.3s2.5-1.6,4.2-1.6
			c1.9,0,3.3,0.6,4.4,1.7c1,1.2,1.5,2.7,1.5,4.6v0.5c0,0.2-0.1,0.3-0.2,0.4c-0.1,0.1-0.3,0.2-0.4,0.2h-8V27c0,0.9,0.3,1.6,0.7,2.2
			c0.5,0.6,1.1,0.9,1.9,0.9c0.9,0,1.7-0.4,2.3-1.1c0.1-0.2,0.3-0.3,0.3-0.3c0.1,0,0.2-0.1,0.4-0.1h2.1c0.1,0,0.3,0,0.4,0.1
			c0.1,0.1,0.2,0.2,0.2,0.3c0,0.4-0.2,0.8-0.7,1.4c-0.5,0.5-1.1,1-2,1.4s-1.8,0.6-3,0.6C771.7,32.3,770.3,31.8,769.3,30.8z
			 M776.2,24.8L776.2,24.8c0-1-0.2-1.8-0.7-2.4s-1.1-0.9-2-0.9s-1.5,0.3-1.9,0.9c-0.5,0.6-0.7,1.3-0.7,2.3v0.1H776.2z"/>
		<path class="st2" d="M782.2,31.9c-0.1-0.1-0.2-0.2-0.2-0.4V20.2c0-0.2,0.1-0.3,0.2-0.4s0.2-0.2,0.4-0.2h1.9c0.2,0,0.3,0.1,0.4,0.2
			c0.1,0.1,0.2,0.3,0.2,0.4v1c0.4-0.5,0.9-0.9,1.5-1.2c0.6-0.3,1.3-0.4,2-0.4h1c0.2,0,0.3,0.1,0.4,0.2c0.1,0.1,0.2,0.2,0.2,0.4v1.7
			c0,0.2-0.1,0.3-0.2,0.4c-0.1,0.1-0.2,0.2-0.4,0.2h-1.9c-0.8,0-1.3,0.2-1.8,0.6c-0.4,0.4-0.6,1-0.6,1.8v6.6c0,0.2-0.1,0.3-0.2,0.4
			c-0.1,0.1-0.3,0.2-0.4,0.2h-2.1C782.4,32.1,782.3,32,782.2,31.9z"/>
		<path class="st2" d="M792.1,23.5c-0.1-0.1-0.2-0.2-0.2-0.4v-2.3c0-0.2,0.1-0.3,0.2-0.4c0.1-0.1,0.2-0.2,0.4-0.2h2.4
			c0.2,0,0.3,0.1,0.4,0.2c0.1,0.1,0.2,0.3,0.2,0.4v2.3c0,0.2-0.1,0.3-0.2,0.4c-0.1,0.1-0.3,0.2-0.4,0.2h-2.4
			C792.3,23.7,792.2,23.6,792.1,23.5z M792.1,31.9c-0.1-0.1-0.2-0.2-0.2-0.4v-2.3c0-0.2,0.1-0.3,0.2-0.4c0.1-0.1,0.2-0.2,0.4-0.2
			h2.4c0.2,0,0.3,0.1,0.4,0.2c0.1,0.1,0.2,0.3,0.2,0.4v2.3c0,0.2-0.1,0.3-0.2,0.4c-0.1,0.1-0.3,0.2-0.4,0.2h-2.4
			C792.3,32.1,792.2,32,792.1,31.9z"/>
		<path class="st2" d="M805.2,30.8c-1-1-1.6-2.5-1.7-4.4l0-0.6l0-0.6c0.1-1.8,0.6-3.3,1.7-4.3s2.5-1.6,4.2-1.6
			c1.9,0,3.3,0.6,4.4,1.7c1,1.2,1.5,2.7,1.5,4.6v0.5c0,0.2-0.1,0.3-0.2,0.4c-0.1,0.1-0.3,0.2-0.4,0.2h-8V27c0,0.9,0.3,1.6,0.7,2.2
			c0.5,0.6,1.1,0.9,1.9,0.9c0.9,0,1.7-0.4,2.3-1.1c0.1-0.2,0.3-0.3,0.3-0.3c0.1,0,0.2-0.1,0.4-0.1h2.1c0.1,0,0.3,0,0.4,0.1
			c0.1,0.1,0.2,0.2,0.2,0.3c0,0.4-0.2,0.8-0.7,1.4c-0.5,0.5-1.1,1-2,1.4s-1.8,0.6-3,0.6C807.7,32.3,806.3,31.8,805.2,30.8z
			 M812.1,24.8L812.1,24.8c0-1-0.2-1.8-0.7-2.4s-1.1-0.9-2-0.9s-1.5,0.3-1.9,0.9c-0.5,0.6-0.7,1.3-0.7,2.3v0.1H812.1z"/>
		<path class="st2" d="M819.3,31.8c-0.7-0.3-1.2-0.8-1.6-1.3c-0.4-0.6-0.6-1.2-0.6-1.8c0-1.1,0.4-2,1.3-2.6s2.1-1.1,3.6-1.4l3.3-0.5
			v-0.5c0-0.7-0.2-1.2-0.5-1.6s-0.9-0.5-1.7-0.5c-0.5,0-1,0.1-1.3,0.3c-0.3,0.2-0.6,0.4-0.8,0.6c-0.2,0.2-0.3,0.3-0.4,0.4
			c-0.1,0.2-0.2,0.3-0.4,0.3h-1.8c-0.1,0-0.3,0-0.4-0.1c-0.1-0.1-0.2-0.2-0.2-0.4c0-0.4,0.2-0.9,0.6-1.4c0.4-0.5,1-1,1.7-1.3
			c0.8-0.4,1.7-0.6,2.9-0.6c1.9,0,3.3,0.4,4.1,1.3c0.9,0.8,1.3,2,1.3,3.3v7.5c0,0.2-0.1,0.3-0.2,0.4c-0.1,0.1-0.2,0.2-0.4,0.2H826
			c-0.2,0-0.3-0.1-0.4-0.2c-0.1-0.1-0.2-0.2-0.2-0.4v-0.9c-0.4,0.5-0.9,0.9-1.5,1.3c-0.6,0.3-1.5,0.5-2.4,0.5
			C820.7,32.3,820,32.2,819.3,31.8z M824.5,29.2c0.6-0.6,0.8-1.4,0.8-2.5v-0.5l-2.4,0.4c-0.9,0.1-1.6,0.4-2.1,0.7s-0.7,0.7-0.7,1.2
			c0,0.5,0.2,0.9,0.6,1.2s1,0.4,1.6,0.4C823.2,30,824,29.8,824.5,29.2z"/>
		<path class="st2" d="M833.3,31.8c-0.8-0.4-1.4-0.8-1.8-1.3c-0.4-0.5-0.6-0.9-0.6-1.3c0-0.2,0.1-0.3,0.2-0.4
			c0.1-0.1,0.2-0.1,0.4-0.1h1.9c0.1,0,0.3,0.1,0.4,0.2c0.1,0,0.2,0.2,0.5,0.4c0.3,0.3,0.6,0.5,1,0.6c0.4,0.1,0.8,0.2,1.2,0.2
			c0.6,0,1.2-0.1,1.6-0.4s0.6-0.6,0.6-1.1c0-0.3-0.1-0.6-0.3-0.8c-0.2-0.2-0.5-0.4-1-0.6c-0.5-0.2-1.2-0.3-2.1-0.5
			c-1.4-0.3-2.4-0.7-3-1.3c-0.6-0.6-1-1.4-1-2.4c0-0.6,0.2-1.2,0.6-1.8c0.4-0.6,1-1,1.7-1.4c0.8-0.4,1.7-0.5,2.7-0.5
			c1.1,0,2,0.2,2.8,0.5c0.8,0.3,1.4,0.8,1.8,1.2c0.4,0.5,0.6,0.9,0.6,1.3c0,0.1-0.1,0.3-0.2,0.4c-0.1,0.1-0.2,0.2-0.4,0.2h-1.8
			c-0.1,0-0.3-0.1-0.4-0.2c-0.1-0.1-0.3-0.2-0.5-0.5c-0.2-0.2-0.5-0.4-0.8-0.5c-0.3-0.1-0.7-0.2-1.1-0.2c-0.6,0-1.1,0.1-1.4,0.4
			c-0.3,0.3-0.5,0.6-0.5,1c0,0.3,0.1,0.6,0.2,0.7c0.2,0.2,0.5,0.4,0.9,0.6s1.2,0.4,2.1,0.5c1.5,0.3,2.6,0.8,3.3,1.4
			c0.7,0.6,1,1.4,1,2.4c0,1.1-0.5,2-1.5,2.7c-1,0.7-2.3,1.1-4.1,1.1C835.1,32.3,834.1,32.1,833.3,31.8z"/>
		<path class="st2" d="M846.7,30.9c-0.7-0.8-1.1-1.9-1.1-3.3v-5.4h-1.9c-0.2,0-0.3-0.1-0.4-0.2c-0.1-0.1-0.2-0.3-0.2-0.4v-1.4
			c0-0.2,0.1-0.3,0.2-0.4c0.1-0.1,0.2-0.2,0.4-0.2h1.9v-4c0-0.2,0.1-0.3,0.2-0.4c0.1-0.1,0.2-0.2,0.4-0.2h1.9c0.2,0,0.3,0.1,0.4,0.2
			c0.1,0.1,0.2,0.2,0.2,0.4v4h3c0.2,0,0.3,0.1,0.4,0.2c0.1,0.1,0.2,0.2,0.2,0.4v1.4c0,0.2-0.1,0.3-0.2,0.4c-0.1,0.1-0.2,0.2-0.4,0.2
			h-3v5.2c0,0.7,0.1,1.2,0.4,1.6c0.2,0.4,0.6,0.5,1.2,0.5h1.7c0.2,0,0.3,0.1,0.4,0.2c0.1,0.1,0.2,0.2,0.2,0.4v1.5
			c0,0.2-0.1,0.3-0.2,0.4c-0.1,0.1-0.2,0.2-0.4,0.2H850C848.5,32.1,847.4,31.7,846.7,30.9z"/>
	</g>
</g>
<g>
	<path class="st0" d="M1115.5,47.9H715.9c-5.5,0-10,4.5-10,10v140.3c0,5.5,4.5,10,10,10h399.6c5.5,0,10-4.5,10-10V57.9
		C1125.5,52.4,1121,47.9,1115.5,47.9z"/>
	<path class="st3" d="M1115.5,47.9H715.9c-5.5,0-10,4.5-10,10v140.3c0,5.5,4.5,10,10,10h399.6c5.5,0,10-4.5,10-10V57.9
		C1125.5,52.4,1121,47.9,1115.5,47.9z"/>
</g>
<path class="st4" d="M1096.6,88.3v80c0,5.5-4.5,10-10,10H744.8c-5.5,0-10-4.5-10-10v-80c0-5.5,4.5-10,10-10h341.8
	C1092.1,78.3,1096.6,82.8,1096.6,88.3z"/>
<g>
	<g class="st1">
		<path class="st5" d="M818.7,134.9c-0.1-0.1-0.2-0.2-0.2-0.4v-15.6c0-0.2,0.1-0.3,0.2-0.4c0.1-0.1,0.2-0.2,0.4-0.2h2.3
			c0.2,0,0.3,0.1,0.4,0.2c0.1,0.1,0.2,0.2,0.2,0.4v15.6c0,0.2-0.1,0.3-0.2,0.4c-0.1,0.1-0.2,0.2-0.4,0.2h-2.3
			C819,135.1,818.8,135,818.7,134.9z"/>
		<path class="st5" d="M827.1,134.8c-0.8-0.4-1.4-0.8-1.8-1.3c-0.4-0.5-0.6-0.9-0.6-1.3c0-0.2,0.1-0.3,0.2-0.4
			c0.1-0.1,0.2-0.1,0.4-0.1h1.9c0.1,0,0.3,0.1,0.4,0.2c0.1,0,0.2,0.2,0.5,0.4c0.3,0.3,0.6,0.5,1,0.6c0.4,0.1,0.8,0.2,1.2,0.2
			c0.6,0,1.2-0.1,1.6-0.4s0.6-0.6,0.6-1.1c0-0.3-0.1-0.6-0.3-0.8s-0.5-0.4-1-0.6s-1.2-0.3-2.1-0.5c-1.4-0.3-2.4-0.7-3-1.3
			c-0.6-0.6-1-1.4-1-2.4c0-0.6,0.2-1.2,0.6-1.8c0.4-0.6,1-1,1.7-1.4c0.8-0.4,1.7-0.5,2.7-0.5c1.1,0,2,0.2,2.8,0.5
			c0.8,0.3,1.4,0.8,1.8,1.2c0.4,0.5,0.6,0.9,0.6,1.3c0,0.1-0.1,0.3-0.2,0.4c-0.1,0.1-0.2,0.2-0.4,0.2H833c-0.1,0-0.3-0.1-0.4-0.2
			c-0.1-0.1-0.3-0.2-0.5-0.5c-0.2-0.2-0.5-0.4-0.8-0.5s-0.7-0.2-1.1-0.2c-0.6,0-1.1,0.1-1.4,0.4c-0.3,0.3-0.5,0.6-0.5,1
			c0,0.3,0.1,0.6,0.2,0.7c0.2,0.2,0.5,0.4,0.9,0.6c0.5,0.2,1.2,0.4,2.1,0.5c1.5,0.3,2.6,0.8,3.3,1.4c0.7,0.6,1,1.4,1,2.4
			c0,1.1-0.5,2-1.5,2.7c-1,0.7-2.3,1.1-4.1,1.1C829,135.3,828,135.1,827.1,134.8z"/>
		<path class="st5" d="M839.9,134.8c-0.8-0.4-1.4-0.8-1.8-1.3c-0.4-0.5-0.6-0.9-0.6-1.3c0-0.2,0.1-0.3,0.2-0.4
			c0.1-0.1,0.2-0.1,0.4-0.1h1.9c0.1,0,0.3,0.1,0.4,0.2c0.1,0,0.2,0.2,0.5,0.4c0.3,0.3,0.6,0.5,1,0.6c0.4,0.1,0.8,0.2,1.2,0.2
			c0.6,0,1.2-0.1,1.6-0.4s0.6-0.6,0.6-1.1c0-0.3-0.1-0.6-0.3-0.8s-0.5-0.4-1-0.6c-0.5-0.2-1.2-0.3-2.1-0.5c-1.4-0.3-2.4-0.7-3-1.3
			s-1-1.4-1-2.4c0-0.6,0.2-1.2,0.6-1.8c0.4-0.6,1-1,1.7-1.4c0.8-0.4,1.7-0.5,2.7-0.5c1.1,0,2,0.2,2.8,0.5c0.8,0.3,1.4,0.8,1.8,1.2
			c0.4,0.5,0.6,0.9,0.6,1.3c0,0.1-0.1,0.3-0.2,0.4c-0.1,0.1-0.2,0.2-0.4,0.2h-1.8c-0.1,0-0.3-0.1-0.4-0.2c-0.1-0.1-0.3-0.2-0.5-0.5
			c-0.2-0.2-0.5-0.4-0.8-0.5s-0.7-0.2-1.1-0.2c-0.6,0-1.1,0.1-1.4,0.4c-0.3,0.3-0.5,0.6-0.5,1c0,0.3,0.1,0.6,0.2,0.7
			c0.2,0.2,0.5,0.4,0.9,0.6s1.2,0.4,2.1,0.5c1.5,0.3,2.6,0.8,3.3,1.4c0.7,0.6,1,1.4,1,2.4c0,1.1-0.5,2-1.5,2.7
			c-1,0.7-2.3,1.1-4.1,1.1C841.7,135.3,840.7,135.1,839.9,134.8z"/>
		<path class="st5" d="M852.1,133.9c-0.8-1-1.3-2.3-1.3-3.9v-6.7c0-0.2,0.1-0.3,0.2-0.4c0.1-0.1,0.2-0.2,0.4-0.2h2.1
			c0.2,0,0.3,0.1,0.4,0.2c0.1,0.1,0.2,0.2,0.2,0.4v6.6c0,2,0.9,3,2.6,3c0.8,0,1.5-0.3,2-0.8c0.5-0.5,0.7-1.3,0.7-2.2v-6.6
			c0-0.2,0.1-0.3,0.2-0.4c0.1-0.1,0.2-0.2,0.4-0.2h2.1c0.2,0,0.3,0.1,0.4,0.2c0.1,0.1,0.2,0.2,0.2,0.4v11.3c0,0.2-0.1,0.3-0.2,0.4
			c-0.1,0.1-0.2,0.2-0.4,0.2h-1.9c-0.2,0-0.3-0.1-0.4-0.2c-0.1-0.1-0.2-0.2-0.2-0.4v-1c-0.9,1.2-2.2,1.8-4,1.8
			C854.1,135.3,853,134.8,852.1,133.9z"/>
		<path class="st5" d="M867,133.8c-1-1-1.6-2.5-1.7-4.4l0-0.6l0-0.6c0.1-1.8,0.6-3.3,1.7-4.3c1-1,2.5-1.6,4.2-1.6
			c1.9,0,3.3,0.6,4.4,1.7c1,1.2,1.5,2.7,1.5,4.6v0.5c0,0.2-0.1,0.3-0.2,0.4c-0.1,0.1-0.3,0.2-0.4,0.2h-8v0.2c0,0.9,0.3,1.6,0.7,2.2
			c0.5,0.6,1.1,0.9,1.9,0.9c0.9,0,1.7-0.4,2.3-1.1c0.1-0.2,0.3-0.3,0.3-0.3c0.1,0,0.2-0.1,0.4-0.1h2.1c0.1,0,0.3,0,0.4,0.1
			s0.2,0.2,0.2,0.3c0,0.4-0.2,0.8-0.7,1.4c-0.5,0.5-1.1,1-2,1.4s-1.8,0.6-3,0.6C869.5,135.3,868.1,134.8,867,133.8z M873.9,127.8
			L873.9,127.8c0-1-0.2-1.8-0.7-2.4c-0.5-0.6-1.1-0.9-2-0.9s-1.5,0.3-1.9,0.9s-0.7,1.3-0.7,2.3v0.1H873.9z"/>
		<path class="st5" d="M879.9,134.9c-0.1-0.1-0.2-0.2-0.2-0.4v-11.3c0-0.2,0.1-0.3,0.2-0.4s0.2-0.2,0.4-0.2h1.9
			c0.2,0,0.3,0.1,0.4,0.2c0.1,0.1,0.2,0.3,0.2,0.4v1c0.4-0.5,0.9-0.9,1.5-1.2c0.6-0.3,1.3-0.4,2-0.4h1c0.2,0,0.3,0.1,0.4,0.2
			c0.1,0.1,0.2,0.2,0.2,0.4v1.7c0,0.2-0.1,0.3-0.2,0.4c-0.1,0.1-0.2,0.2-0.4,0.2h-1.9c-0.8,0-1.3,0.2-1.8,0.6
			c-0.4,0.4-0.6,1-0.6,1.8v6.6c0,0.2-0.1,0.3-0.2,0.4c-0.1,0.1-0.3,0.2-0.4,0.2h-2.1C880.1,135.1,880,135,879.9,134.9z"/>
		<path class="st5" d="M896.4,133.6c-1.2-1.1-1.9-2.7-1.9-4.8c0-0.4,0-1.1,0-2.1c0-1,0-1.7,0-2.2c0.1-2,0.7-3.6,2-4.8
			c1.2-1.1,2.9-1.7,5.1-1.7c1.4,0,2.7,0.2,3.7,0.7c1.1,0.5,1.9,1.2,2.4,2c0.6,0.8,0.9,1.8,0.9,2.8v0c0,0.1-0.1,0.2-0.2,0.3
			s-0.2,0.1-0.3,0.1h-2.3c-0.2,0-0.3,0-0.4-0.1s-0.2-0.2-0.2-0.5c-0.3-1-0.7-1.7-1.3-2.1c-0.6-0.4-1.4-0.6-2.4-0.6
			c-2.3,0-3.5,1.3-3.6,3.9c0,0.4,0,1.1,0,2s0,1.6,0,2c0.1,2.6,1.3,3.9,3.6,3.9c1,0,1.8-0.2,2.4-0.6s1-1.1,1.3-2.1
			c0-0.2,0.1-0.4,0.2-0.5c0.1-0.1,0.3-0.1,0.4-0.1h2.3c0.1,0,0.3,0,0.4,0.1c0.1,0.1,0.1,0.2,0.1,0.4c0,1.1-0.3,2-0.9,2.8
			c-0.6,0.8-1.4,1.5-2.4,2c-1.1,0.5-2.3,0.7-3.7,0.7C899.3,135.3,897.6,134.8,896.4,133.6z"/>
		<path class="st5" d="M912.3,133.8c-1-1-1.6-2.5-1.7-4.4l0-0.6l0-0.6c0.1-1.8,0.6-3.3,1.7-4.3c1-1,2.5-1.6,4.2-1.6
			c1.9,0,3.3,0.6,4.4,1.7c1,1.2,1.5,2.7,1.5,4.6v0.5c0,0.2-0.1,0.3-0.2,0.4c-0.1,0.1-0.3,0.2-0.4,0.2h-8v0.2c0,0.9,0.3,1.6,0.7,2.2
			c0.5,0.6,1.1,0.9,1.9,0.9c0.9,0,1.7-0.4,2.3-1.1c0.1-0.2,0.3-0.3,0.3-0.3c0.1,0,0.2-0.1,0.4-0.1h2.1c0.1,0,0.3,0,0.4,0.1
			s0.2,0.2,0.2,0.3c0,0.4-0.2,0.8-0.7,1.4c-0.5,0.5-1.1,1-2,1.4s-1.8,0.6-3,0.6C914.7,135.3,913.3,134.8,912.3,133.8z M919.2,127.8
			L919.2,127.8c0-1-0.2-1.8-0.7-2.4c-0.5-0.6-1.1-0.9-2-0.9s-1.5,0.3-1.9,0.9s-0.7,1.3-0.7,2.3v0.1H919.2z"/>
		<path class="st5" d="M925.2,134.9c-0.1-0.1-0.2-0.2-0.2-0.4v-11.3c0-0.2,0.1-0.3,0.2-0.4c0.1-0.1,0.2-0.2,0.4-0.2h1.9
			c0.2,0,0.3,0.1,0.4,0.2c0.1,0.1,0.2,0.3,0.2,0.4v1c0.4-0.5,0.9-0.9,1.5-1.2c0.6-0.3,1.3-0.4,2-0.4h1c0.2,0,0.3,0.1,0.4,0.2
			c0.1,0.1,0.2,0.2,0.2,0.4v1.7c0,0.2-0.1,0.3-0.2,0.4c-0.1,0.1-0.2,0.2-0.4,0.2h-1.9c-0.8,0-1.3,0.2-1.8,0.6
			c-0.4,0.4-0.6,1-0.6,1.8v6.6c0,0.2-0.1,0.3-0.2,0.4c-0.1,0.1-0.3,0.2-0.4,0.2h-2.1C925.4,135.1,925.3,135,925.2,134.9z"/>
		<path class="st5" d="M937.4,133.9c-0.7-0.8-1.1-1.9-1.1-3.3v-5.4h-1.9c-0.2,0-0.3-0.1-0.4-0.2c-0.1-0.1-0.2-0.3-0.2-0.4v-1.4
			c0-0.2,0.1-0.3,0.2-0.4c0.1-0.1,0.2-0.2,0.4-0.2h1.9v-4c0-0.2,0.1-0.3,0.2-0.4s0.2-0.2,0.4-0.2h1.9c0.2,0,0.3,0.1,0.4,0.2
			c0.1,0.1,0.2,0.2,0.2,0.4v4h3c0.2,0,0.3,0.1,0.4,0.2c0.1,0.1,0.2,0.2,0.2,0.4v1.4c0,0.2-0.1,0.3-0.2,0.4c-0.1,0.1-0.2,0.2-0.4,0.2
			h-3v5.2c0,0.7,0.1,1.2,0.4,1.6c0.2,0.4,0.6,0.5,1.2,0.5h1.7c0.2,0,0.3,0.1,0.4,0.2c0.1,0.1,0.2,0.2,0.2,0.4v1.5
			c0,0.2-0.1,0.3-0.2,0.4c-0.1,0.1-0.2,0.2-0.4,0.2h-1.9C939.2,135.1,938.1,134.7,937.4,133.9z"/>
		<path class="st5" d="M945.4,120.4c-0.1-0.1-0.2-0.2-0.2-0.4v-1.7c0-0.2,0.1-0.3,0.2-0.4s0.2-0.2,0.4-0.2h2.2
			c0.2,0,0.3,0.1,0.4,0.2c0.1,0.1,0.2,0.2,0.2,0.4v1.7c0,0.2-0.1,0.3-0.2,0.4c-0.1,0.1-0.3,0.2-0.4,0.2h-2.2
			C945.6,120.5,945.5,120.5,945.4,120.4z M945.5,134.9c-0.1-0.1-0.2-0.2-0.2-0.4v-11.3c0-0.2,0.1-0.3,0.2-0.4
			c0.1-0.1,0.2-0.2,0.4-0.2h2c0.2,0,0.3,0.1,0.4,0.2c0.1,0.1,0.2,0.2,0.2,0.4v11.3c0,0.2-0.1,0.3-0.2,0.4c-0.1,0.1-0.2,0.2-0.4,0.2
			h-2C945.7,135.1,945.6,135,945.5,134.9z"/>
		<path class="st5" d="M953.1,134.9c-0.1-0.1-0.2-0.2-0.2-0.4v-9.4H951c-0.2,0-0.3-0.1-0.4-0.2c-0.1-0.1-0.2-0.3-0.2-0.4v-1.4
			c0-0.2,0.1-0.3,0.2-0.4c0.1-0.1,0.2-0.2,0.4-0.2h1.9v-1c0-2.9,1.6-4.3,4.7-4.3h4.9c0.2,0,0.3,0.1,0.4,0.2c0.1,0.1,0.2,0.2,0.2,0.4
			v1.4c0,0.2-0.1,0.3-0.2,0.4c-0.1,0.1-0.2,0.2-0.4,0.2h-4.8c-0.6,0-1.1,0.2-1.3,0.5s-0.4,0.8-0.4,1.4v0.9h6.5
			c0.2,0,0.3,0.1,0.4,0.2c0.1,0.1,0.2,0.2,0.2,0.4v11.3c0,0.2-0.1,0.3-0.2,0.4c-0.1,0.1-0.2,0.2-0.4,0.2h-1.9
			c-0.2,0-0.3-0.1-0.4-0.2c-0.1-0.1-0.2-0.2-0.2-0.4v-9.4h-4v9.4c0,0.2-0.1,0.3-0.2,0.4c-0.1,0.1-0.2,0.2-0.4,0.2h-2
			C953.4,135.1,953.3,135,953.1,134.9z"/>
		<path class="st5" d="M967.5,133.9c-1-1-1.6-2.3-1.7-4.1l0-1l0-1c0.1-1.7,0.6-3.1,1.7-4.1c1-1,2.5-1.5,4.2-1.5
			c1.2,0,2.3,0.2,3.2,0.7c0.9,0.4,1.5,1,1.9,1.6c0.4,0.6,0.7,1.3,0.7,1.8c0,0.2,0,0.3-0.2,0.4c-0.1,0.1-0.3,0.2-0.4,0.2h-2.1
			c-0.2,0-0.3,0-0.4-0.1c-0.1-0.1-0.2-0.2-0.3-0.4c-0.2-0.6-0.6-1.1-0.9-1.3c-0.4-0.3-0.9-0.4-1.5-0.4c-0.8,0-1.5,0.3-1.9,0.8
			c-0.5,0.5-0.7,1.3-0.7,2.4l0,0.9l0,0.8c0.1,2.1,1,3.1,2.7,3.1c0.6,0,1.1-0.1,1.5-0.4c0.4-0.3,0.7-0.7,0.9-1.3
			c0.1-0.2,0.2-0.3,0.3-0.4s0.2-0.1,0.4-0.1h2.1c0.2,0,0.3,0.1,0.4,0.2c0.1,0.1,0.2,0.2,0.2,0.4c0,0.6-0.3,1.2-0.7,1.8
			c-0.4,0.6-1.1,1.2-1.9,1.7s-1.9,0.7-3.2,0.7C970,135.3,968.6,134.8,967.5,133.9z"/>
		<path class="st5" d="M981.4,134.8c-0.7-0.3-1.2-0.8-1.6-1.3c-0.4-0.6-0.6-1.2-0.6-1.8c0-1.1,0.4-2,1.3-2.6s2.1-1.1,3.6-1.4
			l3.3-0.5v-0.5c0-0.7-0.2-1.2-0.5-1.6s-0.9-0.5-1.7-0.5c-0.5,0-1,0.1-1.3,0.3c-0.3,0.2-0.6,0.4-0.8,0.6c-0.2,0.2-0.3,0.3-0.4,0.4
			c-0.1,0.2-0.2,0.3-0.4,0.3h-1.8c-0.1,0-0.3,0-0.4-0.1c-0.1-0.1-0.2-0.2-0.2-0.4c0-0.4,0.2-0.9,0.6-1.4c0.4-0.5,1-1,1.7-1.3
			s1.7-0.6,2.9-0.6c1.9,0,3.3,0.4,4.1,1.3c0.9,0.8,1.3,2,1.3,3.3v7.5c0,0.2-0.1,0.3-0.2,0.4c-0.1,0.1-0.2,0.2-0.4,0.2h-1.9
			c-0.2,0-0.3-0.1-0.4-0.2c-0.1-0.1-0.2-0.2-0.2-0.4v-0.9c-0.4,0.5-0.9,0.9-1.5,1.3s-1.5,0.5-2.4,0.5
			C982.9,135.3,982.1,135.2,981.4,134.8z M986.6,132.2c0.6-0.6,0.8-1.4,0.8-2.5v-0.5l-2.4,0.4c-0.9,0.1-1.6,0.4-2.1,0.7
			c-0.5,0.3-0.7,0.7-0.7,1.2c0,0.5,0.2,0.9,0.6,1.2s1,0.4,1.6,0.4C985.4,133,986.1,132.8,986.6,132.2z"/>
		<path class="st5" d="M996,133.9c-0.7-0.8-1.1-1.9-1.1-3.3v-5.4H993c-0.2,0-0.3-0.1-0.4-0.2c-0.1-0.1-0.2-0.3-0.2-0.4v-1.4
			c0-0.2,0.1-0.3,0.2-0.4c0.1-0.1,0.2-0.2,0.4-0.2h1.9v-4c0-0.2,0.1-0.3,0.2-0.4s0.2-0.2,0.4-0.2h1.9c0.2,0,0.3,0.1,0.4,0.2
			c0.1,0.1,0.2,0.2,0.2,0.4v4h3c0.2,0,0.3,0.1,0.4,0.2c0.1,0.1,0.2,0.2,0.2,0.4v1.4c0,0.2-0.1,0.3-0.2,0.4c-0.1,0.1-0.2,0.2-0.4,0.2
			h-3v5.2c0,0.7,0.1,1.2,0.4,1.6c0.2,0.4,0.6,0.5,1.2,0.5h1.7c0.2,0,0.3,0.1,0.4,0.2c0.1,0.1,0.2,0.2,0.2,0.4v1.5
			c0,0.2-0.1,0.3-0.2,0.4c-0.1,0.1-0.2,0.2-0.4,0.2h-1.9C997.8,135.1,996.7,134.7,996,133.9z"/>
		<path class="st5" d="M1005.1,133.8c-1-1-1.6-2.5-1.7-4.4l0-0.6l0-0.6c0.1-1.8,0.6-3.3,1.7-4.3c1-1,2.5-1.6,4.2-1.6
			c1.9,0,3.3,0.6,4.4,1.7c1,1.2,1.5,2.7,1.5,4.6v0.5c0,0.2-0.1,0.3-0.2,0.4c-0.1,0.1-0.3,0.2-0.4,0.2h-8v0.2c0,0.9,0.3,1.6,0.7,2.2
			c0.5,0.6,1.1,0.9,1.9,0.9c0.9,0,1.7-0.4,2.3-1.1c0.1-0.2,0.3-0.3,0.3-0.3c0.1,0,0.2-0.1,0.4-0.1h2.1c0.1,0,0.3,0,0.4,0.1
			c0.1,0.1,0.2,0.2,0.2,0.3c0,0.4-0.2,0.8-0.7,1.4c-0.5,0.5-1.1,1-2,1.4s-1.8,0.6-3,0.6C1007.5,135.3,1006.1,134.8,1005.1,133.8z
			 M1012,127.8L1012,127.8c0-1-0.2-1.8-0.7-2.4c-0.5-0.6-1.1-0.9-2-0.9s-1.5,0.3-1.9,0.9c-0.5,0.6-0.7,1.3-0.7,2.3v0.1H1012z"/>
	</g>
</g>
</svg>
