<?xml version="1.0" encoding="utf-8"?>
<!-- Generator: Adobe Illustrator 24.1.2, SVG Export Plug-In . SVG Version: 6.00 Build 0)  -->
<svg version="1.1" id="Layer_1" xmlns="http://www.w3.org/2000/svg" xmlns:xlink="http://www.w3.org/1999/xlink" x="0px" y="0px"
	 viewBox="0 0 1300 626.9" style="enable-background:new 0 0 1300 626.9;" xml:space="preserve">
<style type="text/css">
	.st0{enable-background:new    ;}
	.st1{fill:#888888;}
	.st2{fill:#F1F0F0;}
	.st3{fill:none;stroke:#888888;stroke-width:2;stroke-miterlimit:10;}
	.st4{fill:#FFFFFF;stroke:#212960;stroke-width:2;stroke-miterlimit:10;}
	.st5{fill:#212960;}
	.st6{fill:none;stroke:#212960;stroke-width:3;stroke-miterlimit:10;}
</style>
<g>
	<g class="st0">
		<path class="st1" d="M177.7,30.6c-1.2-1.1-1.9-2.7-1.9-4.8c0-0.4,0-1.1,0-2.1c0-1,0-1.7,0-2.2c0.1-2,0.7-3.6,2-4.8
			c1.2-1.1,2.9-1.7,5.1-1.7c1.4,0,2.7,0.2,3.7,0.7c1.1,0.5,1.9,1.2,2.4,2c0.6,0.8,0.9,1.8,0.9,2.8v0c0,0.1-0.1,0.2-0.2,0.3
			s-0.2,0.1-0.3,0.1h-2.3c-0.2,0-0.3,0-0.4-0.1c-0.1-0.1-0.2-0.2-0.2-0.5c-0.3-1-0.7-1.7-1.3-2.1c-0.6-0.4-1.4-0.6-2.4-0.6
			c-2.3,0-3.5,1.3-3.6,3.9c0,0.4,0,1.1,0,2s0,1.6,0,2c0.1,2.6,1.3,3.9,3.6,3.9c1,0,1.8-0.2,2.4-0.6c0.6-0.4,1-1.1,1.3-2.1
			c0-0.2,0.1-0.4,0.2-0.5c0.1-0.1,0.3-0.1,0.4-0.1h2.3c0.1,0,0.3,0,0.4,0.1c0.1,0.1,0.1,0.2,0.1,0.4c0,1.1-0.3,2-0.9,2.8
			c-0.6,0.8-1.4,1.5-2.4,2c-1.1,0.5-2.3,0.7-3.7,0.7C180.7,32.3,179,31.8,177.7,30.6z"/>
		<path class="st1" d="M192.7,31.9c-0.1-0.1-0.2-0.2-0.2-0.4V15.6c0-0.2,0.1-0.3,0.2-0.4s0.2-0.2,0.4-0.2h2c0.2,0,0.3,0.1,0.4,0.2
			c0.1,0.1,0.2,0.2,0.2,0.4v15.9c0,0.2-0.1,0.3-0.2,0.4c-0.1,0.1-0.2,0.2-0.4,0.2h-2C193,32.1,192.8,32,192.7,31.9z"/>
		<path class="st1" d="M200,30.9c-0.8-1-1.3-2.3-1.3-3.9v-6.7c0-0.2,0.1-0.3,0.2-0.4c0.1-0.1,0.2-0.2,0.4-0.2h2.1
			c0.2,0,0.3,0.1,0.4,0.2c0.1,0.1,0.2,0.2,0.2,0.4v6.6c0,2,0.9,3,2.6,3c0.8,0,1.5-0.3,2-0.8c0.5-0.5,0.7-1.3,0.7-2.2v-6.6
			c0-0.2,0.1-0.3,0.2-0.4c0.1-0.1,0.2-0.2,0.4-0.2h2.1c0.2,0,0.3,0.1,0.4,0.2c0.1,0.1,0.2,0.2,0.2,0.4v11.3c0,0.2-0.1,0.3-0.2,0.4
			c-0.1,0.1-0.2,0.2-0.4,0.2h-1.9c-0.2,0-0.3-0.1-0.4-0.2c-0.1-0.1-0.2-0.2-0.2-0.4v-1c-0.9,1.2-2.2,1.8-4,1.8
			C202,32.3,200.9,31.8,200,30.9z"/>
		<path class="st1" d="M215.5,31.8c-0.8-0.4-1.4-0.8-1.8-1.3c-0.4-0.5-0.6-0.9-0.6-1.3c0-0.2,0.1-0.3,0.2-0.4
			c0.1-0.1,0.2-0.1,0.4-0.1h1.9c0.1,0,0.3,0.1,0.4,0.2c0.1,0,0.2,0.2,0.5,0.4c0.3,0.3,0.6,0.5,1,0.6c0.4,0.1,0.8,0.2,1.2,0.2
			c0.6,0,1.2-0.1,1.6-0.4s0.6-0.6,0.6-1.1c0-0.3-0.1-0.6-0.3-0.8c-0.2-0.2-0.5-0.4-1-0.6s-1.2-0.3-2.1-0.5c-1.4-0.3-2.4-0.7-3-1.3
			s-1-1.4-1-2.4c0-0.6,0.2-1.2,0.6-1.8c0.4-0.6,1-1,1.7-1.4c0.8-0.4,1.7-0.5,2.7-0.5c1.1,0,2,0.2,2.8,0.5c0.8,0.3,1.4,0.8,1.8,1.2
			c0.4,0.5,0.6,0.9,0.6,1.3c0,0.1-0.1,0.3-0.2,0.4c-0.1,0.1-0.2,0.2-0.4,0.2h-1.8c-0.1,0-0.3-0.1-0.4-0.2c-0.1-0.1-0.3-0.2-0.5-0.5
			c-0.2-0.2-0.5-0.4-0.8-0.5c-0.3-0.1-0.7-0.2-1.1-0.2c-0.6,0-1.1,0.1-1.4,0.4c-0.3,0.3-0.5,0.6-0.5,1c0,0.3,0.1,0.6,0.2,0.7
			c0.2,0.2,0.5,0.4,0.9,0.6c0.5,0.2,1.2,0.4,2.1,0.5c1.5,0.3,2.6,0.8,3.3,1.4c0.7,0.6,1,1.4,1,2.4c0,1.1-0.5,2-1.5,2.7
			c-1,0.7-2.3,1.1-4.1,1.1C217.3,32.3,216.3,32.1,215.5,31.8z"/>
		<path class="st1" d="M228.9,30.9c-0.7-0.8-1.1-1.9-1.1-3.3v-5.4h-1.9c-0.2,0-0.3-0.1-0.4-0.2s-0.2-0.3-0.2-0.4v-1.4
			c0-0.2,0.1-0.3,0.2-0.4c0.1-0.1,0.2-0.2,0.4-0.2h1.9v-4c0-0.2,0.1-0.3,0.2-0.4s0.2-0.2,0.4-0.2h1.9c0.2,0,0.3,0.1,0.4,0.2
			s0.2,0.2,0.2,0.4v4h3c0.2,0,0.3,0.1,0.4,0.2c0.1,0.1,0.2,0.2,0.2,0.4v1.4c0,0.2-0.1,0.3-0.2,0.4c-0.1,0.1-0.2,0.2-0.4,0.2h-3v5.2
			c0,0.7,0.1,1.2,0.4,1.6c0.2,0.4,0.6,0.5,1.2,0.5h1.7c0.2,0,0.3,0.1,0.4,0.2c0.1,0.1,0.2,0.2,0.2,0.4v1.5c0,0.2-0.1,0.3-0.2,0.4
			c-0.1,0.1-0.2,0.2-0.4,0.2h-1.9C230.7,32.1,229.6,31.7,228.9,30.9z"/>
		<path class="st1" d="M237.9,30.8c-1-1-1.6-2.5-1.7-4.4l0-0.6l0-0.6c0.1-1.8,0.6-3.3,1.7-4.3c1-1,2.5-1.6,4.2-1.6
			c1.9,0,3.3,0.6,4.4,1.7c1,1.2,1.5,2.7,1.5,4.6v0.5c0,0.2-0.1,0.3-0.2,0.4c-0.1,0.1-0.3,0.2-0.4,0.2h-8V27c0,0.9,0.3,1.6,0.7,2.2
			c0.5,0.6,1.1,0.9,1.9,0.9c0.9,0,1.7-0.4,2.3-1.1c0.1-0.2,0.3-0.3,0.3-0.3c0.1,0,0.2-0.1,0.4-0.1h2.1c0.1,0,0.3,0,0.4,0.1
			s0.2,0.2,0.2,0.3c0,0.4-0.2,0.8-0.7,1.4c-0.5,0.5-1.1,1-2,1.4c-0.8,0.4-1.8,0.6-3,0.6C240.4,32.3,239,31.8,237.9,30.8z
			 M244.8,24.8L244.8,24.8c0-1-0.2-1.8-0.7-2.4c-0.5-0.6-1.1-0.9-2-0.9s-1.5,0.3-1.9,0.9c-0.5,0.6-0.7,1.3-0.7,2.3v0.1H244.8z"/>
		<path class="st1" d="M250.8,31.9c-0.1-0.1-0.2-0.2-0.2-0.4V20.2c0-0.2,0.1-0.3,0.2-0.4c0.1-0.1,0.2-0.2,0.4-0.2h1.9
			c0.2,0,0.3,0.1,0.4,0.2c0.1,0.1,0.2,0.3,0.2,0.4v1c0.4-0.5,0.9-0.9,1.5-1.2c0.6-0.3,1.3-0.4,2-0.4h1c0.2,0,0.3,0.1,0.4,0.2
			c0.1,0.1,0.2,0.2,0.2,0.4v1.7c0,0.2-0.1,0.3-0.2,0.4c-0.1,0.1-0.2,0.2-0.4,0.2h-1.9c-0.8,0-1.3,0.2-1.8,0.6
			c-0.4,0.4-0.6,1-0.6,1.8v6.6c0,0.2-0.1,0.3-0.2,0.4c-0.1,0.1-0.3,0.2-0.4,0.2h-2.1C251.1,32.1,250.9,32,250.8,31.9z"/>
		<path class="st1" d="M260.8,23.5c-0.1-0.1-0.2-0.2-0.2-0.4v-2.3c0-0.2,0.1-0.3,0.2-0.4c0.1-0.1,0.2-0.2,0.4-0.2h2.4
			c0.2,0,0.3,0.1,0.4,0.2c0.1,0.1,0.2,0.3,0.2,0.4v2.3c0,0.2-0.1,0.3-0.2,0.4c-0.1,0.1-0.3,0.2-0.4,0.2h-2.4
			C261,23.7,260.9,23.6,260.8,23.5z M260.8,31.9c-0.1-0.1-0.2-0.2-0.2-0.4v-2.3c0-0.2,0.1-0.3,0.2-0.4c0.1-0.1,0.2-0.2,0.4-0.2h2.4
			c0.2,0,0.3,0.1,0.4,0.2c0.1,0.1,0.2,0.3,0.2,0.4v2.3c0,0.2-0.1,0.3-0.2,0.4c-0.1,0.1-0.3,0.2-0.4,0.2h-2.4
			C261,32.1,260.9,32,260.8,31.9z"/>
		<path class="st1" d="M275.1,31.9c-0.1-0.1-0.2-0.3-0.3-0.4l-3.4-11.1c0,0,0-0.1,0-0.2c0-0.1,0.1-0.3,0.2-0.4
			c0.1-0.1,0.2-0.2,0.3-0.2h1.8c0.2,0,0.3,0,0.4,0.1c0.1,0.1,0.2,0.2,0.2,0.3l2.4,7.9l2.5-7.9c0-0.1,0.1-0.3,0.3-0.4
			c0.1-0.1,0.3-0.2,0.5-0.2h1.2c0.2,0,0.3,0.1,0.5,0.2c0.1,0.1,0.2,0.2,0.3,0.4l2.5,7.9l2.4-7.9c0-0.1,0.1-0.2,0.2-0.3
			s0.3-0.1,0.4-0.1h1.8c0.1,0,0.3,0.1,0.4,0.2c0.1,0.1,0.2,0.2,0.2,0.4l0,0.2l-3.4,11.1c-0.1,0.2-0.2,0.3-0.3,0.4
			c-0.1,0.1-0.3,0.2-0.5,0.2h-1.6c-0.4,0-0.7-0.2-0.8-0.6l-2.5-7.6l-2.5,7.6c-0.1,0.4-0.4,0.6-0.8,0.6h-1.5
			C275.4,32.1,275.2,32,275.1,31.9z"/>
		<path class="st1" d="M292.7,30.8c-1-1-1.6-2.5-1.7-4.4l0-0.6l0-0.6c0.1-1.8,0.6-3.3,1.7-4.3c1-1,2.5-1.6,4.2-1.6
			c1.9,0,3.3,0.6,4.4,1.7c1,1.2,1.5,2.7,1.5,4.6v0.5c0,0.2-0.1,0.3-0.2,0.4c-0.1,0.1-0.3,0.2-0.4,0.2h-8V27c0,0.9,0.3,1.6,0.7,2.2
			c0.5,0.6,1.1,0.9,1.9,0.9c0.9,0,1.7-0.4,2.3-1.1c0.1-0.2,0.3-0.3,0.3-0.3c0.1,0,0.2-0.1,0.4-0.1h2.1c0.1,0,0.3,0,0.4,0.1
			s0.2,0.2,0.2,0.3c0,0.4-0.2,0.8-0.7,1.4c-0.5,0.5-1.1,1-2,1.4c-0.8,0.4-1.8,0.6-3,0.6C295.1,32.3,293.7,31.8,292.7,30.8z
			 M299.6,24.8L299.6,24.8c0-1-0.2-1.8-0.7-2.4c-0.5-0.6-1.1-0.9-2-0.9s-1.5,0.3-1.9,0.9c-0.5,0.6-0.7,1.3-0.7,2.3v0.1H299.6z"/>
		<path class="st1" d="M307.1,31.8c-0.8-0.4-1.4-0.8-1.8-1.3c-0.4-0.5-0.6-0.9-0.6-1.3c0-0.2,0.1-0.3,0.2-0.4
			c0.1-0.1,0.2-0.1,0.4-0.1h1.9c0.1,0,0.3,0.1,0.4,0.2c0.1,0,0.2,0.2,0.5,0.4c0.3,0.3,0.6,0.5,1,0.6c0.4,0.1,0.8,0.2,1.2,0.2
			c0.6,0,1.2-0.1,1.6-0.4s0.6-0.6,0.6-1.1c0-0.3-0.1-0.6-0.3-0.8c-0.2-0.2-0.5-0.4-1-0.6s-1.2-0.3-2.1-0.5c-1.4-0.3-2.4-0.7-3-1.3
			s-1-1.4-1-2.4c0-0.6,0.2-1.2,0.6-1.8c0.4-0.6,1-1,1.7-1.4c0.8-0.4,1.7-0.5,2.7-0.5c1.1,0,2,0.2,2.8,0.5c0.8,0.3,1.4,0.8,1.8,1.2
			c0.4,0.5,0.6,0.9,0.6,1.3c0,0.1-0.1,0.3-0.2,0.4c-0.1,0.1-0.2,0.2-0.4,0.2h-1.8c-0.1,0-0.3-0.1-0.4-0.2c-0.1-0.1-0.3-0.2-0.5-0.5
			c-0.2-0.2-0.5-0.4-0.8-0.5c-0.3-0.1-0.7-0.2-1.1-0.2c-0.6,0-1.1,0.1-1.4,0.4c-0.3,0.3-0.5,0.6-0.5,1c0,0.3,0.1,0.6,0.2,0.7
			c0.2,0.2,0.5,0.4,0.9,0.6c0.5,0.2,1.2,0.4,2.1,0.5c1.5,0.3,2.6,0.8,3.3,1.4c0.7,0.6,1,1.4,1,2.4c0,1.1-0.5,2-1.5,2.7
			c-1,0.7-2.3,1.1-4.1,1.1C308.9,32.3,307.9,32.1,307.1,31.8z"/>
		<path class="st1" d="M320.4,30.9c-0.7-0.8-1.1-1.9-1.1-3.3v-5.4h-1.9c-0.2,0-0.3-0.1-0.4-0.2s-0.2-0.3-0.2-0.4v-1.4
			c0-0.2,0.1-0.3,0.2-0.4c0.1-0.1,0.2-0.2,0.4-0.2h1.9v-4c0-0.2,0.1-0.3,0.2-0.4s0.2-0.2,0.4-0.2h1.9c0.2,0,0.3,0.1,0.4,0.2
			s0.2,0.2,0.2,0.4v4h3c0.2,0,0.3,0.1,0.4,0.2c0.1,0.1,0.2,0.2,0.2,0.4v1.4c0,0.2-0.1,0.3-0.2,0.4c-0.1,0.1-0.2,0.2-0.4,0.2h-3v5.2
			c0,0.7,0.1,1.2,0.4,1.6c0.2,0.4,0.6,0.5,1.2,0.5h1.7c0.2,0,0.3,0.1,0.4,0.2c0.1,0.1,0.2,0.2,0.2,0.4v1.5c0,0.2-0.1,0.3-0.2,0.4
			c-0.1,0.1-0.2,0.2-0.4,0.2h-1.9C322.3,32.1,321.2,31.7,320.4,30.9z"/>
	</g>
</g>
<g>
	<path class="st2" d="M584.1,47.9H184.5c-5.5,0-10,4.5-10,10v549c0,5.5,4.5,10,10,10h399.6c5.5,0,10-4.5,10-10v-549
		C594.1,52.4,589.7,47.9,584.1,47.9z"/>
	<path class="st3" d="M584.1,47.9H184.5c-5.5,0-10,4.5-10,10v549c0,5.5,4.5,10,10,10h399.6c5.5,0,10-4.5,10-10v-549
		C594.1,52.4,589.7,47.9,584.1,47.9z"/>
</g>
<path class="st4" d="M565.2,88.3v80c0,5.5-4.5,10-10,10H213.4c-5.5,0-10-4.5-10-10v-80c0-5.5,4.5-10,10-10h341.8
	C560.7,78.3,565.2,82.8,565.2,88.3z"/>
<g>
	<g class="st0">
		<path class="st5" d="M308.2,134.7c-1-0.4-1.8-1-2.3-1.7c-0.5-0.7-0.8-1.5-0.8-2.3c0-0.1,0-0.3,0.1-0.4c0.1-0.1,0.2-0.1,0.4-0.1
			h2.1c0.2,0,0.3,0,0.4,0.1c0.1,0.1,0.2,0.2,0.3,0.3c0.2,0.5,0.5,1,1.1,1.4c0.6,0.4,1.4,0.6,2.4,0.6c1.1,0,2-0.2,2.6-0.6
			s0.9-0.9,0.9-1.6c0-0.4-0.1-0.8-0.4-1.1c-0.3-0.3-0.7-0.5-1.3-0.7c-0.6-0.2-1.5-0.5-2.6-0.8c-1.9-0.4-3.3-1-4.1-1.8
			c-0.9-0.7-1.3-1.8-1.3-3.2c0-0.9,0.3-1.8,0.8-2.5c0.5-0.7,1.2-1.3,2.2-1.7c1-0.4,2.1-0.6,3.3-0.6c1.3,0,2.4,0.2,3.4,0.7
			s1.7,1,2.2,1.7c0.5,0.7,0.8,1.4,0.8,2.1c0,0.1,0,0.3-0.1,0.4c-0.1,0.1-0.2,0.1-0.4,0.1h-2.2c-0.3,0-0.6-0.2-0.7-0.5
			c-0.1-0.5-0.4-0.9-1-1.3c-0.5-0.3-1.2-0.5-2-0.5c-0.9,0-1.6,0.2-2.1,0.5c-0.5,0.3-0.8,0.8-0.8,1.5c0,0.4,0.1,0.8,0.4,1.1
			s0.7,0.5,1.2,0.8c0.6,0.2,1.3,0.5,2.4,0.7c1.4,0.3,2.5,0.7,3.4,1.1c0.8,0.4,1.5,0.9,1.9,1.5c0.4,0.6,0.6,1.4,0.6,2.3
			c0,1-0.3,1.9-0.9,2.7s-1.4,1.3-2.4,1.7c-1,0.4-2.2,0.6-3.6,0.6C310.5,135.3,309.2,135.1,308.2,134.7z"/>
		<path class="st5" d="M322.3,133.8c-1-1-1.6-2.5-1.7-4.4l0-0.6l0-0.6c0.1-1.8,0.6-3.3,1.7-4.3c1-1,2.5-1.6,4.2-1.6
			c1.9,0,3.3,0.6,4.4,1.7c1,1.2,1.5,2.7,1.5,4.6v0.5c0,0.2-0.1,0.3-0.2,0.4c-0.1,0.1-0.3,0.2-0.4,0.2h-8v0.2c0,0.9,0.3,1.6,0.7,2.2
			c0.5,0.6,1.1,0.9,1.9,0.9c0.9,0,1.7-0.4,2.3-1.1c0.1-0.2,0.3-0.3,0.3-0.3c0.1,0,0.2-0.1,0.4-0.1h2.1c0.1,0,0.3,0,0.4,0.1
			s0.2,0.2,0.2,0.3c0,0.4-0.2,0.8-0.7,1.4c-0.5,0.5-1.1,1-2,1.4c-0.8,0.4-1.8,0.6-3,0.6C324.8,135.3,323.4,134.8,322.3,133.8z
			 M329.2,127.8L329.2,127.8c0-1-0.2-1.8-0.7-2.4c-0.5-0.6-1.1-0.9-2-0.9s-1.5,0.3-1.9,0.9c-0.5,0.6-0.7,1.3-0.7,2.3v0.1H329.2z"/>
		<path class="st5" d="M335.2,134.9c-0.1-0.1-0.2-0.2-0.2-0.4v-11.3c0-0.2,0.1-0.3,0.2-0.4c0.1-0.1,0.2-0.2,0.4-0.2h1.9
			c0.2,0,0.3,0.1,0.4,0.2c0.1,0.1,0.2,0.3,0.2,0.4v1c0.4-0.5,0.9-0.9,1.5-1.2c0.6-0.3,1.3-0.4,2-0.4h1c0.2,0,0.3,0.1,0.4,0.2
			c0.1,0.1,0.2,0.2,0.2,0.4v1.7c0,0.2-0.1,0.3-0.2,0.4c-0.1,0.1-0.2,0.2-0.4,0.2h-1.9c-0.8,0-1.3,0.2-1.8,0.6
			c-0.4,0.4-0.6,1-0.6,1.8v6.6c0,0.2-0.1,0.3-0.2,0.4c-0.1,0.1-0.3,0.2-0.4,0.2h-2.1C335.4,135.1,335.3,135,335.2,134.9z"/>
		<path class="st5" d="M348.9,134.9c-0.1-0.1-0.2-0.3-0.3-0.4l-4.5-11.1l0-0.2c0-0.1,0.1-0.3,0.2-0.4c0.1-0.1,0.2-0.2,0.4-0.2h1.9
			c0.3,0,0.5,0.2,0.6,0.5l3.2,8.4l3.2-8.4c0-0.1,0.1-0.2,0.2-0.3c0.1-0.1,0.2-0.1,0.4-0.1h2c0.1,0,0.2,0.1,0.3,0.2
			c0.1,0.1,0.2,0.2,0.2,0.4c0,0.1,0,0.2,0,0.2l-4.5,11.1c-0.1,0.2-0.2,0.3-0.3,0.4c-0.1,0.1-0.3,0.2-0.6,0.2h-1.8
			C349.2,135.1,349,135,348.9,134.9z"/>
		<path class="st5" d="M358.9,120.4c-0.1-0.1-0.2-0.2-0.2-0.4v-1.7c0-0.2,0.1-0.3,0.2-0.4s0.2-0.2,0.4-0.2h2.2
			c0.2,0,0.3,0.1,0.4,0.2s0.2,0.2,0.2,0.4v1.7c0,0.2-0.1,0.3-0.2,0.4c-0.1,0.1-0.3,0.2-0.4,0.2h-2.2
			C359.1,120.5,359,120.5,358.9,120.4z M359,134.9c-0.1-0.1-0.2-0.2-0.2-0.4v-11.3c0-0.2,0.1-0.3,0.2-0.4c0.1-0.1,0.2-0.2,0.4-0.2h2
			c0.2,0,0.3,0.1,0.4,0.2c0.1,0.1,0.2,0.2,0.2,0.4v11.3c0,0.2-0.1,0.3-0.2,0.4c-0.1,0.1-0.2,0.2-0.4,0.2h-2
			C359.2,135.1,359.1,135,359,134.9z"/>
		<path class="st5" d="M366.3,133.9c-1-1-1.6-2.3-1.7-4.1l0-1l0-1c0.1-1.7,0.6-3.1,1.7-4.1c1-1,2.5-1.5,4.2-1.5
			c1.2,0,2.3,0.2,3.2,0.7c0.9,0.4,1.5,1,1.9,1.6c0.4,0.6,0.7,1.3,0.7,1.8c0,0.2,0,0.3-0.2,0.4c-0.1,0.1-0.3,0.2-0.4,0.2h-2.1
			c-0.2,0-0.3,0-0.4-0.1c-0.1-0.1-0.2-0.2-0.3-0.4c-0.2-0.6-0.6-1.1-0.9-1.3c-0.4-0.3-0.9-0.4-1.5-0.4c-0.8,0-1.5,0.3-1.9,0.8
			c-0.5,0.5-0.7,1.3-0.7,2.4l0,0.9l0,0.8c0.1,2.1,1,3.1,2.7,3.1c0.6,0,1.1-0.1,1.5-0.4c0.4-0.3,0.7-0.7,0.9-1.3
			c0.1-0.2,0.2-0.3,0.3-0.4s0.2-0.1,0.4-0.1h2.1c0.2,0,0.3,0.1,0.4,0.2c0.1,0.1,0.2,0.2,0.2,0.4c0,0.6-0.3,1.2-0.7,1.8
			c-0.4,0.6-1.1,1.2-1.9,1.7c-0.9,0.5-1.9,0.7-3.2,0.7C368.8,135.3,367.4,134.8,366.3,133.9z"/>
		<path class="st5" d="M380,133.8c-1-1-1.6-2.5-1.7-4.4l0-0.6l0-0.6c0.1-1.8,0.6-3.3,1.7-4.3c1-1,2.5-1.6,4.2-1.6
			c1.9,0,3.3,0.6,4.4,1.7c1,1.2,1.5,2.7,1.5,4.6v0.5c0,0.2-0.1,0.3-0.2,0.4c-0.1,0.1-0.3,0.2-0.4,0.2h-8v0.2c0,0.9,0.3,1.6,0.7,2.2
			c0.5,0.6,1.1,0.9,1.9,0.9c0.9,0,1.7-0.4,2.3-1.1c0.1-0.2,0.3-0.3,0.3-0.3c0.1,0,0.2-0.1,0.4-0.1h2.1c0.1,0,0.3,0,0.4,0.1
			s0.2,0.2,0.2,0.3c0,0.4-0.2,0.8-0.7,1.4c-0.5,0.5-1.1,1-2,1.4c-0.8,0.4-1.8,0.6-3,0.6C382.4,135.3,381,134.8,380,133.8z
			 M386.9,127.8L386.9,127.8c0-1-0.2-1.8-0.7-2.4c-0.5-0.6-1.1-0.9-2-0.9s-1.5,0.3-1.9,0.9c-0.5,0.6-0.7,1.3-0.7,2.3v0.1H386.9z"/>
		<path class="st5" d="M398.6,134.9c-0.1-0.1-0.2-0.2-0.2-0.4v-15.6c0-0.2,0.1-0.3,0.2-0.4c0.1-0.1,0.3-0.2,0.4-0.2h1.9
			c0.3,0,0.6,0.2,0.7,0.5l4.6,8.6l4.7-8.6c0.2-0.3,0.4-0.5,0.7-0.5h1.9c0.2,0,0.3,0.1,0.4,0.2s0.2,0.3,0.2,0.4v15.6
			c0,0.2-0.1,0.3-0.2,0.4c-0.1,0.1-0.3,0.2-0.4,0.2h-2c-0.2,0-0.3-0.1-0.4-0.2c-0.1-0.1-0.2-0.2-0.2-0.4v-10.4l-3.4,6.4
			c-0.2,0.4-0.5,0.5-0.8,0.5h-1c-0.3,0-0.6-0.2-0.8-0.5l-3.4-6.4v10.4c0,0.2-0.1,0.3-0.2,0.4c-0.1,0.1-0.2,0.2-0.4,0.2h-2
			C398.9,135.1,398.8,135,398.6,134.9z"/>
		<path class="st5" d="M417.7,120.4c-0.1-0.1-0.2-0.2-0.2-0.4v-1.7c0-0.2,0.1-0.3,0.2-0.4s0.2-0.2,0.4-0.2h2.2
			c0.2,0,0.3,0.1,0.4,0.2s0.2,0.2,0.2,0.4v1.7c0,0.2-0.1,0.3-0.2,0.4c-0.1,0.1-0.3,0.2-0.4,0.2h-2.2
			C418,120.5,417.8,120.5,417.7,120.4z M417.8,134.9c-0.1-0.1-0.2-0.2-0.2-0.4v-11.3c0-0.2,0.1-0.3,0.2-0.4c0.1-0.1,0.2-0.2,0.4-0.2
			h2c0.2,0,0.3,0.1,0.4,0.2c0.1,0.1,0.2,0.2,0.2,0.4v11.3c0,0.2-0.1,0.3-0.2,0.4c-0.1,0.1-0.2,0.2-0.4,0.2h-2
			C418.1,135.1,417.9,135,417.8,134.9z"/>
		<path class="st5" d="M424.2,134.9c-0.1-0.1-0.2-0.2-0.2-0.4v-11.3c0-0.2,0.1-0.3,0.2-0.4c0.1-0.1,0.2-0.2,0.4-0.2h1.9
			c0.2,0,0.3,0.1,0.4,0.2c0.1,0.1,0.2,0.3,0.2,0.4v1c0.4-0.5,0.9-0.9,1.5-1.2c0.6-0.3,1.3-0.4,2-0.4h1c0.2,0,0.3,0.1,0.4,0.2
			c0.1,0.1,0.2,0.2,0.2,0.4v1.7c0,0.2-0.1,0.3-0.2,0.4c-0.1,0.1-0.2,0.2-0.4,0.2h-1.9c-0.8,0-1.3,0.2-1.8,0.6
			c-0.4,0.4-0.6,1-0.6,1.8v6.6c0,0.2-0.1,0.3-0.2,0.4c-0.1,0.1-0.3,0.2-0.4,0.2h-2.1C424.4,135.1,424.3,135,424.2,134.9z"/>
		<path class="st5" d="M434.2,134.9c-0.1-0.1-0.2-0.2-0.2-0.4v-11.3c0-0.2,0.1-0.3,0.2-0.4c0.1-0.1,0.2-0.2,0.4-0.2h1.9
			c0.2,0,0.3,0.1,0.4,0.2c0.1,0.1,0.2,0.3,0.2,0.4v1c0.4-0.5,0.9-0.9,1.5-1.2c0.6-0.3,1.3-0.4,2-0.4h1c0.2,0,0.3,0.1,0.4,0.2
			c0.1,0.1,0.2,0.2,0.2,0.4v1.7c0,0.2-0.1,0.3-0.2,0.4c-0.1,0.1-0.2,0.2-0.4,0.2h-1.9c-0.8,0-1.3,0.2-1.8,0.6
			c-0.4,0.4-0.6,1-0.6,1.8v6.6c0,0.2-0.1,0.3-0.2,0.4c-0.1,0.1-0.3,0.2-0.4,0.2h-2.1C434.4,135.1,434.3,135,434.2,134.9z"/>
		<path class="st5" d="M445,133.9c-1-1-1.6-2.3-1.7-4l0-1.1l0-1.1c0.1-1.7,0.6-3,1.7-4c1-1,2.5-1.5,4.3-1.5c1.8,0,3.3,0.5,4.3,1.5
			s1.6,2.3,1.7,4c0,0.2,0,0.5,0,1.1c0,0.5,0,0.9,0,1.1c-0.1,1.7-0.6,3-1.7,4c-1,1-2.5,1.5-4.3,1.5S446,134.8,445,133.9z
			 M451.3,132.1c0.5-0.5,0.7-1.3,0.8-2.4c0-0.2,0-0.5,0-0.9c0-0.5,0-0.8,0-0.9c0-1-0.3-1.8-0.8-2.4s-1.1-0.8-2-0.8
			c-0.8,0-1.5,0.3-2,0.8c-0.5,0.5-0.7,1.3-0.8,2.4l0,0.9l0,0.9c0,1,0.3,1.8,0.8,2.4c0.5,0.5,1.1,0.8,2,0.8
			C450.2,133,450.9,132.7,451.3,132.1z"/>
		<path class="st5" d="M458.2,134.9c-0.1-0.1-0.2-0.2-0.2-0.4v-11.3c0-0.2,0.1-0.3,0.2-0.4c0.1-0.1,0.2-0.2,0.4-0.2h1.9
			c0.2,0,0.3,0.1,0.4,0.2c0.1,0.1,0.2,0.3,0.2,0.4v1c0.4-0.5,0.9-0.9,1.5-1.2c0.6-0.3,1.3-0.4,2-0.4h1c0.2,0,0.3,0.1,0.4,0.2
			c0.1,0.1,0.2,0.2,0.2,0.4v1.7c0,0.2-0.1,0.3-0.2,0.4c-0.1,0.1-0.2,0.2-0.4,0.2h-1.9c-0.8,0-1.3,0.2-1.8,0.6
			c-0.4,0.4-0.6,1-0.6,1.8v6.6c0,0.2-0.1,0.3-0.2,0.4c-0.1,0.1-0.3,0.2-0.4,0.2h-2.1C458.5,135.1,458.3,135,458.2,134.9z"/>
	</g>
</g>
<path class="st4" d="M565.2,496.9v80c0,5.5-4.5,10-10,10H213.4c-5.5,0-10-4.5-10-10v-80c0-5.5,4.5-10,10-10h341.8
	C560.7,486.9,565.2,491.4,565.2,496.9z"/>
<g>
	<g class="st0">
		<path class="st5" d="M321.9,543.6c-0.1-0.1-0.2-0.2-0.2-0.4v-15.6c0-0.2,0.1-0.3,0.2-0.4s0.2-0.2,0.4-0.2h2.1
			c0.2,0,0.3,0.1,0.4,0.2c0.1,0.1,0.2,0.3,0.2,0.4v5.6l5.4-5.8c0.2-0.3,0.5-0.4,0.9-0.4h2.4c0.1,0,0.2,0,0.3,0.1
			c0.1,0.1,0.2,0.2,0.2,0.4c0,0.1,0,0.2-0.1,0.3l-6.6,7.2l7.1,7.9c0.1,0.1,0.1,0.2,0.1,0.3c0,0.1-0.1,0.3-0.2,0.4
			c-0.1,0.1-0.2,0.1-0.3,0.1h-2.5c-0.4,0-0.7-0.1-0.9-0.4l-5.8-6.4v6.2c0,0.2-0.1,0.3-0.2,0.4c-0.1,0.1-0.3,0.2-0.4,0.2h-2.1
			C322.2,543.8,322,543.7,321.9,543.6z"/>
		<path class="st5" d="M337.3,542.5c-0.8-1-1.3-2.3-1.3-3.9v-6.7c0-0.2,0.1-0.3,0.2-0.4c0.1-0.1,0.2-0.2,0.4-0.2h2.1
			c0.2,0,0.3,0.1,0.4,0.2c0.1,0.1,0.2,0.2,0.2,0.4v6.6c0,2,0.9,3,2.6,3c0.8,0,1.5-0.3,2-0.8c0.5-0.5,0.7-1.3,0.7-2.2v-6.6
			c0-0.2,0.1-0.3,0.2-0.4c0.1-0.1,0.2-0.2,0.4-0.2h2.1c0.2,0,0.3,0.1,0.4,0.2c0.1,0.1,0.2,0.2,0.2,0.4v11.3c0,0.2-0.1,0.3-0.2,0.4
			c-0.1,0.1-0.2,0.2-0.4,0.2h-1.9c-0.2,0-0.3-0.1-0.4-0.2c-0.1-0.1-0.2-0.2-0.2-0.4v-1c-0.9,1.2-2.2,1.8-4,1.8
			C339.3,544,338.1,543.5,337.3,542.5z"/>
		<path class="st5" d="M354.1,542.3v0.9c0,0.2-0.1,0.3-0.2,0.4c-0.1,0.1-0.2,0.2-0.4,0.2h-1.9c-0.2,0-0.3-0.1-0.4-0.2
			c-0.1-0.1-0.2-0.2-0.2-0.4v-15.9c0-0.2,0.1-0.3,0.2-0.4s0.2-0.2,0.4-0.2h2c0.2,0,0.3,0.1,0.4,0.2c0.1,0.1,0.2,0.2,0.2,0.4v5.3
			c0.9-1.1,2.1-1.6,3.7-1.6c1.6,0,2.9,0.5,3.7,1.6c0.9,1.1,1.3,2.4,1.4,4.1c0,0.2,0,0.4,0,0.8c0,0.3,0,0.6,0,0.8
			c-0.1,1.7-0.5,3.1-1.4,4.2c-0.9,1-2.1,1.6-3.7,1.6C356.3,544,355,543.4,354.1,542.3z M359.8,538.2c0-0.2,0-0.4,0-0.7
			c0-0.3,0-0.6,0-0.7c-0.1-2.1-1-3.2-2.8-3.2c-0.9,0-1.6,0.3-2.1,0.9c-0.5,0.6-0.7,1.3-0.8,2.1l0,0.9l0,0.9c0,0.9,0.3,1.6,0.7,2.2
			c0.4,0.6,1.1,0.9,2.1,0.9C358.8,541.4,359.7,540.4,359.8,538.2z"/>
		<path class="st5" d="M366.9,542.5c-1-1-1.6-2.5-1.7-4.4l0-0.6l0-0.6c0.1-1.8,0.6-3.3,1.7-4.3c1-1,2.5-1.6,4.2-1.6
			c1.9,0,3.3,0.6,4.4,1.7c1,1.2,1.5,2.7,1.5,4.6v0.5c0,0.2-0.1,0.3-0.2,0.4c-0.1,0.1-0.3,0.2-0.4,0.2h-8v0.2c0,0.9,0.3,1.6,0.7,2.2
			c0.5,0.6,1.1,0.9,1.9,0.9c0.9,0,1.7-0.4,2.3-1.1c0.1-0.2,0.3-0.3,0.3-0.3c0.1,0,0.2-0.1,0.4-0.1h2.1c0.1,0,0.3,0,0.4,0.1
			s0.2,0.2,0.2,0.3c0,0.4-0.2,0.8-0.7,1.4c-0.5,0.5-1.1,1-2,1.4c-0.8,0.4-1.8,0.6-3,0.6C369.4,544,367.9,543.5,366.9,542.5z
			 M373.8,536.4L373.8,536.4c0-1-0.2-1.8-0.7-2.4c-0.5-0.6-1.1-0.9-2-0.9s-1.5,0.3-1.9,0.9c-0.5,0.6-0.7,1.3-0.7,2.3v0.1H373.8z"/>
		<path class="st5" d="M380.8,542.5c-1-1-1.6-2.3-1.7-4.1l0-1l0-1c0.1-1.7,0.6-3.1,1.7-4.1c1-1,2.5-1.5,4.2-1.5
			c1.2,0,2.3,0.2,3.2,0.7c0.9,0.4,1.5,1,1.9,1.6c0.4,0.6,0.7,1.3,0.7,1.8c0,0.2,0,0.3-0.2,0.4c-0.1,0.1-0.3,0.2-0.4,0.2h-2.1
			c-0.2,0-0.3,0-0.4-0.1c-0.1-0.1-0.2-0.2-0.3-0.4c-0.2-0.6-0.6-1.1-0.9-1.3c-0.4-0.3-0.9-0.4-1.5-0.4c-0.8,0-1.5,0.3-1.9,0.8
			c-0.5,0.5-0.7,1.3-0.7,2.4l0,0.9l0,0.8c0.1,2.1,1,3.1,2.7,3.1c0.6,0,1.1-0.1,1.5-0.4c0.4-0.3,0.7-0.7,0.9-1.3
			c0.1-0.2,0.2-0.3,0.3-0.4s0.2-0.1,0.4-0.1h2.1c0.2,0,0.3,0.1,0.4,0.2c0.1,0.1,0.2,0.2,0.2,0.4c0,0.6-0.3,1.2-0.7,1.8
			c-0.4,0.6-1.1,1.2-1.9,1.7c-0.9,0.5-1.9,0.7-3.2,0.7C383.2,544,381.8,543.5,380.8,542.5z"/>
		<path class="st5" d="M394.5,542.5c-1-1-1.6-2.3-1.7-4l0-1.1l0-1.1c0.1-1.7,0.6-3,1.7-4c1-1,2.5-1.5,4.3-1.5c1.8,0,3.3,0.5,4.3,1.5
			s1.6,2.3,1.7,4c0,0.2,0,0.5,0,1.1c0,0.5,0,0.9,0,1.1c-0.1,1.7-0.6,3-1.7,4c-1,1-2.5,1.5-4.3,1.5S395.5,543.5,394.5,542.5z
			 M400.8,540.8c0.5-0.5,0.7-1.3,0.8-2.4c0-0.2,0-0.5,0-0.9c0-0.5,0-0.8,0-0.9c0-1-0.3-1.8-0.8-2.4s-1.1-0.8-2-0.8
			c-0.8,0-1.5,0.3-2,0.8c-0.5,0.5-0.7,1.3-0.8,2.4l0,0.9l0,0.9c0,1,0.3,1.8,0.8,2.4c0.5,0.5,1.1,0.8,2,0.8
			C399.7,541.6,400.3,541.4,400.8,540.8z"/>
		<path class="st5" d="M407.7,543.6c-0.1-0.1-0.2-0.2-0.2-0.4v-11.3c0-0.2,0.1-0.3,0.2-0.4c0.1-0.1,0.2-0.2,0.4-0.2h2
			c0.2,0,0.3,0.1,0.4,0.2c0.1,0.1,0.2,0.2,0.2,0.4v1c0.9-1.2,2.3-1.8,4-1.8c1.5,0,2.6,0.5,3.5,1.5c0.9,1,1.3,2.3,1.3,3.9v6.7
			c0,0.2-0.1,0.3-0.2,0.4c-0.1,0.1-0.2,0.2-0.4,0.2h-2.1c-0.2,0-0.3-0.1-0.4-0.2c-0.1-0.1-0.2-0.2-0.2-0.4v-6.6
			c0-0.9-0.2-1.7-0.7-2.2c-0.5-0.5-1.1-0.8-2-0.8c-0.8,0-1.5,0.3-2,0.8c-0.5,0.5-0.7,1.3-0.7,2.2v6.6c0,0.2-0.1,0.3-0.2,0.4
			c-0.1,0.1-0.2,0.2-0.4,0.2h-2.1C407.9,543.8,407.8,543.7,407.7,543.6z"/>
		<path class="st5" d="M423.8,543.6c-0.1-0.1-0.2-0.2-0.2-0.4v-9.4h-1.9c-0.2,0-0.3-0.1-0.4-0.2c-0.1-0.1-0.2-0.3-0.2-0.4v-1.4
			c0-0.2,0.1-0.3,0.2-0.4c0.1-0.1,0.2-0.2,0.4-0.2h1.9v-1c0-2.9,1.6-4.3,4.7-4.3h4.9c0.2,0,0.3,0.1,0.4,0.2c0.1,0.1,0.2,0.2,0.2,0.4
			v1.4c0,0.2-0.1,0.3-0.2,0.4c-0.1,0.1-0.2,0.2-0.4,0.2h-4.8c-0.6,0-1.1,0.2-1.3,0.5s-0.4,0.8-0.4,1.4v0.9h6.5
			c0.2,0,0.3,0.1,0.4,0.2c0.1,0.1,0.2,0.2,0.2,0.4v11.3c0,0.2-0.1,0.3-0.2,0.4c-0.1,0.1-0.2,0.2-0.4,0.2h-1.9
			c-0.2,0-0.3-0.1-0.4-0.2c-0.1-0.1-0.2-0.2-0.2-0.4v-9.4h-4v9.4c0,0.2-0.1,0.3-0.2,0.4c-0.1,0.1-0.2,0.2-0.4,0.2h-2
			C424.1,543.8,424,543.7,423.8,543.6z"/>
		<path class="st5" d="M439.2,548.3c-0.9-0.5-1.5-1-1.9-1.6c-0.4-0.6-0.6-1.1-0.6-1.6c0-0.1,0.1-0.3,0.2-0.4s0.3-0.2,0.4-0.2h2.1
			c0.1,0,0.3,0,0.4,0.1c0.1,0.1,0.2,0.2,0.3,0.4c0.2,0.4,0.4,0.8,0.8,1.1c0.4,0.3,0.9,0.4,1.7,0.4c1,0,1.7-0.2,2.1-0.6
			c0.5-0.4,0.7-1.2,0.7-2.2v-1.6c-0.9,1-2.1,1.6-3.7,1.6c-1.7,0-2.9-0.5-3.8-1.5c-0.8-1-1.3-2.4-1.4-4.1l0-0.6l0-0.6
			c0.1-1.7,0.5-3.1,1.4-4.1c0.8-1,2.1-1.6,3.7-1.6c0.8,0,1.6,0.2,2.2,0.5c0.6,0.3,1.2,0.8,1.6,1.3v-1c0-0.2,0.1-0.3,0.2-0.4
			c0.1-0.1,0.2-0.2,0.4-0.2h1.9c0.2,0,0.3,0.1,0.4,0.2s0.2,0.3,0.2,0.4l0,11.6c0,1.8-0.5,3.2-1.5,4.1c-1,1-2.5,1.5-4.5,1.5
			C441.3,549,440.1,548.8,439.2,548.3z M444.6,540.3c0.5-0.6,0.7-1.3,0.8-2.1c0-0.1,0-0.4,0-0.8c0-0.4,0-0.6,0-0.8
			c0-0.8-0.3-1.6-0.8-2.1c-0.5-0.6-1.1-0.9-2.1-0.9c-1.7,0-2.6,1.1-2.7,3.2l0,0.6c0,1.1,0.2,2,0.6,2.7c0.4,0.7,1.1,1,2.1,1
			C443.5,541.1,444.2,540.9,444.6,540.3z"/>
	</g>
</g>
<g>
	<g class="st0">
		<path class="st1" d="M709.1,30.6c-1.2-1.1-1.9-2.7-1.9-4.8c0-0.4,0-1.1,0-2.1c0-1,0-1.7,0-2.2c0.1-2,0.7-3.6,2-4.8
			c1.2-1.1,2.9-1.7,5.1-1.7c1.4,0,2.7,0.2,3.7,0.7s1.9,1.2,2.4,2c0.6,0.8,0.9,1.8,0.9,2.8v0c0,0.1-0.1,0.2-0.2,0.3
			c-0.1,0.1-0.2,0.1-0.3,0.1h-2.3c-0.2,0-0.3,0-0.4-0.1c-0.1-0.1-0.2-0.2-0.2-0.5c-0.3-1-0.7-1.7-1.3-2.1s-1.4-0.6-2.4-0.6
			c-2.3,0-3.5,1.3-3.6,3.9c0,0.4,0,1.1,0,2s0,1.6,0,2c0.1,2.6,1.3,3.9,3.6,3.9c1,0,1.8-0.2,2.4-0.6c0.6-0.4,1-1.1,1.3-2.1
			c0-0.2,0.1-0.4,0.2-0.5s0.3-0.1,0.4-0.1h2.3c0.1,0,0.3,0,0.4,0.1c0.1,0.1,0.1,0.2,0.1,0.4c0,1.1-0.3,2-0.9,2.8
			c-0.6,0.8-1.4,1.5-2.4,2c-1.1,0.5-2.3,0.7-3.7,0.7C712,32.3,710.3,31.8,709.1,30.6z"/>
		<path class="st1" d="M724.1,31.9c-0.1-0.1-0.2-0.2-0.2-0.4V15.6c0-0.2,0.1-0.3,0.2-0.4c0.1-0.1,0.2-0.2,0.4-0.2h2
			c0.2,0,0.3,0.1,0.4,0.2c0.1,0.1,0.2,0.2,0.2,0.4v15.9c0,0.2-0.1,0.3-0.2,0.4c-0.1,0.1-0.2,0.2-0.4,0.2h-2
			C724.3,32.1,724.2,32,724.1,31.9z"/>
		<path class="st1" d="M731.4,30.9c-0.8-1-1.3-2.3-1.3-3.9v-6.7c0-0.2,0.1-0.3,0.2-0.4c0.1-0.1,0.2-0.2,0.4-0.2h2.1
			c0.2,0,0.3,0.1,0.4,0.2c0.1,0.1,0.2,0.2,0.2,0.4v6.6c0,2,0.9,3,2.6,3c0.8,0,1.5-0.3,2-0.8c0.5-0.5,0.7-1.3,0.7-2.2v-6.6
			c0-0.2,0.1-0.3,0.2-0.4c0.1-0.1,0.2-0.2,0.4-0.2h2.1c0.2,0,0.3,0.1,0.4,0.2c0.1,0.1,0.2,0.2,0.2,0.4v11.3c0,0.2-0.1,0.3-0.2,0.4
			c-0.1,0.1-0.2,0.2-0.4,0.2h-1.9c-0.2,0-0.3-0.1-0.4-0.2c-0.1-0.1-0.2-0.2-0.2-0.4v-1c-0.9,1.2-2.2,1.8-4,1.8
			C733.4,32.3,732.2,31.8,731.4,30.9z"/>
		<path class="st1" d="M746.8,31.8c-0.8-0.4-1.4-0.8-1.8-1.3c-0.4-0.5-0.6-0.9-0.6-1.3c0-0.2,0.1-0.3,0.2-0.4
			c0.1-0.1,0.2-0.1,0.4-0.1h1.9c0.1,0,0.3,0.1,0.4,0.2c0.1,0,0.2,0.2,0.5,0.4c0.3,0.3,0.6,0.5,1,0.6c0.4,0.1,0.8,0.2,1.2,0.2
			c0.6,0,1.2-0.1,1.6-0.4s0.6-0.6,0.6-1.1c0-0.3-0.1-0.6-0.3-0.8c-0.2-0.2-0.5-0.4-1-0.6c-0.5-0.2-1.2-0.3-2.1-0.5
			c-1.4-0.3-2.4-0.7-3-1.3c-0.6-0.6-1-1.4-1-2.4c0-0.6,0.2-1.2,0.6-1.8c0.4-0.6,1-1,1.7-1.4c0.8-0.4,1.7-0.5,2.7-0.5
			c1.1,0,2,0.2,2.8,0.5c0.8,0.3,1.4,0.8,1.8,1.2c0.4,0.5,0.6,0.9,0.6,1.3c0,0.1-0.1,0.3-0.2,0.4c-0.1,0.1-0.2,0.2-0.4,0.2h-1.8
			c-0.1,0-0.3-0.1-0.4-0.2c-0.1-0.1-0.3-0.2-0.5-0.5c-0.2-0.2-0.5-0.4-0.8-0.5c-0.3-0.1-0.7-0.2-1.1-0.2c-0.6,0-1.1,0.1-1.4,0.4
			c-0.3,0.3-0.5,0.6-0.5,1c0,0.3,0.1,0.6,0.2,0.7c0.2,0.2,0.5,0.4,0.9,0.6s1.2,0.4,2.1,0.5c1.5,0.3,2.6,0.8,3.3,1.4
			c0.7,0.6,1,1.4,1,2.4c0,1.1-0.5,2-1.5,2.7c-1,0.7-2.3,1.1-4.1,1.1C748.7,32.3,747.6,32.1,746.8,31.8z"/>
		<path class="st1" d="M760.2,30.9c-0.7-0.8-1.1-1.9-1.1-3.3v-5.4h-1.9c-0.2,0-0.3-0.1-0.4-0.2c-0.1-0.1-0.2-0.3-0.2-0.4v-1.4
			c0-0.2,0.1-0.3,0.2-0.4c0.1-0.1,0.2-0.2,0.4-0.2h1.9v-4c0-0.2,0.1-0.3,0.2-0.4c0.1-0.1,0.2-0.2,0.4-0.2h1.9c0.2,0,0.3,0.1,0.4,0.2
			c0.1,0.1,0.2,0.2,0.2,0.4v4h3c0.2,0,0.3,0.1,0.4,0.2c0.1,0.1,0.2,0.2,0.2,0.4v1.4c0,0.2-0.1,0.3-0.2,0.4c-0.1,0.1-0.2,0.2-0.4,0.2
			h-3v5.2c0,0.7,0.1,1.2,0.4,1.6c0.2,0.4,0.6,0.5,1.2,0.5h1.7c0.2,0,0.3,0.1,0.4,0.2c0.1,0.1,0.2,0.2,0.2,0.4v1.5
			c0,0.2-0.1,0.3-0.2,0.4c-0.1,0.1-0.2,0.2-0.4,0.2h-1.9C762,32.1,760.9,31.7,760.2,30.9z"/>
		<path class="st1" d="M769.3,30.8c-1-1-1.6-2.5-1.7-4.4l0-0.6l0-0.6c0.1-1.8,0.6-3.3,1.7-4.3s2.5-1.6,4.2-1.6
			c1.9,0,3.3,0.6,4.4,1.7c1,1.2,1.5,2.7,1.5,4.6v0.5c0,0.2-0.1,0.3-0.2,0.4c-0.1,0.1-0.3,0.2-0.4,0.2h-8V27c0,0.9,0.3,1.6,0.7,2.2
			c0.5,0.6,1.1,0.9,1.9,0.9c0.9,0,1.7-0.4,2.3-1.1c0.1-0.2,0.3-0.3,0.3-0.3c0.1,0,0.2-0.1,0.4-0.1h2.1c0.1,0,0.3,0,0.4,0.1
			c0.1,0.1,0.2,0.2,0.2,0.3c0,0.4-0.2,0.8-0.7,1.4c-0.5,0.5-1.1,1-2,1.4s-1.8,0.6-3,0.6C771.7,32.3,770.3,31.8,769.3,30.8z
			 M776.2,24.8L776.2,24.8c0-1-0.2-1.8-0.7-2.4s-1.1-0.9-2-0.9s-1.5,0.3-1.9,0.9c-0.5,0.6-0.7,1.3-0.7,2.3v0.1H776.2z"/>
		<path class="st1" d="M782.2,31.9c-0.1-0.1-0.2-0.2-0.2-0.4V20.2c0-0.2,0.1-0.3,0.2-0.4s0.2-0.2,0.4-0.2h1.9c0.2,0,0.3,0.1,0.4,0.2
			c0.1,0.1,0.2,0.3,0.2,0.4v1c0.4-0.5,0.9-0.9,1.5-1.2c0.6-0.3,1.3-0.4,2-0.4h1c0.2,0,0.3,0.1,0.4,0.2c0.1,0.1,0.2,0.2,0.2,0.4v1.7
			c0,0.2-0.1,0.3-0.2,0.4c-0.1,0.1-0.2,0.2-0.4,0.2h-1.9c-0.8,0-1.3,0.2-1.8,0.6c-0.4,0.4-0.6,1-0.6,1.8v6.6c0,0.2-0.1,0.3-0.2,0.4
			c-0.1,0.1-0.3,0.2-0.4,0.2h-2.1C782.4,32.1,782.3,32,782.2,31.9z"/>
		<path class="st1" d="M792.1,23.5c-0.1-0.1-0.2-0.2-0.2-0.4v-2.3c0-0.2,0.1-0.3,0.2-0.4c0.1-0.1,0.2-0.2,0.4-0.2h2.4
			c0.2,0,0.3,0.1,0.4,0.2c0.1,0.1,0.2,0.3,0.2,0.4v2.3c0,0.2-0.1,0.3-0.2,0.4c-0.1,0.1-0.3,0.2-0.4,0.2h-2.4
			C792.3,23.7,792.2,23.6,792.1,23.5z M792.1,31.9c-0.1-0.1-0.2-0.2-0.2-0.4v-2.3c0-0.2,0.1-0.3,0.2-0.4c0.1-0.1,0.2-0.2,0.4-0.2
			h2.4c0.2,0,0.3,0.1,0.4,0.2c0.1,0.1,0.2,0.3,0.2,0.4v2.3c0,0.2-0.1,0.3-0.2,0.4c-0.1,0.1-0.3,0.2-0.4,0.2h-2.4
			C792.3,32.1,792.2,32,792.1,31.9z"/>
		<path class="st1" d="M805.2,30.8c-1-1-1.6-2.5-1.7-4.4l0-0.6l0-0.6c0.1-1.8,0.6-3.3,1.7-4.3s2.5-1.6,4.2-1.6
			c1.9,0,3.3,0.6,4.4,1.7c1,1.2,1.5,2.7,1.5,4.6v0.5c0,0.2-0.1,0.3-0.2,0.4c-0.1,0.1-0.3,0.2-0.4,0.2h-8V27c0,0.9,0.3,1.6,0.7,2.2
			c0.5,0.6,1.1,0.9,1.9,0.9c0.9,0,1.7-0.4,2.3-1.1c0.1-0.2,0.3-0.3,0.3-0.3c0.1,0,0.2-0.1,0.4-0.1h2.1c0.1,0,0.3,0,0.4,0.1
			c0.1,0.1,0.2,0.2,0.2,0.3c0,0.4-0.2,0.8-0.7,1.4c-0.5,0.5-1.1,1-2,1.4s-1.8,0.6-3,0.6C807.7,32.3,806.3,31.8,805.2,30.8z
			 M812.1,24.8L812.1,24.8c0-1-0.2-1.8-0.7-2.4s-1.1-0.9-2-0.9s-1.5,0.3-1.9,0.9c-0.5,0.6-0.7,1.3-0.7,2.3v0.1H812.1z"/>
		<path class="st1" d="M819.3,31.8c-0.7-0.3-1.2-0.8-1.6-1.3c-0.4-0.6-0.6-1.2-0.6-1.8c0-1.1,0.4-2,1.3-2.6s2.1-1.1,3.6-1.4l3.3-0.5
			v-0.5c0-0.7-0.2-1.2-0.5-1.6s-0.9-0.5-1.7-0.5c-0.5,0-1,0.1-1.3,0.3c-0.3,0.2-0.6,0.4-0.8,0.6c-0.2,0.2-0.3,0.3-0.4,0.4
			c-0.1,0.2-0.2,0.3-0.4,0.3h-1.8c-0.1,0-0.3,0-0.4-0.1c-0.1-0.1-0.2-0.2-0.2-0.4c0-0.4,0.2-0.9,0.6-1.4c0.4-0.5,1-1,1.7-1.3
			c0.8-0.4,1.7-0.6,2.9-0.6c1.9,0,3.3,0.4,4.1,1.3c0.9,0.8,1.3,2,1.3,3.3v7.5c0,0.2-0.1,0.3-0.2,0.4c-0.1,0.1-0.2,0.2-0.4,0.2H826
			c-0.2,0-0.3-0.1-0.4-0.2c-0.1-0.1-0.2-0.2-0.2-0.4v-0.9c-0.4,0.5-0.9,0.9-1.5,1.3c-0.6,0.3-1.5,0.5-2.4,0.5
			C820.7,32.3,820,32.2,819.3,31.8z M824.5,29.2c0.6-0.6,0.8-1.4,0.8-2.5v-0.5l-2.4,0.4c-0.9,0.1-1.6,0.4-2.1,0.7s-0.7,0.7-0.7,1.2
			c0,0.5,0.2,0.9,0.6,1.2s1,0.4,1.6,0.4C823.2,30,824,29.8,824.5,29.2z"/>
		<path class="st1" d="M833.3,31.8c-0.8-0.4-1.4-0.8-1.8-1.3c-0.4-0.5-0.6-0.9-0.6-1.3c0-0.2,0.1-0.3,0.2-0.4
			c0.1-0.1,0.2-0.1,0.4-0.1h1.9c0.1,0,0.3,0.1,0.4,0.2c0.1,0,0.2,0.2,0.5,0.4c0.3,0.3,0.6,0.5,1,0.6c0.4,0.1,0.8,0.2,1.2,0.2
			c0.6,0,1.2-0.1,1.6-0.4s0.6-0.6,0.6-1.1c0-0.3-0.1-0.6-0.3-0.8c-0.2-0.2-0.5-0.4-1-0.6c-0.5-0.2-1.2-0.3-2.1-0.5
			c-1.4-0.3-2.4-0.7-3-1.3c-0.6-0.6-1-1.4-1-2.4c0-0.6,0.2-1.2,0.6-1.8c0.4-0.6,1-1,1.7-1.4c0.8-0.4,1.7-0.5,2.7-0.5
			c1.1,0,2,0.2,2.8,0.5c0.8,0.3,1.4,0.8,1.8,1.2c0.4,0.5,0.6,0.9,0.6,1.3c0,0.1-0.1,0.3-0.2,0.4c-0.1,0.1-0.2,0.2-0.4,0.2h-1.8
			c-0.1,0-0.3-0.1-0.4-0.2c-0.1-0.1-0.3-0.2-0.5-0.5c-0.2-0.2-0.5-0.4-0.8-0.5c-0.3-0.1-0.7-0.2-1.1-0.2c-0.6,0-1.1,0.1-1.4,0.4
			c-0.3,0.3-0.5,0.6-0.5,1c0,0.3,0.1,0.6,0.2,0.7c0.2,0.2,0.5,0.4,0.9,0.6s1.2,0.4,2.1,0.5c1.5,0.3,2.6,0.8,3.3,1.4
			c0.7,0.6,1,1.4,1,2.4c0,1.1-0.5,2-1.5,2.7c-1,0.7-2.3,1.1-4.1,1.1C835.1,32.3,834.1,32.1,833.3,31.8z"/>
		<path class="st1" d="M846.7,30.9c-0.7-0.8-1.1-1.9-1.1-3.3v-5.4h-1.9c-0.2,0-0.3-0.1-0.4-0.2c-0.1-0.1-0.2-0.3-0.2-0.4v-1.4
			c0-0.2,0.1-0.3,0.2-0.4c0.1-0.1,0.2-0.2,0.4-0.2h1.9v-4c0-0.2,0.1-0.3,0.2-0.4c0.1-0.1,0.2-0.2,0.4-0.2h1.9c0.2,0,0.3,0.1,0.4,0.2
			c0.1,0.1,0.2,0.2,0.2,0.4v4h3c0.2,0,0.3,0.1,0.4,0.2c0.1,0.1,0.2,0.2,0.2,0.4v1.4c0,0.2-0.1,0.3-0.2,0.4c-0.1,0.1-0.2,0.2-0.4,0.2
			h-3v5.2c0,0.7,0.1,1.2,0.4,1.6c0.2,0.4,0.6,0.5,1.2,0.5h1.7c0.2,0,0.3,0.1,0.4,0.2c0.1,0.1,0.2,0.2,0.2,0.4v1.5
			c0,0.2-0.1,0.3-0.2,0.4c-0.1,0.1-0.2,0.2-0.4,0.2H850C848.5,32.1,847.4,31.7,846.7,30.9z"/>
	</g>
</g>
<g>
	<path class="st2" d="M1115.5,47.9H715.9c-5.5,0-10,4.5-10,10v547.8c0,5.5,4.5,10,10,10h399.6c5.5,0,10-4.5,10-10V57.9
		C1125.5,52.4,1121,47.9,1115.5,47.9z"/>
	<path class="st3" d="M1115.5,47.9H715.9c-5.5,0-10,4.5-10,10v547.8c0,5.5,4.5,10,10,10h399.6c5.5,0,10-4.5,10-10V57.9
		C1125.5,52.4,1121,47.9,1115.5,47.9z"/>
</g>
<path class="st4" d="M1096.6,88.3v80c0,5.5-4.5,10-10,10H744.8c-5.5,0-10-4.5-10-10v-80c0-5.5,4.5-10,10-10h341.8
	C1092.1,78.3,1096.6,82.8,1096.6,88.3z"/>
<path class="st4" d="M1096.6,256.9v80c0,5.5-4.5,10-10,10H744.8c-5.5,0-10-4.5-10-10v-80c0-5.5,4.5-10,10-10h341.8
	C1092.1,246.9,1096.6,251.4,1096.6,256.9z"/>
<g>
	<g class="st0">
		<path class="st5" d="M852.4,302.3c-1.2-1.1-1.9-2.7-1.9-4.8c0-0.4,0-1.1,0-2.1c0-1,0-1.7,0-2.2c0.1-2,0.7-3.6,2-4.8
			c1.2-1.1,2.9-1.7,5.1-1.7c1.4,0,2.7,0.2,3.7,0.7s1.9,1.2,2.4,2c0.6,0.8,0.9,1.8,0.9,2.8v0c0,0.1-0.1,0.2-0.2,0.3s-0.2,0.1-0.3,0.1
			h-2.3c-0.2,0-0.3,0-0.4-0.1c-0.1-0.1-0.2-0.2-0.2-0.5c-0.3-1-0.7-1.7-1.3-2.1s-1.4-0.6-2.4-0.6c-2.3,0-3.5,1.3-3.6,3.9
			c0,0.4,0,1.1,0,2s0,1.6,0,2c0.1,2.6,1.3,3.9,3.6,3.9c1,0,1.8-0.2,2.4-0.6c0.6-0.4,1-1.1,1.3-2.1c0-0.2,0.1-0.4,0.2-0.5
			c0.1-0.1,0.3-0.1,0.4-0.1h2.3c0.1,0,0.3,0,0.4,0.1c0.1,0.1,0.1,0.2,0.1,0.4c0,1.1-0.3,2-0.9,2.8c-0.6,0.8-1.4,1.5-2.4,2
			c-1.1,0.5-2.3,0.7-3.7,0.7C855.3,304,853.6,303.4,852.4,302.3z"/>
		<path class="st5" d="M867.4,303.6c-0.1-0.1-0.2-0.2-0.2-0.4v-15.9c0-0.2,0.1-0.3,0.2-0.4s0.2-0.2,0.4-0.2h2c0.2,0,0.3,0.1,0.4,0.2
			c0.1,0.1,0.2,0.2,0.2,0.4v15.9c0,0.2-0.1,0.3-0.2,0.4c-0.1,0.1-0.2,0.2-0.4,0.2h-2C867.6,303.8,867.5,303.7,867.4,303.6z"/>
		<path class="st5" d="M874.7,302.5c-0.8-1-1.3-2.3-1.3-3.9v-6.7c0-0.2,0.1-0.3,0.2-0.4c0.1-0.1,0.2-0.2,0.4-0.2h2.1
			c0.2,0,0.3,0.1,0.4,0.2c0.1,0.1,0.2,0.2,0.2,0.4v6.6c0,2,0.9,3,2.6,3c0.8,0,1.5-0.3,2-0.8s0.7-1.3,0.7-2.2v-6.6
			c0-0.2,0.1-0.3,0.2-0.4c0.1-0.1,0.2-0.2,0.4-0.2h2.1c0.2,0,0.3,0.1,0.4,0.2c0.1,0.1,0.2,0.2,0.2,0.4v11.3c0,0.2-0.1,0.3-0.2,0.4
			c-0.1,0.1-0.2,0.2-0.4,0.2h-1.9c-0.2,0-0.3-0.1-0.4-0.2c-0.1-0.1-0.2-0.2-0.2-0.4v-1c-0.9,1.2-2.2,1.8-4,1.8
			C876.7,304,875.5,303.5,874.7,302.5z"/>
		<path class="st5" d="M890.1,303.5c-0.8-0.4-1.4-0.8-1.8-1.3c-0.4-0.5-0.6-0.9-0.6-1.3c0-0.2,0.1-0.3,0.2-0.4s0.2-0.1,0.4-0.1h1.9
			c0.1,0,0.3,0.1,0.4,0.2c0.1,0,0.2,0.2,0.5,0.4c0.3,0.3,0.6,0.5,1,0.6c0.4,0.1,0.8,0.2,1.2,0.2c0.6,0,1.2-0.1,1.6-0.4
			s0.6-0.6,0.6-1.1c0-0.3-0.1-0.6-0.3-0.8c-0.2-0.2-0.5-0.4-1-0.6s-1.2-0.3-2.1-0.5c-1.4-0.3-2.4-0.7-3-1.3c-0.6-0.6-1-1.4-1-2.4
			c0-0.6,0.2-1.2,0.6-1.8c0.4-0.6,1-1,1.7-1.4c0.8-0.4,1.7-0.5,2.7-0.5c1.1,0,2,0.2,2.8,0.5c0.8,0.3,1.4,0.8,1.8,1.2
			c0.4,0.5,0.6,0.9,0.6,1.3c0,0.1-0.1,0.3-0.2,0.4c-0.1,0.1-0.2,0.2-0.4,0.2h-1.8c-0.1,0-0.3-0.1-0.4-0.2c-0.1-0.1-0.3-0.2-0.5-0.5
			c-0.2-0.2-0.5-0.4-0.8-0.5c-0.3-0.1-0.7-0.2-1.1-0.2c-0.6,0-1.1,0.1-1.4,0.4c-0.3,0.3-0.5,0.6-0.5,1c0,0.3,0.1,0.6,0.2,0.7
			c0.2,0.2,0.5,0.4,0.9,0.6c0.5,0.2,1.2,0.4,2.1,0.5c1.5,0.3,2.6,0.8,3.3,1.4c0.7,0.6,1,1.4,1,2.4c0,1.1-0.5,2-1.5,2.7
			c-1,0.7-2.3,1.1-4.1,1.1C892,304,890.9,303.8,890.1,303.5z"/>
		<path class="st5" d="M903.5,302.6c-0.7-0.8-1.1-1.9-1.1-3.3v-5.4h-1.9c-0.2,0-0.3-0.1-0.4-0.2c-0.1-0.1-0.2-0.3-0.2-0.4v-1.4
			c0-0.2,0.1-0.3,0.2-0.4c0.1-0.1,0.2-0.2,0.4-0.2h1.9v-4c0-0.2,0.1-0.3,0.2-0.4s0.2-0.2,0.4-0.2h1.9c0.2,0,0.3,0.1,0.4,0.2
			c0.1,0.1,0.2,0.2,0.2,0.4v4h3c0.2,0,0.3,0.1,0.4,0.2c0.1,0.1,0.2,0.2,0.2,0.4v1.4c0,0.2-0.1,0.3-0.2,0.4c-0.1,0.1-0.2,0.2-0.4,0.2
			h-3v5.2c0,0.7,0.1,1.2,0.4,1.6c0.2,0.4,0.6,0.5,1.2,0.5h1.7c0.2,0,0.3,0.1,0.4,0.2c0.1,0.1,0.2,0.2,0.2,0.4v1.5
			c0,0.2-0.1,0.3-0.2,0.4c-0.1,0.1-0.2,0.2-0.4,0.2h-1.9C905.3,303.8,904.2,303.4,903.5,302.6z"/>
		<path class="st5" d="M912.6,302.5c-1-1-1.6-2.5-1.7-4.4l0-0.6l0-0.6c0.1-1.8,0.6-3.3,1.7-4.3c1-1,2.5-1.6,4.2-1.6
			c1.9,0,3.3,0.6,4.4,1.7c1,1.2,1.5,2.7,1.5,4.6v0.5c0,0.2-0.1,0.3-0.2,0.4c-0.1,0.1-0.3,0.2-0.4,0.2h-8v0.2c0,0.9,0.3,1.6,0.7,2.2
			c0.5,0.6,1.1,0.9,1.9,0.9c0.9,0,1.7-0.4,2.3-1.1c0.1-0.2,0.3-0.3,0.3-0.3c0.1,0,0.2-0.1,0.4-0.1h2.1c0.1,0,0.3,0,0.4,0.1
			s0.2,0.2,0.2,0.3c0,0.4-0.2,0.8-0.7,1.4c-0.5,0.5-1.1,1-2,1.4c-0.8,0.4-1.8,0.6-3,0.6C915,304,913.6,303.5,912.6,302.5z
			 M919.5,296.4L919.5,296.4c0-1-0.2-1.8-0.7-2.4c-0.5-0.6-1.1-0.9-2-0.9s-1.5,0.3-1.9,0.9c-0.5,0.6-0.7,1.3-0.7,2.3v0.1H919.5z"/>
		<path class="st5" d="M925.5,303.6c-0.1-0.1-0.2-0.2-0.2-0.4v-11.3c0-0.2,0.1-0.3,0.2-0.4c0.1-0.1,0.2-0.2,0.4-0.2h1.9
			c0.2,0,0.3,0.1,0.4,0.2c0.1,0.1,0.2,0.3,0.2,0.4v1c0.4-0.5,0.9-0.9,1.5-1.2c0.6-0.3,1.3-0.4,2-0.4h1c0.2,0,0.3,0.1,0.4,0.2
			c0.1,0.1,0.2,0.2,0.2,0.4v1.7c0,0.2-0.1,0.3-0.2,0.4c-0.1,0.1-0.2,0.2-0.4,0.2H931c-0.8,0-1.3,0.2-1.8,0.6c-0.4,0.4-0.6,1-0.6,1.8
			v6.6c0,0.2-0.1,0.3-0.2,0.4c-0.1,0.1-0.3,0.2-0.4,0.2h-2.1C925.7,303.8,925.6,303.7,925.5,303.6z"/>
		<path class="st5" d="M935.8,303.6c-0.1-0.1-0.2-0.2-0.2-0.4v-15.6c0-0.2,0.1-0.3,0.2-0.4s0.2-0.2,0.4-0.2h6.2c2,0,3.5,0.5,4.6,1.4
			c1.1,0.9,1.7,2.2,1.7,3.9c0,1.2-0.3,2.1-0.9,2.9c-0.6,0.8-1.4,1.4-2.4,1.7l3.5,6.1c0,0.1,0.1,0.2,0.1,0.3c0,0.1-0.1,0.3-0.2,0.4
			c-0.1,0.1-0.2,0.1-0.3,0.1h-2.2c-0.3,0-0.5-0.1-0.6-0.2c-0.1-0.1-0.3-0.3-0.4-0.5l-3.1-5.7h-3.3v5.8c0,0.2-0.1,0.3-0.2,0.4
			c-0.1,0.1-0.2,0.2-0.4,0.2h-2.2C936,303.8,935.9,303.7,935.8,303.6z M942.3,294.7c1,0,1.7-0.2,2.2-0.6c0.5-0.4,0.7-1.1,0.7-1.9
			c0-0.8-0.2-1.4-0.7-1.9s-1.2-0.7-2.2-0.7h-3.4v5.1H942.3z"/>
		<path class="st5" d="M952.5,302.5c-1-1-1.6-2.3-1.7-4l0-1.1l0-1.1c0.1-1.7,0.6-3,1.7-4s2.5-1.5,4.3-1.5s3.3,0.5,4.3,1.5
			c1,1,1.6,2.3,1.7,4c0,0.2,0,0.5,0,1.1c0,0.5,0,0.9,0,1.1c-0.1,1.7-0.6,3-1.7,4s-2.5,1.5-4.3,1.5S953.5,303.5,952.5,302.5z
			 M958.8,300.8c0.5-0.5,0.7-1.3,0.8-2.4c0-0.2,0-0.5,0-0.9c0-0.5,0-0.8,0-0.9c0-1-0.3-1.8-0.8-2.4s-1.1-0.8-2-0.8s-1.5,0.3-2,0.8
			s-0.7,1.3-0.8,2.4l0,0.9l0,0.9c0,1,0.3,1.8,0.8,2.4c0.5,0.5,1.1,0.8,2,0.8S958.3,301.4,958.8,300.8z"/>
		<path class="st5" d="M965.7,303.6c-0.1-0.1-0.2-0.2-0.2-0.4v-15.9c0-0.2,0.1-0.3,0.2-0.4s0.2-0.2,0.4-0.2h2c0.2,0,0.3,0.1,0.4,0.2
			c0.1,0.1,0.2,0.2,0.2,0.4v15.9c0,0.2-0.1,0.3-0.2,0.4c-0.1,0.1-0.2,0.2-0.4,0.2h-2C966,303.8,965.8,303.7,965.7,303.6z"/>
		<path class="st5" d="M973,302.5c-1-1-1.6-2.5-1.7-4.4l0-0.6l0-0.6c0.1-1.8,0.6-3.3,1.7-4.3s2.5-1.6,4.2-1.6c1.9,0,3.3,0.6,4.4,1.7
			c1,1.2,1.5,2.7,1.5,4.6v0.5c0,0.2-0.1,0.3-0.2,0.4c-0.1,0.1-0.3,0.2-0.4,0.2h-8v0.2c0,0.9,0.3,1.6,0.7,2.2
			c0.5,0.6,1.1,0.9,1.9,0.9c0.9,0,1.7-0.4,2.3-1.1c0.1-0.2,0.3-0.3,0.3-0.3c0.1,0,0.2-0.1,0.4-0.1h2.1c0.1,0,0.3,0,0.4,0.1
			c0.1,0.1,0.2,0.2,0.2,0.3c0,0.4-0.2,0.8-0.7,1.4c-0.5,0.5-1.1,1-2,1.4c-0.8,0.4-1.8,0.6-3,0.6C975.5,304,974.1,303.5,973,302.5z
			 M979.9,296.4L979.9,296.4c0-1-0.2-1.8-0.7-2.4s-1.1-0.9-2-0.9s-1.5,0.3-1.9,0.9c-0.5,0.6-0.7,1.3-0.7,2.3v0.1H979.9z"/>
	</g>
</g>
<path class="st4" d="M1096.6,376.9v80c0,5.5-4.5,10-10,10H744.8c-5.5,0-10-4.5-10-10v-80c0-5.5,4.5-10,10-10h341.8
	C1092.1,366.9,1096.6,371.4,1096.6,376.9z"/>
<g>
	<g class="st0">
		<path class="st5" d="M808.1,422.3c-1.2-1.1-1.9-2.7-1.9-4.8c0-0.4,0-1.1,0-2.1c0-1,0-1.7,0-2.2c0.1-2,0.7-3.6,2-4.8
			c1.2-1.1,2.9-1.7,5.1-1.7c1.4,0,2.7,0.2,3.7,0.7c1.1,0.5,1.9,1.2,2.4,2c0.6,0.8,0.9,1.8,0.9,2.8v0c0,0.1-0.1,0.2-0.2,0.3
			c-0.1,0.1-0.2,0.1-0.3,0.1h-2.3c-0.2,0-0.3,0-0.4-0.1s-0.2-0.2-0.2-0.5c-0.3-1-0.7-1.7-1.3-2.1s-1.4-0.6-2.4-0.6
			c-2.3,0-3.5,1.3-3.6,3.9c0,0.4,0,1.1,0,2s0,1.6,0,2c0.1,2.6,1.3,3.9,3.6,3.9c1,0,1.8-0.2,2.4-0.6s1-1.1,1.3-2.1
			c0-0.2,0.1-0.4,0.2-0.5c0.1-0.1,0.3-0.1,0.4-0.1h2.3c0.1,0,0.3,0,0.4,0.1c0.1,0.1,0.1,0.2,0.1,0.4c0,1.1-0.3,2-0.9,2.8
			c-0.6,0.8-1.4,1.5-2.4,2c-1.1,0.5-2.3,0.7-3.7,0.7C811,424,809.3,423.4,808.1,422.3z"/>
		<path class="st5" d="M823.1,423.6c-0.1-0.1-0.2-0.2-0.2-0.4v-15.9c0-0.2,0.1-0.3,0.2-0.4c0.1-0.1,0.2-0.2,0.4-0.2h2
			c0.2,0,0.3,0.1,0.4,0.2c0.1,0.1,0.2,0.2,0.2,0.4v15.9c0,0.2-0.1,0.3-0.2,0.4c-0.1,0.1-0.2,0.2-0.4,0.2h-2
			C823.3,423.8,823.2,423.7,823.1,423.6z"/>
		<path class="st5" d="M830.4,422.5c-0.8-1-1.3-2.3-1.3-3.9v-6.7c0-0.2,0.1-0.3,0.2-0.4c0.1-0.1,0.2-0.2,0.4-0.2h2.1
			c0.2,0,0.3,0.1,0.4,0.2c0.1,0.1,0.2,0.2,0.2,0.4v6.6c0,2,0.9,3,2.6,3c0.8,0,1.5-0.3,2-0.8c0.5-0.5,0.7-1.3,0.7-2.2v-6.6
			c0-0.2,0.1-0.3,0.2-0.4c0.1-0.1,0.2-0.2,0.4-0.2h2.1c0.2,0,0.3,0.1,0.4,0.2c0.1,0.1,0.2,0.2,0.2,0.4v11.3c0,0.2-0.1,0.3-0.2,0.4
			c-0.1,0.1-0.2,0.2-0.4,0.2h-1.9c-0.2,0-0.3-0.1-0.4-0.2c-0.1-0.1-0.2-0.2-0.2-0.4v-1c-0.9,1.2-2.2,1.8-4,1.8
			C832.4,424,831.2,423.5,830.4,422.5z"/>
		<path class="st5" d="M845.8,423.5c-0.8-0.4-1.4-0.8-1.8-1.3c-0.4-0.5-0.6-0.9-0.6-1.3c0-0.2,0.1-0.3,0.2-0.4
			c0.1-0.1,0.2-0.1,0.4-0.1h1.9c0.1,0,0.3,0.1,0.4,0.2c0.1,0,0.2,0.2,0.5,0.4c0.3,0.3,0.6,0.5,1,0.6c0.4,0.1,0.8,0.2,1.2,0.2
			c0.6,0,1.2-0.1,1.6-0.4s0.6-0.6,0.6-1.1c0-0.3-0.1-0.6-0.3-0.8s-0.5-0.4-1-0.6c-0.5-0.2-1.2-0.3-2.1-0.5c-1.4-0.3-2.4-0.7-3-1.3
			s-1-1.4-1-2.4c0-0.6,0.2-1.2,0.6-1.8c0.4-0.6,1-1,1.7-1.4c0.8-0.4,1.7-0.5,2.7-0.5c1.1,0,2,0.2,2.8,0.5c0.8,0.3,1.4,0.8,1.8,1.2
			c0.4,0.5,0.6,0.9,0.6,1.3c0,0.1-0.1,0.3-0.2,0.4c-0.1,0.1-0.2,0.2-0.4,0.2h-1.8c-0.1,0-0.3-0.1-0.4-0.2c-0.1-0.1-0.3-0.2-0.5-0.5
			c-0.2-0.2-0.5-0.4-0.8-0.5s-0.7-0.2-1.1-0.2c-0.6,0-1.1,0.1-1.4,0.4c-0.3,0.3-0.5,0.6-0.5,1c0,0.3,0.1,0.6,0.2,0.7
			c0.2,0.2,0.5,0.4,0.9,0.6s1.2,0.4,2.1,0.5c1.5,0.3,2.6,0.8,3.3,1.4c0.7,0.6,1,1.4,1,2.4c0,1.1-0.5,2-1.5,2.7
			c-1,0.7-2.3,1.1-4.1,1.1C847.7,424,846.7,423.8,845.8,423.5z"/>
		<path class="st5" d="M859.2,422.6c-0.7-0.8-1.1-1.9-1.1-3.3v-5.4h-1.9c-0.2,0-0.3-0.1-0.4-0.2s-0.2-0.3-0.2-0.4v-1.4
			c0-0.2,0.1-0.3,0.2-0.4c0.1-0.1,0.2-0.2,0.4-0.2h1.9v-4c0-0.2,0.1-0.3,0.2-0.4c0.1-0.1,0.2-0.2,0.4-0.2h1.9c0.2,0,0.3,0.1,0.4,0.2
			s0.2,0.2,0.2,0.4v4h3c0.2,0,0.3,0.1,0.4,0.2c0.1,0.1,0.2,0.2,0.2,0.4v1.4c0,0.2-0.1,0.3-0.2,0.4c-0.1,0.1-0.2,0.2-0.4,0.2h-3v5.2
			c0,0.7,0.1,1.2,0.4,1.6c0.2,0.4,0.6,0.5,1.2,0.5h1.7c0.2,0,0.3,0.1,0.4,0.2c0.1,0.1,0.2,0.2,0.2,0.4v1.5c0,0.2-0.1,0.3-0.2,0.4
			c-0.1,0.1-0.2,0.2-0.4,0.2h-1.9C861,423.8,859.9,423.4,859.2,422.6z"/>
		<path class="st5" d="M868.3,422.5c-1-1-1.6-2.5-1.7-4.4l0-0.6l0-0.6c0.1-1.8,0.6-3.3,1.7-4.3s2.5-1.6,4.2-1.6
			c1.9,0,3.3,0.6,4.4,1.7c1,1.2,1.5,2.7,1.5,4.6v0.5c0,0.2-0.1,0.3-0.2,0.4c-0.1,0.1-0.3,0.2-0.4,0.2h-8v0.2c0,0.9,0.3,1.6,0.7,2.2
			c0.5,0.6,1.1,0.9,1.9,0.9c0.9,0,1.7-0.4,2.3-1.1c0.1-0.2,0.3-0.3,0.3-0.3c0.1,0,0.2-0.1,0.4-0.1h2.1c0.1,0,0.3,0,0.4,0.1
			c0.1,0.1,0.2,0.2,0.2,0.3c0,0.4-0.2,0.8-0.7,1.4c-0.5,0.5-1.1,1-2,1.4c-0.8,0.4-1.8,0.6-3,0.6C870.8,424,869.3,423.5,868.3,422.5z
			 M875.2,416.4L875.2,416.4c0-1-0.2-1.8-0.7-2.4s-1.1-0.9-2-0.9s-1.5,0.3-1.9,0.9c-0.5,0.6-0.7,1.3-0.7,2.3v0.1H875.2z"/>
		<path class="st5" d="M881.2,423.6c-0.1-0.1-0.2-0.2-0.2-0.4v-11.3c0-0.2,0.1-0.3,0.2-0.4s0.2-0.2,0.4-0.2h1.9
			c0.2,0,0.3,0.1,0.4,0.2c0.1,0.1,0.2,0.3,0.2,0.4v1c0.4-0.5,0.9-0.9,1.5-1.2c0.6-0.3,1.3-0.4,2-0.4h1c0.2,0,0.3,0.1,0.4,0.2
			c0.1,0.1,0.2,0.2,0.2,0.4v1.7c0,0.2-0.1,0.3-0.2,0.4c-0.1,0.1-0.2,0.2-0.4,0.2h-1.9c-0.8,0-1.3,0.2-1.8,0.6
			c-0.4,0.4-0.6,1-0.6,1.8v6.6c0,0.2-0.1,0.3-0.2,0.4c-0.1,0.1-0.3,0.2-0.4,0.2h-2.1C881.4,423.8,881.3,423.7,881.2,423.6z"/>
		<path class="st5" d="M891.5,423.6c-0.1-0.1-0.2-0.2-0.2-0.4v-15.6c0-0.2,0.1-0.3,0.2-0.4c0.1-0.1,0.2-0.2,0.4-0.2h6.2
			c2,0,3.5,0.5,4.6,1.4s1.7,2.2,1.7,3.9c0,1.2-0.3,2.1-0.9,2.9c-0.6,0.8-1.4,1.4-2.4,1.7l3.5,6.1c0,0.1,0.1,0.2,0.1,0.3
			c0,0.1-0.1,0.3-0.2,0.4c-0.1,0.1-0.2,0.1-0.3,0.1H902c-0.3,0-0.5-0.1-0.6-0.2c-0.1-0.1-0.3-0.3-0.4-0.5l-3.1-5.7h-3.3v5.8
			c0,0.2-0.1,0.3-0.2,0.4c-0.1,0.1-0.2,0.2-0.4,0.2h-2.2C891.7,423.8,891.6,423.7,891.5,423.6z M898,414.7c1,0,1.7-0.2,2.2-0.6
			c0.5-0.4,0.7-1.1,0.7-1.9c0-0.8-0.2-1.4-0.7-1.9c-0.5-0.4-1.2-0.7-2.2-0.7h-3.4v5.1H898z"/>
		<path class="st5" d="M908.2,422.5c-1-1-1.6-2.3-1.7-4l0-1.1l0-1.1c0.1-1.7,0.6-3,1.7-4c1-1,2.5-1.5,4.3-1.5c1.8,0,3.3,0.5,4.3,1.5
			s1.6,2.3,1.7,4c0,0.2,0,0.5,0,1.1c0,0.5,0,0.9,0,1.1c-0.1,1.7-0.6,3-1.7,4c-1,1-2.5,1.5-4.3,1.5
			C910.7,424,909.2,423.5,908.2,422.5z M914.5,420.8c0.5-0.5,0.7-1.3,0.8-2.4c0-0.2,0-0.5,0-0.9c0-0.5,0-0.8,0-0.9
			c0-1-0.3-1.8-0.8-2.4c-0.5-0.5-1.1-0.8-2-0.8c-0.8,0-1.5,0.3-2,0.8c-0.5,0.5-0.7,1.3-0.8,2.4l0,0.9l0,0.9c0,1,0.3,1.8,0.8,2.4
			c0.5,0.5,1.1,0.8,2,0.8C913.4,421.6,914,421.4,914.5,420.8z"/>
		<path class="st5" d="M921.4,423.6c-0.1-0.1-0.2-0.2-0.2-0.4v-15.9c0-0.2,0.1-0.3,0.2-0.4c0.1-0.1,0.2-0.2,0.4-0.2h2
			c0.2,0,0.3,0.1,0.4,0.2s0.2,0.2,0.2,0.4v15.9c0,0.2-0.1,0.3-0.2,0.4c-0.1,0.1-0.2,0.2-0.4,0.2h-2
			C921.7,423.8,921.5,423.7,921.4,423.6z"/>
		<path class="st5" d="M928.7,422.5c-1-1-1.6-2.5-1.7-4.4l0-0.6l0-0.6c0.1-1.8,0.6-3.3,1.7-4.3c1-1,2.5-1.6,4.2-1.6
			c1.9,0,3.3,0.6,4.4,1.7c1,1.2,1.5,2.7,1.5,4.6v0.5c0,0.2-0.1,0.3-0.2,0.4c-0.1,0.1-0.3,0.2-0.4,0.2h-8v0.2c0,0.9,0.3,1.6,0.7,2.2
			c0.5,0.6,1.1,0.9,1.9,0.9c0.9,0,1.7-0.4,2.3-1.1c0.1-0.2,0.3-0.3,0.3-0.3c0.1,0,0.2-0.1,0.4-0.1h2.1c0.1,0,0.3,0,0.4,0.1
			s0.2,0.2,0.2,0.3c0,0.4-0.2,0.8-0.7,1.4c-0.5,0.5-1.1,1-2,1.4s-1.8,0.6-3,0.6C931.2,424,929.8,423.5,928.7,422.5z M935.6,416.4
			L935.6,416.4c0-1-0.2-1.8-0.7-2.4c-0.5-0.6-1.1-0.9-2-0.9s-1.5,0.3-1.9,0.9s-0.7,1.3-0.7,2.3v0.1H935.6z"/>
		<path class="st5" d="M941.9,423.6c-0.1-0.1-0.2-0.2-0.2-0.4v-15.6c0-0.2,0.1-0.3,0.2-0.4c0.1-0.1,0.2-0.2,0.4-0.2h7
			c1.9,0,3.3,0.4,4.2,1.2c0.9,0.8,1.4,1.9,1.4,3.4c0,0.8-0.2,1.5-0.6,2.1c-0.4,0.6-0.9,1-1.4,1.3c0.7,0.3,1.2,0.8,1.7,1.5
			c0.5,0.7,0.7,1.5,0.7,2.4c0,1.5-0.5,2.7-1.5,3.6s-2.4,1.4-4.2,1.4h-7.2C942.1,423.8,942,423.7,941.9,423.6z M948.8,413.8
			c0.8,0,1.5-0.2,1.9-0.6c0.4-0.4,0.6-0.9,0.6-1.6c0-0.7-0.2-1.2-0.6-1.6s-1.1-0.6-1.9-0.6h-3.8v4.4H948.8z M949.1,421.2
			c0.8,0,1.5-0.2,1.9-0.7c0.5-0.5,0.7-1,0.7-1.7c0-0.7-0.2-1.3-0.7-1.8s-1.1-0.7-1.9-0.7h-4v4.9H949.1z"/>
		<path class="st5" d="M958,409c-0.1-0.1-0.2-0.2-0.2-0.4v-1.7c0-0.2,0.1-0.3,0.2-0.4s0.2-0.2,0.4-0.2h2.2c0.2,0,0.3,0.1,0.4,0.2
			c0.1,0.1,0.2,0.2,0.2,0.4v1.7c0,0.2-0.1,0.3-0.2,0.4c-0.1,0.1-0.3,0.2-0.4,0.2h-2.2C958.2,409.2,958.1,409.2,958,409z
			 M958.1,423.6c-0.1-0.1-0.2-0.2-0.2-0.4v-11.3c0-0.2,0.1-0.3,0.2-0.4c0.1-0.1,0.2-0.2,0.4-0.2h2c0.2,0,0.3,0.1,0.4,0.2
			c0.1,0.1,0.2,0.2,0.2,0.4v11.3c0,0.2-0.1,0.3-0.2,0.4c-0.1,0.1-0.2,0.2-0.4,0.2h-2C958.3,423.8,958.2,423.7,958.1,423.6z"/>
		<path class="st5" d="M964.4,423.6c-0.1-0.1-0.2-0.2-0.2-0.4v-11.3c0-0.2,0.1-0.3,0.2-0.4c0.1-0.1,0.2-0.2,0.4-0.2h2
			c0.2,0,0.3,0.1,0.4,0.2c0.1,0.1,0.2,0.2,0.2,0.4v1c0.9-1.2,2.3-1.8,4-1.8c1.5,0,2.6,0.5,3.5,1.5c0.9,1,1.3,2.3,1.3,3.9v6.7
			c0,0.2-0.1,0.3-0.2,0.4c-0.1,0.1-0.2,0.2-0.4,0.2h-2.1c-0.2,0-0.3-0.1-0.4-0.2c-0.1-0.1-0.2-0.2-0.2-0.4v-6.6
			c0-0.9-0.2-1.7-0.7-2.2c-0.5-0.5-1.1-0.8-2-0.8c-0.8,0-1.5,0.3-2,0.8c-0.5,0.5-0.7,1.3-0.7,2.2v6.6c0,0.2-0.1,0.3-0.2,0.4
			c-0.1,0.1-0.2,0.2-0.4,0.2h-2.1C964.6,423.8,964.5,423.7,964.4,423.6z"/>
		<path class="st5" d="M980.1,422.4c-0.9-1-1.3-2.4-1.4-4.2l0-0.8l0-0.8c0-1.7,0.5-3,1.4-4.1c0.9-1.1,2.1-1.6,3.7-1.6
			c1.6,0,2.8,0.5,3.7,1.6v-5.3c0-0.2,0.1-0.3,0.2-0.4s0.2-0.2,0.4-0.2h2c0.2,0,0.3,0.1,0.4,0.2c0.1,0.1,0.2,0.2,0.2,0.4v15.9
			c0,0.2-0.1,0.3-0.2,0.4c-0.1,0.1-0.2,0.2-0.4,0.2h-1.9c-0.2,0-0.3-0.1-0.4-0.2c-0.1-0.1-0.2-0.2-0.2-0.4v-0.9
			c-0.9,1.1-2.2,1.7-3.8,1.7C982.2,424,981,423.5,980.1,422.4z M986.8,420.5c0.4-0.6,0.7-1.3,0.7-2.2c0-0.2,0-0.5,0-0.9
			c0-0.4,0-0.7,0-0.9c0-0.8-0.3-1.5-0.8-2.1c-0.5-0.6-1.2-0.9-2.1-0.9c-1.7,0-2.6,1.1-2.8,3.2l0,0.7l0,0.7c0.1,2.1,1,3.2,2.8,3.2
			C985.7,421.4,986.3,421.1,986.8,420.5z"/>
		<path class="st5" d="M994,409c-0.1-0.1-0.2-0.2-0.2-0.4v-1.7c0-0.2,0.1-0.3,0.2-0.4s0.2-0.2,0.4-0.2h2.2c0.2,0,0.3,0.1,0.4,0.2
			c0.1,0.1,0.2,0.2,0.2,0.4v1.7c0,0.2-0.1,0.3-0.2,0.4c-0.1,0.1-0.3,0.2-0.4,0.2h-2.2C994.2,409.2,994.1,409.2,994,409z
			 M994.1,423.6c-0.1-0.1-0.2-0.2-0.2-0.4v-11.3c0-0.2,0.1-0.3,0.2-0.4c0.1-0.1,0.2-0.2,0.4-0.2h2c0.2,0,0.3,0.1,0.4,0.2
			c0.1,0.1,0.2,0.2,0.2,0.4v11.3c0,0.2-0.1,0.3-0.2,0.4c-0.1,0.1-0.2,0.2-0.4,0.2h-2C994.3,423.8,994.2,423.7,994.1,423.6z"/>
		<path class="st5" d="M1000.4,423.6c-0.1-0.1-0.2-0.2-0.2-0.4v-11.3c0-0.2,0.1-0.3,0.2-0.4c0.1-0.1,0.2-0.2,0.4-0.2h2
			c0.2,0,0.3,0.1,0.4,0.2c0.1,0.1,0.2,0.2,0.2,0.4v1c0.9-1.2,2.3-1.8,4-1.8c1.5,0,2.6,0.5,3.5,1.5c0.9,1,1.3,2.3,1.3,3.9v6.7
			c0,0.2-0.1,0.3-0.2,0.4c-0.1,0.1-0.2,0.2-0.4,0.2h-2.1c-0.2,0-0.3-0.1-0.4-0.2c-0.1-0.1-0.2-0.2-0.2-0.4v-6.6
			c0-0.9-0.2-1.7-0.7-2.2c-0.5-0.5-1.1-0.8-2-0.8c-0.8,0-1.5,0.3-2,0.8c-0.5,0.5-0.7,1.3-0.7,2.2v6.6c0,0.2-0.1,0.3-0.2,0.4
			c-0.1,0.1-0.2,0.2-0.4,0.2h-2.1C1000.7,423.8,1000.5,423.7,1000.4,423.6z"/>
		<path class="st5" d="M1017.4,428.3c-0.9-0.5-1.5-1-1.9-1.6c-0.4-0.6-0.6-1.1-0.6-1.6c0-0.1,0.1-0.3,0.2-0.4
			c0.1-0.1,0.3-0.2,0.4-0.2h2.1c0.1,0,0.3,0,0.4,0.1c0.1,0.1,0.2,0.2,0.3,0.4c0.2,0.4,0.4,0.8,0.8,1.1s0.9,0.4,1.7,0.4
			c1,0,1.7-0.2,2.1-0.6c0.5-0.4,0.7-1.2,0.7-2.2v-1.6c-0.9,1-2.1,1.6-3.7,1.6c-1.7,0-2.9-0.5-3.8-1.5c-0.8-1-1.3-2.4-1.4-4.1l0-0.6
			l0-0.6c0.1-1.7,0.5-3.1,1.4-4.1c0.8-1,2.1-1.6,3.7-1.6c0.8,0,1.6,0.2,2.2,0.5c0.6,0.3,1.2,0.8,1.6,1.3v-1c0-0.2,0.1-0.3,0.2-0.4
			c0.1-0.1,0.2-0.2,0.4-0.2h1.9c0.2,0,0.3,0.1,0.4,0.2c0.1,0.1,0.2,0.3,0.2,0.4l0,11.6c0,1.8-0.5,3.2-1.5,4.1c-1,1-2.5,1.5-4.5,1.5
			C1019.4,429,1018.3,428.8,1017.4,428.3z M1022.8,420.3c0.5-0.6,0.7-1.3,0.8-2.1c0-0.1,0-0.4,0-0.8c0-0.4,0-0.6,0-0.8
			c0-0.8-0.3-1.6-0.8-2.1c-0.5-0.6-1.1-0.9-2.1-0.9c-1.7,0-2.6,1.1-2.7,3.2l0,0.6c0,1.1,0.2,2,0.6,2.7c0.4,0.7,1.1,1,2.1,1
			C1021.7,421.1,1022.3,420.9,1022.8,420.3z"/>
	</g>
</g>
<path class="st4" d="M1096.6,496.9v80c0,5.5-4.5,10-10,10H744.8c-5.5,0-10-4.5-10-10v-80c0-5.5,4.5-10,10-10h341.8
	C1092.1,486.9,1096.6,491.4,1096.6,496.9z"/>
<g>
	<g class="st0">
		<path class="st5" d="M828.1,543.4c-1-0.4-1.8-1-2.3-1.7c-0.5-0.7-0.8-1.5-0.8-2.3c0-0.1,0-0.3,0.1-0.4s0.2-0.1,0.4-0.1h2.1
			c0.2,0,0.3,0,0.4,0.1s0.2,0.2,0.3,0.3c0.2,0.5,0.5,1,1.1,1.4c0.6,0.4,1.4,0.6,2.4,0.6c1.1,0,2-0.2,2.6-0.6s0.9-0.9,0.9-1.6
			c0-0.4-0.1-0.8-0.4-1.1c-0.3-0.3-0.7-0.5-1.3-0.7s-1.5-0.5-2.6-0.8c-1.9-0.4-3.3-1-4.1-1.8c-0.9-0.7-1.3-1.8-1.3-3.2
			c0-0.9,0.3-1.8,0.8-2.5c0.5-0.7,1.2-1.3,2.2-1.7c1-0.4,2.1-0.6,3.3-0.6c1.3,0,2.4,0.2,3.4,0.7c1,0.5,1.7,1,2.2,1.7
			c0.5,0.7,0.8,1.4,0.8,2.1c0,0.1,0,0.3-0.1,0.4s-0.2,0.1-0.4,0.1h-2.2c-0.3,0-0.6-0.2-0.7-0.5c-0.1-0.5-0.4-0.9-1-1.3
			c-0.5-0.3-1.2-0.5-2-0.5c-0.9,0-1.6,0.2-2.1,0.5c-0.5,0.3-0.8,0.8-0.8,1.5c0,0.4,0.1,0.8,0.4,1.1s0.7,0.5,1.2,0.8
			c0.6,0.2,1.3,0.5,2.4,0.7c1.4,0.3,2.5,0.7,3.4,1.1c0.8,0.4,1.5,0.9,1.9,1.5c0.4,0.6,0.6,1.4,0.6,2.3c0,1-0.3,1.9-0.9,2.7
			c-0.6,0.8-1.4,1.3-2.4,1.7c-1,0.4-2.2,0.6-3.6,0.6C830.4,544,829.1,543.8,828.1,543.4z"/>
		<path class="st5" d="M842.2,542.5c-1-1-1.6-2.5-1.7-4.4l0-0.6l0-0.6c0.1-1.8,0.6-3.3,1.7-4.3c1-1,2.5-1.6,4.2-1.6
			c1.9,0,3.3,0.6,4.4,1.7c1,1.2,1.5,2.7,1.5,4.6v0.5c0,0.2-0.1,0.3-0.2,0.4c-0.1,0.1-0.3,0.2-0.4,0.2h-8v0.2c0,0.9,0.3,1.6,0.7,2.2
			c0.5,0.6,1.1,0.9,1.9,0.9c0.9,0,1.7-0.4,2.3-1.1c0.1-0.2,0.3-0.3,0.3-0.3c0.1,0,0.2-0.1,0.4-0.1h2.1c0.1,0,0.3,0,0.4,0.1
			s0.2,0.2,0.2,0.3c0,0.4-0.2,0.8-0.7,1.4c-0.5,0.5-1.1,1-2,1.4c-0.8,0.4-1.8,0.6-3,0.6C844.7,544,843.3,543.5,842.2,542.5z
			 M849.1,536.4L849.1,536.4c0-1-0.2-1.8-0.7-2.4c-0.5-0.6-1.1-0.9-2-0.9s-1.5,0.3-1.9,0.9c-0.5,0.6-0.7,1.3-0.7,2.3v0.1H849.1z"/>
		<path class="st5" d="M855.1,543.6c-0.1-0.1-0.2-0.2-0.2-0.4v-11.3c0-0.2,0.1-0.3,0.2-0.4c0.1-0.1,0.2-0.2,0.4-0.2h1.9
			c0.2,0,0.3,0.1,0.4,0.2c0.1,0.1,0.2,0.3,0.2,0.4v1c0.4-0.5,0.9-0.9,1.5-1.2c0.6-0.3,1.3-0.4,2-0.4h1c0.2,0,0.3,0.1,0.4,0.2
			c0.1,0.1,0.2,0.2,0.2,0.4v1.7c0,0.2-0.1,0.3-0.2,0.4c-0.1,0.1-0.2,0.2-0.4,0.2h-1.9c-0.8,0-1.3,0.2-1.8,0.6
			c-0.4,0.4-0.6,1-0.6,1.8v6.6c0,0.2-0.1,0.3-0.2,0.4c-0.1,0.1-0.3,0.2-0.4,0.2h-2.1C855.3,543.8,855.2,543.7,855.1,543.6z"/>
		<path class="st5" d="M868.8,543.6c-0.1-0.1-0.2-0.3-0.3-0.4L864,532l0-0.2c0-0.1,0.1-0.3,0.2-0.4c0.1-0.1,0.2-0.2,0.4-0.2h1.9
			c0.3,0,0.5,0.2,0.6,0.5l3.2,8.4l3.2-8.4c0-0.1,0.1-0.2,0.2-0.3s0.2-0.1,0.4-0.1h2c0.1,0,0.2,0.1,0.3,0.2c0.1,0.1,0.2,0.2,0.2,0.4
			c0,0.1,0,0.2,0,0.2l-4.5,11.1c-0.1,0.2-0.2,0.3-0.3,0.4c-0.1,0.1-0.3,0.2-0.6,0.2h-1.8C869.1,543.8,868.9,543.7,868.8,543.6z"/>
		<path class="st5" d="M878.8,529c-0.1-0.1-0.2-0.2-0.2-0.4v-1.7c0-0.2,0.1-0.3,0.2-0.4c0.1-0.1,0.2-0.2,0.4-0.2h2.2
			c0.2,0,0.3,0.1,0.4,0.2s0.2,0.2,0.2,0.4v1.7c0,0.2-0.1,0.3-0.2,0.4c-0.1,0.1-0.3,0.2-0.4,0.2h-2.2
			C879,529.2,878.9,529.2,878.8,529z M878.9,543.6c-0.1-0.1-0.2-0.2-0.2-0.4v-11.3c0-0.2,0.1-0.3,0.2-0.4c0.1-0.1,0.2-0.2,0.4-0.2h2
			c0.2,0,0.3,0.1,0.4,0.2c0.1,0.1,0.2,0.2,0.2,0.4v11.3c0,0.2-0.1,0.3-0.2,0.4c-0.1,0.1-0.2,0.2-0.4,0.2h-2
			C879.1,543.8,879,543.7,878.9,543.6z"/>
		<path class="st5" d="M886.2,542.5c-1-1-1.6-2.3-1.7-4.1l0-1l0-1c0.1-1.7,0.6-3.1,1.7-4.1c1-1,2.5-1.5,4.2-1.5
			c1.2,0,2.3,0.2,3.2,0.7c0.9,0.4,1.5,1,1.9,1.6c0.4,0.6,0.7,1.3,0.7,1.8c0,0.2,0,0.3-0.2,0.4c-0.1,0.1-0.3,0.2-0.4,0.2h-2.1
			c-0.2,0-0.3,0-0.4-0.1c-0.1-0.1-0.2-0.2-0.3-0.4c-0.2-0.6-0.6-1.1-0.9-1.3c-0.4-0.3-0.9-0.4-1.5-0.4c-0.8,0-1.5,0.3-1.9,0.8
			c-0.5,0.5-0.7,1.3-0.7,2.4l0,0.9l0,0.8c0.1,2.1,1,3.1,2.7,3.1c0.6,0,1.1-0.1,1.5-0.4c0.4-0.3,0.7-0.7,0.9-1.3
			c0.1-0.2,0.2-0.3,0.3-0.4s0.2-0.1,0.4-0.1h2.1c0.2,0,0.3,0.1,0.4,0.2c0.1,0.1,0.2,0.2,0.2,0.4c0,0.6-0.3,1.2-0.7,1.8
			c-0.4,0.6-1.1,1.2-1.9,1.7c-0.9,0.5-1.9,0.7-3.2,0.7C888.7,544,887.3,543.5,886.2,542.5z"/>
		<path class="st5" d="M899.9,542.5c-1-1-1.6-2.5-1.7-4.4l0-0.6l0-0.6c0.1-1.8,0.6-3.3,1.7-4.3c1-1,2.5-1.6,4.2-1.6
			c1.9,0,3.3,0.6,4.4,1.7c1,1.2,1.5,2.7,1.5,4.6v0.5c0,0.2-0.1,0.3-0.2,0.4c-0.1,0.1-0.3,0.2-0.4,0.2h-8v0.2c0,0.9,0.3,1.6,0.7,2.2
			c0.5,0.6,1.1,0.9,1.9,0.9c0.9,0,1.7-0.4,2.3-1.1c0.1-0.2,0.3-0.3,0.3-0.3c0.1,0,0.2-0.1,0.4-0.1h2.1c0.1,0,0.3,0,0.4,0.1
			s0.2,0.2,0.2,0.3c0,0.4-0.2,0.8-0.7,1.4c-0.5,0.5-1.1,1-2,1.4s-1.8,0.6-3,0.6C902.3,544,900.9,543.5,899.9,542.5z M906.8,536.4
			L906.8,536.4c0-1-0.2-1.8-0.7-2.4c-0.5-0.6-1.1-0.9-2-0.9s-1.5,0.3-1.9,0.9s-0.7,1.3-0.7,2.3v0.1H906.8z"/>
		<path class="st5" d="M911.4,543.6c-0.1-0.1-0.2-0.2-0.2-0.4l0-0.2l5.8-15.5c0.1-0.4,0.4-0.6,0.8-0.6h2.6c0.4,0,0.7,0.2,0.8,0.6
			l5.8,15.5c0,0,0,0.1,0,0.2c0,0.1,0,0.3-0.1,0.4c-0.1,0.1-0.2,0.1-0.3,0.1h-2.1c-0.2,0-0.4,0-0.5-0.1c-0.1-0.1-0.2-0.2-0.2-0.3
			l-1.1-2.9h-7.1l-1.1,2.9c-0.1,0.3-0.4,0.5-0.7,0.5h-2.1C911.6,543.8,911.5,543.7,911.4,543.6z M921.9,537.6l-2.7-7.4l-2.7,7.4
			H921.9z"/>
		<path class="st5" d="M930.1,542.5c-1-1-1.6-2.3-1.7-4.1l0-1l0-1c0.1-1.7,0.6-3.1,1.7-4.1c1-1,2.5-1.5,4.2-1.5
			c1.2,0,2.3,0.2,3.2,0.7c0.9,0.4,1.5,1,1.9,1.6c0.4,0.6,0.7,1.3,0.7,1.8c0,0.2,0,0.3-0.2,0.4c-0.1,0.1-0.3,0.2-0.4,0.2h-2.1
			c-0.2,0-0.3,0-0.4-0.1c-0.1-0.1-0.2-0.2-0.3-0.4c-0.2-0.6-0.6-1.1-0.9-1.3c-0.4-0.3-0.9-0.4-1.5-0.4c-0.8,0-1.5,0.3-1.9,0.8
			c-0.5,0.5-0.7,1.3-0.7,2.4l0,0.9l0,0.8c0.1,2.1,1,3.1,2.7,3.1c0.6,0,1.1-0.1,1.5-0.4c0.4-0.3,0.7-0.7,0.9-1.3
			c0.1-0.2,0.2-0.3,0.3-0.4s0.2-0.1,0.4-0.1h2.1c0.2,0,0.3,0.1,0.4,0.2c0.1,0.1,0.2,0.2,0.2,0.4c0,0.6-0.3,1.2-0.7,1.8
			c-0.4,0.6-1.1,1.2-1.9,1.7s-1.9,0.7-3.2,0.7C932.6,544,931.2,543.5,930.1,542.5z"/>
		<path class="st5" d="M943.8,542.5c-1-1-1.6-2.3-1.7-4.1l0-1l0-1c0.1-1.7,0.6-3.1,1.7-4.1s2.5-1.5,4.2-1.5c1.2,0,2.3,0.2,3.2,0.7
			c0.9,0.4,1.5,1,1.9,1.6c0.4,0.6,0.7,1.3,0.7,1.8c0,0.2,0,0.3-0.2,0.4c-0.1,0.1-0.3,0.2-0.4,0.2h-2.1c-0.2,0-0.3,0-0.4-0.1
			c-0.1-0.1-0.2-0.2-0.3-0.4c-0.2-0.6-0.6-1.1-0.9-1.3c-0.4-0.3-0.9-0.4-1.5-0.4c-0.8,0-1.5,0.3-1.9,0.8c-0.5,0.5-0.7,1.3-0.7,2.4
			l0,0.9l0,0.8c0.1,2.1,1,3.1,2.7,3.1c0.6,0,1.1-0.1,1.5-0.4c0.4-0.3,0.7-0.7,0.9-1.3c0.1-0.2,0.2-0.3,0.3-0.4s0.2-0.1,0.4-0.1h2.1
			c0.2,0,0.3,0.1,0.4,0.2c0.1,0.1,0.2,0.2,0.2,0.4c0,0.6-0.3,1.2-0.7,1.8c-0.4,0.6-1.1,1.2-1.9,1.7c-0.9,0.5-1.9,0.7-3.2,0.7
			C946.3,544,944.9,543.5,943.8,542.5z"/>
		<path class="st5" d="M957.5,542.5c-1-1-1.6-2.3-1.7-4l0-1.1l0-1.1c0.1-1.7,0.6-3,1.7-4s2.5-1.5,4.3-1.5s3.3,0.5,4.3,1.5
			c1,1,1.6,2.3,1.7,4c0,0.2,0,0.5,0,1.1c0,0.5,0,0.9,0,1.1c-0.1,1.7-0.6,3-1.7,4s-2.5,1.5-4.3,1.5S958.6,543.5,957.5,542.5z
			 M963.8,540.8c0.5-0.5,0.7-1.3,0.8-2.4c0-0.2,0-0.5,0-0.9c0-0.5,0-0.8,0-0.9c0-1-0.3-1.8-0.8-2.4s-1.1-0.8-2-0.8s-1.5,0.3-2,0.8
			s-0.7,1.3-0.8,2.4l0,0.9l0,0.9c0,1,0.3,1.8,0.8,2.4c0.5,0.5,1.1,0.8,2,0.8S963.4,541.4,963.8,540.8z"/>
		<path class="st5" d="M971.7,542.5c-0.8-1-1.3-2.3-1.3-3.9v-6.7c0-0.2,0.1-0.3,0.2-0.4c0.1-0.1,0.2-0.2,0.4-0.2h2.1
			c0.2,0,0.3,0.1,0.4,0.2c0.1,0.1,0.2,0.2,0.2,0.4v6.6c0,2,0.9,3,2.6,3c0.8,0,1.5-0.3,2-0.8s0.7-1.3,0.7-2.2v-6.6
			c0-0.2,0.1-0.3,0.2-0.4c0.1-0.1,0.2-0.2,0.4-0.2h2.1c0.2,0,0.3,0.1,0.4,0.2c0.1,0.1,0.2,0.2,0.2,0.4v11.3c0,0.2-0.1,0.3-0.2,0.4
			c-0.1,0.1-0.2,0.2-0.4,0.2h-1.9c-0.2,0-0.3-0.1-0.4-0.2c-0.1-0.1-0.2-0.2-0.2-0.4v-1c-0.9,1.2-2.2,1.8-4,1.8
			C973.7,544,972.6,543.5,971.7,542.5z"/>
		<path class="st5" d="M985.6,543.6c-0.1-0.1-0.2-0.2-0.2-0.4v-11.3c0-0.2,0.1-0.3,0.2-0.4c0.1-0.1,0.2-0.2,0.4-0.2h2
			c0.2,0,0.3,0.1,0.4,0.2c0.1,0.1,0.2,0.2,0.2,0.4v1c0.9-1.2,2.3-1.8,4-1.8c1.5,0,2.6,0.5,3.5,1.5c0.9,1,1.3,2.3,1.3,3.9v6.7
			c0,0.2-0.1,0.3-0.2,0.4c-0.1,0.1-0.2,0.2-0.4,0.2h-2.1c-0.2,0-0.3-0.1-0.4-0.2c-0.1-0.1-0.2-0.2-0.2-0.4v-6.6
			c0-0.9-0.2-1.7-0.7-2.2c-0.5-0.5-1.1-0.8-2-0.8c-0.8,0-1.5,0.3-2,0.8c-0.5,0.5-0.7,1.3-0.7,2.2v6.6c0,0.2-0.1,0.3-0.2,0.4
			c-0.1,0.1-0.2,0.2-0.4,0.2H986C985.9,543.8,985.8,543.7,985.6,543.6z"/>
		<path class="st5" d="M1002.7,542.6c-0.7-0.8-1.1-1.9-1.1-3.3v-5.4h-1.9c-0.2,0-0.3-0.1-0.4-0.2c-0.1-0.1-0.2-0.3-0.2-0.4v-1.4
			c0-0.2,0.1-0.3,0.2-0.4c0.1-0.1,0.2-0.2,0.4-0.2h1.9v-4c0-0.2,0.1-0.3,0.2-0.4s0.2-0.2,0.4-0.2h1.9c0.2,0,0.3,0.1,0.4,0.2
			c0.1,0.1,0.2,0.2,0.2,0.4v4h3c0.2,0,0.3,0.1,0.4,0.2c0.1,0.1,0.2,0.2,0.2,0.4v1.4c0,0.2-0.1,0.3-0.2,0.4c-0.1,0.1-0.2,0.2-0.4,0.2
			h-3v5.2c0,0.7,0.1,1.2,0.4,1.6c0.2,0.4,0.6,0.5,1.2,0.5h1.7c0.2,0,0.3,0.1,0.4,0.2c0.1,0.1,0.2,0.2,0.2,0.4v1.5
			c0,0.2-0.1,0.3-0.2,0.4c-0.1,0.1-0.2,0.2-0.4,0.2h-1.9C1004.5,543.8,1003.4,543.4,1002.7,542.6z"/>
	</g>
</g>
<g>
	<g>
		<line class="st6" x1="566.6" y1="128.3" x2="723.7" y2="128.3"/>
		<g>
			<polygon class="st5" points="721.5,135.8 734.4,128.3 721.5,120.8 			"/>
		</g>
	</g>
</g>
<g>
	<g>
		<line class="st6" x1="577.3" y1="536.9" x2="734.4" y2="536.9"/>
		<g>
			<polygon class="st5" points="579.5,544.4 566.6,536.9 579.5,529.5 			"/>
		</g>
	</g>
</g>
<g>
	<g>
		<line class="st6" x1="384.3" y1="189" x2="384.3" y2="485.9"/>
		<g>
			<polygon class="st5" points="376.9,191.2 384.3,178.3 391.8,191.2 			"/>
		</g>
	</g>
</g>
<g>
	<g class="st0">
		<path class="st5" d="M856.2,134.9c-0.1-0.1-0.2-0.2-0.2-0.4l0-0.2l5.8-15.5c0.1-0.4,0.4-0.6,0.8-0.6h2.6c0.4,0,0.7,0.2,0.8,0.6
			l5.8,15.5c0,0,0,0.1,0,0.2c0,0.1,0,0.3-0.1,0.4c-0.1,0.1-0.2,0.1-0.3,0.1h-2.1c-0.2,0-0.4,0-0.5-0.1c-0.1-0.1-0.2-0.2-0.2-0.3
			l-1.1-2.9h-7.1l-1.1,2.9c-0.1,0.3-0.4,0.5-0.7,0.5h-2.1C856.5,135.1,856.3,135,856.2,134.9z M866.8,128.9l-2.7-7.4l-2.7,7.4H866.8
			z"/>
		<path class="st5" d="M874.4,134.9c-0.1-0.1-0.2-0.2-0.2-0.4v-15.6c0-0.2,0.1-0.3,0.2-0.4c0.1-0.1,0.2-0.2,0.4-0.2h6.4
			c1.9,0,3.4,0.5,4.5,1.4c1.1,0.9,1.7,2.2,1.7,4s-0.5,3.1-1.6,3.9c-1.1,0.9-2.6,1.3-4.5,1.3h-3.6v5.6c0,0.2-0.1,0.3-0.2,0.4
			c-0.1,0.1-0.2,0.2-0.4,0.2h-2.3C874.7,135.1,874.5,135,874.4,134.9z M881.1,126.2c0.9,0,1.6-0.2,2.1-0.7c0.5-0.4,0.7-1.1,0.7-2
			c0-0.8-0.2-1.5-0.7-2c-0.5-0.5-1.2-0.7-2.2-0.7h-3.5v5.3H881.1z"/>
		<path class="st5" d="M890.2,134.9c-0.1-0.1-0.2-0.2-0.2-0.4v-15.6c0-0.2,0.1-0.3,0.2-0.4c0.1-0.1,0.2-0.2,0.4-0.2h2.3
			c0.2,0,0.3,0.1,0.4,0.2c0.1,0.1,0.2,0.2,0.2,0.4v15.6c0,0.2-0.1,0.3-0.2,0.4c-0.1,0.1-0.2,0.2-0.4,0.2h-2.3
			C890.5,135.1,890.3,135,890.2,134.9z"/>
		<path class="st5" d="M904.9,134.7c-1-0.4-1.8-1-2.3-1.7c-0.5-0.7-0.8-1.5-0.8-2.3c0-0.1,0-0.3,0.1-0.4c0.1-0.1,0.2-0.1,0.4-0.1
			h2.1c0.2,0,0.3,0,0.4,0.1c0.1,0.1,0.2,0.2,0.3,0.3c0.2,0.5,0.5,1,1.1,1.4c0.6,0.4,1.4,0.6,2.4,0.6c1.1,0,2-0.2,2.6-0.6
			s0.9-0.9,0.9-1.6c0-0.4-0.1-0.8-0.4-1.1c-0.3-0.3-0.7-0.5-1.3-0.7s-1.5-0.5-2.6-0.8c-1.9-0.4-3.3-1-4.1-1.8
			c-0.9-0.7-1.3-1.8-1.3-3.2c0-0.9,0.3-1.8,0.8-2.5s1.2-1.3,2.2-1.7c1-0.4,2.1-0.6,3.3-0.6c1.3,0,2.4,0.2,3.4,0.7s1.7,1,2.2,1.7
			c0.5,0.7,0.8,1.4,0.8,2.1c0,0.1,0,0.3-0.1,0.4c-0.1,0.1-0.2,0.1-0.4,0.1h-2.2c-0.3,0-0.6-0.2-0.7-0.5c-0.1-0.5-0.4-0.9-1-1.3
			c-0.5-0.3-1.2-0.5-2-0.5c-0.9,0-1.6,0.2-2.1,0.5c-0.5,0.3-0.8,0.8-0.8,1.5c0,0.4,0.1,0.8,0.4,1.1s0.7,0.5,1.2,0.8
			c0.6,0.2,1.3,0.5,2.4,0.7c1.4,0.3,2.5,0.7,3.4,1.1c0.8,0.4,1.5,0.9,1.9,1.5c0.4,0.6,0.6,1.4,0.6,2.3c0,1-0.3,1.9-0.9,2.7
			c-0.6,0.8-1.4,1.3-2.4,1.7c-1,0.4-2.2,0.6-3.6,0.6C907.1,135.3,905.9,135.1,904.9,134.7z"/>
		<path class="st5" d="M919,133.8c-1-1-1.6-2.5-1.7-4.4l0-0.6l0-0.6c0.1-1.8,0.6-3.3,1.7-4.3s2.5-1.6,4.2-1.6c1.9,0,3.3,0.6,4.4,1.7
			c1,1.2,1.5,2.7,1.5,4.6v0.5c0,0.2-0.1,0.3-0.2,0.4c-0.1,0.1-0.3,0.2-0.4,0.2h-8v0.2c0,0.9,0.3,1.6,0.7,2.2
			c0.5,0.6,1.1,0.9,1.9,0.9c0.9,0,1.7-0.4,2.3-1.1c0.1-0.2,0.3-0.3,0.3-0.3c0.1,0,0.2-0.1,0.4-0.1h2.1c0.1,0,0.3,0,0.4,0.1
			c0.1,0.1,0.2,0.2,0.2,0.3c0,0.4-0.2,0.8-0.7,1.4c-0.5,0.5-1.1,1-2,1.4s-1.8,0.6-3,0.6C921.5,135.3,920,134.8,919,133.8z
			 M925.9,127.8L925.9,127.8c0-1-0.2-1.8-0.7-2.4s-1.1-0.9-2-0.9s-1.5,0.3-1.9,0.9c-0.5,0.6-0.7,1.3-0.7,2.3v0.1H925.9z"/>
		<path class="st5" d="M931.9,134.9c-0.1-0.1-0.2-0.2-0.2-0.4v-11.3c0-0.2,0.1-0.3,0.2-0.4s0.2-0.2,0.4-0.2h1.9
			c0.2,0,0.3,0.1,0.4,0.2c0.1,0.1,0.2,0.3,0.2,0.4v1c0.4-0.5,0.9-0.9,1.5-1.2c0.6-0.3,1.3-0.4,2-0.4h1c0.2,0,0.3,0.1,0.4,0.2
			c0.1,0.1,0.2,0.2,0.2,0.4v1.7c0,0.2-0.1,0.3-0.2,0.4c-0.1,0.1-0.2,0.2-0.4,0.2h-1.9c-0.8,0-1.3,0.2-1.8,0.6
			c-0.4,0.4-0.6,1-0.6,1.8v6.6c0,0.2-0.1,0.3-0.2,0.4c-0.1,0.1-0.3,0.2-0.4,0.2h-2.1C932.1,135.1,932,135,931.9,134.9z"/>
		<path class="st5" d="M945.6,134.9c-0.1-0.1-0.2-0.3-0.3-0.4l-4.5-11.1l0-0.2c0-0.1,0.1-0.3,0.2-0.4c0.1-0.1,0.2-0.2,0.4-0.2h1.9
			c0.3,0,0.5,0.2,0.6,0.5l3.2,8.4l3.2-8.4c0-0.1,0.1-0.2,0.2-0.3c0.1-0.1,0.2-0.1,0.4-0.1h2c0.1,0,0.2,0.1,0.3,0.2
			c0.1,0.1,0.2,0.2,0.2,0.4c0,0.1,0,0.2,0,0.2l-4.5,11.1c-0.1,0.2-0.2,0.3-0.3,0.4c-0.1,0.1-0.3,0.2-0.6,0.2h-1.8
			C945.9,135.1,945.7,135,945.6,134.9z"/>
		<path class="st5" d="M956.2,133.8c-1-1-1.6-2.5-1.7-4.4l0-0.6l0-0.6c0.1-1.8,0.6-3.3,1.7-4.3s2.5-1.6,4.2-1.6
			c1.9,0,3.3,0.6,4.4,1.7c1,1.2,1.5,2.7,1.5,4.6v0.5c0,0.2-0.1,0.3-0.2,0.4c-0.1,0.1-0.3,0.2-0.4,0.2h-8v0.2c0,0.9,0.3,1.6,0.7,2.2
			c0.5,0.6,1.1,0.9,1.9,0.9c0.9,0,1.7-0.4,2.3-1.1c0.1-0.2,0.3-0.3,0.3-0.3c0.1,0,0.2-0.1,0.4-0.1h2.1c0.1,0,0.3,0,0.4,0.1
			c0.1,0.1,0.2,0.2,0.2,0.3c0,0.4-0.2,0.8-0.7,1.4c-0.5,0.5-1.1,1-2,1.4s-1.8,0.6-3,0.6C958.6,135.3,957.2,134.8,956.2,133.8z
			 M963.1,127.8L963.1,127.8c0-1-0.2-1.8-0.7-2.4s-1.1-0.9-2-0.9s-1.5,0.3-1.9,0.9c-0.5,0.6-0.7,1.3-0.7,2.3v0.1H963.1z"/>
		<path class="st5" d="M969,134.9c-0.1-0.1-0.2-0.2-0.2-0.4v-11.3c0-0.2,0.1-0.3,0.2-0.4s0.2-0.2,0.4-0.2h1.9c0.2,0,0.3,0.1,0.4,0.2
			c0.1,0.1,0.2,0.3,0.2,0.4v1c0.4-0.5,0.9-0.9,1.5-1.2c0.6-0.3,1.3-0.4,2-0.4h1c0.2,0,0.3,0.1,0.4,0.2c0.1,0.1,0.2,0.2,0.2,0.4v1.7
			c0,0.2-0.1,0.3-0.2,0.4c-0.1,0.1-0.2,0.2-0.4,0.2h-1.9c-0.8,0-1.3,0.2-1.8,0.6c-0.4,0.4-0.6,1-0.6,1.8v6.6c0,0.2-0.1,0.3-0.2,0.4
			c-0.1,0.1-0.3,0.2-0.4,0.2h-2.1C969.3,135.1,969.2,135,969,134.9z"/>
	</g>
</g>
<g>
	<g class="st0">
		<path class="st5" d="M857.7,226.9c-0.1-0.1-0.2-0.2-0.2-0.4v-15.6c0-0.2,0.1-0.3,0.2-0.4c0.1-0.1,0.2-0.2,0.4-0.2h6.2
			c2,0,3.5,0.5,4.6,1.4s1.7,2.2,1.7,3.9c0,1.2-0.3,2.1-0.9,2.9c-0.6,0.8-1.4,1.4-2.4,1.7l3.5,6.1c0,0.1,0.1,0.2,0.1,0.3
			c0,0.1-0.1,0.3-0.2,0.4c-0.1,0.1-0.2,0.1-0.3,0.1h-2.2c-0.3,0-0.5-0.1-0.6-0.2c-0.1-0.1-0.3-0.3-0.4-0.5l-3.1-5.7h-3.3v5.8
			c0,0.2-0.1,0.3-0.2,0.4c-0.1,0.1-0.2,0.2-0.4,0.2h-2.2C857.9,227.1,857.8,227,857.7,226.9z M864.2,218c1,0,1.7-0.2,2.2-0.6
			c0.5-0.4,0.7-1.1,0.7-1.9c0-0.8-0.2-1.4-0.7-1.9s-1.2-0.7-2.2-0.7h-3.4v5.1H864.2z"/>
		<path class="st5" d="M874.4,225.8c-1-1-1.6-2.5-1.7-4.4l0-0.6l0-0.6c0.1-1.8,0.6-3.3,1.7-4.3c1-1,2.5-1.6,4.2-1.6
			c1.9,0,3.3,0.6,4.4,1.7c1,1.2,1.5,2.7,1.5,4.6v0.5c0,0.2-0.1,0.3-0.2,0.4c-0.1,0.1-0.3,0.2-0.4,0.2h-8v0.2c0,0.9,0.3,1.6,0.7,2.2
			c0.5,0.6,1.1,0.9,1.9,0.9c0.9,0,1.7-0.4,2.3-1.1c0.1-0.2,0.3-0.3,0.3-0.3c0.1,0,0.2-0.1,0.4-0.1h2.1c0.1,0,0.3,0,0.4,0.1
			c0.1,0.1,0.2,0.2,0.2,0.3c0,0.4-0.2,0.8-0.7,1.4c-0.5,0.5-1.1,1-2,1.4c-0.8,0.4-1.8,0.6-3,0.6
			C876.8,227.3,875.4,226.8,874.4,225.8z M881.3,219.8L881.3,219.8c0-1-0.2-1.8-0.7-2.4c-0.5-0.6-1.1-0.9-2-0.9s-1.5,0.3-1.9,0.9
			s-0.7,1.3-0.7,2.3v0.1H881.3z"/>
		<path class="st5" d="M888.8,226.8c-0.8-0.4-1.4-0.8-1.8-1.3c-0.4-0.5-0.6-0.9-0.6-1.3c0-0.2,0.1-0.3,0.2-0.4s0.2-0.1,0.4-0.1h1.9
			c0.1,0,0.3,0.1,0.4,0.2c0.1,0,0.2,0.2,0.5,0.4c0.3,0.3,0.6,0.5,1,0.6c0.4,0.1,0.8,0.2,1.2,0.2c0.6,0,1.2-0.1,1.6-0.4
			s0.6-0.6,0.6-1.1c0-0.3-0.1-0.6-0.3-0.8s-0.5-0.4-1-0.6c-0.5-0.2-1.2-0.3-2.1-0.5c-1.4-0.3-2.4-0.7-3-1.3c-0.6-0.6-1-1.4-1-2.4
			c0-0.6,0.2-1.2,0.6-1.8c0.4-0.6,1-1,1.7-1.4c0.8-0.4,1.7-0.5,2.7-0.5c1.1,0,2,0.2,2.8,0.5c0.8,0.3,1.4,0.8,1.8,1.2
			c0.4,0.5,0.6,0.9,0.6,1.3c0,0.1-0.1,0.3-0.2,0.4c-0.1,0.1-0.2,0.2-0.4,0.2h-1.8c-0.1,0-0.3-0.1-0.4-0.2c-0.1-0.1-0.3-0.2-0.5-0.5
			c-0.2-0.2-0.5-0.4-0.8-0.5s-0.7-0.2-1.1-0.2c-0.6,0-1.1,0.1-1.4,0.4c-0.3,0.3-0.5,0.6-0.5,1c0,0.3,0.1,0.6,0.2,0.7
			c0.2,0.2,0.5,0.4,0.9,0.6c0.5,0.2,1.2,0.4,2.1,0.5c1.5,0.3,2.6,0.8,3.3,1.4c0.7,0.6,1,1.4,1,2.4c0,1.1-0.5,2-1.5,2.7
			c-1,0.7-2.3,1.1-4.1,1.1C890.6,227.3,889.6,227.1,888.8,226.8z"/>
		<path class="st5" d="M901,225.9c-1-1-1.6-2.3-1.7-4l0-1.1l0-1.1c0.1-1.7,0.6-3,1.7-4s2.5-1.5,4.3-1.5c1.8,0,3.3,0.5,4.3,1.5
			s1.6,2.3,1.7,4c0,0.2,0,0.5,0,1.1c0,0.5,0,0.9,0,1.1c-0.1,1.7-0.6,3-1.7,4c-1,1-2.5,1.5-4.3,1.5S902.1,226.8,901,225.9z
			 M907.3,224.1c0.5-0.5,0.7-1.3,0.8-2.4c0-0.2,0-0.5,0-0.9c0-0.5,0-0.8,0-0.9c0-1-0.3-1.8-0.8-2.4s-1.1-0.8-2-0.8
			c-0.8,0-1.5,0.3-2,0.8c-0.5,0.5-0.7,1.3-0.8,2.4l0,0.9l0,0.9c0,1,0.3,1.8,0.8,2.4c0.5,0.5,1.1,0.8,2,0.8
			C906.2,225,906.9,224.7,907.3,224.1z"/>
		<path class="st5" d="M915.2,225.9c-0.8-1-1.3-2.3-1.3-3.9v-6.7c0-0.2,0.1-0.3,0.2-0.4c0.1-0.1,0.2-0.2,0.4-0.2h2.1
			c0.2,0,0.3,0.1,0.4,0.2c0.1,0.1,0.2,0.2,0.2,0.4v6.6c0,2,0.9,3,2.6,3c0.8,0,1.5-0.3,2-0.8s0.7-1.3,0.7-2.2v-6.6
			c0-0.2,0.1-0.3,0.2-0.4c0.1-0.1,0.2-0.2,0.4-0.2h2.1c0.2,0,0.3,0.1,0.4,0.2c0.1,0.1,0.2,0.2,0.2,0.4v11.3c0,0.2-0.1,0.3-0.2,0.4
			c-0.1,0.1-0.2,0.2-0.4,0.2h-1.9c-0.2,0-0.3-0.1-0.4-0.2c-0.1-0.1-0.2-0.2-0.2-0.4v-1c-0.9,1.2-2.2,1.8-4,1.8
			C917.2,227.3,916.1,226.8,915.2,225.9z"/>
		<path class="st5" d="M929.1,226.9c-0.1-0.1-0.2-0.2-0.2-0.4v-11.3c0-0.2,0.1-0.3,0.2-0.4c0.1-0.1,0.2-0.2,0.4-0.2h1.9
			c0.2,0,0.3,0.1,0.4,0.2c0.1,0.1,0.2,0.3,0.2,0.4v1c0.4-0.5,0.9-0.9,1.5-1.2c0.6-0.3,1.3-0.4,2-0.4h1c0.2,0,0.3,0.1,0.4,0.2
			c0.1,0.1,0.2,0.2,0.2,0.4v1.7c0,0.2-0.1,0.3-0.2,0.4c-0.1,0.1-0.2,0.2-0.4,0.2h-1.9c-0.8,0-1.3,0.2-1.8,0.6
			c-0.4,0.4-0.6,1-0.6,1.8v6.6c0,0.2-0.1,0.3-0.2,0.4c-0.1,0.1-0.3,0.2-0.4,0.2h-2.1C929.4,227.1,929.2,227,929.1,226.9z"/>
		<path class="st5" d="M940,225.9c-1-1-1.6-2.3-1.7-4.1l0-1l0-1c0.1-1.7,0.6-3.1,1.7-4.1s2.5-1.5,4.2-1.5c1.2,0,2.3,0.2,3.2,0.7
			c0.9,0.4,1.5,1,1.9,1.6c0.4,0.6,0.7,1.3,0.7,1.8c0,0.2,0,0.3-0.2,0.4c-0.1,0.1-0.3,0.2-0.4,0.2h-2.1c-0.2,0-0.3,0-0.4-0.1
			c-0.1-0.1-0.2-0.2-0.3-0.4c-0.2-0.6-0.6-1.1-0.9-1.3c-0.4-0.3-0.9-0.4-1.5-0.4c-0.8,0-1.5,0.3-1.9,0.8c-0.5,0.5-0.7,1.3-0.7,2.4
			l0,0.9l0,0.8c0.1,2.1,1,3.1,2.7,3.1c0.6,0,1.1-0.1,1.5-0.4c0.4-0.3,0.7-0.7,0.9-1.3c0.1-0.2,0.2-0.3,0.3-0.4s0.2-0.1,0.4-0.1h2.1
			c0.2,0,0.3,0.1,0.4,0.2c0.1,0.1,0.2,0.2,0.2,0.4c0,0.6-0.3,1.2-0.7,1.8c-0.4,0.6-1.1,1.2-1.9,1.7c-0.9,0.5-1.9,0.7-3.2,0.7
			C942.4,227.3,941,226.8,940,225.9z"/>
		<path class="st5" d="M953.6,225.8c-1-1-1.6-2.5-1.7-4.4l0-0.6l0-0.6c0.1-1.8,0.6-3.3,1.7-4.3c1-1,2.5-1.6,4.2-1.6
			c1.9,0,3.3,0.6,4.4,1.7c1,1.2,1.5,2.7,1.5,4.6v0.5c0,0.2-0.1,0.3-0.2,0.4c-0.1,0.1-0.3,0.2-0.4,0.2h-8v0.2c0,0.9,0.3,1.6,0.7,2.2
			c0.5,0.6,1.1,0.9,1.9,0.9c0.9,0,1.7-0.4,2.3-1.1c0.1-0.2,0.3-0.3,0.3-0.3c0.1,0,0.2-0.1,0.4-0.1h2.1c0.1,0,0.3,0,0.4,0.1
			c0.1,0.1,0.2,0.2,0.2,0.3c0,0.4-0.2,0.8-0.7,1.4c-0.5,0.5-1.1,1-2,1.4c-0.8,0.4-1.8,0.6-3,0.6
			C956.1,227.3,954.7,226.8,953.6,225.8z M960.5,219.8L960.5,219.8c0-1-0.2-1.8-0.7-2.4c-0.5-0.6-1.1-0.9-2-0.9s-1.5,0.3-1.9,0.9
			s-0.7,1.3-0.7,2.3v0.1H960.5z"/>
		<path class="st5" d="M968.1,226.8c-0.8-0.4-1.4-0.8-1.8-1.3c-0.4-0.5-0.6-0.9-0.6-1.3c0-0.2,0.1-0.3,0.2-0.4s0.2-0.1,0.4-0.1h1.9
			c0.1,0,0.3,0.1,0.4,0.2c0.1,0,0.2,0.2,0.5,0.4c0.3,0.3,0.6,0.5,1,0.6c0.4,0.1,0.8,0.2,1.2,0.2c0.6,0,1.2-0.1,1.6-0.4
			s0.6-0.6,0.6-1.1c0-0.3-0.1-0.6-0.3-0.8s-0.5-0.4-1-0.6c-0.5-0.2-1.2-0.3-2.1-0.5c-1.4-0.3-2.4-0.7-3-1.3c-0.6-0.6-1-1.4-1-2.4
			c0-0.6,0.2-1.2,0.6-1.8c0.4-0.6,1-1,1.7-1.4c0.8-0.4,1.7-0.5,2.7-0.5c1.1,0,2,0.2,2.8,0.5c0.8,0.3,1.4,0.8,1.8,1.2
			c0.4,0.5,0.6,0.9,0.6,1.3c0,0.1-0.1,0.3-0.2,0.4c-0.1,0.1-0.2,0.2-0.4,0.2h-1.8c-0.1,0-0.3-0.1-0.4-0.2c-0.1-0.1-0.3-0.2-0.5-0.5
			c-0.2-0.2-0.5-0.4-0.8-0.5s-0.7-0.2-1.1-0.2c-0.6,0-1.1,0.1-1.4,0.4c-0.3,0.3-0.5,0.6-0.5,1c0,0.3,0.1,0.6,0.2,0.7
			c0.2,0.2,0.5,0.4,0.9,0.6c0.5,0.2,1.2,0.4,2.1,0.5c1.5,0.3,2.6,0.8,3.3,1.4c0.7,0.6,1,1.4,1,2.4c0,1.1-0.5,2-1.5,2.7
			c-1,0.7-2.3,1.1-4.1,1.1C969.9,227.3,968.9,227.1,968.1,226.8z"/>
	</g>
</g>
</svg>
