<svg width="140" height="50" viewBox="0 0 140 50" fill="none" xmlns="http://www.w3.org/2000/svg">
<path d="M69.9881 2.51182C70.5043 1.66007 71.3608 0.768847 72.283 0.391907C73.8703 -0.337927 75.9979 -0.0240703 77.293 1.13079C78.5462 2.27816 79.182 3.8507 78.882 5.60881C79.1894 5.55152 79.4997 5.35266 79.8251 5.23951C81.7704 4.68463 83.8279 5.28632 85.0753 6.97187C86.0122 8.17511 86.257 10.0445 85.6946 11.4981C85.4155 12.2292 84.9395 12.8866 84.3206 13.4476L84.383 13.511C86.1929 13.5998 87.9715 15.0201 88.5205 16.7616C89.1158 18.5181 88.5921 20.3952 87.321 21.6799C86.2825 22.7172 84.9471 23.0762 83.4626 23.0459H56.5126C54.2997 23.0941 52.5899 22.1035 51.6694 20.115C50.9472 18.4081 51.3038 16.2249 52.6525 14.9238C53.5029 14.0251 54.5683 13.6571 55.7172 13.4718C54.4162 12.252 53.7894 10.583 54.155 8.79321C54.4162 7.34287 55.6396 5.87429 57.045 5.36765C58.2832 4.87006 59.9604 4.95747 61.0944 5.63285L61.1347 5.58307C60.7931 3.6094 61.6585 1.8288 63.2786 0.737164C64.723 -0.250234 67.0325 -0.224775 68.4469 0.824857C69.0826 1.2182 69.6062 1.89373 69.9881 2.51182Z" fill="#8E9190"/>
<path d="M77.618 3.24907C78.197 4.42968 77.8569 5.97662 77.2526 7.03657L72.5766 17.6677L72.5362 17.7175L70.846 6.93261C70.7104 5.89698 71.8053 5.45512 72.4498 4.95753C72.4171 4.80534 72.2514 4.81284 72.1471 4.74198L70.5672 4.72529L70.5192 4.67706C70.5281 3.33818 71.2414 2.10184 72.4498 1.45207C73.7123 0.714877 75.4905 0.915298 76.5856 1.86069C77.0303 2.26153 77.4048 2.7273 77.618 3.24907Z" fill="white"/>
<path d="M69.0033 2.87984C69.3854 3.59454 69.6063 4.40585 69.4719 5.30428L67.5652 17.6528C67.5755 17.6678 67.5577 17.6844 67.5426 17.6918L67.0488 16.6983L62.2699 5.91346C61.8252 4.5248 62.2372 3.07291 63.2382 2.07759C64.2468 1.04337 65.9059 0.762898 67.2249 1.32385C67.9232 1.62852 68.5901 2.18947 69.0033 2.87984Z" fill="white"/>
<path d="M84.5351 8.0779C85.1781 9.18595 85.0335 10.8627 84.3185 11.891C83.8757 12.6132 83.1444 12.9736 82.5252 13.447L72.623 20.3161H72.6003L72.7109 19.9875L77.9598 8.01468C78.7462 6.60338 80.2471 5.88868 81.8346 6.10424C82.9223 6.30494 84.0099 7.0195 84.5351 8.0779Z" fill="white"/>
<path d="M62.0402 8.01543L67.5025 20.3155H67.4146L56.4022 12.6456C55.2815 11.6913 54.8221 10.2619 55.2026 8.81755C55.4875 7.73496 56.3767 6.72337 57.4346 6.32211C59.1666 5.68138 61.118 6.36284 62.0402 8.01543Z" fill="white"/>
<path d="M87.4088 16.7623C87.9577 17.9338 87.7415 19.5381 86.9567 20.5345C86.1781 21.4891 85.1365 22.0107 83.9145 21.9775L72.1725 21.9851L82.009 15.0692C82.9701 14.4435 84.4308 14.3302 85.4797 14.8368C86.2897 15.1581 87.0522 15.9602 87.4088 16.7623Z" fill="white"/>
<path d="M52.6376 16.7623C52.0902 17.9338 52.3049 19.5381 53.0912 20.5345C53.87 21.4891 54.9084 22.0107 56.132 21.9775L67.8739 21.9851L58.0373 15.0692C57.0764 14.4435 55.6159 14.3302 54.5684 14.8368C53.758 15.1581 52.9958 15.9602 52.6376 16.7623Z" fill="white"/>
<path d="M31.5528 29.0869C25.8475 29.0869 21.2104 33.776 21.2104 39.5417C21.2104 45.3058 25.8475 49.9977 31.5528 49.9977C37.2583 49.9977 41.8984 45.3058 41.8984 39.5417C41.8984 33.7761 37.2583 29.0869 31.5528 29.0869ZM31.5528 47.9381C26.9709 47.9381 23.2424 44.1706 23.2424 39.5418C23.2424 34.9143 26.9709 31.1466 31.5528 31.1466C36.1348 31.1466 39.8633 34.9144 39.8633 39.5418C39.8633 44.1706 36.1348 47.9381 31.5528 47.9381Z" fill="#8E9190"/>
<path d="M120.75 39.6758C120.195 39.3816 116.819 37.6252 116.334 37.3705C114.563 36.4552 113.935 35.647 113.935 34.278C113.935 32.3754 115.481 31.1465 117.878 31.1465C119.285 31.1465 120.646 31.7723 121.444 32.226C121.589 32.3059 121.76 32.3512 121.939 32.3512C122.497 32.3512 122.955 31.8884 122.955 31.3245C122.955 30.9446 122.749 30.6112 122.447 30.4332C121.441 29.8662 119.727 29.0898 117.878 29.0898C114.356 29.0898 111.898 31.2216 111.898 34.278C111.898 37.0207 113.683 38.3143 115.428 39.216C115.918 39.4678 119.333 41.2468 119.845 41.5197C121.193 42.2328 121.939 43.3034 121.939 44.5353C121.939 46.1862 120.555 47.9412 117.993 47.9412C115.501 47.9412 113.566 46.2526 113.032 45.7323L112.872 45.5784L111.367 46.9656L111.543 47.1435C112.211 47.8132 114.655 49.9992 117.993 49.9992C121.735 49.9992 123.972 47.2204 123.972 44.5353C123.972 42.5301 122.799 40.7581 120.75 39.6758Z" fill="#8E9190"/>
<path d="M10.3426 31.1464C12.5641 31.1464 14.6514 32.0211 16.218 33.6026C16.591 33.9779 17.2923 33.9779 17.6592 33.6026C17.8532 33.411 17.9561 33.1533 17.9561 32.8774C17.9561 32.6044 17.8532 32.3436 17.6592 32.1521L17.534 32.0224C15.5973 30.1286 13.0416 29.0869 10.3426 29.0869C4.64008 29.0869 0 33.7775 0 39.5401C0 45.3059 4.64008 49.9978 10.3426 49.9978C13.3533 49.9978 16.0658 48.6924 17.9561 46.6114L16.5163 45.155C14.9945 46.8618 12.7923 47.9383 10.3425 47.9383C5.76203 47.9383 2.03354 44.1692 2.03354 39.5402C2.03368 34.9158 5.76217 31.1464 10.3426 31.1464Z" fill="#8E9190"/>
<path d="M80.4711 31.1464C82.6898 31.1464 84.7799 32.0211 86.3463 33.6026C86.7178 33.9779 87.4193 33.9779 87.7863 33.6026C87.9803 33.411 88.0876 33.1533 88.0876 32.8774C88.0876 32.6044 87.9801 32.3436 87.7863 32.1521L87.6624 32.0224C85.7214 30.1286 83.1686 29.0869 80.4711 29.0869C74.7672 29.0869 70.1255 33.7774 70.1255 39.54C70.1255 45.3058 74.7672 49.9977 80.4711 49.9977C83.4803 49.9977 86.1928 48.6923 88.0861 46.6113L86.6447 45.1549C85.1229 46.8616 82.9176 47.9381 80.4711 47.9381C75.8891 47.9381 72.159 44.169 72.159 39.5401C72.159 34.9158 75.8891 31.1464 80.4711 31.1464Z" fill="#8E9190"/>
<path d="M62.9475 29.0869C62.5655 29.0869 62.2641 29.3357 62.0999 29.6568C61.9328 29.9779 56.0126 44.7764 56.0112 44.7764C56.0112 44.7764 50.091 29.9777 49.9253 29.6568C49.7597 29.3356 49.4585 29.0869 49.0765 29.0869C48.6303 29.0869 48.2947 29.4186 48.1768 29.8364C48.059 30.2569 44.7185 48.8818 44.7185 48.8818C44.7064 48.9424 44.7006 49.0057 44.7006 49.0704C44.7006 49.5828 45.1139 49.9977 45.6182 49.9977C46.0658 49.9977 46.4388 49.6752 46.5193 49.2484L49.4122 33.3132C49.4122 33.3132 54.9938 47.2476 55.1564 47.5792C55.3206 47.9094 55.6249 48.1673 56.0129 48.1673C56.4007 48.1673 56.7037 47.9094 56.8662 47.5792C57.0304 47.2475 62.6119 33.3132 62.6119 33.3132L65.6182 49.8831H67.4864C67.4864 49.8831 63.9667 30.2568 63.8489 29.8364C63.7292 29.4186 63.3934 29.0869 62.9475 29.0869Z" fill="#8E9190"/>
<path d="M99.728 29.0898C99.3415 29.0884 99.0419 29.3432 98.8732 29.6748C98.7059 30.0051 91.2119 48.7102 91.2119 48.7102C91.1671 48.8201 91.1416 48.9425 91.1416 49.072C91.1416 49.5845 91.552 50.0007 92.0592 50.0007C92.4456 50.0007 92.7769 49.7565 92.9128 49.4112L95.822 42.1788H103.635L106.739 49.8846H108.722C108.722 49.8846 100.746 30.005 100.582 29.6747C100.419 29.3432 100.116 29.0884 99.728 29.0898ZM96.6514 40.1204L99.7278 32.4761L102.807 40.1204H96.6514Z" fill="#8E9190"/>
<path d="M138.979 29.1992H127.461C126.9 29.1992 126.445 29.6607 126.445 30.229C126.445 30.7944 126.9 31.2558 127.461 31.2558H132.289V49.8824H134.154V31.2559H138.979C139.54 31.2559 140 30.7945 140 30.2292C140 29.6607 139.54 29.1992 138.979 29.1992Z" fill="#8E9190"/>
</svg>
