<svg width="160" height="22" viewBox="0 0 160 22" fill="none" xmlns="http://www.w3.org/2000/svg">
<path d="M63.3369 2.97255V17.5698C63.3369 20.4653 65.2402 21.9974 68.0433 21.9974C69.383 21.9974 70.5677 21.667 70.8499 21.5812V19.1882C70.6014 19.2591 69.7938 19.4882 68.6981 19.4882C67.0583 19.4882 66.3081 18.5207 66.3081 17.2493V8.97594H70.4328V6.60559H66.3081V5.05621C66.3081 3.57431 65.376 2.82211 64.1883 2.82211C63.907 2.82211 63.6186 2.87364 63.3369 2.97255ZM123.088 8.58663V8.52375C123.088 7.04184 122.259 6.28964 121.071 6.28964C120.79 6.28964 120.501 6.34117 120.22 6.44008V21.6814H123.189V11.2515C124.073 10.119 125.861 8.79646 127.429 8.79646C129.164 8.79646 130.03 9.86089 130.03 11.4096V21.6814H133V11.2515C134.025 9.94081 135.672 8.79646 137.24 8.79646C138.975 8.79646 139.841 9.86089 139.841 11.4096V21.6814H142.811V11.2518C142.811 8.41174 141.455 6.28943 137.783 6.28943C135.547 6.28943 133.893 7.42526 132.554 8.80891C132.105 7.79382 131.091 6.28943 127.963 6.28943C125.842 6.28943 124.283 7.35473 123.088 8.58663ZM112.712 8.52375C112.712 7.04184 111.832 6.28964 110.644 6.28964C110.363 6.28964 110.075 6.34117 109.793 6.44008V21.6814H112.763V12.7688C113.605 10.8764 115.6 9.13053 118.235 9.13053V6.28943C115.419 6.28943 113.806 7.57919 112.712 9.49364V8.52375ZM18.2039 8.52375C18.2039 7.04184 17.3239 6.28964 16.1362 6.28964C15.8549 6.28964 15.5665 6.34117 15.2848 6.44008V21.6814H18.2546V12.7688C19.0974 10.8764 21.0918 9.13053 23.7275 9.13053V6.28943C20.9106 6.28943 19.2978 7.57919 18.2039 9.49364V8.52375ZM87.1246 13.9887C89.0517 11.9404 90.7586 9.48621 91.9744 6.49052L89.2299 5.54028C87.4792 9.89583 84.8633 12.8208 81.7031 15.2442V0.356121H78.7333V21.6812H81.7031V18.534C82.8475 17.7624 83.8775 16.9763 84.9862 16.0097L87.6975 20.3532C88.3748 21.4336 89.2765 21.9969 90.6272 21.9969C91.3872 21.9969 91.8366 21.7664 92.0037 21.6812L87.1246 13.9887ZM3.10579 14.1278C3.10579 10.6194 5.03561 8.7969 7.95766 8.7969C10.1738 8.7969 11.6294 9.5836 12.0928 9.86504C12.4568 9.53753 12.7482 8.96634 12.7482 8.3696C12.7482 7.37154 11.5033 6.28964 7.83871 6.28964C3.56571 6.28964 0 9.0076 0 14.1595C0 19.1847 3.2395 21.9976 7.51088 21.9976C10.0761 21.9976 12.1182 21.2199 12.7146 20.9277V18.1329C12.064 18.5552 9.96725 19.4884 8.00123 19.4884C5.19791 19.4884 3.10579 17.6704 3.10579 14.1278ZM50.1468 9.63971C49.7839 9.43316 48.4876 8.7969 46.8434 8.7969C44.0987 8.7969 42.2161 10.6013 42.2161 14.3306C42.2161 17.6493 43.9767 19.4855 47.7573 19.4855C48.6289 19.4855 49.4563 19.3582 50.1468 19.1622V9.63971ZM53.082 21.2334C52.4609 21.3845 50.5599 22 47.7573 22C41.6303 22 39.2657 18.7617 39.2657 14.411C39.2657 8.91153 42.5679 6.28462 46.3077 6.28462C48.3788 6.28462 49.7694 6.89511 50.1468 7.07962V0.356121H53.082V21.2334ZM26.9702 13.1907C27.0982 10.9725 28.6126 8.69974 31.901 8.69974C33.3695 8.69974 34.2531 9.49342 34.2531 10.4548C34.2531 12.6044 30.1072 13.1907 26.9702 13.1907ZM26.9905 15.3728C31.4108 15.3728 37.2609 14.7396 37.2609 10.3181C37.2609 8.10758 35.315 6.28921 32.0485 6.28921C26.5348 6.28921 23.8808 9.9585 23.8808 14.3795C23.8808 18.6185 26.7697 21.9976 31.9236 21.9976C34.7919 21.9976 36.9347 21.2585 36.9347 19.7155C36.9347 18.9927 36.4425 18.4161 36.3333 18.3139C36.0499 18.4921 34.4977 19.4884 32.1018 19.4884C28.7274 19.4884 27.3331 17.4189 26.9905 15.3728ZM56.7079 21.6812V6.60559H59.6779V21.6812H56.7079ZM58.2093 3.57147C57.1749 3.57147 56.3072 2.78128 56.3072 1.80156C56.3072 0.821632 57.1749 0 58.2093 0C59.244 0 60.0781 0.821632 60.0781 1.80156C60.0781 2.78128 59.244 3.57147 58.2093 3.57147ZM155.28 17.541C153.946 18.8371 152.593 19.4914 150.857 19.4914C149.174 19.4914 148.289 18.4729 148.289 17.403C148.289 15.8542 149.593 14.5529 155.28 14.0328V17.541ZM151.825 6.28943C148.03 6.28943 146.55 7.25648 146.55 8.36763C146.55 9.21132 147.07 9.73273 147.207 9.85958C147.706 9.55543 149.121 8.79144 151.401 8.79144C154.268 8.79144 155.28 10.0775 155.28 11.4664V11.8836C148.64 12.5474 145.236 13.7343 145.236 17.4955C145.236 20.0556 147.26 21.9976 150.13 21.9976C153.003 21.9976 154.628 20.5794 155.352 19.9554V21.6814H158.251V11.3738C158.251 8.02352 155.696 6.28943 151.825 6.28943ZM103.165 17.541C101.83 18.8371 100.477 19.4914 98.7414 19.4914C97.0575 19.4914 96.1739 18.4729 96.1739 17.403C96.1739 15.8542 97.4773 14.5529 103.165 14.0328V17.541ZM99.7089 6.28943C95.9141 6.28943 94.4342 7.25648 94.4342 8.36763C94.4342 9.21132 94.9543 9.73273 95.0915 9.85958C95.5902 9.55543 97.0052 8.79144 99.2845 8.79144C102.152 8.79144 103.165 10.0775 103.165 11.4664V11.8836C96.5241 12.5474 93.12 13.7343 93.12 17.4955C93.12 20.0556 95.1436 21.9976 98.0136 21.9976C100.887 21.9976 102.512 20.5794 103.236 19.9554V21.6814H106.135V11.3738C106.135 8.02352 103.58 6.28943 99.7089 6.28943Z" fill="#8E9190"/>
<path d="M159.626 5.29558C159.626 4.82789 159.572 4.25233 159.474 3.76913C159.235 4.1032 159.067 4.51435 158.991 4.8947H158.763C158.692 4.51435 158.524 4.09796 158.285 3.76913C158.182 4.24709 158.133 4.82265 158.133 5.29558H157.754C157.754 4.70452 157.83 4.0056 157.987 3.4248H158.323C158.529 3.65603 158.747 4.03115 158.877 4.3757C159.007 4.03115 159.224 3.65101 159.43 3.4248H159.772C159.924 4.0056 160 4.70955 160 5.29558H159.626ZM156.169 3.4248H157.634V3.71258H157.092V5.29558H156.712V3.71258H156.169V3.4248Z" fill="#8E9190"/>
</svg>
