<svg width="181" height="31" viewBox="0 0 181 31" fill="none" xmlns="http://www.w3.org/2000/svg">
<g clip-path="url(#clip0_103_397)">
<path d="M62.3 15.2101L62.03 15.0901C61.2347 14.8255 60.4755 14.4627 59.77 14.0101C59.5344 13.895 59.3361 13.7157 59.1981 13.4927C59.0601 13.2698 58.9879 13.0123 58.99 12.7501C58.99 11.8201 59.77 11.3401 61.32 11.3401C62.6945 11.3366 64.0507 11.6551 65.28 12.2701L65.52 12.3701V8.8001L65.4 8.7501C64.0366 8.22929 62.5895 7.96157 61.13 7.9601C57.18 7.9601 54.93 9.8601 54.93 13.1501C54.93 15.6301 56.05 17.0501 58.94 18.2301C62.01 19.5001 62.3 19.8301 62.3 20.7601C62.3 21.8501 61.38 22.4001 59.58 22.4001C58.0051 22.3974 56.4567 21.9948 55.08 21.2301L54.82 21.1001V24.6901L54.92 24.7401C56.4613 25.4629 58.148 25.8221 59.85 25.7901C64.16 25.7901 66.54 23.8901 66.54 20.4701C66.56 17.8701 65.47 16.5401 62.3 15.2101ZM80.75 21.5901C79.4593 22.1224 78.0761 22.3943 76.68 22.3901C73.84 22.3901 72.72 20.8901 72.72 16.9701C72.72 12.8901 73.81 11.3701 76.7 11.3701C78.0501 11.3735 79.386 11.6455 80.63 12.1701L80.87 12.2701V8.7301L80.75 8.6701C79.4099 8.1879 77.994 7.95079 76.57 7.9701C74.4537 7.88367 72.3781 8.56961 70.73 9.9001C68.92 11.4801 68.07 13.7201 68.07 16.9801C68.07 19.7301 68.64 21.7201 69.88 23.1801C70.7143 24.0661 71.7341 24.7568 72.8664 25.2028C73.9987 25.6488 75.2156 25.8391 76.43 25.7601C77.9564 25.7724 79.4674 25.4552 80.86 24.8301L80.96 24.7801V21.4801L80.75 21.5901ZM93.99 8.3701V15.0001H87.89V8.3701H83.48V25.4501H87.88V18.4001H93.97V25.4501H98.37V8.3701H93.99ZM106.06 21.9801V18.4001H111.92V15.1001H106.06V11.8201H113.49V8.3601H101.65V25.4301H113.83L114.14 21.9701C114.16 21.9801 106.41 21.9801 106.06 21.9801ZM127.32 8.3701V17.7101L120.22 8.3701H116.54V25.4501H120.28V15.1301L128.13 25.4501H131.06V8.3701H127.32ZM142.5 16.4201L148.95 8.3701H144.35L138.75 15.6701V8.3701H134.35V25.4501H138.75V18.2301L144.28 25.4501H149.51L142.51 16.4201M155.5 21.9801V18.4001H161.37V15.1001H155.49V11.8201H162.92V8.3601H151.08V25.4301H163.26L163.57 21.9701C163.59 21.9801 155.84 21.9801 155.49 21.9801M170.38 11.6601H172.39C174.09 11.6601 174.65 12.1501 174.65 13.6401C174.65 15.1301 174.03 15.6901 172.39 15.6901H170.38V11.6601ZM177.22 19.3001C176.849 18.6443 176.324 18.0884 175.69 17.6801C177.93 16.9501 178.92 15.6801 178.92 13.4201C178.92 10.0201 176.82 8.3701 172.52 8.3701H165.97V25.4501H170.37V18.7001H170.93C171.93 18.7001 172.27 18.9601 173.05 20.2701L176.12 25.4401H180.92L177.22 19.3001ZM40.73 26.3301C40.7353 26.4915 40.7083 26.6523 40.6505 26.8031C40.5928 26.9539 40.5054 27.0916 40.3935 27.2081C40.2817 27.3246 40.1477 27.4175 39.9994 27.4814C39.8511 27.5453 39.6915 27.5789 39.53 27.5801H4.41C4.24807 27.5788 4.08802 27.5453 3.93918 27.4816C3.79033 27.4178 3.65567 27.325 3.54305 27.2087C3.43042 27.0923 3.34209 26.9547 3.28319 26.8039C3.22429 26.653 3.19601 26.492 3.2 26.3301V4.3801C3.19329 4.21788 3.21929 4.05597 3.27646 3.90402C3.33362 3.75206 3.42079 3.61316 3.53276 3.49559C3.64473 3.37802 3.77921 3.28419 3.92821 3.21968C4.0772 3.15517 4.23765 3.12131 4.4 3.1201H39.51C39.6732 3.11996 39.8347 3.15284 39.9849 3.21675C40.1351 3.28066 40.2707 3.37429 40.3838 3.49199C40.4968 3.6097 40.5849 3.74906 40.6427 3.90169C40.7004 4.05431 40.7267 4.21705 40.72 4.3801L40.73 26.3301ZM39.53 0.00010275H4.41C3.83229 -0.00385426 3.25951 0.106517 2.72463 0.32486C2.18976 0.543204 1.70336 0.865205 1.29346 1.27232C0.883557 1.67944 0.558243 2.16362 0.336254 2.69699C0.114265 3.23036 -1.35503e-05 3.80238 1.2051e-09 4.3801L1.2051e-09 26.3301C1.2051e-09 26.9105 0.114327 27.4853 0.336452 28.0216C0.558578 28.5578 0.884153 29.0451 1.29459 29.4555C1.70502 29.8659 2.19228 30.1915 2.72854 30.4137C3.2648 30.6358 3.83956 30.7501 4.42 30.7501H39.52C40.6905 30.7475 41.8122 30.2806 42.639 29.452C43.4657 28.6234 43.93 27.5006 43.93 26.3301V4.3801C43.93 3.80323 43.8161 3.23203 43.5947 2.69932C43.3733 2.1666 43.0489 1.68287 42.6401 1.27588C42.2312 0.868899 41.746 0.546689 41.2123 0.327753C40.6786 0.108817 40.1069 -0.00253139 39.53 0.00010275Z" fill="#8E9190"/>
<path d="M16.64 15.7C16.64 11.66 16.24 8.50005 11.85 8.50005H10.87V22.2001H12.59C15.15 22.2001 16.64 20.14 16.64 15.71M13.42 25.4501H6.03003V5.30005H13.43C18.63 5.30005 21.5 8.55005 21.5 15.28C21.52 21.1 19.57 25.38 13.42 25.44M30.41 22.2001H28.42V17.02H30.55C33.06 17.02 33.67 18.49 33.67 19.62C33.67 22.2 31.17 22.2001 30.41 22.2001ZM28.42 8.43005H29.94C32.11 8.43005 32.98 9.18005 32.98 10.85C32.9844 11.1885 32.9174 11.5241 32.7834 11.835C32.6494 12.1459 32.4514 12.425 32.2024 12.6543C31.9533 12.8835 31.6587 13.0577 31.3379 13.1655C31.017 13.2734 30.677 13.3124 30.34 13.28H28.42V8.43005ZM34.29 14.92C35.2989 14.615 36.1837 13.9953 36.8152 13.1515C37.4467 12.3076 37.7918 11.284 37.8 10.23C37.8 9.83005 37.72 5.33005 32.05 5.33005H23.62V25.4501H30.74C32.61 25.4501 38.49 25.45 38.49 19.78C38.51 18.37 37.94 15.71 34.29 14.92Z" fill="#8E9190"/>
</g>
<defs>
<clipPath id="clip0_103_397">
<rect width="180.92" height="30.75" fill="white"/>
</clipPath>
</defs>
</svg>
