<svg width="150" height="41" viewBox="0 0 150 41" fill="none" xmlns="http://www.w3.org/2000/svg">
<path d="M72.1045 32.0791H67.4456C67.4247 32.0791 67.4122 32.0751 67.3997 32.061L63.3855 27.3267L59.3671 32.061C59.3587 32.0751 59.3441 32.0791 59.3233 32.0791H55.5928C55.5698 32.0791 55.5531 32.069 55.5364 32.0449C55.5302 32.0308 55.5302 32.0046 55.5448 31.9884L61.4576 24.9757L55.6136 18.0295C55.5969 18.0053 55.5969 17.9852 55.6032 17.963C55.6136 17.9509 55.6366 17.9308 55.6554 17.9308H60.3164C60.331 17.9308 60.3477 17.9388 60.3602 17.959L63.882 22.1735L67.4665 17.957C67.4769 17.9388 67.4936 17.9308 67.5103 17.9308H71.3096C71.3326 17.9308 71.3555 17.9509 71.3639 17.963C71.3743 17.9852 71.3701 18.0093 71.3555 18.0295L65.8078 24.462L72.1442 31.9884C72.1609 32.0046 72.1671 32.0308 72.1546 32.0449C72.1442 32.069 72.1233 32.0791 72.1045 32.0791Z" fill="#8E9190"/>
<path d="M97.3205 20.4249C95.257 20.4249 93.8487 21.6336 93.446 23.7348H100.465V23.5998C100.465 21.9177 99.1815 20.4249 97.3205 20.4249ZM104.085 25.8904C104.074 25.9065 104.053 25.9166 104.035 25.9166H93.3709C93.5921 28.3139 95.2049 29.6798 97.815 29.6798C99.4215 29.6798 101.128 29.15 103.54 27.911C103.584 27.8868 103.628 27.9231 103.628 27.9674L103.623 31.1343C103.619 31.1605 103.607 31.1766 103.588 31.1827C101.345 32.0953 99.0918 32.7178 97.3205 32.7178C92.7283 32.7178 89.4005 29.4864 89.4005 25.0362C89.4005 20.586 92.7283 17.3546 97.3205 17.3546C101.51 17.3546 104.201 20.0804 104.201 23.8295C104.201 24.4359 104.093 25.8461 104.085 25.8904Z" fill="#8E9190"/>
<path d="M125.747 15.0096C124.439 15.0096 123.375 13.9983 123.375 12.7533C123.375 11.472 124.439 10.4345 125.747 10.4345C127.055 10.4345 128.121 11.472 128.121 12.7533C128.121 13.9983 127.055 15.0096 125.747 15.0096ZM123.832 32.0791C123.794 32.0791 123.771 32.0569 123.771 32.0207V17.9892C123.771 17.961 123.792 17.9388 123.817 17.9328H127.668C127.7 17.9388 127.716 17.961 127.716 17.9892V32.0207C127.716 32.0569 127.691 32.0791 127.66 32.0791H123.832V32.0791Z" fill="#8E9190"/>
<path d="M79.1486 29.9662C78.4539 29.9662 77.7424 29.8715 76.9245 29.66L76.9329 20.6589C77.8905 20.3647 78.723 20.2257 79.5471 20.2257C82.2177 20.2257 84.0099 22.1275 84.0099 24.9519C84.0099 27.998 82.1009 29.9662 79.1486 29.9662ZM80.196 17.357C79.109 17.357 78.0116 17.5484 76.8599 17.9311H73.0271C72.9959 17.9311 72.9729 17.9573 72.9729 17.9896V41C74.1309 40.8469 75.5496 40.448 76.9266 39.5012L76.9245 32.5025C77.8697 32.6315 78.65 32.7181 79.4032 32.7181C84.6526 32.7181 88.0492 29.6801 88.0492 24.9761C88.0492 20.4917 84.8174 17.357 80.196 17.357" fill="#8E9190"/>
<path d="M116.818 28.8016C115.619 29.41 114.546 29.6981 113.539 29.6981C111.162 29.6981 109.737 28.0764 109.737 25.3607C109.737 22.218 111.557 20.1853 114.369 20.1853C115.145 20.1853 115.9 20.3686 116.818 20.7695V28.8016ZM116.818 10.5032V17.8484C115.694 17.5381 114.703 17.3951 113.703 17.3951C109.136 17.3951 105.688 20.7191 105.688 25.1351C105.688 29.5309 108.729 32.7179 112.915 32.7179C114.365 32.7179 115.721 32.3674 117.317 31.5737L117.315 32.8408C118.369 32.6474 119.579 32.2405 120.772 31.4246V9.00037C119.6 9.15147 118.21 9.53021 116.818 10.5032Z" fill="#8E9190"/>
<path d="M141.06 28.7734C139.9 29.4201 138.905 29.7303 138.016 29.7303C135.471 29.7303 133.946 28.1146 133.946 25.3889C133.946 22.2925 135.742 20.2155 138.413 20.2155C139.128 20.2155 139.996 20.4794 141.06 21.0233V28.7734ZM145.018 17.7617C145.018 17.6751 144.941 17.6066 144.854 17.6066L141.741 17.6107C141.649 17.6107 141.572 17.6872 141.572 17.7718V18.2835H141.492C140.055 17.6751 138.83 17.3951 137.622 17.3951C133.316 17.3951 129.94 20.842 129.94 25.26C129.94 29.7263 132.961 32.7199 137.457 32.7199C138.661 32.7199 140.203 32.6394 141.647 31.0358V32.8408C142.667 32.6313 143.871 32.2123 145.014 31.4185L145.018 17.7617V17.7617Z" fill="#8E9190"/>
<path d="M44.9367 28.5679L54.605 28.5639C54.459 29.6074 54.0939 30.8282 53.2551 32.0732H44.9596H43.3072H43.1966C41.9656 32.0732 40.9537 31.1526 40.8327 29.9882C40.8265 29.97 40.8202 29.9539 40.8181 29.9378V20.3766V11.5266C40.8202 11.5125 40.8265 11.4924 40.8327 11.4803C40.9537 10.3138 41.9656 9.38916 43.1966 9.38916C43.2363 9.38916 43.2738 9.39319 43.3072 9.39319L54.5842 9.39117C54.436 10.4327 54.0709 11.6858 53.2343 12.9267H44.9367V17.939H53.1508C53.1842 17.939 53.2092 17.9612 53.2092 17.9934V21.4705C53.2092 21.4988 53.1842 21.5249 53.1508 21.5249H44.9367V28.5639V28.5679Z" fill="#8E9190"/>
<path d="M32.834 32.3657C31.8784 32.3657 31.2879 31.6445 31.2879 30.7621C31.2879 29.8173 31.9639 29.1585 32.834 29.1585C33.6956 29.1585 34.3696 29.8173 34.3696 30.7621C34.3696 31.709 33.6956 32.3657 32.834 32.3657ZM32.834 28.9772C31.8554 28.9772 31.0188 29.6884 31.0188 30.7621C31.0188 31.7775 31.7741 32.541 32.834 32.541C33.8 32.541 34.6408 31.8339 34.6408 30.7621C34.6408 29.6884 33.8 28.9772 32.834 28.9772Z" fill="#8E9190"/>
<path d="M32.4001 30.6158V29.9651H32.8549C33.0844 29.9651 33.3557 29.9993 33.3557 30.2693C33.3557 30.5896 33.1053 30.6158 32.8195 30.6158H32.4001ZM33.6916 30.3116C33.6916 29.8865 33.4204 29.7052 32.8946 29.7052H32.0663V31.8145H32.4272V30.9119H32.7611L33.3265 31.8145H33.7333L33.1199 30.8877C33.4517 30.8495 33.6916 30.6944 33.6916 30.3116" fill="#8E9190"/>
<path d="M148.197 20.2671C147.242 20.2671 146.647 19.5459 146.647 18.6635C146.647 17.7187 147.325 17.0599 148.197 17.0599C149.057 17.0599 149.733 17.7187 149.733 18.6635C149.733 19.6104 149.057 20.2671 148.197 20.2671ZM148.197 16.8786C147.219 16.8786 146.382 17.5897 146.382 18.6635C146.382 19.6789 147.135 20.4424 148.197 20.4424C149.161 20.4424 150 19.7333 150 18.6635C150 17.5897 149.161 16.8786 148.197 16.8786Z" fill="#8E9190"/>
<path d="M147.762 18.5162V17.8675H148.217C148.446 17.8675 148.717 17.8997 148.717 18.1697C148.717 18.492 148.465 18.5162 148.183 18.5162H147.762ZM149.053 18.212C149.053 17.7869 148.782 17.6056 148.256 17.6056H147.428V19.7148H147.785V18.8143H148.123L148.688 19.7148H149.093L148.481 18.7881C148.811 18.7519 149.053 18.5947 149.053 18.212" fill="#8E9190"/>
<path d="M20.3625 12.9095L19.6615 10.9937L13.7153 3.32015L14.7835 3.0643L25.0361 11.6222L31.0699 9.95615C31.7793 9.77887 32.5846 9.74059 33.198 9.74462C31.3015 5.79606 27.8318 2.55461 23.2501 0.979216C14.193 -2.13733 4.23467 2.43172 1.01328 11.181C0.0159773 13.8866 -0.221872 16.6788 0.197494 19.334L14.6521 14.4849L20.3625 12.9095Z" fill="#8E9190"/>
<path d="M33.8331 11.2579C33.3031 11.5903 32.5249 12.0254 31.7529 12.2651L25.7065 13.9312L21.6714 26.4377L20.6241 26.766L21.4753 17.2149L20.9996 15.2306L15.333 16.7919L0.356812 20.1965C1.54189 25.7628 5.62288 30.6098 11.5712 32.6566C20.6303 35.7732 30.5845 31.2021 33.8059 22.4589C35.1955 18.6896 35.1058 14.7572 33.8331 11.2579Z" fill="#8E9190"/>
<path d="M20.9994 15.2302L21.4772 17.2126L20.6238 26.7637L21.6712 26.4353L25.7063 13.9308L31.7527 12.2648C32.5246 12.0251 33.3029 11.5859 33.8328 11.2575C33.6471 10.7438 33.4343 10.2381 33.1985 9.74457C32.5851 9.74054 31.7798 9.78083 31.0704 9.95408L25.0366 11.6242L14.7819 3.06223L13.7158 3.3201L19.6599 10.9936L20.363 12.9074L14.6505 14.4869L0.197998 19.3319C0.243899 19.622 0.296059 19.9101 0.356565 20.1962L15.3348 16.7915L20.9994 15.2302Z" fill="white"/>
</svg>
