<svg width="161" height="100" viewBox="0 0 161 100" fill="none" xmlns="http://www.w3.org/2000/svg">
<path d="M65.0322 35.5908H68.048V41.6736H74.0794V35.5908H77.0952V50.6685H74.0794V44.068H68.048V50.6685H65.0322V35.5908Z" fill="#8E9190"/>
<path d="M84.8715 48.6631C87.0256 48.6631 87.6718 46.6786 87.6718 44.8235C87.7331 44.421 87.7069 44.0101 87.5949 43.6187C87.4829 43.2274 87.2878 42.8649 87.0229 42.556C86.758 42.2472 86.4295 41.9993 86.0601 41.8294C85.6906 41.6595 85.2888 41.5715 84.8822 41.5715C84.4757 41.5715 84.0739 41.6595 83.7044 41.8294C83.335 41.9993 83.0065 42.2472 82.7416 42.556C82.4767 42.8649 82.2816 43.2274 82.1696 43.6187C82.0576 44.0101 82.0313 44.421 82.0927 44.8235C82.0927 46.657 82.6743 48.6631 84.8715 48.6631ZM84.8715 39.2799C85.6508 39.2422 86.4292 39.3693 87.1562 39.6528C87.8833 39.9362 88.5426 40.3699 89.0912 40.9253C89.6398 41.4808 90.0655 42.1456 90.3405 42.8767C90.6156 43.6078 90.7338 44.3888 90.6876 45.1687C90.6876 46.7133 90.0747 48.1947 88.984 49.2869C87.8933 50.3791 86.414 50.9927 84.8715 50.9927C83.3289 50.9927 81.8496 50.3791 80.7589 49.2869C79.6682 48.1947 79.0554 46.7133 79.0554 45.1687C79.0094 44.3907 79.1271 43.6117 79.4008 42.8821C79.6746 42.1526 80.0983 41.4888 80.6446 40.9336C81.1908 40.3785 81.8475 39.9445 82.5719 39.6596C83.2963 39.3747 84.0724 39.2453 84.8499 39.2799" fill="#8E9190"/>
<path d="M102.729 50.6691H99.9932V49.1591C99.5596 49.7106 99.0067 50.1563 98.3761 50.4627C97.7455 50.769 97.0536 50.9282 96.3527 50.9279C95.8067 50.941 95.2646 50.8337 94.7646 50.6137C94.2646 50.3936 93.8189 50.0663 93.4593 49.6547C93.0996 49.2431 92.8347 48.7574 92.6833 48.2319C92.5319 47.7064 92.4977 47.154 92.5831 46.6139V39.6035H95.4696V45.5354C95.4696 46.8943 95.4696 48.7277 97.3437 48.7277C99.2177 48.7277 99.8855 46.4629 99.8855 45.0393V39.6035H102.772V50.7337L102.729 50.6691Z" fill="#8E9190"/>
<path d="M112.595 44.9953C112.595 43.0971 111.862 41.5441 110.182 41.5441C108.502 41.5441 107.597 43.356 107.597 45.0601C107.496 45.8295 107.695 46.6082 108.152 47.2347C108.61 47.8613 109.29 48.2875 110.053 48.425C111.862 48.425 112.595 46.8503 112.595 44.9953ZM115.481 39.5595V49.5898C115.588 50.3854 115.509 51.1949 115.253 51.9553C114.996 52.7158 114.567 53.4067 114.001 53.9743C113.434 54.5419 112.744 54.9709 111.984 55.228C111.225 55.4852 110.417 55.5635 109.622 55.4568C108.306 55.4666 107.002 55.2099 105.788 54.7019L106.025 52.2429C107.025 52.783 108.124 53.1133 109.256 53.2136C112.444 53.2136 112.595 50.8193 112.595 48.8995C112.219 49.4649 111.705 49.9244 111.102 50.2341C110.498 50.5438 109.826 50.6933 109.148 50.6683C105.874 50.6683 104.625 48.0368 104.625 45.0601C104.625 42.0834 106.003 39.3007 109.32 39.3007C109.995 39.2542 110.67 39.3947 111.27 39.7067C111.871 40.0187 112.373 40.4902 112.724 41.0695V39.5595H115.481Z" fill="#8E9190"/>
<path d="M118.023 34.4699H120.909V41.0488C121.3 40.4886 121.823 40.0339 122.432 39.7253C123.041 39.4167 123.717 39.2637 124.399 39.2801C124.945 39.267 125.487 39.3743 125.987 39.5943C126.487 39.8143 126.933 40.1418 127.293 40.5534C127.652 40.965 127.917 41.4507 128.069 41.9762C128.22 42.5017 128.254 43.0539 128.169 43.5941V50.6045H125.282V44.6726C125.282 43.3137 125.282 41.4803 123.408 41.4803C121.534 41.4803 120.866 43.7452 120.866 45.1688V50.6045H117.98V34.4053L118.023 34.4699Z" fill="#8E9190"/>
<path d="M131.055 41.6517H129.59V39.4947H131.055V37.3377L133.942 36.4102V39.5593H136.505V41.7164H133.942V46.8933C133.887 47.1051 133.88 47.3265 133.922 47.5413C133.964 47.7561 134.053 47.9589 134.183 48.1347C134.313 48.3105 134.481 48.4548 134.674 48.5573C134.867 48.6597 135.08 48.7176 135.299 48.7267C135.756 48.7442 136.209 48.6401 136.613 48.4248V50.7113C135.911 50.9014 135.185 50.9886 134.459 50.9701C133.981 51.0074 133.5 50.939 133.051 50.7699C132.603 50.6008 132.197 50.335 131.862 49.9914C131.527 49.6478 131.271 49.2347 131.113 48.7814C130.955 48.328 130.899 47.8454 130.948 47.3678V41.7164L131.055 41.6517Z" fill="#8E9190"/>
<path d="M143.14 48.6631C145.294 48.6631 145.94 46.6786 145.94 44.8235C146.001 44.421 145.975 44.0101 145.863 43.6187C145.751 43.2274 145.556 42.8649 145.291 42.556C145.026 42.2472 144.698 41.9993 144.328 41.8294C143.959 41.6595 143.557 41.5715 143.15 41.5715C142.744 41.5715 142.342 41.6595 141.973 41.8294C141.603 41.9993 141.275 42.2472 141.01 42.556C140.745 42.8649 140.55 43.2274 140.438 43.6187C140.326 44.0101 140.3 44.421 140.361 44.8235C140.361 46.657 140.943 48.6631 143.14 48.6631ZM143.14 39.2799C143.919 39.2422 144.698 39.3693 145.425 39.6528C146.152 39.9362 146.811 40.3699 147.359 40.9253C147.908 41.4808 148.334 42.1456 148.609 42.8767C148.884 43.6078 149.002 44.3888 148.956 45.1687C148.956 46.7133 148.343 48.1947 147.252 49.2869C146.162 50.3791 144.682 50.9927 143.14 50.9927C141.597 50.9927 140.118 50.3791 139.027 49.2869C137.936 48.1947 137.324 46.7133 137.324 45.1687C137.278 44.3907 137.395 43.6117 137.669 42.8821C137.943 42.1526 138.367 41.4888 138.913 40.9336C139.459 40.3785 140.116 39.9445 140.84 39.6596C141.565 39.3747 142.341 39.2453 143.118 39.2799" fill="#8E9190"/>
<path d="M150.808 39.5396H153.544V41.0495C153.949 40.4671 154.496 39.9986 155.134 39.6889C155.771 39.3792 156.477 39.2386 157.185 39.2807C157.731 39.2677 158.273 39.375 158.773 39.595C159.273 39.815 159.718 40.1425 160.078 40.5541C160.438 40.9657 160.703 41.4514 160.854 41.9769C161.005 42.5024 161.04 43.0546 160.954 43.5948V50.6052H158.111V44.6733C158.111 43.3144 158.111 41.481 156.237 41.481C154.363 41.481 153.695 43.7459 153.695 45.1695V50.6052H150.808V39.4749V39.5396Z" fill="#8E9190"/>
<path d="M142.213 90.6381H140.749V88.481H142.213V86.324L145.1 85.3965V88.5458H147.663V90.7028H145.1V95.8798C145.045 96.0916 145.038 96.313 145.08 96.5278C145.122 96.7426 145.211 96.9452 145.341 97.121C145.471 97.2968 145.639 97.4413 145.832 97.5437C146.025 97.6462 146.239 97.7041 146.457 97.7132C146.914 97.7307 147.367 97.6264 147.771 97.4112V99.6976C147.069 99.8874 146.344 99.9746 145.617 99.9564C145.139 99.9937 144.659 99.9253 144.21 99.7562C143.761 99.5871 143.355 99.3213 143.02 98.9777C142.685 98.6341 142.429 98.2212 142.272 97.7678C142.114 97.3145 142.057 96.8319 142.106 96.3542V90.7028L142.213 90.6381Z" fill="#8E9190"/>
<path d="M74.0794 84.5771V90.66H68.048V84.5771H65.0322V99.6548H68.048V93.0543H74.0794V99.6548H77.0952V84.5771H74.0794Z" fill="#8E9190"/>
<path d="M83.4282 97.8003C83.8203 97.8089 84.2087 97.7233 84.561 97.5507C84.9133 97.3781 85.2192 97.1235 85.453 96.8082C85.8992 96.133 86.1112 95.3295 86.0562 94.5217H84.8068C83.5144 94.5217 81.5972 94.7373 81.5972 96.4414C81.6137 96.6572 81.6763 96.867 81.7808 97.0565C81.8853 97.2459 82.0292 97.4106 82.2028 97.5395C82.3765 97.6684 82.5757 97.7583 82.7872 97.8033C82.9986 97.8483 83.2172 97.8473 83.4282 97.8003ZM80.0463 89.1722C81.2624 88.6363 82.5735 88.3503 83.9021 88.3311C87.284 88.3311 88.6842 89.7331 88.6842 93.0118V94.4354C88.6842 95.557 88.6842 96.3983 88.6842 97.218C88.6842 98.0377 88.6842 98.8357 88.8134 99.6985H86.2716C86.1946 99.148 86.1515 98.5935 86.1424 98.0377C85.787 98.6279 85.2844 99.1153 84.6838 99.4519C84.0833 99.7885 83.4056 99.9627 82.7173 99.9574C82.2452 100.002 81.769 99.9509 81.3167 99.8081C80.8645 99.6652 80.4453 99.4331 80.084 99.1256C79.7227 98.818 79.4264 98.4412 79.2128 98.0173C78.9991 97.5933 78.8724 97.1309 78.84 96.6572C78.798 95.9986 78.9567 95.3427 79.2952 94.7765C79.6337 94.2102 80.136 93.7603 80.7355 93.4863C81.9161 93.0023 83.1878 92.7815 84.4622 92.8392H86.0562C86.0979 92.5052 86.061 92.1661 85.9485 91.849C85.8359 91.5319 85.6509 91.2455 85.4081 91.0129C85.1652 90.7802 84.8714 90.6076 84.55 90.509C84.2287 90.4104 83.8888 90.3885 83.5575 90.4449C82.3163 90.4712 81.1161 90.8945 80.1324 91.6528L80.0463 89.1722Z" fill="#8E9190"/>
<path d="M91.1399 88.5242H93.7032V91.0479C93.8366 90.3156 94.2057 89.6471 94.7541 89.1447C95.3026 88.6422 96.0003 88.3334 96.7405 88.2654C97.0335 88.224 97.3308 88.224 97.6237 88.2654V91.1773C97.2162 91.0019 96.7744 90.9209 96.3312 90.9401C93.9833 90.9401 93.9833 93.8737 93.9833 95.4699V99.5466H91.0968V88.4164L91.1399 88.5242Z" fill="#8E9190"/>
<path d="M105.852 90.9188C105.24 90.6299 104.569 90.4895 103.892 90.509C103.072 90.6788 102.335 91.1266 101.806 91.7769C101.278 92.4272 100.989 93.2402 100.989 94.0789C100.989 94.9176 101.278 95.7306 101.806 96.3809C102.335 97.0312 103.072 97.4789 103.892 97.6487C104.636 97.6089 105.366 97.4335 106.046 97.1311L106.175 99.5255C105.238 99.7961 104.264 99.9197 103.289 99.8921C102.525 99.8992 101.768 99.7555 101.059 99.4694C100.351 99.1833 99.7057 98.7603 99.1606 98.2245C98.0598 97.1424 97.4334 95.6667 97.4191 94.1221C97.4048 92.5775 98.0039 91.0903 99.0845 89.988C100.165 88.8857 101.639 88.2584 103.181 88.2441C104.128 88.225 105.072 88.3485 105.982 88.6108L105.852 90.9188Z" fill="#8E9190"/>
<path d="M112.875 97.6698C115.029 97.6698 115.675 95.6854 115.675 93.8303C115.736 93.4279 115.71 93.0168 115.598 92.6254C115.486 92.2341 115.291 91.8716 115.026 91.5627C114.761 91.2539 114.433 91.0061 114.063 90.8361C113.694 90.6662 113.292 90.5782 112.885 90.5782C112.479 90.5782 112.077 90.6662 111.708 90.8361C111.338 91.0061 111.01 91.2539 110.745 91.5627C110.48 91.8716 110.285 92.2341 110.173 92.6254C110.061 93.0168 110.034 93.4279 110.096 93.8303C110.096 95.6638 110.677 97.6698 112.875 97.6698ZM112.875 88.2868C113.654 88.2491 114.432 88.376 115.159 88.6595C115.886 88.943 116.546 89.3766 117.094 89.9321C117.643 90.4875 118.069 91.1525 118.344 91.8836C118.619 92.6147 118.737 93.3955 118.691 94.1754C118.691 95.72 118.078 97.2014 116.987 98.2936C115.896 99.3858 114.417 99.9994 112.875 99.9994C111.332 99.9994 109.853 99.3858 108.762 98.2936C107.671 97.2014 107.059 95.72 107.059 94.1754C107.013 93.3974 107.13 92.6185 107.404 91.889C107.678 91.1594 108.102 90.4955 108.648 89.9403C109.194 89.3852 109.851 88.9512 110.575 88.6663C111.299 88.3815 112.076 88.2522 112.853 88.2868" fill="#8E9190"/>
<path d="M130.732 99.6554H127.996V98.1455C127.563 98.6969 127.01 99.1426 126.379 99.449C125.749 99.7554 125.057 99.9145 124.356 99.9143C123.81 99.9273 123.268 99.82 122.768 99.6C122.268 99.38 121.822 99.0525 121.463 98.6409C121.103 98.2293 120.838 97.7436 120.687 97.2181C120.535 96.6926 120.501 96.1404 120.586 95.6002V88.5898H123.473V94.5217C123.473 95.8806 123.473 97.714 125.347 97.714C127.221 97.714 127.889 95.4491 127.889 94.0255V88.5898H130.775V99.7201L130.732 99.6554Z" fill="#8E9190"/>
<path d="M133.339 88.5242H135.902V91.0479C136.035 90.3156 136.404 89.6471 136.953 89.1447C137.501 88.6422 138.199 88.3334 138.939 88.2654C139.232 88.224 139.53 88.224 139.822 88.2654V91.1773C139.415 91.0019 138.973 90.9209 138.53 90.9401C136.182 90.9401 136.182 93.8737 136.182 95.4699V99.5466H133.339V88.4164V88.5242Z" fill="#8E9190"/>
<path d="M65.0322 61.1514H69.8574L73.4332 72.5836H73.4763L77.0521 61.1514H81.8773V76.229H78.9908V63.7829H78.9477L74.898 76.229H72.0115L67.9618 63.7829L67.9187 63.8261V76.229H65.0322V61.1514Z" fill="#8E9190"/>
<path d="M102.427 62.0133C102.874 62.0099 103.311 62.1455 103.677 62.4015L103.914 60.0073C103.206 59.8519 102.484 59.7722 101.76 59.7699C101.269 59.7483 100.78 59.8333 100.326 60.0187C99.8714 60.2041 99.4624 60.4858 99.1268 60.8443C98.7913 61.2029 98.5371 61.6298 98.3818 62.096C98.2264 62.5621 98.1736 63.0562 98.2269 63.5447V65.0978H93.9187V63.7173C93.8748 63.5202 93.8739 63.3159 93.9161 63.1184C93.9584 62.9209 94.0428 62.7349 94.1634 62.5731C94.2841 62.4113 94.4383 62.2775 94.6154 62.1809C94.7925 62.0843 94.9884 62.0271 95.1896 62.0133C95.6362 62.0099 96.0728 62.1455 96.439 62.4015L96.719 60.0935C96.0114 59.9383 95.2893 59.8588 94.5649 59.8562C94.0747 59.8347 93.5856 59.9195 93.1312 60.1049C92.6767 60.2904 92.2677 60.572 91.9322 60.9305C91.5966 61.2891 91.3424 61.7161 91.1871 62.1822C91.0318 62.6483 90.9789 63.1426 91.0321 63.6311V65.1841H88.8781V67.3411H91.0321V76.336H93.9187V67.2117H98.2269V76.2064H101.113V67.2117H103.634V65.0546H101.113V63.6741C101.069 63.477 101.069 63.2727 101.111 63.0752C101.153 62.8777 101.237 62.6917 101.358 62.5299C101.479 62.3681 101.633 62.2343 101.81 62.1377C101.987 62.0411 102.183 61.9839 102.384 61.9701" fill="#8E9190"/>
<path d="M105.249 67.1053V60.0303H108.136V76.2296H105.249V67.1053Z" fill="#8E9190"/>
<path d="M116.3 65.0997H119.035V66.5664C119.441 65.9856 119.989 65.5182 120.626 65.2087C121.263 64.8991 121.969 64.7576 122.676 64.7977C123.222 64.7846 123.764 64.8919 124.264 65.1119C124.764 65.3319 125.21 65.6594 125.569 66.071C125.929 66.4826 126.194 66.9682 126.345 67.4937C126.497 68.0191 126.531 68.5715 126.445 69.1117V76.1221H123.559V70.1902C123.559 68.8313 123.559 66.9979 121.685 66.9979C119.811 66.9979 119.143 69.2627 119.143 70.6863V76.1221H116.257V64.9918L116.3 65.0997Z" fill="#8E9190"/>
<path d="M84.5483 68.6577V65.0986H87.4348V76.2289H84.5483V68.6577Z" fill="#8E9190"/>
<path d="M87.6071 62.1217C87.6071 62.4416 87.5124 62.7544 87.3349 63.0205C87.1573 63.2865 86.905 63.4939 86.6098 63.6164C86.3146 63.7388 85.9898 63.7708 85.6764 63.7084C85.363 63.646 85.0751 63.4919 84.8492 63.2656C84.6232 63.0394 84.4694 62.7511 84.407 62.4373C84.3447 62.1234 84.3767 61.7982 84.4989 61.5026C84.6212 61.207 84.8283 60.9543 85.094 60.7766C85.3597 60.5988 85.672 60.5039 85.9915 60.5039C86.42 60.5039 86.8309 60.6743 87.1339 60.9777C87.4369 61.2811 87.6071 61.6926 87.6071 62.1217Z" fill="#8E9190"/>
<path d="M110.871 68.3342V65.0986H113.758V76.2289H110.871V68.3342Z" fill="#8E9190"/>
<path d="M113.952 62.1217C113.952 62.4416 113.857 62.7544 113.679 63.0205C113.502 63.2865 113.25 63.4939 112.954 63.6164C112.659 63.7388 112.334 63.7708 112.021 63.7084C111.708 63.646 111.42 63.4919 111.194 63.2656C110.968 63.0394 110.814 62.7511 110.752 62.4373C110.689 62.1234 110.721 61.7982 110.844 61.5026C110.966 61.207 111.173 60.9543 111.439 60.7766C111.704 60.5988 112.017 60.5039 112.336 60.5039C112.765 60.5039 113.176 60.6743 113.479 60.9777C113.782 61.2811 113.952 61.6926 113.952 62.1217Z" fill="#8E9190"/>
<path d="M59.5823 0.0859375L34.724 4.01175C38.386 3.45092 43.9436 6.0178 48.6826 10.7633C53.4216 15.5087 56.0496 21.2248 55.4033 24.8702L59.5823 0.0859375Z" fill="#8E9190"/>
<path d="M48.6826 10.828C43.922 6.06096 38.386 3.51578 34.724 4.07661H34.5948C33.6781 4.21731 32.8276 4.63935 32.1606 5.28454C29.1234 8.32596 31.579 15.7461 37.6751 21.8505C43.7712 27.9549 51.1813 30.4786 54.2186 27.3725C54.8681 26.6997 55.29 25.8395 55.4249 24.9135C56.0711 21.2465 53.5077 15.6167 48.7041 10.8065" fill="#A2A5A4"/>
<path d="M91.4845 14.5379C91.4845 17.3408 90.6545 20.0807 89.0994 22.4113C87.5444 24.7418 85.334 26.5582 82.748 27.6309C80.162 28.7035 77.3164 28.9841 74.5711 28.4372C71.8258 27.8904 69.3041 26.5408 67.3248 24.5588C65.3456 22.5769 63.9977 20.0517 63.4516 17.3027C62.9056 14.5536 63.1858 11.7042 64.257 9.11467C65.3281 6.52513 67.1421 4.31177 69.4695 2.75456C71.7968 1.19735 74.533 0.366211 77.3321 0.366211C81.0856 0.366211 84.6853 1.85931 87.3394 4.51702C89.9935 7.17473 91.4845 10.7794 91.4845 14.5379Z" fill="#8E9190"/>
<path d="M16.285 0L0 28.0414H32.3115L16.285 0Z" fill="#8E9190"/>
<path d="M149.861 97.4541V97.7992H150.464V99.5896H150.895V97.7992H151.498V97.4541H149.861Z" fill="#8E9190"/>
<path d="M153.566 97.4541L153.049 99.0719L152.532 97.4541H151.864V99.5896H152.273V97.8424L152.855 99.5896H153.264L153.824 97.8424H153.846V99.5896H154.255V97.4541H153.566Z" fill="#8E9190"/>
</svg>
