<svg width="122" height="39" viewBox="0 0 122 39" fill="none" xmlns="http://www.w3.org/2000/svg">
<mask id="mask0" mask-type="alpha" maskUnits="userSpaceOnUse" x="0" y="0" width="122" height="39">
<path d="M0 38.215L6.64971 0H15.0941L12.6596 14.0481C14.5763 11.9958 16.8558 10.9964 19.4464 10.9964C24.9895 10.9964 27.2695 14.6791 26.2333 20.9405L23.1763 38.4081H14.7319L17.4256 23.0451C17.8404 20.5721 17.2185 19.3618 15.5089 19.3618C13.3845 19.3618 11.4678 20.9405 10.8459 24.36L8.41136 38.4081H0V38.215ZM47.934 11.5751L45.4989 25.6232C44.9291 29.0427 43.0639 30.6214 40.9921 30.6214C39.334 30.6214 38.7121 29.4111 39.1269 26.9381L41.7691 11.5751H33.3241L30.3192 29.0427C29.2315 35.3041 31.511 38.9868 37.0545 38.9868C40.111 38.9868 42.5981 37.6713 44.5148 35.0409L44.6184 38.4081H51.768L56.379 11.5751H47.934ZM71.6035 10.9964C68.4435 10.9964 65.6977 11.8906 63.3662 13.6268C61.0347 15.363 59.895 17.7308 59.895 20.7296C59.895 24.9387 62.3821 27.4117 67.3038 28.2007C70.2051 28.622 70.8786 29.3588 70.8786 30.4633C70.8786 31.884 69.8424 32.6731 68.4435 32.6731C66.8375 32.6731 66.112 31.884 66.3191 30.3053H57.7711C56.9942 35.7248 60.6205 38.9868 67.6665 38.9868C71.1892 38.9868 74.0906 38.1448 76.3701 36.5138C78.6495 34.8305 79.7892 32.3576 79.7892 29.1478C79.7892 25.1496 77.8205 22.7818 72.4846 21.8876C69.5832 21.414 68.8062 20.8353 68.8062 19.625C68.8062 18.2043 69.7388 17.3101 70.9821 17.3101C72.2254 17.3101 72.7438 18.0463 72.4846 19.5198H81.0325C81.3953 16.9417 80.6704 14.8894 78.9087 13.3642C77.1471 11.7855 74.712 10.9964 71.6035 10.9964ZM89.3806 0L82.6973 38.4081H91.1417L93.5768 24.36C94.1987 20.9405 96.1154 19.3618 98.2398 19.3618C99.9494 19.3618 100.571 20.5721 100.157 23.0451L97.4623 38.4081H105.907L108.964 20.9405C110 14.6791 107.72 10.9964 102.177 10.9964C99.5867 10.9964 97.3072 11.9958 95.39 14.0481L97.825 0H89.3806ZM113.724 30.7789C115.589 28.9375 118.697 28.9375 120.562 30.7789C122.479 32.6208 122.479 35.7776 120.562 37.619C118.697 39.4603 115.589 39.4603 113.724 37.619C111.858 35.7776 111.858 32.6208 113.724 30.7789Z" fill="#8E9190"/>
</mask>
<g mask="url(#mask0)">
<path d="M0 38.215L6.64971 0H15.0941L12.6596 14.0481C14.5763 11.9958 16.8558 10.9964 19.4464 10.9964C24.9895 10.9964 27.2695 14.6791 26.2333 20.9405L23.1763 38.4081H14.7319L17.4256 23.0451C17.8404 20.5721 17.2185 19.3618 15.5089 19.3618C13.3845 19.3618 11.4678 20.9405 10.8459 24.36L8.41136 38.4081H0V38.215ZM47.934 11.5751L45.4989 25.6232C44.9291 29.0427 43.0639 30.6214 40.9921 30.6214C39.334 30.6214 38.7121 29.4111 39.1269 26.9381L41.7691 11.5751H33.3241L30.3192 29.0427C29.2315 35.3041 31.511 38.9868 37.0545 38.9868C40.111 38.9868 42.5981 37.6713 44.5148 35.0409L44.6184 38.4081H51.768L56.379 11.5751H47.934ZM71.6035 10.9964C68.4435 10.9964 65.6977 11.8906 63.3662 13.6268C61.0347 15.363 59.895 17.7308 59.895 20.7296C59.895 24.9387 62.3821 27.4117 67.3038 28.2007C70.2051 28.622 70.8786 29.3588 70.8786 30.4633C70.8786 31.884 69.8424 32.6731 68.4435 32.6731C66.8375 32.6731 66.112 31.884 66.3191 30.3053H57.7711C56.9942 35.7248 60.6205 38.9868 67.6665 38.9868C71.1892 38.9868 74.0906 38.1448 76.3701 36.5138C78.6495 34.8305 79.7892 32.3576 79.7892 29.1478C79.7892 25.1496 77.8205 22.7818 72.4846 21.8876C69.5832 21.414 68.8062 20.8353 68.8062 19.625C68.8062 18.2043 69.7388 17.3101 70.9821 17.3101C72.2254 17.3101 72.7438 18.0463 72.4846 19.5198H81.0325C81.3953 16.9417 80.6704 14.8894 78.9087 13.3642C77.1471 11.7855 74.712 10.9964 71.6035 10.9964ZM89.3806 0L82.6973 38.4081H91.1417L93.5768 24.36C94.1987 20.9405 96.1154 19.3618 98.2398 19.3618C99.9494 19.3618 100.571 20.5721 100.157 23.0451L97.4623 38.4081H105.907L108.964 20.9405C110 14.6791 107.72 10.9964 102.177 10.9964C99.5867 10.9964 97.3072 11.9958 95.39 14.0481L97.825 0H89.3806ZM113.724 30.7789C115.589 28.9375 118.697 28.9375 120.562 30.7789C122.479 32.6208 122.479 35.7776 120.562 37.619C118.697 39.4603 115.589 39.4603 113.724 37.619C111.858 35.7776 111.858 32.6208 113.724 30.7789Z" fill="#8E9190"/>
<path d="M123.315 0H-0.0336914V38.5035H123.315V0Z" fill="#8E9190"/>
</g>
</svg>
