<svg width="152" height="35" viewBox="0 0 152 35" fill="none" xmlns="http://www.w3.org/2000/svg">
<path d="M37.6482 25.4753C37.6482 25.9515 37.4645 26.4083 37.1376 26.7451L29.3309 34.7882C28.8917 35.2407 28.1406 34.9202 28.1406 34.2802V16.2576L37.5397 6.62817H37.6482V25.4753Z" fill="#8E9190"/>
<path d="M31.418 0.210106C31.1457 -0.0704651 30.7044 -0.0704651 30.432 0.210106L18.8239 12.1695H18.6626V25.6679L18.8239 26.0225L28.1404 16.4239L37.648 6.62847L31.418 0.210106Z" fill="#8E9190"/>
<path d="M0 25.4753C0 25.9515 0.183667 26.4083 0.510558 26.7451L8.31719 34.7882C8.75651 35.2407 9.50759 34.9202 9.50759 34.2802V16.2576L0.108357 6.62817H0V25.4753Z" fill="#8E9190"/>
<path d="M7.21593 0.210106C6.9436 -0.0704651 6.50215 -0.0704651 6.22983 0.210106L0 6.62847L9.5076 16.4239L18.8241 26.0225V12.1695L7.21593 0.210106Z" fill="#8E9190"/>
<path d="M48.8186 24.8096V6.98661H53.5083V9.376C54.5905 7.55059 56.1648 6.65469 58.2964 6.65469C60.4281 6.65469 62.035 7.5841 63.1829 9.50903C65.0194 7.55059 66.4296 6.65469 68.6269 6.65469C72.5951 6.65469 74.8252 8.91144 74.8252 13.0603V24.8096H69.7748V15.1514C69.7748 12.6621 69.25 11.5337 67.3151 11.5337C65.3474 11.5337 64.298 12.7615 64.298 15.1514V24.8096H59.2148V15.1514C59.2148 12.6621 58.69 11.5337 56.755 11.5337C54.7873 11.5337 53.7379 12.7615 53.7379 15.1514V24.8096H48.8186" fill="#8E9190"/>
<path d="M87.0202 20.2968C89.316 20.2968 91.1852 18.3385 91.1852 15.9155C91.1852 13.4593 89.316 11.5014 87.0202 11.5014C84.7247 11.5014 82.8551 13.4593 82.8551 15.9155C82.8551 18.3385 84.7574 20.2968 87.0202 20.2968ZM80.4283 9.31049C82.1995 7.51819 84.5278 6.52276 86.9219 6.52276C89.4798 6.52276 91.6773 7.41867 93.4482 9.11146C95.3174 10.9038 96.3341 13.3599 96.3341 15.7828C96.3341 18.4711 95.4488 20.6951 93.6776 22.4873C91.8739 24.3127 89.6439 25.2754 86.9874 25.2754C84.2984 25.2754 82.1337 24.346 80.33 22.421C78.6246 20.6285 77.7393 18.3385 77.7393 15.8492C77.7393 13.3599 78.6903 11.0695 80.4283 9.31049Z" fill="#8E9190"/>
<path d="M99.2488 24.8096V6.98661H104.168L104.102 9.376C105.185 7.5841 106.825 6.65469 109.153 6.65469C112.793 6.65469 115.155 8.97782 115.155 13.0603V24.8096H109.973V15.1514C109.973 12.6621 109.448 11.5337 107.448 11.5337C105.414 11.5337 104.332 12.7615 104.332 15.1514V24.8096H99.2488Z" fill="#8E9190"/>
<path d="M142.686 20.2968C144.982 20.2968 146.851 18.3385 146.851 15.9155C146.851 13.4593 144.982 11.5014 142.686 11.5014C140.39 11.5014 138.521 13.4593 138.521 15.9155C138.521 18.3385 140.423 20.2968 142.686 20.2968ZM136.094 9.31049C137.865 7.51819 140.194 6.52276 142.588 6.52276C145.146 6.52276 147.343 7.41867 149.114 9.11146C150.983 10.9038 152 13.3599 152 15.7828C152 18.4711 151.114 20.6951 149.344 22.4873C147.54 24.3127 145.31 25.2754 142.653 25.2754C139.964 25.2754 137.8 24.346 135.996 22.421C134.291 20.6285 133.405 18.3385 133.405 15.8492C133.405 13.3599 134.356 11.0695 136.094 9.31049Z" fill="#8E9190"/>
<path d="M118.42 24.8096V21.0925L125.667 11.5999H118.42V6.98646H131.505V11.2017L125.11 20.1962H131.636V24.8096H118.42Z" fill="#8E9190"/>
</svg>
