<svg width="133" height="34" viewBox="0 0 133 34" fill="none" xmlns="http://www.w3.org/2000/svg">
<path d="M49.7309 7.60352H42.3709C41.8673 7.60352 41.439 7.98657 41.3604 8.50708L38.3837 28.265C38.3245 28.6548 38.6129 29.0063 38.9907 29.0063H42.5044C43.008 29.0063 43.4363 28.6233 43.5149 28.1016L44.3177 22.7726C44.3952 22.251 44.8246 21.8679 45.3272 21.8679H47.6571C52.5052 21.8679 55.3033 19.4118 56.034 14.5448C56.3633 12.4154 56.048 10.7423 55.0956 9.57063C54.0495 8.28401 52.1942 7.60352 49.7309 7.60352ZM50.58 14.8197C50.1775 17.5844 48.1596 17.5844 46.2085 17.5844H45.0979L45.8771 12.421C45.9234 12.109 46.1816 11.8791 46.483 11.8791H46.992C48.3211 11.8791 49.5748 11.8791 50.2227 12.6723C50.609 13.1455 50.7274 13.8485 50.58 14.8197Z" fill="#8E9190"/>
<path d="M71.7312 14.7298H68.2067C67.9064 14.7298 67.6471 14.9597 67.6008 15.2717L67.4448 16.3037L67.1983 15.9297C66.4353 14.7704 64.7339 14.3828 63.0357 14.3828C59.141 14.3828 55.8146 17.4709 55.1667 21.8029C54.8299 23.9638 55.3088 26.03 56.4796 27.471C57.5537 28.7959 59.0904 29.348 60.9189 29.348C64.057 29.348 65.7971 27.2355 65.7971 27.2355L65.64 28.2608C65.5808 28.6528 65.8692 29.0044 66.2448 29.0044H69.4195C69.9243 29.0044 70.3504 28.6213 70.4301 28.0997L72.3349 15.4711C72.3951 15.0825 72.1078 14.7298 71.7312 14.7298ZM66.8184 21.911C66.4784 24.019 64.8802 25.434 62.842 25.434C61.8185 25.434 61.0006 25.0904 60.4755 24.4392C59.9546 23.7925 59.7566 22.8721 59.9223 21.8468C60.2398 19.7569 61.8648 18.2956 63.8719 18.2956C64.8727 18.2956 65.6863 18.6438 66.2222 19.3006C66.7592 19.9642 66.9723 20.8903 66.8184 21.911Z" fill="#8E9190"/>
<path d="M90.5017 14.7314H86.96C86.6221 14.7314 86.3046 14.9072 86.1131 15.2013L81.2283 22.734L79.1578 15.4953C79.0276 15.0424 78.6283 14.7314 78.1763 14.7314H74.696C74.273 14.7314 73.9792 15.1641 74.1138 15.5809L78.0149 27.5661L74.3473 32.9864C74.0589 33.4134 74.3495 34.0004 74.8477 34.0004H78.3851C78.7209 34.0004 79.0351 33.8291 79.2256 33.5407L91.0054 15.7398C91.2873 15.3139 90.9978 14.7314 90.5017 14.7314Z" fill="#8E9190"/>
<path d="M102.228 7.60352H94.8667C94.3641 7.60352 93.9358 7.98657 93.8572 8.50708L90.8805 28.265C90.8213 28.6548 91.1098 29.0063 91.4853 29.0063H95.2627C95.6135 29.0063 95.9138 28.7382 95.9687 28.3731L96.8135 22.7726C96.891 22.251 97.3203 21.8679 97.8229 21.8679H100.152C105.001 21.8679 107.798 19.4118 108.53 14.5448C108.86 12.4154 108.543 10.7423 107.59 9.57063C106.545 8.28401 104.691 7.60352 102.228 7.60352ZM103.077 14.8197C102.675 17.5844 100.658 17.5844 98.7054 17.5844H97.5958L98.3761 12.421C98.4223 12.109 98.6785 11.8791 98.9809 11.8791H99.4899C100.818 11.8791 102.073 11.8791 102.721 12.6723C103.107 13.1455 103.224 13.8485 103.077 14.8197Z" fill="#8E9190"/>
<path d="M124.227 14.7298H120.705C120.402 14.7298 120.145 14.9597 120.1 15.2717L119.944 16.3037L119.696 15.9297C118.933 14.7704 117.233 14.3828 115.535 14.3828C111.64 14.3828 108.315 17.4709 107.667 21.8029C107.331 23.9638 107.808 26.03 108.979 27.471C110.055 28.7959 111.589 29.348 113.418 29.348C116.556 29.348 118.296 27.2355 118.296 27.2355L118.139 28.2608C118.08 28.6528 118.368 29.0044 118.746 29.0044H121.92C122.422 29.0044 122.85 28.6213 122.929 28.0997L124.835 15.4711C124.893 15.0825 124.605 14.7298 124.227 14.7298ZM119.314 21.911C118.976 24.019 117.376 25.434 115.338 25.434C114.316 25.434 113.496 25.0904 112.971 24.4392C112.45 23.7925 112.255 22.8721 112.418 21.8468C112.738 19.7569 114.361 18.2956 116.368 18.2956C117.368 18.2956 118.182 18.6438 118.718 19.3006C119.257 19.9642 119.47 20.8903 119.314 21.911Z" fill="#8E9190"/>
<path d="M128.382 8.14558L125.361 28.2651C125.302 28.655 125.59 29.0065 125.966 29.0065H129.003C129.508 29.0065 129.936 28.6234 130.013 28.1018L132.992 8.345C133.051 7.95518 132.763 7.60254 132.387 7.60254H128.987C128.686 7.60367 128.428 7.8335 128.382 8.14558Z" fill="#8E9190"/>
<path d="M7.81949 32.8467L8.38233 29.104L7.12859 29.0736H1.14185L5.30233 1.45624C5.31524 1.37287 5.35721 1.29513 5.41855 1.23992C5.47989 1.18472 5.55846 1.1543 5.64024 1.1543H15.7347C19.0859 1.1543 21.3986 1.88436 22.6061 3.32533C23.1722 4.00132 23.5327 4.70772 23.707 5.48511C23.89 6.30079 23.8932 7.27534 23.7146 8.46395L23.7016 8.5507V9.31231L24.2677 9.64804C24.7444 9.91281 25.1233 10.2159 25.4138 10.5629C25.8981 11.1408 26.2113 11.8754 26.3436 12.7463C26.4803 13.642 26.4351 14.7078 26.2113 15.9144C25.953 17.3024 25.5354 18.5113 24.9715 19.5005C24.4528 20.412 23.792 21.168 23.0075 21.7538C22.2585 22.3104 21.3685 22.7329 20.3623 23.0033C19.3873 23.2691 18.2756 23.4032 17.0563 23.4032H16.2707C15.7089 23.4032 15.1633 23.615 14.735 23.9947C14.3056 24.3823 14.0215 24.9118 13.9343 25.4909L13.8751 25.8277L12.8807 32.4242L12.8355 32.6665C12.8237 32.7431 12.8032 32.7814 12.7731 32.8073C12.7462 32.8309 12.7075 32.8467 12.6698 32.8467H7.81949Z" fill="#8E9190"/>
<path d="M24.8037 8.63867C24.7736 8.84034 24.7391 9.04652 24.7004 9.25832C23.3692 16.4136 18.8148 18.8855 12.9981 18.8855H10.0365C9.32511 18.8855 8.72568 19.4263 8.61484 20.1608L7.09851 30.2285L6.66912 33.0823C6.59701 33.5645 6.95215 33.9994 7.41706 33.9994H12.6699C13.2919 33.9994 13.8203 33.5262 13.9182 32.884L13.9699 32.6046L14.9589 26.034L15.0224 25.6735C15.1192 25.0291 15.6487 24.5559 16.2707 24.5559H17.0563C22.1455 24.5559 26.1295 22.3927 27.294 16.1331C27.7804 13.5182 27.5286 11.3347 26.2415 9.79911C25.8519 9.33606 25.3687 8.95188 24.8037 8.63867Z" fill="#A2A5A4"/>
<path d="M23.411 8.05589C23.2076 7.99393 22.9978 7.9376 22.7825 7.8869C22.5662 7.83732 22.3445 7.79339 22.1164 7.75508C21.3179 7.61988 20.443 7.55566 19.5056 7.55566H11.5936C11.3988 7.55566 11.2137 7.60186 11.048 7.68523C10.6831 7.86887 10.412 8.23052 10.3463 8.67329L8.66317 19.8338L8.61475 20.1594C8.72559 19.4248 9.32502 18.884 10.0364 18.884H12.998C18.8147 18.884 23.3691 16.4111 24.7003 9.25689C24.7401 9.04508 24.7735 8.83891 24.8036 8.63724C24.4668 8.45022 24.1019 8.29023 23.7091 8.15391C23.6123 8.12011 23.5122 8.08744 23.411 8.05589Z" fill="#848786"/>
<path d="M10.3463 8.67401C10.412 8.23124 10.6831 7.86959 11.048 7.68707C11.2148 7.6037 11.3988 7.55751 11.5936 7.55751H19.5056C20.443 7.55751 21.3179 7.62173 22.1164 7.75693C22.3445 7.79523 22.5662 7.83917 22.7825 7.88874C22.9978 7.93944 23.2076 7.99577 23.411 8.05774C23.5122 8.08928 23.6123 8.12196 23.7102 8.15463C24.103 8.29095 24.4678 8.45206 24.8047 8.63796C25.2007 5.99373 24.8014 4.19336 23.4358 2.56311C21.9302 0.768369 19.2129 0 15.7358 0H5.64128C4.93101 0 4.32512 0.540788 4.21535 1.27648L0.0107497 29.1778C-0.0721156 29.7298 0.334677 30.2278 0.866306 30.2278H7.09842L8.66317 19.8345L10.3463 8.67401Z" fill="#8E9190"/>
</svg>
