<svg width="118" height="57" viewBox="0 0 118 57" fill="none" xmlns="http://www.w3.org/2000/svg">
<path d="M28.8086 57C23.4537 56.998 18.2052 55.5206 13.6519 52.7336C9.09866 49.9466 5.42062 45.9601 3.03037 41.2214C0.640123 36.4827 -0.367794 31.1792 0.119673 25.9056C0.607139 20.6321 2.57071 15.5971 5.79014 11.3655C9.00956 7.13388 13.3575 3.87298 18.3463 1.94854C23.3351 0.0241061 28.7674 -0.487748 34.0339 0.470392C39.3005 1.42853 44.1929 3.81877 48.1625 7.373C52.1321 10.9272 55.0218 15.5049 56.5075 20.5925C56.5388 20.8346 56.4816 21.0798 56.3464 21.284C56.2113 21.4881 56.0069 21.638 55.77 21.7065C55.5331 21.775 55.2793 21.7577 55.0542 21.6578C54.829 21.5578 54.6473 21.3817 54.5417 21.1612C52.7504 15.0263 48.7756 9.73924 43.351 6.27567C37.9263 2.81211 31.4179 1.40582 25.0268 2.31633C18.6357 3.22685 12.7933 6.39272 8.5779 11.2297C4.36245 16.0666 2.05845 22.2482 2.09109 28.6336C2.12373 35.019 4.49082 41.1772 8.75551 45.9718C13.0202 50.7664 18.8946 53.8737 25.2947 54.7202C31.6948 55.5668 38.1885 54.0955 43.5775 50.5779C48.9664 47.0602 52.8869 41.7337 54.6154 35.5813C54.7014 35.3347 54.8791 35.1298 55.1125 35.0082C55.3458 34.8867 55.6173 34.8577 55.8715 34.927C56.1257 34.9964 56.3437 35.1589 56.481 35.3816C56.6184 35.6043 56.6648 35.8703 56.6107 36.1256C54.912 42.1269 51.2761 47.4147 46.2569 51.1832C41.2377 54.9516 35.1105 56.9943 28.8086 57Z" fill="#8E9190"/>
<path d="M20.0605 19.8442H20.1392C20.9212 19.8442 21.6713 20.1514 22.2243 20.6983C22.7773 21.2451 23.088 21.9869 23.088 22.7603H23.1469C23.811 21.8203 24.6994 21.057 25.7333 20.5381C26.7673 20.0192 27.9148 19.7608 29.074 19.7858C34.7259 19.7858 37.7041 24.2766 37.7041 28.6799C37.7041 32.8451 34.544 37.1269 29.2853 37.1269C25.7959 37.1269 24.0512 35.3724 23.4222 34.3323H23.3534V42.8716C22.4814 42.8716 21.6451 42.529 21.0285 41.9193C20.4119 41.3095 20.0655 40.4825 20.0655 39.6202V19.8442H20.0605ZM28.8529 22.5902C25.5748 22.5902 23.2895 25.3847 23.2895 28.4223C23.2895 31.7516 25.7861 34.2837 28.9413 34.2837C29.6992 34.2783 30.4483 34.1227 31.1444 33.8262C31.8405 33.5297 32.4694 33.0982 32.994 32.5572C33.5186 32.0162 33.9282 31.3768 34.1986 30.6766C34.4691 29.9764 34.5949 29.2297 34.5686 28.4807C34.5686 25.5354 32.2538 22.5902 28.8529 22.5902V22.5902Z" fill="#8E9190"/>
<path d="M43.9801 36.6894H40.8544V14.6826H43.9801V36.6894Z" fill="#8E9190"/>
<path d="M61.6975 36.6897V34.1332H61.6385C60.4344 36.1551 58.2425 37.1076 55.9866 37.1076C50.3643 37.1076 47.1403 32.855 47.1403 28.51C47.1403 24.4955 49.9957 19.7617 55.9866 19.7617C58.3014 19.7617 60.4393 20.7338 61.6385 22.5272H61.6975V20.2137H64.8232V36.6897H61.6975V36.6897ZM55.9817 22.5952C52.1335 22.5952 50.266 25.8952 50.266 28.4857C50.266 31.4601 52.6398 34.2839 55.9522 34.2839C56.7193 34.282 57.4784 34.1301 58.1859 33.8371C58.8934 33.544 59.5353 33.1155 60.0748 32.5761C60.6142 32.0368 61.0405 31.3974 61.3291 30.6945C61.6177 29.9917 61.7629 29.2394 61.7564 28.4809C61.7564 24.9718 59.2008 22.5903 55.9817 22.5903V22.5952Z" fill="#8E9190"/>
<path d="M80.4911 36.6895V27.7371C80.4911 26.4588 80.4911 22.5902 76.3431 22.5902C73.7285 22.5902 71.9543 24.403 71.9543 27.7079V36.6895H68.8286V20.2135H71.743V21.9681H71.802C72.379 21.2491 73.1196 20.675 73.9633 20.2924C74.807 19.9098 75.7302 19.7296 76.6576 19.7664C79.2428 19.7664 81.3511 20.8648 82.5552 22.7117C83.2919 23.9971 83.6558 25.4585 83.607 26.9351V36.6895H80.4911Z" fill="#8E9190"/>
<path d="M110.687 36.6894C109.858 36.6894 109.063 36.3638 108.477 35.7841C107.89 35.2044 107.561 34.4182 107.561 33.5984V23.0372H105.305V20.2135H107.561V14.6826C108.39 14.6826 109.185 15.0083 109.771 15.588C110.357 16.1677 110.687 16.9539 110.687 17.7737V20.2038H113.424V23.0372H110.687V36.6894Z" fill="#8E9190"/>
<path d="M103.796 28.2134C103.768 25.9808 102.845 23.8507 101.228 22.2917C99.6122 20.7326 97.436 19.8724 95.1784 19.9001C92.9208 19.9278 90.7669 20.8412 89.1903 22.4395C87.6138 24.0377 86.7439 26.1898 86.7719 28.4224C86.7719 28.7042 86.785 28.9829 86.8112 29.2583C87.073 31.4324 88.1381 33.4341 89.802 34.8785C91.4658 36.3229 93.6108 37.1081 95.8247 37.0832C97.2175 37.0912 98.5941 36.7866 99.8506 36.1923C101.107 35.5979 102.211 34.7293 103.079 33.6519L100.621 32.223C100.013 32.8873 99.2694 33.4166 98.4392 33.776C97.609 34.1354 96.7112 34.3167 95.805 34.308C93.2592 34.308 90.5267 32.7771 89.9074 29.7929H103.688C103.737 29.5839 103.796 28.748 103.796 28.2134ZM89.9271 27.4114C90.049 26.0826 90.669 24.8469 91.6652 23.9471C92.6614 23.0473 93.9619 22.5484 95.3111 22.5484C96.6603 22.5484 97.9608 23.0473 98.957 23.9471C99.9532 24.8469 100.573 26.0826 100.695 27.4114H89.9271Z" fill="#8E9190"/>
<path d="M118 35.0707C118.007 35.4008 117.914 35.7254 117.733 36.0032C117.553 36.281 117.293 36.4993 116.986 36.6303C116.68 36.7614 116.341 36.7992 116.013 36.739C115.684 36.6787 115.382 36.5231 115.143 36.2921C114.905 36.0611 114.741 35.765 114.673 35.4417C114.606 35.1183 114.637 34.7824 114.763 34.4767C114.889 34.171 115.104 33.9094 115.382 33.7252C115.659 33.541 115.985 33.4426 116.319 33.4425C116.537 33.4399 116.754 33.48 116.957 33.5605C117.16 33.641 117.345 33.7603 117.501 33.9116C117.657 34.0628 117.782 34.2431 117.867 34.442C117.953 34.6409 117.998 34.8545 118 35.0707" fill="#8E9190"/>
</svg>
