<svg width="141" height="39" viewBox="0 0 141 39" fill="none" xmlns="http://www.w3.org/2000/svg">
<mask id="mask0" mask-type="alpha" maskUnits="userSpaceOnUse" x="0" y="0" width="39" height="39">
<path d="M13.4609 0H25.1486C29.0247 0 30.9623 0 33.0488 0.66625C35.3268 1.50377 37.1208 3.31597 37.95 5.61697C38.6095 7.72427 38.6095 9.68207 38.6095 13.597V25.403C38.6095 29.3182 38.6095 31.2754 37.95 33.383C37.1208 35.684 35.3268 37.4962 33.0488 38.3334C30.9623 39 29.0247 39 25.1486 39H13.4609C9.58482 39 7.64694 39 5.56074 38.3334C3.28278 37.4962 1.48872 35.684 0.65958 33.383C0 31.2754 0 29.3182 0 25.403V13.597C0 9.68207 0 7.72427 0.65958 5.61697C1.48872 3.31597 3.28278 1.50377 5.56074 0.66625C7.64694 0 9.58482 0 13.4609 0Z" fill="#8E9190"/>
</mask>
<g mask="url(#mask0)">
<path d="M13.4609 0H25.1486C29.0247 0 30.9623 0 33.0488 0.66625C35.3268 1.50377 37.1208 3.31597 37.95 5.61697C38.6095 7.72427 38.6095 9.68207 38.6095 13.597V25.403C38.6095 29.3182 38.6095 31.2754 37.95 33.383C37.1208 35.684 35.3268 37.4962 33.0488 38.3334C30.9623 39 29.0247 39 25.1486 39H13.4609C9.58482 39 7.64694 39 5.56074 38.3334C3.28278 37.4962 1.48872 35.684 0.65958 33.383C0 31.2754 0 29.3182 0 25.403V13.597C0 9.68207 0 7.72427 0.65958 5.61697C1.48872 3.31597 3.28278 1.50377 5.56074 0.66625C7.64694 0 9.58482 0 13.4609 0Z" fill="#8E9190"/>
<path d="M38.6095 0H19.3047V39H38.6095V0Z" fill="#8E9190"/>
<path d="M19.3048 0H0V39H19.3048V0Z" fill="#8E9190"/>
<path d="M19.3047 31.5307C25.8827 31.5307 31.2152 26.1443 31.2152 19.4997C31.2152 12.8552 25.8827 7.46875 19.3047 7.46875C12.7267 7.46875 7.39417 12.8552 7.39417 19.4997C7.39417 26.1443 12.7267 31.5307 19.3047 31.5307Z" fill="white"/>
<path d="M19.3047 28.7714C24.3736 28.7714 28.4828 24.6206 28.4828 19.5004C28.4828 14.3802 24.3736 10.2295 19.3047 10.2295C14.2358 10.2295 10.1266 14.3802 10.1266 19.5004C10.1266 24.6206 14.2358 28.7714 19.3047 28.7714Z" fill="#8E9190"/>
<path d="M38.6095 0H34.4243V7.78986H38.6095V0Z" fill="#8E9190"/>
<path d="M38.6095 7.79102H34.4243V15.5809H38.6095V7.79102Z" fill="#8E9190"/>
<path d="M38.6095 15.5791H34.4243V23.369H38.6095V15.5791Z" fill="#8E9190"/>
<path d="M38.6095 23.3701H34.4243V31.16H38.6095V23.3701Z" fill="#8E9190"/>
<path d="M38.6095 31.1602H34.4243V38.95H38.6095V31.1602Z" fill="#8E9190"/>
<path d="M18.4582 21.7073C18.647 21.9187 18.976 21.9166 19.1621 21.7028L23.6554 16.5404C23.8273 16.343 23.8082 16.0422 23.6127 15.8685C23.4172 15.6949 23.1194 15.7143 22.9475 15.9117L18.4542 21.0741L19.1581 21.0695L16.9624 18.6109C16.788 18.4157 16.49 18.4002 16.2967 18.5763C16.1035 18.7524 16.0881 19.0535 16.2625 19.2487L18.4582 21.7073Z" fill="white"/>
</g>
<path fill-rule="evenodd" clip-rule="evenodd" d="M59.1784 16.923C57.2723 16.0877 57.1452 16.0235 56.7322 15.7665C56.065 15.3488 55.112 14.6742 55.112 13.2285C55.112 11.3331 56.764 10.0802 59.4008 10.0802C61.7835 10.0802 63.2766 10.8512 64.6427 11.558L64.8969 11.4295C64.9922 10.273 65.024 9.82323 65.151 8.60245L64.9922 8.34545C63.3084 7.79931 61.7835 7.31743 59.2737 7.31743C56.7004 7.31743 54.0636 8.02419 52.6022 10.1445C51.935 11.1083 51.6173 12.329 51.6173 13.5177C51.6173 17.437 54.6354 18.8184 56.891 19.8786L58.4795 20.5853C60.5445 21.3885 62.3871 22.2559 62.3871 24.5046C62.3871 26.4322 61.021 28.1348 57.7488 28.1348C54.7943 28.1348 52.9516 26.7856 52.1574 26.2394L51.8397 26.3679C51.7444 27.5887 51.7126 28.1991 51.5856 29.3235L51.7126 29.5484C52.4751 29.9339 54.6354 30.9619 58.003 30.9619C63.5308 30.9619 66.1676 27.7172 66.1676 24.1191C66.1676 20.0071 63.086 18.6578 60.7669 17.6298L59.1784 16.923ZM75.4919 27.7493C75.1425 27.8778 74.6341 28.0385 73.967 28.0385C72.3785 28.0385 72.0926 27.2996 72.0926 24.9544C72.0926 24.5046 72.0926 22.6735 72.0608 22.288L72.1244 16.3126C73.8081 16.3126 73.9988 16.3447 75.5872 16.3769L75.7461 16.1841C75.7461 15.0918 75.7778 14.7385 75.8414 13.9032L75.6825 13.7104C73.8717 13.7747 73.4905 13.7747 72.1561 13.8068C72.1561 11.4616 72.1879 11.044 72.2832 8.92371L72.0608 8.76308C70.5995 9.21284 70.25 9.30922 68.8204 9.6626L68.6615 9.88748C68.6933 10.4979 68.7251 11.1083 68.7568 11.7186C68.7568 12.3933 68.7568 13.1 68.7886 13.7747C67.7402 13.8068 67.3272 13.7747 66.6283 13.7747L66.4377 13.9674C66.4377 14.9955 66.4377 15.2525 66.3741 16.2805L66.5012 16.4732C67.6449 16.4411 67.6767 16.409 68.7886 16.409L68.7251 23.4766C68.7251 27.2675 68.7251 28.0385 69.2969 28.9701C70.2818 30.6406 72.2832 30.6406 73.0457 30.6406C74.2211 30.6406 74.7612 30.5121 75.4284 30.3515L75.5872 30.1588C75.619 29.2271 75.619 29.0022 75.7143 27.9421L75.4919 27.7493ZM91.6466 13.6462C90.1852 13.7426 89.8357 13.7426 88.3743 13.7747L88.1837 13.9996C88.3743 16.0877 88.4061 16.9872 88.4061 21.4527C88.4061 23.316 88.4061 24.7938 88.3743 26.5286C87.6119 27.139 86.2776 28.1991 84.4032 28.1991C81.1945 28.1991 81.131 25.3078 81.0992 23.9585C81.0674 22.4165 81.0992 21.774 81.0992 20.9066L81.2263 13.8711L81.0356 13.6462C79.5425 13.7747 79.2566 13.7747 77.7634 13.8068L77.6046 14.0317C77.6999 15.7665 77.6999 16.2805 77.7634 20.8744V22.8662C77.7952 25.372 77.7952 28.1027 79.8284 29.7733C80.845 30.5764 82.2111 30.8655 83.4501 30.8655C86.0552 30.8655 87.7389 29.5484 88.4379 29.0344L88.4061 30.3836L88.5967 30.5764C90.0581 30.5121 90.3123 30.48 91.8372 30.4479L91.9643 30.2551C91.9325 29.8054 91.9007 29.3556 91.9007 28.9059C91.8372 27.5245 91.7419 25.1472 91.7419 21.1957C91.7419 18.5935 91.7736 16.3126 91.8372 13.8711L91.6466 13.6462ZM105.053 5.71114C105.212 7.57443 105.371 9.50197 105.339 13.4855C104.481 13.4213 104.164 13.4213 103.496 13.4213C101.844 13.4213 98.8264 13.5177 96.5073 15.638C95.173 16.8266 93.7116 19.0433 93.7116 22.545C93.7116 27.4281 96.6343 30.8013 100.86 30.8013C103.179 30.8013 104.481 29.7733 105.244 29.195L105.18 30.3836L105.403 30.5764C106.864 30.5121 107.245 30.48 108.643 30.48L108.802 30.2551C108.675 28.0385 108.548 25.6612 108.548 20.6817C108.548 17.4691 108.58 9.50197 108.802 5.0365L108.58 4.84375C107.15 5.16501 106.832 5.22926 105.212 5.51839L105.053 5.71114ZM105.212 26.5286C104.767 26.9141 103.592 27.9421 101.654 27.9421C100.002 27.9421 98.9535 27.1711 98.3816 26.4964C97.7145 25.6933 97.2062 24.3761 97.2062 22.545C97.2062 19.6858 98.3499 18.1759 99.0488 17.5013C100.574 16.0556 102.67 15.9914 103.655 15.9914C104.322 15.9914 104.704 16.0556 105.244 16.0877C105.276 21.3563 105.276 22.3201 105.212 26.5286ZM125.227 13.6783C123.797 13.7104 122.939 13.7104 122.145 13.7104L121.923 13.9032C121.414 15.7343 120.62 18.3686 119.953 20.5853L118.142 26.2394L116.141 20.1034C115.442 18.0153 115.029 16.666 114.171 13.7747L113.98 13.5819C112.36 13.7747 112.042 13.7747 110.454 13.9032L110.327 14.1923C111.693 17.4691 116.427 30.4158 116.427 30.8013C116.395 30.8977 116.363 30.994 116.331 31.0583C115.982 32.1827 115.442 33.2107 114.997 34.2708C114.457 35.5237 113.98 36.7766 113.408 37.9653L113.281 38.1902L113.408 38.4151C114.902 38.3508 115.188 38.3508 116.776 38.3187L117.062 38.0617C117.729 35.074 118.682 32.1506 119.667 29.2271C120.461 26.9783 123.511 18.4972 125.322 13.9674L125.227 13.6783ZM141 21.8703C140.937 19.6215 140.524 17.3728 139.062 15.6701C137.664 14.0638 135.536 13.357 133.375 13.357C130.199 13.357 128.356 14.6742 127.466 15.6058C125.338 17.7583 125.274 20.9066 125.274 22.1273C125.274 23.1875 125.306 26.4643 127.466 28.681C128.483 29.7411 130.294 30.8334 133.153 30.8334C135.377 30.8334 137.251 30.2873 138.649 28.8737C139.698 27.8136 140.365 26.5607 140.714 24.9865C140.937 24.0228 141 22.9626 141 21.8703ZM137.537 21.9988C137.569 22.6735 137.537 24.8259 136.807 26.2716C135.885 28.0385 134.36 28.424 133.185 28.424C132.549 28.424 131.882 28.2955 131.31 28.0063C128.801 26.7213 128.769 23.4766 128.769 22.1916C128.769 20.8423 128.864 18.979 129.722 17.6619C130.834 15.8628 132.613 15.7986 133.217 15.7986C134.996 15.7986 136.012 16.6339 136.616 17.6298C137.41 19.0433 137.537 21.1957 137.537 21.9988Z" fill="#8E9190"/>
</svg>
