<svg width="48" height="49" viewBox="0 0 48 49" fill="none" xmlns="http://www.w3.org/2000/svg">
<path d="M36.6 31.9493L40.32 35.6693C38.016 39.7253 32.328 42.9653 27 43.7573V22.3493H34.2V17.5493H27V14.7173C29.784 13.7093 31.8 11.0693 31.8 7.94927C31.8 3.98927 28.56 0.749268 24.6 0.749268C20.64 0.749268 17.4 3.98927 17.4 7.94927C17.4 11.0693 19.416 13.7093 22.2 14.7173V17.5493H15V22.3493H22.2V43.7573C16.872 42.9653 11.184 39.7253 8.88 35.6693L12.6 31.9493L3 24.7493V31.9493C3 41.2613 14.808 48.7493 24.6 48.7493C34.392 48.7493 46.2 41.2613 46.2 31.9493V24.7493L36.6 31.9493ZM24.6 5.54927C25.92 5.54927 27 6.62927 27 7.94927C27 9.26927 25.92 10.3493 24.6 10.3493C23.28 10.3493 22.2 9.26927 22.2 7.94927C22.2 6.62927 23.28 5.54927 24.6 5.54927Z" fill="#001443"/>
</svg>
