<svg width="48" height="49" viewBox="0 0 48 49" fill="none" xmlns="http://www.w3.org/2000/svg">
<path d="M6.85843 32.7483H0V48.7485H15.9995V41.8907H6.85843V32.7483Z" fill="#416BA9"/>
<path d="M41.1422 32.7998V41.8907H32.0506L32.0005 41.8407V48.7485H48V32.7483H41.0915L41.1422 32.7998Z" fill="#416BA9"/>
<path d="M0 16.7509H6.90992L6.85843 16.6987V7.60843V7.60702H15.9494L15.9995 7.65781V0.75H0V16.7509Z" fill="#416BA9"/>
<path d="M32 0.75V7.60702H41.1418V16.7509H47.9995V0.75H32Z" fill="#416BA9"/>
<path d="M31.1532 16.7509L22.0094 7.60702H31.9997V0.75H15.9995V7.65781L25.0926 16.7509H31.1532Z" fill="#74C3D5"/>
<path d="M22.9073 32.7483H16.8474L24.4232 40.3248L25.9905 41.8907H22.8579H15.9995V48.7485H31.9997V41.8407L27.4535 37.2938L22.9073 32.7483Z" fill="#74C3D5"/>
<path d="M41.1422 16.7507V23.607V26.7389L39.5756 25.1723L32.0005 17.5972V23.6578L36.5453 28.2026L41.0915 32.7481H48V16.7507H41.1422Z" fill="#74C3D5"/>
<path d="M15.9995 25.8396L6.90992 16.7507H0V32.7481H6.85843V22.7585L15.9995 31.9002V25.8396Z" fill="#74C3D5"/>
</svg>
