<svg width="48" height="42" viewBox="0 0 48 42" fill="none" xmlns="http://www.w3.org/2000/svg">
<path fill-rule="evenodd" clip-rule="evenodd" d="M4.5 5.25073C4.5 5.05182 4.57902 4.86105 4.71967 4.7204C4.86032 4.57975 5.05109 4.50073 5.25 4.50073H30.75C30.9489 4.50073 31.1397 4.57975 31.2803 4.7204C31.421 4.86105 31.5 5.05182 31.5 5.25073V21.7507C31.5 21.9496 31.421 22.1404 31.2803 22.2811C31.1397 22.4217 30.9489 22.5007 30.75 22.5007H20.25C19.6535 22.5013 19.0816 22.7387 18.66 23.1607L10.5 31.3207V24.7507C10.5 24.154 10.2629 23.5817 9.84099 23.1597C9.41903 22.7378 8.84674 22.5007 8.25 22.5007H5.25C5.05109 22.5007 4.86032 22.4217 4.71967 22.2811C4.57902 22.1404 4.5 21.9496 4.5 21.7507V5.25073ZM5.25 0.000732422C3.85761 0.000732422 2.52226 0.553856 1.53769 1.53842C0.553123 2.52299 0 3.85835 0 5.25073L0 21.7507C0 24.6487 2.352 27.0007 5.25 27.0007H6V31.6297C6.0003 32.494 6.25682 33.3388 6.73713 34.0573C7.21744 34.7759 7.89999 35.3359 8.6985 35.6666C9.497 35.9973 10.3756 36.0838 11.2233 35.9153C12.071 35.7468 12.8497 35.3307 13.461 34.7197L21.183 27.0007H30.75C32.1424 27.0007 33.4777 26.4476 34.4623 25.463C35.4469 24.4785 36 23.1431 36 21.7507V5.25073C36 3.85835 35.4469 2.52299 34.4623 1.53842C33.4777 0.553856 32.1424 0.000732422 30.75 0.000732422H5.25ZM43.5 11.2507C43.5 11.0518 43.421 10.8611 43.2803 10.7204C43.1397 10.5797 42.9489 10.5007 42.75 10.5007H41.25C40.6533 10.5007 40.081 10.2637 39.659 9.84172C39.2371 9.41977 39 8.84747 39 8.25073C39 7.654 39.2371 7.0817 39.659 6.65974C40.081 6.23778 40.6533 6.00073 41.25 6.00073H42.75C45.648 6.00073 48 8.35273 48 11.2507V27.7507C48 29.1431 47.4469 30.4785 46.4623 31.463C45.4777 32.4476 44.1424 33.0007 42.75 33.0007H42V37.6297C41.9997 38.494 41.7432 39.3388 41.2629 40.0573C40.7826 40.7759 40.1 41.3359 39.3015 41.6666C38.503 41.9973 37.6244 42.0838 36.7767 41.9153C35.929 41.7468 35.1503 41.3307 34.539 40.7197L27.66 33.8407C27.4389 33.6347 27.2616 33.3863 27.1387 33.1103C27.0157 32.8344 26.9496 32.5364 26.9442 32.2343C26.9389 31.9322 26.9945 31.6321 27.1076 31.3519C27.2208 31.0718 27.3892 30.8173 27.6029 30.6036C27.8165 30.39 28.071 30.2215 28.3512 30.1084C28.6314 29.9952 28.9315 29.9396 29.2336 29.945C29.5357 29.9503 29.8336 30.0164 30.1096 30.1394C30.3856 30.2624 30.634 30.4397 30.84 30.6607L37.5 37.3207V30.7507C37.5 30.154 37.7371 29.5817 38.159 29.1597C38.581 28.7378 39.1533 28.5007 39.75 28.5007H42.75C42.9489 28.5007 43.1397 28.4217 43.2803 28.2811C43.421 28.1404 43.5 27.9496 43.5 27.7507V11.2507Z" fill="#063359"/>
</svg>
