<svg width="48" height="49" viewBox="0 0 48 49" fill="none" xmlns="http://www.w3.org/2000/svg">
<path d="M10.0847 30.6221C10.0847 33.3973 7.81759 35.6644 5.04235 35.6644C2.2671 35.6644 0 33.3973 0 30.6221C0 27.8468 2.2671 25.5797 5.04235 25.5797H10.0847V30.6221Z" fill="#063359"/>
<path d="M12.6254 30.622C12.6254 27.8467 14.8925 25.5797 17.6677 25.5797C20.443 25.5797 22.7101 27.8467 22.7101 30.622V43.2474C22.7101 46.0226 20.443 48.2897 17.6677 48.2897C14.8925 48.2897 12.6254 46.0226 12.6254 43.2474V30.622Z" fill="#063359"/>
<path d="M17.6677 10.3745C14.8925 10.3745 12.6254 8.10742 12.6254 5.33217C12.6254 2.55693 14.8925 0.289825 17.6677 0.289825C20.443 0.289825 22.7101 2.55693 22.7101 5.33217V10.3745H17.6677Z" fill="#063359"/>
<path d="M17.6678 12.9153C20.443 12.9153 22.7101 15.1824 22.7101 17.9576C22.7101 20.7328 20.443 22.9999 17.6678 22.9999H5.04235C2.2671 22.9999 0 20.7328 0 17.9576C0 15.1824 2.2671 12.9153 5.04235 12.9153H17.6678Z" fill="#063359"/>
<path d="M37.9153 17.9576C37.9153 15.1823 40.1824 12.9152 42.9576 12.9152C45.7329 12.9152 48 15.1823 48 17.9576C48 20.7328 45.7329 22.9999 42.9576 22.9999H37.9153V17.9576Z" fill="#063359"/>
<path d="M35.3747 17.9576C35.3747 20.7328 33.1076 22.9999 30.3324 22.9999C27.5571 22.9999 25.29 20.7328 25.29 17.9576V5.33217C25.29 2.55693 27.5571 0.289825 30.3324 0.289825C33.1076 0.289825 35.3747 2.55693 35.3747 5.33217V17.9576Z" fill="#063359"/>
<path d="M30.3323 38.2051C33.1075 38.2051 35.3746 40.4722 35.3746 43.2474C35.3746 46.0227 33.1075 48.2898 30.3323 48.2898C27.557 48.2898 25.2899 46.0227 25.2899 43.2474V38.2051H30.3323Z" fill="#063359"/>
<path d="M30.3331 35.6644C27.5579 35.6644 25.2908 33.3973 25.2908 30.6221C25.2908 27.8468 27.5579 25.5797 30.3331 25.5797H42.9585C45.7338 25.5797 48.0009 27.8468 48.0009 30.6221C48.0009 33.3973 45.7338 35.6644 42.9585 35.6644H30.3331Z" fill="#063359"/>
</svg>
