<svg width="40" height="49" viewBox="0 0 40 49" fill="none" xmlns="http://www.w3.org/2000/svg">
<path d="M18.2351 5.6977C18.2351 5.40341 18.2351 5.14751 18.2351 4.89161C18.2351 4.12391 18.2223 3.35621 18.2351 2.58851C18.2478 1.66726 18.8364 0.989128 19.7321 0.784408C20.5126 0.618073 21.3314 1.0531 21.6897 1.85919C21.7921 2.0895 21.8305 2.3454 21.8305 2.6013C21.8432 3.40739 21.8433 4.21347 21.8433 5.03236C21.8433 5.23708 21.8433 5.45459 21.8433 5.72329C26.5774 6.23509 30.5567 8.23111 33.8962 11.609C34.5487 11.11 35.1885 10.6366 35.8282 10.1504C36.0969 9.94564 36.3784 9.75372 36.6343 9.5362C37.0309 9.19074 37.5044 9.01161 38.0289 8.93484C38.6175 9.04999 39.1293 9.26751 39.5004 9.81769C40.1529 10.7773 39.6923 11.7369 39.1037 12.2104C38.1953 12.9397 37.2485 13.6306 36.3144 14.3343C36.2632 14.3727 36.2249 14.4239 36.1481 14.4879C40.2169 21.4612 40.1273 28.4217 35.9434 35.3949C36.3784 35.7532 36.8006 36.1243 37.2485 36.4825C37.837 36.9687 38.4512 37.4294 39.027 37.9284C39.2445 38.1203 39.4492 38.3506 39.5899 38.6065C40.0634 39.451 39.7307 40.5002 38.8734 40.948C38.0929 41.3574 37.3252 41.2423 36.5831 40.6153C35.6107 39.7964 34.6127 39.0031 33.6147 38.1843C31.9769 39.7325 30.2112 41.0376 28.1896 41.9972C26.1808 42.9568 24.0568 43.4942 21.8177 43.7885C21.8177 44.2235 21.8177 44.6074 21.8177 44.9912C21.8177 45.631 21.8305 46.2707 21.8177 46.9105C21.8049 47.8445 21.1651 48.5738 20.2567 48.7274C19.4378 48.8681 18.5677 48.3179 18.2862 47.4479C18.2223 47.2559 18.2095 47.0256 18.2095 46.8209C18.1967 45.8869 18.2095 44.9528 18.1967 44.0188C18.1967 43.9804 18.1839 43.9292 18.1711 43.8269C18.0047 43.7757 17.8128 43.6989 17.6081 43.6861C16.2262 43.5326 14.8956 43.1999 13.5905 42.7393C11.7096 42.0739 9.99506 41.1143 8.42127 39.8988C7.64077 39.2846 6.89866 38.6065 6.10537 37.9284C5.504 38.389 4.87705 38.8496 4.26289 39.323C3.99419 39.5277 3.7255 39.7453 3.4696 39.9628C3.06015 40.2954 2.59953 40.4746 2.07494 40.5769C1.95978 40.5513 1.83183 40.5257 1.70388 40.5002C0.872205 40.3594 0.437174 39.7836 0.258044 39.0543C0.0789134 38.325 0.411586 37.7236 0.987362 37.263C1.93419 36.5081 2.90662 35.7788 3.87904 35.0367C-0.18978 28.0506 -0.0874221 21.0901 4.09655 14.1296C3.59754 13.7202 3.11133 13.3235 2.62512 12.9269C2.03655 12.4407 1.4096 11.9928 0.859411 11.4683C0.32202 10.9565 0.0533241 10.3295 0.334815 9.56179C0.641895 8.74291 1.19208 8.39745 2.02376 8.32068C2.58674 8.2695 3.07295 8.57658 3.50798 8.94763C4.46761 9.75372 5.44003 10.5342 6.42525 11.3403C8.03742 9.75372 9.84152 8.49981 11.8375 7.51459C13.8592 6.51658 16.0087 6.05596 18.2351 5.6977ZM30.9661 31.3517C33.5507 27.5516 33.3332 21.5123 31.0429 18.3776C29.789 19.3372 28.4839 20.2328 27.2683 21.282C28.3175 23.6491 28.3047 25.9778 27.2172 28.3193C28.4583 29.3301 29.6994 30.3281 30.9661 31.3517ZM9.125 18.1856C6.46363 21.9474 6.80909 28.3065 9.07381 31.147C10.2893 30.1618 11.5816 29.2789 12.81 28.2553C11.748 25.8754 11.7736 23.534 12.8611 21.1925C11.5944 20.1689 10.3661 19.1709 9.125 18.1856ZM18.2095 32.58C17.0707 32.2985 16.0599 31.7867 15.1131 31.0958C13.808 32.0938 12.5285 33.0662 11.249 34.0387C13.1682 35.9195 16.7252 37.5829 18.2095 37.3142C18.2095 35.7532 18.2095 34.1794 18.2095 32.58ZM28.8165 15.5115C27.4347 13.7586 23.2891 11.9801 21.8816 12.1976C21.8816 13.7586 21.8816 15.3196 21.8816 16.9317C22.9948 17.226 24.0184 17.725 24.9269 18.4032C25.042 18.3392 25.1188 18.3008 25.1828 18.2496C26.3855 17.354 27.5882 16.4455 28.8165 15.5115ZM21.8816 37.3654C23.7241 37.4549 27.9721 35.3566 28.5862 34.1154C27.3579 33.1302 26.1296 32.1322 24.9141 31.1342C23.9416 31.7867 22.9692 32.3113 21.8816 32.5672C21.8816 34.1922 21.8816 35.7532 21.8816 37.3654ZM11.3897 15.3323C12.7076 16.3943 13.9487 17.3923 15.177 18.3776C16.1239 17.7122 17.1091 17.2132 18.2351 16.9445C18.2223 15.3323 18.2478 13.7458 18.2223 12.0824C15.5993 12.4791 13.3857 13.5283 11.3897 15.3323ZM22.611 24.7495C22.8157 23.5595 21.5874 22.1009 20.1287 22.1521C18.4526 22.2033 17.5185 23.1245 17.4162 24.8391C17.3394 26.1186 18.5677 27.3213 19.8216 27.3341C21.5746 27.3469 22.5854 26.4128 22.611 24.7495Z" fill="#001443"/>
</svg>
