<?xml version="1.0" encoding="utf-8"?>
<!-- Generator: Adobe Illustrator 27.7.0, SVG Export Plug-In . SVG Version: 6.00 Build 0)  -->
<svg version="1.1" id="Capa_1" xmlns="http://www.w3.org/2000/svg" xmlns:xlink="http://www.w3.org/1999/xlink" x="0px" y="0px"
	 viewBox="0 0 512 512" style="enable-background:new 0 0 512 512;" xml:space="preserve">
<style type="text/css">
	.st0{fill:#063359;}
	.st1{fill:#0085FD;}
</style>
<g>
	<g>

			<rect x="137.7" y="276" transform="matrix(0.6296 -0.7769 0.7769 0.6296 -242.9095 257.6341)" class="st0" width="22" height="215.1"/>

			<rect x="180.9" y="311.6" transform="matrix(0.325 -0.9457 0.9457 0.325 -97.9768 507.9235)" class="st0" width="251.8" height="22"/>

			<rect x="403.1" y="188.4" transform="matrix(0.8373 -0.5467 0.5467 0.8373 -75.378 268.8502)" class="st0" width="22" height="145.4"/>

			<rect x="188.6" y="-32.9" transform="matrix(0.3882 -0.9216 0.9216 0.3882 22.5002 250.0584)" class="st0" width="22" height="282.1"/>

			<rect x="270.1" y="398" transform="matrix(0.8675 -0.4975 0.4975 0.8675 -155.3234 234.9246)" class="st0" width="186.3" height="22"/>
		<path class="st0" d="M164.5,267c6.1,0,11-4.9,11-11v-19.5H195c6.1,0,11-4.9,11-11s-4.9-11-11-11h-19.5V195c0-6.1-4.9-11-11-11
			s-11,4.9-11,11v19.5H134c-6.1,0-11,4.9-11,11s4.9,11,11,11h19.5V256C153.5,262.1,158.4,267,164.5,267z"/>
		<path class="st0" d="M479.7,51.8h-19.5V32.3c0-6.1-4.9-11-11-11s-11,4.9-11,11v19.5h-19.5c-6.1,0-11,4.9-11,11s4.9,11,11,11h19.5
			v19.5c0,6.1,4.9,11,11,11s11-4.9,11-11V73.8h19.5c6.1,0,11-4.9,11-11S485.7,51.8,479.7,51.8z"/>
		<path class="st0" d="M83.2,424.6c-5.3-13.2-26-4.7-20.3,8.4C68.1,446.3,88.8,437.7,83.2,424.6z"/>
		<path class="st0" d="M459.3,466.5c-5.2-13.3-26-4.7-20.3,8.4C444.2,488.1,465,479.5,459.3,466.5z"/>
		<path class="st0" d="M215.4,41.6c5.2,13.3,26,4.7,20.3-8.4C230.4,20,209.7,28.6,215.4,41.6z"/>
	</g>
	<g>
		<g>
			<path class="st1" d="M256,512c-22.9,0-41.5-18.6-41.5-41.5S233.1,429,256,429s41.5,18.6,41.5,41.5S278.9,512,256,512z M256,451
				c-10.8,0-19.5,8.7-19.5,19.5c0,10.8,8.7,19.5,19.5,19.5c10.8,0,19.5-8.7,19.5-19.5S266.8,451,256,451z"/>
		</g>
		<g>
			<path class="st1" d="M41.5,338.2C18.6,338.2,0,319.5,0,296.7s18.6-41.5,41.5-41.5S83,273.8,83,296.7S64.4,338.2,41.5,338.2z
				 M41.5,277.2c-10.8,0-19.5,8.7-19.5,19.5c0,10.8,8.7,19.5,19.5,19.5S61,307.4,61,296.7C61,285.9,52.2,277.2,41.5,277.2z"/>
		</g>
		<g>
			<path class="st1" d="M470.5,389c-22.9,0-41.5-18.6-41.5-41.5s18.6-41.5,41.5-41.5s41.5,18.6,41.5,41.5S493.4,389,470.5,389z
				 M470.5,328c-10.8,0-19.5,8.7-19.5,19.5c0,10.8,8.7,19.5,19.5,19.5c10.8,0,19.5-8.7,19.5-19.5S481.3,328,470.5,328z"/>
		</g>
		<g>
			<path class="st1" d="M357.7,216.2c-22.9,0-41.5-18.6-41.5-41.5s18.6-41.5,41.5-41.5s41.5,18.6,41.5,41.5
				C399.2,197.6,380.5,216.2,357.7,216.2z M357.7,155.2c-10.8,0-19.5,8.7-19.5,19.5s8.7,19.5,19.5,19.5c10.8,0,19.5-8.7,19.5-19.5
				C377.2,163.9,368.4,155.2,357.7,155.2z"/>
		</g>
		<g>
			<path class="st1" d="M41.5,83C18.6,83,0,64.4,0,41.5S18.6,0,41.5,0S83,18.6,83,41.5S64.4,83,41.5,83z M41.5,22
				C30.7,22,22,30.7,22,41.5S30.7,61,41.5,61S61,52.2,61,41.5C61,30.7,52.2,22,41.5,22z"/>
		</g>
	</g>
</g>
</svg>
