<svg width="263" height="165" viewBox="0 0 263 165" fill="none" xmlns="http://www.w3.org/2000/svg">
<path d="M191.438 78.3819V78.3142C191.438 72.6245 187.407 68.6958 180.769 68.6958H172.472C170.778 68.6958 169.424 70.0505 169.424 71.7439V96.5011H172.54C174.165 96.5011 175.554 95.3157 175.554 93.7917V74.2501H181.108C183.682 74.4872 185.274 75.9435 185.274 78.4158V78.4835C185.274 80.6849 183.75 82.4122 181.108 82.6831H181.04C179.99 82.6831 179.042 83.1234 178.365 83.8346C177.755 84.4781 177.383 85.3925 177.383 86.3408V88.1358H180.16L181.548 88.068C187.103 87.6278 191.438 84.3426 191.438 78.3819ZM90.9866 93.7917C90.9866 95.2818 89.6319 96.5011 87.9724 96.5011H84.9243V71.71C84.9243 70.0505 86.2113 68.7297 87.8369 68.6958H90.9866V93.7917ZM107.988 73.5389L99.2164 82.5815L107.988 91.6241C109.173 92.8095 109.173 94.6383 108.056 95.8576L107.954 95.9253C106.769 97.0429 104.906 97.0091 103.755 95.8576L91.1898 82.6154L103.755 69.3393C104.94 68.1878 106.769 68.154 107.954 69.2716L108.056 69.3393C109.173 70.5247 109.14 72.3874 107.988 73.5389ZM129.392 86.8827V68.6958H126.243C124.583 68.7297 123.262 70.0844 123.262 71.7439V86.6117C123.262 89.8292 121.84 91.2177 119.435 91.2177C118.047 91.2177 116.963 90.7436 115.744 89.8292C115.134 89.3889 114.66 89.1857 113.915 89.1857C112.289 89.1857 111.002 90.5065 111.002 92.1322C111.002 93.0804 111.51 93.9949 112.154 94.469C113.915 95.8237 116.32 96.9075 119.503 96.9075C122.517 96.9075 125.023 96.0269 126.751 94.3335C128.444 92.6402 129.392 90.1678 129.392 86.8827Z" fill="#11175E"/>
<path d="M80.6229 90.9121H66.5001V68.6611H63.3505C61.691 68.695 60.3701 70.0497 60.3701 71.7092V96.4664H77.8119C79.3359 96.4664 80.589 95.281 80.589 93.757L80.6229 90.9121Z" fill="#11175E"/>
<path d="M39.8803 90.9121H55.2223V93.757C55.2223 95.281 54.0031 96.4664 52.479 96.4664H33.7842V71.7092C33.7842 70.0158 35.1389 68.6611 36.8323 68.6611H55.1884V71.4044C55.1884 72.9284 53.9692 74.1138 52.4452 74.1138H39.8803V79.7697H50.4809C52.0049 79.7697 53.2241 80.9889 53.2241 82.5129C53.2241 84.037 52.0049 85.2223 50.4809 85.2223H39.8803V90.9121Z" fill="#11175E"/>
<path d="M141.551 85.901C141.11 84.8172 140.907 83.6657 140.907 82.4803C140.907 81.295 141.144 80.1773 141.551 79.0936C141.991 77.976 142.668 76.9599 143.549 76.1132C144.395 75.2666 145.412 74.5892 146.529 74.1151C147.613 73.6748 148.764 73.4716 149.916 73.4716C151.101 73.4716 152.253 73.7086 153.303 74.1151C153.641 74.2505 153.98 74.3183 154.319 74.3183C155.098 74.3183 155.775 74.0135 156.283 73.4716L158.688 71.1008C157.604 70.2203 156.588 69.6107 155.606 69.1365C155.504 69.1027 155.436 69.0349 155.335 69.0011C153.607 68.2898 151.745 67.9512 149.882 67.9512C147.985 67.9512 146.157 68.3237 144.429 69.0011C142.634 69.7461 141.009 70.796 139.62 72.1846C138.232 73.5732 137.148 75.1988 136.437 76.9938C135.725 78.721 135.387 80.5838 135.387 82.4465C135.387 84.343 135.759 86.1719 136.437 87.8991C136.504 88.0346 136.64 88.3055 136.708 88.5087C137.216 89.3893 137.724 90.1683 138.503 91.2181C138.503 91.2181 140.094 89.6602 140.67 89.0506C141.043 88.7797 141.314 88.4071 141.517 87.9669C141.822 87.3234 141.822 86.5783 141.551 85.901ZM163.327 76.9938C162.955 76.181 162.515 75.3682 161.973 74.6231C161.939 74.5553 161.261 73.6748 161.295 73.6409L158.925 76.0455C158.383 76.5535 158.078 77.2647 158.078 78.0098C158.078 78.3485 158.146 78.721 158.281 79.0258C158.721 80.1096 158.925 81.2611 158.925 82.4126C158.925 83.598 158.688 84.7495 158.281 85.7993C157.841 86.917 157.164 87.933 156.283 88.7797C155.436 89.6264 154.42 90.3037 153.303 90.7779C152.219 91.2181 151.067 91.4214 149.916 91.4214C148.731 91.4214 147.579 91.1843 146.495 90.7779C145.818 90.5069 145.073 90.5069 144.395 90.7779C143.955 90.9472 143.583 91.252 143.312 91.5907C142.77 92.0987 141.076 93.8259 141.076 93.8259C142.228 94.7404 143.278 95.35 144.294 95.7903C144.294 95.7903 144.395 95.8241 144.429 95.858C146.157 96.5692 148.019 96.9079 149.882 96.9079C151.779 96.9079 153.607 96.5353 155.335 95.858C157.13 95.1129 158.755 94.063 160.144 92.6745C161.532 91.2859 162.616 89.6602 163.327 87.8653C164.039 86.138 164.377 84.2753 164.377 82.4126C164.445 80.516 164.073 78.6872 163.327 76.9938Z" fill="#11175E"/>
<path d="M211.114 87.2215L202.952 95.8916C198.008 100.836 197.161 107.136 197.161 109.574C197.127 109.811 197.127 110.048 197.127 110.319V110.387C197.127 112.453 197.601 115.128 197.872 115.873L198.482 117.77L215.72 100.261C218.159 97.8221 219.344 94.4692 219.039 91.0486C218.768 88.4069 217.617 85.9007 215.72 84.038L213.587 81.9043L212.672 80.9561C212.706 81.0577 213.553 84.2751 211.114 87.2215Z" fill="url(#paint0_linear)"/>
<path d="M197.94 49.2214C197.94 49.2892 196.585 54.3016 198.346 60.5332C199.769 65.5456 203.867 70.1854 203.867 70.1854L220.868 87.2546C223.747 90.1334 222.934 93.7572 222.866 93.8588L223.612 93.0121L225.813 90.8785C227.71 88.9819 228.861 86.5096 229.132 83.8679C229.166 83.4953 229.2 83.1567 229.2 82.818V82.7164C229.2 79.7022 227.98 76.8234 225.847 74.6559L198.346 47.3926L197.94 49.2214Z" fill="url(#paint1_linear)"/>
<defs>
<linearGradient id="paint0_linear" x1="192.127" y1="112.643" x2="218.543" y2="86.5653" gradientUnits="userSpaceOnUse">
<stop offset="0.2808" stop-color="#95C93D"/>
<stop offset="0.292" stop-color="#91C53E"/>
<stop offset="0.533" stop-color="#519846"/>
<stop offset="0.7397" stop-color="#0A7F48"/>
<stop offset="0.9021" stop-color="#007248"/>
<stop offset="1" stop-color="#006E47"/>
</linearGradient>
<linearGradient id="paint1_linear" x1="193.129" y1="53.6269" x2="230.045" y2="89.5265" gradientUnits="userSpaceOnUse">
<stop stop-color="#006E47"/>
<stop offset="0.106" stop-color="#007047"/>
<stop offset="0.2349" stop-color="#007848"/>
<stop offset="0.3755" stop-color="#258548"/>
<stop offset="0.5247" stop-color="#559A46"/>
<stop offset="0.679" stop-color="#85BB3F"/>
<stop offset="0.7192" stop-color="#95C93D"/>
</linearGradient>
</defs>
</svg>
