<svg id="Layer_1" data-name="Layer 1" xmlns="http://www.w3.org/2000/svg" viewBox="0 0 938 364">
    <defs>
        <style>.cls-1{fill:#7545fb;}.cls-2{fill:#330f3f;}</style>
    </defs>
    <path class="cls-1" d="M265.793,149.82251l-47.81605,6.70232,38.51316-29.00968a14.215,14.215,0,1,0-19.90637-19.90668l-29.00948,38.51287,6.70171-47.816A14.39688,14.39688,0,0,0,200.07137,82,14.23455,14.23455,0,0,0,185.9667,98.20539l6.70273,47.81586-29.01009-38.51277a14.21507,14.21507,0,1,0-19.90658,19.90658l38.51276,29.00968-47.81585-6.70222a14.24084,14.24084,0,1,0,0,28.20936l47.81585-6.70222L87.23395,255.0576A15.37941,15.37941,0,1,0,108.94118,276.765l83.82814-95.03187-6.70273,47.81616a14.24083,14.24083,0,1,0,28.20935,0l-6.70171-47.81616,29.00948,38.51328a14.21527,14.21527,0,1,0,19.90637-19.9074l-38.51316-29.00928L265.793,178.032a14.24088,14.24088,0,1,0,0-28.20946Z" />
    <path class="cls-2" d="M359.71985,108.62948c0-7.76695,2.77344-11.65038,8.5996-11.65038q6.65686,0,15.81093,9.15388a76.92881,76.92881,0,0,1,15.53369,21.63648l9.70858-41.05381C402.993,83.66434,395.22616,82,386.07209,82c-16.36644,0-29.12569,5.54781-37.72526,16.64347-8.59961,10.81824-13.0375,24.41033-13.0375,40.77646H321.44009l-1.94171,9.70866h15.81095v83.49484c0,18.5854-1.109,31.90015-6.37963,46.32384h47.15659c-5.27064-14.42369-6.38064-27.73844-6.38064-46.32384V149.12859H397.9996l1.38722-9.70866H368.31945C362.49329,125.273,359.71985,115.00951,359.71985,108.62948Z" />
    <path class="cls-2" d="M711.47653,138.31168a47.90444,47.90444,0,0,0-11.65026-1.387c-16.92094,0-26.90674,6.65738-32.7319,28.84865-1.38719-10.81825-5.27061-23.85554-8.87682-29.40333-8.87682,4.71556-20.52708,10.26335-34.67358,16.366,6.93408,13.31474,9.70859,27.18427,9.70859,44.65937v39.667c0,16.92092-.83277,27.185-6.38065,41.88593h47.43382c-5.54789-14.701-6.65687-24.40951-6.65687-41.88593V201.00156c0-25.5196,2.49623-36.61518,12.20475-36.61518q10.81854,0,25.79776,22.46871Z" />
    <path class="cls-2" d="M720.2871,104.74738c0,12.48261,9.4313,22.19127,22.46882,22.19127,13.31473,0,23.02331-9.70866,23.02331-22.19127s-9.70858-22.46867-23.02331-22.46867A22.03326,22.03326,0,0,0,720.2871,104.74738Zm6.10237,135.36667a134.2889,134.2889,0,0,1-1.109,19.97263,105.68671,105.68671,0,0,1-5.27061,18.86162h46.87933a105.524,105.524,0,0,1-5.27067-18.86162,134.14508,134.14508,0,0,1-1.11-19.97263V136.64731a276.00962,276.00962,0,0,1-40.49868,15.5339c5.54789,11.373,6.37959,22.746,6.37959,40.77626Z" />
    <path class="cls-2" d="M837.50841,254.53879c-11.92755,0-13.86923-10.26407-13.86923-22.19158V149.12992h30.51289l1.38625-9.70866H823.63918V99.19959a214.11286,214.11286,0,0,1-35.78355,17.75295c.55449,5.82524,1.109,13.31474,1.38619,22.46872H774.81811l-1.38725,9.70866h15.811v94.86757c0,25.79776,11.65133,38.00251,29.404,38.00251,20.52708,0,36.06077-16.08818,36.06077-34.67358C848.327,252.04158,842.77908,254.53879,837.50841,254.53879Z" />
    <path class="cls-2" d="M506.234,278.94932c-3.05172-7.21236-5.27067-13.86923-6.1034-19.97262a206.674,206.674,0,0,1-1.38623-26.074V191.8485c0-34.39643-12.483-54.92334-47.71106-54.92334-33.5646,0-51.87276,19.69477-51.87276,45.49212v7.48951l36.89353,1.94171c-4.16064-9.15387-6.10238-17.75295-6.10238-25.79724,0-11.373,5.26965-17.75307,14.9782-17.75307,14.702,0,19.1399,13.86954,19.1399,34.67389v10.26365c0,5.54789-6.37963,9.70856-28.57121,18.86264-18.02988,7.4896-28.01568,11.65026-36.0608,21.63608-4.16066,4.99339-6.10237,11.09577-6.10237,18.03089,0,17.47542,12.483,29.40292,31.34564,29.40292,15.81093,0,29.95842-7.76684,39.667-21.08158.55449,7.48961,2.219,13.86923,5.26964,18.86264Zm-42.1642-25.52052a31.58574,31.58574,0,0,1-16.91991,4.99341c-12.20579,0-18.86265-8.04409-18.86265-20.5271,0-14.42371,6.93411-20.52609,27.184-20.52609,7.4896,0,8.59858,1.109,8.59858,6.9341Z" />
    <path class="cls-2" d="M591.03432,139.41759c1.94171,4.9931,3.05069,11.373,3.05069,19.41742a75.4973,75.4973,0,0,1-3.32793,22.19117l-18.86265,61.02551L553.5863,181.02618a84.076,84.076,0,0,1-3.60621-25.79725c0-6.93481.83277-12.20526,2.219-15.81134H496.99839a66.27774,66.27774,0,0,1,8.87682,15.5339q3.7443,7.90567,10.81856,27.46172l34.39633,96.532h18.30816l34.11806-96.532c4.43891-12.20527,8.04512-21.08169,10.54129-26.90693,2.77344-5.82524,8.87992-11.373,10.54134-16.08869Z" />
</svg>