<svg width="167" height="105" viewBox="0 0 167 105" fill="none" xmlns="http://www.w3.org/2000/svg">
<path d="M147.241 53.8083L154.864 44.0282V60.4645H152.272V51.6216L147.215 57.9895L142.209 51.6216V60.4645H139.617V44.0042L147.241 53.8083ZM88.0063 56.1873C87.9554 55.3462 87.5489 53.6641 85.2364 51.91L83.2035 50.2279C82.3395 49.5791 81.9329 48.8822 81.9075 48.0652C81.9075 47.1281 82.5682 46.4793 83.5592 46.4312C83.5846 46.4312 84.8298 46.287 85.5921 47.2963L85.6176 47.3443L87.6759 46.0227L87.6505 45.9746C87.2947 45.446 85.6938 44.0042 83.5338 44.1003C82.314 44.1484 81.2213 44.605 80.459 45.3258C79.6712 46.0948 79.2901 47.104 79.3663 48.2815C79.4425 49.6512 80.2811 50.9248 82.0345 52.2704L83.9404 53.8564C85.0077 54.6734 85.4651 55.3702 85.5159 56.1873C85.5667 56.788 85.338 57.3647 84.9314 57.7972C84.5757 58.1817 84.1691 58.3499 83.61 58.398H83.483C81.882 58.398 81.2213 57.3166 80.8402 56.6678L80.7385 56.4996L78.5277 57.5089C78.731 58.0375 79.9254 60.7048 83.4322 60.7048H83.483C84.7536 60.6327 85.9225 60.1521 86.7611 59.3351C87.6251 58.5181 88.0825 57.3887 88.0063 56.1873ZM37.1321 43.9321C32.2023 43.9321 28.1872 47.7288 28.1872 52.3906C28.1872 57.0523 32.2023 60.849 37.1321 60.849C42.062 60.849 46.077 57.0523 46.077 52.3906C46.1024 47.7288 42.0874 43.9321 37.1321 43.9321ZM37.1321 58.422C33.6253 58.422 30.7792 55.7307 30.7792 52.4146C30.7792 49.0985 33.6253 46.4072 37.1321 46.4072C40.6389 46.4072 43.485 49.0985 43.485 52.4146C43.5105 55.7067 40.6389 58.422 37.1321 58.422ZM127.318 43.9321C122.388 43.9321 118.373 47.7288 118.373 52.3906C118.373 57.0523 122.388 60.849 127.318 60.849C132.248 60.849 136.263 57.0523 136.263 52.3906C136.263 47.7288 132.248 43.9321 127.318 43.9321ZM127.318 58.422C123.811 58.422 120.965 55.7307 120.965 52.4146C120.965 49.0985 123.811 46.4072 127.318 46.4072C130.825 46.4072 133.671 49.0985 133.671 52.4146C133.671 55.7067 130.825 58.422 127.318 58.422ZM24.7821 60.873V44.3406H22.1901V54.6013L12 44.0042V60.4405H14.592V50.348L14.6936 50.4442L24.7821 60.873ZM101.093 44.3406H90.2171V46.5994H94.3083V60.4405H97.002V46.5994H101.093V44.3406ZM112.452 54.385L112.503 54.361C112.783 54.2408 113.062 54.0726 113.291 53.9044C114.688 52.9192 115.527 51.3092 115.527 49.5551C115.527 46.6715 113.265 44.3166 110.496 44.3166H104.498V60.4165H107.09V54.7695H107.141C107.141 54.7695 108.539 54.7695 109.581 54.7695H109.606L109.632 54.7935L113.57 60.4165H116.696L112.452 54.385ZM110.216 52.3425H107.116V46.7436H110.216C111.715 46.7436 112.91 47.9931 112.91 49.531C112.91 51.093 111.715 52.3425 110.216 52.3425ZM69.1 44.3406H64.8817V60.4405H69.1C73.2167 60.4405 76.4694 56.8361 76.4694 52.3906C76.4694 47.9691 73.1913 44.3406 69.1 44.3406ZM69.0238 58.1337H67.4482V46.6715H69.0238C71.819 46.6715 73.9282 49.2427 73.9282 52.4146C73.9282 55.5625 71.819 58.1337 69.0238 58.1337ZM57.4106 54.385L57.4614 54.361C57.741 54.2408 58.0205 54.0726 58.2492 53.9044C59.6469 52.9192 60.4854 51.3092 60.4854 49.5551C60.4854 46.6715 58.2238 44.3166 55.4539 44.3166H49.4568V60.4165H52.0488V54.7695H52.0996C52.0996 54.7695 53.4972 54.7695 54.5391 54.7695H54.5645L54.5899 54.7935L58.5287 60.4165H61.629L57.4106 54.385ZM55.1744 52.3425H52.0742V46.7436H55.1744C56.6737 46.7436 57.868 47.9931 57.868 49.531C57.868 51.093 56.6737 52.3425 55.1744 52.3425Z" fill="#0A0A0A"/>
</svg>
