<svg width="400" height="51" viewBox="0 0 400 51" fill="none" xmlns="http://www.w3.org/2000/svg">
<path d="M377.058 28.7305L398.233 1.56357V47.22H391.033V22.6564L376.986 40.345L363.081 22.6564V47.22H355.881V1.49691L377.058 28.7305ZM212.518 35.3389C212.376 33.0025 211.247 28.33 204.823 23.4575L199.176 18.785C196.776 16.9828 195.647 15.0469 195.576 12.7775C195.576 10.1744 197.412 8.37219 200.164 8.23857C200.235 8.23857 203.694 7.83802 205.811 10.6416L205.882 10.775L211.6 7.10386L211.529 6.97025C210.541 5.50192 206.094 1.49691 200.094 1.76386C196.706 1.89747 193.67 3.16581 191.553 5.16803C189.364 7.30414 188.306 10.1075 188.518 13.3783C188.729 17.183 191.059 20.7208 195.929 24.4586L201.223 28.8641C204.188 31.1336 205.459 33.0691 205.6 35.3389C205.741 37.0075 205.106 38.6094 203.976 39.8108C202.988 40.8789 201.859 41.3461 200.306 41.4797H199.953C195.506 41.4797 193.67 38.4758 192.612 36.6736L192.329 36.2064L186.188 39.01C186.753 40.4783 190.071 47.8875 199.812 47.8875H199.953C203.482 47.6872 206.729 46.3522 209.059 44.0827C211.459 41.8133 212.729 38.6761 212.518 35.3389ZM71.2003 1.29663C57.5064 1.29663 46.3534 11.843 46.3534 24.7925C46.3534 37.7416 57.5064 48.288 71.2003 48.288C84.8945 48.288 96.0473 37.7416 96.0473 24.7925C96.1178 11.843 84.965 1.29663 71.2003 1.29663ZM71.2003 41.5464C61.4592 41.5464 53.5534 34.0705 53.5534 24.8591C53.5534 15.6477 61.4592 8.17191 71.2003 8.17191C80.9414 8.17191 88.8473 15.6477 88.8473 24.8591C88.9181 34.0039 80.9414 41.5464 71.2003 41.5464ZM321.717 1.29663C308.022 1.29663 296.869 11.843 296.869 24.7925C296.869 37.7416 308.022 48.288 321.717 48.288C335.411 48.288 346.564 37.7416 346.564 24.7925C346.564 11.843 335.411 1.29663 321.717 1.29663ZM321.717 41.5464C311.975 41.5464 304.069 34.0705 304.069 24.8591C304.069 15.6477 311.975 8.17191 321.717 8.17191C331.458 8.17191 339.364 15.6477 339.364 24.8591C339.364 34.0039 331.458 41.5464 321.717 41.5464ZM36.8948 48.3547V2.43136H29.6947V30.9333L1.38892 1.49691V47.1533H8.58892V19.1186L8.87114 19.3858L36.8948 48.3547ZM248.869 2.43136H218.659V8.7058H230.023V47.1533H237.506V8.7058H248.869V2.43136ZM280.422 30.3325L280.564 30.2658C281.342 29.9319 282.117 29.4647 282.753 28.9975C286.633 26.2608 288.964 21.7886 288.964 16.9161C288.964 8.90608 282.681 2.36469 274.989 2.36469H258.328V47.0866H265.528V31.4005H265.669C265.669 31.4005 269.553 31.4005 272.447 31.4005H272.517L272.589 31.4672L283.528 47.0866H292.211L280.422 30.3325ZM274.211 24.6589H265.6V9.10635H274.211C278.375 9.10635 281.694 12.5772 281.694 16.8491C281.694 21.188 278.375 24.6589 274.211 24.6589ZM160 2.43136H148.283V47.1533H160C171.435 47.1533 180.471 37.1411 180.471 24.7925C180.471 12.5105 171.365 2.43136 160 2.43136ZM159.788 40.7455H155.412V8.90608H159.788C167.553 8.90608 173.412 16.0483 173.412 24.8591C173.412 33.6033 167.553 40.7455 159.788 40.7455ZM127.529 30.3325L127.671 30.2658C128.447 29.9319 129.224 29.4647 129.859 28.9975C133.741 26.2608 136.071 21.7886 136.071 16.9161C136.071 8.90608 129.788 2.36469 122.094 2.36469H105.436V47.0866H112.636V31.4005H112.777C112.777 31.4005 116.659 31.4005 119.553 31.4005H119.624L119.694 31.4672L130.635 47.0866H139.247L127.529 30.3325ZM121.318 24.6589H112.706V9.10635H121.318C125.483 9.10635 128.8 12.5772 128.8 16.8491C128.8 21.188 125.483 24.6589 121.318 24.6589Z" fill="#0A0A0A"/>
</svg>
