<svg width="166" height="105" viewBox="0 0 166 105" fill="none" xmlns="http://www.w3.org/2000/svg">
<path fill-rule="evenodd" clip-rule="evenodd" d="M138.842 58.3262H152.996C153.551 58.3262 154 58.7645 154 59.3062C154 59.847 153.551 60.2863 152.996 60.2863H138.842C138.288 60.2863 137.837 59.847 137.837 59.3062C137.838 58.7645 138.288 58.3262 138.842 58.3262Z" fill="black"/>
<path fill-rule="evenodd" clip-rule="evenodd" d="M136.039 46.73C136.251 46.7402 136.461 46.6874 136.643 46.5799C136.79 46.4835 136.874 46.3192 136.866 46.1457C136.875 45.9874 136.802 45.8332 136.673 45.7368C136.544 45.6435 136.322 45.5968 136.021 45.5968H135.204V46.73H136.039ZM134.699 48.4781C134.642 48.4253 134.61 48.3523 134.611 48.2752V45.4923C134.609 45.3888 134.65 45.2884 134.725 45.2143C134.798 45.1382 134.9 45.0956 135.007 45.0976H136.06C136.523 45.0976 136.869 45.192 137.098 45.3807C137.323 45.5653 137.45 45.8413 137.441 46.1284C137.446 46.3181 137.381 46.5028 137.255 46.6479C137.131 46.7899 136.97 46.8974 136.79 46.9624C136.967 47.0293 137.116 47.1511 137.216 47.3093C137.336 47.4838 137.398 47.7253 137.398 48.0347V48.2681C137.396 48.4284 137.263 48.5583 137.098 48.5603C137.017 48.5613 136.942 48.5298 136.886 48.474C136.829 48.4203 136.796 48.3462 136.798 48.2691V48.1129C136.805 47.9008 136.767 47.6888 136.688 47.491C136.616 47.3195 136.438 47.2343 136.155 47.2343H135.207V48.2732C135.209 48.3503 135.177 48.4233 135.12 48.4751C135.065 48.5298 134.988 48.5613 134.908 48.5613C134.83 48.5633 134.753 48.5329 134.699 48.4781ZM137.276 49.0878C137.684 48.8555 138.024 48.5248 138.262 48.125C138.505 47.7233 138.63 47.2647 138.626 46.798C138.63 46.3354 138.504 45.8809 138.262 45.4832C138.023 45.0875 137.683 44.7588 137.276 44.5264C136.866 44.289 136.396 44.1663 135.919 44.1703C135.445 44.1663 134.979 44.2901 134.573 44.5264C134.168 44.7598 133.83 45.0885 133.592 45.4832C133.349 45.8819 133.223 46.3354 133.228 46.798C133.223 47.2647 133.349 47.7233 133.592 48.125C133.829 48.5238 134.166 48.8545 134.573 49.0878C134.979 49.3242 135.445 49.448 135.919 49.445C136.396 49.449 136.867 49.3252 137.278 49.0878H137.276ZM134.348 49.4744C133.87 49.2035 133.474 48.8149 133.196 48.3493C132.627 47.3956 132.627 46.2167 133.196 45.264C133.474 44.7983 133.87 44.4108 134.348 44.1399C135.325 43.5829 136.531 43.5829 137.507 44.1399C137.983 44.4118 138.381 44.7994 138.657 45.2661C139.228 46.2187 139.228 47.3976 138.657 48.3513C138.38 48.817 137.983 49.2035 137.507 49.4744C136.53 50.0304 135.325 50.0304 134.348 49.4744Z" fill="black"/>
<path fill-rule="evenodd" clip-rule="evenodd" d="M120.867 59.978C120.666 59.7761 120.557 59.5042 120.565 59.2242V44.9455C120.558 44.6614 120.667 44.3875 120.867 44.1816C121.056 43.9746 121.327 43.8579 121.612 43.863H130.945C131.214 43.8579 131.471 43.9655 131.655 44.1562C131.845 44.349 131.951 44.6066 131.945 44.8735C131.953 45.1393 131.846 45.3949 131.654 45.5806C131.467 45.7663 131.21 45.8687 130.945 45.8637H122.678V51.0632H130.103C130.37 51.0581 130.629 51.1647 130.812 51.3564C131.005 51.5472 131.109 51.8059 131.103 52.0737C131.115 52.6094 130.68 53.0517 130.131 53.0629C130.122 53.0639 130.112 53.0639 130.103 53.0639H122.678V58.2858H130.94C131.208 58.2817 131.467 58.3892 131.651 58.58C131.842 58.7717 131.947 59.0294 131.942 59.2983C131.949 59.5631 131.842 59.8187 131.65 60.0034C131.463 60.1891 131.206 60.2915 130.94 60.2854H121.61C121.329 60.2915 121.06 60.1799 120.867 59.9801V59.978ZM103.224 59.3896C103.033 59.3074 102.872 59.1725 102.758 59.001C102.483 58.6094 102.517 58.0859 102.839 57.7308C103.011 57.537 103.263 57.4285 103.525 57.4366C103.677 57.4356 103.827 57.468 103.964 57.5309C105.402 58.1772 106.969 58.5069 108.553 58.4978C111.269 58.4978 112.625 57.5949 112.625 55.791C112.636 55.3426 112.444 54.9134 112.1 54.6151C111.724 54.2864 111.285 54.0348 110.808 53.8735C110.296 53.6939 109.567 53.4778 108.622 53.2272C107.587 52.9685 106.569 52.651 105.573 52.2766C104.806 51.9753 104.121 51.5045 103.573 50.8999C103.015 50.2881 102.736 49.4724 102.735 48.4538C102.725 47.5925 102.97 46.7473 103.437 46.0179C103.902 45.2884 104.588 44.7071 105.495 44.2759C106.403 43.8447 107.494 43.6296 108.766 43.6296C110.473 43.6296 112.017 43.8894 113.398 44.4058C113.832 44.563 114.049 44.8765 114.049 45.3493C114.05 45.5999 113.959 45.8424 113.793 46.0351C113.63 46.235 113.379 46.3476 113.118 46.3405C112.989 46.3324 112.862 46.2999 112.746 46.2462C111.543 45.8241 110.276 45.609 108.998 45.611C107.77 45.611 106.774 45.8464 106.007 46.3172C105.243 46.7879 104.86 47.4464 104.857 48.2925C104.857 48.8586 105.038 49.3172 105.403 49.6702C105.793 50.0385 106.262 50.3196 106.776 50.493C107.513 50.7416 108.262 50.9496 109.022 51.118C110.25 51.4153 111.239 51.7135 111.989 52.0098C112.742 52.3091 113.404 52.7859 113.92 53.3997C114.455 54.0277 114.722 54.8749 114.722 55.9401C114.734 56.7853 114.473 57.6121 113.978 58.305C113.482 59.003 112.783 59.5479 111.884 59.9405C110.982 60.3321 109.943 60.5279 108.765 60.5279C106.856 60.5391 104.966 60.1505 103.224 59.3896ZM86.9759 54.1211H93.2595L90.1187 46.4734L86.9759 54.1211ZM82.892 60.0977C82.6978 59.8938 82.5919 59.6229 82.6002 59.3439C82.6095 59.1816 82.649 59.0223 82.7175 58.8732L88.6511 44.7091C88.7664 44.4403 88.9471 44.2008 89.1777 44.0162C89.4114 43.8315 89.7043 43.7352 90.0034 43.7443H90.2361C90.5362 43.7362 90.8281 43.8325 91.0628 44.0162C91.2923 44.2018 91.473 44.4403 91.5894 44.7091L97.5199 58.8752C97.5874 59.0244 97.6268 59.1847 97.6351 59.347C97.6424 59.625 97.5386 59.8958 97.3443 60.0998C97.1491 60.3037 96.8728 60.4163 96.5882 60.4062C96.3763 60.4082 96.1697 60.3453 95.9952 60.2286C95.8144 60.1099 95.6722 59.9425 95.587 59.7467L94.0758 56.073H86.1616L84.6483 59.7447C84.5621 59.9395 84.4209 60.1069 84.2412 60.2256C84.0667 60.3422 83.86 60.4041 83.6481 60.4041C83.3636 60.4133 83.0862 60.3017 82.892 60.0977ZM71.4496 58.2847C72.9556 58.2847 74.0212 58.0504 74.6506 57.5796C75.278 57.1099 75.5927 56.4433 75.5927 55.579C75.5927 53.7913 74.2186 52.8975 71.4683 52.8975H67.0978V58.2847H71.4496ZM70.9615 50.9678C72.3418 50.9678 73.3119 50.7325 73.8706 50.2627C74.4294 49.792 74.7088 49.1335 74.7088 48.2854C74.7275 47.5874 74.3899 46.9269 73.8083 46.5201C73.2122 46.0818 72.3927 45.8627 71.352 45.8627H67.0978V50.9678H70.9615ZM65.2823 59.979C65.0819 59.7782 64.9739 59.5063 64.9801 59.2262V44.9455C64.9749 44.6614 65.0829 44.3875 65.2823 44.1816C65.4714 43.9746 65.7435 43.8579 66.027 43.8628H71.5192C73.18 43.8628 74.4637 44.2465 75.3714 45.0155C76.2792 45.7845 76.733 46.8194 76.733 48.121C76.733 49.0301 76.5201 49.7879 76.0943 50.3926C75.6841 50.9821 75.1159 51.4508 74.4523 51.745C75.3351 52.0118 76.1275 52.5089 76.7455 53.1806C77.3417 53.839 77.6408 54.6709 77.6418 55.6743C77.6418 57.118 77.1599 58.2472 76.1982 59.0629C75.2354 59.8776 73.7231 60.2854 71.6594 60.2854H66.027C65.7466 60.2915 65.4755 60.1799 65.2823 59.9801V59.979ZM51.9559 60.0977C51.7492 59.8999 51.636 59.627 51.6433 59.3439V53.3449L46.0794 45.4599C45.96 45.2691 45.8956 45.049 45.8935 44.8248C45.8873 44.5437 45.9911 44.2698 46.1854 44.0608C46.3682 43.8528 46.6372 43.7362 46.9176 43.7433C47.306 43.7433 47.6166 43.9239 47.8482 44.284L52.713 51.4366L57.5769 44.286C57.8116 43.9249 58.1221 43.7443 58.5085 43.7443C58.792 43.7392 59.0642 43.8549 59.2542 44.0618C59.4526 44.2678 59.5544 44.5448 59.5326 44.8268C59.5305 45.051 59.4671 45.2712 59.3467 45.4629L53.761 53.348V59.347C53.7672 59.627 53.6592 59.8989 53.4588 60.0998C53.2656 60.2996 52.9945 60.4112 52.7141 60.4063C52.4285 60.4092 52.1553 60.2976 51.9559 60.0977ZM32.2544 54.1211H38.5391L35.3942 46.4734L32.2544 54.1211ZM28.1685 60.0977C27.9754 59.8938 27.8694 59.6229 27.8777 59.3439C27.886 59.1816 27.9255 59.0223 27.994 58.8732L33.9287 44.7091C34.0429 44.4403 34.2236 44.2008 34.4553 44.0162C34.6879 43.8315 34.9818 43.7362 35.282 43.7443H35.5136C35.8127 43.7362 36.1067 43.8325 36.3403 44.0162C36.5709 44.2018 36.7516 44.4403 36.8669 44.7091L42.7964 58.8752C42.8639 59.0244 42.9033 59.1847 42.9116 59.347C42.9189 59.625 42.8161 59.8958 42.6208 60.0998C42.4266 60.3037 42.1503 60.4163 41.8658 60.4062C41.6528 60.4082 41.4451 60.3453 41.2706 60.2286C41.091 60.1099 40.9507 59.9425 40.8645 59.7467L39.3523 56.0761H31.4381L29.9259 59.7467C29.8397 59.9425 29.6994 60.1089 29.5187 60.2286C29.3442 60.3443 29.1365 60.4072 28.9257 60.4062C28.639 60.4153 28.3638 60.3017 28.1685 60.0977ZM17.9143 52.2857C19.4961 52.2857 20.6105 51.9793 21.2545 51.3686C21.8984 50.7558 22.2194 49.9949 22.2194 49.0859C22.2194 48.1758 21.8974 47.4149 21.2545 46.8042C20.6105 46.1914 19.4972 45.885 17.9143 45.886H13.8855V52.2857H17.9143ZM12.0721 60.0977C11.8727 59.8969 11.7626 59.625 11.7699 59.3439V44.9465C11.7647 44.6624 11.8737 44.3885 12.0721 44.1816C12.2622 43.9746 12.5333 43.8569 12.8178 43.8618H18.1231C19.5979 43.8618 20.7996 44.1126 21.7312 44.6148C22.6618 45.118 23.3296 45.7602 23.7326 46.5444C24.5396 48.1474 24.5396 50.0243 23.7326 51.6273C23.3296 52.4115 22.6618 53.0548 21.7312 53.556C20.7996 54.0571 19.5979 54.3077 18.1231 54.3087H13.8855V59.3439C13.8907 59.627 13.7775 59.8999 13.5708 60.0977C13.3724 60.2966 13.0993 60.4082 12.8147 60.4041C12.5333 60.4092 12.2632 60.2976 12.07 60.0977H12.0721Z" fill="black"/>
</svg>
