<svg width="166" height="105" viewBox="0 0 166 105" fill="none" xmlns="http://www.w3.org/2000/svg">
<path d="M9.66704 50.3802H9.13684C8.71268 50.3802 8.5006 50.1681 8.5006 49.7439V48.5242C8.5006 47.4106 7.9704 46.9864 7.01604 46.9864C6.06168 46.9864 5.53148 47.4106 5.53148 48.5242V49.4787C5.53148 50.3272 5.8496 50.5924 6.59188 51.0696L8.39456 52.0772C9.561 52.7665 10.3033 53.4029 10.3033 54.7286V56.6377C10.3033 58.7058 9.08382 59.5012 7.01604 59.5012H6.96302C4.89524 59.5012 3.67578 58.7058 3.67578 56.6377V54.9407C3.67578 54.5165 3.88786 54.3044 4.31202 54.3044H4.84222C5.26638 54.3044 5.47846 54.5165 5.47846 54.9407V56.3195C5.47846 57.3801 6.00866 57.9104 6.96302 57.9104C7.91738 57.9104 8.44758 57.4331 8.44758 56.3195V55.2589C8.44758 54.4104 8.12946 54.0923 7.33416 53.615L5.5845 52.6075C4.31202 51.8651 3.67578 51.2817 3.67578 49.956V48.206C3.67578 46.244 5.0543 45.3955 6.91 45.3955H6.96302C8.87174 45.3955 10.1972 46.244 10.1972 48.206V49.7439C10.3563 50.1151 10.1442 50.3802 9.66704 50.3802Z" fill="black"/>
<path d="M32.3589 46.1882V56.5289C32.3589 58.597 31.1395 59.4455 29.0717 59.4455H29.0187C26.9509 59.4455 25.7314 58.597 25.7314 56.5289V46.1882C25.7314 45.764 25.9435 45.5519 26.3677 45.5519H26.8979C27.322 45.5519 27.5341 45.764 27.5341 46.1882V56.1577C27.5341 57.3774 28.0113 57.8016 29.0187 57.8016C30.0261 57.8016 30.5032 57.3774 30.5032 56.1577V46.1882C30.5032 45.764 30.7153 45.5519 31.1395 45.5519H31.6697C32.1469 45.4989 32.3589 45.764 32.3589 46.1882Z" fill="black"/>
<path d="M53.1424 52.1283C54.3619 52.3405 54.733 53.295 54.733 54.3025V56.5828C54.733 58.2267 53.5136 59.2873 51.4458 59.2873H48.6357C48.2116 59.2873 47.9995 59.0751 47.9995 58.6509V46.1891C47.9995 45.7648 48.2116 45.5527 48.6357 45.5527H51.4458C53.5136 45.5527 54.627 46.6133 54.627 48.2572V50.0072C54.627 50.9087 54.2558 51.9692 53.1424 52.1283ZM49.8552 51.3859H51.4458C52.3471 51.3859 52.8243 51.0147 52.8243 50.1663V48.5754C52.8243 47.6209 52.3471 47.1436 51.4458 47.1436H49.8552V51.3859ZM51.4988 52.9238H49.8552V57.6434H51.4988C52.4002 57.6434 52.8773 57.1661 52.8773 56.2116V54.1434C52.8773 53.348 52.4002 52.9238 51.4988 52.9238Z" fill="black"/>
<path d="M75.7832 50.3798H75.253C74.8289 50.3798 74.6168 50.1676 74.6168 49.7434V48.5237C74.6168 47.4101 74.0866 46.9859 73.1322 46.9859C72.1779 46.9859 71.6477 47.4101 71.6477 48.5237V49.4783C71.6477 50.3267 71.9658 50.5919 72.7081 51.0691L74.5108 52.0767C75.6772 52.7661 76.4195 53.4024 76.4195 54.7281V56.6372C76.4195 58.7053 75.2 59.5008 73.1322 59.5008H73.0792C71.0114 59.5008 69.792 58.7053 69.792 56.6372V54.9403C69.792 54.516 70.0041 54.3039 70.4282 54.3039H70.9584C71.3826 54.3039 71.5947 54.516 71.5947 54.9403V56.319C71.5947 57.3796 72.1249 57.9099 73.0792 57.9099C74.0336 57.9099 74.5638 57.4326 74.5638 56.319V55.2584C74.5638 54.41 74.2457 54.0918 73.4504 53.6145L71.7007 52.607C70.4282 51.8646 69.792 51.2812 69.792 49.9555V48.2056C69.792 46.2435 71.1705 45.395 73.0262 45.395H73.0792C74.9879 45.395 76.3134 46.2435 76.3134 48.2056V49.7434C76.4195 50.1146 76.2074 50.3798 75.7832 50.3798Z" fill="black"/>
<path d="M98.5807 48.4161V50.8554C98.5807 52.8705 97.3082 53.772 95.2404 53.772H93.6498V58.5977C93.6498 59.0219 93.4378 59.234 93.0136 59.234H92.4834C92.0592 59.234 91.8472 59.0219 91.8472 58.5977V46.1888C91.8472 45.7646 92.0592 45.5525 92.4834 45.5525H95.2935C97.3082 45.4995 98.5807 46.401 98.5807 48.4161ZM96.725 48.7873C96.725 47.5676 96.1948 47.1434 95.1344 47.1434H93.6498V52.1281H95.1344C96.1418 52.1281 96.725 51.7039 96.725 50.5372V48.7873Z" fill="black"/>
<path d="M114.752 55.9988L114.275 58.6502C114.222 59.0214 113.957 59.2335 113.586 59.2335H113.109C112.685 59.2335 112.473 58.9684 112.526 58.5442L115.018 46.0823C115.071 45.7111 115.336 45.499 115.707 45.499H116.82C117.191 45.499 117.456 45.7111 117.509 46.0823L120.001 58.5442C120.107 59.0214 119.842 59.2335 119.418 59.2335H118.835C118.464 59.2335 118.199 59.0214 118.146 58.6502L117.668 55.9988H114.752ZM117.722 55.9988L117.456 54.4609L116.237 47.8323L115.018 54.4609L114.699 55.9988" fill="black"/>
<path d="M141.634 54.3553V56.4764C141.634 58.5446 140.361 59.393 138.294 59.393H138.241C136.173 59.393 134.9 58.5446 134.9 56.4764V48.2569C134.9 46.2949 136.173 45.3403 138.241 45.3403H138.294C140.361 45.3403 141.634 46.2418 141.634 48.2569V50.0599C141.634 50.4841 141.422 50.6963 140.998 50.6963H140.467C140.043 50.6963 139.831 50.4841 139.831 50.0599V48.6281C139.831 47.4085 139.301 46.9842 138.347 46.9842C137.339 46.9842 136.862 47.4085 136.862 48.6281V56.1582C136.862 57.3779 137.392 57.8021 138.347 57.8021C139.354 57.8021 139.831 57.3779 139.831 56.1582V54.3553C139.831 53.931 140.043 53.7189 140.467 53.7189H140.998C141.422 53.7189 141.634 53.931 141.634 54.3553Z" fill="black"/>
<path d="M161.674 51.4365H160.401H160.295H159.235H159.129H157.856C157.432 51.4365 157.22 51.6486 157.22 52.0729V52.4441C157.22 52.8683 157.432 53.0804 157.856 53.0804H159.129H159.235H160.295H160.401H161.674C162.098 53.0804 162.31 52.8683 162.31 52.4441V52.1259C162.31 51.7017 162.098 51.4365 161.674 51.4365Z" fill="black"/>
<path d="M162.31 57.6401H160.879H160.402H159.712H159.235H157.804C157.38 57.6401 157.167 57.8523 157.167 58.2765V58.5947C157.167 59.0189 157.38 59.231 157.804 59.231H159.235H160.932H162.363C162.788 59.231 163 59.0189 163 58.5947V58.2765C163 57.8523 162.735 57.6401 162.31 57.6401Z" fill="black"/>
<path d="M162.259 45.5002H160.881H159.184H157.806C157.382 45.5002 157.169 45.7124 157.169 46.1366V46.4548C157.169 46.879 157.382 47.0911 157.806 47.0911H159.184H159.661H160.351H160.828H162.206C162.63 47.0911 162.843 46.879 162.843 46.4548V46.1366C162.896 45.7654 162.683 45.5002 162.259 45.5002Z" fill="black"/>
</svg>
