<svg width="400" height="41" viewBox="0 0 400 41" fill="none" xmlns="http://www.w3.org/2000/svg">
<path d="M15.4176 15.3812H14.0921C13.0317 15.3812 12.5015 14.8509 12.5015 13.7904V10.7412C12.5015 7.95718 11.176 6.89668 8.7901 6.89668C6.4042 6.89668 5.0787 7.95718 5.0787 10.7412V13.1274C5.0787 15.2487 5.874 15.9117 7.7297 17.1047L12.2364 19.6237C15.1525 21.3469 17.0083 22.9379 17.0083 26.2522V31.0249C17.0083 36.1952 13.9596 38.1837 8.7901 38.1837H8.65755C3.4881 38.1837 0.439453 36.1952 0.439453 31.0249V26.7824C0.439453 25.7219 0.969652 25.1917 2.03005 25.1917H3.35555C4.41595 25.1917 4.94615 25.7219 4.94615 26.7824V30.2294C4.94615 32.8809 6.27165 34.2067 8.65755 34.2067C11.0435 34.2067 12.369 33.0134 12.369 30.2294V27.5779C12.369 25.4567 11.5737 24.6614 9.5854 23.4682L5.21125 20.9494C2.03005 19.0934 0.439453 17.6349 0.439453 14.3207V9.94569C0.439453 5.04069 3.88575 2.91943 8.525 2.91943H8.65755C13.4294 2.91943 16.743 5.04069 16.743 9.94569V13.7904C17.1408 14.7184 16.6105 15.3812 15.4176 15.3812Z" fill="black"/>
<path d="M72.1472 4.90113V30.7529C72.1472 35.9231 69.0987 38.0444 63.9292 38.0444H63.7967C58.6272 38.0444 55.5785 35.9231 55.5785 30.7529V4.90113C55.5785 3.84063 56.1087 3.31037 57.1692 3.31037H58.4947C59.555 3.31037 60.0852 3.84063 60.0852 4.90113V29.8249C60.0852 32.8741 61.2782 33.9346 63.7967 33.9346C66.3152 33.9346 67.508 32.8741 67.508 29.8249V4.90113C67.508 3.84063 68.0382 3.31037 69.0987 3.31037H70.4242C71.6172 3.17787 72.1472 3.84063 72.1472 4.90113Z" fill="black"/>
<path d="M124.106 19.7514C127.155 20.2819 128.083 22.6681 128.083 25.1869V30.8876C128.083 34.9974 125.034 37.6489 119.865 37.6489H112.839C111.779 37.6489 111.249 37.1184 111.249 36.0579V4.90337C111.249 3.84262 111.779 3.31238 112.839 3.31238H119.865C125.034 3.31238 127.818 5.96387 127.818 10.0736V14.4486C127.818 16.7024 126.89 19.3536 124.106 19.7514ZM115.888 17.8954H119.865C122.118 17.8954 123.311 16.9674 123.311 14.8464V10.8691C123.311 8.48288 122.118 7.28963 119.865 7.28963H115.888V17.8954ZM119.997 21.7401H115.888V33.5391H119.997C122.251 33.5391 123.443 32.3459 123.443 29.9596V24.7891C123.443 22.8006 122.251 21.7401 119.997 21.7401Z" fill="black"/>
<path d="M180.708 15.3802H179.382C178.322 15.3802 177.792 14.8497 177.792 13.7892V10.74C177.792 7.95596 176.466 6.89546 174.08 6.89546C171.695 6.89546 170.369 7.95596 170.369 10.74V13.1265C170.369 15.2475 171.164 15.9105 173.02 17.1035L177.527 19.6225C180.443 21.346 182.299 22.9367 182.299 26.251V31.0237C182.299 36.194 179.25 38.1827 174.08 38.1827H173.948C168.778 38.1827 165.73 36.194 165.73 31.0237V26.7815C165.73 25.7207 166.26 25.1905 167.32 25.1905H168.646C169.706 25.1905 170.237 25.7207 170.237 26.7815V30.2282C170.237 32.8797 171.562 34.2055 173.948 34.2055C176.334 34.2055 177.659 33.0122 177.659 30.2282V27.5767C177.659 25.4557 176.864 24.6602 174.876 23.467L170.502 20.9482C167.32 19.0922 165.73 17.6337 165.73 14.3195V9.94471C165.73 5.03946 169.176 2.91821 173.815 2.91821H173.948C178.72 2.91821 182.033 5.03946 182.033 9.94471V13.7892C182.299 14.7172 181.768 15.3802 180.708 15.3802Z" fill="black"/>
<path d="M237.702 10.4709V16.5692C237.702 21.6069 234.521 23.8607 229.351 23.8607H225.375V35.9249C225.375 36.9854 224.845 37.5157 223.784 37.5157H222.459C221.398 37.5157 220.868 36.9854 220.868 35.9249V4.90265C220.868 3.84215 221.398 3.31191 222.459 3.31191H229.484C234.521 3.17941 237.702 5.43315 237.702 10.4709ZM233.063 11.3989C233.063 8.34965 231.737 7.28915 229.086 7.28915H225.375V19.7509H229.086C231.605 19.7509 233.063 18.6904 233.063 15.7737V11.3989Z" fill="black"/>
<path d="M278.13 29.4277L276.937 36.0562C276.805 36.9842 276.142 37.5145 275.215 37.5145H274.022C272.962 37.5145 272.432 36.8517 272.565 35.7912L278.795 4.63647C278.927 3.70847 279.59 3.17822 280.517 3.17822H283.3C284.227 3.17822 284.89 3.70847 285.022 4.63647L291.252 35.7912C291.517 36.9842 290.855 37.5145 289.795 37.5145H288.337C287.41 37.5145 286.747 36.9842 286.615 36.0562L285.42 29.4277H278.13ZM285.555 29.4277L284.89 25.583L281.842 9.01147L278.795 25.583L277.997 29.4277" fill="black"/>
<path d="M345.335 25.3189V30.6216C345.335 35.7921 342.153 37.9131 336.985 37.9131H336.853C331.683 37.9131 328.5 35.7921 328.5 30.6216V10.0729C328.5 5.16787 331.683 2.78137 336.853 2.78137H336.985C342.153 2.78137 345.335 5.03512 345.335 10.0729V14.5804C345.335 15.6409 344.805 16.1714 343.745 16.1714H342.418C341.358 16.1714 340.827 15.6409 340.827 14.5804V11.0009C340.827 7.95187 339.503 6.89112 337.118 6.89112C334.598 6.89112 333.405 7.95187 333.405 11.0009V29.8261C333.405 32.8754 334.73 33.9359 337.118 33.9359C339.635 33.9359 340.827 32.8754 340.827 29.8261V25.3189C340.827 24.2581 341.358 23.7279 342.418 23.7279H343.745C344.805 23.7279 345.335 24.2581 345.335 25.3189Z" fill="black"/>
<path d="M395.435 18.022H392.253H391.988H389.338H389.073H385.89C384.83 18.022 384.3 18.5522 384.3 19.613V20.541C384.3 21.6015 384.83 22.1317 385.89 22.1317H389.073H389.338H391.988H392.253H395.435C396.495 22.1317 397.025 21.6015 397.025 20.541V19.7455C397.025 18.685 396.495 18.022 395.435 18.022Z" fill="black"/>
<path d="M397.025 33.5309H393.447H392.255H390.53H389.337H385.76C384.7 33.5309 384.167 34.0614 384.167 35.1219V35.9174C384.167 36.9779 384.7 37.5081 385.76 37.5081H389.337H393.58H397.157C398.22 37.5081 398.75 36.9779 398.75 35.9174V35.1219C398.75 34.0614 398.087 33.5309 397.025 33.5309Z" fill="black"/>
<path d="M396.898 3.18115H393.453H389.21H385.765C384.705 3.18115 384.173 3.71166 384.173 4.77216V5.56766C384.173 6.62816 384.705 7.1584 385.765 7.1584H389.21H390.403H392.128H393.32H396.765C397.825 7.1584 398.358 6.62816 398.358 5.56766V4.77216C398.49 3.84416 397.958 3.18115 396.898 3.18115Z" fill="black"/>
</svg>
