<svg width="850" height="500" viewBox="0 0 850 500" fill="none" xmlns="http://www.w3.org/2000/svg">
<g clip-path="url(#clip0_560_897)">
<path d="M850 0H0V500H850V0Z" fill="white"/>
<path d="M0 0L850 144.954V367.431L350.779 500L0 0Z" fill="url(#paint0_linear_560_897)"/>
<g filter="url(#filter0_f_560_897)">
<path d="M645.412 289.807L427.063 361.927L335.32 223.394L523.394 203.211L645.412 289.807Z" fill="#024280" fill-opacity="0.1"/>
</g>
<path d="M701.743 261.236L457.431 281.026L386.631 163.235L587.248 147.323L701.743 261.236Z" fill="#E4F2FE"/>
<path d="M639.604 320.209C639.242 320.209 638.863 320.209 638.492 320.209L638.509 318.563C638.871 318.563 639.242 318.571 639.596 318.563C640.856 318.563 642.132 318.538 643.4 318.489L643.466 320.135C642.173 320.184 640.872 320.217 639.596 320.217L639.604 320.209ZM633.52 320.02C631.865 319.921 630.193 319.773 628.555 319.583L628.744 317.946C630.35 318.126 631.988 318.275 633.618 318.373L633.52 320.02ZM648.447 319.797L648.299 318.16C649.921 318.011 651.559 317.822 653.165 317.583L653.403 319.213C651.773 319.452 650.11 319.641 648.455 319.797H648.447ZM623.623 318.892C621.992 318.62 620.346 318.299 618.724 317.946L619.078 316.34C620.667 316.694 622.289 317.007 623.887 317.271L623.614 318.892H623.623ZM658.303 318.382L657.981 316.769C659.587 316.456 661.192 316.093 662.757 315.698L663.16 317.295C661.563 317.698 659.933 318.06 658.303 318.39V318.382ZM613.891 316.752C612.302 316.315 610.696 315.822 609.124 315.303L609.643 313.739C611.191 314.249 612.763 314.735 614.327 315.163L613.891 316.752ZM667.96 315.945L667.475 314.372C669.031 313.895 670.587 313.369 672.11 312.809L672.678 314.356C671.122 314.925 669.541 315.46 667.96 315.945ZM604.439 313.599C602.892 312.99 601.351 312.339 599.845 311.656L600.528 310.158C602.002 310.825 603.525 311.467 605.04 312.068L604.439 313.599ZM677.305 312.521L676.655 311.006C678.146 310.372 679.644 309.681 681.101 308.972L681.826 310.454C680.344 311.179 678.82 311.879 677.305 312.521ZM595.366 309.483C593.9 308.726 592.435 307.919 591.002 307.08L591.834 305.655C593.241 306.479 594.682 307.277 596.123 308.017L595.366 309.483ZM686.238 308.149L685.44 306.709C686.857 305.918 688.272 305.087 689.648 304.223L690.52 305.622C689.121 306.503 687.671 307.351 686.238 308.149ZM586.77 304.453C585.387 303.548 584.012 302.584 582.678 301.614L583.649 300.288C584.959 301.251 586.309 302.19 587.668 303.079L586.761 304.453H586.77ZM694.67 302.881L693.723 301.531C695.057 300.601 696.382 299.621 697.659 298.625L698.671 299.926C697.37 300.938 696.028 301.935 694.67 302.881ZM578.734 298.56C577.458 297.514 576.181 296.419 574.955 295.307L576.059 294.089C577.26 295.184 578.512 296.254 579.771 297.283L578.725 298.56H578.734ZM702.516 296.757L701.437 295.514C702.665 294.451 703.883 293.34 705.052 292.213L706.189 293.398C704.994 294.542 703.751 295.67 702.508 296.749L702.516 296.757ZM571.348 291.867C570.18 290.698 569.026 289.48 567.924 288.245L569.15 287.141C570.237 288.351 571.365 289.545 572.518 290.698L571.348 291.859V291.867ZM709.696 289.858L708.494 288.73C709.605 287.545 710.709 286.318 711.754 285.075L713.014 286.138C711.952 287.397 710.832 288.648 709.696 289.849V289.858ZM564.696 284.458C563.659 283.174 562.637 281.84 561.666 280.506L563 279.536C563.955 280.844 564.959 282.153 565.981 283.421L564.704 284.458H564.696ZM716.135 282.26L714.825 281.264C715.814 279.971 716.777 278.638 717.691 277.296L719.049 278.226C718.119 279.593 717.131 280.951 716.135 282.269V282.26ZM558.834 276.407C558.101 275.288 557.392 274.135 556.709 272.991L558.126 272.151C558.792 273.279 559.492 274.407 560.209 275.51L558.826 276.407H558.834ZM721.759 274.037L720.35 273.181C721.198 271.797 722.022 270.365 722.795 268.933L724.245 269.715C723.454 271.171 722.623 272.628 721.759 274.037ZM726.501 265.27L725.01 264.561C725.71 263.088 726.377 261.582 727.003 260.083L728.526 260.709C727.892 262.24 727.217 263.771 726.501 265.27ZM730.313 256.049L728.765 255.498C729.308 253.967 729.811 252.403 730.271 250.838L731.852 251.308C731.383 252.897 730.864 254.485 730.313 256.049ZM733.136 246.501L731.531 246.114C731.91 244.533 732.256 242.928 732.552 241.323L734.174 241.627C733.87 243.257 733.524 244.895 733.136 246.501ZM734.957 236.713L733.326 236.499C733.54 234.893 733.714 233.256 733.845 231.634L735.483 231.765C735.351 233.412 735.17 235.083 734.957 236.713ZM718.086 171.252C717.181 169.903 716.225 168.56 715.254 167.269L716.571 166.281C717.559 167.598 718.531 168.964 719.453 170.338L718.086 171.26V171.252ZM712.215 163.432C711.17 162.181 710.083 160.947 708.98 159.76L710.19 158.641C711.31 159.851 712.413 161.111 713.475 162.379L712.207 163.432H712.215ZM569.587 160.353L568.368 159.242C569.48 158.015 570.64 156.805 571.818 155.645L572.979 156.814C571.826 157.958 570.69 159.143 569.587 160.346V160.353ZM705.571 156.254C704.41 155.118 703.2 153.998 701.981 152.928L703.068 151.693C704.312 152.788 705.538 153.925 706.724 155.077L705.571 156.254ZM576.544 153.463L575.448 152.237C576.676 151.134 577.96 150.056 579.245 149.01L580.274 150.294C579.005 151.315 577.746 152.385 576.536 153.463H576.544ZM698.218 149.792C696.942 148.78 695.625 147.792 694.3 146.853L695.255 145.512C696.596 146.466 697.938 147.471 699.239 148.5L698.218 149.792ZM584.168 147.323L583.204 145.989C584.547 145.017 585.93 144.071 587.314 143.173L588.211 144.557C586.852 145.438 585.493 146.368 584.168 147.323ZM690.232 144.112C688.848 143.239 687.441 142.392 686.025 141.593L686.832 140.16C688.264 140.968 689.705 141.832 691.104 142.721L690.224 144.112H690.232ZM592.385 141.996L591.562 140.572C593.003 139.741 594.477 138.942 595.942 138.202L596.692 139.667C595.25 140.399 593.802 141.19 592.385 142.004V141.996ZM681.703 139.288C680.245 138.564 678.747 137.864 677.256 137.214L677.914 135.707C679.43 136.366 680.953 137.073 682.435 137.815L681.703 139.288ZM601.113 137.551L600.446 136.045C601.952 135.37 603.501 134.727 605.048 134.135L605.641 135.674C604.126 136.259 602.603 136.893 601.121 137.551H601.113ZM672.711 135.378C671.188 134.81 669.624 134.267 668.076 133.781L668.57 132.209C670.15 132.711 671.739 133.254 673.288 133.838L672.711 135.378ZM610.252 134.044L609.741 132.481C611.305 131.97 612.911 131.493 614.517 131.064L614.945 132.653C613.364 133.082 611.783 133.55 610.252 134.044ZM663.366 132.431C661.802 132.027 660.196 131.649 658.599 131.327L658.928 129.715C660.559 130.044 662.189 130.422 663.778 130.842L663.366 132.439V132.431ZM619.703 131.501L619.358 129.887C620.964 129.541 622.618 129.237 624.257 128.973L624.521 130.595C622.907 130.85 621.293 131.155 619.703 131.493V131.501ZM653.774 130.471C652.169 130.233 650.538 130.027 648.916 129.871L649.081 128.233C650.727 128.397 652.391 128.603 654.021 128.85L653.774 130.48V130.471ZM629.362 129.953L629.189 128.315C630.827 128.142 632.499 128.002 634.154 127.912L634.244 129.558C632.614 129.649 630.976 129.781 629.362 129.953ZM644.034 129.516C642.544 129.451 641.045 129.41 639.563 129.41H639.143L639.135 127.763H639.563C641.07 127.763 642.602 127.796 644.116 127.871L644.042 129.516H644.034Z" fill="#64F9BF"/>
<path d="M399.671 208.535C399.128 208.535 398.592 208.528 398.049 208.503L398.107 206.856C399.713 206.914 401.351 206.881 402.948 206.757L403.072 208.396C401.952 208.478 400.8 208.528 399.663 208.528L399.671 208.535ZM393.044 208.041C391.389 207.795 389.725 207.449 388.12 207.013L388.548 205.424C390.096 205.843 391.693 206.173 393.29 206.411L393.052 208.041H393.044ZM408.069 207.737L407.757 206.123C409.337 205.818 410.918 205.424 412.45 204.946L412.944 206.518C411.346 207.02 409.7 207.432 408.061 207.745L408.069 207.737ZM383.345 205.432C381.788 204.815 380.257 204.107 378.775 203.317L379.548 201.868C380.973 202.625 382.446 203.308 383.946 203.901L383.345 205.432ZM374.485 200.698C373.11 199.752 371.768 198.715 370.508 197.612L371.587 196.369C372.797 197.422 374.09 198.427 375.415 199.34L374.485 200.698ZM366.911 194.105C365.782 192.87 364.712 191.562 363.724 190.211L365.057 189.24C366.004 190.54 367.034 191.8 368.121 192.985L366.911 194.096V194.105ZM361.007 185.988C360.183 184.531 359.435 183.017 358.776 181.485L360.29 180.843C360.916 182.325 361.641 183.782 362.439 185.182L361.007 185.996V185.988ZM357.079 176.752C356.601 175.147 356.215 173.5 355.927 171.854L357.548 171.566C357.829 173.154 358.199 174.735 358.66 176.274L357.079 176.744V176.752ZM355.334 166.865C355.277 165.951 355.252 165.021 355.252 164.107C355.252 163.351 355.268 162.585 355.309 161.844L356.956 161.927C356.923 162.642 356.899 163.384 356.899 164.107C356.899 164.988 356.923 165.885 356.98 166.767L355.334 166.865ZM442.016 157.876C441.786 156.279 441.457 154.682 441.045 153.135L442.634 152.715C443.062 154.329 443.4 155.983 443.638 157.638L442.008 157.876H442.016ZM357.467 157.11L355.845 156.847C356.116 155.201 356.487 153.546 356.939 151.941L358.52 152.394C358.084 153.941 357.722 155.53 357.467 157.118V157.11ZM439.538 148.533C438.953 147.035 438.27 145.553 437.521 144.137L438.978 143.363C439.76 144.837 440.468 146.376 441.069 147.932L439.538 148.533ZM360.11 147.808L358.586 147.183C359.22 145.635 359.961 144.112 360.768 142.647L362.209 143.446C361.426 144.853 360.727 146.318 360.11 147.808ZM435.018 139.988C434.103 138.654 433.116 137.371 432.062 136.152L433.305 135.073C434.401 136.333 435.429 137.675 436.376 139.058L435.018 139.988ZM364.786 139.338L363.444 138.383C364.415 137.025 365.469 135.699 366.59 134.456L367.816 135.56C366.737 136.762 365.724 138.029 364.794 139.338H364.786ZM428.694 132.67C427.509 131.575 426.249 130.538 424.957 129.591L425.928 128.266C427.279 129.254 428.579 130.332 429.806 131.46L428.686 132.67H428.694ZM371.241 132.143L370.146 130.917C371.398 129.806 372.724 128.751 374.081 127.788L375.028 129.13C373.719 130.052 372.443 131.073 371.233 132.143H371.241ZM420.889 126.949C419.49 126.151 418.032 125.418 416.558 124.784L417.209 123.269C418.74 123.928 420.255 124.685 421.712 125.517L420.897 126.949H420.889ZM379.137 126.562L378.346 125.121C379.813 124.315 381.344 123.59 382.883 122.956L383.509 124.479C382.019 125.088 380.553 125.788 379.137 126.562ZM411.997 123.129C410.449 122.668 408.868 122.29 407.288 122.001L407.576 120.38C409.223 120.676 410.868 121.072 412.474 121.549L411.997 123.129ZM388.087 122.915L387.642 121.327C389.256 120.873 390.902 120.511 392.557 120.248L392.821 121.87C391.232 122.125 389.643 122.471 388.095 122.907L388.087 122.915ZM402.479 121.417C400.865 121.31 399.226 121.302 397.637 121.376L397.564 119.729C399.218 119.647 400.914 119.663 402.594 119.771L402.487 121.417H402.479Z" fill="#64F9BF"/>
<path d="M440.863 180.785L439.34 180.168C439.686 179.312 440.015 178.423 440.303 177.534L441.867 178.052C441.563 178.974 441.225 179.896 440.863 180.785ZM443.168 173.195L441.555 172.858C441.884 171.286 442.122 169.672 442.271 168.067L443.91 168.216C443.753 169.886 443.506 171.558 443.168 173.187V173.195ZM442.444 163.227C442.41 161.614 442.288 159.992 442.073 158.394L443.703 158.181C443.926 159.836 444.057 161.523 444.09 163.193L442.444 163.227Z" fill="#64F9BF"/>
<path d="M505.59 326.227C504.594 326.029 503.606 325.816 502.618 325.593L502.799 324.786C503.779 325.008 504.767 325.215 505.755 325.412L505.59 326.218V326.227ZM497.801 324.424C496.212 324.013 494.607 323.56 493.034 323.083L493.273 322.292C494.838 322.762 496.435 323.214 498.016 323.626L497.81 324.424H497.801ZM488.317 321.576C486.753 321.04 485.188 320.481 483.656 319.896L483.953 319.123C485.476 319.699 487.032 320.259 488.588 320.794L488.325 321.576H488.317ZM479.054 318.061C477.522 317.418 475.999 316.744 474.525 316.052L474.871 315.303C476.345 315.986 477.86 316.653 479.375 317.295L479.054 318.052V318.061ZM470.063 313.896C468.902 313.303 467.724 312.685 466.58 312.06L465.691 311.574L466.087 310.85L466.976 311.336C468.12 311.952 469.281 312.57 470.442 313.155L470.071 313.887L470.063 313.896ZM461.41 309.063C459.944 308.15 458.561 307.219 457.285 306.297L457.77 305.63C459.03 306.544 460.405 307.458 461.855 308.363L461.418 309.063H461.41ZM439.014 309.03C437.73 309.03 436.437 308.973 435.169 308.85L435.243 308.026C436.857 308.174 438.504 308.232 440.126 308.183L440.151 309.006C439.772 309.014 439.393 309.022 439.014 309.022V309.03ZM445.115 308.57L444.992 307.754C446.614 307.507 448.22 307.153 449.759 306.709L449.989 307.499C448.409 307.952 446.77 308.315 445.115 308.562V308.57ZM430.238 308.1C428.616 307.754 427.002 307.31 425.429 306.775L425.693 305.993C427.233 306.519 428.813 306.956 430.402 307.294L430.23 308.1H430.238ZM454.683 305.804L454.354 305.054C455.054 304.741 455.737 304.412 456.396 304.067C457.161 303.672 457.919 303.235 458.66 302.766L459.096 303.466C458.339 303.943 457.556 304.388 456.774 304.799C456.099 305.153 455.399 305.491 454.683 305.804ZM420.819 304.882C419.311 304.157 417.855 303.334 416.471 302.437L416.916 301.745C418.266 302.626 419.699 303.425 421.173 304.14L420.81 304.882H420.819ZM453.382 303.202C452.089 302.074 450.888 300.906 449.809 299.729L450.418 299.169C451.48 300.321 452.657 301.474 453.925 302.576L453.382 303.194V303.202ZM463.139 300.518L462.611 299.893C463.846 298.856 465.032 297.712 466.119 296.502L466.729 297.053C465.609 298.288 464.399 299.457 463.139 300.518ZM412.462 299.473C411.136 298.362 409.917 297.201 408.855 296.007L409.473 295.456C410.51 296.617 411.688 297.752 412.988 298.831L412.462 299.465V299.473ZM446.697 295.835C445.742 294.46 444.901 293.003 444.177 291.513L444.918 291.151C445.618 292.599 446.441 294.016 447.371 295.357L446.697 295.827V295.835ZM469.832 293.143L469.157 292.673C470.079 291.332 470.928 289.924 471.66 288.484L472.393 288.862C471.643 290.336 470.779 291.776 469.832 293.143ZM405.875 291.99C405.166 290.813 404.582 289.595 404.129 288.368C404.014 288.055 403.899 287.743 403.783 287.439L404.557 287.158C404.665 287.462 404.779 287.775 404.895 288.08C405.332 289.258 405.899 290.427 406.575 291.562L405.866 291.983L405.875 291.99ZM442.374 286.845C441.896 285.207 441.575 283.552 441.419 281.931L442.242 281.857C442.39 283.429 442.703 285.034 443.165 286.623L442.374 286.853V286.845ZM474.369 284.277L473.595 284.006C474.139 282.466 474.575 280.877 474.896 279.305L475.703 279.47C475.374 281.084 474.929 282.705 474.377 284.285L474.369 284.277ZM402.235 282.729C401.758 281.124 401.321 279.511 400.951 277.939L401.75 277.75C402.121 279.313 402.54 280.91 403.018 282.499L402.227 282.738L402.235 282.729ZM442.308 277.017L441.493 276.918C441.599 276.037 441.765 275.156 441.987 274.3C442.177 273.542 442.423 272.785 442.711 272.036L443.477 272.332C443.197 273.04 442.966 273.773 442.786 274.497C442.579 275.321 442.423 276.169 442.316 277.017H442.308ZM476.329 274.506L475.505 274.464C475.53 273.921 475.546 273.386 475.546 272.851C475.546 271.756 475.488 270.67 475.374 269.599L476.188 269.509C476.304 270.604 476.362 271.723 476.362 272.843C476.362 273.395 476.345 273.946 476.321 274.506H476.329ZM399.988 273.065C399.716 271.418 399.502 269.756 399.345 268.142L400.169 268.069C400.317 269.665 400.532 271.304 400.803 272.933L399.988 273.065ZM445.782 268.093L445.115 267.616C446.079 266.265 447.207 265.007 448.475 263.878L449.018 264.495C447.799 265.583 446.713 266.793 445.782 268.093ZM474.295 264.932C474.098 264.479 473.866 264.051 473.62 263.664C473.043 262.775 472.277 261.994 471.339 261.335L471.817 260.66C472.838 261.376 473.677 262.24 474.311 263.212C474.591 263.64 474.838 264.101 475.053 264.595L474.295 264.924V264.932ZM399.082 263.179C399.082 262.866 399.082 262.553 399.082 262.24C399.082 260.898 399.123 259.54 399.214 258.207L400.037 258.264C399.946 259.573 399.905 260.915 399.905 262.24C399.905 262.545 399.905 262.858 399.905 263.162L399.082 263.179ZM452.962 261.689L452.558 260.973C454.041 260.15 455.597 259.491 457.186 259.021L457.416 259.812C455.885 260.264 454.387 260.89 452.962 261.689ZM466.976 259.45C466.309 259.294 465.609 259.17 464.9 259.096C464.003 258.997 463.081 258.973 462.184 259.013L462.151 258.19C463.098 258.149 464.053 258.182 464.991 258.281C465.732 258.363 466.465 258.486 467.165 258.651L466.976 259.45ZM400.572 253.391L399.757 253.267C400.012 251.621 400.342 249.983 400.737 248.395L401.535 248.592C401.149 250.156 400.82 251.777 400.572 253.391ZM402.935 243.891L402.153 243.619C402.697 242.063 403.314 240.508 403.998 239.002L404.746 239.34C404.08 240.821 403.462 242.352 402.935 243.891ZM406.962 234.968L406.245 234.564C407.052 233.132 407.933 231.708 408.872 230.341L409.555 230.803C408.632 232.152 407.768 233.552 406.97 234.968H406.962ZM412.478 226.868L411.836 226.349C412.865 225.073 413.968 223.822 415.112 222.612L415.714 223.18C414.586 224.373 413.499 225.617 412.478 226.868ZM419.221 219.747L418.669 219.138C419.888 218.035 421.165 216.956 422.474 215.936L422.984 216.586C421.691 217.598 420.432 218.661 419.23 219.747H419.221ZM426.936 213.672L426.466 212.997C427.833 212.051 429.233 211.137 430.616 210.281L431.044 210.98C429.669 211.819 428.287 212.725 426.928 213.672H426.936ZM435.31 208.543L434.922 207.819C436.396 207.037 437.895 206.296 439.377 205.621L439.714 206.37C438.249 207.037 436.766 207.762 435.31 208.543ZM444.251 204.494L443.963 203.719C445.51 203.135 447.099 202.608 448.672 202.147L448.903 202.938C447.347 203.398 445.782 203.918 444.243 204.494H444.251ZM453.662 201.719L453.489 200.913C455.103 200.559 456.749 200.271 458.379 200.031L458.495 200.847C456.881 201.077 455.251 201.365 453.662 201.711V201.719ZM478.074 200.92C476.444 200.69 474.806 200.509 473.192 200.385L473.249 199.562C474.879 199.686 476.543 199.867 478.189 200.097L478.074 200.913V200.92ZM463.377 200.344L463.32 199.521C464.843 199.422 466.391 199.365 467.931 199.365H468.285V200.188H467.931C466.408 200.188 464.876 200.238 463.377 200.336V200.344Z" fill="#063359"/>
<path d="M530.742 194.558L530.816 195.331L530.964 194.92C530.89 194.796 530.825 194.673 530.742 194.558Z" fill="#0085FD"/>
<path d="M530.742 194.558L530.816 195.331L530.964 194.92C530.89 194.796 530.825 194.673 530.742 194.558Z" fill="white"/>
<path d="M555.5 166.461C555.64 166.223 555.772 165.984 555.871 165.738C555.763 165.984 555.64 166.223 555.5 166.461Z" fill="white"/>
<path d="M512.406 129.462C510.989 128.244 509.804 127.231 508.676 126.203L509.228 125.594C510.347 126.606 511.525 127.627 512.932 128.837L512.398 129.462H512.406ZM505.111 122.745C503.868 121.428 502.831 120.169 501.932 118.893L502.608 118.415C503.481 119.658 504.502 120.884 505.712 122.177L505.111 122.745ZM499.446 114.546C498.763 113.015 498.261 111.459 497.898 109.78L498.705 109.607C499.059 111.228 499.545 112.735 500.204 114.208L499.454 114.546H499.446ZM497.281 104.824C497.265 104.347 497.248 103.87 497.248 103.375C497.248 102.248 497.298 101.054 497.405 99.8358L498.228 99.9101C498.129 101.104 498.071 102.272 498.071 103.375C498.071 103.853 498.079 104.33 498.104 104.792L497.281 104.824ZM498.887 95.0532L498.079 94.9046L498.137 94.5917C498.384 93.2587 499.043 91.6614 499.949 90.2043L500.648 90.6406C499.792 92.0156 499.175 93.5138 498.944 94.7486L498.887 95.0615V95.0532ZM503.753 86.9774L503.21 86.36C504.461 85.2652 505.885 84.3349 507.432 83.6188L507.778 84.3679C506.297 85.0593 504.946 85.9402 503.744 86.9857L503.753 86.9774ZM526.847 83.9234C525.209 83.4789 523.603 83.1249 522.064 82.8861L522.188 82.0712C523.752 82.3182 525.39 82.6721 527.062 83.1249L526.847 83.9151V83.9234ZM512.381 82.8944L512.225 82.0877C513.732 81.7995 515.354 81.6514 517.025 81.6514H517.222L517.214 82.4746H517.033C515.411 82.4746 513.847 82.6145 512.389 82.8944H512.381Z" fill="#063359"/>
<mask id="mask0_560_897" style="mask-type:luminance" maskUnits="userSpaceOnUse" x="583" y="145" width="8" height="52">
<path d="M583.041 191.177L590.825 196.034V150.59L583.041 145.733V191.177Z" fill="white"/>
</mask>
<g mask="url(#mask0_560_897)">
<path d="M590.825 145.733H583.041V196.034H590.825V145.733Z" fill="url(#paint1_linear_560_897)"/>
</g>
<mask id="mask1_560_897" style="mask-type:luminance" maskUnits="userSpaceOnUse" x="478" y="145" width="9" height="52">
<path d="M478.898 150.59V196.034L486.684 191.177V145.733L478.898 150.59Z" fill="white"/>
</mask>
<g mask="url(#mask1_560_897)">
<path d="M486.684 145.733H478.898V196.034H486.684V145.733Z" fill="url(#paint2_linear_560_897)"/>
</g>
<path d="M516.986 195.583L552.735 217.834V208.158L519.255 187.299L516.986 188.73V195.583Z" fill="#2BEDA7"/>
<mask id="mask2_560_897" style="mask-type:luminance" maskUnits="userSpaceOnUse" x="478" y="124" width="113" height="113">
<path d="M590.825 124.771H478.898V236.697H590.825V124.771Z" fill="white"/>
</mask>
<g mask="url(#mask2_560_897)">
<path d="M554.796 230.711L517.022 207.179V216.855L527.111 223.142L514.962 230.71C514.158 231.238 514.158 232.48 514.962 233.006L520.897 236.696L534.896 227.999L548.896 236.696L554.831 233.006C555.599 232.48 555.599 231.238 554.796 230.71" fill="#2BEDA7"/>
</g>
<mask id="mask3_560_897" style="mask-type:luminance" maskUnits="userSpaceOnUse" x="583" y="167" width="8" height="48">
<path d="M583.041 172.84V213.127C583.041 214.143 584.054 214.783 584.891 214.257L590.197 210.943C590.581 210.717 590.825 210.266 590.825 209.815V167.984L583.041 172.841V172.84Z" fill="white"/>
</mask>
<g mask="url(#mask3_560_897)">
<path d="M590.825 167.984H583.041V214.783H590.825V167.984Z" fill="url(#paint3_linear_560_897)"/>
</g>
<mask id="mask4_560_897" style="mask-type:luminance" maskUnits="userSpaceOnUse" x="565" y="178" width="9" height="48">
<path d="M565.934 183.496V223.783C565.934 224.799 566.946 225.402 567.784 224.912L572.812 221.787C573.369 221.448 573.719 220.77 573.719 220.055V178.639L565.934 183.496Z" fill="white"/>
</mask>
<g mask="url(#mask4_560_897)">
<path d="M573.719 178.639H565.934V225.402H573.719V178.639Z" fill="url(#paint4_linear_560_897)"/>
</g>
<mask id="mask5_560_897" style="mask-type:luminance" maskUnits="userSpaceOnUse" x="548" y="189" width="9" height="48">
<path d="M548.863 194.115V236.697L556.019 232.254C556.404 232.028 556.649 231.576 556.649 231.125V189.295L548.863 194.115Z" fill="white"/>
</mask>
<g mask="url(#mask5_560_897)">
<path d="M556.649 189.295H548.863V236.697H556.649V189.295Z" fill="url(#paint5_linear_560_897)"/>
</g>
<mask id="mask6_560_897" style="mask-type:luminance" maskUnits="userSpaceOnUse" x="513" y="189" width="8" height="48">
<path d="M513.076 231.086C513.111 231.577 513.321 231.991 513.705 232.254L520.861 236.697V194.115L513.076 189.258V231.086Z" fill="white"/>
</mask>
<g mask="url(#mask6_560_897)">
<path d="M520.861 189.258H513.076V236.696H520.861V189.258Z" fill="url(#paint6_linear_560_897)"/>
</g>
<mask id="mask7_560_897" style="mask-type:luminance" maskUnits="userSpaceOnUse" x="496" y="178" width="8" height="48">
<path d="M496.006 220.094C496.006 220.771 496.355 221.449 496.914 221.788L501.942 224.913C502.744 225.44 503.792 224.8 503.792 223.783V183.497L496.006 178.64V220.095V220.094Z" fill="white"/>
</mask>
<g mask="url(#mask7_560_897)">
<path d="M503.792 178.64H496.006V225.439H503.792V178.64Z" fill="url(#paint7_linear_560_897)"/>
</g>
<mask id="mask8_560_897" style="mask-type:luminance" maskUnits="userSpaceOnUse" x="478" y="167" width="9" height="48">
<path d="M478.898 209.438C478.898 210.152 479.247 210.793 479.842 211.131L484.869 214.257C485.671 214.784 486.719 214.144 486.719 213.127V172.84L478.898 167.984V209.438Z" fill="white"/>
</mask>
<g mask="url(#mask8_560_897)">
<path d="M486.719 167.984H478.898V214.783H486.719V167.984Z" fill="url(#paint8_linear_560_897)"/>
</g>
<mask id="mask9_560_897" style="mask-type:luminance" maskUnits="userSpaceOnUse" x="478" y="124" width="113" height="113">
<path d="M590.825 124.771H478.898V236.697H590.825V124.771Z" fill="white"/>
</mask>
<g mask="url(#mask9_560_897)">
<path d="M590.826 150.59L583.041 145.771L569.041 154.43L559.72 148.632L571.869 141.064C572.673 140.537 572.673 139.296 571.869 138.768L566.841 135.642C566.284 135.304 565.586 135.304 564.992 135.642L551.935 143.775L542.614 137.977L554.798 130.447C555.601 129.919 555.601 128.677 554.798 128.15L549.771 125.025C549.211 124.686 548.513 124.686 547.92 125.025L534.864 133.158L521.771 125.025C521.212 124.686 520.515 124.686 519.921 125.025L514.894 128.15C514.09 128.677 514.09 129.919 514.894 130.447L583.006 172.841L590.791 167.985L576.792 159.287L590.826 150.59Z" fill="#2BEDA7"/>
<path d="M502.848 135.643L497.821 138.768C497.018 139.296 497.018 140.538 497.821 141.064L565.934 183.46L573.719 178.603L504.699 135.643C504.14 135.304 503.442 135.304 502.848 135.643Z" fill="#2BEDA7"/>
<path d="M478.898 150.589L492.897 159.286L478.898 167.984L486.684 172.84L500.684 164.106L510.005 169.941L496.005 178.64L503.79 183.459L517.755 174.761L527.076 180.559L513.112 189.295L520.863 194.114L534.862 185.416L548.826 194.114L556.612 189.295L486.684 145.733L478.898 150.589Z" fill="#2BEDA7"/>
</g>
<path d="M571.905 58.7156H527.6C527.051 58.7156 526.605 59.1543 526.605 59.6944V98.5284C526.605 99.0679 527.051 99.5073 527.6 99.5073H560.828C561.378 99.5073 561.079 99.0679 561.079 98.5284C561.079 97.9881 561.378 97.5495 560.828 97.5495H528.594V66.1236H570.91V76.2197L571.905 78.7896L572.899 79.11V59.6944C572.899 59.1543 572.454 58.7156 571.905 58.7156ZM528.594 60.6733H554.296V64.1659H528.594V60.6733ZM556.285 60.6733H559.834V64.1659H556.285V60.6733ZM561.823 60.6733H565.372V64.1659H561.823V60.6733ZM567.361 64.1659V60.6733H570.91V64.1659H567.361Z" fill="#063359"/>
<path d="M571.906 99.5073H566.368C565.818 99.5073 565.96 99.0697 565.96 98.5284C565.96 97.9871 565.818 97.5495 566.368 97.5495H570.91V81.1674L571.906 78.8484L572.9 79.0131V98.5275C572.9 99.0678 572.455 99.5073 571.906 99.5073Z" fill="#063359"/>
<path d="M563.416 69.6875C558.191 69.6875 553.939 73.8706 553.939 79.0131C553.939 83.8858 557.756 87.8981 562.602 88.3048V92.1614C562.602 92.7017 563.047 93.1403 563.596 93.1403C564.145 93.1403 564.591 92.7017 564.591 92.1614V88.2683C569.263 87.697 572.892 83.7639 572.892 79.0131C572.892 73.8706 568.64 69.6875 563.416 69.6875ZM563.416 86.3819C559.287 86.3819 555.928 83.0761 555.928 79.0131C555.928 74.9501 559.287 71.6451 563.416 71.6451C567.543 71.6451 570.903 74.9509 570.903 79.0131C570.903 83.0752 567.544 86.3819 563.416 86.3819Z" fill="#0085FD"/>
<path d="M566.366 104.276H560.828C560.279 104.276 559.834 103.838 559.834 103.297V92.3964C559.834 91.8551 560.279 91.4175 560.828 91.4175H566.366C566.917 91.4175 567.362 91.8551 567.362 92.3964V103.297C567.362 103.838 566.917 104.276 566.366 104.276ZM561.823 102.318H565.372V93.3753H561.823V102.318Z" fill="#063359"/>
<path d="M551.495 73.0877L542.495 69.6813C542.265 69.5942 542.011 69.5942 541.781 69.6813L532.782 73.0877C532.385 73.2381 532.13 73.618 532.145 74.0354C532.16 74.4527 532.441 74.8149 532.846 74.9368L534.914 75.5633V80.4485C534.914 80.873 535.19 81.2485 535.599 81.3793L541.83 83.3797C541.93 83.4117 542.034 83.4278 542.138 83.4278C542.241 83.4278 542.347 83.4117 542.447 83.3797L548.677 81.3793C549.085 81.2485 549.363 80.873 549.363 80.4485V75.5633L551.43 74.9368C551.835 74.8149 552.117 74.4527 552.131 74.0354C552.146 73.618 551.89 73.2381 551.495 73.0877ZM542.138 71.6444L548.096 73.8983L542.138 75.703L536.181 73.8983L542.138 71.6444ZM547.374 79.7384L542.138 81.4193L536.903 79.7384V76.1656L541.846 77.6624C541.941 77.6909 542.04 77.706 542.138 77.706C542.237 77.706 542.335 77.6909 542.43 77.6624L547.374 76.1656V79.7384Z" fill="#0085FD"/>
<path d="M545.655 88.6065H533.137C532.588 88.6065 532.143 88.1687 532.143 87.6277C532.143 87.0867 532.588 86.6489 533.137 86.6489H545.655C546.205 86.6489 546.65 87.0867 546.65 87.6277C546.65 88.1687 546.205 88.6065 545.655 88.6065Z" fill="#0085FD"/>
<path d="M553.208 88.6065H550.44C549.889 88.6065 549.445 88.1687 549.445 87.6277C549.445 87.0867 549.889 86.6489 550.44 86.6489H553.208C553.758 86.6489 554.203 87.0867 554.203 87.6277C554.203 88.1687 553.757 88.6065 553.208 88.6065Z" fill="#063359"/>
<path d="M553.208 94.0569H550.44C549.889 94.0569 549.445 93.6193 549.445 93.078C549.445 92.5367 549.889 92.0991 550.44 92.0991H553.208C553.758 92.0991 554.203 92.5367 554.203 93.078C554.203 93.6193 553.757 94.0569 553.208 94.0569Z" fill="#0085FD"/>
<path d="M545.655 94.0569H533.137C532.588 94.0569 532.143 93.6193 532.143 93.078C532.143 92.5367 532.588 92.0991 533.137 92.0991H545.655C546.205 92.0991 546.65 92.5367 546.65 93.078C546.65 93.6193 546.205 94.0569 545.655 94.0569Z" fill="#063359"/>
<path d="M565.879 77.0245H561.313C560.763 77.0245 560.318 76.5858 560.318 76.0457C560.318 75.5055 560.763 75.0669 561.313 75.0669H565.879C566.428 75.0669 566.873 75.5055 566.873 76.0457C566.873 76.5858 566.428 77.0245 565.879 77.0245Z" fill="#063359"/>
<path d="M565.879 82.4747H561.313C560.763 82.4747 560.318 82.0369 560.318 81.4959C560.318 80.9549 560.763 80.5171 561.313 80.5171H565.879C566.428 80.5171 566.873 80.9557 566.873 81.4959C566.873 82.036 566.428 82.4747 565.879 82.4747Z" fill="#063359"/>
<path d="M553.557 315.484C553.007 315.484 552.562 315.922 552.562 316.461V333.232H510.246V308.906C510.246 308.447 510.625 308.075 511.09 308.075H531.404C531.954 308.075 532.399 307.638 532.399 307.096C532.399 306.555 531.954 306.117 531.404 306.117H511.09C509.528 306.117 508.257 307.369 508.257 308.906C508.253 312.715 508.26 336.247 508.257 339.462C508.257 341 509.529 342.25 511.09 342.25H526.421V347.246H525.641C524.324 347.296 524.318 349.151 525.641 349.204H537.168C538.485 349.154 538.49 347.298 537.168 347.246H536.387V342.25H551.719C553.281 342.25 554.552 340.999 554.552 339.462V316.461C554.552 315.921 554.106 315.484 553.557 315.484ZM534.398 347.247H528.41V342.251H534.398V347.247ZM552.562 339.462C552.562 339.92 552.184 340.293 551.719 340.293H511.09C510.624 340.293 510.246 339.92 510.246 339.462V335.19H552.562V339.462Z" fill="#063359"/>
<path d="M535.25 320.231C534.346 320.236 533.903 319.111 534.595 318.516L537.834 315.726C538.016 315.569 538.248 315.483 538.488 315.483H552.563V305.627H532.4V317.172C532.4 317.712 531.955 318.15 531.406 318.15C530.855 318.15 530.41 317.712 530.41 317.172V304.649C530.41 304.108 530.856 303.67 531.406 303.67H553.558C554.107 303.67 554.552 304.108 554.552 304.649V316.462C554.552 317.002 554.107 317.441 553.558 317.441H538.862L535.905 319.99C535.716 320.152 535.482 320.231 535.25 320.231Z" fill="#0085FD"/>
<path d="M537.894 311.461C536.464 311.437 536.681 309.272 538.089 309.523C539.239 309.72 539.062 311.489 537.894 311.461Z" fill="#0085FD"/>
<path d="M542.518 311.462C541.089 311.436 541.307 309.272 542.713 309.523C543.865 309.719 543.687 311.49 542.518 311.462Z" fill="#0085FD"/>
<path d="M547.141 311.461C545.972 311.489 545.794 309.719 546.947 309.523C548.355 309.274 548.57 311.435 547.141 311.461Z" fill="#0085FD"/>
<path d="M534.524 326.156C538.975 323.152 536.874 316.234 531.404 316.193C525.934 316.234 523.832 323.152 528.284 326.156C526.519 327.202 525.336 329.105 525.336 331.275V334.211C525.336 334.752 525.782 335.19 526.33 335.19H536.477C537.027 335.19 537.472 334.752 537.472 334.211V331.275C537.472 329.105 536.289 327.202 534.524 326.156ZM531.404 318.15C533.364 318.15 534.959 319.72 534.959 321.65C534.764 326.291 528.044 326.29 527.849 321.65C527.849 319.72 529.444 318.15 531.404 318.15ZM535.483 333.231H527.325V331.274C527.325 329.061 529.155 327.261 531.404 327.261C533.652 327.261 535.483 329.061 535.483 331.274V333.231Z" fill="#063359"/>
<path d="M739.376 189.751C739.096 189.751 738.83 189.581 738.726 189.303L737.181 185.223L735.622 189.306C735.485 189.663 735.084 189.842 734.726 189.706C734.366 189.57 734.186 189.17 734.323 188.812L736.417 183.328C736.417 183.328 736.421 183.317 736.424 183.312C736.551 183.004 736.849 182.804 737.183 182.804C737.518 182.804 737.816 183.003 737.942 183.311C737.944 183.317 737.948 183.323 737.95 183.329L740.025 188.814C740.162 189.172 739.98 189.573 739.62 189.706C739.54 189.737 739.457 189.751 739.376 189.751Z" fill="#0085FD"/>
<path d="M738.732 188.385H735.624C735.241 188.385 734.93 188.076 734.93 187.693C734.93 187.31 735.241 187 735.624 187H738.732C739.116 187 739.427 187.31 739.427 187.693C739.427 188.076 739.116 188.385 738.732 188.385Z" fill="#0085FD"/>
<path d="M730.337 189.704C729.716 189.704 729.678 189.698 729.629 189.689C729.296 189.632 729.051 189.344 729.051 189.006V183.449C729.051 183.066 729.362 182.756 729.745 182.756C730.13 182.756 730.44 183.066 730.44 183.449V188.317C730.802 188.317 731.264 188.315 731.694 188.314H731.698C732.08 188.314 732.39 188.621 732.393 189.003C732.395 189.386 732.085 189.698 731.701 189.7C731.067 189.704 730.633 189.705 730.334 189.705L730.337 189.704Z" fill="#0085FD"/>
<path d="M724.563 190.029C723.652 190.029 722.792 189.678 722.188 189.056C721.921 188.781 721.928 188.341 722.204 188.076C722.48 187.809 722.921 187.817 723.187 188.092C723.538 188.454 724.08 188.66 724.634 188.641C725.174 188.625 725.544 188.289 725.589 187.976C725.649 187.559 725.079 187.323 724.832 187.241C723.956 186.951 723.179 186.637 723.146 186.623C723.112 186.608 723.078 186.593 723.047 186.574C722.448 186.21 722.123 185.551 722.201 184.852C722.283 184.107 722.807 183.485 723.567 183.229C725.075 182.722 726.361 183.71 726.415 183.752C726.717 183.989 726.769 184.425 726.533 184.726C726.297 185.026 725.862 185.079 725.561 184.845C725.54 184.83 724.793 184.28 724.013 184.542C723.658 184.662 723.594 184.905 723.582 185.004C723.575 185.074 723.575 185.246 723.733 185.362C723.931 185.441 724.578 185.696 725.271 185.925C726.692 186.396 727.079 187.395 726.966 188.173C726.815 189.208 725.855 189.989 724.68 190.027C724.642 190.028 724.602 190.029 724.563 190.029Z" fill="#0085FD"/>
<path d="M736.537 198.427H723.543C722.888 198.427 722.355 197.896 722.355 197.243C722.355 196.59 722.888 196.06 723.543 196.06H736.537C737.192 196.06 737.723 196.59 737.723 197.243C737.723 197.896 737.192 198.427 736.537 198.427Z" fill="#0085FD"/>
<path d="M736.537 204.989H723.543C722.888 204.989 722.355 204.458 722.355 203.806C722.355 203.152 722.888 202.622 723.543 202.622H736.537C737.192 202.622 737.723 203.152 737.723 203.806C737.723 204.458 737.192 204.989 736.537 204.989Z" fill="#0085FD"/>
<path d="M745.194 211.55H723.543C722.888 211.55 722.355 211.019 722.355 210.366C722.355 209.713 722.888 209.183 723.543 209.183H745.194C745.849 209.183 746.38 209.713 746.38 210.366C746.38 211.019 745.849 211.55 745.194 211.55Z" fill="#0085FD"/>
<path d="M740.923 218.112H723.543C722.888 218.112 722.355 217.582 722.355 216.928C722.355 216.274 722.888 215.745 723.543 215.745H740.922C741.577 215.745 742.109 216.275 742.109 216.928C742.109 217.582 741.577 218.112 740.922 218.112H740.923Z" fill="#0085FD"/>
<path d="M751.392 222.8C751.077 222.8 750.776 222.675 750.552 222.453L747.309 219.218C746.845 218.756 746.845 218.007 747.309 217.545C747.772 217.083 748.524 217.083 748.987 217.545L751.392 219.942L755.989 215.358C756.453 214.895 757.204 214.895 757.668 215.358C758.131 215.82 758.131 216.569 757.668 217.031L752.231 222.453C752.008 222.675 751.706 222.8 751.392 222.8Z" fill="#0085FD"/>
<path d="M758.174 207.822V191.494C758.174 190.34 757.69 189.15 756.86 188.319L746.028 177.471C745.188 176.629 744.022 176.147 742.831 176.147H719.173C716.696 176.147 714.68 178.158 714.68 180.628V221.275C714.68 223.747 716.696 225.757 719.173 225.757H742.524C744.743 229.052 748.514 231.225 752.785 231.225C759.596 231.225 765.138 225.699 765.138 218.905C765.138 214.038 762.292 209.822 758.174 207.822ZM754.131 188.941H745.4V180.196L754.131 188.941ZM719.173 223.39C718.004 223.39 717.053 222.441 717.053 221.275V180.628C717.053 179.462 718.004 178.514 719.173 178.514H742.831C742.897 178.514 742.961 178.517 743.026 178.524V190.126C743.026 190.779 743.557 191.309 744.213 191.309H755.793C755.798 191.371 755.802 191.433 755.802 191.495V206.96C754.836 206.717 753.826 206.588 752.785 206.588C745.974 206.588 740.432 212.115 740.432 218.907C740.432 220.489 740.733 222.002 741.28 223.393H719.173V223.39ZM752.785 228.859C747.283 228.859 742.805 224.394 742.805 218.905C742.805 213.417 747.281 208.952 752.785 208.952C758.289 208.952 762.765 213.417 762.765 218.905C762.765 224.394 758.289 228.859 752.785 228.859Z" fill="#063359"/>
</g>
<defs>
<filter id="filter0_f_560_897" x="305.32" y="173.211" width="370.092" height="218.716" filterUnits="userSpaceOnUse" color-interpolation-filters="sRGB">
<feFlood flood-opacity="0" result="BackgroundImageFix"/>
<feBlend mode="normal" in="SourceGraphic" in2="BackgroundImageFix" result="shape"/>
<feGaussianBlur stdDeviation="15" result="effect1_foregroundBlur_560_897"/>
</filter>
<linearGradient id="paint0_linear_560_897" x1="209.645" y1="113.761" x2="815.99" y2="352.343" gradientUnits="userSpaceOnUse">
<stop stop-color="#D4FDED" stop-opacity="0"/>
<stop offset="0.451127" stop-color="#D4FDED" stop-opacity="0.65"/>
<stop offset="1" stop-color="#D4FDED" stop-opacity="0"/>
</linearGradient>
<linearGradient id="paint1_linear_560_897" x1="586.588" y1="145.214" x2="586.588" y2="195.481" gradientUnits="userSpaceOnUse">
<stop stop-color="#2BEDA7"/>
<stop offset="1" stop-color="#018AFD"/>
</linearGradient>
<linearGradient id="paint2_linear_560_897" x1="482.46" y1="145.211" x2="482.46" y2="195.478" gradientUnits="userSpaceOnUse">
<stop stop-color="#2BEDA7"/>
<stop offset="1" stop-color="#018AFD"/>
</linearGradient>
<linearGradient id="paint3_linear_560_897" x1="585.86" y1="166.216" x2="585.86" y2="212.692" gradientUnits="userSpaceOnUse">
<stop stop-color="#2BEDA7"/>
<stop offset="1" stop-color="#018AFD"/>
</linearGradient>
<linearGradient id="paint4_linear_560_897" x1="569.448" y1="177.975" x2="569.448" y2="224.434" gradientUnits="userSpaceOnUse">
<stop stop-color="#2BEDA7"/>
<stop offset="1" stop-color="#018AFD"/>
</linearGradient>
<linearGradient id="paint5_linear_560_897" x1="553.4" y1="190.403" x2="553.4" y2="237.77" gradientUnits="userSpaceOnUse">
<stop stop-color="#2BEDA7"/>
<stop offset="1" stop-color="#018AFD"/>
</linearGradient>
<linearGradient id="paint6_linear_560_897" x1="516.089" y1="187.829" x2="516.089" y2="235.238" gradientUnits="userSpaceOnUse">
<stop stop-color="#2BEDA7"/>
<stop offset="1" stop-color="#018AFD"/>
</linearGradient>
<linearGradient id="paint7_linear_560_897" x1="500.987" y1="180.465" x2="500.987" y2="226.892" gradientUnits="userSpaceOnUse">
<stop stop-color="#2BEDA7"/>
<stop offset="1" stop-color="#018AFD"/>
</linearGradient>
<linearGradient id="paint8_linear_560_897" x1="481.733" y1="166.218" x2="481.733" y2="212.694" gradientUnits="userSpaceOnUse">
<stop stop-color="#2BEDA7"/>
<stop offset="1" stop-color="#018AFD"/>
</linearGradient>
<clipPath id="clip0_560_897">
<rect width="850" height="500" fill="white"/>
</clipPath>
</defs>
</svg>
