<svg width="931" height="545" viewBox="0 0 931 545" fill="none" xmlns="http://www.w3.org/2000/svg">
<rect width="930.5" height="545" fill="white"/>
<path d="M0 0L930.5 158V400.5L384 545L0 0Z" fill="url(#paint0_linear_236_921)"/>
<g filter="url(#filter0_f_236_921)">
<path d="M703.5 315.89L465.5 394.5L365.5 243.5L570.5 221.5L703.5 315.89Z" fill="#024280" fill-opacity="0.1"/>
</g>
<path d="M764.9 284.747L498.6 306.318L421.428 177.926L640.101 160.582L764.9 284.747Z" fill="#E4F2FE"/>
<path d="M697.168 349.028C696.773 349.028 696.36 349.028 695.956 349.028L695.974 347.234C696.369 347.234 696.773 347.243 697.159 347.234C698.532 347.234 699.923 347.207 701.305 347.153L701.377 348.947C699.968 349.001 698.55 349.037 697.159 349.037L697.168 349.028ZM690.536 348.822C688.732 348.714 686.91 348.553 685.124 348.346L685.33 346.561C687.081 346.758 688.866 346.92 690.643 347.027L690.536 348.822ZM706.806 348.579L706.645 346.794C708.413 346.632 710.199 346.426 711.949 346.166L712.209 347.942C710.432 348.203 708.619 348.409 706.815 348.579H706.806ZM679.748 347.592C677.971 347.296 676.176 346.946 674.408 346.561L674.794 344.811C676.526 345.197 678.294 345.538 680.036 345.825L679.739 347.592H679.748ZM717.549 347.036L717.199 345.278C718.949 344.937 720.699 344.542 722.404 344.111L722.844 345.852C721.103 346.291 719.326 346.686 717.549 347.045V347.036ZM669.14 345.26C667.408 344.784 665.658 344.246 663.944 343.68L664.51 341.976C666.197 342.532 667.911 343.061 669.616 343.528L669.14 345.26ZM728.076 344.38L727.547 342.666C729.243 342.146 730.939 341.572 732.599 340.962L733.218 342.648C731.522 343.268 729.799 343.851 728.076 344.38ZM658.838 341.823C657.151 341.159 655.472 340.45 653.83 339.705L654.575 338.072C656.181 338.799 657.842 339.499 659.493 340.154L658.838 341.823ZM738.262 340.648L737.553 338.997C739.178 338.306 740.811 337.552 742.399 336.78L743.189 338.395C741.574 339.185 739.913 339.948 738.262 340.648ZM648.948 337.337C647.35 336.511 645.753 335.632 644.191 334.717L645.098 333.164C646.632 334.062 648.203 334.932 649.773 335.739L648.948 337.337ZM747.999 335.883L747.129 334.313C748.673 333.451 750.216 332.545 751.715 331.603L752.666 333.128C751.141 334.088 749.561 335.013 747.999 335.883ZM639.578 331.854C638.071 330.867 636.572 329.817 635.118 328.759L636.177 327.314C637.604 328.364 639.076 329.387 640.557 330.356L639.569 331.854H639.578ZM757.189 330.14L756.157 328.669C757.611 327.655 759.056 326.587 760.447 325.501L761.551 326.919C760.133 328.023 758.67 329.109 757.189 330.14ZM630.819 325.43C629.428 324.29 628.037 323.097 626.7 321.885L627.903 320.557C629.213 321.751 630.577 322.917 631.95 324.039L630.81 325.43H630.819ZM765.742 323.465L764.566 322.11C765.904 320.952 767.232 319.741 768.506 318.512L769.745 319.804C768.443 321.051 767.088 322.28 765.733 323.456L765.742 323.465ZM622.769 318.135C621.495 316.861 620.238 315.533 619.036 314.187L620.373 312.984C621.558 314.303 622.787 315.604 624.044 316.861L622.769 318.126V318.135ZM773.568 315.945L772.258 314.716C773.469 313.424 774.672 312.087 775.811 310.732L777.185 311.89C776.027 313.263 774.806 314.626 773.568 315.936V315.945ZM615.518 310.059C614.387 308.66 613.274 307.206 612.215 305.752L613.669 304.694C614.71 306.12 615.805 307.547 616.918 308.929L615.527 310.059H615.518ZM780.586 307.664L779.159 306.578C780.236 305.169 781.286 303.716 782.282 302.253L783.763 303.267C782.749 304.756 781.672 306.237 780.586 307.673V307.664ZM609.128 301.284C608.329 300.064 607.557 298.807 606.812 297.56L608.356 296.645C609.083 297.874 609.846 299.104 610.627 300.306L609.119 301.284H609.128ZM786.716 298.7L785.181 297.767C786.105 296.259 787.003 294.698 787.846 293.137L789.426 293.989C788.564 295.577 787.658 297.165 786.716 298.7ZM791.885 289.144L790.26 288.372C791.023 286.766 791.75 285.124 792.432 283.491L794.093 284.173C793.402 285.842 792.666 287.511 791.885 289.144ZM796.04 279.094L794.353 278.493C794.945 276.824 795.493 275.119 795.995 273.414L797.718 273.926C797.207 275.658 796.641 277.389 796.04 279.094ZM799.118 268.686L797.368 268.264C797.781 266.541 798.158 264.792 798.481 263.042L800.249 263.374C799.917 265.15 799.54 266.936 799.118 268.686ZM801.102 258.017L799.325 257.784C799.558 256.034 799.747 254.249 799.89 252.481L801.676 252.624C801.532 254.419 801.335 256.241 801.102 258.017ZM782.713 186.665C781.726 185.194 780.685 183.731 779.626 182.323L781.062 181.246C782.139 182.682 783.198 184.171 784.203 185.669L782.713 186.674V186.665ZM776.314 178.141C775.174 176.777 773.99 175.432 772.787 174.139L774.106 172.919C775.327 174.238 776.529 175.611 777.687 176.993L776.305 178.141H776.314ZM620.849 174.785L619.52 173.574C620.732 172.237 621.997 170.918 623.281 169.653L624.546 170.927C623.29 172.174 622.051 173.466 620.849 174.777V174.785ZM769.072 170.317C767.806 169.079 766.487 167.858 765.159 166.692L766.343 165.346C767.699 166.539 769.036 167.778 770.328 169.034L769.072 170.317ZM628.432 167.275L627.238 165.938C628.576 164.736 629.976 163.561 631.376 162.421L632.498 163.821C631.115 164.933 629.742 166.1 628.423 167.275H628.432ZM761.057 163.273C759.666 162.17 758.23 161.093 756.786 160.07L757.827 158.608C759.289 159.648 760.752 160.743 762.17 161.865L761.057 163.273ZM636.742 160.582L635.692 159.128C637.155 158.069 638.663 157.037 640.171 156.059L641.149 157.567C639.668 158.527 638.187 159.541 636.742 160.582ZM752.352 157.082C750.844 156.131 749.31 155.207 747.766 154.336L748.646 152.775C750.207 153.655 751.778 154.597 753.303 155.566L752.343 157.082H752.352ZM645.699 154.776L644.802 153.224C646.372 152.318 647.979 151.447 649.576 150.64L650.393 152.237C648.822 153.035 647.243 153.897 645.699 154.785V154.776ZM743.055 151.824C741.466 151.035 739.833 150.272 738.208 149.563L738.926 147.921C740.578 148.639 742.238 149.41 743.853 150.218L743.055 151.824ZM655.212 149.931L654.485 148.289C656.127 147.553 657.815 146.853 659.502 146.207L660.148 147.885C658.497 148.522 656.836 149.213 655.221 149.931H655.212ZM733.254 147.562C731.594 146.943 729.889 146.351 728.202 145.821L728.74 144.108C730.463 144.655 732.195 145.247 733.883 145.884L733.254 147.562ZM665.174 146.108L664.617 144.404C666.322 143.847 668.072 143.327 669.823 142.86L670.289 144.592C668.566 145.059 666.843 145.57 665.174 146.108ZM723.068 144.35C721.363 143.91 719.613 143.497 717.872 143.147L718.231 141.389C720.008 141.748 721.785 142.16 723.517 142.618L723.068 144.359V144.35ZM675.476 143.336L675.1 141.577C676.85 141.2 678.653 140.868 680.439 140.581L680.727 142.349C678.968 142.627 677.209 142.959 675.476 143.327V143.336ZM712.613 142.214C710.863 141.954 709.086 141.73 707.318 141.559L707.498 139.774C709.292 139.953 711.105 140.177 712.882 140.447L712.613 142.223V142.214ZM686.004 141.649L685.815 139.863C687.601 139.675 689.423 139.522 691.227 139.424L691.325 141.218C689.548 141.317 687.763 141.461 686.004 141.649ZM701.996 141.173C700.372 141.102 698.738 141.057 697.123 141.057H696.665L696.656 139.262H697.123C698.765 139.262 700.435 139.298 702.086 139.379L702.005 141.173H701.996Z" fill="#64F9BF"/>
<path d="M435.642 227.303C435.05 227.303 434.466 227.295 433.874 227.268L433.937 225.473C435.687 225.536 437.473 225.5 439.214 225.365L439.349 227.151C438.128 227.241 436.872 227.295 435.633 227.295L435.642 227.303ZM428.418 226.765C426.614 226.496 424.801 226.119 423.051 225.644L423.518 223.912C425.205 224.369 426.946 224.728 428.687 224.988L428.427 226.765H428.418ZM444.796 226.433L444.455 224.674C446.178 224.342 447.901 223.912 449.571 223.391L450.109 225.105C448.368 225.652 446.573 226.101 444.787 226.442L444.796 226.433ZM417.846 223.921C416.149 223.248 414.48 222.476 412.865 221.615L413.708 220.036C415.261 220.861 416.867 221.606 418.501 222.252L417.846 223.921ZM408.189 218.761C406.69 217.73 405.227 216.599 403.854 215.397L405.03 214.042C406.349 215.19 407.758 216.285 409.203 217.281L408.189 218.761ZM399.933 211.574C398.703 210.228 397.536 208.802 396.459 207.33L397.913 206.271C398.945 207.689 400.067 209.062 401.252 210.354L399.933 211.565V211.574ZM393.498 202.727C392.6 201.139 391.784 199.488 391.066 197.819L392.717 197.119C393.399 198.734 394.189 200.322 395.059 201.848L393.498 202.736V202.727ZM389.217 192.66C388.696 190.91 388.275 189.115 387.961 187.321L389.728 187.007C390.034 188.738 390.437 190.461 390.94 192.139L389.217 192.651V192.66ZM387.314 181.883C387.252 180.887 387.225 179.873 387.225 178.877C387.225 178.052 387.243 177.217 387.287 176.41L389.082 176.5C389.046 177.28 389.02 178.088 389.02 178.877C389.02 179.837 389.046 180.815 389.109 181.776L387.314 181.883ZM481.798 172.085C481.547 170.344 481.188 168.603 480.739 166.917L482.471 166.459C482.938 168.218 483.306 170.021 483.566 171.825L481.789 172.085H481.798ZM389.639 171.25L387.871 170.963C388.167 169.169 388.571 167.365 389.064 165.616L390.787 166.109C390.312 167.796 389.917 169.528 389.639 171.259V171.25ZM479.097 161.901C478.459 160.268 477.715 158.653 476.898 157.109L478.486 156.266C479.339 157.872 480.111 159.55 480.766 161.246L479.097 161.901ZM392.52 161.111L390.859 160.429C391.55 158.742 392.358 157.082 393.238 155.485L394.808 156.356C393.955 157.89 393.193 159.487 392.52 161.111ZM474.17 152.587C473.173 151.133 472.097 149.734 470.948 148.406L472.303 147.23C473.497 148.603 474.618 150.066 475.65 151.573L474.17 152.587ZM397.617 151.878L396.154 150.837C397.213 149.357 398.362 147.912 399.583 146.557L400.92 147.76C399.744 149.07 398.64 150.452 397.626 151.878H397.617ZM467.277 144.61C465.985 143.417 464.612 142.286 463.203 141.254L464.262 139.81C465.734 140.887 467.152 142.062 468.489 143.291L467.268 144.61H467.277ZM404.653 144.036L403.459 142.699C404.824 141.488 406.269 140.339 407.749 139.289L408.781 140.752C407.354 141.757 405.963 142.869 404.644 144.036H404.653ZM458.769 138.374C457.244 137.504 455.655 136.705 454.049 136.014L454.758 134.363C456.427 135.081 458.078 135.907 459.667 136.813L458.778 138.374H458.769ZM413.26 137.952L412.398 136.382C413.996 135.503 415.665 134.713 417.343 134.022L418.025 135.682C416.401 136.346 414.803 137.109 413.26 137.952ZM449.077 134.211C447.39 133.708 445.667 133.296 443.944 132.981L444.258 131.214C446.053 131.537 447.847 131.968 449.597 132.488L449.077 134.211ZM423.015 133.977L422.53 132.246C424.289 131.752 426.084 131.357 427.888 131.07L428.175 132.838C426.443 133.116 424.711 133.493 423.024 133.968L423.015 133.977ZM438.702 132.344C436.943 132.228 435.157 132.219 433.425 132.3L433.345 130.505C435.148 130.415 436.997 130.433 438.828 130.55L438.711 132.344H438.702Z" fill="#64F9BF"/>
<path d="M480.541 197.056L478.881 196.383C479.258 195.45 479.617 194.481 479.931 193.512L481.636 194.077C481.304 195.082 480.936 196.087 480.541 197.056ZM483.054 188.783L481.295 188.415C481.654 186.702 481.914 184.943 482.076 183.193L483.862 183.355C483.691 185.176 483.422 186.998 483.054 188.774V188.783ZM482.264 177.917C482.228 176.159 482.094 174.391 481.86 172.65L483.637 172.417C483.88 174.221 484.023 176.06 484.059 177.881L482.264 177.917Z" fill="#64F9BF"/>
<path d="M551.094 355.587C550.008 355.372 548.931 355.139 547.854 354.896L548.052 354.017C549.12 354.259 550.197 354.484 551.274 354.699L551.094 355.578V355.587ZM542.604 353.622C540.872 353.174 539.122 352.68 537.408 352.16L537.668 351.298C539.374 351.81 541.115 352.303 542.838 352.752L542.613 353.622H542.604ZM532.266 350.518C530.561 349.934 528.855 349.324 527.186 348.687L527.509 347.844C529.17 348.472 530.866 349.082 532.562 349.665L532.275 350.518H532.266ZM522.169 346.686C520.5 345.986 518.84 345.251 517.233 344.497L517.61 343.68C519.217 344.425 520.868 345.152 522.519 345.852L522.169 346.677V346.686ZM512.369 342.146C511.104 341.5 509.82 340.827 508.573 340.145L507.604 339.616L508.035 338.826L509.004 339.356C510.251 340.028 511.517 340.701 512.782 341.339L512.378 342.137L512.369 342.146ZM502.937 336.879C501.34 335.883 499.832 334.869 498.441 333.864L498.97 333.137C500.343 334.133 501.842 335.129 503.422 336.116L502.946 336.879H502.937ZM478.526 336.843C477.126 336.843 475.717 336.78 474.335 336.646L474.416 335.748C476.175 335.91 477.97 335.973 479.738 335.919L479.765 336.816C479.352 336.825 478.939 336.834 478.526 336.834V336.843ZM485.176 336.341L485.042 335.452C486.81 335.183 488.56 334.797 490.238 334.313L490.489 335.174C488.766 335.668 486.98 336.063 485.176 336.332V336.341ZM468.96 335.829C467.192 335.452 465.433 334.968 463.718 334.385L464.006 333.532C465.684 334.106 467.407 334.582 469.139 334.95L468.951 335.829H468.96ZM495.605 333.326L495.246 332.509C496.009 332.168 496.754 331.809 497.472 331.433C498.306 331.002 499.132 330.526 499.94 330.015L500.415 330.778C499.59 331.298 498.737 331.783 497.884 332.231C497.148 332.617 496.386 332.985 495.605 333.326ZM458.693 332.321C457.05 331.531 455.462 330.634 453.954 329.656L454.439 328.902C455.911 329.862 457.472 330.733 459.079 331.513L458.684 332.321H458.693ZM494.187 330.49C492.778 329.261 491.468 327.987 490.292 326.704L490.956 326.094C492.114 327.35 493.397 328.606 494.779 329.808L494.187 330.481V330.49ZM504.822 327.565L504.247 326.883C505.593 325.753 506.886 324.506 508.07 323.187L508.735 323.788C507.514 325.134 506.195 326.408 504.822 327.565ZM449.584 326.426C448.139 325.214 446.81 323.949 445.653 322.648L446.326 322.047C447.457 323.312 448.74 324.55 450.158 325.726L449.584 326.417V326.426ZM486.9 322.46C485.859 320.961 484.943 319.373 484.153 317.749L484.961 317.354C485.724 318.933 486.621 320.477 487.635 321.939L486.9 322.451V322.46ZM512.118 319.526L511.382 319.014C512.387 317.552 513.312 316.017 514.11 314.447L514.909 314.86C514.092 316.466 513.15 318.036 512.118 319.526ZM442.404 318.269C441.632 316.986 440.995 315.658 440.501 314.321C440.376 313.98 440.25 313.64 440.124 313.308L440.968 313.002C441.085 313.334 441.21 313.675 441.336 314.007C441.812 315.291 442.431 316.565 443.167 317.803L442.395 318.261L442.404 318.269ZM482.188 312.661C481.667 310.876 481.317 309.072 481.147 307.305L482.044 307.224C482.206 308.938 482.547 310.687 483.05 312.419L482.188 312.67V312.661ZM517.063 309.862L516.219 309.566C516.812 307.888 517.287 306.156 517.637 304.442L518.517 304.622C518.158 306.381 517.673 308.148 517.072 309.871L517.063 309.862ZM438.437 308.175C437.917 306.425 437.441 304.667 437.037 302.953L437.908 302.747C438.312 304.451 438.769 306.192 439.29 307.924L438.428 308.184L438.437 308.175ZM482.116 301.948L481.228 301.84C481.344 300.88 481.524 299.92 481.766 298.987C481.973 298.161 482.242 297.336 482.556 296.519L483.391 296.842C483.085 297.614 482.834 298.413 482.637 299.202C482.412 300.1 482.242 301.024 482.125 301.948H482.116ZM519.199 299.211L518.301 299.166C518.328 298.574 518.346 297.991 518.346 297.408C518.346 296.214 518.283 295.03 518.158 293.863L519.046 293.765C519.172 294.958 519.235 296.178 519.235 297.399C519.235 298 519.217 298.601 519.19 299.211H519.199ZM435.987 297.641C435.691 295.846 435.458 294.034 435.287 292.275L436.185 292.195C436.346 293.935 436.58 295.721 436.876 297.497L435.987 297.641ZM485.903 292.221L485.176 291.701C486.227 290.229 487.456 288.857 488.838 287.627L489.43 288.3C488.102 289.485 486.918 290.804 485.903 292.221ZM516.982 288.776C516.767 288.282 516.515 287.816 516.246 287.394C515.618 286.425 514.783 285.573 513.76 284.855L514.281 284.119C515.394 284.9 516.309 285.842 517 286.901C517.305 287.367 517.574 287.87 517.808 288.408L516.982 288.767V288.776ZM435 286.865C435 286.524 435 286.183 435 285.842C435 284.379 435.045 282.899 435.144 281.445L436.041 281.508C435.942 282.935 435.897 284.397 435.897 285.842C435.897 286.174 435.897 286.515 435.897 286.847L435 286.865ZM493.729 285.241L493.289 284.46C494.905 283.563 496.601 282.845 498.333 282.333L498.584 283.195C496.915 283.688 495.282 284.37 493.729 285.241ZM509.004 282.8C508.277 282.63 507.514 282.495 506.742 282.414C505.764 282.307 504.759 282.28 503.781 282.324L503.745 281.427C504.777 281.382 505.818 281.418 506.841 281.526C507.649 281.616 508.447 281.75 509.21 281.93L509.004 282.8ZM436.624 276.196L435.736 276.061C436.014 274.267 436.373 272.481 436.804 270.75L437.674 270.965C437.253 272.67 436.894 274.437 436.624 276.196ZM439.2 265.841L438.347 265.545C438.94 263.849 439.613 262.154 440.358 260.512L441.174 260.88C440.448 262.495 439.774 264.164 439.2 265.841ZM443.589 256.115L442.808 255.675C443.687 254.114 444.648 252.562 445.671 251.072L446.416 251.575C445.41 253.046 444.468 254.572 443.598 256.115H443.589ZM449.602 247.286L448.902 246.72C450.023 245.33 451.226 243.966 452.473 242.647L453.129 243.266C451.899 244.567 450.714 245.922 449.602 247.286ZM456.952 239.524L456.35 238.86C457.679 237.658 459.07 236.482 460.497 235.37L461.053 236.079C459.644 237.182 458.271 238.34 456.961 239.524H456.952ZM465.361 232.902L464.849 232.167C466.339 231.135 467.865 230.139 469.372 229.206L469.839 229.968C468.34 230.883 466.833 231.87 465.352 232.902H465.361ZM474.488 227.312L474.066 226.523C475.672 225.67 477.306 224.863 478.921 224.127L479.289 224.943C477.692 225.67 476.076 226.46 474.488 227.312ZM484.234 222.898L483.92 222.054C485.607 221.417 487.339 220.843 489.053 220.34L489.305 221.202C487.609 221.704 485.903 222.27 484.225 222.898H484.234ZM494.492 219.874L494.304 218.995C496.063 218.609 497.857 218.295 499.634 218.034L499.76 218.923C498.001 219.174 496.224 219.488 494.492 219.865V219.874ZM521.101 219.003C519.324 218.752 517.539 218.555 515.78 218.42L515.842 217.523C517.619 217.658 519.432 217.855 521.227 218.106L521.101 218.995V219.003ZM505.082 218.375L505.019 217.478C506.679 217.37 508.367 217.308 510.045 217.308H510.431V218.205H510.045C508.385 218.205 506.715 218.259 505.082 218.366V218.375Z" fill="#063359"/>
<path d="M578.508 212.068L578.589 212.911L578.75 212.463C578.669 212.328 578.598 212.193 578.508 212.068Z" fill="#0085FD"/>
<path d="M578.508 212.068L578.589 212.911L578.75 212.463C578.669 212.328 578.598 212.193 578.508 212.068Z" fill="white"/>
<path d="M605.494 181.443C605.647 181.183 605.79 180.923 605.898 180.654C605.781 180.923 605.647 181.183 605.494 181.443Z" fill="white"/>
<path d="M558.522 141.114C556.978 139.786 555.686 138.682 554.457 137.561L555.058 136.897C556.278 138 557.562 139.113 559.096 140.432L558.513 141.114H558.522ZM550.571 133.792C549.216 132.357 548.085 130.984 547.106 129.593L547.842 129.072C548.794 130.427 549.907 131.764 551.226 133.173L550.571 133.792ZM544.396 124.855C543.651 123.186 543.104 121.49 542.709 119.66L543.588 119.472C543.974 121.239 544.504 122.881 545.222 124.487L544.405 124.855H544.396ZM542.036 114.258C542.018 113.738 542 113.218 542 112.679C542 111.45 542.054 110.149 542.171 108.821L543.068 108.902C542.96 110.203 542.897 111.477 542.897 112.679C542.897 113.2 542.906 113.72 542.933 114.223L542.036 114.258ZM543.786 103.608L542.906 103.446L542.969 103.105C543.238 101.652 543.956 99.9109 544.944 98.3227L545.706 98.7983C544.773 100.297 544.1 101.93 543.849 103.276L543.786 103.617V103.608ZM549.09 94.8054L548.498 94.1324C549.862 92.9391 551.414 91.9251 553.101 91.1445L553.478 91.961C551.863 92.7147 550.391 93.6748 549.081 94.8144L549.09 94.8054ZM574.263 91.4765C572.477 90.992 570.727 90.6061 569.049 90.3459L569.184 89.4576C570.889 89.7268 572.675 90.1126 574.497 90.6061L574.263 91.4675V91.4765ZM558.495 90.3549L558.325 89.4756C559.967 89.1615 561.735 89 563.557 89H563.772L563.763 89.8973H563.566C561.798 89.8973 560.093 90.0498 558.504 90.3549H558.495Z" fill="#063359"/>
<mask id="mask0_236_921" style="mask-type:luminance" maskUnits="userSpaceOnUse" x="635" y="158" width="9" height="56">
<path d="M635.514 208.383L643.999 213.677V164.143L635.514 158.849V208.383Z" fill="white"/>
</mask>
<g mask="url(#mask0_236_921)">
<path d="M643.999 158.849H635.514V213.677H643.999V158.849Z" fill="url(#paint1_linear_236_921)"/>
</g>
<mask id="mask1_236_921" style="mask-type:luminance" maskUnits="userSpaceOnUse" x="522" y="158" width="9" height="56">
<path d="M522 164.143V213.677L530.486 208.383V158.849L522 164.143Z" fill="white"/>
</mask>
<g mask="url(#mask1_236_921)">
<path d="M530.486 158.849H522V213.677H530.486V158.849Z" fill="url(#paint2_linear_236_921)"/>
</g>
<path d="M563.516 213.185L602.482 237.439V226.892L565.989 204.156L563.516 205.716V213.185Z" fill="#2BEDA7"/>
<mask id="mask2_236_921" style="mask-type:luminance" maskUnits="userSpaceOnUse" x="522" y="136" width="122" height="122">
<path d="M644 136H522V258H644V136Z" fill="white"/>
</mask>
<g mask="url(#mask2_236_921)">
<path d="M604.728 251.475L563.554 225.825V236.372L574.551 243.225L561.309 251.474C560.433 252.049 560.433 253.403 561.309 253.977L567.778 257.999L583.037 248.519L598.297 257.999L604.766 253.977C605.603 253.403 605.603 252.049 604.728 251.474" fill="#2BEDA7"/>
</g>
<mask id="mask3_236_921" style="mask-type:luminance" maskUnits="userSpaceOnUse" x="635" y="183" width="9" height="51">
<path d="M635.514 188.396V232.308C635.514 233.416 636.618 234.114 637.53 233.54L643.314 229.928C643.733 229.682 643.999 229.19 643.999 228.698V183.103L635.514 188.397V188.396Z" fill="white"/>
</mask>
<g mask="url(#mask3_236_921)">
<path d="M643.999 183.103H635.514V234.114H643.999V183.103Z" fill="url(#paint3_linear_236_921)"/>
</g>
<mask id="mask4_236_921" style="mask-type:luminance" maskUnits="userSpaceOnUse" x="616" y="194" width="10" height="52">
<path d="M616.867 200.011V243.924C616.867 245.031 617.971 245.688 618.884 245.154L624.364 241.748C624.972 241.378 625.353 240.639 625.353 239.86V194.717L616.867 200.011V200.011Z" fill="white"/>
</mask>
<g mask="url(#mask4_236_921)">
<path d="M625.353 194.717H616.867V245.688H625.353V194.717Z" fill="url(#paint4_linear_236_921)"/>
</g>
<mask id="mask5_236_921" style="mask-type:luminance" maskUnits="userSpaceOnUse" x="598" y="206" width="9" height="52">
<path d="M598.26 211.585V258L606.06 253.157C606.479 252.911 606.746 252.418 606.746 251.926V206.332L598.26 211.585Z" fill="white"/>
</mask>
<g mask="url(#mask5_236_921)">
<path d="M606.746 206.332H598.26V258H606.746V206.332Z" fill="url(#paint5_linear_236_921)"/>
</g>
<mask id="mask6_236_921" style="mask-type:luminance" maskUnits="userSpaceOnUse" x="559" y="206" width="9" height="52">
<path d="M559.254 251.884C559.292 252.419 559.521 252.87 559.939 253.157L567.74 258V211.585L559.254 206.291V251.885V251.884Z" fill="white"/>
</mask>
<g mask="url(#mask6_236_921)">
<path d="M567.74 206.291H559.254V257.999H567.74V206.291Z" fill="url(#paint6_linear_236_921)"/>
</g>
<mask id="mask7_236_921" style="mask-type:luminance" maskUnits="userSpaceOnUse" x="540" y="194" width="10" height="52">
<path d="M540.646 239.902C540.646 240.64 541.027 241.379 541.636 241.749L547.116 245.155C547.991 245.73 549.133 245.032 549.133 243.924V200.012L540.646 194.718V239.903V239.902Z" fill="white"/>
</mask>
<g mask="url(#mask7_236_921)">
<path d="M549.133 194.718H540.646V245.729H549.133V194.718Z" fill="url(#paint7_linear_236_921)"/>
</g>
<mask id="mask8_236_921" style="mask-type:luminance" maskUnits="userSpaceOnUse" x="522" y="183" width="9" height="51">
<path d="M522 228.287C522 229.066 522.38 229.764 523.028 230.133L528.508 233.54C529.382 234.115 530.524 233.417 530.524 232.308V188.396L522 183.103V228.287Z" fill="white"/>
</mask>
<g mask="url(#mask8_236_921)">
<path d="M530.524 183.103H522V234.114H530.524V183.103Z" fill="url(#paint8_linear_236_921)"/>
</g>
<mask id="mask9_236_921" style="mask-type:luminance" maskUnits="userSpaceOnUse" x="522" y="136" width="122" height="122">
<path d="M644 136H522V258H644V136Z" fill="white"/>
</mask>
<g mask="url(#mask9_236_921)">
<path d="M644.001 164.143L635.516 158.89L620.256 168.329L610.096 162.009L623.338 153.76C624.214 153.185 624.214 151.832 623.338 151.257L617.858 147.85C617.25 147.481 616.489 147.481 615.842 147.85L601.61 156.715L591.45 150.395L604.731 142.187C605.606 141.612 605.606 140.258 604.731 139.683L599.251 136.277C598.641 135.908 597.88 135.908 597.234 136.277L583.002 145.142L568.731 136.277C568.122 135.908 567.362 135.908 566.715 136.277L561.235 139.683C560.359 140.258 560.359 141.612 561.235 142.187L635.477 188.397L643.963 183.103L628.704 173.623L644.001 164.143Z" fill="#2BEDA7"/>
<path d="M548.105 147.851L542.625 151.257C541.75 151.832 541.75 153.186 542.625 153.76L616.868 199.971L625.354 194.677L550.122 147.851C549.513 147.481 548.752 147.481 548.105 147.851Z" fill="#2BEDA7"/>
<path d="M522 164.142L537.259 173.622L522 183.102L530.486 188.396L545.746 178.875L555.906 185.236L540.646 194.717L549.132 199.97L564.354 190.489L574.514 196.809L559.293 206.331L567.741 211.584L583 202.103L598.221 211.584L606.708 206.331L530.486 158.849L522 164.142Z" fill="#2BEDA7"/>
</g>
<path d="M623.376 64H575.084C574.486 64 574 64.4782 574 65.0669V107.396C574 107.984 574.486 108.463 575.084 108.463H611.303C611.902 108.463 611.576 107.984 611.576 107.396C611.576 106.807 611.902 106.329 611.303 106.329H576.168V72.0747H622.292V83.0795L623.376 85.8807L624.46 86.2299V65.0669C624.46 64.4782 623.975 64 623.376 64ZM576.168 66.1339H604.183V69.9408H576.168V66.1339ZM606.351 66.1339H610.219V69.9408H606.351V66.1339ZM612.387 66.1339H616.256V69.9408H612.387V66.1339ZM618.424 69.9408V66.1339H622.292V69.9408H618.424Z" fill="#063359"/>
<path d="M623.378 108.463H617.342C616.743 108.463 616.897 107.986 616.897 107.396C616.897 106.806 616.743 106.329 617.342 106.329H622.293V88.4725L623.378 85.9448L624.462 86.1243V107.395C624.462 107.984 623.977 108.462 623.378 108.462V108.463Z" fill="#063359"/>
<path d="M614.124 75.9595C608.429 75.9595 603.795 80.5191 603.795 86.1244C603.795 91.4357 607.955 95.8091 613.237 96.2524V100.456C613.237 101.045 613.722 101.523 614.321 101.523C614.919 101.523 615.405 101.045 615.405 100.456V96.2126C620.498 95.5899 624.453 91.3028 624.453 86.1244C624.453 80.5191 619.819 75.9595 614.124 75.9595ZM614.124 94.1564C609.624 94.1564 605.963 90.5531 605.963 86.1244C605.963 81.6957 609.624 78.0933 614.124 78.0933C618.623 78.0933 622.285 81.6966 622.285 86.1244C622.285 90.5521 618.624 94.1564 614.124 94.1564Z" fill="#0085FD"/>
<path d="M617.339 113.661H611.303C610.704 113.661 610.219 113.183 610.219 112.594V100.712C610.219 100.122 610.704 99.645 611.303 99.645H617.339C617.939 99.645 618.424 100.122 618.424 100.712V112.594C618.424 113.183 617.939 113.661 617.339 113.661ZM612.387 111.527H616.255V101.779H612.387V111.527Z" fill="#063359"/>
<path d="M601.129 79.6655L591.319 75.9526C591.069 75.8576 590.792 75.8576 590.541 75.9526L580.732 79.6655C580.3 79.8295 580.022 80.2436 580.038 80.6985C580.054 81.1534 580.36 81.5482 580.802 81.6811L583.056 82.3639V87.6888C583.056 88.1515 583.357 88.5608 583.803 88.7034L590.594 90.8838C590.703 90.9187 590.817 90.9362 590.93 90.9362C591.043 90.9362 591.158 90.9187 591.267 90.8838L598.058 88.7034C598.503 88.5608 598.806 88.1515 598.806 87.6888V82.3639L601.059 81.6811C601.5 81.5482 601.807 81.1534 601.823 80.6985C601.839 80.2436 601.56 79.8295 601.129 79.6655ZM590.93 78.0923L597.424 80.5491L590.93 82.5162L584.437 80.5491L590.93 78.0923ZM596.637 86.9148L590.93 88.747L585.224 86.9148V83.0205L590.612 84.652C590.715 84.683 590.823 84.6995 590.93 84.6995C591.038 84.6995 591.145 84.683 591.249 84.652L596.637 83.0205V86.9148Z" fill="#0085FD"/>
<path d="M594.764 96.5811H581.119C580.521 96.5811 580.035 96.1039 580.035 95.5142C580.035 94.9245 580.521 94.4473 581.119 94.4473H594.764C595.363 94.4473 595.848 94.9245 595.848 95.5142C595.848 96.1039 595.363 96.5811 594.764 96.5811Z" fill="#0085FD"/>
<path d="M602.996 96.5811H599.979C599.379 96.5811 598.895 96.1039 598.895 95.5142C598.895 94.9245 599.379 94.4473 599.979 94.4473H602.996C603.596 94.4473 604.081 94.9245 604.081 95.5142C604.081 96.1039 603.595 96.5811 602.996 96.5811Z" fill="#063359"/>
<path d="M602.996 102.522H599.979C599.379 102.522 598.895 102.045 598.895 101.455C598.895 100.865 599.379 100.388 599.979 100.388H602.996C603.596 100.388 604.081 100.865 604.081 101.455C604.081 102.045 603.595 102.522 602.996 102.522Z" fill="#0085FD"/>
<path d="M594.764 102.522H581.119C580.521 102.522 580.035 102.045 580.035 101.455C580.035 100.865 580.521 100.388 581.119 100.388H594.764C595.363 100.388 595.848 100.865 595.848 101.455C595.848 102.045 595.363 102.522 594.764 102.522Z" fill="#063359"/>
<path d="M616.809 83.9566H611.832C611.233 83.9566 610.748 83.4784 610.748 82.8897C610.748 82.3009 611.233 81.8228 611.832 81.8228H616.809C617.408 81.8228 617.893 82.3009 617.893 82.8897C617.893 83.4784 617.408 83.9566 616.809 83.9566Z" fill="#063359"/>
<path d="M616.809 89.8975H611.832C611.233 89.8975 610.748 89.4203 610.748 88.8306C610.748 88.2409 611.233 87.7637 611.832 87.7637H616.809C617.408 87.7637 617.893 88.2418 617.893 88.8306C617.893 89.4193 617.408 89.8975 616.809 89.8975Z" fill="#063359"/>
<path d="M603.378 343.877C602.778 343.877 602.293 344.355 602.293 344.943V363.223H556.169V336.707C556.169 336.207 556.582 335.802 557.089 335.802H579.231C579.831 335.802 580.316 335.325 580.316 334.735C580.316 334.145 579.831 333.668 579.231 333.668H557.089C555.386 333.668 554.001 335.032 554.001 336.707C553.997 340.859 554.004 366.509 554.001 370.014C554.001 371.69 555.387 373.053 557.089 373.053H573.8V378.498H572.949C571.514 378.553 571.508 380.575 572.949 380.632H585.514C586.949 380.578 586.955 378.555 585.514 378.498H584.663V373.053H601.374C603.077 373.053 604.462 371.689 604.462 370.014V344.943C604.462 344.354 603.976 343.877 603.378 343.877ZM582.495 378.499H575.968V373.054H582.495V378.499ZM602.293 370.014C602.293 370.513 601.881 370.919 601.374 370.919H557.089C556.581 370.919 556.169 370.513 556.169 370.014V365.357H602.293V370.014Z" fill="#063359"/>
<path d="M583.421 349.052C582.436 349.057 581.953 347.831 582.707 347.182L586.238 344.141C586.436 343.97 586.689 343.877 586.951 343.877H602.293V333.134H580.315V345.717C580.315 346.306 579.83 346.784 579.231 346.784C578.631 346.784 578.146 346.306 578.146 345.717V332.067C578.146 331.478 578.632 331 579.231 331H603.377C603.976 331 604.461 331.478 604.461 332.067V344.944C604.461 345.532 603.976 346.011 603.377 346.011H587.359L584.135 348.789C583.929 348.966 583.674 349.052 583.421 349.052Z" fill="#0085FD"/>
<path d="M586.304 339.493C584.745 339.466 584.982 337.107 586.516 337.38C587.77 337.595 587.577 339.523 586.304 339.493Z" fill="#0085FD"/>
<path d="M591.344 339.493C589.786 339.465 590.024 337.106 591.556 337.38C592.812 337.594 592.618 339.524 591.344 339.493Z" fill="#0085FD"/>
<path d="M596.383 339.493C595.109 339.523 594.915 337.594 596.171 337.38C597.706 337.109 597.94 339.464 596.383 339.493Z" fill="#0085FD"/>
<path d="M582.632 355.51C587.484 352.236 585.193 344.695 579.231 344.65C573.269 344.695 570.978 352.236 575.83 355.51C573.907 356.65 572.617 358.725 572.617 361.09V364.29C572.617 364.88 573.103 365.357 573.701 365.357H584.761C585.36 365.357 585.845 364.88 585.845 364.29V361.09C585.845 358.725 584.556 356.65 582.632 355.51ZM579.231 346.784C581.368 346.784 583.106 348.495 583.106 350.598C582.894 355.657 575.569 355.656 575.356 350.598C575.356 348.495 577.095 346.784 579.231 346.784ZM583.677 363.222H574.785V361.089C574.785 358.677 576.78 356.714 579.231 356.714C581.682 356.714 583.677 358.677 583.677 361.089V363.222Z" fill="#063359"/>
<path d="M805.921 206.829C805.615 206.829 805.326 206.643 805.212 206.34L803.528 201.893L801.829 206.343C801.68 206.733 801.242 206.928 800.852 206.78C800.46 206.631 800.264 206.195 800.413 205.805L802.695 199.828C802.695 199.828 802.7 199.816 802.703 199.81C802.841 199.474 803.166 199.256 803.53 199.256C803.895 199.256 804.22 199.473 804.358 199.809C804.36 199.816 804.364 199.822 804.366 199.829L806.628 205.807C806.777 206.197 806.579 206.634 806.187 206.78C806.099 206.813 806.009 206.829 805.921 206.829Z" fill="#0085FD"/>
<path d="M805.219 205.34H801.831C801.413 205.34 801.074 205.003 801.074 204.585C801.074 204.168 801.413 203.83 801.831 203.83H805.219C805.637 203.83 805.976 204.168 805.976 204.585C805.976 205.003 805.637 205.34 805.219 205.34Z" fill="#0085FD"/>
<path d="M796.068 206.778C795.391 206.778 795.35 206.771 795.296 206.761C794.933 206.699 794.666 206.385 794.666 206.017V199.959C794.666 199.542 795.005 199.204 795.423 199.204C795.842 199.204 796.18 199.542 796.18 199.959V205.266C796.575 205.266 797.078 205.264 797.547 205.262H797.551C797.968 205.262 798.306 205.597 798.309 206.013C798.311 206.431 797.973 206.771 797.555 206.773C796.864 206.777 796.391 206.779 796.065 206.779L796.068 206.778Z" fill="#0085FD"/>
<path d="M789.773 207.131C788.78 207.131 787.843 206.749 787.184 206.071C786.893 205.771 786.901 205.292 787.202 205.003C787.503 204.712 787.983 204.72 788.273 205.02C788.656 205.415 789.247 205.639 789.851 205.619C790.439 205.601 790.842 205.235 790.891 204.894C790.957 204.439 790.336 204.182 790.066 204.093C789.112 203.777 788.264 203.434 788.228 203.419C788.192 203.403 788.155 203.386 788.121 203.365C787.468 202.969 787.114 202.251 787.198 201.489C787.288 200.676 787.859 199.998 788.688 199.719C790.331 199.167 791.733 200.244 791.792 200.29C792.121 200.548 792.178 201.023 791.92 201.351C791.663 201.678 791.189 201.736 790.861 201.481C790.838 201.465 790.024 200.865 789.174 201.151C788.787 201.281 788.717 201.546 788.704 201.654C788.696 201.731 788.696 201.918 788.868 202.045C789.084 202.131 789.789 202.408 790.545 202.658C792.094 203.171 792.515 204.26 792.392 205.109C792.228 206.237 791.181 207.088 789.901 207.129C789.859 207.13 789.817 207.131 789.774 207.131H789.773Z" fill="#0085FD"/>
<path d="M802.825 216.285H788.661C787.947 216.285 787.367 215.707 787.367 214.995C787.367 214.283 787.947 213.705 788.661 213.705H802.825C803.539 213.705 804.118 214.283 804.118 214.995C804.118 215.707 803.539 216.285 802.825 216.285Z" fill="#0085FD"/>
<path d="M802.825 223.438H788.661C787.947 223.438 787.367 222.859 787.367 222.148C787.367 221.436 787.947 220.858 788.661 220.858H802.825C803.539 220.858 804.118 221.436 804.118 222.148C804.118 222.859 803.539 223.438 802.825 223.438Z" fill="#0085FD"/>
<path d="M812.261 230.589H788.661C787.947 230.589 787.367 230.011 787.367 229.299C787.367 228.587 787.947 228.009 788.661 228.009H812.261C812.975 228.009 813.554 228.587 813.554 229.299C813.554 230.011 812.975 230.589 812.261 230.589Z" fill="#0085FD"/>
<path d="M807.606 237.742H788.661C787.947 237.742 787.367 237.165 787.367 236.452C787.367 235.739 787.947 235.162 788.661 235.162H807.604C808.319 235.162 808.898 235.74 808.898 236.452C808.898 237.164 808.319 237.742 807.604 237.742H807.606Z" fill="#0085FD"/>
<path d="M819.017 242.852C818.674 242.852 818.346 242.716 818.102 242.474L814.567 238.948C814.061 238.444 814.061 237.628 814.567 237.124C815.072 236.62 815.891 236.62 816.396 237.124L819.017 239.737L824.028 234.74C824.534 234.236 825.352 234.236 825.858 234.74C826.363 235.244 826.363 236.06 825.858 236.564L819.932 242.474C819.689 242.716 819.36 242.852 819.017 242.852Z" fill="#0085FD"/>
<path d="M826.409 226.526V208.728C826.409 207.471 825.881 206.174 824.976 205.268L813.17 193.443C812.254 192.526 810.983 192 809.685 192H783.898C781.198 192 779 194.192 779 196.885V241.19C779 243.884 781.198 246.075 783.898 246.075H809.35C811.769 249.667 815.879 252.035 820.535 252.035C827.959 252.035 834 246.012 834 238.607C834 233.302 830.898 228.706 826.41 226.526H826.409ZM822.002 205.946H812.485V196.414L822.002 205.946ZM783.898 243.495C782.624 243.495 781.587 242.461 781.587 241.19V196.885C781.587 195.614 782.624 194.58 783.898 194.58H809.685C809.757 194.58 809.827 194.584 809.898 194.591V207.237C809.898 207.949 810.476 208.527 811.191 208.527H823.813C823.819 208.594 823.823 208.662 823.823 208.73V225.587C822.77 225.322 821.669 225.181 820.535 225.181C813.111 225.181 807.07 231.205 807.07 238.609C807.07 240.333 807.398 241.982 807.994 243.498H783.898V243.495ZM820.535 249.456C814.538 249.456 809.657 244.589 809.657 238.607C809.657 232.625 814.536 227.758 820.535 227.758C826.534 227.758 831.413 232.625 831.413 238.607C831.413 244.589 826.534 249.456 820.535 249.456Z" fill="#063359"/>
<defs>
<filter id="filter0_f_236_921" x="335.5" y="191.5" width="398" height="233" filterUnits="userSpaceOnUse" color-interpolation-filters="sRGB">
<feFlood flood-opacity="0" result="BackgroundImageFix"/>
<feBlend mode="normal" in="SourceGraphic" in2="BackgroundImageFix" result="shape"/>
<feGaussianBlur stdDeviation="15" result="effect1_foregroundBlur_236_921"/>
</filter>
<linearGradient id="paint0_linear_236_921" x1="229.5" y1="124" x2="892.5" y2="386" gradientUnits="userSpaceOnUse">
<stop stop-color="#D4FDED" stop-opacity="0"/>
<stop offset="0.451127" stop-color="#D4FDED" stop-opacity="0.65"/>
<stop offset="1" stop-color="#D4FDED" stop-opacity="0"/>
</linearGradient>
<linearGradient id="paint1_linear_236_921" x1="639.38" y1="158.283" x2="639.38" y2="213.074" gradientUnits="userSpaceOnUse">
<stop stop-color="#2BEDA7"/>
<stop offset="1" stop-color="#018AFD"/>
</linearGradient>
<linearGradient id="paint2_linear_236_921" x1="525.882" y1="158.28" x2="525.882" y2="213.071" gradientUnits="userSpaceOnUse">
<stop stop-color="#2BEDA7"/>
<stop offset="1" stop-color="#018AFD"/>
</linearGradient>
<linearGradient id="paint3_linear_236_921" x1="638.587" y1="181.175" x2="638.587" y2="231.834" gradientUnits="userSpaceOnUse">
<stop stop-color="#2BEDA7"/>
<stop offset="1" stop-color="#018AFD"/>
</linearGradient>
<linearGradient id="paint4_linear_236_921" x1="620.698" y1="193.993" x2="620.698" y2="244.633" gradientUnits="userSpaceOnUse">
<stop stop-color="#2BEDA7"/>
<stop offset="1" stop-color="#018AFD"/>
</linearGradient>
<linearGradient id="paint5_linear_236_921" x1="603.205" y1="207.539" x2="603.205" y2="259.169" gradientUnits="userSpaceOnUse">
<stop stop-color="#2BEDA7"/>
<stop offset="1" stop-color="#018AFD"/>
</linearGradient>
<linearGradient id="paint6_linear_236_921" x1="562.538" y1="204.734" x2="562.538" y2="256.409" gradientUnits="userSpaceOnUse">
<stop stop-color="#2BEDA7"/>
<stop offset="1" stop-color="#018AFD"/>
</linearGradient>
<linearGradient id="paint7_linear_236_921" x1="546.075" y1="196.707" x2="546.075" y2="247.312" gradientUnits="userSpaceOnUse">
<stop stop-color="#2BEDA7"/>
<stop offset="1" stop-color="#018AFD"/>
</linearGradient>
<linearGradient id="paint8_linear_236_921" x1="525.09" y1="181.178" x2="525.09" y2="231.837" gradientUnits="userSpaceOnUse">
<stop stop-color="#2BEDA7"/>
<stop offset="1" stop-color="#018AFD"/>
</linearGradient>
</defs>
</svg>
