<svg width="266" height="75" viewBox="0 0 266 75" fill="none" xmlns="http://www.w3.org/2000/svg">
<g clip-path="url(#clip0_11211_4)">
<path d="M121.509 38.7722C123.878 41.0638 127.158 42.276 130.996 42.276L130.999 42.2746C134.85 42.2746 138.156 41.0638 140.561 38.7722C143.32 36.1442 144.719 32.3113 144.719 27.3802C144.719 23.1994 144.174 20.9193 142.641 18.6796C142.332 18.1846 141.776 17.9176 141.158 17.9652C140.45 18.0201 139.838 18.4573 139.559 19.1053L139.553 19.1197C139.416 19.4834 139.318 20.4243 139.618 20.9251C140.758 22.7622 140.95 24.4131 140.95 27.4191C140.95 30.9447 140.034 33.8425 138.304 35.7979C136.601 37.7216 134.1 38.739 131.074 38.739C124.823 38.739 121.238 34.4832 121.238 27.4191C121.238 20.355 124.943 16.1368 131.151 16.1368C132.708 16.1368 133.78 16.3331 134.961 16.8338C135.376 17.0301 135.871 17.0431 136.319 16.867C136.786 16.6838 137.158 16.3172 137.34 15.8626L137.363 15.8063V15.7688C137.517 15.3633 137.505 14.9145 137.33 14.4974C137.141 14.0472 136.774 13.6849 136.325 13.506C134.62 12.8104 133.11 12.5261 131.112 12.5261C127.345 12.5261 123.955 13.7932 121.567 16.0964C118.86 18.7056 117.43 22.4418 117.43 27.3816C117.43 32.3214 118.802 36.1529 121.509 38.7722Z" fill="#063359"/>
<path d="M88.3 38.7332C90.2919 41.0335 93.3036 42.1996 97.2513 42.1996H97.2498C101.192 42.1996 104.206 41.0278 106.211 38.7188C108.238 36.3838 109.285 32.8149 109.324 28.1089V14.3315C109.324 13.2722 108.691 12.6401 107.631 12.6401H107.172C106.111 12.6401 105.479 13.2722 105.479 14.3315V28.1089C105.479 31.8957 104.826 34.551 103.48 36.2265C102.183 37.8399 100.159 38.625 97.2888 38.625C91.5486 38.625 89.0988 35.4688 89.0988 28.07V14.3315C89.0988 13.2722 88.4662 12.6401 87.4059 12.6401H86.9466C85.8878 12.6401 85.2551 13.2722 85.2551 14.3315V28.1089C85.2551 32.8251 86.2793 36.3997 88.3 38.7332Z" fill="#063359"/>
<path d="M235.453 41.8171H236.257L236.256 41.82C237.316 41.82 237.949 41.1879 237.949 40.1287V14.2968C237.949 13.2376 237.316 12.6055 236.256 12.6055H235.797C234.736 12.6055 234.104 13.2376 234.104 14.2968V35.7387L218.405 13.633C218.031 12.9403 217.404 12.6041 216.492 12.6041H215.571C214.513 12.6041 213.88 13.2361 213.88 14.2954V40.0883C213.88 41.1432 214.507 41.7738 215.558 41.7796L216.006 41.8186H216.032C217.092 41.8186 217.725 41.1865 217.725 40.1272V18.5309L233.539 40.7896C233.913 41.4809 234.54 41.8171 235.453 41.8171Z" fill="#063359"/>
<path fill-rule="evenodd" clip-rule="evenodd" d="M56.9917 41.8171H64.3844V41.8186C69.0889 41.8186 72.4039 41.1591 74.5229 39.8025C76.5726 38.4907 77.5693 36.4935 77.5693 33.6981C77.5693 29.7425 75.8547 27.6024 71.9027 26.7553C75.079 25.7826 76.5726 23.6396 76.5726 20.1112C76.5726 17.3736 75.6958 15.5523 73.8151 14.382C71.8652 13.1683 68.7466 12.6026 64.0016 12.6026H56.9917C55.9315 12.6026 55.2988 13.2347 55.2988 14.2939V40.1258C55.2988 41.1851 55.9315 41.8171 56.9917 41.8171ZM64.3844 38.3219H59.1035V16.1007H63.9236C70.6634 16.1007 72.6119 17.0604 72.6119 20.3796C72.6119 23.9167 70.4034 25.2328 64.4609 25.2328H63.2736C62.6048 25.2328 62.04 25.7971 62.04 26.4652V27.3455C62.04 28.0137 62.6048 28.5779 63.2736 28.5779H64.4609C71.3856 28.5779 73.6086 29.7757 73.6086 33.5105C73.6216 34.7473 73.2865 35.6954 72.583 36.4054C71.2874 37.7129 68.683 38.3219 64.3844 38.3219Z" fill="#063359"/>
<path d="M254.948 41.7796H255.37C256.43 41.7796 257.063 41.1475 257.063 40.0883V16.1772H263.721C264.779 16.1772 265.412 15.5451 265.412 14.4859V14.2954C265.412 13.2361 264.779 12.6041 263.721 12.6041H246.561C245.5 12.6041 244.868 13.2361 244.868 14.2954V14.4859C244.868 15.5451 245.5 16.1772 246.561 16.1772H253.257V40.0883C253.257 41.1475 253.89 41.7796 254.948 41.7796Z" fill="#063359"/>
<path d="M205.613 41.7796H206.187C206.952 41.7796 207.316 41.4794 207.487 41.2283C207.66 40.9729 207.806 40.514 207.509 39.7722L196.135 13.8336C195.829 13.0168 195.169 12.5665 194.273 12.5665H193.431C192.595 12.5665 191.936 13.0125 191.573 13.8264L180.31 39.739C180.083 40.2831 180.094 40.7882 180.341 41.1591C180.591 41.5357 181.064 41.7421 181.672 41.7421H182.208C183.044 41.7421 183.704 41.2962 184.067 40.4794L186.288 35.2379L187.438 32.5581L193.892 17.2826L198.514 28.2186H193.279C192.219 28.2186 191.586 28.8507 191.586 29.91V30.4078C191.586 31.4671 192.219 32.0992 193.279 32.0992H200.162L200.385 32.597L201.533 35.274L203.752 40.5082C204.065 41.3164 204.744 41.7796 205.613 41.7796Z" fill="#063359"/>
<path d="M163.402 41.7796H163.785L163.787 41.7811C164.847 41.7811 165.48 41.149 165.48 40.0897V33.3633L176.586 14.6778C176.901 14.1179 176.944 13.5883 176.709 13.1871C176.475 12.7873 175.994 12.5665 175.355 12.5665H174.666C173.831 12.5665 173.233 12.9187 172.787 13.6777L163.597 29.363L154.519 13.7153C154.073 12.9576 153.475 12.6041 152.64 12.6041H151.912C151.308 12.6041 150.852 12.8162 150.625 13.2015C150.388 13.6027 150.436 14.141 150.761 14.7211L161.711 33.3994V40.0883C161.711 41.1475 162.344 41.7796 163.402 41.7796Z" fill="#063359"/>
<mask id="mask0_11211_4" style="mask-type:luminance" maskUnits="userSpaceOnUse" x="0" y="0" width="36" height="55">
<path d="M20.8303 6.34829C20.3537 6.34829 19.8813 6.57774 19.6112 6.99336C19.1894 7.64421 19.3816 8.56203 20.033 8.98342C22.4452 10.5521 23.6716 12.5422 24.2089 15.642C24.3244 16.3318 24.8979 16.8282 25.6259 16.8282C25.7024 16.8282 25.779 16.8282 25.8166 16.7893C26.5836 16.6753 27.1194 15.9479 27.0039 15.1441C26.3914 11.2419 24.7058 8.59956 21.6031 6.57197C21.3691 6.42044 21.1004 6.34829 20.8318 6.34829H20.8303ZM17.5587 0.00288576C17.0632 0.00432888 16.5331 0.0230898 15.9727 0.0663834C15.5119 0.103905 15.0916 0.33336 14.8229 0.678266C14.5557 0.984208 14.4401 1.4056 14.4777 1.82699C14.5152 2.2859 14.7463 2.70729 15.0901 2.97571C15.3963 3.24269 15.8181 3.35814 16.2384 3.31918C18.0007 3.16621 19.266 3.31918 20.0691 3.43463C23.2108 3.85602 26.3134 5.50117 28.6115 7.98767C31.0628 10.6286 32.4422 14.0343 32.4422 17.5166C32.4422 20.5775 31.6377 23.2963 30.0285 25.6298C28.5725 27.7339 26.4666 29.457 23.8998 30.6043C23.0577 30.9867 22.7124 31.906 23.0577 32.7473C23.2108 33.2062 23.5936 33.5511 24.0543 33.6651L19.8409 41.3569H19.4957V34.9668C19.4957 34.0865 18.7287 33.3216 17.81 33.3216C16.8913 33.3216 16.1633 34.0879 16.1633 34.9668V41.4724H15.665L11.2219 34.2005C11.7578 34.3924 12.4468 34.6219 13.1372 34.7359C13.2528 34.7749 13.4044 34.7749 13.4824 34.7749C14.287 34.7749 14.976 34.2005 15.0916 33.4357C15.2447 32.5554 14.6698 31.714 13.7887 31.5235C12.3717 31.2551 11.3374 30.7572 11.2219 30.6807C9.80344 29.9534 8.463 28.9591 7.23666 27.6964L7.16011 27.6199C6.58522 26.9705 5.93522 26.2042 5.43689 25.4004C3.94333 23.1433 3.17778 20.5024 3.17778 17.8225C3.17778 15.603 3.63711 13.3835 4.47922 11.3934C5.39933 9.28792 6.73978 7.52876 8.463 6.1881C8.76922 5.95864 9.00033 6.07265 9.191 6.1881C9.45967 6.38003 9.49722 6.57053 9.38311 6.83895C8.30989 9.36441 7.73644 12.2348 7.774 15.1427C7.813 18.205 8.541 21.2283 9.958 23.8678C10.4173 24.6716 11.375 24.94 12.1796 24.5186C12.5623 24.3267 12.8686 23.9818 12.9841 23.5604C13.1372 23.1404 13.0621 22.719 12.87 22.3366C11.7202 20.1936 11.1078 17.7056 11.0688 15.1037C11.0312 12.6172 11.4906 10.2822 12.4092 8.10023C13.0982 6.4926 12.6403 4.61798 11.2609 3.58471C9.88144 2.47495 7.92855 2.47495 6.54911 3.58471C4.36511 5.26883 2.67944 7.44939 1.57011 10.0528C0.535888 12.4253 0 15.0662 0 17.7446C0 20.9974 0.957667 24.2127 2.79644 27.083C3.33233 27.9244 3.98378 28.7282 4.82589 29.685L11.9499 41.318H9.57522C8.77066 41.318 8.12067 42.0078 8.12067 42.7726C8.12067 43.5765 8.80966 44.2259 9.57522 44.2259H24.7058V49.2003C24.7058 50.7315 23.4419 52.0331 21.8718 52.0331H13.8652C12.3341 52.0331 11.0312 50.769 11.0312 49.2003V48.5495C11.0312 47.7471 10.3798 47.0962 9.57522 47.0962C8.77066 47.0962 8.12067 47.7846 8.12067 48.5495V49.1613C8.12067 52.3001 10.6874 54.8646 13.8277 54.8646H21.8718C25.012 54.8646 27.5788 52.3001 27.5788 49.1613V43.1926C27.5788 42.1593 26.7367 41.3165 25.7024 41.3165V41.3555H23.5184L29.1099 31.1757C30.5269 30.0284 31.7157 28.7657 32.6733 27.4251C34.6652 24.5172 35.6604 21.1489 35.6604 17.4372C35.6604 13.1887 34.0138 9.01806 31.0642 5.80279C28.2302 2.74193 24.3996 0.712901 20.5689 0.216468C19.8756 0.109677 18.8876 0.00288624 17.6814 0H17.5572L17.5587 0.00288576Z" fill="white"/>
</mask>
<g mask="url(#mask0_11211_4)">
<path d="M7.98088 -14.8436L-22.8838 42.5938L27.6844 69.7174L58.5491 12.28L7.98088 -14.8436Z" fill="url(#paint0_linear_11211_4)"/>
</g>
<path d="M55.2803 62.6053C55.2803 58.4636 57.99 56.5947 60.7807 56.5947C62.6845 56.5947 64.7645 57.4332 65.6846 59.7537C65.894 60.2848 65.6196 60.6557 65.088 60.7524L64.8295 60.8C64.3297 60.8967 64.087 60.6874 63.8458 60.2198C63.1843 58.9629 62.1356 58.3178 60.7807 58.3178C58.6357 58.3178 57.1999 59.9615 57.1999 62.6039C57.1999 65.2462 58.6025 66.8582 60.7807 66.8582C62.1674 66.8582 63.2319 66.1972 63.8776 64.8768C64.1029 64.4092 64.3774 64.2 64.8613 64.2967L65.1198 64.3443C65.6514 64.441 65.894 64.9085 65.6037 65.6012C64.6677 67.7933 62.6354 68.5986 60.7807 68.5986C57.99 68.5986 55.2803 66.8582 55.2803 62.6039V62.6053Z" fill="#063359"/>
<path d="M71.9086 59.0769C72.4575 59.0769 72.7319 59.4319 72.6669 59.9471L72.651 60.0755C72.6033 60.5907 72.2957 60.7841 71.7641 60.7841C70.2475 60.8159 69.5224 61.9126 69.5224 63.8464V67.6014C69.5224 68.1166 69.232 68.4067 68.7163 68.4067H68.5228C68.0071 68.4067 67.7168 68.1166 67.7168 67.6014V59.9947C67.7168 59.4795 68.0071 59.1895 68.5228 59.1895H68.7163C69.232 59.1895 69.5224 59.4637 69.5224 59.963V60.7365C69.8127 59.9139 70.5551 59.0769 71.91 59.0769H71.9086Z" fill="#063359"/>
<path d="M73.0049 63.7974C73.0049 60.9616 74.9087 59.012 77.6661 59.012C80.4236 59.012 82.0529 60.8 82.1656 63.4597C82.1814 63.9907 81.8752 64.2649 81.3596 64.2649H74.8104C74.8754 66.0529 75.9877 67.0689 77.7788 67.0689C78.7783 67.0689 79.4081 66.8106 79.9888 66.2954C80.3441 65.9894 80.5694 65.7311 81.0215 65.8437L81.2151 65.8913C81.7799 66.0371 81.8926 66.343 81.5863 66.7933C80.7803 67.9853 79.4731 68.5813 77.747 68.5813C74.8754 68.5813 73.0049 66.6793 73.0049 63.7959V63.7974ZM80.4568 62.8463C80.3282 61.3801 79.3272 60.445 77.6993 60.445C76.0714 60.445 75.0704 61.2502 74.861 62.8463H80.4582H80.4568Z" fill="#063359"/>
<path d="M83.6494 63.7973C83.6494 60.6225 85.585 59.012 87.8759 59.012C89.3275 59.012 90.6174 59.7205 91.1504 60.9934V59.9947C91.1504 59.4795 91.4407 59.1895 91.9564 59.1895H92.15C92.6656 59.1895 92.956 59.4795 92.956 59.9947V67.5841C92.956 68.0993 92.6656 68.3894 92.15 68.3894H91.9564C91.4407 68.3894 91.1504 68.0993 91.1504 67.5841V66.649C90.6347 67.89 89.3275 68.6145 87.8917 68.6145C85.6009 68.6145 83.6494 66.9866 83.6494 63.7959V63.7973ZM91.1981 63.7973C91.1981 61.7828 90.0209 60.5417 88.3106 60.5417C86.6004 60.5417 85.4564 61.7669 85.4564 63.7973C85.4564 65.8278 86.6177 67.0689 88.3439 67.0689C90.07 67.0689 91.1981 65.8278 91.1981 63.7973Z" fill="#063359"/>
<path d="M99.1491 68.5366C96.7774 68.5366 95.6969 67.5538 95.6969 64.7339V60.5922H95.1654C94.6497 60.5922 94.3594 60.3339 94.3594 59.8836C94.3594 59.4334 94.6006 59.1909 95.0368 59.1909H95.6984V58.224C95.6984 57.7406 95.9396 57.4505 96.4076 57.3538L96.6329 57.3062C97.1977 57.1778 97.5198 57.4505 97.5198 58.0148V59.1909H99.4395C99.9552 59.1909 100.245 59.4319 100.245 59.8836C100.245 60.3353 99.9552 60.5922 99.4395 60.5922H97.5198V64.5247C97.5198 66.4267 98.0196 67.0862 99.4236 67.0862C99.9234 67.0862 100.25 67.2623 100.295 67.6981C100.347 68.1902 100.13 68.4716 99.6171 68.5192C99.4554 68.5337 99.295 68.5351 99.1491 68.5351V68.5366Z" fill="#063359"/>
<path d="M101.052 63.7973C101.052 60.4782 103.359 59.012 105.713 59.012C108.067 59.012 110.39 60.4782 110.39 63.7973C110.39 67.1165 108.083 68.6159 105.729 68.6159C103.374 68.6159 101.052 67.1497 101.052 63.7973ZM108.585 63.7973C108.585 61.7828 107.423 60.5417 105.713 60.5417C104.003 60.5417 102.859 61.7669 102.859 63.7973C102.859 65.8278 104.004 67.0689 105.73 67.0689C107.456 67.0689 108.585 65.8278 108.585 63.7973Z" fill="#063359"/>
<path d="M116.39 59.0769C116.939 59.0769 117.213 59.4319 117.148 59.9471L117.132 60.0755C117.085 60.5907 116.777 60.7841 116.246 60.7841C114.729 60.8159 114.004 61.9126 114.004 63.8464V67.6014C114.004 68.1166 113.713 68.4067 113.198 68.4067H113.004C112.489 68.4067 112.198 68.1166 112.198 67.6014V59.9947C112.198 59.4795 112.489 59.1895 113.004 59.1895H113.198C113.713 59.1895 114.004 59.4637 114.004 59.963V60.7365C114.294 59.9139 115.036 59.0769 116.39 59.0769Z" fill="#063359"/>
<path d="M121.876 68.5685C120.329 68.5685 118.695 67.9495 117.921 66.9739C117.59 66.5568 117.753 66.1196 118.292 65.9594L118.454 65.9103C118.806 65.8035 119.05 65.8151 119.518 66.2336C120.161 66.8094 121.037 67.0215 121.876 67.0215C123.218 67.0215 124.018 66.5424 124.018 65.7328C124.018 63.6057 118.036 65.2941 118.036 61.7036C118.036 60.0051 119.754 59.0281 121.734 59.0281C122.93 59.0281 124.427 59.5101 125.23 60.35C125.608 60.7468 125.478 61.1928 124.955 61.3486L124.794 61.3962C124.359 61.5261 124.136 61.3674 123.713 61.1105C123.111 60.7454 122.458 60.5102 121.763 60.5102C120.6 60.5102 119.81 60.894 119.81 61.6185C119.81 63.6793 125.841 61.9533 125.841 65.6823C125.841 67.3953 124.184 68.5671 121.876 68.5671V68.5685Z" fill="#063359"/>
<path d="M131.566 63.7973C131.566 60.4782 133.873 59.012 136.228 59.012C138.582 59.012 140.905 60.4782 140.905 63.7973C140.905 67.1165 138.598 68.6159 136.244 68.6159C133.889 68.6159 131.566 67.1497 131.566 63.7973ZM139.099 63.7973C139.099 61.7828 137.938 60.5417 136.228 60.5417C134.517 60.5417 133.373 61.7669 133.373 63.7973C133.373 65.8278 134.519 67.0689 136.245 67.0689C137.971 67.0689 139.099 65.8278 139.099 63.7973Z" fill="#063359"/>
<path d="M143.743 68.407C143.227 68.407 142.937 68.1169 142.937 67.6017V60.5925H142.469C141.953 60.5925 141.663 60.3342 141.663 59.8839C141.663 59.4337 141.953 59.1912 142.469 59.1912H142.937V58.8204C142.937 56.839 144.018 55.8389 146.147 55.8389C146.405 55.8389 146.696 55.8475 146.953 55.8706C147.52 55.924 147.727 56.2083 147.646 56.66C147.565 57.1276 147.363 57.3123 146.852 57.2878C146.704 57.282 146.628 57.2719 146.502 57.2719C145.325 57.2719 144.76 57.7871 144.76 58.8665V59.1884H146.55C147.065 59.1884 147.356 59.4294 147.356 59.881C147.356 60.3327 147.065 60.5896 146.55 60.5896H144.76V67.5989C144.76 68.114 144.47 68.4041 143.954 68.4041H143.745L143.743 68.407Z" fill="#063359"/>
<path d="M186.39 67.7963V57.8445C186.39 57.3726 186.798 56.9729 187.303 56.9729C187.807 56.9729 188.184 57.3726 188.184 57.8445V67.1916H192.881C193.311 67.1916 193.688 67.5207 193.688 67.9406C193.688 68.3606 193.311 68.73 192.881 68.73H187.355C186.725 68.73 186.39 68.3923 186.39 67.7963Z" fill="#063359"/>
<path d="M197.171 67.9392V57.8431C197.171 57.3712 197.58 56.9714 198.084 56.9714C198.588 56.9714 198.965 57.3712 198.965 57.8431V67.9392C198.965 68.4111 198.566 68.8108 198.084 68.8108C197.601 68.8108 197.171 68.4111 197.171 67.9392Z" fill="#063359"/>
<path d="M211.349 68.3604L205.015 59.7738V67.9405C205.015 68.4124 204.616 68.8121 204.134 68.8121C203.651 68.8121 203.221 68.4124 203.221 67.9405V58.1215C203.221 57.4952 203.735 56.9626 204.405 56.9626C204.782 56.9626 205.139 57.1373 205.348 57.4345L211.557 65.796V57.8444C211.557 57.3725 211.955 56.9727 212.438 56.9727C212.92 56.9727 213.351 57.3725 213.351 57.8444V67.724C213.351 68.3186 212.846 68.8107 212.238 68.8107C211.871 68.8107 211.545 68.6563 211.347 68.359" fill="#063359"/>
<path d="M226.532 67.9693C226.532 68.421 226.176 68.8107 225.715 68.8107C225.484 68.8107 225.264 68.7587 225.085 68.5639L220.545 63.6804L219.403 64.8709V67.9289C219.403 68.4008 219.004 68.8006 218.511 68.8006C218.019 68.8006 217.62 68.4008 217.62 67.9289V57.8444C217.62 57.3725 218.029 56.9727 218.511 56.9727C218.994 56.9727 219.403 57.3725 219.403 57.8444V62.8823L224.656 57.2296C224.834 57.0348 225.055 56.9626 225.286 56.9626C225.736 56.9626 226.124 57.3119 226.124 57.7621C226.124 57.9671 226.072 58.1619 225.892 58.3264L221.74 62.6457L226.301 67.4065C226.438 67.571 226.532 67.786 226.532 67.9708" fill="#063359"/>
<path d="M230.14 67.7962V57.9873C230.14 57.3928 230.475 57.0637 231.105 57.0637H237.438C237.867 57.0637 238.246 57.413 238.246 57.8531C238.246 58.2933 237.867 58.6021 237.438 58.6021H231.934V62.018H237.313C237.742 62.018 238.12 62.347 238.12 62.7669C238.12 63.2085 237.742 63.5578 237.313 63.5578H231.934V67.2002H237.438C237.867 67.2002 238.246 67.5292 238.246 67.9492C238.246 68.3908 237.867 68.74 237.438 68.74H231.105C230.486 68.7299 230.14 68.3908 230.14 67.7962Z" fill="#063359"/>
<path d="M250.881 68.0112C250.881 68.3807 250.546 68.8107 250.042 68.8107C249.739 68.8107 249.456 68.6664 249.288 68.4413L246.299 64.2245H243.783V67.9391C243.783 68.411 243.385 68.8107 242.902 68.8107C242.42 68.8107 241.989 68.411 241.989 67.9391V57.9873C241.989 57.3928 242.326 57.0637 242.954 57.0637H247.012C249.288 57.0637 250.839 58.4996 250.839 60.6542C250.839 62.614 249.591 63.7324 248.176 64.0095L250.692 67.4773C250.808 67.5898 250.881 67.7342 250.881 68.0112ZM243.782 62.6861H246.78C248.07 62.6861 248.993 61.865 248.993 60.634C248.993 59.403 248.06 58.5819 246.78 58.5819H243.782V62.6861Z" fill="#063359"/>
<path d="M254.657 67.7962V57.9873C254.657 57.3928 254.992 57.0637 255.622 57.0637H258.915C262.638 57.0637 265.102 59.5459 265.102 62.9112C265.102 66.2766 262.638 68.7386 258.915 68.7386H255.622C254.994 68.7285 254.657 68.3893 254.657 67.7948M258.914 67.1901C261.673 67.1901 263.255 65.2606 263.255 62.9011C263.255 60.5416 261.713 58.6021 258.914 58.6021H256.45V67.1887H258.914V67.1901Z" fill="#063359"/>
<mask id="mask1_11211_4" style="mask-type:luminance" maskUnits="userSpaceOnUse" x="179" y="55" width="2" height="12">
<path d="M179.092 65.0454L180.906 66.0614V56.4689L179.092 55.4429V65.0454Z" fill="white"/>
</mask>
<g mask="url(#mask1_11211_4)">
<path d="M180.906 55.4429H179.092V66.0614H180.906V55.4429Z" fill="url(#paint1_linear_11211_4)"/>
</g>
<mask id="mask2_11211_4" style="mask-type:luminance" maskUnits="userSpaceOnUse" x="154" y="55" width="3" height="12">
<path d="M154.857 56.4694V66.0618L156.672 65.0459V55.4434L154.857 56.4694Z" fill="white"/>
</mask>
<g mask="url(#mask2_11211_4)">
<path d="M156.672 55.4434H154.857V66.0618H156.672V55.4434Z" fill="url(#paint2_linear_11211_4)"/>
</g>
<path d="M163.718 65.9694L172.045 70.6682V68.6261L164.254 64.2261L163.718 64.5234V64.5335V65.9694Z" fill="#2BEDA7"/>
<path d="M172.517 73.3872L163.719 68.4214V70.4634L166.067 71.7867L163.246 73.3872C163.057 73.4896 163.057 73.7667 163.246 73.8692L164.63 74.6485L167.882 72.8128L171.132 74.6485L172.515 73.8692C172.705 73.7667 172.705 73.4997 172.515 73.3872" fill="#2BEDA7"/>
<mask id="mask3_11211_4" style="mask-type:luminance" maskUnits="userSpaceOnUse" x="179" y="60" width="2" height="10">
<path d="M179.092 61.1677V69.6734C179.092 69.8885 179.333 70.0227 179.521 69.9202L180.759 69.2232C180.842 69.1727 180.906 69.0789 180.906 68.9764V60.1431L179.092 61.1691V61.1677Z" fill="white"/>
</mask>
<g mask="url(#mask3_11211_4)">
<path d="M180.906 60.1418H179.092V70.0215H180.906V60.1418Z" fill="url(#paint3_linear_11211_4)"/>
</g>
<mask id="mask4_11211_4" style="mask-type:luminance" maskUnits="userSpaceOnUse" x="175" y="62" width="2" height="11">
<path d="M175.116 63.4255V71.9312C175.116 72.1361 175.347 72.2689 175.547 72.1665L176.711 71.5098C176.847 71.4377 176.92 71.2948 176.92 71.1505V62.3994L175.116 63.4255Z" fill="white"/>
</mask>
<g mask="url(#mask4_11211_4)">
<path d="M176.92 62.3994H175.116V72.2689H176.92V62.3994Z" fill="url(#paint4_linear_11211_4)"/>
</g>
<mask id="mask5_11211_4" style="mask-type:luminance" maskUnits="userSpaceOnUse" x="171" y="64" width="2" height="11">
<path d="M171.133 74.6499H171.143V74.6441L171.133 74.6499ZM171.143 65.652V74.6441L172.8 73.7061C172.883 73.6541 172.947 73.5618 172.947 73.4593V64.626L171.143 65.652Z" fill="white"/>
</mask>
<g mask="url(#mask5_11211_4)">
<path d="M172.947 64.626H171.133V74.6499H172.947V64.626Z" fill="url(#paint5_linear_11211_4)"/>
</g>
<mask id="mask6_11211_4" style="mask-type:luminance" maskUnits="userSpaceOnUse" x="162" y="64" width="3" height="11">
<path d="M162.827 73.4793C162.817 73.5717 162.869 73.664 162.965 73.7145L164.632 74.6583V65.6706L162.827 64.6445V73.4779V73.4793Z" fill="white"/>
</mask>
<g mask="url(#mask6_11211_4)">
<path d="M164.632 64.6461H162.817V74.6599H164.632V64.6461Z" fill="url(#paint6_linear_11211_4)"/>
</g>
<mask id="mask7_11211_4" style="mask-type:luminance" maskUnits="userSpaceOnUse" x="158" y="62" width="3" height="11">
<path d="M158.841 71.14C158.841 71.2944 158.914 71.4272 159.05 71.5094L160.214 72.166C160.404 72.2685 160.645 72.1357 160.645 71.9193V63.4135L158.841 62.3875V71.1385V71.14Z" fill="white"/>
</mask>
<g mask="url(#mask7_11211_4)">
<path d="M160.645 62.3889H158.841V72.2685H160.645V62.3889Z" fill="url(#paint7_linear_11211_4)"/>
</g>
<mask id="mask8_11211_4" style="mask-type:luminance" maskUnits="userSpaceOnUse" x="154" y="60" width="3" height="10">
<path d="M154.857 68.8929C154.857 69.0473 154.941 69.1801 155.077 69.2623L156.241 69.919C156.43 70.0214 156.672 69.8887 156.672 69.6722V61.1664L154.857 60.1404V68.8915V68.8929Z" fill="white"/>
</mask>
<g mask="url(#mask8_11211_4)">
<path d="M156.672 60.1421H154.857V70.0217H156.672V60.1421Z" fill="url(#paint8_linear_11211_4)"/>
</g>
<path d="M180.905 56.4693L179.091 55.4433L175.841 57.2804L173.67 56.0595L176.501 54.4591C176.69 54.3566 176.69 54.0795 176.501 53.9771L175.337 53.3204C175.201 53.2483 175.044 53.2483 174.906 53.3204L171.866 55.0334L169.695 53.8125L172.526 52.2121C172.715 52.1097 172.715 51.8326 172.526 51.7301L171.362 51.0735C171.226 51.0013 171.069 51.0013 170.931 51.0735L167.891 52.7865L164.85 51.0634C164.714 50.9912 164.557 50.9912 164.42 51.0634L163.245 51.7301C163.056 51.8326 163.056 52.1097 163.245 52.2121L179.091 61.1681L180.895 60.1421L177.644 58.305L180.905 56.4693Z" fill="#2BEDA7"/>
<path d="M160.435 53.319L159.261 53.9756C159.072 54.0781 159.072 54.3552 159.261 54.4576L175.107 63.4151L176.921 62.389L160.866 53.319C160.73 53.2469 160.561 53.2469 160.435 53.319Z" fill="#2BEDA7"/>
<path d="M154.857 56.4694L158.119 58.3051L154.857 60.1523L156.672 61.1682L159.922 59.3311L162.093 60.552L158.841 62.3992L160.645 63.4152L163.907 61.5781L166.068 62.7989L162.816 64.6461L164.631 65.6621L167.881 63.825L171.132 65.6621L172.946 64.6461L156.672 55.4434L154.857 56.4694Z" fill="#2BEDA7"/>
</g>
<defs>
<linearGradient id="paint0_linear_11211_4" x1="5.26481" y1="53.7721" x2="34.4734" y2="-0.683135" gradientUnits="userSpaceOnUse">
<stop stop-color="#0185FD"/>
<stop offset="0.23" stop-color="#0388FB"/>
<stop offset="0.39" stop-color="#0B91F7"/>
<stop offset="0.54" stop-color="#18A0EE"/>
<stop offset="0.66" stop-color="#2BB6E3"/>
<stop offset="0.79" stop-color="#43D3D3"/>
<stop offset="0.9" stop-color="#61F5C1"/>
<stop offset="0.91" stop-color="#64F9BF"/>
<stop offset="1" stop-color="#64F9BF"/>
</linearGradient>
<linearGradient id="paint1_linear_11211_4" x1="183.446" y1="58.1124" x2="183.446" y2="68.7256" gradientUnits="userSpaceOnUse">
<stop stop-color="#2BEDA7"/>
<stop offset="1" stop-color="#018AFD"/>
</linearGradient>
<linearGradient id="paint2_linear_11211_4" x1="159.197" y1="32883.1" x2="159.197" y2="32889.1" gradientUnits="userSpaceOnUse">
<stop stop-color="#2BEDA7"/>
<stop offset="1" stop-color="#018AFD"/>
</linearGradient>
<linearGradient id="paint3_linear_11211_4" x1="179.24" y1="59.5331" x2="179.24" y2="69.3417" gradientUnits="userSpaceOnUse">
<stop stop-color="#2BEDA7"/>
<stop offset="1" stop-color="#018AFD"/>
</linearGradient>
<linearGradient id="paint4_linear_11211_4" x1="175.436" y1="61.9259" x2="175.436" y2="71.7243" gradientUnits="userSpaceOnUse">
<stop stop-color="#2BEDA7"/>
<stop offset="1" stop-color="#018AFD"/>
</linearGradient>
<linearGradient id="paint5_linear_11211_4" x1="172.386" y1="64.9174" x2="172.386" y2="74.9252" gradientUnits="userSpaceOnUse">
<stop stop-color="#2BEDA7"/>
<stop offset="1" stop-color="#018AFD"/>
</linearGradient>
<linearGradient id="paint6_linear_11211_4" x1="168.255" y1="68.1834" x2="168.255" y2="78.1911" gradientUnits="userSpaceOnUse">
<stop stop-color="#2BEDA7"/>
<stop offset="1" stop-color="#018AFD"/>
</linearGradient>
<linearGradient id="paint7_linear_11211_4" x1="158.762" y1="61.6362" x2="158.762" y2="71.4448" gradientUnits="userSpaceOnUse">
<stop stop-color="#2BEDA7"/>
<stop offset="1" stop-color="#018AFD"/>
</linearGradient>
<linearGradient id="paint8_linear_11211_4" x1="155.016" y1="59.5334" x2="155.016" y2="69.342" gradientUnits="userSpaceOnUse">
<stop stop-color="#2BEDA7"/>
<stop offset="1" stop-color="#018AFD"/>
</linearGradient>
<clipPath id="clip0_11211_4">
<rect width="266" height="75" fill="white"/>
</clipPath>
</defs>
</svg>
