<svg width="265" height="75" viewBox="0 0 265 75" fill="none" xmlns="http://www.w3.org/2000/svg">
<path d="M192.541 46.1832L187.605 20.8768C187.469 20.0559 186.969 19.6726 186.172 19.6726H184.816C184.055 19.6726 183.537 20.0379 183.299 20.7564L174.967 44.3227L166.635 20.7564C166.393 20.0379 165.877 19.6726 165.117 19.6726H163.762C162.964 19.6726 162.465 20.0559 162.329 20.8768L157.393 46.1832C157.235 47.1205 157.673 47.6403 158.588 47.6403H159.046C159.844 47.6403 160.344 47.2409 160.484 46.4401L164.902 24.0178L172.948 46.5605C173.186 47.279 173.704 47.6403 174.461 47.6403H175.475C176.232 47.6403 176.75 47.279 176.988 46.5605L185.03 24.0178L189.452 46.4401C189.592 47.2409 190.092 47.6403 190.89 47.6403H191.343C192.259 47.6403 192.699 47.1205 192.543 46.1832" fill="#024280"/>
<path d="M213.412 22.5669C214.267 22.5669 214.747 22.0852 214.747 21.2262V21.0155C214.747 20.1565 214.267 19.6748 213.412 19.6748H198.153C197.297 19.6748 196.817 20.1565 196.817 21.0155V46.3018C196.817 47.1608 197.297 47.6425 198.153 47.6425V47.6385H213.412C214.267 47.6385 214.747 47.1568 214.747 46.2978V46.0871C214.747 45.2281 214.267 44.7464 213.412 44.7464H199.928V34.8057H212.72C213.576 34.8057 214.055 34.3461 214.055 33.4871V33.3566C214.055 32.4976 213.576 32.0159 212.72 32.0159H199.928V22.5669H213.412Z" fill="#024280"/>
<path d="M221.4 26.8598C221.4 23.9516 224.115 22.0831 228.069 22.0831C231.371 22.0831 233.758 23.1508 235.43 25.3004C236.027 26.0871 236.519 26.2477 237.205 26.0409L237.621 25.9005C238.474 25.6295 238.714 25.0575 238.26 24.2868C236.435 21.1639 232.469 19.2693 227.949 19.2693C222.448 19.2693 218.389 22.4103 218.389 26.8618C218.389 37.5813 236.175 32.3811 236.175 40.1121C236.175 43.2731 233.265 45.2521 228.885 45.2521C225.25 45.2521 222.212 43.817 220.45 41.3886C219.829 40.5316 219.381 40.3529 218.657 40.644L218.343 40.7704C217.428 41.1537 217.19 41.6475 217.644 42.4061C219.605 45.814 223.851 48.0237 228.903 48.0237C234.978 48.0237 239.206 44.8687 239.206 40.1462C239.206 29.2341 221.398 34.8116 221.398 26.8578" fill="#024280"/>
<path d="M263.664 20.0581H263.226C262.371 20.0581 261.891 20.5398 261.891 21.3988V32.4032H243.479V46.6851C243.479 47.5441 243.959 48.0258 244.815 48.0258H245.253C246.108 48.0258 246.588 47.5441 246.588 46.6851V35.189H261.893V46.6851C261.893 47.5441 262.373 48.0258 263.228 48.0258H263.666C264.522 48.0258 265.002 47.5441 265.002 46.6851V21.3988C265.002 20.5398 264.522 20.0581 263.666 20.0581" fill="#024280"/>
<path d="M2.92236 26.8559C2.92236 23.6628 6.06091 21.5614 10.3569 21.5614C14.2531 21.5614 17.0539 22.7897 18.797 25.3888C19.1429 25.8986 19.4987 26.0591 19.9825 25.8705L20.2264 25.7721C20.7681 25.5795 20.9501 25.158 20.6462 24.6462C18.7551 21.4009 15.0008 19.6467 10.315 19.6467C4.99141 19.6467 0.919281 22.6372 0.919281 26.8579C0.919281 37.2904 19.4228 31.749 19.4228 40.1323C19.4228 43.5823 16.0503 45.8202 11.2925 45.8202C7.15841 45.8202 3.75398 44.2768 1.98879 41.4489C1.65694 40.915 1.3211 40.7926 0.825324 40.9933L0.591432 41.0876C0.00370232 41.3445 -0.152226 41.7118 0.151634 42.2216C2.09074 45.6877 6.25482 47.7208 11.3005 47.7208C17.1858 47.7208 21.4118 44.7023 21.4118 40.1945C21.4118 29.5473 2.92236 35.3697 2.92236 26.8599" fill="#01C1B3"/>
<path d="M41.9741 22.021C42.5438 22.021 42.8577 21.7059 42.8577 21.1339V20.9171C42.8577 20.3451 42.5438 20.03 41.9741 20.03H26.3953C25.8295 20.03 25.5137 20.3451 25.5137 20.9171V46.4563C25.5137 47.0283 25.8275 47.3434 26.3953 47.3434H41.9741C42.5438 47.3434 42.8577 47.0283 42.8577 46.4563V46.2396C42.8577 45.6676 42.5438 45.3525 41.9741 45.3525H27.5807V34.3862H41.2984C41.8681 34.3862 42.18 34.0771 42.18 33.5051V33.3164C42.18 32.7485 41.8681 32.4313 41.2984 32.4313H27.5807V22.023H41.9741V22.021Z" fill="#01C1B3"/>
<path d="M59.5262 36.7645C64.504 36.028 67.3167 33.7821 67.3167 28.5298C67.3167 21.7541 62.7488 20.0281 54.8084 20.0281H48.6053C48.0355 20.0281 47.7217 20.3432 47.7217 20.9152V46.4544C47.7217 47.0264 48.0355 47.3415 48.6053 47.3415H48.9091C49.4789 47.3415 49.7927 47.0264 49.7927 46.4544V37.0616H54.7944C55.616 37.0616 56.3997 37.0415 57.1473 36.9994L64.5719 46.7956C64.8298 47.1709 65.1756 47.3435 65.6474 47.3435H66.2931C67.0828 47.3435 67.3007 46.916 66.8289 46.2517L59.5282 36.7665L59.5262 36.7645ZM54.7864 35.1268H49.7847V21.9829H54.7864C61.2914 21.9829 65.2436 23.0105 65.2436 28.5699C65.2436 34.1293 61.2914 35.1288 54.7864 35.1288" fill="#01C1B3"/>
<path d="M94.3285 20.0259H93.8947C93.4149 20.0259 93.0631 20.2366 92.8672 20.7103L82.466 45.0071L72.0927 20.7103C71.9008 20.2366 71.547 20.0259 71.0692 20.0259H70.6354C69.9677 20.0259 69.6978 20.4795 69.9537 21.0655L81.0166 46.6569C81.2185 47.0924 81.5684 47.3413 82.0482 47.3413H82.8798C83.3596 47.3413 83.7114 47.0924 83.9113 46.6569L95.0122 21.0655C95.2641 20.4795 94.9982 20.0259 94.3305 20.0259" fill="#01C1B3"/>
<path d="M99.2479 20.0259H98.95C98.3803 20.0259 98.0664 20.341 98.0664 20.913V46.4522C98.0664 47.0242 98.3803 47.3393 98.95 47.3393H99.2479C99.8176 47.3393 100.131 47.0242 100.131 46.4522V20.913C100.131 20.341 99.8176 20.0259 99.2479 20.0259Z" fill="#01C1B3"/>
<path d="M128.706 38.5307L128.408 38.4504C127.885 38.3139 127.517 38.5628 127.325 39.0786C125.85 43.3555 122.467 45.78 117.905 45.78C111.442 45.78 107.42 41.2562 107.42 33.762C107.42 26.2678 111.58 21.6939 117.905 21.6939C122.357 21.6939 125.706 24.024 127.279 28.1163C127.509 28.6361 127.831 28.8529 128.362 28.7164L128.632 28.6642C129.178 28.5317 129.486 28.1163 129.268 27.5383C127.247 21.7721 122.369 19.6929 117.905 19.6929C111.526 19.6929 105.333 24.0682 105.333 33.764C105.333 43.4599 111.526 47.797 117.905 47.797C122.347 47.797 127.261 45.7258 129.23 39.9296C129.516 39.1569 129.254 38.6692 128.706 38.5327" fill="#01C1B3"/>
<path d="M150.862 22.021C151.428 22.021 151.743 21.7059 151.743 21.1339V20.9171C151.743 20.3451 151.43 20.03 150.862 20.03H135.283C134.713 20.03 134.399 20.3451 134.399 20.9171V46.4563C134.399 47.0283 134.713 47.3434 135.283 47.3434H150.862C151.428 47.3434 151.743 47.0283 151.743 46.4563V46.2396C151.743 45.6676 151.43 45.3525 150.862 45.3525H136.464V34.3862H150.182C150.752 34.3862 151.066 34.0771 151.066 33.5051V33.3164C151.066 32.7485 150.752 32.4313 150.182 32.4313H136.464V22.023H150.862V22.021Z" fill="#01C1B3"/>
<path d="M251.804 16.8589L240.507 2.91017C240.459 2.85798 240.391 2.82186 240.317 2.81985L212.436 0C212.424 0 212.414 0 212.402 0.00200701C212.18 0.0180631 212.062 0.287003 212.216 0.461613C212.216 0.461613 219.395 7.52428 220.496 8.76261C220.788 9.08975 221.268 9.14394 221.636 8.90109C227.749 4.8369 236.719 8.06216 237.667 8.53783C237.974 8.69237 238.078 8.97937 238.036 9.14394C237.976 9.36873 237.693 10.3281 237.501 10.5127C237.373 10.6372 237.091 10.5629 236.941 10.4967C234.808 9.55739 232.583 9.00345 230.272 8.7887C227.679 8.54786 225.208 8.93722 222.915 10.2438C222.631 10.4084 222.338 10.6331 222.172 10.9021C222.098 11.0285 222.008 11.1811 221.918 11.3577C221.244 12.6442 220.211 15.1208 219.815 16.0762C219.747 16.2367 219.889 16.3993 220.057 16.3612C222.386 15.8012 234 13.4309 240.601 20.9953C240.631 20.7645 240.661 20.5839 240.669 20.4053C240.723 19.3797 240.765 18.3501 240.819 17.3225C240.827 17.1399 240.825 16.6963 240.837 16.2106L251.582 17.3225C251.828 17.3346 251.966 17.0435 251.802 16.8569" fill="#01C1B3"/>
<path d="M246.504 25.224C246.68 24.925 246.776 24.5858 246.776 24.2386C246.776 23.8914 246.672 23.5221 246.482 23.217C246.29 22.9119 246.016 22.6651 245.692 22.5065V14.2798H244.009V22.5065C243.581 22.7112 243.248 23.0685 243.066 23.51C242.886 23.9496 242.876 24.4413 243.036 24.8888C243.198 25.3364 243.517 25.7077 243.935 25.9305L242.162 29.6736C242.162 30.9199 247.538 30.9199 247.538 29.6736L245.764 25.9305C246.068 25.7679 246.324 25.5231 246.504 25.226" fill="#01C1B3"/>
<path d="M37.5704 69.557L37.2026 69.4907C37.1126 69.4727 37.0266 69.4626 36.9547 69.4626C36.6968 69.4626 36.4249 69.5489 36.135 70.151C35.1955 72.0838 33.6042 73.1074 31.5312 73.1074C28.2567 73.1074 26.2216 70.6949 26.2216 66.8194C26.2216 62.9439 28.3046 60.4893 31.5312 60.4893C33.5382 60.4893 35.1155 61.4707 36.0831 63.3272C36.3829 63.9112 36.6128 64.0216 36.9027 64.0216C36.9787 64.0216 37.0646 64.0116 37.1546 63.9976L37.5224 63.9253C37.8323 63.8731 38.0562 63.7386 38.1561 63.556C38.2761 63.3413 38.2141 63.0824 38.1461 62.9057C36.6248 59.0483 33.0125 58.6328 31.5312 58.6328C28.1047 58.6328 24.1006 60.7823 24.1006 66.8194C24.1006 72.8565 27.9368 74.9879 31.5312 74.9879C32.9705 74.9879 36.4829 74.5906 38.0362 70.9358C38.2081 70.5143 38.2321 70.147 38.0981 69.9022C37.9782 69.6774 37.7403 69.5911 37.5684 69.557" fill="#024280"/>
<path d="M75.5409 58.8396H72.3524C71.7847 58.8396 71.5088 59.1166 71.5088 59.6906V73.8641C71.5088 74.4381 71.7847 74.7151 72.3524 74.7151H75.5409C81.7941 74.7151 84.5828 72.2645 84.5828 66.7773C84.5828 61.2902 81.88 58.8396 75.5409 58.8396ZM75.6369 72.9027H73.5598V60.6299H75.6149C80.4467 60.6299 82.5057 62.4622 82.5057 66.7552C82.5057 71.0482 80.4507 72.9047 75.6369 72.9047" fill="#024280"/>
<path d="M105.697 60.6519C106.265 60.6519 106.541 60.375 106.541 59.801V59.6906C106.541 59.1166 106.265 58.8396 105.697 58.8396H97.2812C96.7095 58.8396 96.4336 59.1166 96.4336 59.6906V73.8641C96.4336 74.4381 96.7095 74.7151 97.2812 74.7151H105.697C106.265 74.7151 106.541 74.4381 106.541 73.8641V73.7497C106.541 73.1797 106.265 72.9027 105.697 72.9027H98.4866V67.5159H105.288C105.863 67.5159 106.137 67.253 106.137 66.687C106.137 66.0949 105.861 65.816 105.288 65.816H98.4866V60.6519H105.697Z" fill="#024280"/>
<path d="M135.055 73.8219L132.52 59.6243C132.434 59.0784 132.144 58.8396 131.581 58.8396H130.423C129.899 58.8396 129.575 59.0744 129.408 59.5762L125.199 72.3187L124.928 73.1416L124.656 72.3187L120.448 59.5762C120.28 59.0744 119.956 58.8396 119.428 58.8396H118.275C117.713 58.8396 117.421 59.0784 117.335 59.6183L114.8 73.8259C114.762 74.0307 114.752 74.3177 114.904 74.5003C115.052 74.6769 115.328 74.7151 115.534 74.7151H115.896C116.449 74.7151 116.749 74.4662 116.839 73.9303L118.988 62.0448L119.184 60.953L119.542 62.0067L123.568 73.9785C123.736 74.4802 124.06 74.7151 124.588 74.7151H125.263C125.793 74.7151 126.117 74.4802 126.283 73.9785L130.311 62.0067L130.663 60.953L130.863 62.0448L133.012 73.9263C133.102 74.4662 133.398 74.7151 133.951 74.7151H134.313C134.519 74.7151 134.795 74.6769 134.947 74.5003C135.095 74.3177 135.085 74.0307 135.051 73.8219" fill="#024280"/>
<path d="M155.426 59.0885C155.336 58.9299 155.102 58.8396 154.788 58.8396H154.268C153.759 58.8396 153.425 59.0403 153.187 59.4859L148.587 67.8029L148.339 68.2565L148.087 67.8029L143.541 59.4859C143.297 59.0403 142.965 58.8396 142.46 58.8396H141.892C141.596 58.8396 141.386 58.9159 141.306 59.0604C141.216 59.2129 141.254 59.4778 141.42 59.7789L147.277 70.2475L147.315 70.3137V73.8641C147.315 74.4381 147.591 74.7151 148.159 74.7151H148.521C149.089 74.7151 149.365 74.4381 149.365 73.8641V70.3137L149.403 70.2475L155.332 59.7729C155.484 59.4999 155.522 59.247 155.428 59.0885" fill="#024280"/>
<path d="M61.6308 74.9999H61.3009C60.8851 74.9999 60.5553 74.7792 60.4014 74.3838L59.1299 71.3673L58.4722 69.8259L58.2963 69.4285H54.716C54.2122 69.4285 53.9263 69.1435 53.9263 68.6357V68.3507C53.9263 67.845 54.2122 67.5579 54.716 67.5579H57.5067L54.59 60.6217L50.7298 69.8038L50.0721 71.3452L48.8007 74.3617C48.6248 74.7591 48.3189 74.9779 47.9011 74.9779H47.5932C47.0015 74.9779 46.7596 74.6046 46.9795 74.0747L53.4286 59.1686C53.6045 58.7733 53.9103 58.5525 54.3281 58.5525H54.8099C55.2257 58.5525 55.5556 58.7512 55.7095 59.1686L62.2225 74.0968C62.4424 74.6467 62.2225 74.9999 61.6308 74.9999Z" fill="#024280"/>
<path d="M14.749 74.9999H14.4191C14.0033 74.9999 13.6734 74.7792 13.5195 74.3838L12.2481 71.3673L11.5904 69.8259L11.4145 69.4285H7.83413C7.33036 69.4285 7.0445 69.1435 7.0445 68.6357V68.3507C7.0445 67.845 7.33036 67.5579 7.83413 67.5579H10.6248L7.70819 60.6217L3.84797 69.8038L3.19027 71.3452L1.91886 74.3617C1.74294 74.7591 1.43708 74.9779 1.01927 74.9779H0.711411C0.119684 74.9779 -0.122205 74.6046 0.0976939 74.0747L6.54672 59.1686C6.72264 58.7733 7.0285 58.5525 7.44631 58.5525H7.92809C8.3439 58.5525 8.67375 58.7512 8.82767 59.1686L15.3407 74.0968C15.5606 74.6467 15.3407 74.9999 14.749 74.9999Z" fill="#024280"/>
</svg>
