<svg version="1.1" viewBox="0.0 0.0 960.0 540.0" fill="none" stroke="none" stroke-linecap="square" stroke-miterlimit="10" xmlns:xlink="http://www.w3.org/1999/xlink" xmlns="http://www.w3.org/2000/svg"><clipPath id="g4292e032d1_0_0.0"><path d="m0 0l960.0 0l0 540.0l-960.0 0l0 -540.0z" clip-rule="nonzero"/></clipPath><g clip-path="url(#g4292e032d1_0_0.0)"><path fill="#ffffff" d="m0 0l960.0 0l0 540.0l-960.0 0z" fill-rule="evenodd"/><path fill="#c9daf8" d="m180.62993 253.98163l155.65355 0l0 149.73227l-155.65355 0z" fill-rule="evenodd"/><path stroke="#595959" stroke-width="1.0" stroke-linejoin="round" stroke-linecap="butt" d="m180.62993 253.98163l155.65355 0l0 149.73227l-155.65355 0z" fill-rule="evenodd"/><path fill="#c9daf8" d="m280.75592 32.76796l148.12598 0l0 73.07087l-148.12598 0z" fill-rule="evenodd"/><path stroke="#595959" stroke-width="1.0" stroke-linejoin="round" stroke-linecap="butt" d="m280.75592 32.76796l148.12598 0l0 73.07087l-148.12598 0z" fill-rule="evenodd"/><path fill="#eeeeee" d="m194.06561 339.5118l130.36221 0l0 53.322845l-130.36221 0z" fill-rule="evenodd"/><path stroke="#595959" stroke-width="1.0" stroke-linejoin="round" stroke-linecap="butt" d="m194.06561 339.5118l130.36221 0l0 53.322845l-130.36221 0z" fill-rule="evenodd"/><path fill="#000000" d="m222.41412 373.09323l-0.734375 0q-0.234375 0 -0.390625 -0.078125q-0.140625 -0.078125 -0.1875 -0.3125l-0.1875 -0.875q-0.375 0.328125 -0.734375 0.59375q-0.359375 0.265625 -0.75 0.453125q-0.390625 0.1875 -0.828125 0.28125q-0.4375 0.09375 -0.984375 0.09375q-0.546875 0 -1.03125 -0.15625q-0.484375 -0.15625 -0.84375 -0.46875q-0.34375 -0.3125 -0.5625 -0.78125q-0.203125 -0.46875 -0.203125 -1.109375q0 -0.5625 0.296875 -1.078125q0.3125 -0.515625 1.0 -0.90625q0.6875 -0.40625 1.796875 -0.65625q1.109375 -0.265625 2.71875 -0.3125l0 -0.734375q0 -1.09375 -0.46875 -1.65625q-0.46875 -0.578125 -1.40625 -0.578125q-0.59375 0 -1.015625 0.15625q-0.40625 0.15625 -0.71875 0.359375q-0.296875 0.1875 -0.515625 0.34375q-0.21875 0.140625 -0.4375 0.140625q-0.171875 0 -0.296875 -0.078125q-0.125 -0.09375 -0.203125 -0.21875l-0.296875 -0.53125q0.78125 -0.765625 1.6875 -1.140625q0.90625 -0.375 2.015625 -0.375q0.78125 0 1.390625 0.265625q0.625 0.265625 1.046875 0.734375q0.421875 0.46875 0.625 1.125q0.21875 0.65625 0.21875 1.453125l0 6.046875zm-4.296875 -1.015625q0.4375 0 0.796875 -0.078125q0.359375 -0.09375 0.671875 -0.25q0.328125 -0.171875 0.625 -0.40625q0.296875 -0.234375 0.578125 -0.53125l0 -1.96875q-1.15625 0.03125 -1.953125 0.1875q-0.796875 0.140625 -1.3125 0.375q-0.5 0.234375 -0.734375 0.546875q-0.21875 0.3125 -0.21875 0.703125q0 0.375 0.125 0.65625q0.125 0.265625 0.328125 0.4375q0.203125 0.171875 0.484375 0.25q0.28125 0.078125 0.609375 0.078125zm6.8181 4.21875l0 -12.65625l0.984375 0q0.359375 0 0.453125 0.34375l0.140625 1.125q0.609375 -0.734375 1.390625 -1.1875q0.78125 -0.453125 1.796875 -0.453125q0.8125 0 1.46875 0.3125q0.65625 0.3125 1.125 0.9375q0.46875 0.609375 0.71875 1.515625q0.25 0.90625 0.25 2.078125q0 1.046875 -0.28125 1.953125q-0.28125 0.890625 -0.796875 1.546875q-0.515625 0.65625 -1.28125 1.03125q-0.765625 0.375 -1.71875 0.375q-0.875 0 -1.5 -0.28125q-0.609375 -0.296875 -1.09375 -0.828125l0 4.1875l-1.65625 0zm4.203125 -11.484375q-0.8125 0 -1.421875 0.375q-0.609375 0.375 -1.125 1.0625l0 4.5625q0.46875 0.625 1.015625 0.875q0.546875 0.25 1.21875 0.25q1.3125 0 2.015625 -0.9375q0.703125 -0.953125 0.703125 -2.6875q0 -0.921875 -0.15625 -1.578125q-0.15625 -0.671875 -0.46875 -1.09375q-0.3125 -0.421875 -0.765625 -0.625q-0.4375 -0.203125 -1.015625 -0.203125zm6.0951233 11.484375l0 -12.65625l0.984375 0q0.359375 0 0.453125 0.34375l0.140625 1.125q0.609375 -0.734375 1.390625 -1.1875q0.78125 -0.453125 1.796875 -0.453125q0.8125 0 1.46875 0.3125q0.65625 0.3125 1.125 0.9375q0.46875 0.609375 0.71875 1.515625q0.25 0.90625 0.25 2.078125q0 1.046875 -0.28125 1.953125q-0.28125 0.890625 -0.796875 1.546875q-0.515625 0.65625 -1.28125 1.03125q-0.765625 0.375 -1.71875 0.375q-0.875 0 -1.5 -0.28125q-0.609375 -0.296875 -1.09375 -0.828125l0 4.1875l-1.65625 0zm4.203125 -11.484375q-0.8125 0 -1.421875 0.375q-0.609375 0.375 -1.125 1.0625l0 4.5625q0.46875 0.625 1.015625 0.875q0.546875 0.25 1.21875 0.25q1.3125 0 2.015625 -0.9375q0.703125 -0.953125 0.703125 -2.6875q0 -0.921875 -0.15625 -1.578125q-0.15625 -0.671875 -0.46875 -1.09375q-0.3125 -0.421875 -0.765625 -0.625q-0.4375 -0.203125 -1.015625 -0.203125zm7.9388733 -5.453125l0 13.734375l-1.65625 0l0 -13.734375l1.65625 0zm4.776001 4.28125l0 9.453125l-1.65625 0l0 -9.453125l1.65625 0zm0.375 -2.96875q0 0.25 -0.09375 0.46875q-0.09375 0.203125 -0.265625 0.375q-0.15625 0.15625 -0.375 0.25q-0.21875 0.09375 -0.453125 0.09375q-0.25 0 -0.46875 -0.09375q-0.203125 -0.09375 -0.359375 -0.25q-0.15625 -0.171875 -0.25 -0.375q-0.09375 -0.21875 -0.09375 -0.46875q0 -0.234375 0.09375 -0.453125q0.09375 -0.21875 0.25 -0.375q0.15625 -0.171875 0.359375 -0.265625q0.21875 -0.09375 0.46875 -0.09375q0.234375 0 0.453125 0.09375q0.21875 0.09375 0.375 0.265625q0.171875 0.15625 0.265625 0.375q0.09375 0.21875 0.09375 0.453125zm9.010361 4.65625q-0.078125 0.09375 -0.15625 0.15625q-0.078125 0.046875 -0.21875 0.046875q-0.140625 0 -0.296875 -0.109375q-0.15625 -0.109375 -0.421875 -0.25q-0.25 -0.140625 -0.609375 -0.25q-0.359375 -0.125 -0.875 -0.125q-0.6875 0 -1.21875 0.25q-0.53125 0.234375 -0.890625 0.703125q-0.359375 0.46875 -0.546875 1.140625q-0.1875 0.65625 -0.1875 1.46875q0 0.859375 0.203125 1.53125q0.203125 0.671875 0.546875 1.125q0.359375 0.453125 0.859375 0.6875q0.515625 0.234375 1.15625 0.234375q0.59375 0 0.984375 -0.140625q0.390625 -0.15625 0.65625 -0.328125q0.265625 -0.171875 0.421875 -0.3125q0.171875 -0.15625 0.34375 -0.15625q0.21875 0 0.3125 0.15625l0.46875 0.609375q-0.609375 0.765625 -1.53125 1.109375q-0.921875 0.34375 -1.953125 0.34375q-0.890625 0 -1.65625 -0.3125q-0.75 -0.328125 -1.3124847 -0.953125q-0.5625 -0.625 -0.890625 -1.53125q-0.3125 -0.90625 -0.3125 -2.0625q0 -1.046875 0.296875 -1.9375q0.296875 -0.90625 0.859375 -1.546875q0.56248474 -0.65625 1.3906097 -1.015625q0.828125 -0.359375 1.90625 -0.359375q0.984375 0 1.75 0.328125q0.765625 0.3125 1.359375 0.890625l-0.4375 0.609375zm9.196838 7.765625l-0.734375 0q-0.234375 0 -0.390625 -0.078125q-0.140625 -0.078125 -0.1875 -0.3125l-0.1875 -0.875q-0.375 0.328125 -0.734375 0.59375q-0.359375 0.265625 -0.75 0.453125q-0.390625 0.1875 -0.828125 0.28125q-0.4375 0.09375 -0.984375 0.09375q-0.546875 0 -1.03125 -0.15625q-0.484375 -0.15625 -0.84375 -0.46875q-0.34375 -0.3125 -0.5625 -0.78125q-0.203125 -0.46875 -0.203125 -1.109375q0 -0.5625 0.296875 -1.078125q0.3125 -0.515625 1.0 -0.90625q0.6875 -0.40625 1.796875 -0.65625q1.109375 -0.265625 2.71875 -0.3125l0 -0.734375q0 -1.09375 -0.46875 -1.65625q-0.46875 -0.578125 -1.40625 -0.578125q-0.59375 0 -1.015625 0.15625q-0.40625 0.15625 -0.71875 0.359375q-0.296875 0.1875 -0.515625 0.34375q-0.21875 0.140625 -0.4375 0.140625q-0.171875 0 -0.296875 -0.078125q-0.125 -0.09375 -0.203125 -0.21875l-0.296875 -0.53125q0.78125 -0.765625 1.6875 -1.140625q0.90625 -0.375 2.015625 -0.375q0.78125 0 1.390625 0.265625q0.625 0.265625 1.046875 0.734375q0.421875 0.46875 0.625 1.125q0.21875 0.65625 0.21875 1.453125l0 6.046875zm-4.296875 -1.015625q0.4375 0 0.796875 -0.078125q0.359375 -0.09375 0.671875 -0.25q0.328125 -0.171875 0.625 -0.40625q0.296875 -0.234375 0.578125 -0.53125l0 -1.96875q-1.15625 0.03125 -1.953125 0.1875q-0.796875 0.140625 -1.3125 0.375q-0.5 0.234375 -0.734375 0.546875q-0.21875 0.3125 -0.21875 0.703125q0 0.375 0.125 0.65625q0.125 0.265625 0.328125 0.4375q0.203125 0.171875 0.484375 0.25q0.28125 0.078125 0.609375 0.078125zm9.67749 1.171875q-1.109375 0 -1.71875 -0.625q-0.59375 -0.625 -0.59375 -1.8125l0 -5.78125l-1.140625 0q-0.15625 0 -0.265625 -0.078125q-0.09375 -0.09375 -0.09375 -0.28125l0 -0.65625l1.546875 -0.203125l0.390625 -2.921875q0.015625 -0.140625 0.109375 -0.21875q0.109375 -0.09375 0.265625 -0.09375l0.84375 0l0 3.25l2.703125 0l0 1.203125l-2.703125 0l0 5.671875q0 0.59375 0.28125 0.890625q0.296875 0.28125 0.75 0.28125q0.265625 0 0.453125 -0.0625q0.203125 -0.078125 0.328125 -0.15625q0.140625 -0.078125 0.234375 -0.140625q0.109375 -0.078125 0.1875 -0.078125q0.125 0 0.234375 0.15625l0.484375 0.796875q-0.4375 0.390625 -1.046875 0.625q-0.59375 0.234375 -1.25 0.234375zm5.9431458 -9.609375l0 9.453125l-1.65625 0l0 -9.453125l1.65625 0zm0.375 -2.96875q0 0.25 -0.09375 0.46875q-0.09375 0.203125 -0.265625 0.375q-0.15625 0.15625 -0.375 0.25q-0.21875 0.09375 -0.453125 0.09375q-0.25 0 -0.46875 -0.09375q-0.203125 -0.09375 -0.359375 -0.25q-0.15625 -0.171875 -0.25 -0.375q-0.09375 -0.21875 -0.09375 -0.46875q0 -0.234375 0.09375 -0.453125q0.09375 -0.21875 0.25 -0.375q0.15625 -0.171875 0.359375 -0.265625q0.21875 -0.09375 0.46875 -0.09375q0.234375 0 0.453125 0.09375q0.21875 0.09375 0.375 0.265625q0.171875 0.15625 0.265625 0.375q0.09375 0.21875 0.09375 0.453125zm6.385376 2.828125q1.03125 0 1.859375 0.34375q0.84375 0.34375 1.421875 0.984375q0.59375 0.625 0.90625 1.53125q0.3125 0.890625 0.3125 2.0q0 1.125 -0.3125 2.03125q-0.3125 0.890625 -0.90625 1.53125q-0.578125 0.625 -1.421875 0.96875q-0.828125 0.328125 -1.859375 0.328125q-1.03125 0 -1.875 -0.328125q-0.828125 -0.34375 -1.421875 -0.96875q-0.578125 -0.640625 -0.90625 -1.53125q-0.3125 -0.90625 -0.3125 -2.03125q0 -1.109375 0.3125 -2.0q0.328125 -0.90625 0.90625 -1.53125q0.59375 -0.640625 1.421875 -0.984375q0.84375 -0.34375 1.875 -0.34375zm0 8.421875q1.390625 0 2.078125 -0.9375q0.703125 -0.9375 0.703125 -2.609375q0 -1.6875 -0.703125 -2.625q-0.6875 -0.953125 -2.078125 -0.953125q-0.703125 0 -1.234375 0.25q-0.515625 0.234375 -0.875 0.703125q-0.34375 0.453125 -0.515625 1.125q-0.171875 0.65625 -0.171875 1.5q0 0.84375 0.171875 1.5q0.171875 0.65625 0.515625 1.109375q0.359375 0.453125 0.875 0.703125q0.53125 0.234375 1.234375 0.234375zm6.5447693 1.171875l0 -9.453125l0.984375 0q0.359375 0 0.453125 0.34375l0.125 1.03125q0.625 -0.6875 1.375 -1.09375q0.765625 -0.421875 1.765625 -0.421875q0.78125 0 1.359375 0.265625q0.59375 0.25 0.984375 0.71875q0.40625 0.46875 0.609375 1.140625q0.203125 0.65625 0.203125 1.453125l0 6.015625l-1.65625 0l0 -6.015625q0 -1.078125 -0.5 -1.671875q-0.484375 -0.59375 -1.484375 -0.59375q-0.734375 0 -1.375 0.359375q-0.640625 0.359375 -1.1875 0.96875l0 6.953125l-1.65625 0z" fill-rule="nonzero"/><path fill="#eeeeee" d="m194.06561 267.61154l130.36221 0l0 53.322845l-130.36221 0z" fill-rule="evenodd"/><path stroke="#595959" stroke-width="1.0" stroke-linejoin="round" stroke-linecap="butt" d="m194.06561 267.61154l130.36221 0l0 53.322845l-130.36221 0z" fill-rule="evenodd"/><path fill="#000000" d="m210.99521 302.88297l0 -10.859375l0.84375 0q0.296875 0 0.390625 0.296875l0.109375 0.96875q0.53125 -0.640625 1.1875 -1.015625q0.671875 -0.390625 1.546875 -0.390625q0.6875 0 1.25 0.265625q0.578125 0.265625 0.96875 0.796875q0.40625 0.53125 0.625 1.3125q0.21875 0.765625 0.21875 1.765625q0 0.90625 -0.25 1.6875q-0.234375 0.765625 -0.6875 1.328125q-0.4375 0.5625 -1.09375 0.890625q-0.65625 0.3125 -1.46875 0.3125q-0.75 0 -1.28125 -0.25q-0.53125 -0.25 -0.9375 -0.703125l0 3.59375l-1.421875 0zm3.609375 -9.84375q-0.703125 0 -1.234375 0.328125q-0.515625 0.3125 -0.953125 0.890625l0 3.921875q0.390625 0.53125 0.859375 0.75q0.46875 0.21875 1.046875 0.21875q1.125 0 1.734375 -0.8125q0.609375 -0.8125 0.609375 -2.3125q0 -0.78125 -0.140625 -1.34375q-0.140625 -0.578125 -0.40625 -0.9375q-0.265625 -0.375 -0.65625 -0.53125q-0.375 -0.171875 -0.859375 -0.171875zm5.222519 7.09375l0 -8.109375l0.8125 0q0.234375 0 0.3125 0.09375q0.09375 0.09375 0.125 0.296875l0.09375 1.265625q0.421875 -0.84375 1.03125 -1.3125q0.609375 -0.484375 1.4375 -0.484375q0.328125 0 0.59375 0.078125q0.28125 0.078125 0.515625 0.21875l-0.1875 1.0625q-0.046875 0.1875 -0.25 0.1875q-0.109375 0 -0.34375 -0.0625q-0.21875 -0.078125 -0.640625 -0.078125q-0.75 0 -1.25 0.4375q-0.5 0.421875 -0.828125 1.25l0 5.15625l-1.421875 0zm9.729172 -8.234375q0.875 0 1.59375 0.296875q0.71875 0.296875 1.21875 0.84375q0.5 0.546875 0.765625 1.3125q0.265625 0.765625 0.265625 1.71875q0 0.96875 -0.265625 1.734375q-0.265625 0.765625 -0.765625 1.3125q-0.5 0.546875 -1.21875 0.84375q-0.71875 0.28125 -1.59375 0.28125q-0.890625 0 -1.609375 -0.28125q-0.71875 -0.296875 -1.21875 -0.84375q-0.5 -0.546875 -0.78125 -1.3125q-0.265625 -0.765625 -0.265625 -1.734375q0 -0.953125 0.265625 -1.71875q0.28125 -0.765625 0.78125 -1.3125q0.5 -0.546875 1.21875 -0.84375q0.71875 -0.296875 1.609375 -0.296875zm0 7.234375q1.1875 0 1.78125 -0.796875q0.59375 -0.8125 0.59375 -2.25q0 -1.453125 -0.59375 -2.25q-0.59375 -0.8125 -1.78125 -0.8125q-0.609375 0 -1.0625 0.203125q-0.453125 0.203125 -0.75 0.609375q-0.296875 0.390625 -0.453125 0.96875q-0.140625 0.5625 -0.140625 1.28125q0 0.71875 0.140625 1.296875q0.15625 0.5625 0.453125 0.953125q0.296875 0.375 0.75 0.59375q0.453125 0.203125 1.0625 0.203125zm7.5052643 -3.15625l-2.71875 -3.953125l1.359375 0q0.171875 0 0.25 0.0625q0.09375 0.0625 0.15625 0.15625l1.984375 3.046875q0.0625 -0.234375 0.203125 -0.453125l1.75 -2.5625q0.078125 -0.109375 0.15625 -0.171875q0.078125 -0.078125 0.203125 -0.078125l1.3125 0l-2.734375 3.875l2.84375 4.234375l-1.375 0q-0.171875 0 -0.28125 -0.09375q-0.09375 -0.09375 -0.15625 -0.203125l-2.046875 -3.171875q-0.046875 0.234375 -0.15625 0.40625l-1.890625 2.765625q-0.078125 0.109375 -0.171875 0.203125q-0.09375 0.09375 -0.25 0.09375l-1.28125 0l2.84375 -4.15625zm8.548279 6.546875q-0.078125 0.15625 -0.1875 0.25q-0.109375 0.109375 -0.328125 0.109375l-1.0625 0l1.484375 -3.21875l-3.34375 -7.640625l1.234375 0q0.1875 0 0.28125 0.09375q0.109375 0.09375 0.15625 0.203125l2.171875 5.109375q0.078125 0.171875 0.125 0.359375q0.046875 0.171875 0.09375 0.359375q0.046875 -0.1875 0.109375 -0.359375q0.0625 -0.1875 0.125 -0.375l2.109375 -5.09375q0.046875 -0.125 0.15625 -0.203125q0.125 -0.09375 0.25 -0.09375l1.140625 0l-4.515625 10.5zm5.9262695 -2.21875q-0.109375 0.28125 -0.328125 0.40625q-0.21875 0.140625 -0.453125 0.140625l-0.59375 0l4.8125 -11.96875q0.09375 -0.265625 0.28125 -0.390625q0.203125 -0.140625 0.46875 -0.140625l0.59376526 0l-4.7812653 11.953125zm5.8585663 -0.171875l0 -8.109375l0.84375 0q0.296875 0 0.390625 0.296875l0.09375 0.84375q0.453125 -0.5625 1.0 -0.90625q0.5625 -0.359375 1.296875 -0.359375q0.828125 0 1.328125 0.46875q0.515625 0.453125 0.734375 1.21875q0.171875 -0.4375 0.4375 -0.75q0.28125 -0.328125 0.625 -0.53125q0.34375 -0.21875 0.734375 -0.3125q0.390625 -0.09375 0.796875 -0.09375q0.640625 0 1.140625 0.203125q0.5 0.203125 0.84375 0.59375q0.34375 0.390625 0.53125 0.96875q0.1875 0.578125 0.1875 1.3125l0 5.15625l-1.421875 0l0 -5.15625q0 -0.953125 -0.421875 -1.4375q-0.421875 -0.5 -1.203125 -0.5q-0.359375 0 -0.671875 0.125q-0.3125 0.125 -0.5625 0.359375q-0.234375 0.234375 -0.375 0.609375q-0.140625 0.359375 -0.140625 0.84375l0 5.15625l-1.421875 0l0 -5.15625q0 -0.984375 -0.390625 -1.453125q-0.390625 -0.484375 -1.140625 -0.484375q-0.53125 0 -0.984375 0.28125q-0.453125 0.28125 -0.828125 0.765625l0 6.046875l-1.421875 0zm16.338959 -8.234375q0.734375 0 1.34375 0.25q0.609375 0.234375 1.0625 0.703125q0.453125 0.453125 0.703125 1.140625q0.25 0.671875 0.25 1.53125q0 0.34375 -0.078125 0.453125q-0.0625 0.109375 -0.265625 0.109375l-5.390625 0q0.015625 0.765625 0.203125 1.34375q0.203125 0.5625 0.53125 0.9375q0.34375 0.375 0.796875 0.5625q0.46875 0.1875 1.046875 0.1875q0.53125 0 0.921875 -0.109375q0.390625 -0.125 0.671875 -0.265625q0.28125 -0.15625 0.46875 -0.28125q0.1875 -0.125 0.3125 -0.125q0.1875 0 0.28125 0.140625l0.390625 0.515625q-0.25 0.328125 -0.625 0.5625q-0.375 0.234375 -0.796875 0.390625q-0.40625 0.140625 -0.859375 0.21875q-0.453125 0.078125 -0.890625 0.078125q-0.84375 0 -1.546875 -0.28125q-0.703125 -0.28125 -1.21875 -0.828125q-0.515625 -0.546875 -0.8125 -1.359375q-0.28125 -0.8125 -0.28125 -1.859375q0 -0.84375 0.25 -1.578125q0.265625 -0.734375 0.75 -1.265625q0.5 -0.546875 1.203125 -0.859375q0.703125 -0.3125 1.578125 -0.3125zm0.03125 1.046875q-1.03125 0 -1.625 0.609375q-0.59375 0.59375 -0.734375 1.640625l4.40625 0q0 -0.5 -0.140625 -0.90625q-0.125 -0.40625 -0.390625 -0.703125q-0.265625 -0.3125 -0.65625 -0.46875q-0.375 -0.171875 -0.859375 -0.171875zm7.6026306 7.3125q-0.96875 0 -1.484375 -0.53125q-0.515625 -0.53125 -0.515625 -1.546875l0 -4.953125l-0.96875 0q-0.125 0 -0.21875 -0.078125q-0.078125 -0.078125 -0.078125 -0.234375l0 -0.578125l1.328125 -0.15625l0.328125 -2.515625q0.015625 -0.109375 0.09375 -0.1875q0.09375 -0.078125 0.234375 -0.078125l0.71875 0l0 2.796875l2.3125 0l0 1.03125l-2.3125 0l0 4.859375q0 0.515625 0.234375 0.765625q0.25 0.234375 0.640625 0.234375q0.234375 0 0.390625 -0.046875q0.171875 -0.0625 0.28125 -0.125q0.125 -0.078125 0.203125 -0.140625q0.09375 -0.0625 0.15625 -0.0625q0.109375 0 0.203125 0.140625l0.40625 0.671875q-0.359375 0.34375 -0.890625 0.546875q-0.515625 0.1875 -1.0625 0.1875zm3.514801 -0.125l0 -8.109375l0.8125 0q0.234375 0 0.3125 0.09375q0.09375 0.09375 0.125 0.296875l0.09375 1.265625q0.421875 -0.84375 1.03125 -1.3125q0.609375 -0.484375 1.4375 -0.484375q0.328125 0 0.59375 0.078125q0.28125 0.078125 0.515625 0.21875l-0.1875 1.0625q-0.046875 0.1875 -0.25 0.1875q-0.109375 0 -0.34375 -0.0625q-0.21875 -0.078125 -0.640625 -0.078125q-0.75 0 -1.25 0.4375q-0.5 0.421875 -0.828125 1.25l0 5.15625l-1.421875 0zm8.026062 -8.109375l0 8.109375l-1.421875 0l0 -8.109375l1.421875 0zm0.328125 -2.53125q0 0.203125 -0.09375 0.390625q-0.078125 0.171875 -0.21875 0.3125q-0.140625 0.140625 -0.328125 0.21875q-0.1875 0.078125 -0.390625 0.078125q-0.203125 0 -0.390625 -0.078125q-0.171875 -0.078125 -0.3125 -0.21875q-0.140625 -0.140625 -0.21875 -0.3125q-0.078125 -0.1875 -0.078125 -0.390625q0 -0.21875 0.078125 -0.40625q0.078125 -0.1875 0.21875 -0.328125q0.140625 -0.140625 0.3125 -0.21875q0.1875 -0.078125 0.390625 -0.078125q0.203125 0 0.390625 0.078125q0.1875 0.078125 0.328125 0.21875q0.140625 0.140625 0.21875 0.328125q0.09375 0.1875 0.09375 0.40625zm7.7209473 3.984375q-0.078125 0.078125 -0.140625 0.125q-0.0625 0.046875 -0.171875 0.046875q-0.125 0 -0.265625 -0.09375q-0.140625 -0.109375 -0.359375 -0.21875q-0.21875 -0.125 -0.53125 -0.21875q-0.296875 -0.109375 -0.75 -0.109375q-0.59375 0 -1.046875 0.21875q-0.453125 0.203125 -0.765625 0.609375q-0.296875 0.40625 -0.453125 0.96875q-0.15625 0.5625 -0.15625 1.265625q0 0.75 0.15625 1.328125q0.171875 0.5625 0.46875 0.953125q0.3125 0.375 0.75 0.59375q0.4375 0.203125 0.984375 0.203125q0.515625 0 0.84375 -0.125q0.34375 -0.125 0.5625 -0.28125q0.234375 -0.15625 0.375 -0.28125q0.140625 -0.125 0.28125 -0.125q0.1875 0 0.28125 0.140625l0.390625 0.515625q-0.53125 0.65625 -1.328125 0.953125q-0.78125 0.296875 -1.65625 0.296875q-0.765625 0 -1.421875 -0.28125q-0.640625 -0.28125 -1.125 -0.8125q-0.484375 -0.53125 -0.765625 -1.296875q-0.265625 -0.78125 -0.265625 -1.78125q0 -0.890625 0.25 -1.65625q0.25 -0.78125 0.734375 -1.328125q0.484375 -0.5625 1.1875 -0.875q0.71875 -0.3125 1.640625 -0.3125q0.84375 0 1.5 0.28125q0.65625 0.265625 1.171875 0.78125l-0.375 0.515625zm6.5812683 -0.109375q-0.09375 0.171875 -0.296875 0.171875q-0.125 0 -0.28125 -0.078125q-0.140625 -0.09375 -0.375 -0.203125q-0.21875 -0.109375 -0.515625 -0.203125q-0.296875 -0.09375 -0.71875 -0.09375q-0.359375 0 -0.65625 0.09375q-0.28125 0.09375 -0.484375 0.265625q-0.203125 0.15625 -0.3125 0.375q-0.109375 0.203125 -0.109375 0.453125q0 0.296875 0.171875 0.515625q0.1875 0.203125 0.484375 0.359375q0.296875 0.15625 0.671875 0.265625q0.375 0.109375 0.765625 0.25q0.40625 0.125 0.78125 0.296875q0.375 0.15625 0.671875 0.40625q0.296875 0.234375 0.46875 0.578125q0.1875 0.34375 0.1875 0.828125q0 0.5625 -0.203125 1.046875q-0.203125 0.46875 -0.59375 0.828125q-0.390625 0.34375 -0.96875 0.546875q-0.5625 0.1875 -1.296875 0.1875q-0.84375 0 -1.546875 -0.265625q-0.6875 -0.28125 -1.15625 -0.71875l0.328125 -0.546875q0.0625 -0.09375 0.15625 -0.140625q0.09375 -0.0625 0.234375 -0.0625q0.140625 0 0.296875 0.109375q0.171875 0.109375 0.390625 0.25q0.234375 0.125 0.546875 0.25q0.328125 0.109375 0.8125 0.109375q0.421875 0 0.734375 -0.109375q0.3125 -0.109375 0.515625 -0.296875q0.21875 -0.1875 0.3125 -0.421875q0.09375 -0.234375 0.09375 -0.515625q0 -0.328125 -0.1875 -0.546875q-0.171875 -0.234375 -0.46875 -0.375q-0.296875 -0.15625 -0.671875 -0.265625q-0.375 -0.125 -0.78125 -0.25q-0.390625 -0.140625 -0.78125 -0.296875q-0.375 -0.171875 -0.671875 -0.40625q-0.28125 -0.25 -0.46875 -0.609375q-0.171875 -0.375 -0.171875 -0.890625q0 -0.46875 0.1875 -0.890625q0.1875 -0.4375 0.546875 -0.75q0.375 -0.328125 0.90625 -0.515625q0.546875 -0.203125 1.234375 -0.203125q0.796875 0 1.421875 0.25q0.640625 0.25 1.109375 0.703125l-0.3125 0.515625z" fill-rule="nonzero"/><path fill="#eeeeee" d="m289.5433 42.34801l130.36221 0l0 53.322834l-130.36221 0z" fill-rule="evenodd"/><path stroke="#595959" stroke-width="1.0" stroke-linejoin="round" stroke-linecap="butt" d="m289.5433 42.34801l130.36221 0l0 53.322834l-130.36221 0z" fill-rule="evenodd"/><path fill="#000000" d="m306.65402 79.13255l0 -12.65625l0.984375 0q0.359375 0 0.453125 0.34375l0.140625 1.125q0.609375 -0.734375 1.390625 -1.1875q0.78125 -0.453125 1.796875 -0.453125q0.8125 0 1.46875 0.3125q0.65625 0.3125 1.125 0.9375q0.46875 0.609375 0.71875 1.515625q0.25 0.90625 0.25 2.078125q0 1.046875 -0.28125 1.953125q-0.28125 0.890625 -0.796875 1.546875q-0.515625 0.65625 -1.28125 1.03125q-0.765625 0.375 -1.71875 0.375q-0.875 0 -1.5 -0.28125q-0.609375 -0.296875 -1.09375 -0.828125l0 4.1875l-1.65625 0zm4.203125 -11.484375q-0.8125 0 -1.421875 0.375q-0.609375 0.375 -1.125 1.0625l0 4.5625q0.46875 0.625 1.015625 0.875q0.546875 0.25 1.21875 0.25q1.3125 0 2.015625 -0.9375q0.703125 -0.953125 0.703125 -2.6875q0 -0.921875 -0.15625 -1.578125q-0.15625 -0.671875 -0.46875 -1.09375q-0.3125 -0.421875 -0.765625 -0.625q-0.4375 -0.203125 -1.015625 -0.203125zm6.0951233 8.28125l0 -9.453125l0.953125 0q0.265625 0 0.375 0.109375q0.109375 0.09375 0.140625 0.34375l0.109375 1.484375q0.484375 -0.984375 1.1875 -1.546875q0.71875 -0.5625 1.6875 -0.5625q0.390625 0 0.703125 0.09375q0.328125 0.09375 0.59375 0.25l-0.21875 1.234375q-0.0625 0.234375 -0.28125 0.234375q-0.140625 0 -0.40625 -0.078125q-0.265625 -0.09375 -0.75 -0.09375q-0.875 0 -1.453125 0.5q-0.578125 0.5 -0.984375 1.46875l0 6.015625l-1.65625 0zm11.346588 -9.59375q1.03125 0 1.859375 0.34375q0.84375 0.34375 1.421875 0.984375q0.59375 0.625 0.90625 1.53125q0.3125 0.890625 0.3125 2.0q0 1.125 -0.3125 2.03125q-0.3125 0.890625 -0.90625 1.53125q-0.578125 0.625 -1.421875 0.96875q-0.828125 0.328125 -1.859375 0.328125q-1.03125 0 -1.875 -0.328125q-0.828125 -0.34375 -1.421875 -0.96875q-0.578125 -0.640625 -0.90625 -1.53125q-0.3125 -0.90625 -0.3125 -2.03125q0 -1.109375 0.3125 -2.0q0.328125 -0.90625 0.90625 -1.53125q0.59375 -0.640625 1.421875 -0.984375q0.84375 -0.34375 1.875 -0.34375zm0 8.421875q1.390625 0 2.078125 -0.9375q0.703125 -0.9375 0.703125 -2.609375q0 -1.6875 -0.703125 -2.625q-0.6875 -0.953125 -2.078125 -0.953125q-0.703125 0 -1.234375 0.25q-0.515625 0.234375 -0.875 0.703125q-0.34375 0.453125 -0.515625 1.125q-0.171875 0.65625 -0.171875 1.5q0 0.84375 0.171875 1.5q0.171875 0.65625 0.515625 1.109375q0.359375 0.453125 0.875 0.703125q0.53125 0.234375 1.234375 0.234375zm6.5447693 1.171875l0 -9.453125l0.984375 0q0.359375 0 0.453125 0.34375l0.125 0.96875q0.515625 -0.640625 1.15625 -1.046875q0.65625 -0.40625 1.515625 -0.40625q0.96875 0 1.5625 0.53125q0.59375 0.53125 0.84375 1.4375q0.203125 -0.515625 0.515625 -0.890625q0.328125 -0.375 0.71875 -0.609375q0.40625 -0.25 0.859375 -0.359375q0.453125 -0.109375 0.921875 -0.109375q0.75 0 1.328125 0.234375q0.578125 0.234375 0.984375 0.703125q0.40625 0.453125 0.625 1.125q0.21875 0.65625 0.21875 1.515625l0 6.015625l-1.65625 0l0 -6.015625q0 -1.109375 -0.5 -1.6875q-0.484375 -0.578125 -1.40625 -0.578125q-0.40625 0 -0.78125 0.15625q-0.359375 0.140625 -0.640625 0.421875q-0.28125 0.28125 -0.453125 0.703125q-0.15625 0.421875 -0.15625 0.984375l0 6.015625l-1.65625 0l0 -6.015625q0 -1.140625 -0.46875 -1.703125q-0.453125 -0.5625 -1.328125 -0.5625q-0.609375 0 -1.140625 0.34375q-0.53125 0.328125 -0.96875 0.890625l0 7.046875l-1.65625 0zm19.066803 -9.59375q0.84375 0 1.5625 0.28125q0.71875 0.28125 1.234375 0.828125q0.53125 0.53125 0.8125 1.328125q0.296875 0.78125 0.296875 1.78125q0 0.390625 -0.078125 0.53125q-0.078125 0.125 -0.3125 0.125l-6.2969055 0q0.015625 0.890625 0.234375 1.5625q0.234375 0.65625 0.625 1.109375q0.390625 0.4375 0.9375 0.65625q0.546875 0.21875 1.2031555 0.21875q0.625 0 1.078125 -0.140625q0.453125 -0.15625 0.78125 -0.3125q0.328125 -0.171875 0.546875 -0.3125q0.21875 -0.15625 0.375 -0.15625q0.21875 0 0.328125 0.15625l0.46875 0.609375q-0.3125 0.375 -0.75 0.65625q-0.421875 0.265625 -0.921875 0.453125q-0.484375 0.171875 -1.015625 0.25q-0.515625 0.09375 -1.015625 0.09375q-0.9844055 0 -1.8125305 -0.328125q-0.828125 -0.328125 -1.4375 -0.96875q-0.59375 -0.640625 -0.9375 -1.578125q-0.328125 -0.9375 -0.328125 -2.171875q0 -0.984375 0.296875 -1.84375q0.3125 -0.859375 0.875 -1.484375q0.578125 -0.625 1.390625 -0.984375q0.828125 -0.359375 1.8594055 -0.359375zm0.03125 1.21875q-1.2031555 0 -1.8906555 0.703125q-0.6875 0.6875 -0.859375 1.921875l5.1406555 0q0 -0.578125 -0.171875 -1.0625q-0.15625 -0.484375 -0.46875 -0.828125q-0.296875 -0.359375 -0.75 -0.546875q-0.4375 -0.1875 -1.0 -0.1875zm8.854004 8.53125q-1.109375 0 -1.71875 -0.625q-0.59375 -0.625 -0.59375 -1.8125l0 -5.78125l-1.140625 0q-0.15625 0 -0.265625 -0.078125q-0.09375 -0.09375 -0.09375 -0.28125l0 -0.65625l1.546875 -0.203125l0.390625 -2.9218788q0.015625 -0.140625 0.109375 -0.21875q0.109375 -0.09375 0.265625 -0.09375l0.84375 0l0 3.2500038l2.703125 0l0 1.203125l-2.703125 0l0 5.671875q0 0.59375 0.28125 0.890625q0.296875 0.28125 0.75 0.28125q0.265625 0 0.453125 -0.0625q0.203125 -0.078125 0.328125 -0.15625q0.140625 -0.078125 0.234375 -0.140625q0.109375 -0.078125 0.1875 -0.078125q0.125 0 0.234375 0.15625l0.484375 0.796875q-0.4375 0.390625 -1.046875 0.625q-0.59375 0.234375 -1.25 0.234375zm4.0993958 -0.15625l0 -13.734379l1.65625 0l0 5.546879q0.609375 -0.640625 1.34375 -1.015625q0.75 -0.390625 1.703125 -0.390625q0.78125 0 1.359375 0.265625q0.59375 0.25 0.984375 0.71875q0.40625 0.46875 0.609375 1.140625q0.203125 0.65625 0.203125 1.453125l0 6.015625l-1.65625 0l0 -6.015625q0 -1.078125 -0.5 -1.671875q-0.484375 -0.59375 -1.484375 -0.59375q-0.734375 0 -1.375 0.359375q-0.640625 0.359375 -1.1875 0.96875l0 6.953125l-1.65625 0zm14.122894 -9.59375q0.84375 0 1.5625 0.28125q0.71875 0.28125 1.234375 0.828125q0.53125 0.53125 0.8125 1.328125q0.296875 0.78125 0.296875 1.78125q0 0.390625 -0.078125 0.53125q-0.078125 0.125 -0.3125 0.125l-6.296875 0q0.015625 0.890625 0.234375 1.5625q0.234375 0.65625 0.625 1.109375q0.390625 0.4375 0.9375 0.65625q0.546875 0.21875 1.203125 0.21875q0.625 0 1.078125 -0.140625q0.453125 -0.15625 0.78125 -0.3125q0.328125 -0.171875 0.546875 -0.3125q0.21875 -0.15625 0.375 -0.15625q0.21875 0 0.328125 0.15625l0.46875 0.609375q-0.3125 0.375 -0.75 0.65625q-0.421875 0.265625 -0.921875 0.453125q-0.484375 0.171875 -1.015625 0.25q-0.515625 0.09375 -1.015625 0.09375q-0.984375 0 -1.8125 -0.328125q-0.828125 -0.328125 -1.4375 -0.96875q-0.59375 -0.640625 -0.9375 -1.578125q-0.328125 -0.9375 -0.328125 -2.171875q0 -0.984375 0.296875 -1.84375q0.3125 -0.859375 0.875 -1.484375q0.578125 -0.625 1.390625 -0.984375q0.828125 -0.359375 1.859375 -0.359375zm0.03125 1.21875q-1.203125 0 -1.890625 0.703125q-0.6875 0.6875 -0.859375 1.921875l5.140625 0q0 -0.578125 -0.171875 -1.0625q-0.15625 -0.484375 -0.46875 -0.828125q-0.296875 -0.359375 -0.75 -0.546875q-0.4375 -0.1875 -1.0 -0.1875zm7.432129 -1.078125l0 6.03125q0 1.078125 0.484375 1.671875q0.5 0.578125 1.5 0.578125q0.734375 0 1.375 -0.34375q0.640625 -0.34375 1.1875 -0.96875l0 -6.96875l1.65625 0l0 9.453125l-0.984375 0q-0.359375 0 -0.453125 -0.34375l-0.125 -1.015625q-0.625 0.671875 -1.390625 1.09375q-0.765625 0.421875 -1.75 0.421875q-0.765625 0 -1.359375 -0.25q-0.59375 -0.265625 -1.0 -0.734375q-0.390625 -0.46875 -0.59375 -1.125q-0.203125 -0.671875 -0.203125 -1.46875l0 -6.03125l1.65625 0zm14.341614 1.5625q-0.109375 0.203125 -0.34375 0.203125q-0.140625 0 -0.3125 -0.09375q-0.171875 -0.109375 -0.4375 -0.234375q-0.25 -0.125 -0.609375 -0.234375q-0.359375 -0.109375 -0.84375 -0.109375q-0.40625 0 -0.75 0.109375q-0.328125 0.109375 -0.578125 0.296875q-0.234375 0.1875 -0.359375 0.4375q-0.125 0.234375 -0.125 0.53125q0 0.359375 0.203125 0.609375q0.21875 0.234375 0.5625 0.421875q0.34375 0.171875 0.78125 0.3125q0.4375 0.125 0.890625 0.28125q0.46875 0.15625 0.90625 0.34375q0.4375 0.1875 0.78125 0.46875q0.359375 0.28125 0.5625 0.6875q0.203125 0.40625 0.203125 0.96875q0 0.65625 -0.234375 1.21875q-0.21875 0.546875 -0.6875 0.953125q-0.453125 0.40625 -1.125 0.640625q-0.65625 0.234375 -1.515625 0.234375q-0.984375 0 -1.796875 -0.328125q-0.796875 -0.328125 -1.359375 -0.828125l0.390625 -0.625q0.078125 -0.125 0.171875 -0.1875q0.109375 -0.078125 0.28125 -0.078125q0.15625 0 0.34375 0.140625q0.1875 0.125 0.453125 0.28125q0.265625 0.15625 0.640625 0.296875q0.390625 0.125 0.953125 0.125q0.484375 0 0.84375 -0.125q0.375 -0.125 0.609375 -0.328125q0.25 -0.21875 0.359375 -0.5q0.125 -0.28125 0.125 -0.609375q0 -0.390625 -0.21875 -0.640625q-0.203125 -0.25 -0.546875 -0.4375q-0.34375 -0.1875 -0.796875 -0.3125q-0.4375 -0.140625 -0.90625 -0.28125q-0.453125 -0.15625 -0.90625 -0.34375q-0.4375 -0.203125 -0.78125 -0.484375q-0.34375 -0.296875 -0.5625 -0.71875q-0.203125 -0.421875 -0.203125 -1.03125q0 -0.53125 0.21875 -1.03125q0.234375 -0.5 0.65625 -0.875q0.4375 -0.390625 1.0625 -0.609375q0.625 -0.21875 1.421875 -0.21875q0.9375 0 1.671875 0.296875q0.75 0.28125 1.28125 0.796875l-0.375 0.609375z" fill-rule="nonzero"/><path fill="#000000" fill-opacity="0.0" d="m285.71652 340.4987l0 -19.748016" fill-rule="evenodd"/><path stroke="#595959" stroke-width="2.0" stroke-linejoin="round" stroke-linecap="butt" d="m285.71652 340.4987l0 -7.7480164" fill-rule="evenodd"/><path fill="#595959" stroke="#595959" stroke-width="2.0" stroke-linecap="butt" d="m289.02 332.75064l-3.3034668 -9.076172l-3.3034668 9.076172z" fill-rule="evenodd"/><path fill="#000000" fill-opacity="0.0" d="m227.74016 321.7349l0 17.763794" fill-rule="evenodd"/><path stroke="#595959" stroke-width="2.0" stroke-linejoin="round" stroke-linecap="butt" d="m227.74016 321.7349l0 5.763794" fill-rule="evenodd"/><path fill="#595959" stroke="#595959" stroke-width="2.0" stroke-linecap="butt" d="m224.43669 327.4987l3.3034668 9.076202l3.3034668 -9.076202z" fill-rule="evenodd"/><path fill="#000000" fill-opacity="0.0" d="m30.700787 185.2441l893.8268 0" fill-rule="evenodd"/><path stroke="#595959" stroke-width="1.0" stroke-linejoin="round" stroke-linecap="butt" stroke-dasharray="4.0,3.0" d="m30.700787 185.2441l893.8268 0" fill-rule="evenodd"/><path fill="#000000" fill-opacity="0.0" d="m12.824147 137.93439l148.12599 0l0 37.543304l-148.12599 0z" fill-rule="evenodd"/><path fill="#000000" d="m32.792896 160.16689l1.765625 0.453125q-0.5625 2.171875 -2.0 3.328125q-1.4375 1.140625 -3.53125 1.140625q-2.15625 0 -3.515625 -0.875q-1.34375 -0.890625 -2.0625 -2.546875q-0.703125 -1.671875 -0.703125 -3.59375q0 -2.078125 0.796875 -3.625q0.796875 -1.5625 2.265625 -2.359375q1.484375 -0.8125 3.25 -0.8125q2.0 0 3.359375 1.015625q1.375 1.015625 1.90625 2.875l-1.734375 0.40625q-0.46875 -1.453125 -1.359375 -2.109375q-0.875 -0.671875 -2.203125 -0.671875q-1.546875 0 -2.578125 0.734375q-1.03125 0.734375 -1.453125 1.984375q-0.421875 1.234375 -0.421875 2.5625q0 1.703125 0.5 2.96875q0.5 1.265625 1.546875 1.90625q1.046875 0.625 2.265625 0.625q1.484375 0 2.515625 -0.859375q1.03125 -0.859375 1.390625 -2.546875zm3.1291962 -0.15625q0 -2.6875 1.484375 -3.96875q1.25 -1.078125 3.046875 -1.078125q2.0 0 3.265625 1.3125q1.265625 1.296875 1.265625 3.609375q0 1.859375 -0.5625 2.9375q-0.5625 1.0625 -1.640625 1.65625q-1.0625 0.59375 -2.328125 0.59375q-2.03125 0 -3.28125 -1.296875q-1.25 -1.3125 -1.25 -3.765625zm1.6875 0q0 1.859375 0.796875 2.796875q0.8125 0.921875 2.046875 0.921875q1.21875 0 2.03125 -0.921875q0.8125 -0.9375 0.8125 -2.84375q0 -1.796875 -0.8125 -2.71875q-0.8125 -0.921875 -2.03125 -0.921875q-1.234375 0 -2.046875 0.921875q-0.796875 0.90625 -0.796875 2.765625zm9.297592 4.84375l0 -9.671875l1.46875 0l0 1.375q1.0625 -1.59375 3.078125 -1.59375q0.875 0 1.609375 0.3125q0.734375 0.3125 1.09375 0.828125q0.375 0.5 0.515625 1.203125q0.09375 0.453125 0.09375 1.59375l0 5.953125l-1.640625 0l0 -5.890625q0 -1.0 -0.203125 -1.484375q-0.1875 -0.5 -0.671875 -0.796875q-0.484375 -0.296875 -1.140625 -0.296875q-1.046875 0 -1.8125 0.671875q-0.75 0.65625 -0.75 2.515625l0 5.28125l-1.640625 0zm13.953842 -1.46875l0.234375 1.453125q-0.6875 0.140625 -1.234375 0.140625q-0.890625 0 -1.390625 -0.28125q-0.484375 -0.28125 -0.6875 -0.734375q-0.203125 -0.46875 -0.203125 -1.9375l0 -5.578125l-1.203125 0l0 -1.265625l1.203125 0l0 -2.390625l1.625 -0.984375l0 3.375l1.65625 0l0 1.265625l-1.65625 0l0 5.671875q0 0.6875 0.078125 0.890625q0.09375 0.203125 0.28125 0.328125q0.203125 0.109375 0.578125 0.109375q0.265625 0 0.71875 -0.0625zm1.5895538 1.46875l0 -9.671875l1.46875 0l0 1.46875q0.5625038 -1.03125 1.0312538 -1.359375q0.484375 -0.328125 1.0625 -0.328125q0.828125 0 1.6875 0.53125l-0.5625 1.515625q-0.609375 -0.359375 -1.203125 -0.359375q-0.546875 0 -0.96875 0.328125q-0.421875 0.328125 -0.609375 0.890625q-0.28125 0.875 -0.28125 1.921875l0 5.0625l-1.6250038 0zm5.618931 -4.84375q0 -2.6875 1.484375 -3.96875q1.25 -1.078125 3.046875 -1.078125q2.0 0 3.265625 1.3125q1.265625 1.296875 1.265625 3.609375q0 1.859375 -0.5625 2.9375q-0.5625 1.0625 -1.640625 1.65625q-1.0625 0.59375 -2.328125 0.59375q-2.03125 0 -3.28125 -1.296875q-1.25 -1.3125 -1.25 -3.765625zm1.6875 0q0 1.859375 0.796875 2.796875q0.8125 0.921875 2.046875 0.921875q1.21875 0 2.03125 -0.921875q0.8125 -0.9375 0.8125 -2.84375q0 -1.796875 -0.8125 -2.71875q-0.8125 -0.921875 -2.03125 -0.921875q-1.234375 0 -2.046875 0.921875q-0.796875 0.90625 -0.796875 2.765625zm9.250717 4.84375l0 -13.359375l1.640625 0l0 13.359375l-1.640625 0zm9.578125 0l0 -13.359375l5.046875 0q1.328125 0 2.03125 0.125q0.96875 0.171875 1.640625 0.640625q0.671875 0.453125 1.078125 1.28125q0.40625 0.828125 0.40625 1.828125q0 1.703125 -1.09375 2.890625q-1.078125 1.171875 -3.921875 1.171875l-3.421875 0l0 5.421875l-1.765625 0zm1.765625 -7.0l3.453125 0q1.71875 0 2.4375 -0.640625q0.71875 -0.640625 0.71875 -1.796875q0 -0.84375 -0.421875 -1.4375q-0.421875 -0.59375 -1.125 -0.78125q-0.4375 -0.125 -1.640625 -0.125l-3.421875 0l0 4.78125zm10.427948 7.0l0 -13.359375l1.640625 0l0 13.359375l-1.640625 0zm10.504196 -1.1875q-0.921875 0.765625 -1.765625 1.09375q-0.828125 0.3125 -1.796875 0.3125q-1.59375 0 -2.453125 -0.78125q-0.859375 -0.78125 -0.859375 -1.984375q0 -0.71875 0.328125 -1.296875q0.328125 -0.59375 0.84375 -0.9375q0.53125 -0.359375 1.1875 -0.546875q0.46875 -0.125 1.453125 -0.25q1.984375 -0.234375 2.921875 -0.5625q0.015625 -0.34375 0.015625 -0.421875q0 -1.0 -0.46875 -1.421875q-0.625 -0.546875 -1.875 -0.546875q-1.15625 0 -1.703125 0.40625q-0.546875 0.40625 -0.8125 1.421875l-1.609375 -0.21875q0.21875 -1.015625 0.71875 -1.640625q0.5 -0.640625 1.453125 -0.984375q0.953125 -0.34375 2.1875 -0.34375q1.25 0 2.015625 0.296875q0.78125 0.28125 1.140625 0.734375q0.375 0.4375 0.515625 1.109375q0.078125 0.421875 0.078125 1.515625l0 2.1875q0 2.28125 0.109375 2.890625q0.109375 0.59375 0.40625 1.15625l-1.703125 0q-0.265625 -0.515625 -0.328125 -1.1875zm-0.140625 -3.671875q-0.890625 0.375 -2.671875 0.625q-1.015625 0.140625 -1.4375 0.328125q-0.421875 0.1875 -0.65625 0.53125q-0.21875 0.34375 -0.21875 0.78125q0 0.65625 0.5 1.09375q0.5 0.4375 1.453125 0.4375q0.9375 0 1.671875 -0.40625q0.75 -0.421875 1.09375 -1.140625q0.265625 -0.5625 0.265625 -1.640625l0 -0.609375zm4.203842 4.859375l0 -9.671875l1.46875 0l0 1.375q1.0625 -1.59375 3.078125 -1.59375q0.875 0 1.609375 0.3125q0.734375 0.3125 1.09375 0.828125q0.375 0.5 0.515625 1.203125q0.09375 0.453125 0.09375 1.59375l0 5.953125l-1.640625 0l0 -5.890625q0 -1.0 -0.203125 -1.484375q-0.1875 -0.5 -0.671875 -0.796875q-0.484375 -0.296875 -1.140625 -0.296875q-1.046875 0 -1.8125 0.671875q-0.75 0.65625 -0.75 2.515625l0 5.28125l-1.640625 0zm17.00071 -3.109375l1.6875 0.203125q-0.40625 1.484375 -1.484375 2.3125q-1.078125 0.8125 -2.765625 0.8125q-2.1249924 0 -3.3749924 -1.296875q-1.234375 -1.3125 -1.234375 -3.671875q0 -2.453125 1.25 -3.796875q1.265625 -1.34375 3.2656174 -1.34375q1.9375 0 3.15625 1.328125q1.234375 1.3125 1.234375 3.703125q0 0.15625 0 0.4375l-7.2187424 0q0.09375 1.59375 0.90625 2.453125q0.8124924 0.84375 2.0156174 0.84375q0.90625 0 1.546875 -0.46875q0.640625 -0.484375 1.015625 -1.515625zm-5.3906174 -2.65625l5.4062424 0q-0.109375 -1.21875 -0.625 -1.828125q-0.78125 -0.953125 -2.03125 -0.953125q-1.125 0 -1.9062424 0.765625q-0.765625 0.75 -0.84375 2.015625z" fill-rule="nonzero"/><path fill="#000000" fill-opacity="0.0" d="m12.824147 193.93439l148.12599 0l0 37.543304l-148.12599 0z" fill-rule="evenodd"/><path fill="#000000" d="m23.261646 220.85439l0 -13.359375l4.609375 0q1.546875 0 2.375 0.203125q1.140625 0.25 1.953125 0.953125q1.0625 0.890625 1.578125 2.28125q0.53125 1.390625 0.53125 3.171875q0 1.515625 -0.359375 2.703125q-0.359375 1.171875 -0.921875 1.9375q-0.546875 0.765625 -1.203125 1.21875q-0.65625 0.4375 -1.59375 0.671875q-0.9375 0.21875 -2.140625 0.21875l-4.828125 0zm1.765625 -1.578125l2.859375 0q1.3125 0 2.0625 -0.234375q0.75 -0.25 1.203125 -0.703125q0.625 -0.625 0.96875 -1.6875q0.359375 -1.0625 0.359375 -2.578125q0 -2.09375 -0.6875 -3.21875q-0.6875 -1.125 -1.671875 -1.5q-0.703125 -0.28125 -2.28125 -0.28125l-2.8125 0l0 10.203125zm17.816696 0.390625q-0.921875 0.765625 -1.765625 1.09375q-0.828125 0.3125 -1.796875 0.3125q-1.59375 0 -2.453125 -0.78125q-0.859375 -0.78125 -0.859375 -1.984375q0 -0.71875 0.328125 -1.296875q0.328125 -0.59375 0.84375 -0.9375q0.53125 -0.359375 1.1875 -0.546875q0.46875 -0.125 1.453125 -0.25q1.984375 -0.234375 2.921875 -0.5625q0.015625 -0.34375 0.015625 -0.421875q0 -1.0 -0.46875 -1.421875q-0.625 -0.546875 -1.875 -0.546875q-1.15625 0 -1.703125 0.40625q-0.546875 0.40625 -0.8125 1.421875l-1.609375 -0.21875q0.21875 -1.015625 0.71875 -1.640625q0.5 -0.640625 1.453125 -0.984375q0.953125 -0.34375 2.1875 -0.34375q1.25 0 2.015625 0.296875q0.78125 0.28125 1.140625 0.734375q0.375 0.4375 0.515625 1.109375q0.078125 0.421875 0.078125 1.515625l0 2.1875q0 2.28125 0.109375 2.890625q0.109375 0.59375 0.40625 1.15625l-1.703125 0q-0.265625 -0.515625 -0.328125 -1.1875zm-0.140625 -3.671875q-0.890625 0.375 -2.671875 0.625q-1.015625 0.140625 -1.4375 0.328125q-0.421875 0.1875 -0.65625 0.53125q-0.21875 0.34375 -0.21875 0.78125q0 0.65625 0.5 1.09375q0.5 0.4375 1.453125 0.4375q0.9375 0 1.671875 -0.40625q0.75 -0.421875 1.09375 -1.140625q0.265625 -0.5625 0.265625 -1.640625l0 -0.609375zm7.781967 3.390625l0.234375 1.453125q-0.6875 0.140625 -1.234375 0.140625q-0.890625 0 -1.390625 -0.28125q-0.484375 -0.28125 -0.6875 -0.734375q-0.203125 -0.46875 -0.203125 -1.9375l0 -5.578125l-1.203125 0l0 -1.265625l1.203125 0l0 -2.390625l1.625 -0.984375l0 3.375l1.65625 0l0 1.265625l-1.65625 0l0 5.671875q0 0.6875 0.078125 0.890625q0.09375 0.203125 0.28125 0.328125q0.203125 0.109375 0.578125 0.109375q0.265625 0 0.71875 -0.0625zm7.917679 0.28125q-0.921875 0.765625 -1.765625 1.09375q-0.828125 0.3125 -1.796875 0.3125q-1.59375 0 -2.453125 -0.78125q-0.859375 -0.78125 -0.859375 -1.984375q0 -0.71875 0.328125 -1.296875q0.328125 -0.59375 0.84375 -0.9375q0.53125 -0.359375 1.1875 -0.546875q0.46875 -0.125 1.453125 -0.25q1.984375 -0.234375 2.921875 -0.5625q0.015625 -0.34375 0.015625 -0.421875q0 -1.0 -0.46875 -1.421875q-0.625 -0.546875 -1.875 -0.546875q-1.15625 0 -1.703125 0.40625q-0.546875 0.40625 -0.8125 1.421875l-1.609375 -0.21875q0.21875 -1.015625 0.71875 -1.640625q0.5 -0.640625 1.453125 -0.984375q0.953125 -0.34375 2.1875 -0.34375q1.25 0 2.015625 0.296875q0.78125 0.28125 1.140625 0.734375q0.375 0.4375 0.515625 1.109375q0.078125 0.421875 0.078125 1.515625l0 2.1875q0 2.28125 0.109375 2.890625q0.109375 0.59375 0.40625 1.15625l-1.703125 0q-0.265625 -0.515625 -0.328125 -1.1875zm-0.140625 -3.671875q-0.890625 0.375 -2.671875 0.625q-1.015625 0.140625 -1.4375 0.328125q-0.421875 0.1875 -0.65625 0.53125q-0.21875 0.34375 -0.21875 0.78125q0 0.65625 0.5 1.09375q0.5 0.4375 1.453125 0.4375q0.9375 0 1.671875 -0.40625q0.75 -0.421875 1.09375 -1.140625q0.265625 -0.5625 0.265625 -1.640625l0 -0.609375zm9.590275 4.859375l0 -13.359375l5.046875 0q1.328125 0 2.03125 0.125q0.96875 0.171875 1.640625 0.640625q0.671875 0.453125 1.078125 1.28125q0.40625 0.828125 0.40625 1.828125q0 1.703125 -1.09375 2.890625q-1.078125 1.171875 -3.921875 1.171875l-3.421875 0l0 5.421875l-1.765625 0zm1.765625 -7.0l3.453125 0q1.71875 0 2.4375 -0.640625q0.71875 -0.640625 0.71875 -1.796875q0 -0.84375 -0.421875 -1.4375q-0.421875 -0.59375 -1.125 -0.78125q-0.4375 -0.125 -1.640625 -0.125l-3.421875 0l0 4.78125zm10.427948 7.0l0 -13.359375l1.640625 0l0 13.359375l-1.640625 0zm10.504196 -1.1875q-0.921875 0.765625 -1.765625 1.09375q-0.828125 0.3125 -1.796875 0.3125q-1.59375 0 -2.453125 -0.78125q-0.859375 -0.78125 -0.859375 -1.984375q0 -0.71875 0.328125 -1.296875q0.328125 -0.59375 0.84375 -0.9375q0.53125 -0.359375 1.1875 -0.546875q0.46875 -0.125 1.453125 -0.25q1.984375 -0.234375 2.921875 -0.5625q0.015625 -0.34375 0.015625 -0.421875q0 -1.0 -0.46875 -1.421875q-0.625 -0.546875 -1.875 -0.546875q-1.15625 0 -1.703125 0.40625q-0.546875 0.40625 -0.8125 1.421875l-1.609375 -0.21875q0.21875 -1.015625 0.71875 -1.640625q0.5 -0.640625 1.453125 -0.984375q0.953125 -0.34375 2.1875 -0.34375q1.25 0 2.015625 0.296875q0.78125 0.28125 1.140625 0.734375q0.375 0.4375 0.515625 1.109375q0.078125 0.421875 0.078125 1.515625l0 2.1875q0 2.28125 0.109375 2.890625q0.109375 0.59375 0.40625 1.15625l-1.703125 0q-0.265625 -0.515625 -0.328125 -1.1875zm-0.140625 -3.671875q-0.890625 0.375 -2.671875 0.625q-1.015625 0.140625 -1.4375 0.328125q-0.421875 0.1875 -0.65625 0.53125q-0.21875 0.34375 -0.21875 0.78125q0 0.65625 0.5 1.09375q0.5 0.4375 1.453125 0.4375q0.9375 0 1.671875 -0.40625q0.75 -0.421875 1.09375 -1.140625q0.265625 -0.5625 0.265625 -1.640625l0 -0.609375zm4.203842 4.859375l0 -9.671875l1.46875 0l0 1.375q1.0625 -1.59375 3.078125 -1.59375q0.875 0 1.609375 0.3125q0.734375 0.3125 1.09375 0.828125q0.375 0.5 0.515625 1.203125q0.09375 0.453125 0.09375 1.59375l0 5.953125l-1.640625 0l0 -5.890625q0 -1.0 -0.203125 -1.484375q-0.1875 -0.5 -0.671875 -0.796875q-0.484375 -0.296875 -1.140625 -0.296875q-1.046875 0 -1.8125 0.671875q-0.75 0.65625 -0.75 2.515625l0 5.28125l-1.640625 0zm17.000717 -3.109375l1.6875 0.203125q-0.40625 1.484375 -1.484375 2.3125q-1.078125 0.8125 -2.765625 0.8125q-2.125 0 -3.375 -1.296875q-1.234375 -1.3125 -1.234375 -3.671875q0 -2.453125 1.25 -3.796875q1.265625 -1.34375 3.265625 -1.34375q1.9375 0 3.15625 1.328125q1.234375 1.3125 1.234375 3.703125q0 0.15625 0 0.4375l-7.21875 0q0.09375 1.59375 0.90625 2.453125q0.8125 0.84375 2.015625 0.84375q0.90625 0 1.546875 -0.46875q0.640625 -0.484375 1.015625 -1.515625zm-5.390625 -2.65625l5.40625 0q-0.109375 -1.21875 -0.625 -1.828125q-0.78125 -0.953125 -2.03125 -0.953125q-1.125 0 -1.90625 0.765625q-0.765625 0.75 -0.84375 2.015625z" fill-rule="nonzero"/><path fill="#c9daf8" d="m356.96063 255.75066l155.65356 0l0 149.73228l-155.65356 0z" fill-rule="evenodd"/><path stroke="#595959" stroke-width="1.0" stroke-linejoin="round" stroke-linecap="butt" d="m356.96063 255.75066l155.65356 0l0 149.73228l-155.65356 0z" fill-rule="evenodd"/><path fill="#eeeeee" d="m370.39633 341.28085l130.36221 0l0 53.322815l-130.36221 0z" fill-rule="evenodd"/><path stroke="#595959" stroke-width="1.0" stroke-linejoin="round" stroke-linecap="butt" d="m370.39633 341.28085l130.36221 0l0 53.322815l-130.36221 0z" fill-rule="evenodd"/><path fill="#000000" d="m398.7448 374.86224l-0.734375 0q-0.234375 0 -0.390625 -0.078125q-0.140625 -0.078125 -0.1875 -0.3125l-0.1875 -0.875q-0.375 0.328125 -0.734375 0.59375q-0.359375 0.265625 -0.75 0.453125q-0.390625 0.1875 -0.828125 0.28125q-0.4375 0.09375 -0.984375 0.09375q-0.546875 0 -1.03125 -0.15625q-0.484375 -0.15625 -0.84375 -0.46875q-0.34375 -0.3125 -0.5625 -0.78125q-0.203125 -0.46875 -0.203125 -1.109375q0 -0.5625 0.296875 -1.078125q0.3125 -0.515625 1.0 -0.90625q0.6875 -0.40625 1.796875 -0.65625q1.109375 -0.265625 2.71875 -0.3125l0 -0.734375q0 -1.09375 -0.46875 -1.65625q-0.46875 -0.578125 -1.40625 -0.578125q-0.59375 0 -1.015625 0.15625q-0.40625 0.15625 -0.71875 0.359375q-0.296875 0.1875 -0.515625 0.34375q-0.21875 0.140625 -0.4375 0.140625q-0.171875 0 -0.296875 -0.078125q-0.125 -0.09375 -0.203125 -0.21875l-0.296875 -0.53125q0.78125 -0.765625 1.6875 -1.140625q0.90625 -0.375 2.015625 -0.375q0.78125 0 1.390625 0.265625q0.625 0.265625 1.046875 0.734375q0.421875 0.46875 0.625 1.125q0.21875 0.65625 0.21875 1.453125l0 6.046875zm-4.296875 -1.015625q0.4375 0 0.796875 -0.078125q0.359375 -0.09375 0.671875 -0.25q0.328125 -0.171875 0.625 -0.40625q0.296875 -0.234375 0.578125 -0.53125l0 -1.96875q-1.15625 0.03125 -1.953125 0.1875q-0.796875 0.140625 -1.3125 0.375q-0.5 0.234375 -0.734375 0.546875q-0.21875 0.3125 -0.21875 0.703125q0 0.375 0.125 0.65625q0.125 0.265625 0.328125 0.4375q0.203125 0.171875 0.484375 0.25q0.28125 0.078125 0.609375 0.078125zm6.818115 4.21875l0 -12.65625l0.984375 0q0.359375 0 0.453125 0.34375l0.140625 1.125q0.609375 -0.734375 1.390625 -1.1875q0.78125 -0.453125 1.796875 -0.453125q0.8125 0 1.46875 0.3125q0.65625 0.3125 1.125 0.9375q0.46875 0.609375 0.71875 1.515625q0.25 0.90625 0.25 2.078125q0 1.046875 -0.28125 1.953125q-0.28125 0.890625 -0.796875 1.546875q-0.515625 0.65625 -1.28125 1.03125q-0.765625 0.375 -1.71875 0.375q-0.875 0 -1.5 -0.28125q-0.609375 -0.296875 -1.09375 -0.828125l0 4.1875l-1.65625 0zm4.203125 -11.484375q-0.8125 0 -1.421875 0.375q-0.609375 0.375 -1.125 1.0625l0 4.5625q0.46875 0.625 1.015625 0.875q0.546875 0.25 1.21875 0.25q1.3125 0 2.015625 -0.9375q0.703125 -0.953125 0.703125 -2.6875q0 -0.921875 -0.15625 -1.578125q-0.15625 -0.671875 -0.46875 -1.09375q-0.3125 -0.421875 -0.765625 -0.625q-0.4375 -0.203125 -1.015625 -0.203125zm6.0951233 11.484375l0 -12.65625l0.984375 0q0.359375 0 0.453125 0.34375l0.140625 1.125q0.609375 -0.734375 1.390625 -1.1875q0.78125 -0.453125 1.796875 -0.453125q0.8125 0 1.46875 0.3125q0.65625 0.3125 1.125 0.9375q0.46875 0.609375 0.71875 1.515625q0.25 0.90625 0.25 2.078125q0 1.046875 -0.28125 1.953125q-0.28125 0.890625 -0.796875 1.546875q-0.515625 0.65625 -1.28125 1.03125q-0.765625 0.375 -1.71875 0.375q-0.875 0 -1.5 -0.28125q-0.609375 -0.296875 -1.09375 -0.828125l0 4.1875l-1.65625 0zm4.203125 -11.484375q-0.8125 0 -1.421875 0.375q-0.609375 0.375 -1.125 1.0625l0 4.5625q0.46875 0.625 1.015625 0.875q0.546875 0.25 1.21875 0.25q1.3125 0 2.015625 -0.9375q0.703125 -0.953125 0.703125 -2.6875q0 -0.921875 -0.15625 -1.578125q-0.15625 -0.671875 -0.46875 -1.09375q-0.3125 -0.421875 -0.765625 -0.625q-0.4375 -0.203125 -1.015625 -0.203125zm7.9388733 -5.453125l0 13.734375l-1.65625 0l0 -13.734375l1.65625 0zm4.776001 4.28125l0 9.453125l-1.65625 0l0 -9.453125l1.65625 0zm0.375 -2.96875q0 0.25 -0.09375 0.46875q-0.09375 0.203125 -0.265625 0.375q-0.15625 0.15625 -0.375 0.25q-0.21875 0.09375 -0.453125 0.09375q-0.25 0 -0.46875 -0.09375q-0.203125 -0.09375 -0.359375 -0.25q-0.15625 -0.171875 -0.25 -0.375q-0.09375 -0.21875 -0.09375 -0.46875q0 -0.234375 0.09375 -0.453125q0.09375 -0.21875 0.25 -0.375q0.15625 -0.171875 0.359375 -0.265625q0.21875 -0.09375 0.46875 -0.09375q0.234375 0 0.453125 0.09375q0.21875 0.09375 0.375 0.265625q0.171875 0.15625 0.265625 0.375q0.09375 0.21875 0.09375 0.453125zm9.010376 4.65625q-0.078125 0.09375 -0.15625 0.15625q-0.078125 0.046875 -0.21875 0.046875q-0.140625 0 -0.296875 -0.109375q-0.15625 -0.109375 -0.421875 -0.25q-0.25 -0.140625 -0.609375 -0.25q-0.359375 -0.125 -0.875 -0.125q-0.6875 0 -1.21875 0.25q-0.53125 0.234375 -0.890625 0.703125q-0.359375 0.46875 -0.546875 1.140625q-0.1875 0.65625 -0.1875 1.46875q0 0.859375 0.203125 1.53125q0.203125 0.671875 0.546875 1.125q0.359375 0.453125 0.859375 0.6875q0.515625 0.234375 1.15625 0.234375q0.59375 0 0.984375 -0.140625q0.390625 -0.15625 0.65625 -0.328125q0.265625 -0.171875 0.421875 -0.3125q0.171875 -0.15625 0.34375 -0.15625q0.21875 0 0.3125 0.15625l0.46875 0.609375q-0.609375 0.765625 -1.53125 1.109375q-0.921875 0.34375 -1.953125 0.34375q-0.890625 0 -1.65625 -0.3125q-0.75 -0.328125 -1.3125 -0.953125q-0.5625 -0.625 -0.890625 -1.53125q-0.3125 -0.90625 -0.3125 -2.0625q0 -1.046875 0.296875 -1.9375q0.296875 -0.90625 0.859375 -1.546875q0.5625 -0.65625 1.390625 -1.015625q0.828125 -0.359375 1.90625 -0.359375q0.984375 0 1.75 0.328125q0.765625 0.3125 1.359375 0.890625l-0.4375 0.609375zm9.196838 7.765625l-0.734375 0q-0.234375 0 -0.390625 -0.078125q-0.140625 -0.078125 -0.1875 -0.3125l-0.1875 -0.875q-0.375 0.328125 -0.734375 0.59375q-0.359375 0.265625 -0.75 0.453125q-0.390625 0.1875 -0.828125 0.28125q-0.4375 0.09375 -0.984375 0.09375q-0.546875 0 -1.03125 -0.15625q-0.484375 -0.15625 -0.84375 -0.46875q-0.34375 -0.3125 -0.5625 -0.78125q-0.203125 -0.46875 -0.203125 -1.109375q0 -0.5625 0.296875 -1.078125q0.3125 -0.515625 1.0 -0.90625q0.6875 -0.40625 1.796875 -0.65625q1.109375 -0.265625 2.71875 -0.3125l0 -0.734375q0 -1.09375 -0.46875 -1.65625q-0.46875 -0.578125 -1.40625 -0.578125q-0.59375 0 -1.015625 0.15625q-0.40625 0.15625 -0.71875 0.359375q-0.296875 0.1875 -0.515625 0.34375q-0.21875 0.140625 -0.4375 0.140625q-0.171875 0 -0.296875 -0.078125q-0.125 -0.09375 -0.203125 -0.21875l-0.296875 -0.53125q0.78125 -0.765625 1.6875 -1.140625q0.90625 -0.375 2.015625 -0.375q0.78125 0 1.390625 0.265625q0.625 0.265625 1.046875 0.734375q0.421875 0.46875 0.625 1.125q0.21875 0.65625 0.21875 1.453125l0 6.046875zm-4.296875 -1.015625q0.4375 0 0.796875 -0.078125q0.359375 -0.09375 0.671875 -0.25q0.328125 -0.171875 0.625 -0.40625q0.296875 -0.234375 0.578125 -0.53125l0 -1.96875q-1.15625 0.03125 -1.953125 0.1875q-0.796875 0.140625 -1.3125 0.375q-0.5 0.234375 -0.734375 0.546875q-0.21875 0.3125 -0.21875 0.703125q0 0.375 0.125 0.65625q0.125 0.265625 0.328125 0.4375q0.203125 0.171875 0.484375 0.25q0.28125 0.078125 0.609375 0.078125zm9.67746 1.171875q-1.109375 0 -1.71875 -0.625q-0.59375 -0.625 -0.59375 -1.8125l0 -5.78125l-1.140625 0q-0.15625 0 -0.265625 -0.078125q-0.09375 -0.09375 -0.09375 -0.28125l0 -0.65625l1.546875 -0.203125l0.390625 -2.921875q0.015625 -0.140625 0.109375 -0.21875q0.109375 -0.09375 0.265625 -0.09375l0.84375 0l0 3.25l2.703125 0l0 1.203125l-2.703125 0l0 5.671875q0 0.59375 0.28125 0.890625q0.296875 0.28125 0.75 0.28125q0.265625 0 0.453125 -0.0625q0.203125 -0.078125 0.328125 -0.15625q0.140625 -0.078125 0.234375 -0.140625q0.109375 -0.078125 0.1875 -0.078125q0.125 0 0.234375 0.15625l0.484375 0.796875q-0.4375 0.390625 -1.046875 0.625q-0.59375 0.234375 -1.25 0.234375zm5.9431763 -9.609375l0 9.453125l-1.65625 0l0 -9.453125l1.65625 0zm0.375 -2.96875q0 0.25 -0.09375 0.46875q-0.09375 0.203125 -0.265625 0.375q-0.15625 0.15625 -0.375 0.25q-0.21875 0.09375 -0.453125 0.09375q-0.25 0 -0.46875 -0.09375q-0.203125 -0.09375 -0.359375 -0.25q-0.15625 -0.171875 -0.25 -0.375q-0.09375 -0.21875 -0.09375 -0.46875q0 -0.234375 0.09375 -0.453125q0.09375 -0.21875 0.25 -0.375q0.15625 -0.171875 0.359375 -0.265625q0.21875 -0.09375 0.46875 -0.09375q0.234375 0 0.453125 0.09375q0.21875 0.09375 0.375 0.265625q0.171875 0.15625 0.265625 0.375q0.09375 0.21875 0.09375 0.453125zm6.385376 2.828125q1.03125 0 1.859375 0.34375q0.84375 0.34375 1.421875 0.984375q0.59375 0.625 0.90625 1.53125q0.3125 0.890625 0.3125 2.0q0 1.125 -0.3125 2.03125q-0.3125 0.890625 -0.90625 1.53125q-0.578125 0.625 -1.421875 0.96875q-0.828125 0.328125 -1.859375 0.328125q-1.03125 0 -1.875 -0.328125q-0.828125 -0.34375 -1.421875 -0.96875q-0.578125 -0.640625 -0.90625 -1.53125q-0.3125 -0.90625 -0.3125 -2.03125q0 -1.109375 0.3125 -2.0q0.328125 -0.90625 0.90625 -1.53125q0.59375 -0.640625 1.421875 -0.984375q0.84375 -0.34375 1.875 -0.34375zm0 8.421875q1.390625 0 2.078125 -0.9375q0.703125 -0.9375 0.703125 -2.609375q0 -1.6875 -0.703125 -2.625q-0.6875 -0.953125 -2.078125 -0.953125q-0.703125 0 -1.234375 0.25q-0.515625 0.234375 -0.875 0.703125q-0.34375 0.453125 -0.515625 1.125q-0.171875 0.65625 -0.171875 1.5q0 0.84375 0.171875 1.5q0.171875 0.65625 0.515625 1.109375q0.359375 0.453125 0.875 0.703125q0.53125 0.234375 1.234375 0.234375zm6.544739 1.171875l0 -9.453125l0.984375 0q0.359375 0 0.453125 0.34375l0.125 1.03125q0.625 -0.6875 1.375 -1.09375q0.765625 -0.421875 1.765625 -0.421875q0.78125 0 1.359375 0.265625q0.59375 0.25 0.984375 0.71875q0.40625 0.46875 0.609375 1.140625q0.203125 0.65625 0.203125 1.453125l0 6.015625l-1.65625 0l0 -6.015625q0 -1.078125 -0.5 -1.671875q-0.484375 -0.59375 -1.484375 -0.59375q-0.734375 0 -1.375 0.359375q-0.640625 0.359375 -1.1875 0.96875l0 6.953125l-1.65625 0z" fill-rule="nonzero"/><path fill="#eeeeee" d="m370.39633 269.38058l130.36221 0l0 53.322815l-130.36221 0z" fill-rule="evenodd"/><path stroke="#595959" stroke-width="1.0" stroke-linejoin="round" stroke-linecap="butt" d="m370.39633 269.38058l130.36221 0l0 53.322815l-130.36221 0z" fill-rule="evenodd"/><path fill="#000000" d="m387.32593 304.652l0 -10.859375l0.84375 0q0.296875 0 0.390625 0.296875l0.109375 0.96875q0.53125 -0.640625 1.1875 -1.015625q0.671875 -0.390625 1.546875 -0.390625q0.6875 0 1.25 0.265625q0.578125 0.265625 0.96875 0.796875q0.40625 0.53125 0.625 1.3125q0.21875 0.765625 0.21875 1.765625q0 0.90625 -0.25 1.6875q-0.234375 0.765625 -0.6875 1.328125q-0.4375 0.5625 -1.09375 0.890625q-0.65625 0.3125 -1.46875 0.3125q-0.75 0 -1.28125 -0.25q-0.53125 -0.25 -0.9375 -0.703125l0 3.59375l-1.421875 0zm3.609375 -9.84375q-0.703125 0 -1.234375 0.328125q-0.515625 0.3125 -0.953125 0.890625l0 3.921875q0.390625 0.53125 0.859375 0.75q0.46875 0.21875 1.046875 0.21875q1.125 0 1.734375 -0.8125q0.609375 -0.8125 0.609375 -2.3125q0 -0.78125 -0.140625 -1.34375q-0.140625 -0.578125 -0.40625 -0.9375q-0.265625 -0.375 -0.65625 -0.53125q-0.375 -0.171875 -0.859375 -0.171875zm5.2225037 7.09375l0 -8.109375l0.8125 0q0.234375 0 0.3125 0.09375q0.09375 0.09375 0.125 0.296875l0.09375 1.265625q0.421875 -0.84375 1.03125 -1.3125q0.609375 -0.484375 1.4375 -0.484375q0.328125 0 0.59375 0.078125q0.28125 0.078125 0.515625 0.21875l-0.1875 1.0625q-0.046875 0.1875 -0.25 0.1875q-0.109375 0 -0.34375 -0.0625q-0.21875 -0.078125 -0.640625 -0.078125q-0.75 0 -1.25 0.4375q-0.5 0.421875 -0.828125 1.25l0 5.15625l-1.421875 0zm9.729187 -8.234375q0.875 0 1.59375 0.296875q0.71875 0.296875 1.21875 0.84375q0.5 0.546875 0.765625 1.3125q0.265625 0.765625 0.265625 1.71875q0 0.96875 -0.265625 1.734375q-0.265625 0.765625 -0.765625 1.3125q-0.5 0.546875 -1.21875 0.84375q-0.71875 0.28125 -1.59375 0.28125q-0.890625 0 -1.609375 -0.28125q-0.71875 -0.296875 -1.21875 -0.84375q-0.5 -0.546875 -0.78125 -1.3125q-0.265625 -0.765625 -0.265625 -1.734375q0 -0.953125 0.265625 -1.71875q0.28125 -0.765625 0.78125 -1.3125q0.5 -0.546875 1.21875 -0.84375q0.71875 -0.296875 1.609375 -0.296875zm0 7.234375q1.1875 0 1.78125 -0.796875q0.59375 -0.8125 0.59375 -2.25q0 -1.453125 -0.59375 -2.25q-0.59375 -0.8125 -1.78125 -0.8125q-0.609375 0 -1.0625 0.203125q-0.453125 0.203125 -0.75 0.609375q-0.296875 0.390625 -0.453125 0.96875q-0.140625 0.5625 -0.140625 1.28125q0 0.71875 0.140625 1.296875q0.15625 0.5625 0.453125 0.953125q0.296875 0.375 0.75 0.59375q0.453125 0.203125 1.0625 0.203125zm7.505249 -3.15625l-2.71875 -3.953125l1.359375 0q0.171875 0 0.25 0.0625q0.09375 0.0625 0.15625 0.15625l1.984375 3.046875q0.0625 -0.234375 0.203125 -0.453125l1.75 -2.5625q0.078125 -0.109375 0.15625 -0.171875q0.078125 -0.078125 0.203125 -0.078125l1.3125 0l-2.734375 3.875l2.84375 4.234375l-1.375 0q-0.171875 0 -0.28125 -0.09375q-0.09375 -0.09375 -0.15625 -0.203125l-2.046875 -3.171875q-0.046875 0.234375 -0.15625 0.40625l-1.890625 2.765625q-0.078125 0.109375 -0.171875 0.203125q-0.09375 0.09375 -0.25 0.09375l-1.28125 0l2.84375 -4.15625zm8.548279 6.546875q-0.078125 0.15625 -0.1875 0.25q-0.109375 0.109375 -0.328125 0.109375l-1.0625 0l1.484375 -3.21875l-3.34375 -7.640625l1.234375 0q0.1875 0 0.28125 0.09375q0.109375 0.09375 0.15625 0.203125l2.171875 5.109375q0.078125 0.171875 0.125 0.359375q0.046875 0.171875 0.09375 0.359375q0.046875 -0.1875 0.109375 -0.359375q0.0625 -0.1875 0.125 -0.375l2.109375 -5.09375q0.046875 -0.125 0.15625 -0.203125q0.125 -0.09375 0.25 -0.09375l1.140625 0l-4.515625 10.5zm5.9262695 -2.21875q-0.109375 0.28125 -0.328125 0.40625q-0.21875 0.140625 -0.453125 0.140625l-0.59375 0l4.8125 -11.96875q0.09375 -0.265625 0.28125 -0.390625q0.203125 -0.140625 0.46875 -0.140625l0.59375 0l-4.78125 11.953125zm5.858551 -0.171875l0 -8.109375l0.84375 0q0.296875 0 0.390625 0.296875l0.09375 0.84375q0.453125 -0.5625 1.0 -0.90625q0.5625 -0.359375 1.296875 -0.359375q0.828125 0 1.328125 0.46875q0.515625 0.453125 0.734375 1.21875q0.171875 -0.4375 0.4375 -0.75q0.28125 -0.328125 0.625 -0.53125q0.34375 -0.21875 0.734375 -0.3125q0.390625 -0.09375 0.796875 -0.09375q0.640625 0 1.140625 0.203125q0.5 0.203125 0.84375 0.59375q0.34375 0.390625 0.53125 0.96875q0.1875 0.578125 0.1875 1.3125l0 5.15625l-1.421875 0l0 -5.15625q0 -0.953125 -0.421875 -1.4375q-0.421875 -0.5 -1.203125 -0.5q-0.359375 0 -0.671875 0.125q-0.3125 0.125 -0.5625 0.359375q-0.234375 0.234375 -0.375 0.609375q-0.140625 0.359375 -0.140625 0.84375l0 5.15625l-1.421875 0l0 -5.15625q0 -0.984375 -0.390625 -1.453125q-0.390625 -0.484375 -1.140625 -0.484375q-0.53125 0 -0.984375 0.28125q-0.453125 0.28125 -0.828125 0.765625l0 6.046875l-1.421875 0zm16.338959 -8.234375q0.734375 0 1.34375 0.25q0.609375 0.234375 1.0625 0.703125q0.453125 0.453125 0.703125 1.140625q0.25 0.671875 0.25 1.53125q0 0.34375 -0.078125 0.453125q-0.0625 0.109375 -0.265625 0.109375l-5.390625 0q0.015625 0.765625 0.203125 1.34375q0.203125 0.5625 0.53125 0.9375q0.34375 0.375 0.796875 0.5625q0.46875 0.1875 1.046875 0.1875q0.53125 0 0.921875 -0.109375q0.390625 -0.125 0.671875 -0.265625q0.28125 -0.15625 0.46875 -0.28125q0.1875 -0.125 0.3125 -0.125q0.1875 0 0.28125 0.140625l0.390625 0.515625q-0.25 0.328125 -0.625 0.5625q-0.375 0.234375 -0.796875 0.390625q-0.40625 0.140625 -0.859375 0.21875q-0.453125 0.078125 -0.890625 0.078125q-0.84375 0 -1.546875 -0.28125q-0.703125 -0.28125 -1.21875 -0.828125q-0.515625 -0.546875 -0.8125 -1.359375q-0.28125 -0.8125 -0.28125 -1.859375q0 -0.84375 0.25 -1.578125q0.265625 -0.734375 0.75 -1.265625q0.5 -0.546875 1.203125 -0.859375q0.703125 -0.3125 1.578125 -0.3125zm0.03125 1.046875q-1.03125 0 -1.625 0.609375q-0.59375 0.59375 -0.734375 1.640625l4.40625 0q0 -0.5 -0.140625 -0.90625q-0.125 -0.40625 -0.390625 -0.703125q-0.265625 -0.3125 -0.65625 -0.46875q-0.375 -0.171875 -0.859375 -0.171875zm7.602661 7.3125q-0.96875 0 -1.484375 -0.53125q-0.515625 -0.53125 -0.515625 -1.546875l0 -4.953125l-0.96875 0q-0.125 0 -0.21875 -0.078125q-0.078125 -0.078125 -0.078125 -0.234375l0 -0.578125l1.328125 -0.15625l0.328125 -2.515625q0.015625 -0.109375 0.09375 -0.1875q0.09375 -0.078125 0.234375 -0.078125l0.71875 0l0 2.796875l2.3125 0l0 1.03125l-2.3125 0l0 4.859375q0 0.515625 0.234375 0.765625q0.25 0.234375 0.640625 0.234375q0.234375 0 0.390625 -0.046875q0.171875 -0.0625 0.28125 -0.125q0.125 -0.078125 0.203125 -0.140625q0.09375 -0.0625 0.15625 -0.0625q0.109375 0 0.203125 0.140625l0.40625 0.671875q-0.359375 0.34375 -0.890625 0.546875q-0.515625 0.1875 -1.0625 0.1875zm3.514801 -0.125l0 -8.109375l0.8125 0q0.234375 0 0.3125 0.09375q0.09375 0.09375 0.125 0.296875l0.09375 1.265625q0.421875 -0.84375 1.03125 -1.3125q0.609375 -0.484375 1.4375 -0.484375q0.328125 0 0.59375 0.078125q0.28125 0.078125 0.515625 0.21875l-0.1875 1.0625q-0.046875 0.1875 -0.25 0.1875q-0.109375 0 -0.34375 -0.0625q-0.21875 -0.078125 -0.640625 -0.078125q-0.75 0 -1.25 0.4375q-0.5 0.421875 -0.828125 1.25l0 5.15625l-1.421875 0zm8.0260315 -8.109375l0 8.109375l-1.421875 0l0 -8.109375l1.421875 0zm0.328125 -2.53125q0 0.203125 -0.09375 0.390625q-0.078125 0.171875 -0.21875 0.3125q-0.140625 0.140625 -0.328125 0.21875q-0.1875 0.078125 -0.390625 0.078125q-0.203125 0 -0.390625 -0.078125q-0.171875 -0.078125 -0.3125 -0.21875q-0.140625 -0.140625 -0.21875 -0.3125q-0.078125 -0.1875 -0.078125 -0.390625q0 -0.21875 0.078125 -0.40625q0.078125 -0.1875 0.21875 -0.328125q0.140625 -0.140625 0.3125 -0.21875q0.1875 -0.078125 0.390625 -0.078125q0.203125 0 0.390625 0.078125q0.1875 0.078125 0.328125 0.21875q0.140625 0.140625 0.21875 0.328125q0.09375 0.1875 0.09375 0.40625zm7.7209473 3.984375q-0.078125 0.078125 -0.140625 0.125q-0.0625 0.046875 -0.171875 0.046875q-0.125 0 -0.265625 -0.09375q-0.140625 -0.109375 -0.359375 -0.21875q-0.21875 -0.125 -0.53125 -0.21875q-0.296875 -0.109375 -0.75 -0.109375q-0.59375 0 -1.046875 0.21875q-0.453125 0.203125 -0.765625 0.609375q-0.296875 0.40625 -0.453125 0.96875q-0.15625 0.5625 -0.15625 1.265625q0 0.75 0.15625 1.328125q0.171875 0.5625 0.46875 0.953125q0.3125 0.375 0.75 0.59375q0.4375 0.203125 0.984375 0.203125q0.515625 0 0.84375 -0.125q0.34375 -0.125 0.5625 -0.28125q0.234375 -0.15625 0.375 -0.28125q0.140625 -0.125 0.28125 -0.125q0.1875 0 0.28125 0.140625l0.390625 0.515625q-0.53125 0.65625 -1.328125 0.953125q-0.78125 0.296875 -1.65625 0.296875q-0.765625 0 -1.421875 -0.28125q-0.640625 -0.28125 -1.125 -0.8125q-0.484375 -0.53125 -0.765625 -1.296875q-0.265625 -0.78125 -0.265625 -1.78125q0 -0.890625 0.25 -1.65625q0.25 -0.78125 0.734375 -1.328125q0.484375 -0.5625 1.1875 -0.875q0.71875 -0.3125 1.640625 -0.3125q0.84375 0 1.5 0.28125q0.65625 0.265625 1.171875 0.78125l-0.375 0.515625zm6.581299 -0.109375q-0.09375 0.171875 -0.296875 0.171875q-0.125 0 -0.28125 -0.078125q-0.140625 -0.09375 -0.375 -0.203125q-0.21875 -0.109375 -0.515625 -0.203125q-0.296875 -0.09375 -0.71875 -0.09375q-0.359375 0 -0.65625 0.09375q-0.28125 0.09375 -0.484375 0.265625q-0.203125 0.15625 -0.3125 0.375q-0.109375 0.203125 -0.109375 0.453125q0 0.296875 0.171875 0.515625q0.1875 0.203125 0.484375 0.359375q0.296875 0.15625 0.671875 0.265625q0.375 0.109375 0.765625 0.25q0.40625 0.125 0.78125 0.296875q0.375 0.15625 0.671875 0.40625q0.296875 0.234375 0.46875 0.578125q0.1875 0.34375 0.1875 0.828125q0 0.5625 -0.203125 1.046875q-0.203125 0.46875 -0.59375 0.828125q-0.390625 0.34375 -0.96875 0.546875q-0.5625 0.1875 -1.296875 0.1875q-0.84375 0 -1.546875 -0.265625q-0.6875 -0.28125 -1.15625 -0.71875l0.328125 -0.546875q0.0625 -0.09375 0.15625 -0.140625q0.09375 -0.0625 0.234375 -0.0625q0.140625 0 0.296875 0.109375q0.171875 0.109375 0.390625 0.25q0.234375 0.125 0.546875 0.25q0.328125 0.109375 0.8125 0.109375q0.421875 0 0.734375 -0.109375q0.3125 -0.109375 0.515625 -0.296875q0.21875 -0.1875 0.3125 -0.421875q0.09375 -0.234375 0.09375 -0.515625q0 -0.328125 -0.1875 -0.546875q-0.171875 -0.234375 -0.46875 -0.375q-0.296875 -0.15625 -0.671875 -0.265625q-0.375 -0.125 -0.78125 -0.25q-0.390625 -0.140625 -0.78125 -0.296875q-0.375 -0.171875 -0.671875 -0.40625q-0.28125 -0.25 -0.46875 -0.609375q-0.171875 -0.375 -0.171875 -0.890625q0 -0.46875 0.1875 -0.890625q0.1875 -0.4375 0.546875 -0.75q0.375 -0.328125 0.90625 -0.515625q0.546875 -0.203125 1.234375 -0.203125q0.796875 0 1.421875 0.25q0.640625 0.25 1.109375 0.703125l-0.3125 0.515625z" fill-rule="nonzero"/><path fill="#000000" fill-opacity="0.0" d="m462.04724 342.26773l0 -19.748047" fill-rule="evenodd"/><path stroke="#595959" stroke-width="2.0" stroke-linejoin="round" stroke-linecap="butt" d="m462.04724 342.26773l0 -7.748047" fill-rule="evenodd"/><path fill="#595959" stroke="#595959" stroke-width="2.0" stroke-linecap="butt" d="m465.3507 334.51968l-3.3034668 -9.076202l-3.3034668 9.076202z" fill-rule="evenodd"/><path fill="#000000" fill-opacity="0.0" d="m404.07086 323.50394l0 17.763794" fill-rule="evenodd"/><path stroke="#595959" stroke-width="2.0" stroke-linejoin="round" stroke-linecap="butt" d="m404.07086 323.50394l0 5.763794" fill-rule="evenodd"/><path fill="#595959" stroke="#595959" stroke-width="2.0" stroke-linecap="butt" d="m400.7674 329.26773l3.3034668 9.076172l3.3034668 -9.076172z" fill-rule="evenodd"/><path fill="#000000" fill-opacity="0.0" d="m354.8189 105.83883l79.968506 149.92126" fill-rule="evenodd"/><path stroke="#595959" stroke-width="1.0" stroke-linejoin="round" stroke-linecap="butt" d="m354.8189 105.83883l77.144684 144.62729" fill-rule="evenodd"/><path fill="#595959" stroke="#595959" stroke-width="1.0" stroke-linecap="butt" d="m430.50623 251.24348l3.5931396 3.2267303l-0.67840576 -4.7814484z" fill-rule="evenodd"/><path fill="#000000" fill-opacity="0.0" d="m354.8189 105.83883l-96.346466 148.15747" fill-rule="evenodd"/><path stroke="#595959" stroke-width="1.0" stroke-linejoin="round" stroke-linecap="butt" d="m354.8189 105.83883l-93.0755 143.1275" fill-rule="evenodd"/><path fill="#595959" stroke="#595959" stroke-width="1.0" stroke-linecap="butt" d="m260.35873 248.06587l-1.089325 4.7048798l3.8587036 -2.9039612z" fill-rule="evenodd"/></g></svg>