<?xml version="1.0" encoding="utf-8"?>
<!-- Generator: Adobe Illustrator 24.1.2, SVG Export Plug-In . SVG Version: 6.00 Build 0)  -->
<svg version="1.1" id="Layer_1" xmlns="http://www.w3.org/2000/svg" xmlns:xlink="http://www.w3.org/1999/xlink" x="0px" y="0px"
	 viewBox="0 0 1300 488.3" style="enable-background:new 0 0 1300 488.3;" xml:space="preserve">
<style type="text/css">
	.st0{fill:none;stroke:#212960;stroke-width:3;stroke-miterlimit:10;}
	.st1{fill:#437CBF;stroke:#FFFFFF;stroke-width:3;stroke-miterlimit:10;}
	.st2{enable-background:new    ;}
	.st3{fill:#888888;}
	.st4{fill:#F1F0F0;}
	.st5{fill:none;stroke:#888888;stroke-width:2;stroke-miterlimit:10;}
	.st6{fill:#FFFFFF;stroke:#212960;stroke-width:2;stroke-miterlimit:10;}
	.st7{fill:#212960;}
	.st8{fill:#FFFFFF;stroke:#437CBF;stroke-width:2;stroke-miterlimit:10;}
	.st9{fill:none;stroke:#437CBF;stroke-width:3;stroke-miterlimit:10;}
	.st10{fill:#437CBF;}
</style>
<line class="st0" x1="660.5" y1="116.7" x2="660.5" y2="388.3"/>
<rect x="658.9" y="136.8" class="st1" width="3.1" height="2.8"/>
<g>
	<g class="st2">
		<path class="st3" d="M177.7,30.6c-1.2-1.1-1.9-2.7-1.9-4.8c0-0.4,0-1.1,0-2.1c0-1,0-1.7,0-2.2c0.1-2,0.7-3.6,2-4.8
			c1.2-1.1,2.9-1.7,5.1-1.7c1.4,0,2.7,0.2,3.7,0.7c1.1,0.5,1.9,1.2,2.4,2c0.6,0.8,0.9,1.8,0.9,2.8v0c0,0.1-0.1,0.2-0.2,0.3
			s-0.2,0.1-0.3,0.1h-2.3c-0.2,0-0.3,0-0.4-0.1c-0.1-0.1-0.2-0.2-0.2-0.5c-0.3-1-0.7-1.7-1.3-2.1c-0.6-0.4-1.4-0.6-2.4-0.6
			c-2.3,0-3.5,1.3-3.6,3.9c0,0.4,0,1.1,0,2s0,1.6,0,2c0.1,2.6,1.3,3.9,3.6,3.9c1,0,1.8-0.2,2.4-0.6c0.6-0.4,1-1.1,1.3-2.1
			c0-0.2,0.1-0.4,0.2-0.5c0.1-0.1,0.3-0.1,0.4-0.1h2.3c0.1,0,0.3,0,0.4,0.1c0.1,0.1,0.1,0.2,0.1,0.4c0,1.1-0.3,2-0.9,2.8
			c-0.6,0.8-1.4,1.5-2.4,2c-1.1,0.5-2.3,0.7-3.7,0.7C180.7,32.3,179,31.8,177.7,30.6z"/>
		<path class="st3" d="M192.7,31.9c-0.1-0.1-0.2-0.2-0.2-0.4V15.6c0-0.2,0.1-0.3,0.2-0.4s0.2-0.2,0.4-0.2h2c0.2,0,0.3,0.1,0.4,0.2
			c0.1,0.1,0.2,0.2,0.2,0.4v15.9c0,0.2-0.1,0.3-0.2,0.4c-0.1,0.1-0.2,0.2-0.4,0.2h-2C193,32.1,192.8,32,192.7,31.9z"/>
		<path class="st3" d="M200,30.9c-0.8-1-1.3-2.3-1.3-3.9v-6.7c0-0.2,0.1-0.3,0.2-0.4c0.1-0.1,0.2-0.2,0.4-0.2h2.1
			c0.2,0,0.3,0.1,0.4,0.2c0.1,0.1,0.2,0.2,0.2,0.4v6.6c0,2,0.9,3,2.6,3c0.8,0,1.5-0.3,2-0.8c0.5-0.5,0.7-1.3,0.7-2.2v-6.6
			c0-0.2,0.1-0.3,0.2-0.4c0.1-0.1,0.2-0.2,0.4-0.2h2.1c0.2,0,0.3,0.1,0.4,0.2c0.1,0.1,0.2,0.2,0.2,0.4v11.3c0,0.2-0.1,0.3-0.2,0.4
			c-0.1,0.1-0.2,0.2-0.4,0.2h-1.9c-0.2,0-0.3-0.1-0.4-0.2c-0.1-0.1-0.2-0.2-0.2-0.4v-1c-0.9,1.2-2.2,1.8-4,1.8
			C202,32.3,200.9,31.8,200,30.9z"/>
		<path class="st3" d="M215.5,31.8c-0.8-0.4-1.4-0.8-1.8-1.3c-0.4-0.5-0.6-0.9-0.6-1.3c0-0.2,0.1-0.3,0.2-0.4
			c0.1-0.1,0.2-0.1,0.4-0.1h1.9c0.1,0,0.3,0.1,0.4,0.2c0.1,0,0.2,0.2,0.5,0.4c0.3,0.3,0.6,0.5,1,0.6c0.4,0.1,0.8,0.2,1.2,0.2
			c0.6,0,1.2-0.1,1.6-0.4s0.6-0.6,0.6-1.1c0-0.3-0.1-0.6-0.3-0.8c-0.2-0.2-0.5-0.4-1-0.6s-1.2-0.3-2.1-0.5c-1.4-0.3-2.4-0.7-3-1.3
			s-1-1.4-1-2.4c0-0.6,0.2-1.2,0.6-1.8c0.4-0.6,1-1,1.7-1.4c0.8-0.4,1.7-0.5,2.7-0.5c1.1,0,2,0.2,2.8,0.5c0.8,0.3,1.4,0.8,1.8,1.2
			c0.4,0.5,0.6,0.9,0.6,1.3c0,0.1-0.1,0.3-0.2,0.4c-0.1,0.1-0.2,0.2-0.4,0.2h-1.8c-0.1,0-0.3-0.1-0.4-0.2c-0.1-0.1-0.3-0.2-0.5-0.5
			c-0.2-0.2-0.5-0.4-0.8-0.5c-0.3-0.1-0.7-0.2-1.1-0.2c-0.6,0-1.1,0.1-1.4,0.4c-0.3,0.3-0.5,0.6-0.5,1c0,0.3,0.1,0.6,0.2,0.7
			c0.2,0.2,0.5,0.4,0.9,0.6c0.5,0.2,1.2,0.4,2.1,0.5c1.5,0.3,2.6,0.8,3.3,1.4c0.7,0.6,1,1.4,1,2.4c0,1.1-0.5,2-1.5,2.7
			c-1,0.7-2.3,1.1-4.1,1.1C217.3,32.3,216.3,32.1,215.5,31.8z"/>
		<path class="st3" d="M228.9,30.9c-0.7-0.8-1.1-1.9-1.1-3.3v-5.4h-1.9c-0.2,0-0.3-0.1-0.4-0.2s-0.2-0.3-0.2-0.4v-1.4
			c0-0.2,0.1-0.3,0.2-0.4c0.1-0.1,0.2-0.2,0.4-0.2h1.9v-4c0-0.2,0.1-0.3,0.2-0.4s0.2-0.2,0.4-0.2h1.9c0.2,0,0.3,0.1,0.4,0.2
			s0.2,0.2,0.2,0.4v4h3c0.2,0,0.3,0.1,0.4,0.2c0.1,0.1,0.2,0.2,0.2,0.4v1.4c0,0.2-0.1,0.3-0.2,0.4c-0.1,0.1-0.2,0.2-0.4,0.2h-3v5.2
			c0,0.7,0.1,1.2,0.4,1.6c0.2,0.4,0.6,0.5,1.2,0.5h1.7c0.2,0,0.3,0.1,0.4,0.2c0.1,0.1,0.2,0.2,0.2,0.4v1.5c0,0.2-0.1,0.3-0.2,0.4
			c-0.1,0.1-0.2,0.2-0.4,0.2h-1.9C230.7,32.1,229.6,31.7,228.9,30.9z"/>
		<path class="st3" d="M237.9,30.8c-1-1-1.6-2.5-1.7-4.4l0-0.6l0-0.6c0.1-1.8,0.6-3.3,1.7-4.3c1-1,2.5-1.6,4.2-1.6
			c1.9,0,3.3,0.6,4.4,1.7c1,1.2,1.5,2.7,1.5,4.6v0.5c0,0.2-0.1,0.3-0.2,0.4c-0.1,0.1-0.3,0.2-0.4,0.2h-8V27c0,0.9,0.3,1.6,0.7,2.2
			c0.5,0.6,1.1,0.9,1.9,0.9c0.9,0,1.7-0.4,2.3-1.1c0.1-0.2,0.3-0.3,0.3-0.3c0.1,0,0.2-0.1,0.4-0.1h2.1c0.1,0,0.3,0,0.4,0.1
			s0.2,0.2,0.2,0.3c0,0.4-0.2,0.8-0.7,1.4c-0.5,0.5-1.1,1-2,1.4c-0.8,0.4-1.8,0.6-3,0.6C240.4,32.3,239,31.8,237.9,30.8z
			 M244.8,24.8L244.8,24.8c0-1-0.2-1.8-0.7-2.4c-0.5-0.6-1.1-0.9-2-0.9s-1.5,0.3-1.9,0.9c-0.5,0.6-0.7,1.3-0.7,2.3v0.1H244.8z"/>
		<path class="st3" d="M250.8,31.9c-0.1-0.1-0.2-0.2-0.2-0.4V20.2c0-0.2,0.1-0.3,0.2-0.4c0.1-0.1,0.2-0.2,0.4-0.2h1.9
			c0.2,0,0.3,0.1,0.4,0.2c0.1,0.1,0.2,0.3,0.2,0.4v1c0.4-0.5,0.9-0.9,1.5-1.2c0.6-0.3,1.3-0.4,2-0.4h1c0.2,0,0.3,0.1,0.4,0.2
			c0.1,0.1,0.2,0.2,0.2,0.4v1.7c0,0.2-0.1,0.3-0.2,0.4c-0.1,0.1-0.2,0.2-0.4,0.2h-1.9c-0.8,0-1.3,0.2-1.8,0.6
			c-0.4,0.4-0.6,1-0.6,1.8v6.6c0,0.2-0.1,0.3-0.2,0.4c-0.1,0.1-0.3,0.2-0.4,0.2h-2.1C251.1,32.1,250.9,32,250.8,31.9z"/>
		<path class="st3" d="M260.8,23.5c-0.1-0.1-0.2-0.2-0.2-0.4v-2.3c0-0.2,0.1-0.3,0.2-0.4c0.1-0.1,0.2-0.2,0.4-0.2h2.4
			c0.2,0,0.3,0.1,0.4,0.2c0.1,0.1,0.2,0.3,0.2,0.4v2.3c0,0.2-0.1,0.3-0.2,0.4c-0.1,0.1-0.3,0.2-0.4,0.2h-2.4
			C261,23.7,260.9,23.6,260.8,23.5z M260.8,31.9c-0.1-0.1-0.2-0.2-0.2-0.4v-2.3c0-0.2,0.1-0.3,0.2-0.4c0.1-0.1,0.2-0.2,0.4-0.2h2.4
			c0.2,0,0.3,0.1,0.4,0.2c0.1,0.1,0.2,0.3,0.2,0.4v2.3c0,0.2-0.1,0.3-0.2,0.4c-0.1,0.1-0.3,0.2-0.4,0.2h-2.4
			C261,32.1,260.9,32,260.8,31.9z"/>
		<path class="st3" d="M275.1,31.9c-0.1-0.1-0.2-0.3-0.3-0.4l-3.4-11.1c0,0,0-0.1,0-0.2c0-0.1,0.1-0.3,0.2-0.4
			c0.1-0.1,0.2-0.2,0.3-0.2h1.8c0.2,0,0.3,0,0.4,0.1c0.1,0.1,0.2,0.2,0.2,0.3l2.4,7.9l2.5-7.9c0-0.1,0.1-0.3,0.3-0.4
			c0.1-0.1,0.3-0.2,0.5-0.2h1.2c0.2,0,0.3,0.1,0.5,0.2c0.1,0.1,0.2,0.2,0.3,0.4l2.5,7.9l2.4-7.9c0-0.1,0.1-0.2,0.2-0.3
			s0.3-0.1,0.4-0.1h1.8c0.1,0,0.3,0.1,0.4,0.2c0.1,0.1,0.2,0.2,0.2,0.4l0,0.2l-3.4,11.1c-0.1,0.2-0.2,0.3-0.3,0.4
			c-0.1,0.1-0.3,0.2-0.5,0.2h-1.6c-0.4,0-0.7-0.2-0.8-0.6l-2.5-7.6l-2.5,7.6c-0.1,0.4-0.4,0.6-0.8,0.6h-1.5
			C275.4,32.1,275.2,32,275.1,31.9z"/>
		<path class="st3" d="M292.7,30.8c-1-1-1.6-2.5-1.7-4.4l0-0.6l0-0.6c0.1-1.8,0.6-3.3,1.7-4.3c1-1,2.5-1.6,4.2-1.6
			c1.9,0,3.3,0.6,4.4,1.7c1,1.2,1.5,2.7,1.5,4.6v0.5c0,0.2-0.1,0.3-0.2,0.4c-0.1,0.1-0.3,0.2-0.4,0.2h-8V27c0,0.9,0.3,1.6,0.7,2.2
			c0.5,0.6,1.1,0.9,1.9,0.9c0.9,0,1.7-0.4,2.3-1.1c0.1-0.2,0.3-0.3,0.3-0.3c0.1,0,0.2-0.1,0.4-0.1h2.1c0.1,0,0.3,0,0.4,0.1
			s0.2,0.2,0.2,0.3c0,0.4-0.2,0.8-0.7,1.4c-0.5,0.5-1.1,1-2,1.4c-0.8,0.4-1.8,0.6-3,0.6C295.1,32.3,293.7,31.8,292.7,30.8z
			 M299.6,24.8L299.6,24.8c0-1-0.2-1.8-0.7-2.4c-0.5-0.6-1.1-0.9-2-0.9s-1.5,0.3-1.9,0.9c-0.5,0.6-0.7,1.3-0.7,2.3v0.1H299.6z"/>
		<path class="st3" d="M307.1,31.8c-0.8-0.4-1.4-0.8-1.8-1.3c-0.4-0.5-0.6-0.9-0.6-1.3c0-0.2,0.1-0.3,0.2-0.4
			c0.1-0.1,0.2-0.1,0.4-0.1h1.9c0.1,0,0.3,0.1,0.4,0.2c0.1,0,0.2,0.2,0.5,0.4c0.3,0.3,0.6,0.5,1,0.6c0.4,0.1,0.8,0.2,1.2,0.2
			c0.6,0,1.2-0.1,1.6-0.4s0.6-0.6,0.6-1.1c0-0.3-0.1-0.6-0.3-0.8c-0.2-0.2-0.5-0.4-1-0.6s-1.2-0.3-2.1-0.5c-1.4-0.3-2.4-0.7-3-1.3
			s-1-1.4-1-2.4c0-0.6,0.2-1.2,0.6-1.8c0.4-0.6,1-1,1.7-1.4c0.8-0.4,1.7-0.5,2.7-0.5c1.1,0,2,0.2,2.8,0.5c0.8,0.3,1.4,0.8,1.8,1.2
			c0.4,0.5,0.6,0.9,0.6,1.3c0,0.1-0.1,0.3-0.2,0.4c-0.1,0.1-0.2,0.2-0.4,0.2h-1.8c-0.1,0-0.3-0.1-0.4-0.2c-0.1-0.1-0.3-0.2-0.5-0.5
			c-0.2-0.2-0.5-0.4-0.8-0.5c-0.3-0.1-0.7-0.2-1.1-0.2c-0.6,0-1.1,0.1-1.4,0.4c-0.3,0.3-0.5,0.6-0.5,1c0,0.3,0.1,0.6,0.2,0.7
			c0.2,0.2,0.5,0.4,0.9,0.6c0.5,0.2,1.2,0.4,2.1,0.5c1.5,0.3,2.6,0.8,3.3,1.4c0.7,0.6,1,1.4,1,2.4c0,1.1-0.5,2-1.5,2.7
			c-1,0.7-2.3,1.1-4.1,1.1C308.9,32.3,307.9,32.1,307.1,31.8z"/>
		<path class="st3" d="M320.4,30.9c-0.7-0.8-1.1-1.9-1.1-3.3v-5.4h-1.9c-0.2,0-0.3-0.1-0.4-0.2s-0.2-0.3-0.2-0.4v-1.4
			c0-0.2,0.1-0.3,0.2-0.4c0.1-0.1,0.2-0.2,0.4-0.2h1.9v-4c0-0.2,0.1-0.3,0.2-0.4s0.2-0.2,0.4-0.2h1.9c0.2,0,0.3,0.1,0.4,0.2
			s0.2,0.2,0.2,0.4v4h3c0.2,0,0.3,0.1,0.4,0.2c0.1,0.1,0.2,0.2,0.2,0.4v1.4c0,0.2-0.1,0.3-0.2,0.4c-0.1,0.1-0.2,0.2-0.4,0.2h-3v5.2
			c0,0.7,0.1,1.2,0.4,1.6c0.2,0.4,0.6,0.5,1.2,0.5h1.7c0.2,0,0.3,0.1,0.4,0.2c0.1,0.1,0.2,0.2,0.2,0.4v1.5c0,0.2-0.1,0.3-0.2,0.4
			c-0.1,0.1-0.2,0.2-0.4,0.2h-1.9C322.3,32.1,321.2,31.7,320.4,30.9z"/>
	</g>
</g>
<g>
	<path class="st4" d="M584.1,47.9H184.5c-5.5,0-10,4.5-10,10v400.3c0,5.5,4.5,10,10,10h399.6c5.5,0,10-4.5,10-10V57.9
		C594.1,52.4,589.7,47.9,584.1,47.9z"/>
	<path class="st5" d="M584.1,47.9H184.5c-5.5,0-10,4.5-10,10v400.3c0,5.5,4.5,10,10,10h399.6c5.5,0,10-4.5,10-10V57.9
		C594.1,52.4,589.7,47.9,584.1,47.9z"/>
</g>
<path class="st6" d="M565.2,88.3v80c0,5.5-4.5,10-10,10H213.4c-5.5,0-10-4.5-10-10v-80c0-5.5,4.5-10,10-10h341.8
	C560.7,78.3,565.2,82.8,565.2,88.3z"/>
<g>
	<g class="st2">
		<path class="st7" d="M337.8,133.6c-1.2-1.1-1.9-2.7-2-4.8c0-0.5,0-1.2,0-2.2c0-1,0-1.8,0-2.2c0.1-2,0.7-3.5,2-4.7s2.9-1.7,5.1-1.7
			c1.5,0,2.7,0.2,3.8,0.7c1.1,0.5,1.9,1.1,2.4,1.9c0.5,0.7,0.8,1.5,0.9,2.2v0c0,0.1,0,0.2-0.1,0.3s-0.2,0.1-0.4,0.1H347
			c-0.2,0-0.3,0-0.4-0.1c-0.1-0.1-0.2-0.2-0.2-0.3c-0.2-0.6-0.6-1.1-1.2-1.5s-1.3-0.6-2.3-0.6c-1.1,0-2,0.3-2.6,0.9
			c-0.6,0.6-1,1.5-1,2.8c0,0.5,0,1.2,0,2.1c0,0.9,0,1.6,0,2.1c0.1,2.5,1.3,3.8,3.7,3.8c1.1,0,2-0.3,2.7-0.9c0.7-0.6,1-1.5,1-2.7
			v-0.7h-2.9c-0.2,0-0.3-0.1-0.4-0.2c-0.1-0.1-0.2-0.3-0.2-0.4v-1.3c0-0.2,0.1-0.3,0.2-0.4c0.1-0.1,0.2-0.2,0.4-0.2h5.7
			c0.2,0,0.3,0.1,0.4,0.2c0.1,0.1,0.2,0.3,0.2,0.4v2.5c0,1.3-0.3,2.5-0.9,3.5c-0.6,1-1.4,1.7-2.5,2.3c-1.1,0.5-2.4,0.8-3.8,0.8
			C340.7,135.3,339,134.8,337.8,133.6z"/>
		<path class="st7" d="M354.3,134.8c-0.7-0.3-1.2-0.8-1.6-1.3c-0.4-0.6-0.6-1.2-0.6-1.8c0-1.1,0.4-2,1.3-2.6s2.1-1.1,3.6-1.4
			l3.3-0.5v-0.5c0-0.7-0.2-1.2-0.5-1.6c-0.4-0.4-0.9-0.5-1.7-0.5c-0.5,0-1,0.1-1.3,0.3c-0.3,0.2-0.6,0.4-0.8,0.6
			c-0.2,0.2-0.3,0.3-0.4,0.4c-0.1,0.2-0.2,0.3-0.4,0.3h-1.8c-0.1,0-0.3,0-0.4-0.1c-0.1-0.1-0.2-0.2-0.2-0.4c0-0.4,0.2-0.9,0.6-1.4
			c0.4-0.5,1-1,1.7-1.3c0.8-0.4,1.7-0.6,2.9-0.6c1.9,0,3.3,0.4,4.1,1.3c0.9,0.8,1.3,2,1.3,3.3v7.5c0,0.2-0.1,0.3-0.2,0.4
			c-0.1,0.1-0.2,0.2-0.4,0.2H361c-0.2,0-0.3-0.1-0.4-0.2c-0.1-0.1-0.2-0.2-0.2-0.4v-0.9c-0.4,0.5-0.9,0.9-1.5,1.3s-1.5,0.5-2.4,0.5
			C355.7,135.3,354.9,135.2,354.3,134.8z M359.5,132.2c0.6-0.6,0.8-1.4,0.8-2.5v-0.5l-2.4,0.4c-0.9,0.1-1.6,0.4-2.1,0.7
			c-0.5,0.3-0.7,0.7-0.7,1.2c0,0.5,0.2,0.9,0.6,1.2c0.4,0.3,1,0.4,1.6,0.4C358.2,133,358.9,132.8,359.5,132.2z"/>
		<path class="st7" d="M368.8,133.9c-0.7-0.8-1.1-1.9-1.1-3.3v-5.4h-1.9c-0.2,0-0.3-0.1-0.4-0.2s-0.2-0.3-0.2-0.4v-1.4
			c0-0.2,0.1-0.3,0.2-0.4c0.1-0.1,0.2-0.2,0.4-0.2h1.9v-4c0-0.2,0.1-0.3,0.2-0.4s0.2-0.2,0.4-0.2h1.9c0.2,0,0.3,0.1,0.4,0.2
			s0.2,0.2,0.2,0.4v4h3c0.2,0,0.3,0.1,0.4,0.2c0.1,0.1,0.2,0.2,0.2,0.4v1.4c0,0.2-0.1,0.3-0.2,0.4c-0.1,0.1-0.2,0.2-0.4,0.2h-3v5.2
			c0,0.7,0.1,1.2,0.4,1.6c0.2,0.4,0.6,0.5,1.2,0.5h1.7c0.2,0,0.3,0.1,0.4,0.2c0.1,0.1,0.2,0.2,0.2,0.4v1.5c0,0.2-0.1,0.3-0.2,0.4
			c-0.1,0.1-0.2,0.2-0.4,0.2h-1.9C370.7,135.1,369.6,134.7,368.8,133.9z"/>
		<path class="st7" d="M377.9,133.8c-1-1-1.6-2.5-1.7-4.4l0-0.6l0-0.6c0.1-1.8,0.6-3.3,1.7-4.3c1-1,2.5-1.6,4.2-1.6
			c1.9,0,3.3,0.6,4.4,1.7c1,1.2,1.5,2.7,1.5,4.6v0.5c0,0.2-0.1,0.3-0.2,0.4c-0.1,0.1-0.3,0.2-0.4,0.2h-8v0.2c0,0.9,0.3,1.6,0.7,2.2
			c0.5,0.6,1.1,0.9,1.9,0.9c0.9,0,1.7-0.4,2.3-1.1c0.1-0.2,0.3-0.3,0.3-0.3c0.1,0,0.2-0.1,0.4-0.1h2.1c0.1,0,0.3,0,0.4,0.1
			s0.2,0.2,0.2,0.3c0,0.4-0.2,0.8-0.7,1.4c-0.5,0.5-1.1,1-2,1.4c-0.8,0.4-1.8,0.6-3,0.6C380.4,135.3,379,134.8,377.9,133.8z
			 M384.8,127.8L384.8,127.8c0-1-0.2-1.8-0.7-2.4c-0.5-0.6-1.1-0.9-2-0.9s-1.5,0.3-1.9,0.9c-0.5,0.6-0.7,1.3-0.7,2.3v0.1H384.8z"/>
		<path class="st7" d="M393.2,134.9c-0.1-0.1-0.2-0.3-0.3-0.4l-3.4-11.1c0,0,0-0.1,0-0.2c0-0.1,0.1-0.3,0.2-0.4
			c0.1-0.1,0.2-0.2,0.3-0.2h1.8c0.2,0,0.3,0,0.4,0.1c0.1,0.1,0.2,0.2,0.2,0.3l2.4,7.9l2.5-7.9c0-0.1,0.1-0.3,0.3-0.4
			c0.1-0.1,0.3-0.2,0.5-0.2h1.2c0.2,0,0.3,0.1,0.5,0.2c0.1,0.1,0.2,0.2,0.3,0.4l2.5,7.9l2.4-7.9c0-0.1,0.1-0.2,0.2-0.3
			s0.3-0.1,0.4-0.1h1.8c0.1,0,0.3,0.1,0.4,0.2c0.1,0.1,0.2,0.2,0.2,0.4l0,0.2l-3.4,11.1c-0.1,0.2-0.2,0.3-0.3,0.4
			c-0.1,0.1-0.3,0.2-0.5,0.2h-1.6c-0.4,0-0.7-0.2-0.8-0.6l-2.5-7.6l-2.5,7.6c-0.1,0.4-0.4,0.6-0.8,0.6h-1.5
			C393.5,135.1,393.3,135,393.2,134.9z"/>
		<path class="st7" d="M410.9,134.8c-0.7-0.3-1.2-0.8-1.6-1.3c-0.4-0.6-0.6-1.2-0.6-1.8c0-1.1,0.4-2,1.3-2.6s2.1-1.1,3.6-1.4
			l3.3-0.5v-0.5c0-0.7-0.2-1.2-0.5-1.6c-0.4-0.4-0.9-0.5-1.7-0.5c-0.5,0-1,0.1-1.3,0.3c-0.3,0.2-0.6,0.4-0.8,0.6
			c-0.2,0.2-0.3,0.3-0.4,0.4c-0.1,0.2-0.2,0.3-0.4,0.3h-1.8c-0.1,0-0.3,0-0.4-0.1c-0.1-0.1-0.2-0.2-0.2-0.4c0-0.4,0.2-0.9,0.6-1.4
			c0.4-0.5,1-1,1.7-1.3c0.8-0.4,1.7-0.6,2.9-0.6c1.9,0,3.3,0.4,4.1,1.3c0.9,0.8,1.3,2,1.3,3.3v7.5c0,0.2-0.1,0.3-0.2,0.4
			c-0.1,0.1-0.2,0.2-0.4,0.2h-1.9c-0.2,0-0.3-0.1-0.4-0.2c-0.1-0.1-0.2-0.2-0.2-0.4v-0.9c-0.4,0.5-0.9,0.9-1.5,1.3s-1.5,0.5-2.4,0.5
			C412.4,135.3,411.6,135.2,410.9,134.8z M416.1,132.2c0.6-0.6,0.8-1.4,0.8-2.5v-0.5l-2.4,0.4c-0.9,0.1-1.6,0.4-2.1,0.7
			c-0.5,0.3-0.7,0.7-0.7,1.2c0,0.5,0.2,0.9,0.6,1.2c0.4,0.3,1,0.4,1.6,0.4C414.9,133,415.6,132.8,416.1,132.2z"/>
		<path class="st7" d="M424.8,139.5c-0.1-0.1-0.1-0.2-0.1-0.3c0-0.1,0-0.3,0.1-0.4l1.9-4.4l-4.6-10.9c-0.1-0.1-0.1-0.3-0.1-0.3
			c0-0.1,0.1-0.3,0.2-0.4c0.1-0.1,0.2-0.2,0.4-0.2h1.9c0.3,0,0.5,0.2,0.6,0.5l3.2,7.8l3.3-7.8c0.1-0.3,0.3-0.5,0.6-0.5h1.9
			c0.1,0,0.2,0,0.3,0.1c0.1,0.1,0.2,0.2,0.2,0.3c0,0.1,0,0.2-0.1,0.4l-6.8,15.7c-0.1,0.3-0.4,0.5-0.7,0.5h-1.9
			C425,139.6,424.9,139.6,424.8,139.5z"/>
	</g>
</g>
<path class="st6" d="M565.2,218.3v80c0,5.5-4.5,10-10,10H213.4c-5.5,0-10-4.5-10-10v-80c0-5.5,4.5-10,10-10h341.8
	C560.7,208.3,565.2,212.8,565.2,218.3z"/>
<g>
	<g class="st2">
		<path class="st7" d="M308.2,264.7c-1-0.4-1.8-1-2.3-1.7c-0.5-0.7-0.8-1.5-0.8-2.3c0-0.1,0-0.3,0.1-0.4c0.1-0.1,0.2-0.1,0.4-0.1
			h2.1c0.2,0,0.3,0,0.4,0.1c0.1,0.1,0.2,0.2,0.3,0.3c0.2,0.5,0.5,1,1.1,1.4c0.6,0.4,1.4,0.6,2.4,0.6c1.1,0,2-0.2,2.6-0.6
			s0.9-0.9,0.9-1.6c0-0.4-0.1-0.8-0.4-1.1c-0.3-0.3-0.7-0.5-1.3-0.7c-0.6-0.2-1.5-0.5-2.6-0.8c-1.9-0.4-3.3-1-4.1-1.8
			c-0.9-0.7-1.3-1.8-1.3-3.2c0-0.9,0.3-1.8,0.8-2.5c0.5-0.7,1.2-1.3,2.2-1.7c1-0.4,2.1-0.6,3.3-0.6c1.3,0,2.4,0.2,3.4,0.7
			s1.7,1,2.2,1.7c0.5,0.7,0.8,1.4,0.8,2.1c0,0.1,0,0.3-0.1,0.4c-0.1,0.1-0.2,0.1-0.4,0.1h-2.2c-0.3,0-0.6-0.2-0.7-0.5
			c-0.1-0.5-0.4-0.9-1-1.3c-0.5-0.3-1.2-0.5-2-0.5c-0.9,0-1.6,0.2-2.1,0.5c-0.5,0.3-0.8,0.8-0.8,1.5c0,0.4,0.1,0.8,0.4,1.1
			s0.7,0.5,1.2,0.8c0.6,0.2,1.3,0.5,2.4,0.7c1.4,0.3,2.5,0.7,3.4,1.1c0.8,0.4,1.5,0.9,1.9,1.5c0.4,0.6,0.6,1.4,0.6,2.3
			c0,1-0.3,1.9-0.9,2.7s-1.4,1.3-2.4,1.7c-1,0.4-2.2,0.6-3.6,0.6C310.5,265.3,309.2,265.1,308.2,264.7z"/>
		<path class="st7" d="M322.3,263.8c-1-1-1.6-2.5-1.7-4.4l0-0.6l0-0.6c0.1-1.8,0.6-3.3,1.7-4.3c1-1,2.5-1.6,4.2-1.6
			c1.9,0,3.3,0.6,4.4,1.7c1,1.2,1.5,2.7,1.5,4.6v0.5c0,0.2-0.1,0.3-0.2,0.4c-0.1,0.1-0.3,0.2-0.4,0.2h-8v0.2c0,0.9,0.3,1.6,0.7,2.2
			c0.5,0.6,1.1,0.9,1.9,0.9c0.9,0,1.7-0.4,2.3-1.1c0.1-0.2,0.3-0.3,0.3-0.3c0.1,0,0.2-0.1,0.4-0.1h2.1c0.1,0,0.3,0,0.4,0.1
			s0.2,0.2,0.2,0.3c0,0.4-0.2,0.8-0.7,1.4c-0.5,0.5-1.1,1-2,1.4c-0.8,0.4-1.8,0.6-3,0.6C324.8,265.3,323.4,264.8,322.3,263.8z
			 M329.2,257.8L329.2,257.8c0-1-0.2-1.8-0.7-2.4c-0.5-0.6-1.1-0.9-2-0.9s-1.5,0.3-1.9,0.9c-0.5,0.6-0.7,1.3-0.7,2.3v0.1H329.2z"/>
		<path class="st7" d="M335.2,264.9c-0.1-0.1-0.2-0.2-0.2-0.4v-11.3c0-0.2,0.1-0.3,0.2-0.4c0.1-0.1,0.2-0.2,0.4-0.2h1.9
			c0.2,0,0.3,0.1,0.4,0.2c0.1,0.1,0.2,0.3,0.2,0.4v1c0.4-0.5,0.9-0.9,1.5-1.2c0.6-0.3,1.3-0.4,2-0.4h1c0.2,0,0.3,0.1,0.4,0.2
			c0.1,0.1,0.2,0.2,0.2,0.4v1.7c0,0.2-0.1,0.3-0.2,0.4c-0.1,0.1-0.2,0.2-0.4,0.2h-1.9c-0.8,0-1.3,0.2-1.8,0.6
			c-0.4,0.4-0.6,1-0.6,1.8v6.6c0,0.2-0.1,0.3-0.2,0.4c-0.1,0.1-0.3,0.2-0.4,0.2h-2.1C335.4,265.1,335.3,265,335.2,264.9z"/>
		<path class="st7" d="M348.9,264.9c-0.1-0.1-0.2-0.3-0.3-0.4l-4.5-11.1l0-0.2c0-0.1,0.1-0.3,0.2-0.4c0.1-0.1,0.2-0.2,0.4-0.2h1.9
			c0.3,0,0.5,0.2,0.6,0.5l3.2,8.4l3.2-8.4c0-0.1,0.1-0.2,0.2-0.3c0.1-0.1,0.2-0.1,0.4-0.1h2c0.1,0,0.2,0.1,0.3,0.2
			c0.1,0.1,0.2,0.2,0.2,0.4c0,0.1,0,0.2,0,0.2l-4.5,11.1c-0.1,0.2-0.2,0.3-0.3,0.4c-0.1,0.1-0.3,0.2-0.6,0.2h-1.8
			C349.2,265.1,349,265,348.9,264.9z"/>
		<path class="st7" d="M358.9,250.4c-0.1-0.1-0.2-0.2-0.2-0.4v-1.7c0-0.2,0.1-0.3,0.2-0.4s0.2-0.2,0.4-0.2h2.2
			c0.2,0,0.3,0.1,0.4,0.2s0.2,0.2,0.2,0.4v1.7c0,0.2-0.1,0.3-0.2,0.4c-0.1,0.1-0.3,0.2-0.4,0.2h-2.2
			C359.1,250.5,359,250.5,358.9,250.4z M359,264.9c-0.1-0.1-0.2-0.2-0.2-0.4v-11.3c0-0.2,0.1-0.3,0.2-0.4c0.1-0.1,0.2-0.2,0.4-0.2h2
			c0.2,0,0.3,0.1,0.4,0.2c0.1,0.1,0.2,0.2,0.2,0.4v11.3c0,0.2-0.1,0.3-0.2,0.4c-0.1,0.1-0.2,0.2-0.4,0.2h-2
			C359.2,265.1,359.1,265,359,264.9z"/>
		<path class="st7" d="M366.3,263.9c-1-1-1.6-2.3-1.7-4.1l0-1l0-1c0.1-1.7,0.6-3.1,1.7-4.1c1-1,2.5-1.5,4.2-1.5
			c1.2,0,2.3,0.2,3.2,0.7c0.9,0.4,1.5,1,1.9,1.6c0.4,0.6,0.7,1.3,0.7,1.8c0,0.2,0,0.3-0.2,0.4c-0.1,0.1-0.3,0.2-0.4,0.2h-2.1
			c-0.2,0-0.3,0-0.4-0.1c-0.1-0.1-0.2-0.2-0.3-0.4c-0.2-0.6-0.6-1.1-0.9-1.3c-0.4-0.3-0.9-0.4-1.5-0.4c-0.8,0-1.5,0.3-1.9,0.8
			c-0.5,0.5-0.7,1.3-0.7,2.4l0,0.9l0,0.8c0.1,2.1,1,3.1,2.7,3.1c0.6,0,1.1-0.1,1.5-0.4c0.4-0.3,0.7-0.7,0.9-1.3
			c0.1-0.2,0.2-0.3,0.3-0.4s0.2-0.1,0.4-0.1h2.1c0.2,0,0.3,0.1,0.4,0.2c0.1,0.1,0.2,0.2,0.2,0.4c0,0.6-0.3,1.2-0.7,1.8
			c-0.4,0.6-1.1,1.2-1.9,1.7c-0.9,0.5-1.9,0.7-3.2,0.7C368.8,265.3,367.4,264.8,366.3,263.9z"/>
		<path class="st7" d="M380,263.8c-1-1-1.6-2.5-1.7-4.4l0-0.6l0-0.6c0.1-1.8,0.6-3.3,1.7-4.3c1-1,2.5-1.6,4.2-1.6
			c1.9,0,3.3,0.6,4.4,1.7c1,1.2,1.5,2.7,1.5,4.6v0.5c0,0.2-0.1,0.3-0.2,0.4c-0.1,0.1-0.3,0.2-0.4,0.2h-8v0.2c0,0.9,0.3,1.6,0.7,2.2
			c0.5,0.6,1.1,0.9,1.9,0.9c0.9,0,1.7-0.4,2.3-1.1c0.1-0.2,0.3-0.3,0.3-0.3c0.1,0,0.2-0.1,0.4-0.1h2.1c0.1,0,0.3,0,0.4,0.1
			s0.2,0.2,0.2,0.3c0,0.4-0.2,0.8-0.7,1.4c-0.5,0.5-1.1,1-2,1.4c-0.8,0.4-1.8,0.6-3,0.6C382.4,265.3,381,264.8,380,263.8z
			 M386.9,257.8L386.9,257.8c0-1-0.2-1.8-0.7-2.4c-0.5-0.6-1.1-0.9-2-0.9s-1.5,0.3-1.9,0.9c-0.5,0.6-0.7,1.3-0.7,2.3v0.1H386.9z"/>
		<path class="st7" d="M398.6,264.9c-0.1-0.1-0.2-0.2-0.2-0.4v-15.6c0-0.2,0.1-0.3,0.2-0.4c0.1-0.1,0.3-0.2,0.4-0.2h1.9
			c0.3,0,0.6,0.2,0.7,0.5l4.6,8.6l4.7-8.6c0.2-0.3,0.4-0.5,0.7-0.5h1.9c0.2,0,0.3,0.1,0.4,0.2s0.2,0.3,0.2,0.4v15.6
			c0,0.2-0.1,0.3-0.2,0.4c-0.1,0.1-0.3,0.2-0.4,0.2h-2c-0.2,0-0.3-0.1-0.4-0.2c-0.1-0.1-0.2-0.2-0.2-0.4v-10.4l-3.4,6.4
			c-0.2,0.4-0.5,0.5-0.8,0.5h-1c-0.3,0-0.6-0.2-0.8-0.5l-3.4-6.4v10.4c0,0.2-0.1,0.3-0.2,0.4c-0.1,0.1-0.2,0.2-0.4,0.2h-2
			C398.9,265.1,398.8,265,398.6,264.9z"/>
		<path class="st7" d="M417.7,250.4c-0.1-0.1-0.2-0.2-0.2-0.4v-1.7c0-0.2,0.1-0.3,0.2-0.4s0.2-0.2,0.4-0.2h2.2
			c0.2,0,0.3,0.1,0.4,0.2s0.2,0.2,0.2,0.4v1.7c0,0.2-0.1,0.3-0.2,0.4c-0.1,0.1-0.3,0.2-0.4,0.2h-2.2
			C418,250.5,417.8,250.5,417.7,250.4z M417.8,264.9c-0.1-0.1-0.2-0.2-0.2-0.4v-11.3c0-0.2,0.1-0.3,0.2-0.4c0.1-0.1,0.2-0.2,0.4-0.2
			h2c0.2,0,0.3,0.1,0.4,0.2c0.1,0.1,0.2,0.2,0.2,0.4v11.3c0,0.2-0.1,0.3-0.2,0.4c-0.1,0.1-0.2,0.2-0.4,0.2h-2
			C418.1,265.1,417.9,265,417.8,264.9z"/>
		<path class="st7" d="M424.2,264.9c-0.1-0.1-0.2-0.2-0.2-0.4v-11.3c0-0.2,0.1-0.3,0.2-0.4c0.1-0.1,0.2-0.2,0.4-0.2h1.9
			c0.2,0,0.3,0.1,0.4,0.2c0.1,0.1,0.2,0.3,0.2,0.4v1c0.4-0.5,0.9-0.9,1.5-1.2c0.6-0.3,1.3-0.4,2-0.4h1c0.2,0,0.3,0.1,0.4,0.2
			c0.1,0.1,0.2,0.2,0.2,0.4v1.7c0,0.2-0.1,0.3-0.2,0.4c-0.1,0.1-0.2,0.2-0.4,0.2h-1.9c-0.8,0-1.3,0.2-1.8,0.6
			c-0.4,0.4-0.6,1-0.6,1.8v6.6c0,0.2-0.1,0.3-0.2,0.4c-0.1,0.1-0.3,0.2-0.4,0.2h-2.1C424.4,265.1,424.3,265,424.2,264.9z"/>
		<path class="st7" d="M434.2,264.9c-0.1-0.1-0.2-0.2-0.2-0.4v-11.3c0-0.2,0.1-0.3,0.2-0.4c0.1-0.1,0.2-0.2,0.4-0.2h1.9
			c0.2,0,0.3,0.1,0.4,0.2c0.1,0.1,0.2,0.3,0.2,0.4v1c0.4-0.5,0.9-0.9,1.5-1.2c0.6-0.3,1.3-0.4,2-0.4h1c0.2,0,0.3,0.1,0.4,0.2
			c0.1,0.1,0.2,0.2,0.2,0.4v1.7c0,0.2-0.1,0.3-0.2,0.4c-0.1,0.1-0.2,0.2-0.4,0.2h-1.9c-0.8,0-1.3,0.2-1.8,0.6
			c-0.4,0.4-0.6,1-0.6,1.8v6.6c0,0.2-0.1,0.3-0.2,0.4c-0.1,0.1-0.3,0.2-0.4,0.2h-2.1C434.4,265.1,434.3,265,434.2,264.9z"/>
		<path class="st7" d="M445,263.9c-1-1-1.6-2.3-1.7-4l0-1.1l0-1.1c0.1-1.7,0.6-3,1.7-4c1-1,2.5-1.5,4.3-1.5c1.8,0,3.3,0.5,4.3,1.5
			s1.6,2.3,1.7,4c0,0.2,0,0.5,0,1.1c0,0.5,0,0.9,0,1.1c-0.1,1.7-0.6,3-1.7,4c-1,1-2.5,1.5-4.3,1.5S446,264.8,445,263.9z
			 M451.3,262.1c0.5-0.5,0.7-1.3,0.8-2.4c0-0.2,0-0.5,0-0.9c0-0.5,0-0.8,0-0.9c0-1-0.3-1.8-0.8-2.4s-1.1-0.8-2-0.8
			c-0.8,0-1.5,0.3-2,0.8c-0.5,0.5-0.7,1.3-0.8,2.4l0,0.9l0,0.9c0,1,0.3,1.8,0.8,2.4c0.5,0.5,1.1,0.8,2,0.8
			C450.2,263,450.9,262.7,451.3,262.1z"/>
		<path class="st7" d="M458.2,264.9c-0.1-0.1-0.2-0.2-0.2-0.4v-11.3c0-0.2,0.1-0.3,0.2-0.4c0.1-0.1,0.2-0.2,0.4-0.2h1.9
			c0.2,0,0.3,0.1,0.4,0.2c0.1,0.1,0.2,0.3,0.2,0.4v1c0.4-0.5,0.9-0.9,1.5-1.2c0.6-0.3,1.3-0.4,2-0.4h1c0.2,0,0.3,0.1,0.4,0.2
			c0.1,0.1,0.2,0.2,0.2,0.4v1.7c0,0.2-0.1,0.3-0.2,0.4c-0.1,0.1-0.2,0.2-0.4,0.2h-1.9c-0.8,0-1.3,0.2-1.8,0.6
			c-0.4,0.4-0.6,1-0.6,1.8v6.6c0,0.2-0.1,0.3-0.2,0.4c-0.1,0.1-0.3,0.2-0.4,0.2h-2.1C458.5,265.1,458.3,265,458.2,264.9z"/>
	</g>
</g>
<path class="st8" d="M565.2,348.3v80c0,5.5-4.5,10-10,10H213.4c-5.5,0-10-4.5-10-10v-80c0-5.5,4.5-10,10-10h341.8
	C560.7,338.3,565.2,342.8,565.2,348.3z"/>
<g>
	<g class="st2">
		<path class="st7" d="M289.7,394.7c-1-0.4-1.8-1-2.3-1.7c-0.5-0.7-0.8-1.5-0.8-2.3c0-0.1,0-0.3,0.1-0.4c0.1-0.1,0.2-0.1,0.4-0.1
			h2.1c0.2,0,0.3,0,0.4,0.1c0.1,0.1,0.2,0.2,0.3,0.3c0.2,0.5,0.5,1,1.1,1.4c0.6,0.4,1.4,0.6,2.4,0.6c1.1,0,2-0.2,2.6-0.6
			s0.9-0.9,0.9-1.6c0-0.4-0.1-0.8-0.4-1.1c-0.3-0.3-0.7-0.5-1.3-0.7c-0.6-0.2-1.5-0.5-2.6-0.8c-1.9-0.4-3.3-1-4.1-1.8
			c-0.9-0.7-1.3-1.8-1.3-3.2c0-0.9,0.3-1.8,0.8-2.5c0.5-0.7,1.2-1.3,2.2-1.7c1-0.4,2.1-0.6,3.3-0.6c1.3,0,2.4,0.2,3.4,0.7
			s1.7,1,2.2,1.7c0.5,0.7,0.8,1.4,0.8,2.1c0,0.1,0,0.3-0.1,0.4c-0.1,0.1-0.2,0.1-0.4,0.1h-2.2c-0.3,0-0.6-0.2-0.7-0.5
			c-0.1-0.5-0.4-0.9-1-1.3c-0.5-0.3-1.2-0.5-2-0.5c-0.9,0-1.6,0.2-2.1,0.5c-0.5,0.3-0.8,0.8-0.8,1.5c0,0.4,0.1,0.8,0.4,1.1
			s0.7,0.5,1.2,0.8c0.6,0.2,1.3,0.5,2.4,0.7c1.4,0.3,2.5,0.7,3.4,1.1c0.8,0.4,1.5,0.9,1.9,1.5c0.4,0.6,0.6,1.4,0.6,2.3
			c0,1-0.3,1.9-0.9,2.7s-1.4,1.3-2.4,1.7c-1,0.4-2.2,0.6-3.6,0.6C291.9,395.3,290.7,395.1,289.7,394.7z"/>
		<path class="st7" d="M303.8,393.8c-1-1-1.6-2.5-1.7-4.4l0-0.6l0-0.6c0.1-1.8,0.6-3.3,1.7-4.3c1-1,2.5-1.6,4.2-1.6
			c1.9,0,3.3,0.6,4.4,1.7c1,1.2,1.5,2.7,1.5,4.6v0.5c0,0.2-0.1,0.3-0.2,0.4c-0.1,0.1-0.3,0.2-0.4,0.2h-8v0.2c0,0.9,0.3,1.6,0.7,2.2
			c0.5,0.6,1.1,0.9,1.9,0.9c0.9,0,1.7-0.4,2.3-1.1c0.1-0.2,0.3-0.3,0.3-0.3c0.1,0,0.2-0.1,0.4-0.1h2.1c0.1,0,0.3,0,0.4,0.1
			s0.2,0.2,0.2,0.3c0,0.4-0.2,0.8-0.7,1.4c-0.5,0.5-1.1,1-2,1.4c-0.8,0.4-1.8,0.6-3,0.6C306.2,395.3,304.8,394.8,303.8,393.8z
			 M310.7,387.8L310.7,387.8c0-1-0.2-1.8-0.7-2.4c-0.5-0.6-1.1-0.9-2-0.9s-1.5,0.3-1.9,0.9c-0.5,0.6-0.7,1.3-0.7,2.3v0.1H310.7z"/>
		<path class="st7" d="M316.7,394.9c-0.1-0.1-0.2-0.2-0.2-0.4v-11.3c0-0.2,0.1-0.3,0.2-0.4c0.1-0.1,0.2-0.2,0.4-0.2h1.9
			c0.2,0,0.3,0.1,0.4,0.2c0.1,0.1,0.2,0.3,0.2,0.4v1c0.4-0.5,0.9-0.9,1.5-1.2c0.6-0.3,1.3-0.4,2-0.4h1c0.2,0,0.3,0.1,0.4,0.2
			c0.1,0.1,0.2,0.2,0.2,0.4v1.7c0,0.2-0.1,0.3-0.2,0.4c-0.1,0.1-0.2,0.2-0.4,0.2h-1.9c-0.8,0-1.3,0.2-1.8,0.6
			c-0.4,0.4-0.6,1-0.6,1.8v6.6c0,0.2-0.1,0.3-0.2,0.4c-0.1,0.1-0.3,0.2-0.4,0.2h-2.1C316.9,395.1,316.8,395,316.7,394.9z"/>
		<path class="st7" d="M330.4,394.9c-0.1-0.1-0.2-0.3-0.3-0.4l-4.5-11.1l0-0.2c0-0.1,0.1-0.3,0.2-0.4c0.1-0.1,0.2-0.2,0.4-0.2h1.9
			c0.3,0,0.5,0.2,0.6,0.5l3.2,8.4l3.2-8.4c0-0.1,0.1-0.2,0.2-0.3c0.1-0.1,0.2-0.1,0.4-0.1h2c0.1,0,0.2,0.1,0.3,0.2
			c0.1,0.1,0.2,0.2,0.2,0.4c0,0.1,0,0.2,0,0.2l-4.5,11.1c-0.1,0.2-0.2,0.3-0.3,0.4c-0.1,0.1-0.3,0.2-0.6,0.2h-1.8
			C330.7,395.1,330.5,395,330.4,394.9z"/>
		<path class="st7" d="M340.3,380.4c-0.1-0.1-0.2-0.2-0.2-0.4v-1.7c0-0.2,0.1-0.3,0.2-0.4s0.2-0.2,0.4-0.2h2.2
			c0.2,0,0.3,0.1,0.4,0.2s0.2,0.2,0.2,0.4v1.7c0,0.2-0.1,0.3-0.2,0.4c-0.1,0.1-0.3,0.2-0.4,0.2h-2.2
			C340.6,380.5,340.5,380.5,340.3,380.4z M340.4,394.9c-0.1-0.1-0.2-0.2-0.2-0.4v-11.3c0-0.2,0.1-0.3,0.2-0.4
			c0.1-0.1,0.2-0.2,0.4-0.2h2c0.2,0,0.3,0.1,0.4,0.2c0.1,0.1,0.2,0.2,0.2,0.4v11.3c0,0.2-0.1,0.3-0.2,0.4c-0.1,0.1-0.2,0.2-0.4,0.2
			h-2C340.7,395.1,340.6,395,340.4,394.9z"/>
		<path class="st7" d="M347.8,393.9c-1-1-1.6-2.3-1.7-4.1l0-1l0-1c0.1-1.7,0.6-3.1,1.7-4.1c1-1,2.5-1.5,4.2-1.5
			c1.2,0,2.3,0.2,3.2,0.7c0.9,0.4,1.5,1,1.9,1.6c0.4,0.6,0.7,1.3,0.7,1.8c0,0.2,0,0.3-0.2,0.4c-0.1,0.1-0.3,0.2-0.4,0.2h-2.1
			c-0.2,0-0.3,0-0.4-0.1c-0.1-0.1-0.2-0.2-0.3-0.4c-0.2-0.6-0.6-1.1-0.9-1.3c-0.4-0.3-0.9-0.4-1.5-0.4c-0.8,0-1.5,0.3-1.9,0.8
			c-0.5,0.5-0.7,1.3-0.7,2.4l0,0.9l0,0.8c0.1,2.1,1,3.1,2.7,3.1c0.6,0,1.1-0.1,1.5-0.4c0.4-0.3,0.7-0.7,0.9-1.3
			c0.1-0.2,0.2-0.3,0.3-0.4s0.2-0.1,0.4-0.1h2.1c0.2,0,0.3,0.1,0.4,0.2c0.1,0.1,0.2,0.2,0.2,0.4c0,0.6-0.3,1.2-0.7,1.8
			c-0.4,0.6-1.1,1.2-1.9,1.7c-0.9,0.5-1.9,0.7-3.2,0.7C350.2,395.3,348.8,394.8,347.8,393.9z"/>
		<path class="st7" d="M361.5,393.8c-1-1-1.6-2.5-1.7-4.4l0-0.6l0-0.6c0.1-1.8,0.6-3.3,1.7-4.3c1-1,2.5-1.6,4.2-1.6
			c1.9,0,3.3,0.6,4.4,1.7c1,1.2,1.5,2.7,1.5,4.6v0.5c0,0.2-0.1,0.3-0.2,0.4c-0.1,0.1-0.3,0.2-0.4,0.2h-8v0.2c0,0.9,0.3,1.6,0.7,2.2
			c0.5,0.6,1.1,0.9,1.9,0.9c0.9,0,1.7-0.4,2.3-1.1c0.1-0.2,0.3-0.3,0.3-0.3c0.1,0,0.2-0.1,0.4-0.1h2.1c0.1,0,0.3,0,0.4,0.1
			s0.2,0.2,0.2,0.3c0,0.4-0.2,0.8-0.7,1.4c-0.5,0.5-1.1,1-2,1.4c-0.8,0.4-1.8,0.6-3,0.6C363.9,395.3,362.5,394.8,361.5,393.8z
			 M368.4,387.8L368.4,387.8c0-1-0.2-1.8-0.7-2.4c-0.5-0.6-1.1-0.9-2-0.9s-1.5,0.3-1.9,0.9c-0.5,0.6-0.7,1.3-0.7,2.3v0.1H368.4z"/>
		<path class="st7" d="M374.3,386.5c-0.1-0.1-0.2-0.2-0.2-0.4v-2.3c0-0.2,0.1-0.3,0.2-0.4c0.1-0.1,0.2-0.2,0.4-0.2h2.4
			c0.2,0,0.3,0.1,0.4,0.2c0.1,0.1,0.2,0.3,0.2,0.4v2.3c0,0.2-0.1,0.3-0.2,0.4c-0.1,0.1-0.3,0.2-0.4,0.2h-2.4
			C374.5,386.7,374.4,386.6,374.3,386.5z M374.3,394.9c-0.1-0.1-0.2-0.2-0.2-0.4v-2.3c0-0.2,0.1-0.3,0.2-0.4
			c0.1-0.1,0.2-0.2,0.4-0.2h2.4c0.2,0,0.3,0.1,0.4,0.2c0.1,0.1,0.2,0.3,0.2,0.4v2.3c0,0.2-0.1,0.3-0.2,0.4c-0.1,0.1-0.3,0.2-0.4,0.2
			h-2.4C374.5,395.1,374.4,395,374.3,394.9z"/>
		<path class="st7" d="M387.3,394.9c-0.1-0.1-0.2-0.2-0.2-0.4v-9.4h-1.9c-0.2,0-0.3-0.1-0.4-0.2c-0.1-0.1-0.2-0.3-0.2-0.4v-1.4
			c0-0.2,0.1-0.3,0.2-0.4c0.1-0.1,0.2-0.2,0.4-0.2h1.9v-1c0-2.9,1.6-4.3,4.7-4.3h1.6c0.2,0,0.3,0.1,0.4,0.2c0.1,0.1,0.2,0.2,0.2,0.4
			v1.4c0,0.2-0.1,0.3-0.2,0.4s-0.2,0.2-0.4,0.2h-1.5c-0.6,0-1.1,0.2-1.3,0.5s-0.4,0.8-0.4,1.4v0.9h3c0.2,0,0.3,0.1,0.4,0.2
			c0.1,0.1,0.2,0.2,0.2,0.4v1.4c0,0.2-0.1,0.3-0.2,0.4c-0.1,0.1-0.2,0.2-0.4,0.2h-3v9.4c0,0.2-0.1,0.3-0.2,0.4
			c-0.1,0.1-0.2,0.2-0.4,0.2h-2C387.6,395.1,387.4,395,387.3,394.9z"/>
		<path class="st7" d="M396.7,393.9c-1-1-1.6-2.3-1.7-4l0-1.1l0-1.1c0.1-1.7,0.6-3,1.7-4c1-1,2.5-1.5,4.3-1.5c1.8,0,3.3,0.5,4.3,1.5
			s1.6,2.3,1.7,4c0,0.2,0,0.5,0,1.1c0,0.5,0,0.9,0,1.1c-0.1,1.7-0.6,3-1.7,4c-1,1-2.5,1.5-4.3,1.5S397.7,394.8,396.7,393.9z
			 M403,392.1c0.5-0.5,0.7-1.3,0.8-2.4c0-0.2,0-0.5,0-0.9c0-0.5,0-0.8,0-0.9c0-1-0.3-1.8-0.8-2.4s-1.1-0.8-2-0.8
			c-0.8,0-1.5,0.3-2,0.8c-0.5,0.5-0.7,1.3-0.8,2.4l0,0.9l0,0.9c0,1,0.3,1.8,0.8,2.4c0.5,0.5,1.1,0.8,2,0.8
			C401.9,393,402.6,392.7,403,392.1z"/>
		<path class="st7" d="M410.9,393.9c-1-1-1.6-2.3-1.7-4l0-1.1l0-1.1c0.1-1.7,0.6-3,1.7-4c1-1,2.5-1.5,4.3-1.5c1.8,0,3.3,0.5,4.3,1.5
			s1.6,2.3,1.7,4c0,0.2,0,0.5,0,1.1c0,0.5,0,0.9,0,1.1c-0.1,1.7-0.6,3-1.7,4c-1,1-2.5,1.5-4.3,1.5S412,394.8,410.9,393.9z
			 M417.2,392.1c0.5-0.5,0.7-1.3,0.8-2.4c0-0.2,0-0.5,0-0.9c0-0.5,0-0.8,0-0.9c0-1-0.3-1.8-0.8-2.4s-1.1-0.8-2-0.8
			c-0.8,0-1.5,0.3-2,0.8c-0.5,0.5-0.7,1.3-0.8,2.4l0,0.9l0,0.9c0,1,0.3,1.8,0.8,2.4c0.5,0.5,1.1,0.8,2,0.8
			C416.1,393,416.8,392.7,417.2,392.1z"/>
		<path class="st7" d="M424.1,389.1c-0.1-0.1-0.2-0.2-0.2-0.4v-1.6c0-0.2,0.1-0.3,0.2-0.4c0.1-0.1,0.2-0.2,0.4-0.2h7.4
			c0.2,0,0.3,0.1,0.4,0.2c0.1,0.1,0.2,0.2,0.2,0.4v1.6c0,0.2-0.1,0.3-0.2,0.4c-0.1,0.1-0.2,0.2-0.4,0.2h-7.4
			C424.3,389.3,424.2,389.2,424.1,389.1z"/>
		<path class="st7" d="M436.6,393.8c-1-1-1.6-2.5-1.7-4.4l0-0.6l0-0.6c0.1-1.8,0.6-3.3,1.7-4.3c1-1,2.5-1.6,4.2-1.6
			c1.9,0,3.3,0.6,4.4,1.7c1,1.2,1.5,2.7,1.5,4.6v0.5c0,0.2-0.1,0.3-0.2,0.4c-0.1,0.1-0.3,0.2-0.4,0.2h-8v0.2c0,0.9,0.3,1.6,0.7,2.2
			c0.5,0.6,1.1,0.9,1.9,0.9c0.9,0,1.7-0.4,2.3-1.1c0.1-0.2,0.3-0.3,0.3-0.3c0.1,0,0.2-0.1,0.4-0.1h2.1c0.1,0,0.3,0,0.4,0.1
			s0.2,0.2,0.2,0.3c0,0.4-0.2,0.8-0.7,1.4c-0.5,0.5-1.1,1-2,1.4c-0.8,0.4-1.8,0.6-3,0.6C439.1,395.3,437.7,394.8,436.6,393.8z
			 M443.5,387.8L443.5,387.8c0-1-0.2-1.8-0.7-2.4c-0.5-0.6-1.1-0.9-2-0.9s-1.5,0.3-1.9,0.9c-0.5,0.6-0.7,1.3-0.7,2.3v0.1H443.5z"/>
		<path class="st7" d="M450.7,394.8c-0.7-0.3-1.2-0.8-1.6-1.3c-0.4-0.6-0.6-1.2-0.6-1.8c0-1.1,0.4-2,1.3-2.6s2.1-1.1,3.6-1.4
			l3.3-0.5v-0.5c0-0.7-0.2-1.2-0.5-1.6c-0.4-0.4-0.9-0.5-1.7-0.5c-0.5,0-1,0.1-1.3,0.3c-0.3,0.2-0.6,0.4-0.8,0.6
			c-0.2,0.2-0.3,0.3-0.4,0.4c-0.1,0.2-0.2,0.3-0.4,0.3h-1.8c-0.1,0-0.3,0-0.4-0.1c-0.1-0.1-0.2-0.2-0.2-0.4c0-0.4,0.2-0.9,0.6-1.4
			c0.4-0.5,1-1,1.7-1.3c0.8-0.4,1.7-0.6,2.9-0.6c1.9,0,3.3,0.4,4.1,1.3c0.9,0.8,1.3,2,1.3,3.3v7.5c0,0.2-0.1,0.3-0.2,0.4
			c-0.1,0.1-0.2,0.2-0.4,0.2h-1.9c-0.2,0-0.3-0.1-0.4-0.2c-0.1-0.1-0.2-0.2-0.2-0.4v-0.9c-0.4,0.5-0.9,0.9-1.5,1.3s-1.5,0.5-2.4,0.5
			C452.2,395.3,451.4,395.2,450.7,394.8z M456,392.2c0.6-0.6,0.8-1.4,0.8-2.5v-0.5l-2.4,0.4c-0.9,0.1-1.6,0.4-2.1,0.7
			c-0.5,0.3-0.7,0.7-0.7,1.2c0,0.5,0.2,0.9,0.6,1.2c0.4,0.3,1,0.4,1.6,0.4C454.7,393,455.4,392.8,456,392.2z"/>
		<path class="st7" d="M464.8,394.8c-0.8-0.4-1.4-0.8-1.8-1.3c-0.4-0.5-0.6-0.9-0.6-1.3c0-0.2,0.1-0.3,0.2-0.4
			c0.1-0.1,0.2-0.1,0.4-0.1h1.9c0.1,0,0.3,0.1,0.4,0.2c0.1,0,0.2,0.2,0.5,0.4c0.3,0.3,0.6,0.5,1,0.6c0.4,0.1,0.8,0.2,1.2,0.2
			c0.6,0,1.2-0.1,1.6-0.4s0.6-0.6,0.6-1.1c0-0.3-0.1-0.6-0.3-0.8c-0.2-0.2-0.5-0.4-1-0.6s-1.2-0.3-2.1-0.5c-1.4-0.3-2.4-0.7-3-1.3
			s-1-1.4-1-2.4c0-0.6,0.2-1.2,0.6-1.8c0.4-0.6,1-1,1.7-1.4c0.8-0.4,1.7-0.5,2.7-0.5c1.1,0,2,0.2,2.8,0.5c0.8,0.3,1.4,0.8,1.8,1.2
			c0.4,0.5,0.6,0.9,0.6,1.3c0,0.1-0.1,0.3-0.2,0.4c-0.1,0.1-0.2,0.2-0.4,0.2h-1.8c-0.1,0-0.3-0.1-0.4-0.2c-0.1-0.1-0.3-0.2-0.5-0.5
			c-0.2-0.2-0.5-0.4-0.8-0.5c-0.3-0.1-0.7-0.2-1.1-0.2c-0.6,0-1.1,0.1-1.4,0.4c-0.3,0.3-0.5,0.6-0.5,1c0,0.3,0.1,0.6,0.2,0.7
			c0.2,0.2,0.5,0.4,0.9,0.6c0.5,0.2,1.2,0.4,2.1,0.5c1.5,0.3,2.6,0.8,3.3,1.4c0.7,0.6,1,1.4,1,2.4c0,1.1-0.5,2-1.5,2.7
			c-1,0.7-2.3,1.1-4.1,1.1C466.6,395.3,465.6,395.1,464.8,394.8z"/>
		<path class="st7" d="M478.1,393.9c-0.7-0.8-1.1-1.9-1.1-3.3v-5.4h-1.9c-0.2,0-0.3-0.1-0.4-0.2s-0.2-0.3-0.2-0.4v-1.4
			c0-0.2,0.1-0.3,0.2-0.4c0.1-0.1,0.2-0.2,0.4-0.2h1.9v-4c0-0.2,0.1-0.3,0.2-0.4s0.2-0.2,0.4-0.2h1.9c0.2,0,0.3,0.1,0.4,0.2
			s0.2,0.2,0.2,0.4v4h3c0.2,0,0.3,0.1,0.4,0.2c0.1,0.1,0.2,0.2,0.2,0.4v1.4c0,0.2-0.1,0.3-0.2,0.4c-0.1,0.1-0.2,0.2-0.4,0.2h-3v5.2
			c0,0.7,0.1,1.2,0.4,1.6c0.2,0.4,0.6,0.5,1.2,0.5h1.7c0.2,0,0.3,0.1,0.4,0.2c0.1,0.1,0.2,0.2,0.2,0.4v1.5c0,0.2-0.1,0.3-0.2,0.4
			c-0.1,0.1-0.2,0.2-0.4,0.2h-1.9C480,395.1,478.9,394.7,478.1,393.9z"/>
	</g>
</g>
<g>
	<g class="st2">
		<path class="st3" d="M709.1,30.6c-1.2-1.1-1.9-2.7-1.9-4.8c0-0.4,0-1.1,0-2.1c0-1,0-1.7,0-2.2c0.1-2,0.7-3.6,2-4.8
			c1.2-1.1,2.9-1.7,5.1-1.7c1.4,0,2.7,0.2,3.7,0.7s1.9,1.2,2.4,2c0.6,0.8,0.9,1.8,0.9,2.8v0c0,0.1-0.1,0.2-0.2,0.3
			c-0.1,0.1-0.2,0.1-0.3,0.1h-2.3c-0.2,0-0.3,0-0.4-0.1c-0.1-0.1-0.2-0.2-0.2-0.5c-0.3-1-0.7-1.7-1.3-2.1s-1.4-0.6-2.4-0.6
			c-2.3,0-3.5,1.3-3.6,3.9c0,0.4,0,1.1,0,2s0,1.6,0,2c0.1,2.6,1.3,3.9,3.6,3.9c1,0,1.8-0.2,2.4-0.6c0.6-0.4,1-1.1,1.3-2.1
			c0-0.2,0.1-0.4,0.2-0.5s0.3-0.1,0.4-0.1h2.3c0.1,0,0.3,0,0.4,0.1c0.1,0.1,0.1,0.2,0.1,0.4c0,1.1-0.3,2-0.9,2.8
			c-0.6,0.8-1.4,1.5-2.4,2c-1.1,0.5-2.3,0.7-3.7,0.7C712,32.3,710.3,31.8,709.1,30.6z"/>
		<path class="st3" d="M724.1,31.9c-0.1-0.1-0.2-0.2-0.2-0.4V15.6c0-0.2,0.1-0.3,0.2-0.4c0.1-0.1,0.2-0.2,0.4-0.2h2
			c0.2,0,0.3,0.1,0.4,0.2c0.1,0.1,0.2,0.2,0.2,0.4v15.9c0,0.2-0.1,0.3-0.2,0.4c-0.1,0.1-0.2,0.2-0.4,0.2h-2
			C724.3,32.1,724.2,32,724.1,31.9z"/>
		<path class="st3" d="M731.4,30.9c-0.8-1-1.3-2.3-1.3-3.9v-6.7c0-0.2,0.1-0.3,0.2-0.4c0.1-0.1,0.2-0.2,0.4-0.2h2.1
			c0.2,0,0.3,0.1,0.4,0.2c0.1,0.1,0.2,0.2,0.2,0.4v6.6c0,2,0.9,3,2.6,3c0.8,0,1.5-0.3,2-0.8c0.5-0.5,0.7-1.3,0.7-2.2v-6.6
			c0-0.2,0.1-0.3,0.2-0.4c0.1-0.1,0.2-0.2,0.4-0.2h2.1c0.2,0,0.3,0.1,0.4,0.2c0.1,0.1,0.2,0.2,0.2,0.4v11.3c0,0.2-0.1,0.3-0.2,0.4
			c-0.1,0.1-0.2,0.2-0.4,0.2h-1.9c-0.2,0-0.3-0.1-0.4-0.2c-0.1-0.1-0.2-0.2-0.2-0.4v-1c-0.9,1.2-2.2,1.8-4,1.8
			C733.4,32.3,732.2,31.8,731.4,30.9z"/>
		<path class="st3" d="M746.8,31.8c-0.8-0.4-1.4-0.8-1.8-1.3c-0.4-0.5-0.6-0.9-0.6-1.3c0-0.2,0.1-0.3,0.2-0.4
			c0.1-0.1,0.2-0.1,0.4-0.1h1.9c0.1,0,0.3,0.1,0.4,0.2c0.1,0,0.2,0.2,0.5,0.4c0.3,0.3,0.6,0.5,1,0.6c0.4,0.1,0.8,0.2,1.2,0.2
			c0.6,0,1.2-0.1,1.6-0.4s0.6-0.6,0.6-1.1c0-0.3-0.1-0.6-0.3-0.8c-0.2-0.2-0.5-0.4-1-0.6c-0.5-0.2-1.2-0.3-2.1-0.5
			c-1.4-0.3-2.4-0.7-3-1.3c-0.6-0.6-1-1.4-1-2.4c0-0.6,0.2-1.2,0.6-1.8c0.4-0.6,1-1,1.7-1.4c0.8-0.4,1.7-0.5,2.7-0.5
			c1.1,0,2,0.2,2.8,0.5c0.8,0.3,1.4,0.8,1.8,1.2c0.4,0.5,0.6,0.9,0.6,1.3c0,0.1-0.1,0.3-0.2,0.4c-0.1,0.1-0.2,0.2-0.4,0.2h-1.8
			c-0.1,0-0.3-0.1-0.4-0.2c-0.1-0.1-0.3-0.2-0.5-0.5c-0.2-0.2-0.5-0.4-0.8-0.5c-0.3-0.1-0.7-0.2-1.1-0.2c-0.6,0-1.1,0.1-1.4,0.4
			c-0.3,0.3-0.5,0.6-0.5,1c0,0.3,0.1,0.6,0.2,0.7c0.2,0.2,0.5,0.4,0.9,0.6s1.2,0.4,2.1,0.5c1.5,0.3,2.6,0.8,3.3,1.4
			c0.7,0.6,1,1.4,1,2.4c0,1.1-0.5,2-1.5,2.7c-1,0.7-2.3,1.1-4.1,1.1C748.7,32.3,747.6,32.1,746.8,31.8z"/>
		<path class="st3" d="M760.2,30.9c-0.7-0.8-1.1-1.9-1.1-3.3v-5.4h-1.9c-0.2,0-0.3-0.1-0.4-0.2c-0.1-0.1-0.2-0.3-0.2-0.4v-1.4
			c0-0.2,0.1-0.3,0.2-0.4c0.1-0.1,0.2-0.2,0.4-0.2h1.9v-4c0-0.2,0.1-0.3,0.2-0.4c0.1-0.1,0.2-0.2,0.4-0.2h1.9c0.2,0,0.3,0.1,0.4,0.2
			c0.1,0.1,0.2,0.2,0.2,0.4v4h3c0.2,0,0.3,0.1,0.4,0.2c0.1,0.1,0.2,0.2,0.2,0.4v1.4c0,0.2-0.1,0.3-0.2,0.4c-0.1,0.1-0.2,0.2-0.4,0.2
			h-3v5.2c0,0.7,0.1,1.2,0.4,1.6c0.2,0.4,0.6,0.5,1.2,0.5h1.7c0.2,0,0.3,0.1,0.4,0.2c0.1,0.1,0.2,0.2,0.2,0.4v1.5
			c0,0.2-0.1,0.3-0.2,0.4c-0.1,0.1-0.2,0.2-0.4,0.2h-1.9C762,32.1,760.9,31.7,760.2,30.9z"/>
		<path class="st3" d="M769.3,30.8c-1-1-1.6-2.5-1.7-4.4l0-0.6l0-0.6c0.1-1.8,0.6-3.3,1.7-4.3s2.5-1.6,4.2-1.6
			c1.9,0,3.3,0.6,4.4,1.7c1,1.2,1.5,2.7,1.5,4.6v0.5c0,0.2-0.1,0.3-0.2,0.4c-0.1,0.1-0.3,0.2-0.4,0.2h-8V27c0,0.9,0.3,1.6,0.7,2.2
			c0.5,0.6,1.1,0.9,1.9,0.9c0.9,0,1.7-0.4,2.3-1.1c0.1-0.2,0.3-0.3,0.3-0.3c0.1,0,0.2-0.1,0.4-0.1h2.1c0.1,0,0.3,0,0.4,0.1
			c0.1,0.1,0.2,0.2,0.2,0.3c0,0.4-0.2,0.8-0.7,1.4c-0.5,0.5-1.1,1-2,1.4s-1.8,0.6-3,0.6C771.7,32.3,770.3,31.8,769.3,30.8z
			 M776.2,24.8L776.2,24.8c0-1-0.2-1.8-0.7-2.4s-1.1-0.9-2-0.9s-1.5,0.3-1.9,0.9c-0.5,0.6-0.7,1.3-0.7,2.3v0.1H776.2z"/>
		<path class="st3" d="M782.2,31.9c-0.1-0.1-0.2-0.2-0.2-0.4V20.2c0-0.2,0.1-0.3,0.2-0.4s0.2-0.2,0.4-0.2h1.9c0.2,0,0.3,0.1,0.4,0.2
			c0.1,0.1,0.2,0.3,0.2,0.4v1c0.4-0.5,0.9-0.9,1.5-1.2c0.6-0.3,1.3-0.4,2-0.4h1c0.2,0,0.3,0.1,0.4,0.2c0.1,0.1,0.2,0.2,0.2,0.4v1.7
			c0,0.2-0.1,0.3-0.2,0.4c-0.1,0.1-0.2,0.2-0.4,0.2h-1.9c-0.8,0-1.3,0.2-1.8,0.6c-0.4,0.4-0.6,1-0.6,1.8v6.6c0,0.2-0.1,0.3-0.2,0.4
			c-0.1,0.1-0.3,0.2-0.4,0.2h-2.1C782.4,32.1,782.3,32,782.2,31.9z"/>
		<path class="st3" d="M792.1,23.5c-0.1-0.1-0.2-0.2-0.2-0.4v-2.3c0-0.2,0.1-0.3,0.2-0.4c0.1-0.1,0.2-0.2,0.4-0.2h2.4
			c0.2,0,0.3,0.1,0.4,0.2c0.1,0.1,0.2,0.3,0.2,0.4v2.3c0,0.2-0.1,0.3-0.2,0.4c-0.1,0.1-0.3,0.2-0.4,0.2h-2.4
			C792.3,23.7,792.2,23.6,792.1,23.5z M792.1,31.9c-0.1-0.1-0.2-0.2-0.2-0.4v-2.3c0-0.2,0.1-0.3,0.2-0.4c0.1-0.1,0.2-0.2,0.4-0.2
			h2.4c0.2,0,0.3,0.1,0.4,0.2c0.1,0.1,0.2,0.3,0.2,0.4v2.3c0,0.2-0.1,0.3-0.2,0.4c-0.1,0.1-0.3,0.2-0.4,0.2h-2.4
			C792.3,32.1,792.2,32,792.1,31.9z"/>
		<path class="st3" d="M805.2,30.8c-1-1-1.6-2.5-1.7-4.4l0-0.6l0-0.6c0.1-1.8,0.6-3.3,1.7-4.3s2.5-1.6,4.2-1.6
			c1.9,0,3.3,0.6,4.4,1.7c1,1.2,1.5,2.7,1.5,4.6v0.5c0,0.2-0.1,0.3-0.2,0.4c-0.1,0.1-0.3,0.2-0.4,0.2h-8V27c0,0.9,0.3,1.6,0.7,2.2
			c0.5,0.6,1.1,0.9,1.9,0.9c0.9,0,1.7-0.4,2.3-1.1c0.1-0.2,0.3-0.3,0.3-0.3c0.1,0,0.2-0.1,0.4-0.1h2.1c0.1,0,0.3,0,0.4,0.1
			c0.1,0.1,0.2,0.2,0.2,0.3c0,0.4-0.2,0.8-0.7,1.4c-0.5,0.5-1.1,1-2,1.4s-1.8,0.6-3,0.6C807.7,32.3,806.3,31.8,805.2,30.8z
			 M812.1,24.8L812.1,24.8c0-1-0.2-1.8-0.7-2.4s-1.1-0.9-2-0.9s-1.5,0.3-1.9,0.9c-0.5,0.6-0.7,1.3-0.7,2.3v0.1H812.1z"/>
		<path class="st3" d="M819.3,31.8c-0.7-0.3-1.2-0.8-1.6-1.3c-0.4-0.6-0.6-1.2-0.6-1.8c0-1.1,0.4-2,1.3-2.6s2.1-1.1,3.6-1.4l3.3-0.5
			v-0.5c0-0.7-0.2-1.2-0.5-1.6s-0.9-0.5-1.7-0.5c-0.5,0-1,0.1-1.3,0.3c-0.3,0.2-0.6,0.4-0.8,0.6c-0.2,0.2-0.3,0.3-0.4,0.4
			c-0.1,0.2-0.2,0.3-0.4,0.3h-1.8c-0.1,0-0.3,0-0.4-0.1c-0.1-0.1-0.2-0.2-0.2-0.4c0-0.4,0.2-0.9,0.6-1.4c0.4-0.5,1-1,1.7-1.3
			c0.8-0.4,1.7-0.6,2.9-0.6c1.9,0,3.3,0.4,4.1,1.3c0.9,0.8,1.3,2,1.3,3.3v7.5c0,0.2-0.1,0.3-0.2,0.4c-0.1,0.1-0.2,0.2-0.4,0.2H826
			c-0.2,0-0.3-0.1-0.4-0.2c-0.1-0.1-0.2-0.2-0.2-0.4v-0.9c-0.4,0.5-0.9,0.9-1.5,1.3c-0.6,0.3-1.5,0.5-2.4,0.5
			C820.7,32.3,820,32.2,819.3,31.8z M824.5,29.2c0.6-0.6,0.8-1.4,0.8-2.5v-0.5l-2.4,0.4c-0.9,0.1-1.6,0.4-2.1,0.7s-0.7,0.7-0.7,1.2
			c0,0.5,0.2,0.9,0.6,1.2s1,0.4,1.6,0.4C823.2,30,824,29.8,824.5,29.2z"/>
		<path class="st3" d="M833.3,31.8c-0.8-0.4-1.4-0.8-1.8-1.3c-0.4-0.5-0.6-0.9-0.6-1.3c0-0.2,0.1-0.3,0.2-0.4
			c0.1-0.1,0.2-0.1,0.4-0.1h1.9c0.1,0,0.3,0.1,0.4,0.2c0.1,0,0.2,0.2,0.5,0.4c0.3,0.3,0.6,0.5,1,0.6c0.4,0.1,0.8,0.2,1.2,0.2
			c0.6,0,1.2-0.1,1.6-0.4s0.6-0.6,0.6-1.1c0-0.3-0.1-0.6-0.3-0.8c-0.2-0.2-0.5-0.4-1-0.6c-0.5-0.2-1.2-0.3-2.1-0.5
			c-1.4-0.3-2.4-0.7-3-1.3c-0.6-0.6-1-1.4-1-2.4c0-0.6,0.2-1.2,0.6-1.8c0.4-0.6,1-1,1.7-1.4c0.8-0.4,1.7-0.5,2.7-0.5
			c1.1,0,2,0.2,2.8,0.5c0.8,0.3,1.4,0.8,1.8,1.2c0.4,0.5,0.6,0.9,0.6,1.3c0,0.1-0.1,0.3-0.2,0.4c-0.1,0.1-0.2,0.2-0.4,0.2h-1.8
			c-0.1,0-0.3-0.1-0.4-0.2c-0.1-0.1-0.3-0.2-0.5-0.5c-0.2-0.2-0.5-0.4-0.8-0.5c-0.3-0.1-0.7-0.2-1.1-0.2c-0.6,0-1.1,0.1-1.4,0.4
			c-0.3,0.3-0.5,0.6-0.5,1c0,0.3,0.1,0.6,0.2,0.7c0.2,0.2,0.5,0.4,0.9,0.6s1.2,0.4,2.1,0.5c1.5,0.3,2.6,0.8,3.3,1.4
			c0.7,0.6,1,1.4,1,2.4c0,1.1-0.5,2-1.5,2.7c-1,0.7-2.3,1.1-4.1,1.1C835.1,32.3,834.1,32.1,833.3,31.8z"/>
		<path class="st3" d="M846.7,30.9c-0.7-0.8-1.1-1.9-1.1-3.3v-5.4h-1.9c-0.2,0-0.3-0.1-0.4-0.2c-0.1-0.1-0.2-0.3-0.2-0.4v-1.4
			c0-0.2,0.1-0.3,0.2-0.4c0.1-0.1,0.2-0.2,0.4-0.2h1.9v-4c0-0.2,0.1-0.3,0.2-0.4c0.1-0.1,0.2-0.2,0.4-0.2h1.9c0.2,0,0.3,0.1,0.4,0.2
			c0.1,0.1,0.2,0.2,0.2,0.4v4h3c0.2,0,0.3,0.1,0.4,0.2c0.1,0.1,0.2,0.2,0.2,0.4v1.4c0,0.2-0.1,0.3-0.2,0.4c-0.1,0.1-0.2,0.2-0.4,0.2
			h-3v5.2c0,0.7,0.1,1.2,0.4,1.6c0.2,0.4,0.6,0.5,1.2,0.5h1.7c0.2,0,0.3,0.1,0.4,0.2c0.1,0.1,0.2,0.2,0.2,0.4v1.5
			c0,0.2-0.1,0.3-0.2,0.4c-0.1,0.1-0.2,0.2-0.4,0.2H850C848.5,32.1,847.4,31.7,846.7,30.9z"/>
	</g>
</g>
<g>
	<path class="st4" d="M1115.5,47.9H715.9c-5.5,0-10,4.5-10,10v400.3c0,5.5,4.5,10,10,10h399.6c5.5,0,10-4.5,10-10V57.9
		C1125.5,52.4,1121,47.9,1115.5,47.9z"/>
	<path class="st5" d="M1115.5,47.9H715.9c-5.5,0-10,4.5-10,10v400.3c0,5.5,4.5,10,10,10h399.6c5.5,0,10-4.5,10-10V57.9
		C1125.5,52.4,1121,47.9,1115.5,47.9z"/>
</g>
<path class="st8" d="M1096.6,88.3v80c0,5.5-4.5,10-10,10H744.8c-5.5,0-10-4.5-10-10v-80c0-5.5,4.5-10,10-10h341.8
	C1092.1,78.3,1096.6,82.8,1096.6,88.3z"/>
<path class="st6" d="M1096.6,218.3v80c0,5.5-4.5,10-10,10H744.8c-5.5,0-10-4.5-10-10v-80c0-5.5,4.5-10,10-10h341.8
	C1092.1,208.3,1096.6,212.8,1096.6,218.3z"/>
<g>
	<g class="st2">
		<path class="st7" d="M839.6,264.7c-1-0.4-1.8-1-2.3-1.7c-0.5-0.7-0.8-1.5-0.8-2.3c0-0.1,0-0.3,0.1-0.4s0.2-0.1,0.4-0.1h2.1
			c0.2,0,0.3,0,0.4,0.1c0.1,0.1,0.2,0.2,0.3,0.3c0.2,0.5,0.5,1,1.1,1.4c0.6,0.4,1.4,0.6,2.4,0.6c1.1,0,2-0.2,2.6-0.6
			s0.9-0.9,0.9-1.6c0-0.4-0.1-0.8-0.4-1.1s-0.7-0.5-1.3-0.7c-0.6-0.2-1.5-0.5-2.6-0.8c-1.9-0.4-3.3-1-4.1-1.8
			c-0.9-0.7-1.3-1.8-1.3-3.2c0-0.9,0.3-1.8,0.8-2.5c0.5-0.7,1.2-1.3,2.2-1.7s2.1-0.6,3.3-0.6c1.3,0,2.4,0.2,3.4,0.7s1.7,1,2.2,1.7
			c0.5,0.7,0.8,1.4,0.8,2.1c0,0.1,0,0.3-0.1,0.4s-0.2,0.1-0.4,0.1h-2.2c-0.3,0-0.6-0.2-0.7-0.5c-0.1-0.5-0.4-0.9-1-1.3
			s-1.2-0.5-2-0.5c-0.9,0-1.6,0.2-2.1,0.5s-0.8,0.8-0.8,1.5c0,0.4,0.1,0.8,0.4,1.1s0.7,0.5,1.2,0.8c0.6,0.2,1.3,0.5,2.4,0.7
			c1.4,0.3,2.5,0.7,3.4,1.1c0.8,0.4,1.5,0.9,1.9,1.5c0.4,0.6,0.6,1.4,0.6,2.3c0,1-0.3,1.9-0.9,2.7c-0.6,0.8-1.4,1.3-2.4,1.7
			c-1,0.4-2.2,0.6-3.6,0.6C841.8,265.3,840.6,265.1,839.6,264.7z"/>
		<path class="st7" d="M853.7,263.8c-1-1-1.6-2.5-1.7-4.4l0-0.6l0-0.6c0.1-1.8,0.6-3.3,1.7-4.3c1-1,2.5-1.6,4.2-1.6
			c1.9,0,3.3,0.6,4.4,1.7c1,1.2,1.5,2.7,1.5,4.6v0.5c0,0.2-0.1,0.3-0.2,0.4c-0.1,0.1-0.3,0.2-0.4,0.2h-8v0.2c0,0.9,0.3,1.6,0.7,2.2
			c0.5,0.6,1.1,0.9,1.9,0.9c0.9,0,1.7-0.4,2.3-1.1c0.1-0.2,0.3-0.3,0.3-0.3c0.1,0,0.2-0.1,0.4-0.1h2.1c0.1,0,0.3,0,0.4,0.1
			c0.1,0.1,0.2,0.2,0.2,0.3c0,0.4-0.2,0.8-0.7,1.4c-0.5,0.5-1.1,1-2,1.4c-0.8,0.4-1.8,0.6-3,0.6
			C856.1,265.3,854.7,264.8,853.7,263.8z M860.6,257.8L860.6,257.8c0-1-0.2-1.8-0.7-2.4c-0.5-0.6-1.1-0.9-2-0.9s-1.5,0.3-1.9,0.9
			s-0.7,1.3-0.7,2.3v0.1H860.6z"/>
		<path class="st7" d="M866.5,264.9c-0.1-0.1-0.2-0.2-0.2-0.4v-11.3c0-0.2,0.1-0.3,0.2-0.4c0.1-0.1,0.2-0.2,0.4-0.2h1.9
			c0.2,0,0.3,0.1,0.4,0.2c0.1,0.1,0.2,0.3,0.2,0.4v1c0.4-0.5,0.9-0.9,1.5-1.2c0.6-0.3,1.3-0.4,2-0.4h1c0.2,0,0.3,0.1,0.4,0.2
			c0.1,0.1,0.2,0.2,0.2,0.4v1.7c0,0.2-0.1,0.3-0.2,0.4c-0.1,0.1-0.2,0.2-0.4,0.2H872c-0.8,0-1.3,0.2-1.8,0.6c-0.4,0.4-0.6,1-0.6,1.8
			v6.6c0,0.2-0.1,0.3-0.2,0.4c-0.1,0.1-0.3,0.2-0.4,0.2h-2.1C866.8,265.1,866.6,265,866.5,264.9z"/>
		<path class="st7" d="M880.2,264.9c-0.1-0.1-0.2-0.3-0.3-0.4l-4.5-11.1l0-0.2c0-0.1,0.1-0.3,0.2-0.4c0.1-0.1,0.2-0.2,0.4-0.2h1.9
			c0.3,0,0.5,0.2,0.6,0.5l3.2,8.4l3.2-8.4c0-0.1,0.1-0.2,0.2-0.3s0.2-0.1,0.4-0.1h2c0.1,0,0.2,0.1,0.3,0.2c0.1,0.1,0.2,0.2,0.2,0.4
			c0,0.1,0,0.2,0,0.2l-4.5,11.1c-0.1,0.2-0.2,0.3-0.3,0.4c-0.1,0.1-0.3,0.2-0.6,0.2h-1.8C880.5,265.1,880.4,265,880.2,264.9z"/>
		<path class="st7" d="M890.2,250.4c-0.1-0.1-0.2-0.2-0.2-0.4v-1.7c0-0.2,0.1-0.3,0.2-0.4c0.1-0.1,0.2-0.2,0.4-0.2h2.2
			c0.2,0,0.3,0.1,0.4,0.2s0.2,0.2,0.2,0.4v1.7c0,0.2-0.1,0.3-0.2,0.4c-0.1,0.1-0.3,0.2-0.4,0.2h-2.2
			C890.5,250.5,890.3,250.5,890.2,250.4z M890.3,264.9c-0.1-0.1-0.2-0.2-0.2-0.4v-11.3c0-0.2,0.1-0.3,0.2-0.4
			c0.1-0.1,0.2-0.2,0.4-0.2h2c0.2,0,0.3,0.1,0.4,0.2c0.1,0.1,0.2,0.2,0.2,0.4v11.3c0,0.2-0.1,0.3-0.2,0.4c-0.1,0.1-0.2,0.2-0.4,0.2
			h-2C890.6,265.1,890.4,265,890.3,264.9z"/>
		<path class="st7" d="M897.7,263.9c-1-1-1.6-2.3-1.7-4.1l0-1l0-1c0.1-1.7,0.6-3.1,1.7-4.1s2.5-1.5,4.2-1.5c1.2,0,2.3,0.2,3.2,0.7
			c0.9,0.4,1.5,1,1.9,1.6c0.4,0.6,0.7,1.3,0.7,1.8c0,0.2,0,0.3-0.2,0.4c-0.1,0.1-0.3,0.2-0.4,0.2H905c-0.2,0-0.3,0-0.4-0.1
			c-0.1-0.1-0.2-0.2-0.3-0.4c-0.2-0.6-0.6-1.1-0.9-1.3c-0.4-0.3-0.9-0.4-1.5-0.4c-0.8,0-1.5,0.3-1.9,0.8c-0.5,0.5-0.7,1.3-0.7,2.4
			l0,0.9l0,0.8c0.1,2.1,1,3.1,2.7,3.1c0.6,0,1.1-0.1,1.5-0.4c0.4-0.3,0.7-0.7,0.9-1.3c0.1-0.2,0.2-0.3,0.3-0.4s0.2-0.1,0.4-0.1h2.1
			c0.2,0,0.3,0.1,0.4,0.2c0.1,0.1,0.2,0.2,0.2,0.4c0,0.6-0.3,1.2-0.7,1.8c-0.4,0.6-1.1,1.2-1.9,1.7c-0.9,0.5-1.9,0.7-3.2,0.7
			C900.1,265.3,898.7,264.8,897.7,263.9z"/>
		<path class="st7" d="M911.3,263.8c-1-1-1.6-2.5-1.7-4.4l0-0.6l0-0.6c0.1-1.8,0.6-3.3,1.7-4.3c1-1,2.5-1.6,4.2-1.6
			c1.9,0,3.3,0.6,4.4,1.7c1,1.2,1.5,2.7,1.5,4.6v0.5c0,0.2-0.1,0.3-0.2,0.4c-0.1,0.1-0.3,0.2-0.4,0.2h-8v0.2c0,0.9,0.3,1.6,0.7,2.2
			c0.5,0.6,1.1,0.9,1.9,0.9c0.9,0,1.7-0.4,2.3-1.1c0.1-0.2,0.3-0.3,0.3-0.3c0.1,0,0.2-0.1,0.4-0.1h2.1c0.1,0,0.3,0,0.4,0.1
			c0.1,0.1,0.2,0.2,0.2,0.3c0,0.4-0.2,0.8-0.7,1.4c-0.5,0.5-1.1,1-2,1.4c-0.8,0.4-1.8,0.6-3,0.6
			C913.8,265.3,912.4,264.8,911.3,263.8z M918.2,257.8L918.2,257.8c0-1-0.2-1.8-0.7-2.4c-0.5-0.6-1.1-0.9-2-0.9s-1.5,0.3-1.9,0.9
			s-0.7,1.3-0.7,2.3v0.1H918.2z"/>
		<path class="st7" d="M930,264.9c-0.1-0.1-0.2-0.2-0.2-0.4v-15.6c0-0.2,0.1-0.3,0.2-0.4c0.1-0.1,0.3-0.2,0.4-0.2h1.9
			c0.3,0,0.6,0.2,0.7,0.5l4.6,8.6l4.7-8.6c0.2-0.3,0.4-0.5,0.7-0.5h1.9c0.2,0,0.3,0.1,0.4,0.2c0.1,0.1,0.2,0.3,0.2,0.4v15.6
			c0,0.2-0.1,0.3-0.2,0.4c-0.1,0.1-0.3,0.2-0.4,0.2h-2c-0.2,0-0.3-0.1-0.4-0.2c-0.1-0.1-0.2-0.2-0.2-0.4v-10.4l-3.4,6.4
			c-0.2,0.4-0.5,0.5-0.8,0.5h-1c-0.3,0-0.6-0.2-0.8-0.5l-3.4-6.4v10.4c0,0.2-0.1,0.3-0.2,0.4c-0.1,0.1-0.2,0.2-0.4,0.2h-2
			C930.2,265.1,930.1,265,930,264.9z"/>
		<path class="st7" d="M949.1,250.4c-0.1-0.1-0.2-0.2-0.2-0.4v-1.7c0-0.2,0.1-0.3,0.2-0.4c0.1-0.1,0.2-0.2,0.4-0.2h2.2
			c0.2,0,0.3,0.1,0.4,0.2s0.2,0.2,0.2,0.4v1.7c0,0.2-0.1,0.3-0.2,0.4s-0.3,0.2-0.4,0.2h-2.2C949.3,250.5,949.2,250.5,949.1,250.4z
			 M949.2,264.9c-0.1-0.1-0.2-0.2-0.2-0.4v-11.3c0-0.2,0.1-0.3,0.2-0.4c0.1-0.1,0.2-0.2,0.4-0.2h2c0.2,0,0.3,0.1,0.4,0.2
			c0.1,0.1,0.2,0.2,0.2,0.4v11.3c0,0.2-0.1,0.3-0.2,0.4c-0.1,0.1-0.2,0.2-0.4,0.2h-2C949.4,265.1,949.3,265,949.2,264.9z"/>
		<path class="st7" d="M955.5,264.9c-0.1-0.1-0.2-0.2-0.2-0.4v-11.3c0-0.2,0.1-0.3,0.2-0.4c0.1-0.1,0.2-0.2,0.4-0.2h1.9
			c0.2,0,0.3,0.1,0.4,0.2c0.1,0.1,0.2,0.3,0.2,0.4v1c0.4-0.5,0.9-0.9,1.5-1.2c0.6-0.3,1.3-0.4,2-0.4h1c0.2,0,0.3,0.1,0.4,0.2
			c0.1,0.1,0.2,0.2,0.2,0.4v1.7c0,0.2-0.1,0.3-0.2,0.4c-0.1,0.1-0.2,0.2-0.4,0.2H961c-0.8,0-1.3,0.2-1.8,0.6c-0.4,0.4-0.6,1-0.6,1.8
			v6.6c0,0.2-0.1,0.3-0.2,0.4c-0.1,0.1-0.3,0.2-0.4,0.2h-2.1C955.7,265.1,955.6,265,955.5,264.9z"/>
		<path class="st7" d="M965.5,264.9c-0.1-0.1-0.2-0.2-0.2-0.4v-11.3c0-0.2,0.1-0.3,0.2-0.4c0.1-0.1,0.2-0.2,0.4-0.2h1.9
			c0.2,0,0.3,0.1,0.4,0.2c0.1,0.1,0.2,0.3,0.2,0.4v1c0.4-0.5,0.9-0.9,1.5-1.2c0.6-0.3,1.3-0.4,2-0.4h1c0.2,0,0.3,0.1,0.4,0.2
			c0.1,0.1,0.2,0.2,0.2,0.4v1.7c0,0.2-0.1,0.3-0.2,0.4c-0.1,0.1-0.2,0.2-0.4,0.2H971c-0.8,0-1.3,0.2-1.8,0.6c-0.4,0.4-0.6,1-0.6,1.8
			v6.6c0,0.2-0.1,0.3-0.2,0.4c-0.1,0.1-0.3,0.2-0.4,0.2h-2.1C965.8,265.1,965.6,265,965.5,264.9z"/>
		<path class="st7" d="M976.3,263.9c-1-1-1.6-2.3-1.7-4l0-1.1l0-1.1c0.1-1.7,0.6-3,1.7-4c1-1,2.5-1.5,4.3-1.5s3.3,0.5,4.3,1.5
			s1.6,2.3,1.7,4c0,0.2,0,0.5,0,1.1c0,0.5,0,0.9,0,1.1c-0.1,1.7-0.6,3-1.7,4c-1,1-2.5,1.5-4.3,1.5S977.4,264.8,976.3,263.9z
			 M982.7,262.1c0.5-0.5,0.7-1.3,0.8-2.4c0-0.2,0-0.5,0-0.9c0-0.5,0-0.8,0-0.9c0-1-0.3-1.8-0.8-2.4s-1.1-0.8-2-0.8s-1.5,0.3-2,0.8
			s-0.7,1.3-0.8,2.4l0,0.9l0,0.9c0,1,0.3,1.8,0.8,2.4c0.5,0.5,1.1,0.8,2,0.8S982.2,262.7,982.7,262.1z"/>
		<path class="st7" d="M989.5,264.9c-0.1-0.1-0.2-0.2-0.2-0.4v-11.3c0-0.2,0.1-0.3,0.2-0.4c0.1-0.1,0.2-0.2,0.4-0.2h1.9
			c0.2,0,0.3,0.1,0.4,0.2c0.1,0.1,0.2,0.3,0.2,0.4v1c0.4-0.5,0.9-0.9,1.5-1.2c0.6-0.3,1.3-0.4,2-0.4h1c0.2,0,0.3,0.1,0.4,0.2
			c0.1,0.1,0.2,0.2,0.2,0.4v1.7c0,0.2-0.1,0.3-0.2,0.4c-0.1,0.1-0.2,0.2-0.4,0.2h-1.9c-0.8,0-1.3,0.2-1.8,0.6
			c-0.4,0.4-0.6,1-0.6,1.8v6.6c0,0.2-0.1,0.3-0.2,0.4c-0.1,0.1-0.3,0.2-0.4,0.2H990C989.8,265.1,989.7,265,989.5,264.9z"/>
	</g>
</g>
<path class="st6" d="M1096.6,348.3v80c0,5.5-4.5,10-10,10H744.8c-5.5,0-10-4.5-10-10v-80c0-5.5,4.5-10,10-10h341.8
	C1092.1,338.3,1096.6,342.8,1096.6,348.3z"/>
<g>
	<g class="st2">
		<path class="st7" d="M818,394.7c-1-0.4-1.8-1-2.3-1.7c-0.5-0.7-0.8-1.5-0.8-2.3c0-0.1,0-0.3,0.1-0.4s0.2-0.1,0.4-0.1h2.1
			c0.2,0,0.3,0,0.4,0.1c0.1,0.1,0.2,0.2,0.3,0.3c0.2,0.5,0.5,1,1.1,1.4c0.6,0.4,1.4,0.6,2.4,0.6c1.1,0,2-0.2,2.6-0.6
			s0.9-0.9,0.9-1.6c0-0.4-0.1-0.8-0.4-1.1c-0.3-0.3-0.7-0.5-1.3-0.7c-0.6-0.2-1.5-0.5-2.6-0.8c-1.9-0.4-3.3-1-4.1-1.8
			c-0.9-0.7-1.3-1.8-1.3-3.2c0-0.9,0.3-1.8,0.8-2.5s1.2-1.3,2.2-1.7c1-0.4,2.1-0.6,3.3-0.6c1.3,0,2.4,0.2,3.4,0.7s1.7,1,2.2,1.7
			c0.5,0.7,0.8,1.4,0.8,2.1c0,0.1,0,0.3-0.1,0.4s-0.2,0.1-0.4,0.1h-2.2c-0.3,0-0.6-0.2-0.7-0.5c-0.1-0.5-0.4-0.9-1-1.3
			s-1.2-0.5-2-0.5c-0.9,0-1.6,0.2-2.1,0.5c-0.5,0.3-0.8,0.8-0.8,1.5c0,0.4,0.1,0.8,0.4,1.1s0.7,0.5,1.2,0.8c0.6,0.2,1.3,0.5,2.4,0.7
			c1.4,0.3,2.5,0.7,3.4,1.1c0.8,0.4,1.5,0.9,1.9,1.5c0.4,0.6,0.6,1.4,0.6,2.3c0,1-0.3,1.9-0.9,2.7s-1.4,1.3-2.4,1.7
			c-1,0.4-2.2,0.6-3.6,0.6C820.3,395.3,819.1,395.1,818,394.7z"/>
		<path class="st7" d="M832.1,393.8c-1-1-1.6-2.5-1.7-4.4l0-0.6l0-0.6c0.1-1.8,0.6-3.3,1.7-4.3c1-1,2.5-1.6,4.2-1.6
			c1.9,0,3.3,0.6,4.4,1.7c1,1.2,1.5,2.7,1.5,4.6v0.5c0,0.2-0.1,0.3-0.2,0.4c-0.1,0.1-0.3,0.2-0.4,0.2h-8v0.2c0,0.9,0.3,1.6,0.7,2.2
			c0.5,0.6,1.1,0.9,1.9,0.9c0.9,0,1.7-0.4,2.3-1.1c0.1-0.2,0.3-0.3,0.3-0.3c0.1,0,0.2-0.1,0.4-0.1h2.1c0.1,0,0.3,0,0.4,0.1
			c0.1,0.1,0.2,0.2,0.2,0.3c0,0.4-0.2,0.8-0.7,1.4c-0.5,0.5-1.1,1-2,1.4s-1.8,0.6-3,0.6C834.6,395.3,833.2,394.8,832.1,393.8z
			 M839,387.8L839,387.8c0-1-0.2-1.8-0.7-2.4c-0.5-0.6-1.1-0.9-2-0.9s-1.5,0.3-1.9,0.9c-0.5,0.6-0.7,1.3-0.7,2.3v0.1H839z"/>
		<path class="st7" d="M845,394.9c-0.1-0.1-0.2-0.2-0.2-0.4v-11.3c0-0.2,0.1-0.3,0.2-0.4c0.1-0.1,0.2-0.2,0.4-0.2h1.9
			c0.2,0,0.3,0.1,0.4,0.2c0.1,0.1,0.2,0.3,0.2,0.4v1c0.4-0.5,0.9-0.9,1.5-1.2c0.6-0.3,1.3-0.4,2-0.4h1c0.2,0,0.3,0.1,0.4,0.2
			c0.1,0.1,0.2,0.2,0.2,0.4v1.7c0,0.2-0.1,0.3-0.2,0.4c-0.1,0.1-0.2,0.2-0.4,0.2h-1.9c-0.8,0-1.3,0.2-1.8,0.6
			c-0.4,0.4-0.6,1-0.6,1.8v6.6c0,0.2-0.1,0.3-0.2,0.4c-0.1,0.1-0.3,0.2-0.4,0.2h-2.1C845.3,395.1,845.1,395,845,394.9z"/>
		<path class="st7" d="M858.7,394.9c-0.1-0.1-0.2-0.3-0.3-0.4l-4.5-11.1l0-0.2c0-0.1,0.1-0.3,0.2-0.4c0.1-0.1,0.2-0.2,0.4-0.2h1.9
			c0.3,0,0.5,0.2,0.6,0.5l3.2,8.4l3.2-8.4c0-0.1,0.1-0.2,0.2-0.3c0.1-0.1,0.2-0.1,0.4-0.1h2c0.1,0,0.2,0.1,0.3,0.2
			c0.1,0.1,0.2,0.2,0.2,0.4c0,0.1,0,0.2,0,0.2l-4.5,11.1c-0.1,0.2-0.2,0.3-0.3,0.4c-0.1,0.1-0.3,0.2-0.6,0.2h-1.8
			C859,395.1,858.8,395,858.7,394.9z"/>
		<path class="st7" d="M868.7,380.4c-0.1-0.1-0.2-0.2-0.2-0.4v-1.7c0-0.2,0.1-0.3,0.2-0.4s0.2-0.2,0.4-0.2h2.2
			c0.2,0,0.3,0.1,0.4,0.2c0.1,0.1,0.2,0.2,0.2,0.4v1.7c0,0.2-0.1,0.3-0.2,0.4s-0.3,0.2-0.4,0.2h-2.2
			C868.9,380.5,868.8,380.5,868.7,380.4z M868.8,394.9c-0.1-0.1-0.2-0.2-0.2-0.4v-11.3c0-0.2,0.1-0.3,0.2-0.4
			c0.1-0.1,0.2-0.2,0.4-0.2h2c0.2,0,0.3,0.1,0.4,0.2c0.1,0.1,0.2,0.2,0.2,0.4v11.3c0,0.2-0.1,0.3-0.2,0.4c-0.1,0.1-0.2,0.2-0.4,0.2
			h-2C869,395.1,868.9,395,868.8,394.9z"/>
		<path class="st7" d="M876.2,393.9c-1-1-1.6-2.3-1.7-4.1l0-1l0-1c0.1-1.7,0.6-3.1,1.7-4.1c1-1,2.5-1.5,4.2-1.5
			c1.2,0,2.3,0.2,3.2,0.7c0.9,0.4,1.5,1,1.9,1.6c0.4,0.6,0.7,1.3,0.7,1.8c0,0.2,0,0.3-0.2,0.4c-0.1,0.1-0.3,0.2-0.4,0.2h-2.1
			c-0.2,0-0.3,0-0.4-0.1c-0.1-0.1-0.2-0.2-0.3-0.4c-0.2-0.6-0.6-1.1-0.9-1.3c-0.4-0.3-0.9-0.4-1.5-0.4c-0.8,0-1.5,0.3-1.9,0.8
			c-0.5,0.5-0.7,1.3-0.7,2.4l0,0.9l0,0.8c0.1,2.1,1,3.1,2.7,3.1c0.6,0,1.1-0.1,1.5-0.4c0.4-0.3,0.7-0.7,0.9-1.3
			c0.1-0.2,0.2-0.3,0.3-0.4s0.2-0.1,0.4-0.1h2.1c0.2,0,0.3,0.1,0.4,0.2c0.1,0.1,0.2,0.2,0.2,0.4c0,0.6-0.3,1.2-0.7,1.8
			c-0.4,0.6-1.1,1.2-1.9,1.7s-1.9,0.7-3.2,0.7C878.6,395.3,877.2,394.8,876.2,393.9z"/>
		<path class="st7" d="M889.8,393.8c-1-1-1.6-2.5-1.7-4.4l0-0.6l0-0.6c0.1-1.8,0.6-3.3,1.7-4.3s2.5-1.6,4.2-1.6
			c1.9,0,3.3,0.6,4.4,1.7c1,1.2,1.5,2.7,1.5,4.6v0.5c0,0.2-0.1,0.3-0.2,0.4c-0.1,0.1-0.3,0.2-0.4,0.2h-8v0.2c0,0.9,0.3,1.6,0.7,2.2
			c0.5,0.6,1.1,0.9,1.9,0.9c0.9,0,1.7-0.4,2.3-1.1c0.1-0.2,0.3-0.3,0.3-0.3c0.1,0,0.2-0.1,0.4-0.1h2.1c0.1,0,0.3,0,0.4,0.1
			c0.1,0.1,0.2,0.2,0.2,0.3c0,0.4-0.2,0.8-0.7,1.4c-0.5,0.5-1.1,1-2,1.4c-0.8,0.4-1.8,0.6-3,0.6
			C892.3,395.3,890.9,394.8,889.8,393.8z M896.7,387.8L896.7,387.8c0-1-0.2-1.8-0.7-2.4s-1.1-0.9-2-0.9s-1.5,0.3-1.9,0.9
			c-0.5,0.6-0.7,1.3-0.7,2.3v0.1H896.7z"/>
		<path class="st7" d="M902.6,386.5c-0.1-0.1-0.2-0.2-0.2-0.4v-2.3c0-0.2,0.1-0.3,0.2-0.4c0.1-0.1,0.2-0.2,0.4-0.2h2.4
			c0.2,0,0.3,0.1,0.4,0.2c0.1,0.1,0.2,0.3,0.2,0.4v2.3c0,0.2-0.1,0.3-0.2,0.4c-0.1,0.1-0.3,0.2-0.4,0.2H903
			C902.9,386.7,902.7,386.6,902.6,386.5z M902.6,394.9c-0.1-0.1-0.2-0.2-0.2-0.4v-2.3c0-0.2,0.1-0.3,0.2-0.4
			c0.1-0.1,0.2-0.2,0.4-0.2h2.4c0.2,0,0.3,0.1,0.4,0.2c0.1,0.1,0.2,0.3,0.2,0.4v2.3c0,0.2-0.1,0.3-0.2,0.4c-0.1,0.1-0.3,0.2-0.4,0.2
			H903C902.9,395.1,902.7,395,902.6,394.9z"/>
		<path class="st7" d="M915.7,394.9c-0.1-0.1-0.2-0.2-0.2-0.4v-9.4h-1.9c-0.2,0-0.3-0.1-0.4-0.2c-0.1-0.1-0.2-0.3-0.2-0.4v-1.4
			c0-0.2,0.1-0.3,0.2-0.4c0.1-0.1,0.2-0.2,0.4-0.2h1.9v-1c0-2.9,1.6-4.3,4.7-4.3h1.6c0.2,0,0.3,0.1,0.4,0.2c0.1,0.1,0.2,0.2,0.2,0.4
			v1.4c0,0.2-0.1,0.3-0.2,0.4c-0.1,0.1-0.2,0.2-0.4,0.2h-1.5c-0.6,0-1.1,0.2-1.3,0.5s-0.4,0.8-0.4,1.4v0.9h3c0.2,0,0.3,0.1,0.4,0.2
			c0.1,0.1,0.2,0.2,0.2,0.4v1.4c0,0.2-0.1,0.3-0.2,0.4c-0.1,0.1-0.2,0.2-0.4,0.2h-3v9.4c0,0.2-0.1,0.3-0.2,0.4
			c-0.1,0.1-0.2,0.2-0.4,0.2h-2C915.9,395.1,915.8,395,915.7,394.9z"/>
		<path class="st7" d="M925.1,393.9c-1-1-1.6-2.3-1.7-4l0-1.1l0-1.1c0.1-1.7,0.6-3,1.7-4s2.5-1.5,4.3-1.5s3.3,0.5,4.3,1.5
			s1.6,2.3,1.7,4c0,0.2,0,0.5,0,1.1c0,0.5,0,0.9,0,1.1c-0.1,1.7-0.6,3-1.7,4c-1,1-2.5,1.5-4.3,1.5
			C927.5,395.3,926.1,394.8,925.1,393.9z M931.4,392.1c0.5-0.5,0.7-1.3,0.8-2.4c0-0.2,0-0.5,0-0.9c0-0.5,0-0.8,0-0.9
			c0-1-0.3-1.8-0.8-2.4c-0.5-0.5-1.1-0.8-2-0.8s-1.5,0.3-2,0.8c-0.5,0.5-0.7,1.3-0.8,2.4l0,0.9l0,0.9c0,1,0.3,1.8,0.8,2.4
			c0.5,0.5,1.1,0.8,2,0.8S930.9,392.7,931.4,392.1z"/>
		<path class="st7" d="M939.3,393.9c-1-1-1.6-2.3-1.7-4l0-1.1l0-1.1c0.1-1.7,0.6-3,1.7-4c1-1,2.5-1.5,4.3-1.5c1.8,0,3.3,0.5,4.3,1.5
			s1.6,2.3,1.7,4c0,0.2,0,0.5,0,1.1c0,0.5,0,0.9,0,1.1c-0.1,1.7-0.6,3-1.7,4c-1,1-2.5,1.5-4.3,1.5
			C941.8,395.3,940.3,394.8,939.3,393.9z M945.6,392.1c0.5-0.5,0.7-1.3,0.8-2.4c0-0.2,0-0.5,0-0.9c0-0.5,0-0.8,0-0.9
			c0-1-0.3-1.8-0.8-2.4c-0.5-0.5-1.1-0.8-2-0.8c-0.8,0-1.5,0.3-2,0.8c-0.5,0.5-0.7,1.3-0.8,2.4l0,0.9l0,0.9c0,1,0.3,1.8,0.8,2.4
			c0.5,0.5,1.1,0.8,2,0.8C944.5,393,945.1,392.7,945.6,392.1z"/>
		<path class="st7" d="M952.4,389.1c-0.1-0.1-0.2-0.2-0.2-0.4v-1.6c0-0.2,0.1-0.3,0.2-0.4c0.1-0.1,0.2-0.2,0.4-0.2h7.4
			c0.2,0,0.3,0.1,0.4,0.2c0.1,0.1,0.2,0.2,0.2,0.4v1.6c0,0.2-0.1,0.3-0.2,0.4c-0.1,0.1-0.2,0.2-0.4,0.2h-7.4
			C952.7,389.3,952.5,389.2,952.4,389.1z"/>
		<path class="st7" d="M966.4,394.9c-0.1-0.1-0.2-0.3-0.3-0.4l-3.4-11.1c0,0,0-0.1,0-0.2c0-0.1,0.1-0.3,0.2-0.4
			c0.1-0.1,0.2-0.2,0.3-0.2h1.8c0.2,0,0.3,0,0.4,0.1c0.1,0.1,0.2,0.2,0.2,0.3l2.4,7.9l2.5-7.9c0-0.1,0.1-0.3,0.3-0.4
			c0.1-0.1,0.3-0.2,0.5-0.2h1.2c0.2,0,0.3,0.1,0.5,0.2c0.1,0.1,0.2,0.2,0.3,0.4l2.5,7.9l2.4-7.9c0-0.1,0.1-0.2,0.2-0.3
			c0.1-0.1,0.3-0.1,0.4-0.1h1.8c0.1,0,0.3,0.1,0.4,0.2c0.1,0.1,0.2,0.2,0.2,0.4l0,0.2l-3.4,11.1c-0.1,0.2-0.2,0.3-0.3,0.4
			c-0.1,0.1-0.3,0.2-0.5,0.2h-1.6c-0.4,0-0.7-0.2-0.8-0.6l-2.5-7.6l-2.5,7.6c-0.1,0.4-0.4,0.6-0.8,0.6h-1.5
			C966.7,395.1,966.6,395,966.4,394.9z"/>
		<path class="st7" d="M984,393.8c-1-1-1.6-2.5-1.7-4.4l0-0.6l0-0.6c0.1-1.8,0.6-3.3,1.7-4.3c1-1,2.5-1.6,4.2-1.6
			c1.9,0,3.3,0.6,4.4,1.7c1,1.2,1.5,2.7,1.5,4.6v0.5c0,0.2-0.1,0.3-0.2,0.4c-0.1,0.1-0.3,0.2-0.4,0.2h-8v0.2c0,0.9,0.3,1.6,0.7,2.2
			c0.5,0.6,1.1,0.9,1.9,0.9c0.9,0,1.7-0.4,2.3-1.1c0.1-0.2,0.3-0.3,0.3-0.3c0.1,0,0.2-0.1,0.4-0.1h2.1c0.1,0,0.3,0,0.4,0.1
			c0.1,0.1,0.2,0.2,0.2,0.3c0,0.4-0.2,0.8-0.7,1.4c-0.5,0.5-1.1,1-2,1.4s-1.8,0.6-3,0.6C986.4,395.3,985,394.8,984,393.8z
			 M990.9,387.8L990.9,387.8c0-1-0.2-1.8-0.7-2.4c-0.5-0.6-1.1-0.9-2-0.9s-1.5,0.3-1.9,0.9c-0.5,0.6-0.7,1.3-0.7,2.3v0.1H990.9z"/>
		<path class="st7" d="M998.4,394.8c-0.8-0.4-1.4-0.8-1.8-1.3c-0.4-0.5-0.6-0.9-0.6-1.3c0-0.2,0.1-0.3,0.2-0.4
			c0.1-0.1,0.2-0.1,0.4-0.1h1.9c0.1,0,0.3,0.1,0.4,0.2c0.1,0,0.2,0.2,0.5,0.4c0.3,0.3,0.6,0.5,1,0.6c0.4,0.1,0.8,0.2,1.2,0.2
			c0.6,0,1.2-0.1,1.6-0.4s0.6-0.6,0.6-1.1c0-0.3-0.1-0.6-0.3-0.8s-0.5-0.4-1-0.6s-1.2-0.3-2.1-0.5c-1.4-0.3-2.4-0.7-3-1.3
			c-0.6-0.6-1-1.4-1-2.4c0-0.6,0.2-1.2,0.6-1.8c0.4-0.6,1-1,1.7-1.4c0.8-0.4,1.7-0.5,2.7-0.5c1.1,0,2,0.2,2.8,0.5
			c0.8,0.3,1.4,0.8,1.8,1.2c0.4,0.5,0.6,0.9,0.6,1.3c0,0.1-0.1,0.3-0.2,0.4c-0.1,0.1-0.2,0.2-0.4,0.2h-1.8c-0.1,0-0.3-0.1-0.4-0.2
			c-0.1-0.1-0.3-0.2-0.5-0.5c-0.2-0.2-0.5-0.4-0.8-0.5s-0.7-0.2-1.1-0.2c-0.6,0-1.1,0.1-1.4,0.4c-0.3,0.3-0.5,0.6-0.5,1
			c0,0.3,0.1,0.6,0.2,0.7c0.2,0.2,0.5,0.4,0.9,0.6c0.5,0.2,1.2,0.4,2.1,0.5c1.5,0.3,2.6,0.8,3.3,1.4c0.7,0.6,1,1.4,1,2.4
			c0,1.1-0.5,2-1.5,2.7c-1,0.7-2.3,1.1-4.1,1.1C1000.2,395.3,999.2,395.1,998.4,394.8z"/>
		<path class="st7" d="M1011.8,393.9c-0.7-0.8-1.1-1.9-1.1-3.3v-5.4h-1.9c-0.2,0-0.3-0.1-0.4-0.2c-0.1-0.1-0.2-0.3-0.2-0.4v-1.4
			c0-0.2,0.1-0.3,0.2-0.4c0.1-0.1,0.2-0.2,0.4-0.2h1.9v-4c0-0.2,0.1-0.3,0.2-0.4s0.2-0.2,0.4-0.2h1.9c0.2,0,0.3,0.1,0.4,0.2
			c0.1,0.1,0.2,0.2,0.2,0.4v4h3c0.2,0,0.3,0.1,0.4,0.2c0.1,0.1,0.2,0.2,0.2,0.4v1.4c0,0.2-0.1,0.3-0.2,0.4c-0.1,0.1-0.2,0.2-0.4,0.2
			h-3v5.2c0,0.7,0.1,1.2,0.4,1.6c0.2,0.4,0.6,0.5,1.2,0.5h1.7c0.2,0,0.3,0.1,0.4,0.2c0.1,0.1,0.2,0.2,0.2,0.4v1.5
			c0,0.2-0.1,0.3-0.2,0.4c-0.1,0.1-0.2,0.2-0.4,0.2h-1.9C1013.6,395.1,1012.5,394.7,1011.8,393.9z"/>
	</g>
</g>
<g>
	<g>
		<line class="st9" x1="639" y1="138.3" x2="723.7" y2="138.3"/>
		<g>
			<polygon class="st10" points="721.5,145.8 734.4,138.3 721.5,130.8 			"/>
		</g>
	</g>
</g>
<g>
	<g>
		<line class="st0" x1="660.5" y1="118.3" x2="576" y2="118.3"/>
		<g>
			<polygon class="st7" points="578.2,110.8 565.2,118.3 578.2,125.8 			"/>
		</g>
	</g>
</g>
<line class="st9" x1="566.6" y1="388.3" x2="642" y2="388.3"/>
<line class="st0" x1="659" y1="388.3" x2="735.9" y2="388.3"/>
<line class="st9" x1="640.5" y1="136.8" x2="640.5" y2="388.3"/>
<g>
	<g class="st2">
		<path class="st7" d="M869.1,133.6c-1.2-1.1-1.9-2.7-2-4.8c0-0.5,0-1.2,0-2.2c0-1,0-1.8,0-2.2c0.1-2,0.7-3.5,2-4.7
			c1.2-1.1,2.9-1.7,5.1-1.7c1.5,0,2.7,0.2,3.8,0.7c1.1,0.5,1.9,1.1,2.4,1.9c0.5,0.7,0.8,1.5,0.9,2.2v0c0,0.1,0,0.2-0.1,0.3
			c-0.1,0.1-0.2,0.1-0.4,0.1h-2.5c-0.2,0-0.3,0-0.4-0.1c-0.1-0.1-0.2-0.2-0.2-0.3c-0.2-0.6-0.6-1.1-1.2-1.5
			c-0.6-0.4-1.3-0.6-2.3-0.6c-1.1,0-2,0.3-2.6,0.9c-0.6,0.6-1,1.5-1,2.8c0,0.5,0,1.2,0,2.1c0,0.9,0,1.6,0,2.1
			c0.1,2.5,1.3,3.8,3.7,3.8c1.1,0,2-0.3,2.7-0.9c0.7-0.6,1-1.5,1-2.7v-0.7h-2.9c-0.2,0-0.3-0.1-0.4-0.2c-0.1-0.1-0.2-0.3-0.2-0.4
			v-1.3c0-0.2,0.1-0.3,0.2-0.4c0.1-0.1,0.2-0.2,0.4-0.2h5.7c0.2,0,0.3,0.1,0.4,0.2c0.1,0.1,0.2,0.3,0.2,0.4v2.5
			c0,1.3-0.3,2.5-0.9,3.5c-0.6,1-1.4,1.7-2.5,2.3c-1.1,0.5-2.4,0.8-3.8,0.8C872.1,135.3,870.3,134.8,869.1,133.6z"/>
		<path class="st7" d="M885.6,134.8c-0.7-0.3-1.2-0.8-1.6-1.3c-0.4-0.6-0.6-1.2-0.6-1.8c0-1.1,0.4-2,1.3-2.6s2.1-1.1,3.6-1.4
			l3.3-0.5v-0.5c0-0.7-0.2-1.2-0.5-1.6s-0.9-0.5-1.7-0.5c-0.5,0-1,0.1-1.3,0.3c-0.3,0.2-0.6,0.4-0.8,0.6c-0.2,0.2-0.3,0.3-0.4,0.4
			c-0.1,0.2-0.2,0.3-0.4,0.3h-1.8c-0.1,0-0.3,0-0.4-0.1c-0.1-0.1-0.2-0.2-0.2-0.4c0-0.4,0.2-0.9,0.6-1.4c0.4-0.5,1-1,1.7-1.3
			c0.8-0.4,1.7-0.6,2.9-0.6c1.9,0,3.3,0.4,4.1,1.3c0.9,0.8,1.3,2,1.3,3.3v7.5c0,0.2-0.1,0.3-0.2,0.4c-0.1,0.1-0.2,0.2-0.4,0.2h-1.9
			c-0.2,0-0.3-0.1-0.4-0.2c-0.1-0.1-0.2-0.2-0.2-0.4v-0.9c-0.4,0.5-0.9,0.9-1.5,1.3c-0.6,0.3-1.5,0.5-2.4,0.5
			C887,135.3,886.3,135.2,885.6,134.8z M890.8,132.2c0.6-0.6,0.8-1.4,0.8-2.5v-0.5l-2.4,0.4c-0.9,0.1-1.6,0.4-2.1,0.7
			s-0.7,0.7-0.7,1.2c0,0.5,0.2,0.9,0.6,1.2s1,0.4,1.6,0.4C889.5,133,890.3,132.8,890.8,132.2z"/>
		<path class="st7" d="M900.2,133.9c-0.7-0.8-1.1-1.9-1.1-3.3v-5.4h-1.9c-0.2,0-0.3-0.1-0.4-0.2c-0.1-0.1-0.2-0.3-0.2-0.4v-1.4
			c0-0.2,0.1-0.3,0.2-0.4c0.1-0.1,0.2-0.2,0.4-0.2h1.9v-4c0-0.2,0.1-0.3,0.2-0.4c0.1-0.1,0.2-0.2,0.4-0.2h1.9c0.2,0,0.3,0.1,0.4,0.2
			c0.1,0.1,0.2,0.2,0.2,0.4v4h3c0.2,0,0.3,0.1,0.4,0.2c0.1,0.1,0.2,0.2,0.2,0.4v1.4c0,0.2-0.1,0.3-0.2,0.4c-0.1,0.1-0.2,0.2-0.4,0.2
			h-3v5.2c0,0.7,0.1,1.2,0.4,1.6c0.2,0.4,0.6,0.5,1.2,0.5h1.7c0.2,0,0.3,0.1,0.4,0.2c0.1,0.1,0.2,0.2,0.2,0.4v1.5
			c0,0.2-0.1,0.3-0.2,0.4c-0.1,0.1-0.2,0.2-0.4,0.2h-1.9C902,135.1,900.9,134.7,900.2,133.9z"/>
		<path class="st7" d="M909.2,133.8c-1-1-1.6-2.5-1.7-4.4l0-0.6l0-0.6c0.1-1.8,0.6-3.3,1.7-4.3c1-1,2.5-1.6,4.2-1.6
			c1.9,0,3.3,0.6,4.4,1.7c1,1.2,1.5,2.7,1.5,4.6v0.5c0,0.2-0.1,0.3-0.2,0.4c-0.1,0.1-0.3,0.2-0.4,0.2h-8v0.2c0,0.9,0.3,1.6,0.7,2.2
			c0.5,0.6,1.1,0.9,1.9,0.9c0.9,0,1.7-0.4,2.3-1.1c0.1-0.2,0.3-0.3,0.3-0.3c0.1,0,0.2-0.1,0.4-0.1h2.1c0.1,0,0.3,0,0.4,0.1
			c0.1,0.1,0.2,0.2,0.2,0.3c0,0.4-0.2,0.8-0.7,1.4c-0.5,0.5-1.1,1-2,1.4c-0.8,0.4-1.8,0.6-3,0.6
			C911.7,135.3,910.3,134.8,909.2,133.8z M916.1,127.8L916.1,127.8c0-1-0.2-1.8-0.7-2.4c-0.5-0.6-1.1-0.9-2-0.9s-1.5,0.3-1.9,0.9
			s-0.7,1.3-0.7,2.3v0.1H916.1z"/>
		<path class="st7" d="M924.5,134.9c-0.1-0.1-0.2-0.3-0.3-0.4l-3.4-11.1c0,0,0-0.1,0-0.2c0-0.1,0.1-0.3,0.2-0.4
			c0.1-0.1,0.2-0.2,0.3-0.2h1.8c0.2,0,0.3,0,0.4,0.1c0.1,0.1,0.2,0.2,0.2,0.3l2.4,7.9l2.5-7.9c0-0.1,0.1-0.3,0.3-0.4
			c0.1-0.1,0.3-0.2,0.5-0.2h1.2c0.2,0,0.3,0.1,0.5,0.2c0.1,0.1,0.2,0.2,0.3,0.4l2.5,7.9l2.4-7.9c0-0.1,0.1-0.2,0.2-0.3
			s0.3-0.1,0.4-0.1h1.8c0.1,0,0.3,0.1,0.4,0.2c0.1,0.1,0.2,0.2,0.2,0.4l0,0.2l-3.4,11.1c-0.1,0.2-0.2,0.3-0.3,0.4
			c-0.1,0.1-0.3,0.2-0.5,0.2h-1.6c-0.4,0-0.7-0.2-0.8-0.6l-2.5-7.6l-2.5,7.6c-0.1,0.4-0.4,0.6-0.8,0.6H925
			C924.8,135.1,924.6,135,924.5,134.9z"/>
		<path class="st7" d="M942.3,134.8c-0.7-0.3-1.2-0.8-1.6-1.3c-0.4-0.6-0.6-1.2-0.6-1.8c0-1.1,0.4-2,1.3-2.6s2.1-1.1,3.6-1.4
			l3.3-0.5v-0.5c0-0.7-0.2-1.2-0.5-1.6s-0.9-0.5-1.7-0.5c-0.5,0-1,0.1-1.3,0.3c-0.3,0.2-0.6,0.4-0.8,0.6c-0.2,0.2-0.3,0.3-0.4,0.4
			c-0.1,0.2-0.2,0.3-0.4,0.3h-1.8c-0.1,0-0.3,0-0.4-0.1c-0.1-0.1-0.2-0.2-0.2-0.4c0-0.4,0.2-0.9,0.6-1.4c0.4-0.5,1-1,1.7-1.3
			c0.8-0.4,1.7-0.6,2.9-0.6c1.9,0,3.3,0.4,4.1,1.3c0.9,0.8,1.3,2,1.3,3.3v7.5c0,0.2-0.1,0.3-0.2,0.4c-0.1,0.1-0.2,0.2-0.4,0.2H949
			c-0.2,0-0.3-0.1-0.4-0.2c-0.1-0.1-0.2-0.2-0.2-0.4v-0.9c-0.4,0.5-0.9,0.9-1.5,1.3c-0.6,0.3-1.5,0.5-2.4,0.5
			C943.7,135.3,943,135.2,942.3,134.8z M947.5,132.2c0.6-0.6,0.8-1.4,0.8-2.5v-0.5l-2.4,0.4c-0.9,0.1-1.6,0.4-2.1,0.7
			s-0.7,0.7-0.7,1.2c0,0.5,0.2,0.9,0.6,1.2s1,0.4,1.6,0.4C946.2,133,946.9,132.8,947.5,132.2z"/>
		<path class="st7" d="M956.2,139.5c-0.1-0.1-0.1-0.2-0.1-0.3c0-0.1,0-0.3,0.1-0.4l1.9-4.4l-4.6-10.9c-0.1-0.1-0.1-0.3-0.1-0.3
			c0-0.1,0.1-0.3,0.2-0.4c0.1-0.1,0.2-0.2,0.4-0.2h1.9c0.3,0,0.5,0.2,0.6,0.5l3.2,7.8l3.3-7.8c0.1-0.3,0.3-0.5,0.6-0.5h1.9
			c0.1,0,0.2,0,0.3,0.1c0.1,0.1,0.2,0.2,0.2,0.3c0,0.1,0,0.2-0.1,0.4l-6.8,15.7c-0.1,0.3-0.4,0.5-0.7,0.5h-1.9
			C956.4,139.6,956.3,139.6,956.2,139.5z"/>
	</g>
</g>
</svg>
