<svg xmlns="http://www.w3.org/2000/svg" xmlns:xlink="http://www.w3.org/1999/xlink" viewBox="0 0 1051.27 230.39"><defs><style>.cls-1{fill:#bdbdbd;}.cls-2{fill:url(#linear-gradient);}.cls-3{fill:url(#linear-gradient-2);}.cls-4{fill:#2beda7;}.cls-5{fill:url(#linear-gradient-3);}.cls-6{fill:url(#linear-gradient-4);}.cls-7{fill:url(#linear-gradient-5);}.cls-8{fill:url(#linear-gradient-6);}.cls-9{fill:url(#linear-gradient-7);}.cls-10{fill:url(#linear-gradient-8);}</style><linearGradient id="linear-gradient" x1="239.73" y1="43.18" x2="239.73" y2="146.66" gradientUnits="userSpaceOnUse"><stop offset="0" stop-color="#2beda7"/><stop offset="1" stop-color="#018afd"/></linearGradient><linearGradient id="linear-gradient-2" x1="8.62" y1="43.18" x2="8.62" y2="146.67" xlink:href="#linear-gradient"/><linearGradient id="linear-gradient-3" x1="239.73" y1="88.99" x2="239.73" y2="184.59" xlink:href="#linear-gradient"/><linearGradient id="linear-gradient-4" x1="201.79" y1="110.89" x2="201.79" y2="206.49" xlink:href="#linear-gradient"/><linearGradient id="linear-gradient-5" x1="163.84" y1="132.8" x2="163.84" y2="230.39" xlink:href="#linear-gradient"/><linearGradient id="linear-gradient-6" x1="84.52" y1="132.8" x2="84.52" y2="230.39" xlink:href="#linear-gradient"/><linearGradient id="linear-gradient-7" x1="46.58" y1="110.89" x2="46.58" y2="206.49" xlink:href="#linear-gradient"/><linearGradient id="linear-gradient-8" x1="8.63" y1="88.99" x2="8.63" y2="184.59" xlink:href="#linear-gradient"/></defs><title>Asset 15</title><g id="Layer_2" data-name="Layer 2"><g id="Layer_1-2" data-name="Layer 1"><path class="cls-1" d="M300.66,163.58v-97a8.7,8.7,0,0,1,8.7-8.52,8.51,8.51,0,0,1,8.36,8.52v91.06h44.84a7.58,7.58,0,0,1,7.68,7.33,7.76,7.76,0,0,1-7.68,7.67H309.87C303.9,172.61,300.66,169.37,300.66,163.58Z"/><path class="cls-1" d="M403.48,164.94V66.55a8.7,8.7,0,0,1,8.7-8.52,8.51,8.51,0,0,1,8.35,8.52v98.39a8.51,8.51,0,0,1-8.35,8.53A8.7,8.7,0,0,1,403.48,164.94Z"/><path class="cls-1" d="M538.7,169,478.34,85.31v79.63a8.52,8.52,0,0,1-8.36,8.53,8.7,8.7,0,0,1-8.69-8.53V69.28A11.23,11.23,0,0,1,472.54,58a11.07,11.07,0,0,1,9,4.6l59.17,81.51V66.55A8.51,8.51,0,0,1,549.1,58a8.7,8.7,0,0,1,8.7,8.52V162.9a10.63,10.63,0,0,1-10.57,10.57A9.81,9.81,0,0,1,538.7,169Z"/><path class="cls-1" d="M683.47,165.28a8,8,0,0,1-7.85,8.19,7.46,7.46,0,0,1-6-2.39l-43.32-47.57L615.43,135.1v29.84a8.55,8.55,0,0,1-8.52,8.53,8.66,8.66,0,0,1-8.53-8.53V66.55A8.66,8.66,0,0,1,606.91,58a8.55,8.55,0,0,1,8.52,8.52v49.11l50.13-55.07a7.65,7.65,0,0,1,6-2.56,8,8,0,0,1,8,7.84,6.88,6.88,0,0,1-2.22,5.46l-39.56,42.12,43.48,46.38A8.57,8.57,0,0,1,683.47,165.28Z"/><path class="cls-1" d="M717.91,163.58V67.92c0-5.8,3.24-9,9.21-9h60.36a7.75,7.75,0,0,1,7.67,7.67,7.57,7.57,0,0,1-7.67,7.34H735v33.25h51.33a7.57,7.57,0,0,1,7.67,7.33,7.75,7.75,0,0,1-7.67,7.67H735v35.47h52.52a7.57,7.57,0,0,1,7.67,7.33,7.75,7.75,0,0,1-7.67,7.67H727.12C721.15,172.61,717.91,169.37,717.91,163.58Z"/><path class="cls-1" d="M915.71,165.62a8.2,8.2,0,0,1-8,7.85,8.74,8.74,0,0,1-7.16-3.58l-28.47-41.1H848v36.15a8.51,8.51,0,0,1-8.35,8.53,8.7,8.7,0,0,1-8.7-8.53v-97c0-5.8,3.24-9,9.21-9h38.71c21.65,0,36.49,14,36.49,35,0,19.09-11.94,30-25.41,32.73l24,33.77A7.19,7.19,0,0,1,915.71,165.62ZM848,113.79h28.65c12.28,0,21.14-8,21.14-20s-8.86-20-21.14-20H848Z"/><path class="cls-1" d="M951.69,163.58V67.92c0-5.8,3.24-9,9.2-9h31.38c35.47,0,59,24.21,59,57,0,32.91-23.53,56.78-59,56.78H960.89C954.93,172.61,951.69,169.37,951.69,163.58Zm40.58-6c26.26,0,41.43-18.76,41.43-41.78,0-23.36-14.66-41.94-41.43-41.94H968.74v83.72Z"/><polygon class="cls-2" points="231.11 43.18 231.11 136.71 248.35 146.66 248.35 53.14 231.11 43.18"/><polygon class="cls-3" points="0 146.67 17.25 136.71 17.25 43.18 0 53.14 0 146.67"/><polygon class="cls-4" points="84.52 145.75 163.84 191.55 163.84 171.63 89.58 128.76 84.51 131.69 84.52 131.69 84.52 145.75"/><path class="cls-4" d="M168.39,218.08,84.52,169.65v19.92l22.42,12.94L80,218.08a2.71,2.71,0,0,0,0,4.71l13.16,7.6,31-17.92,31,17.92,13.17-7.6A2.71,2.71,0,0,0,168.39,218.08Z"/><path class="cls-5" d="M231.11,99v82.91a2.72,2.72,0,0,0,4.08,2.36L247,177.4a2.69,2.69,0,0,0,1.36-2.35V89Z"/><path class="cls-6" d="M197.24,206.13l11.13-6.43a4.08,4.08,0,0,0,2-3.53V110.89l-17.25,10v82.92A2.73,2.73,0,0,0,197.24,206.13Z"/><path class="cls-7" d="M155.22,230.39l15.89-9.17a2.74,2.74,0,0,0,1.36-2.36V132.8l-17.25,10Z"/><path class="cls-8" d="M77.26,221.22l15.88,9.17V142.76l-17.24-10v86.06A2.74,2.74,0,0,0,77.26,221.22Z"/><path class="cls-9" d="M40,199.7l11.13,6.43a2.73,2.73,0,0,0,4.08-2.36V120.85L38,110.89v85.28A4.08,4.08,0,0,0,40,199.7Z"/><path class="cls-10" d="M2.05,177.8l11.13,6.42a2.72,2.72,0,0,0,4.08-2.36V99L0,89v85.27A4.09,4.09,0,0,0,2.05,177.8Z"/><path class="cls-4" d="M248.35,53.14l-17.25-10-31,17.93-20.68-12,27-15.57a2.72,2.72,0,0,0,0-4.71l-11.13-6.42a4.07,4.07,0,0,0-4.08,0l-29,16.74L141.44,27.26l27-15.57a2.71,2.71,0,0,0,0-4.71L157.27.56a4.07,4.07,0,0,0-4.08,0l-29,16.74L95.18.55a4.07,4.07,0,0,0-4.08,0L80,7a2.71,2.71,0,0,0,0,4.71L231.1,98.94l17.25-10-31-17.93Z"/><path class="cls-4" d="M53.15,22.45,42,28.88a2.72,2.72,0,0,0,0,4.71l151.14,87.26,17.25-10L57.23,22.45A4.12,4.12,0,0,0,53.15,22.45Z"/><polygon class="cls-4" points="0 53.14 31.06 71.07 0.02 89 17.27 98.95 48.31 81.03 69 92.98 37.95 110.9 55.2 120.86 86.24 102.93 106.93 114.88 75.89 132.8 93.14 142.76 124.17 124.84 155.22 142.76 172.47 132.8 17.25 43.18 0 53.14"/></g></g></svg>