<?xml version="1.0" encoding="utf-8"?>
<!-- Generator: Adobe Illustrator 22.0.1, SVG Export Plug-In . SVG Version: 6.00 Build 0)  -->
<svg version="1.1" xmlns="http://www.w3.org/2000/svg" xmlns:xlink="http://www.w3.org/1999/xlink" x="0px" y="0px"
	 viewBox="0 0 579 468" style="enable-background:new 0 0 579 468;" xml:space="preserve">
<style type="text/css">
	.st0{fill:#FF576B;}
	.st1{fill:#6D6E71;}
	.st2{fill:#FFFFFF;}
	.st3{fill:url(#SVGID_1_);}
	.st4{fill:url(#SVGID_2_);}
	.st5{fill:#2BEDA7;}
	.st6{fill:url(#SVGID_3_);}
	.st7{fill:url(#SVGID_4_);}
	.st8{fill:url(#SVGID_5_);}
	.st9{fill:url(#SVGID_6_);}
	.st10{fill:url(#SVGID_7_);}
	.st11{fill:url(#SVGID_8_);}
	.st12{fill:url(#SVGID_9_);}
	.st13{fill:url(#SVGID_10_);}
	.st14{fill:url(#SVGID_11_);}
	.st15{fill:url(#SVGID_12_);}
	.st16{fill:url(#SVGID_13_);}
	.st17{fill:url(#SVGID_14_);}
	.st18{fill:url(#SVGID_15_);}
	.st19{fill:url(#SVGID_16_);}
	.st20{fill:url(#SVGID_17_);}
	.st21{fill:url(#SVGID_18_);}
	.st22{fill:url(#SVGID_19_);}
	.st23{fill:url(#SVGID_20_);}
	.st24{fill:url(#SVGID_21_);}
	.st25{fill:url(#SVGID_22_);}
	.st26{fill:url(#SVGID_23_);}
	.st27{fill:url(#SVGID_24_);}
	.st28{filter:url(#Adobe_OpacityMaskFilter);}
	.st29{mask:url(#mask-2_6_);}
	.st30{fill:#018AFD;}
	.st31{fill:#00A2FD;}
	.st32{fill:#06C0FD;}
	.st33{fill:#03B5FD;}
	.st34{fill:#0074FD;}
	.st35{fill:#005CFD;}
	.st36{filter:url(#Adobe_OpacityMaskFilter_1_);}
	.st37{mask:url(#mask-4_6_);fill:#003CFD;}
	.st38{fill:#0E13FD;}
	.st39{filter:url(#Adobe_OpacityMaskFilter_2_);}
	.st40{mask:url(#mask-2_5_);fill:#FFFFFF;}
	.st41{filter:url(#Adobe_OpacityMaskFilter_3_);}
	.st42{mask:url(#mask-4_5_);fill:#003CFD;}
	.st43{filter:url(#Adobe_OpacityMaskFilter_4_);}
	.st44{mask:url(#mask-2_1_);fill:#FFFFFF;}
	.st45{filter:url(#Adobe_OpacityMaskFilter_5_);}
	.st46{mask:url(#mask-4_4_);fill:#FFFFFF;}
	.st47{fill:#018BFE;}
	.st48{fill:#02C2FE;}
	.st49{fill:#04B6FE;}
	.st50{fill:#0095FE;}
	.st51{fill:#0074FE;}
	.st52{fill:#005CFE;}
	.st53{fill:#003DFE;}
	.st54{fill:#0E13FE;}
	.st55{filter:url(#Adobe_OpacityMaskFilter_6_);}
	.st56{mask:url(#mask-2_7_);}
	.st57{filter:url(#Adobe_OpacityMaskFilter_7_);}
	.st58{mask:url(#mask-2_2_);fill:#FFFFFF;}
	.st59{filter:url(#Adobe_OpacityMaskFilter_8_);}
	.st60{mask:url(#mask-4_3_);fill:#003CFD;}
	.st61{filter:url(#Adobe_OpacityMaskFilter_9_);}
	.st62{mask:url(#mask-4_7_);fill:#003CFD;}
	.st63{filter:url(#Adobe_OpacityMaskFilter_10_);}
	.st64{mask:url(#mask-4_1_);fill:#003CFD;}
	.st65{fill:url(#SVGID_25_);}
	.st66{fill:url(#SVGID_26_);}
	.st67{fill:url(#SVGID_27_);}
	.st68{fill:url(#SVGID_28_);}
	.st69{fill:url(#SVGID_29_);}
	.st70{fill:url(#SVGID_30_);}
	.st71{fill:url(#SVGID_31_);}
	.st72{fill:url(#SVGID_32_);}
	.st73{fill:url(#SVGID_33_);}
	.st74{fill:url(#SVGID_34_);}
	.st75{fill:url(#SVGID_35_);}
	.st76{fill:url(#SVGID_36_);}
	.st77{fill:url(#SVGID_37_);}
	.st78{fill:url(#SVGID_38_);}
	.st79{fill:url(#SVGID_39_);}
	.st80{fill:url(#SVGID_40_);}
	.st81{fill:url(#SVGID_41_);}
	.st82{fill:url(#SVGID_42_);}
	.st83{fill:url(#SVGID_43_);}
	.st84{fill:url(#SVGID_44_);}
	.st85{fill:url(#SVGID_45_);}
	.st86{fill:url(#SVGID_46_);}
	.st87{fill:url(#SVGID_47_);}
	.st88{fill:url(#SVGID_48_);}
	.st89{fill:url(#SVGID_49_);}
	.st90{fill:url(#SVGID_50_);}
	.st91{fill:url(#SVGID_51_);}
	.st92{fill:url(#SVGID_52_);}
	.st93{fill:url(#SVGID_53_);}
	.st94{fill:url(#SVGID_54_);}
	.st95{fill:url(#SVGID_55_);}
	.st96{fill:url(#SVGID_56_);}
	.st97{fill:url(#SVGID_57_);}
	.st98{fill:url(#SVGID_58_);}
	.st99{fill:url(#SVGID_59_);}
	.st100{fill:url(#SVGID_60_);}
	.st101{fill:url(#SVGID_61_);}
	.st102{fill:url(#SVGID_62_);}
	.st103{fill:url(#SVGID_63_);}
	.st104{fill:url(#SVGID_64_);}
	.st105{display:none;}
	.st106{display:inline;}
</style>
<g id="Layer_1">
	<g>
		<path d="M0,460v-79.1c0-3.8,3.2-7,7.1-7c3.8,0,6.8,3.2,6.8,7v74.3h36.6c3.3,0,6.3,2.6,6.3,6c0,3.5-2.9,6.3-6.3,6.3h-43
			C2.6,467.3,0,464.7,0,460z"/>
		<path d="M78.3,461.1v-80.3c0-3.8,3.2-7,7.1-7c3.8,0,6.8,3.2,6.8,7v80.3c0,3.8-3.1,7-6.8,7C81.5,468,78.3,464.8,78.3,461.1z"/>
		<path d="M183.1,464.4l-49.2-68.3v65c0,3.8-3.1,7-6.8,7c-3.9,0-7.1-3.2-7.1-7v-78c0-5,4-9.2,9.2-9.2c2.9,0,5.7,1.4,7.4,3.8
			l48.3,66.5v-63.3c0-3.8,3.1-7,6.8-7c3.9,0,7.1,3.2,7.1,7v78.6c0,4.7-3.9,8.6-8.6,8.6C187.1,468,184.6,466.8,183.1,464.4z"/>
		<path d="M295.6,461.4c0,3.6-2.8,6.7-6.4,6.7c-1.8,0-3.5-0.4-4.9-1.9L249,427.3l-8.9,9.5v24.3c0,3.8-3.1,7-7,7c-3.8,0-7-3.2-7-7
			v-80.3c0-3.8,3.2-7,7-7c3.9,0,7,3.2,7,7v40.1L281,376c1.4-1.5,3.1-2.1,4.9-2.1c3.5,0,6.5,2.8,6.5,6.4c0,1.7-0.4,3.2-1.8,4.5
			l-32.3,34.4l35.5,37.8C294.9,458.2,295.6,459.8,295.6,461.4z"/>
		<path d="M318.2,460v-78c0-4.7,2.6-7.4,7.5-7.4h49.2c3.3,0,6.3,2.8,6.3,6.3c0,3.3-2.9,6-6.3,6h-42.8v27.1H374c3.3,0,6.3,2.6,6.3,6
			c0,3.5-2.9,6.3-6.3,6.3h-41.9v28.9h42.8c3.3,0,6.3,2.6,6.3,6c0,3.5-2.9,6.3-6.3,6.3h-49.2C320.8,467.3,318.2,464.7,318.2,460z"/>
		<path d="M474,461.6c0,2.9-2.6,6.4-6.5,6.4c-2.4,0-4.6-1.1-5.8-2.9l-23.2-33.5h-19.6v29.5c0,3.8-3.1,7-6.8,7c-3.9,0-7.1-3.2-7.1-7
			v-79.1c0-4.7,2.6-7.4,7.5-7.4h31.6c17.7,0,29.8,11.4,29.8,28.5c0,15.6-9.7,24.5-20.7,26.7l19.6,27.5
			C473.4,458.3,474,459.4,474,461.6z M418.8,419.4h23.4c10,0,17.3-6.5,17.3-16.3c0-9.7-7.2-16.3-17.3-16.3h-23.4V419.4z"/>
		<path d="M497.8,460v-78c0-4.7,2.6-7.4,7.5-7.4h25.6c28.9,0,48.1,19.8,48.1,46.5c0,26.8-19.2,46.3-48.1,46.3h-25.6
			C500.4,467.3,497.8,464.7,497.8,460z M530.9,455.1c21.4,0,33.8-15.3,33.8-34.1c0-19.1-12-34.2-33.8-34.2h-19.2v68.3H530.9z"/>
	</g>
	<g>
		<g>
			<linearGradient id="SVGID_1_" gradientUnits="userSpaceOnUse" x1="431.9167" y1="52.6837" x2="431.9167" y2="178.9455">
				<stop  offset="0" style="stop-color:#2BEDA7"/>
				<stop  offset="1" style="stop-color:#018AFD"/>
			</linearGradient>
			<polygon class="st3" points="421.4,52.7 421.4,166.8 442.4,178.9 442.4,64.8 			"/>
			<linearGradient id="SVGID_2_" gradientUnits="userSpaceOnUse" x1="149.9374" y1="52.6868" x2="149.9374" y2="178.9529">
				<stop  offset="0" style="stop-color:#2BEDA7"/>
				<stop  offset="1" style="stop-color:#018AFD"/>
			</linearGradient>
			<polygon class="st4" points="139.4,179 160.5,166.8 160.5,52.7 139.4,64.8 			"/>
		</g>
		<g>
			<polygon class="st5" points="242.5,177.8 339.3,233.7 339.3,209.4 248.7,157.1 242.5,160.7 242.5,160.7 			"/>
			<path class="st5" d="M344.9,266.1L242.5,207v24.3l27.4,15.8l-32.9,19c-2.2,1.3-2.2,4.5,0,5.7l16.1,9.3l37.9-21.9l37.9,21.9
				l16.1-9.3C347.1,270.6,347.1,267.4,344.9,266.1z"/>
		</g>
		<g>
			<linearGradient id="SVGID_3_" gradientUnits="userSpaceOnUse" x1="431.9167" y1="108.5768" x2="431.9167" y2="225.2209">
				<stop  offset="0" style="stop-color:#2BEDA7"/>
				<stop  offset="1" style="stop-color:#018AFD"/>
			</linearGradient>
			<path class="st6" d="M421.4,120.7v101.2c0,2.6,2.8,4.2,5,2.9l14.4-8.3c1-0.6,1.7-1.7,1.7-2.9v-105L421.4,120.7z"/>
			<linearGradient id="SVGID_4_" gradientUnits="userSpaceOnUse" x1="385.6199" y1="135.3056" x2="385.6199" y2="251.9496">
				<stop  offset="0" style="stop-color:#2BEDA7"/>
				<stop  offset="1" style="stop-color:#018AFD"/>
			</linearGradient>
			<path class="st7" d="M380.1,251.5l13.6-7.8c1.5-0.9,2.5-2.5,2.5-4.3v-104l-21,12.1v101.2C375.1,251.2,377.9,252.8,380.1,251.5z"
				/>
			<linearGradient id="SVGID_5_" gradientUnits="userSpaceOnUse" x1="339.3236" y1="162.0327" x2="339.3236" y2="281.1039">
				<stop  offset="0" style="stop-color:#2BEDA7"/>
				<stop  offset="1" style="stop-color:#018AFD"/>
			</linearGradient>
			<path class="st8" d="M328.8,281.1l19.4-11.2c1-0.6,1.7-1.7,1.7-2.9V162l-21,12.2V281.1z"/>
			<linearGradient id="SVGID_6_" gradientUnits="userSpaceOnUse" x1="242.541" y1="162.0329" x2="242.541" y2="281.1021">
				<stop  offset="0" style="stop-color:#2BEDA7"/>
				<stop  offset="1" style="stop-color:#018AFD"/>
			</linearGradient>
			<path class="st9" d="M233.7,269.9l19.4,11.2V174.2L232,162v105C232,268.2,232.7,269.3,233.7,269.9z"/>
			<linearGradient id="SVGID_7_" gradientUnits="userSpaceOnUse" x1="196.2449" y1="135.3048" x2="196.2449" y2="251.9493">
				<stop  offset="0" style="stop-color:#2BEDA7"/>
				<stop  offset="1" style="stop-color:#018AFD"/>
			</linearGradient>
			<path class="st10" d="M188.2,243.7l13.6,7.8c2.2,1.3,5-0.3,5-2.9V147.5l-21-12.2v104C185.7,241.1,186.7,242.8,188.2,243.7z"/>
			<linearGradient id="SVGID_8_" gradientUnits="userSpaceOnUse" x1="149.9487" y1="108.5749" x2="149.9487" y2="225.2194">
				<stop  offset="0" style="stop-color:#2BEDA7"/>
				<stop  offset="1" style="stop-color:#018AFD"/>
			</linearGradient>
			<path class="st11" d="M141.9,216.9l13.6,7.8c2.2,1.3,5-0.3,5-2.9V120.7l-21-12.2v104C139.4,214.4,140.4,216,141.9,216.9z"/>
		</g>
		<g>
			<path class="st5" d="M442.4,64.8l-21-12.1l-37.9,21.9L358.3,60l32.9-19c2.2-1.3,2.2-4.5,0-5.7l-13.6-7.8c-1.5-0.9-3.4-0.9-5,0
				l-35.4,20.4L312,33.3l32.9-19c2.2-1.3,2.2-4.5,0-5.7l-13.6-7.8c-1.5-0.9-3.4-0.9-5,0l-35.4,20.4L255.5,0.7c-1.5-0.9-3.4-0.9-5,0
				L237,8.5c-2.2,1.3-2.2,4.5,0,5.7l184.4,106.5l21-12.1l-37.9-21.9L442.4,64.8z"/>
			<path class="st5" d="M204.3,27.4l-13.6,7.8c-2.2,1.3-2.2,4.5,0,5.7l184.4,106.5l21-12.1L209.2,27.4
				C207.7,26.5,205.8,26.5,204.3,27.4z"/>
			<polygon class="st5" points="139.4,64.8 177.3,86.7 139.4,108.6 160.5,120.7 198.4,98.9 223.6,113.4 185.7,135.3 206.8,147.5 
				244.6,125.6 269.9,140.2 232,162 253.1,174.2 290.9,152.3 328.8,174.2 349.8,162 160.5,52.7 			"/>
		</g>
	</g>
</g>
<g id="nyt_x5F_exporter_x5F_info" class="st105">
</g>
</svg>
