<?xml version="1.0" encoding="utf-8"?>
<!-- Generator: Adobe Illustrator 22.0.1, SVG Export Plug-In . SVG Version: 6.00 Build 0)  -->
<svg version="1.1" xmlns="http://www.w3.org/2000/svg" xmlns:xlink="http://www.w3.org/1999/xlink" x="0px" y="0px"
	 viewBox="0 0 635.5 511.6" style="enable-background:new 0 0 635.5 511.6;" xml:space="preserve">
<style type="text/css">
	.st0{fill:#FF576B;}
	.st1{fill:#6D6E71;}
	.st2{fill:#FFFFFF;}
	.st3{fill:url(#SVGID_1_);}
	.st4{fill:url(#SVGID_2_);}
	.st5{fill:#2BEDA7;}
	.st6{fill:url(#SVGID_3_);}
	.st7{fill:url(#SVGID_4_);}
	.st8{fill:url(#SVGID_5_);}
	.st9{fill:url(#SVGID_6_);}
	.st10{fill:url(#SVGID_7_);}
	.st11{fill:url(#SVGID_8_);}
	.st12{fill:url(#SVGID_9_);}
	.st13{fill:url(#SVGID_10_);}
	.st14{fill:url(#SVGID_11_);}
	.st15{fill:url(#SVGID_12_);}
	.st16{fill:url(#SVGID_13_);}
	.st17{fill:url(#SVGID_14_);}
	.st18{fill:url(#SVGID_15_);}
	.st19{fill:url(#SVGID_16_);}
	.st20{fill:url(#SVGID_17_);}
	.st21{fill:url(#SVGID_18_);}
	.st22{fill:url(#SVGID_19_);}
	.st23{fill:url(#SVGID_20_);}
	.st24{fill:url(#SVGID_21_);}
	.st25{fill:url(#SVGID_22_);}
	.st26{fill:url(#SVGID_23_);}
	.st27{fill:url(#SVGID_24_);}
	.st28{filter:url(#Adobe_OpacityMaskFilter);}
	.st29{mask:url(#mask-2_6_);}
	.st30{fill:#018AFD;}
	.st31{fill:#00A2FD;}
	.st32{fill:#06C0FD;}
	.st33{fill:#03B5FD;}
	.st34{fill:#0074FD;}
	.st35{fill:#005CFD;}
	.st36{filter:url(#Adobe_OpacityMaskFilter_1_);}
	.st37{mask:url(#mask-4_6_);fill:#003CFD;}
	.st38{fill:#0E13FD;}
	.st39{filter:url(#Adobe_OpacityMaskFilter_2_);}
	.st40{mask:url(#mask-2_5_);fill:#FFFFFF;}
	.st41{filter:url(#Adobe_OpacityMaskFilter_3_);}
	.st42{mask:url(#mask-4_5_);fill:#003CFD;}
	.st43{filter:url(#Adobe_OpacityMaskFilter_4_);}
	.st44{mask:url(#mask-2_1_);fill:#FFFFFF;}
	.st45{filter:url(#Adobe_OpacityMaskFilter_5_);}
	.st46{mask:url(#mask-4_4_);fill:#FFFFFF;}
	.st47{fill:#018BFE;}
	.st48{fill:#02C2FE;}
	.st49{fill:#04B6FE;}
	.st50{fill:#0095FE;}
	.st51{fill:#0074FE;}
	.st52{fill:#005CFE;}
	.st53{fill:#003DFE;}
	.st54{fill:#0E13FE;}
	.st55{filter:url(#Adobe_OpacityMaskFilter_6_);}
	.st56{mask:url(#mask-2_7_);}
	.st57{filter:url(#Adobe_OpacityMaskFilter_7_);}
	.st58{mask:url(#mask-2_2_);fill:#FFFFFF;}
	.st59{filter:url(#Adobe_OpacityMaskFilter_8_);}
	.st60{mask:url(#mask-4_3_);fill:#003CFD;}
	.st61{filter:url(#Adobe_OpacityMaskFilter_9_);}
	.st62{mask:url(#mask-4_7_);fill:#003CFD;}
	.st63{filter:url(#Adobe_OpacityMaskFilter_10_);}
	.st64{mask:url(#mask-4_1_);fill:#003CFD;}
	.st65{fill:url(#SVGID_25_);}
	.st66{fill:url(#SVGID_26_);}
	.st67{fill:url(#SVGID_27_);}
	.st68{fill:url(#SVGID_28_);}
	.st69{fill:url(#SVGID_29_);}
	.st70{fill:url(#SVGID_30_);}
	.st71{fill:url(#SVGID_31_);}
	.st72{fill:url(#SVGID_32_);}
	.st73{fill:url(#SVGID_33_);}
	.st74{fill:url(#SVGID_34_);}
	.st75{fill:url(#SVGID_35_);}
	.st76{fill:url(#SVGID_36_);}
	.st77{fill:url(#SVGID_37_);}
	.st78{fill:url(#SVGID_38_);}
	.st79{fill:url(#SVGID_39_);}
	.st80{fill:url(#SVGID_40_);}
	.st81{fill:url(#SVGID_41_);}
	.st82{fill:url(#SVGID_42_);}
	.st83{fill:url(#SVGID_43_);}
	.st84{fill:url(#SVGID_44_);}
	.st85{fill:url(#SVGID_45_);}
	.st86{fill:url(#SVGID_46_);}
	.st87{fill:url(#SVGID_47_);}
	.st88{fill:url(#SVGID_48_);}
	.st89{fill:url(#SVGID_49_);}
	.st90{fill:url(#SVGID_50_);}
	.st91{fill:url(#SVGID_51_);}
	.st92{fill:url(#SVGID_52_);}
	.st93{fill:url(#SVGID_53_);}
	.st94{fill:url(#SVGID_54_);}
	.st95{fill:url(#SVGID_55_);}
	.st96{fill:url(#SVGID_56_);}
	.st97{fill:url(#SVGID_57_);}
	.st98{fill:url(#SVGID_58_);}
	.st99{fill:url(#SVGID_59_);}
	.st100{fill:url(#SVGID_60_);}
	.st101{fill:url(#SVGID_61_);}
	.st102{fill:url(#SVGID_62_);}
	.st103{fill:url(#SVGID_63_);}
	.st104{fill:url(#SVGID_64_);}
	.st105{display:none;}
	.st106{display:inline;}
</style>
<g id="Layer_1">
	<g>
		<g>
			<path class="st2" d="M12.2,501.7V418c0-4,3.4-7.4,7.5-7.4c4,0,7.2,3.4,7.2,7.4v78.6h38.7c3.5,0,6.6,2.8,6.6,6.3
				c0,3.7-3.1,6.6-6.6,6.6H20.1C15,509.5,12.2,506.7,12.2,501.7z"/>
			<path class="st2" d="M95,502.9V418c0-4,3.4-7.4,7.5-7.4c4,0,7.2,3.4,7.2,7.4v84.9c0,4-3.2,7.4-7.2,7.4
				C98.4,510.2,95,506.9,95,502.9z"/>
			<path class="st2" d="M205.8,506.4l-52.1-72.2v68.7c0,4-3.2,7.4-7.2,7.4c-4.1,0-7.5-3.4-7.5-7.4v-82.5c0-5.3,4.3-9.7,9.7-9.7
				c3.1,0,6,1.5,7.8,4l51.1,70.3V418c0-4,3.2-7.4,7.2-7.4c4.1,0,7.5,3.4,7.5,7.4v83.1c0,5-4.1,9.1-9.1,9.1
				C210.1,510.2,207.4,508.9,205.8,506.4z"/>
			<path class="st2" d="M324.9,503.2c0,3.8-2.9,7.1-6.8,7.1c-1.9,0-3.7-0.4-5.2-2.1l-37.4-41l-9.4,10v25.7c0,4-3.2,7.4-7.4,7.4
				c-4,0-7.4-3.4-7.4-7.4V418c0-4,3.4-7.4,7.4-7.4c4.1,0,7.4,3.4,7.4,7.4v42.4l43.3-47.5c1.5-1.6,3.2-2.2,5.1-2.2
				c3.7,0,6.9,2.9,6.9,6.8c0,1.8-0.4,3.4-1.9,4.7l-34.1,36.3l37.5,40C324.1,499.8,324.9,501.6,324.9,503.2z"/>
			<path class="st2" d="M348.7,501.7v-82.5c0-5,2.8-7.8,7.9-7.8h52.1c3.5,0,6.6,2.9,6.6,6.6c0,3.5-3.1,6.3-6.6,6.3h-45.3V453h44.3
				c3.5,0,6.6,2.8,6.6,6.3c0,3.7-3.1,6.6-6.6,6.6h-44.3v30.6h45.3c3.5,0,6.6,2.8,6.6,6.3c0,3.7-3.1,6.6-6.6,6.6h-52.1
				C351.5,509.5,348.7,506.7,348.7,501.7z"/>
			<path class="st2" d="M513.5,503.5c0,3.1-2.8,6.8-6.9,6.8c-2.5,0-4.9-1.2-6.2-3.1l-24.6-35.5h-20.7v31.2c0,4-3.2,7.4-7.2,7.4
				c-4.1,0-7.5-3.4-7.5-7.4v-83.7c0-5,2.8-7.8,7.9-7.8h33.4c18.7,0,31.5,12.1,31.5,30.2c0,16.5-10.3,25.9-21.9,28.2l20.7,29.1
				C512.9,500,513.5,501.1,513.5,503.5z M455.1,458.8h24.7c10.6,0,18.2-6.9,18.2-17.2c0-10.3-7.7-17.2-18.2-17.2h-24.7V458.8z"/>
			<path class="st2" d="M538.7,501.7v-82.5c0-5,2.8-7.8,7.9-7.8h27.1c30.6,0,50.9,20.9,50.9,49.1c0,28.4-20.3,49-50.9,49h-27.1
				C541.5,509.5,538.7,506.7,538.7,501.7z M573.7,496.6c22.7,0,35.8-16.2,35.8-36c0-20.2-12.7-36.2-35.8-36.2h-20.3v72.2H573.7z"/>
		</g>
		<g>
			<g>
				<linearGradient id="SVGID_1_" gradientUnits="userSpaceOnUse" x1="469.0223" y1="70.896" x2="469.0223" y2="204.4509">
					<stop  offset="0" style="stop-color:#2BEDA7"/>
					<stop  offset="1" style="stop-color:#018AFD"/>
				</linearGradient>
				<polygon class="st3" points="457.9,70.9 457.9,191.6 480.2,204.5 480.2,83.8 				"/>
				<linearGradient id="SVGID_2_" gradientUnits="userSpaceOnUse" x1="170.7554" y1="70.8993" x2="170.7554" y2="204.4587">
					<stop  offset="0" style="stop-color:#2BEDA7"/>
					<stop  offset="1" style="stop-color:#018AFD"/>
				</linearGradient>
				<polygon class="st4" points="159.6,204.5 181.9,191.6 181.9,70.9 159.6,83.8 				"/>
			</g>
			<g>
				<polygon class="st5" points="268.7,203.3 371.1,262.4 371.1,236.7 275.2,181.3 268.7,185.1 268.7,185.1 				"/>
				<path class="st5" d="M377,296.6l-108.2-62.5v25.7l28.9,16.7l-34.8,20.1c-2.3,1.4-2.3,4.7,0,6.1l17,9.8l40.1-23.1l40.1,23.1
					l17-9.8C379.3,301.3,379.3,298,377,296.6z"/>
			</g>
			<g>
				<linearGradient id="SVGID_3_" gradientUnits="userSpaceOnUse" x1="469.0223" y1="130.0176" x2="469.0223" y2="253.3992">
					<stop  offset="0" style="stop-color:#2BEDA7"/>
					<stop  offset="1" style="stop-color:#018AFD"/>
				</linearGradient>
				<path class="st6" d="M457.9,142.9v107c0,2.7,2.9,4.4,5.3,3l15.2-8.8c1.1-0.6,1.8-1.8,1.8-3V130L457.9,142.9z"/>
				<linearGradient id="SVGID_4_" gradientUnits="userSpaceOnUse" x1="420.0513" y1="158.2903" x2="420.0513" y2="281.6718">
					<stop  offset="0" style="stop-color:#2BEDA7"/>
					<stop  offset="1" style="stop-color:#018AFD"/>
				</linearGradient>
				<path class="st7" d="M414.2,281.2l14.4-8.3c1.6-0.9,2.6-2.7,2.6-4.6V158.3l-22.3,12.9v107C408.9,280.9,411.8,282.5,414.2,281.2z
					"/>
				<linearGradient id="SVGID_5_" gradientUnits="userSpaceOnUse" x1="371.0809" y1="186.5612" x2="371.0809" y2="312.5101">
					<stop  offset="0" style="stop-color:#2BEDA7"/>
					<stop  offset="1" style="stop-color:#018AFD"/>
				</linearGradient>
				<path class="st8" d="M360,312.5l20.5-11.8c1.1-0.6,1.8-1.8,1.8-3V186.6L360,199.4V312.5z"/>
				<linearGradient id="SVGID_6_" gradientUnits="userSpaceOnUse" x1="268.7079" y1="186.5614" x2="268.7079" y2="312.5082">
					<stop  offset="0" style="stop-color:#2BEDA7"/>
					<stop  offset="1" style="stop-color:#018AFD"/>
				</linearGradient>
				<path class="st9" d="M259.3,300.7l20.5,11.8V199.4l-22.3-12.9v111.1C257.6,298.9,258.2,300,259.3,300.7z"/>
				<linearGradient id="SVGID_7_" gradientUnits="userSpaceOnUse" x1="219.7378" y1="158.2894" x2="219.7378" y2="281.6715">
					<stop  offset="0" style="stop-color:#2BEDA7"/>
					<stop  offset="1" style="stop-color:#018AFD"/>
				</linearGradient>
				<path class="st10" d="M211.2,272.9l14.4,8.3c2.3,1.4,5.3-0.3,5.3-3v-107l-22.3-12.9v110.1C208.6,270.2,209.6,272,211.2,272.9z"
					/>
				<linearGradient id="SVGID_8_" gradientUnits="userSpaceOnUse" x1="170.7674" y1="130.0156" x2="170.7674" y2="253.3977">
					<stop  offset="0" style="stop-color:#2BEDA7"/>
					<stop  offset="1" style="stop-color:#018AFD"/>
				</linearGradient>
				<path class="st11" d="M162.3,244.6l14.4,8.3c2.3,1.4,5.3-0.3,5.3-3v-107L159.6,130v110.1C159.6,242,160.6,243.7,162.3,244.6z"/>
			</g>
			<g>
				<path class="st5" d="M480.2,83.8l-22.3-12.8L417.8,94l-26.7-15.4l34.8-20.1c2.3-1.4,2.3-4.7,0-6.1l-14.4-8.3
					c-1.6-0.9-3.6-0.9-5.3,0l-37.4,21.6l-26.7-15.4L377,30.3c2.3-1.4,2.3-4.7,0-6.1l-14.4-8.3c-1.6-0.9-3.6-0.9-5.3,0l-37.4,21.6
					l-37.5-21.6c-1.6-0.9-3.6-0.9-5.3,0l-14.4,8.3c-2.3,1.4-2.3,4.7,0,6.1l195.1,112.6l22.3-12.9l-40.1-23.1L480.2,83.8z"/>
				<path class="st5" d="M228.2,44.1l-14.4,8.3c-2.3,1.4-2.3,4.7,0,6.1l195.1,112.6l22.3-12.9L233.5,44.1
					C231.9,43.2,229.9,43.2,228.2,44.1z"/>
				<polygon class="st5" points="159.6,83.8 199.7,106.9 159.6,130 181.9,142.9 222,119.7 248.7,135.2 208.6,158.3 230.9,171.1 
					270.9,148 297.6,163.4 257.6,186.6 279.8,199.4 319.9,176.3 359.9,199.4 382.2,186.6 181.9,70.9 				"/>
			</g>
		</g>
	</g>
</g>
<g id="nyt_x5F_exporter_x5F_info" class="st105">
</g>
</svg>
