<?xml version="1.0" encoding="utf-8"?>
<!-- Generator: Adobe Illustrator 22.0.1, SVG Export Plug-In . SVG Version: 6.00 Build 0)  -->
<svg version="1.1" xmlns="http://www.w3.org/2000/svg" xmlns:xlink="http://www.w3.org/1999/xlink" x="0px" y="0px"
	 viewBox="0 0 512 512" style="enable-background:new 0 0 512 512;" xml:space="preserve">
<style type="text/css">
	.st0{fill:#FF576B;}
	.st1{fill:#6D6E71;}
	.st2{fill:#FFFFFF;}
	.st3{fill:url(#SVGID_1_);}
	.st4{fill:url(#SVGID_2_);}
	.st5{fill:#2BEDA7;}
	.st6{fill:url(#SVGID_3_);}
	.st7{fill:url(#SVGID_4_);}
	.st8{fill:url(#SVGID_5_);}
	.st9{fill:url(#SVGID_6_);}
	.st10{fill:url(#SVGID_7_);}
	.st11{fill:url(#SVGID_8_);}
	.st12{fill:url(#SVGID_9_);}
	.st13{fill:url(#SVGID_10_);}
	.st14{fill:url(#SVGID_11_);}
	.st15{fill:url(#SVGID_12_);}
	.st16{fill:url(#SVGID_13_);}
	.st17{fill:url(#SVGID_14_);}
	.st18{fill:url(#SVGID_15_);}
	.st19{fill:url(#SVGID_16_);}
	.st20{fill:url(#SVGID_17_);}
	.st21{fill:url(#SVGID_18_);}
	.st22{fill:url(#SVGID_19_);}
	.st23{fill:url(#SVGID_20_);}
	.st24{fill:url(#SVGID_21_);}
	.st25{fill:url(#SVGID_22_);}
	.st26{fill:url(#SVGID_23_);}
	.st27{fill:url(#SVGID_24_);}
	.st28{filter:url(#Adobe_OpacityMaskFilter);}
	.st29{mask:url(#mask-2_6_);}
	.st30{fill:#018AFD;}
	.st31{fill:#00A2FD;}
	.st32{fill:#06C0FD;}
	.st33{fill:#03B5FD;}
	.st34{fill:#0074FD;}
	.st35{fill:#005CFD;}
	.st36{filter:url(#Adobe_OpacityMaskFilter_1_);}
	.st37{mask:url(#mask-4_6_);fill:#003CFD;}
	.st38{fill:#0E13FD;}
	.st39{filter:url(#Adobe_OpacityMaskFilter_2_);}
	.st40{mask:url(#mask-2_5_);fill:#FFFFFF;}
	.st41{filter:url(#Adobe_OpacityMaskFilter_3_);}
	.st42{mask:url(#mask-4_5_);fill:#003CFD;}
	.st43{filter:url(#Adobe_OpacityMaskFilter_4_);}
	.st44{mask:url(#mask-2_1_);fill:#FFFFFF;}
	.st45{filter:url(#Adobe_OpacityMaskFilter_5_);}
	.st46{mask:url(#mask-4_4_);fill:#FFFFFF;}
	.st47{fill:#018BFE;}
	.st48{fill:#02C2FE;}
	.st49{fill:#04B6FE;}
	.st50{fill:#0095FE;}
	.st51{fill:#0074FE;}
	.st52{fill:#005CFE;}
	.st53{fill:#003DFE;}
	.st54{fill:#0E13FE;}
	.st55{filter:url(#Adobe_OpacityMaskFilter_6_);}
	.st56{mask:url(#mask-2_7_);}
	.st57{filter:url(#Adobe_OpacityMaskFilter_7_);}
	.st58{mask:url(#mask-2_2_);fill:#FFFFFF;}
	.st59{filter:url(#Adobe_OpacityMaskFilter_8_);}
	.st60{mask:url(#mask-4_3_);fill:#003CFD;}
	.st61{filter:url(#Adobe_OpacityMaskFilter_9_);}
	.st62{mask:url(#mask-4_7_);fill:#003CFD;}
	.st63{filter:url(#Adobe_OpacityMaskFilter_10_);}
	.st64{mask:url(#mask-4_1_);fill:#003CFD;}
	.st65{fill:url(#SVGID_25_);}
	.st66{fill:url(#SVGID_26_);}
	.st67{fill:url(#SVGID_27_);}
	.st68{fill:url(#SVGID_28_);}
	.st69{fill:url(#SVGID_29_);}
	.st70{fill:url(#SVGID_30_);}
	.st71{fill:url(#SVGID_31_);}
	.st72{fill:url(#SVGID_32_);}
	.st73{fill:url(#SVGID_33_);}
	.st74{fill:url(#SVGID_34_);}
	.st75{fill:url(#SVGID_35_);}
	.st76{fill:url(#SVGID_36_);}
	.st77{fill:url(#SVGID_37_);}
	.st78{fill:url(#SVGID_38_);}
	.st79{fill:url(#SVGID_39_);}
	.st80{fill:url(#SVGID_40_);}
	.st81{fill:url(#SVGID_41_);}
	.st82{fill:url(#SVGID_42_);}
	.st83{fill:url(#SVGID_43_);}
	.st84{fill:url(#SVGID_44_);}
	.st85{fill:url(#SVGID_45_);}
	.st86{fill:url(#SVGID_46_);}
	.st87{fill:url(#SVGID_47_);}
	.st88{fill:url(#SVGID_48_);}
	.st89{fill:url(#SVGID_49_);}
	.st90{fill:url(#SVGID_50_);}
	.st91{fill:url(#SVGID_51_);}
	.st92{fill:url(#SVGID_52_);}
	.st93{fill:url(#SVGID_53_);}
	.st94{fill:url(#SVGID_54_);}
	.st95{fill:url(#SVGID_55_);}
	.st96{fill:url(#SVGID_56_);}
	.st97{fill:url(#SVGID_57_);}
	.st98{fill:url(#SVGID_58_);}
	.st99{fill:url(#SVGID_59_);}
	.st100{fill:url(#SVGID_60_);}
	.st101{fill:url(#SVGID_61_);}
	.st102{fill:url(#SVGID_62_);}
	.st103{fill:url(#SVGID_63_);}
	.st104{fill:url(#SVGID_64_);}
	.st105{display:none;}
	.st106{display:inline;}
</style>
<g id="Layer_1">
	<g>
		<g>
			<g>
				<linearGradient id="SVGID_1_" gradientUnits="userSpaceOnUse" x1="404.2852" y1="164.1592" x2="404.2852" y2="297.1974">
					<stop  offset="0" style="stop-color:#2BEDA7"/>
					<stop  offset="1" style="stop-color:#018AFD"/>
				</linearGradient>
				<polygon class="st3" points="393.2,164.2 393.2,284.4 415.4,297.2 415.4,177 				"/>
				<linearGradient id="SVGID_2_" gradientUnits="userSpaceOnUse" x1="107.1722" y1="164.1625" x2="107.1722" y2="297.2052">
					<stop  offset="0" style="stop-color:#2BEDA7"/>
					<stop  offset="1" style="stop-color:#018AFD"/>
				</linearGradient>
				<polygon class="st4" points="96.1,297.2 118.3,284.4 118.3,164.2 96.1,177 				"/>
			</g>
			<g>
				<polygon class="st5" points="204.7,296 306.7,354.9 306.7,329.3 211.3,274.2 204.7,277.9 204.7,278 				"/>
				<path class="st5" d="M312.6,389l-107.8-62.3v25.6l28.8,16.6l-34.7,20c-2.3,1.3-2.3,4.7,0,6.1l16.9,9.8l39.9-23l39.9,23l16.9-9.8
					C314.9,393.7,314.9,390.4,312.6,389z"/>
			</g>
			<g>
				<linearGradient id="SVGID_3_" gradientUnits="userSpaceOnUse" x1="404.2852" y1="223.0521" x2="404.2852" y2="345.9564">
					<stop  offset="0" style="stop-color:#2BEDA7"/>
					<stop  offset="1" style="stop-color:#018AFD"/>
				</linearGradient>
				<path class="st6" d="M393.2,235.9v106.6c0,2.7,2.9,4.4,5.2,3l15.2-8.8c1.1-0.6,1.7-1.8,1.7-3V223.1L393.2,235.9z"/>
				<linearGradient id="SVGID_4_" gradientUnits="userSpaceOnUse" x1="355.5036" y1="251.2154" x2="355.5036" y2="374.1196">
					<stop  offset="0" style="stop-color:#2BEDA7"/>
					<stop  offset="1" style="stop-color:#018AFD"/>
				</linearGradient>
				<path class="st7" d="M349.7,373.6l14.3-8.3c1.6-0.9,2.6-2.7,2.6-4.5V251.2L344.4,264v106.6C344.4,373.3,347.3,375,349.7,373.6z"
					/>
				<linearGradient id="SVGID_5_" gradientUnits="userSpaceOnUse" x1="306.7227" y1="279.377" x2="306.7227" y2="404.8386">
					<stop  offset="0" style="stop-color:#2BEDA7"/>
					<stop  offset="1" style="stop-color:#018AFD"/>
				</linearGradient>
				<path class="st8" d="M295.6,404.8l20.4-11.8c1.1-0.6,1.7-1.8,1.7-3V279.4l-22.2,12.8V404.8z"/>
				<linearGradient id="SVGID_6_" gradientUnits="userSpaceOnUse" x1="204.7458" y1="279.3772" x2="204.7458" y2="404.8367">
					<stop  offset="0" style="stop-color:#2BEDA7"/>
					<stop  offset="1" style="stop-color:#018AFD"/>
				</linearGradient>
				<path class="st9" d="M195.4,393l20.4,11.8V292.2l-22.2-12.8V390C193.7,391.3,194.3,392.4,195.4,393z"/>
				<linearGradient id="SVGID_7_" gradientUnits="userSpaceOnUse" x1="155.9651" y1="251.2145" x2="155.9651" y2="374.1193">
					<stop  offset="0" style="stop-color:#2BEDA7"/>
					<stop  offset="1" style="stop-color:#018AFD"/>
				</linearGradient>
				<path class="st10" d="M147.5,365.4l14.3,8.3c2.3,1.3,5.2-0.3,5.2-3V264l-22.2-12.8v109.6C144.9,362.7,145.9,364.5,147.5,365.4z"
					/>
				<linearGradient id="SVGID_8_" gradientUnits="userSpaceOnUse" x1="107.1842" y1="223.0501" x2="107.1842" y2="345.9548">
					<stop  offset="0" style="stop-color:#2BEDA7"/>
					<stop  offset="1" style="stop-color:#018AFD"/>
				</linearGradient>
				<path class="st11" d="M98.7,337.2l14.3,8.3c2.3,1.3,5.2-0.3,5.2-3V235.9l-22.2-12.8v109.6C96.1,334.6,97.1,336.3,98.7,337.2z"/>
			</g>
			<g>
				<path class="st5" d="M415.4,177l-22.2-12.8l-39.9,23l-26.6-15.4l34.7-20c2.3-1.3,2.3-4.7,0-6.1l-14.3-8.3
					c-1.6-0.9-3.6-0.9-5.2,0L304.5,159l-26.6-15.4l34.7-20c2.3-1.3,2.3-4.7,0-6.1l-14.3-8.3c-1.6-0.9-3.6-0.9-5.2,0l-37.3,21.5
					l-37.3-21.5c-1.6-0.9-3.6-0.9-5.2,0l-14.3,8.3c-2.3,1.3-2.3,4.7,0,6.1l194.3,112.2l22.2-12.8l-39.9-23L415.4,177z"/>
				<path class="st5" d="M164.4,137.5l-14.3,8.3c-2.3,1.3-2.3,4.7,0,6.1L344.4,264l22.2-12.8L169.7,137.5
					C168,136.6,166,136.6,164.4,137.5z"/>
				<polygon class="st5" points="96.1,177 136,200 96.1,223.1 118.3,235.9 158.2,212.8 184.8,228.2 144.9,251.2 167.1,264 207,241 
					233.6,256.3 193.6,279.4 215.8,292.2 255.7,269.1 295.6,292.2 317.8,279.4 118.3,164.2 				"/>
			</g>
		</g>
	</g>
</g>
<g id="nyt_x5F_exporter_x5F_info" class="st105">
</g>
</svg>
