<svg width="100%" viewBox="0 0 476 384" fill="none" xmlns="http://www.w3.org/2000/svg">
<path opacity="0.4" d="M0 326.085L28.75 340.427L57.5001 354.816V326.085V297.354L28.75 311.743L0 326.085Z" fill="#57B3DA"/>
<path opacity="0.4" d="M57.5001 354.816L28.75 369.158L0 383.5V354.816V326.084L28.75 340.427L57.5001 354.816Z" fill="#437DBF"/>
<path opacity="0.4" d="M115.5 268.67L86.7501 283.012L58 297.354V268.67V239.938L86.7501 254.281L115.5 268.67Z" fill="#437DBF"/>
<path opacity="0.4" d="M57.5 354.816L86.2501 369.158L115 383.5V354.816V326.084L86.2501 340.427L57.5 354.816Z" fill="#6AC399"/>
<path opacity="0.4" d="M303.5 86.1465L332.25 100.536L361 114.878V86.1465V57.4624L332.25 71.8044L303.5 86.1465Z" fill="#4166AE"/>
<path opacity="0.4" d="M418.5 28.7311L389.75 43.0731L361 57.4622V28.7311V0L389.75 14.389L418.5 28.7311Z" fill="#6AC399"/>
<path opacity="0.4" d="M476 57.7311L447.25 72.0731L418.5 86.4151V57.7311V29L447.25 43.342L476 57.7311Z" fill="#437DBF"/>
<path d="M476 114.684L447.25 129.073L418.5 143.415V114.684V86L447.25 100.342L476 114.684Z" fill="#2B9ED5"/>
</svg>