<?xml version="1.0" encoding="utf-8"?>
<!-- Generator: Adobe Illustrator 23.0.3, SVG Export Plug-In . SVG Version: 6.00 Build 0)  -->
<svg version="1.1" id="Layer_1" xmlns="http://www.w3.org/2000/svg" xmlns:xlink="http://www.w3.org/1999/xlink" x="0px" y="0px"
	 viewBox="0 0 120 60" style="enable-background:new 0 0 120 60;" xml:space="preserve">
<style type="text/css">
	.st0{fill-rule:evenodd;clip-rule:evenodd;fill:#063359;}
</style>
<g>
	<g id="bc-logo-bright">
		<g id="Page-1">
			<g id="Style-Guide---Navigation-Elements">
				<g id="Footer">
					<path id="Fill-1" class="st0" d="M37.6,32.3c-0.4-0.6-1.1-1.1-2-1.1c-1.6,0-2.8,1.2-2.8,2.9S34,37,35.6,37
						c0.8,0,1.5-0.3,1.8-0.6v-0.1v-0.9c0-0.1,0-0.1-0.1-0.1h-2.1c-0.1,0-0.1-0.1-0.1-0.2v-1.4c0-0.1,0.1-0.2,0.1-0.2H39v-2l-1.2,0.7
						C37.7,32.4,37.6,32.4,37.6,32.3L37.6,32.3z M20.1,33.3h2.2c0.6,0,1-0.4,1-0.9s-0.4-0.9-1-0.9h-2.2c-0.1,0-0.1,0.1-0.1,0.1v1.6
						C20,33.2,20.1,33.3,20.1,33.3L20.1,33.3z M29.1,38.5c0,0.1-0.1,0.1-0.1,0.1h-1.6c-0.1,0-0.1-0.1-0.1-0.1v-8.7
						c0-0.1,0.1-0.1,0.1-0.1H29c0.1,0,0.1,0.1,0.1,0.1V38.5L29.1,38.5z M22.3,29.7h0.4c1.7,0,2.5,1.1,2.5,2.3c0,0.9-0.5,1.6-1.1,1.9
						c-0.1,0.1-0.1,0.2,0,0.2c0.7,0.3,1.3,1.1,1.3,2.1c0,1.4-0.9,2.4-2.6,2.4h-4.6c-0.1,0-0.1-0.1-0.1-0.1v-5.7l-12,8.9
						c-0.2,0.2-0.1,0.5,0.2,0.5h32.4c0.2,0,0.3-0.1,0.3-0.3v-4.5c-0.9,0.8-2,1.3-3.4,1.3c-2.6,0-4.7-1.8-4.7-4.6s2.1-4.6,4.7-4.6
						c1.6,0,2.7,0.7,3.4,1.7V18c0-0.2-0.3-0.4-0.5-0.2L22.3,29.7L22.3,29.7z M20.1,37h2.3c0.7,0,1.1-0.4,1.1-1s-0.4-1-1.1-1h-2.3
						c0,0-0.1,0-0.1,0.1v1.8C20,36.9,20.1,37,20.1,37L20.1,37z M48.4,36.7l-1-0.5c-0.1,0-0.1,0-0.2,0.1c-0.4,0.7-1.2,1.2-2.1,1.2
						c-1.7,0-2.9-1.4-2.9-3.2c0-1.9,1.2-3.2,2.9-3.2c0.9,0,1.6,0.5,2.1,1.2c0,0.1,0.1,0.1,0.2,0.1l1-0.6c0.1,0,0.1-0.1,0.1-0.2
						c-0.6-1-1.7-1.9-3.3-1.9c-2.5,0-4.5,1.9-4.5,4.6s2,4.6,4.5,4.6c1.6,0,2.7-0.9,3.3-1.9C48.5,36.9,48.5,36.8,48.4,36.7L48.4,36.7
						z M53.7,37.4c-1.7,0-2.8-1.4-2.8-3.2S52,31,53.7,31s2.8,1.4,2.8,3.2S55.4,37.4,53.7,37.4L53.7,37.4z M52.5,29.7
						c-1.9,0.5-3.1,2.2-3.1,4.5c0,2.7,1.8,4.6,4.4,4.6c2.2,0,3.8-1.4,4.2-3.5C58.6,31.9,55.7,28.9,52.5,29.7L52.5,29.7z M68.6,29.7
						h-1.9c-0.1,0-0.2,0.1-0.2,0.1L64.1,36l-2.4-6.1c0-0.1-0.1-0.1-0.2-0.1h-1.9c-0.1,0-0.1,0-0.1,0.1v8.7c0,0.1,0,0.1,0.1,0.1H61
						c0.1,0,0.1,0,0.1-0.1v-6.8l2.7,6.8c0,0,0,0,0.1,0h0.6h0.1l2.7-6.8v6.8c0,0.1,0,0.1,0.1,0.1h1.3c0.1,0,0.1,0,0.1-0.1v-8.7
						C68.7,29.8,68.7,29.7,68.6,29.7L68.6,29.7z M88.4,29.7h-5.7c-0.1,0-0.2,0.1-0.2,0.2v8.6c0,0.1,0.1,0.2,0.2,0.2h5.7
						c0.1,0,0.2-0.1,0.2-0.2v-1.1c0-0.1-0.1-0.2-0.2-0.2h-4.2c-0.1,0-0.2-0.1-0.2-0.2v-2.2c0-0.1,0.1-0.2,0.2-0.2h4.1
						c0.1,0,0.2-0.1,0.2-0.2v-1.1c0-0.1-0.1-0.2-0.2-0.2h-4.1c-0.1,0-0.2-0.1-0.2-0.2v-2c0-0.1,0.1-0.2,0.2-0.2h4.2
						c0.1,0,0.2-0.1,0.2-0.2v-1.1C88.5,29.8,88.5,29.7,88.4,29.7L88.4,29.7z M94.4,33.9h-2c-0.1,0-0.2-0.1-0.2-0.2v-2.5
						c0-0.1,0.1-0.2,0.2-0.2h2c0.9,0,1.5,0.5,1.5,1.4C95.9,33.4,95.3,33.9,94.4,33.9L94.4,33.9z M95.6,35.1c1-0.3,1.9-1.1,1.9-2.6
						c0-1.7-1.1-2.8-2.9-2.8h-3.7c-0.1,0-0.2,0.1-0.2,0.2v8.6c0,0.1,0.1,0.2,0.2,0.2h1.2c0.1,0,0.2-0.1,0.2-0.2v-3
						c0-0.1,0.1-0.2,0.2-0.2h1.3c0.1,0,0.1,0,0.1,0.1l1.9,3.2l0.1,0.1h1.4c0.1,0,0.2-0.1,0.1-0.2c-0.4-0.7-1.5-2.5-1.9-3.1
						C95.5,35.2,95.5,35.1,95.6,35.1L95.6,35.1z M109.7,31.1h4.2c0.1,0,0.2-0.1,0.2-0.2v-1.1c0-0.1-0.1-0.2-0.2-0.2h-5.7
						c-0.1,0-0.2,0.1-0.2,0.2v8.6c0,0.1,0.1,0.2,0.2,0.2h5.7c0.1,0,0.2-0.1,0.2-0.2v-1.1c0-0.1-0.1-0.2-0.2-0.2h-4.2
						c-0.1,0-0.2-0.1-0.2-0.2v-2.2c0-0.1,0.1-0.2,0.2-0.2h4.1c0.1,0,0.2-0.1,0.2-0.2v-1.1c0-0.1-0.1-0.2-0.2-0.2h-4.1
						c-0.1,0-0.2-0.1-0.2-0.2v-2C109.5,31.2,109.6,31.1,109.7,31.1L109.7,31.1z M106.4,36.7l-1-0.5c-0.1,0-0.1,0-0.2,0.1
						c-0.4,0.7-1.2,1.2-2.1,1.2c-1.7,0-2.9-1.4-2.9-3.2c0-1.9,1.2-3.2,2.9-3.2c0.9,0,1.6,0.5,2.1,1.2c0,0.1,0.1,0.1,0.2,0.1l1-0.6
						c0.1,0,0.1-0.1,0.1-0.2c-0.6-1-1.7-1.9-3.3-1.9c-2.5,0-4.5,1.9-4.5,4.6s2,4.6,4.5,4.6c1.6,0,2.7-0.9,3.3-1.9
						C106.5,36.8,106.5,36.7,106.4,36.7L106.4,36.7z M80,29.7h-1.9c-0.1,0-0.2,0.1-0.2,0.1L75.6,36l-2.4-6.1c0-0.1-0.1-0.1-0.2-0.1
						h-1.9c-0.1,0-0.1,0-0.1,0.1v8.7c0,0.1,0,0.1,0.1,0.1h1.3c0.1,0,0.1,0,0.1-0.1v-6.8l2.7,6.8c0,0,0,0,0.1,0h0.6H76l2.7-6.8v6.8
						c0,0.1,0,0.1,0.1,0.1H80c0.1,0,0.1,0,0.1-0.1v-8.7C80.1,29.8,80.1,29.7,80,29.7L80,29.7z"/>
				</g>
			</g>
		</g>
	</g>
</g>
</svg>
