<?xml version="1.0" encoding="utf-8"?>
<!-- Generator: Adobe Illustrator 23.0.3, SVG Export Plug-In . SVG Version: 6.00 Build 0)  -->
<svg version="1.1" id="Layer_1" xmlns="http://www.w3.org/2000/svg" xmlns:xlink="http://www.w3.org/1999/xlink" x="0px" y="0px"
	 viewBox="0 0 120 60" style="enable-background:new 0 0 120 60;" xml:space="preserve">
<style type="text/css">
	.st0{fill-rule:evenodd;clip-rule:evenodd;fill:#063359;}
</style>
<g id="Logo">
	<g id="Group-13">
		<path class="st0" d="M35.3,44.5c-3,0-5.4-2.4-5.4-5.4c0-2.9,2.4-5.4,5.4-5.4c3,0,5.4,2.4,5.4,5.4C40.7,42.1,38.2,44.5,35.3,44.5z
			 M35.3,32.5c-3.7,0-6.7,3-6.7,6.7c0,3.7,3,6.7,6.7,6.7c3.7,0,6.7-3,6.7-6.7C42,35.5,39,32.5,35.3,32.5z"/>
		<path class="st0" d="M92.6,39.2c-0.4-0.2-2.5-1.3-2.8-1.5c-1.1-0.6-1.6-1.1-1.6-1.9c0-1.2,1-2,2.5-2c0.9,0,1.8,0.4,2.3,0.7
			c0.1,0.1,0.2,0.1,0.4,0.1c0.4,0,0.6-0.3,0.6-0.6c0-0.3-0.1-0.4-0.4-0.5c-0.6-0.4-1.8-0.9-2.9-0.9c-2.3,0-3.9,1.3-3.9,3.3
			c0,1.8,1.1,2.5,2.3,3.2c0.4,0.2,2.5,1.3,2.8,1.5c0.9,0.4,1.3,1.1,1.3,1.9c0,1.1-0.9,2.2-2.5,2.2c-1.6,0-2.8-1.1-3.2-1.4l-0.1-0.1
			l-1,0.9l0.1,0.1c0.4,0.4,2,1.8,4.1,1.8c2.4,0,3.9-1.8,3.9-3.5C94.7,41.1,93.9,39.9,92.6,39.2z"/>
		<path class="st0" d="M21.7,33.9c1.4,0,2.8,0.5,3.8,1.6c0.3,0.3,0.7,0.3,1,0c0.1-0.1,0.2-0.3,0.2-0.4s-0.1-0.4-0.2-0.4l-0.2-0.2
			c-1.2-1.2-2.9-1.8-4.7-1.8c-3.7,0-6.7,3-6.7,6.7c0,3.7,3,6.7,6.7,6.7c1.9,0,3.7-0.8,4.9-2.2l-1-1c-1,1.1-2.4,1.8-4,1.8
			c-3,0-5.4-2.4-5.4-5.4C16.4,36.2,18.7,33.9,21.7,33.9z"/>
		<path class="st0" d="M66.8,33.9c1.4,0,2.8,0.5,3.8,1.6c0.3,0.3,0.7,0.3,1,0c0.1-0.1,0.2-0.3,0.2-0.4s-0.1-0.4-0.2-0.4l-0.2-0.2
			c-1.2-1.2-2.9-1.8-4.7-1.8c-3.7,0-6.7,3-6.7,6.7c0,3.7,3,6.7,6.7,6.7c1.9,0,3.7-0.8,4.9-2.2l-1-1c-1,1.1-2.4,1.8-4,1.8
			c-3,0-5.4-2.4-5.4-5.4C61.4,36.2,63.8,33.9,66.8,33.9z"/>
		<path class="st0" d="M55.4,32.5c-0.3,0-0.4,0.2-0.5,0.4c-0.1,0.2-4,9.6-4,9.6s-3.8-9.4-4-9.6c-0.1-0.2-0.3-0.4-0.5-0.4
			c-0.3,0-0.5,0.2-0.6,0.4c-0.1,0.3-2.2,12.1-2.2,12.1v0.1c0,0.4,0.3,0.6,0.6,0.6c0.3,0,0.5-0.2,0.6-0.4l1.8-10.1c0,0,3.6,8.9,3.7,9
			c0.1,0.2,0.3,0.4,0.5,0.4c0.3,0,0.4-0.2,0.5-0.4c0.1-0.2,3.7-9,3.7-9l1.9,10.5h1.2c0,0-2.3-12.5-2.4-12.7
			C56,32.7,55.8,32.5,55.4,32.5z"/>
		<path class="st0" d="M77.1,39.6l1.9-4.8l2,4.8H77.1z M79,32.5c-0.3,0-0.4,0.2-0.5,0.4C78.4,33.1,73.6,45,73.6,45
			c0,0.1-0.1,0.2-0.1,0.3c0,0.4,0.3,0.6,0.6,0.6c0.3,0,0.4-0.2,0.5-0.4l1.8-4.6h5l2,4.9h1.2c0,0-5.1-12.6-5.3-12.8
			C79.5,32.7,79.3,32.5,79,32.5L79,32.5z"/>
		<path class="st0" d="M104.9,33.2c0-0.4-0.3-0.6-0.6-0.6h-7.5c-0.4,0-0.6,0.3-0.6,0.6c0,0.4,0.3,0.6,0.6,0.6h3.1v11.9h1.2V33.9h3.1
			C104.6,33.9,104.9,33.6,104.9,33.2z"/>
	</g>
	<g id="Peacock">
		<g id="Group-21">
			<g id="Group-18">
				<path class="st0" d="M65.1,15.7c0.4,0.8,0.2,1.8-0.3,2.5l-3.2,7l0,0l-1.1-7.2c-0.1-0.7,0.6-1,1.1-1.3c0-0.1-0.2-0.1-0.2-0.2
					h-1.1l0,0c0-0.9,0.5-1.7,1.3-2.1c0.9-0.5,2-0.4,2.8,0.3C64.7,15.1,64.9,15.3,65.1,15.7z"/>
			</g>
			<path class="st0" d="M59.3,15.4c0.3,0.4,0.4,1.1,0.4,1.6l-1.3,8.2l0,0L58,24.5l-3.2-7.2c-0.3-0.9,0-1.8,0.6-2.5
				c0.7-0.7,1.8-0.9,2.6-0.5C58.6,14.6,59,15,59.3,15.4z"/>
		</g>
		<g id="Group-30">
			<path class="st0" d="M69.7,18.9c0.4,0.7,0.4,1.8-0.2,2.5c-0.3,0.4-0.8,0.7-1.2,1.1L61.8,27l0,0l0.1-0.2l3.5-8
				c0.5-1,1.5-1.4,2.6-1.2C68.7,17.7,69.4,18.2,69.7,18.9z"/>
			<path class="st0" d="M54.6,18.8l3.7,8.2h-0.1l-7.4-5.1c-0.8-0.6-1.1-1.6-0.8-2.5c0.2-0.7,0.8-1.4,1.5-1.7
				C52.7,17.3,54,17.8,54.6,18.8z"/>
			<path class="st0" d="M71.7,24.6c0.4,0.8,0.3,1.8-0.3,2.5c-0.5,0.6-1.2,1-2,1h-7.9l6.6-4.6c0.6-0.4,1.7-0.5,2.4-0.2
				C70.9,23.6,71.4,24.1,71.7,24.6z"/>
			<path class="st0" d="M48.3,24.6c-0.4,0.8-0.3,1.8,0.3,2.5c0.5,0.6,1.2,1,2,1h7.9l-6.6-4.6c-0.6-0.4-1.7-0.5-2.4-0.2
				C49.1,23.6,48.6,24.1,48.3,24.6z"/>
		</g>
	</g>
</g>
</svg>
