<?xml version="1.0" encoding="utf-8"?>
<!-- Generator: Adobe Illustrator 23.0.3, SVG Export Plug-In . SVG Version: 6.00 Build 0)  -->
<svg version="1.1" id="Layer_1" xmlns="http://www.w3.org/2000/svg" xmlns:xlink="http://www.w3.org/1999/xlink" x="0px" y="0px"
	 viewBox="0 0 120 60" style="enable-background:new 0 0 120 60;" xml:space="preserve">
<style type="text/css">
	.st0{fill:#063359;}
</style>
<g>
	<path class="st0" d="M38.3,29.9c0-1.2-0.9-2.1-2-2.1c-1.2,0-2,0.9-2,2.1s0.9,2,2,2C37.4,31.9,38.3,31,38.3,29.9 M41.8,29.9
		c0,2.9-2.5,5.2-5.5,5.2c-3.1,0-5.5-2.3-5.5-5.2s2.5-5.2,5.5-5.2C39.3,24.6,41.8,27,41.8,29.9 M52.9,27.7c0-1.9-1.3-3.7-3.4-3.7
		h-2.8v7.4h2.8C51.5,31.5,52.9,29.7,52.9,27.7 M56.7,27.7c0,4.2-3,7.1-7.1,7.1h-6c-0.3,0-0.5-0.2-0.5-0.5V21.2
		c0-0.2,0.2-0.5,0.5-0.5h6C53.8,20.8,56.7,23.6,56.7,27.7 M62.6,31.9c1.2,0,2-0.9,2-2.1s-0.9-2.1-2-2.1c-1.2,0-2,0.9-2,2.1
		C60.5,31,61.4,31.9,62.6,31.9 M62,24.6c1.2,0,2.2,0.4,2.6,1.1v-0.3c0-0.2,0.2-0.5,0.5-0.5h2.6c0.2,0,0.5,0.2,0.5,0.5v9
		c0,0.2-0.2,0.5-0.5,0.5h-2.5c-0.2,0-0.5-0.2-0.5-0.5V34c-0.4,0.6-1.4,1.1-2.6,1.1c-2.6,0-5-2-5-5.2S59.5,24.6,62,24.6 M74.1,31.9
		c1.2,0,2-0.9,2-2.1s-0.9-2.1-2-2.1c-1.2,0-2,0.9-2,2.1C72,31,72.9,31.9,74.1,31.9 M73.5,24.6c1.2,0,2.2,0.5,2.6,1v-4.3
		c0-0.2,0.2-0.5,0.5-0.5h2.6c0.3,0,0.5,0.2,0.5,0.5v13.1c0,0.2-0.2,0.5-0.5,0.5h-2.5c-0.2,0-0.5-0.2-0.5-0.5V34
		c-0.5,0.6-1.4,1.1-2.6,1.1c-2.6,0-5-2-5-5.2S71,24.6,73.5,24.6 M85.6,31.9c1.2,0,2-0.9,2-2.1s-0.9-2.1-2-2.1c-1.2,0-2,0.9-2,2.1
		C83.6,31,84.4,31.9,85.6,31.9 M85,24.6c1.2,0,2.2,0.5,2.6,1v-4.3c0-0.2,0.3-0.5,0.5-0.5h2.6c0.2,0,0.5,0.2,0.5,0.5v13.1
		c0,0.2-0.2,0.5-0.5,0.5h-2.5c-0.3,0-0.5-0.2-0.5-0.5V34c-0.5,0.6-1.4,1.1-2.6,1.1c-2.6,0-5-2-5-5.2S82.5,24.6,85,24.6 M99.6,36.2
		c-0.7,2.1-2.1,3.2-4.4,3.2c-1.2,0-2.5-0.4-3.2-1.1c-0.2-0.1-0.2-0.3-0.2-0.4c0-0.1,0.1-0.2,0.2-0.4l0.9-1.4
		c0.2-0.2,0.3-0.2,0.4-0.2c0.2,0,0.3,0.1,0.5,0.2c0.3,0.2,0.8,0.4,1.2,0.4c0.4,0,0.9-0.2,1.1-0.8l0.3-1h-1.6c-0.3,0-0.5-0.2-0.6-0.5
		l-2.6-8.7c-0.1-0.2-0.1-0.3-0.1-0.4c0-0.2,0.2-0.3,0.4-0.3h3c0.2,0,0.4,0.2,0.5,0.5l1.7,6.2h0.1l1.3-6.2c0.1-0.2,0.3-0.5,0.5-0.5
		h3.1c0.3,0,0.4,0.2,0.4,0.3c0,0.1,0,0.2-0.1,0.4L99.6,36.2 M27.2,32.9c-1.2,1.7-3.2,2.2-5,2.2c-4.1,0-7.2-3.1-7.2-7.3
		c0-4.1,3.3-7.3,7.6-7.3c3.2,0,5.8,1.3,6.9,3.9c0.2,0.3,0.2,0.8-0.6,0.9l-2.3,0.4c-0.5,0.1-0.8-0.2-0.9-0.4c-0.7-0.9-1.8-1.5-3-1.5
		c-2.2,0-3.8,1.8-3.8,4c0,2.5,1.8,4,3.8,4c1.3,0,2.4-0.5,3.1-1.4h-2c-0.3,0-0.5-0.2-0.5-0.5V28c0-0.2,0.2-0.5,0.5-0.5h6.1
		c0.3,0,0.5,0.2,0.5,0.5v6.3c0,0.2-0.2,0.5-0.5,0.5h-2.1c-0.3,0-0.5-0.2-0.5-0.5v-1.4 M103.1,20.4c-1.1,0-1.9,0.9-1.9,1.9
		c0,1.1,0.9,1.9,1.9,1.9c1.1,0,1.9-0.9,1.9-1.9C105,21.3,104.1,20.4,103.1,20.4z M103.1,24c-0.8,0-1.6-0.8-1.6-1.6
		c0-0.8,0.8-1.6,1.6-1.6c0.8,0,1.6,0.8,1.6,1.6C104.6,23.2,103.9,24,103.1,24z"/>
	<path class="st0" d="M103.4,22c0-0.1,0-0.2-0.1-0.2c-0.1-0.1-0.2-0.1-0.3-0.1h-0.3v0.6h0.3c0.1,0,0.2,0,0.3-0.1
		C103.4,22.2,103.4,22.1,103.4,22z M102.7,23.5h-0.3c0,0,0,0-0.1,0c0,0,0,0,0-0.1v-2c0,0,0,0,0-0.1c0,0,0,0,0.1,0h0.8
		c0.2,0,0.5,0.1,0.6,0.2c0.2,0.2,0.3,0.3,0.3,0.5c0,0.2,0,0.2-0.1,0.3s-0.2,0.2-0.3,0.2l0.5,0.8v0.1c0,0,0,0-0.1,0h-0.3h-0.1
		c0,0,0,0-0.1-0.1l-0.4-0.7h-0.3v0.7C102.8,23.4,102.8,23.4,102.7,23.5C102.7,23.4,102.7,23.5,102.7,23.5L102.7,23.5z"/>
</g>
</svg>
