<?xml version="1.0" encoding="utf-8"?>
<!-- Generator: Adobe Illustrator 23.0.3, SVG Export Plug-In . SVG Version: 6.00 Build 0)  -->
<svg version="1.1" id="Layer_1" xmlns="http://www.w3.org/2000/svg" xmlns:xlink="http://www.w3.org/1999/xlink" x="0px" y="0px"
	 viewBox="0 0 120 60" style="enable-background:new 0 0 120 60;" xml:space="preserve">
<style type="text/css">
	.st0{fill-rule:evenodd;clip-rule:evenodd;fill:#063359;}
</style>
<path class="st0" d="M55.5,29.6H53v-3.1h2.2c1,0,2.2,0.3,2.2,1.5C57.3,29,56.6,29.6,55.5,29.6L55.5,29.6z M62.3,36.6l-2.8-4
	c0.5-0.3,0.7-0.3,1.2-0.8c1-0.9,1.6-1.8,1.8-3.2c0.3-2-0.3-3.9-1.9-5.2c-1.1-1-3.1-1.4-4.8-1.4h-8.4v16h5.4v-4.6
	c1.4,0,1-0.1,1.5,0.5l2.5,3.8C57,38,57,38,57.2,38h9.3l3.6-6.8l3.5,6.8h5.1l-8.6-17L62.3,36.6z M25.2,32.4c0.6,0.1,2.1,0.4,1.7,1.2
	c-0.4,1-3.9,0.2-4.9-0.3c-1.3-0.6-1.3-0.6-2-1.1l-2.9,3.5c2.9,1.9,4.6,2.7,8.2,2.7c3.5,0,6.8-1.3,7-4.8c0.3-4.9-4.1-5-7.5-6
	c-0.5-0.2-1.6-0.3-1.4-1c0.2-0.6,1.5-0.5,2-0.4c1.3,0.2,2.9,0.8,4,1.5L32,24c-2.4-1.6-4.5-2.3-7.4-2.2c-3.3,0.1-6.4,1.4-6.7,5.2
	C17.8,31,22.1,31.8,25.2,32.4z M32.1,26.5h4.8V38h5.4V26.5H47V22H32.1V26.5z M82.2,39l8.7-17h-5.2l-3.5,6.8L78.8,22h-5.2L82.2,39z
	 M102.8,38h-5.2l-3.5-6.8L90.7,38h-5.2l8.6-17L102.8,38z"/>
</svg>
