<?xml version="1.0" encoding="utf-8"?>
<!-- Generator: Adobe Illustrator 23.0.3, SVG Export Plug-In . SVG Version: 6.00 Build 0)  -->
<svg version="1.1" id="Layer_1" xmlns="http://www.w3.org/2000/svg" xmlns:xlink="http://www.w3.org/1999/xlink" x="0px" y="0px"
	 viewBox="0 0 120 60" style="enable-background:new 0 0 120 60;" xml:space="preserve">
<style type="text/css">
	.st0{fill:#063359;}
</style>
<g>
	<path class="st0" d="M23.9,20.4c0,1-0.8,3.8-4.1,3.8c-2.9,0-4.7-1.9-4.7-5c0-2.9,1.9-5,4.7-5c3.3,0,4,2.5,4,3.4h-1.4
		c-0.1-0.9-0.8-2.3-2.7-2.3c-2.2,0-3.3,1.8-3.3,3.9c0,2.3,1.2,3.9,3.3,3.9c2,0,2.7-1.8,2.7-2.8H23.9z"/>
	<path class="st0" d="M27.2,15.7h-1.3v-1.3h1.3V15.7z M25.9,17h1.3V24h-1.3V17z"/>
	<path class="st0" d="M35,19.1h-1.3c0-0.6-0.5-1.2-1.6-1.2c-0.9,0-1.4,0.3-1.4,0.8c0,0.6,0.8,0.9,1.8,1.1c1.2,0.3,2.7,0.7,2.7,2.1
		c0,1.1-0.8,2.1-3.1,2.1c-2.1,0-3-1.1-3-2.4h1.3c0,0.8,0.6,1.4,1.7,1.4c1.3,0,1.7-0.4,1.7-0.9c0-0.6-0.6-0.9-1.9-1.2
		c-1.3-0.4-2.7-0.8-2.7-2.3c0-1,0.8-1.8,2.7-1.8C34.5,16.9,34.9,18.2,35,19.1"/>
	<path class="st0" d="M42.8,21.7c-0.1,0.6-0.6,2.4-3,2.4c-2,0-3.4-1.4-3.4-3.6c0-2.2,1.4-3.7,3.4-3.7c2.4,0,2.9,1.7,3,2.2h-1.3
		c-0.2-0.6-0.7-1.1-1.7-1.1c-1.3,0-2.1,1.1-2.1,2.6c0,1.2,0.6,2.6,2.1,2.6c1.3,0,1.6-1,1.7-1.4H42.8z"/>
	<path class="st0" d="M44.1,20.5c0-2.2,1.4-3.7,3.4-3.7c2,0,3.4,1.4,3.4,3.7c0,2.3-1.5,3.6-3.4,3.6C45.6,24.2,44.1,22.7,44.1,20.5
		 M47.5,23.1c1.4,0,2.1-1.2,2.1-2.6c0-1.4-0.7-2.6-2.1-2.6c-1.3,0-2.1,1.1-2.1,2.6C45.5,21.8,46.1,23.1,47.5,23.1"/>
	<polygon class="st0" points="35.3,28.4 31.6,42.2 31.5,42.2 27.6,28.4 25.1,28.4 21.5,42.1 17.6,28.4 15,28.4 15,28.5 20.2,45.4
		22.8,45.4 26.3,32.3 30.2,45.4 32.6,45.4 37.7,28.4 	"/>
	<path class="st0" d="M51.5,30.4c-1.6-1.7-3.6-2.5-6-2.5c-2.4,0-4.4,0.8-6,2.5c-1.6,1.7-2.4,3.8-2.4,6.5c0,2.6,0.8,4.8,2.4,6.4
		c1.6,1.7,3.6,2.5,6,2.5c2.8,0,5-0.9,6.4-2.7c0.7-0.9,1.2-2,1.4-3.3l0-0.1h-2.2l0,0.1c-0.2,0.9-0.6,1.7-1.3,2.5
		c-1,1.1-2.5,1.7-4.3,1.7c-1.8,0-3.2-0.7-4.4-2c-1-1.2-1.5-2.6-1.6-4.4h14.3v-0.6h0C53.8,34.2,53,32.1,51.5,30.4 M39.6,35.7
		c0.1-1.7,0.7-3,1.8-4.2c1.1-1.1,2.5-1.7,4.1-1.7c1.7,0,3.1,0.6,4.3,1.8c1,1.1,1.6,2.5,1.7,4H39.6z"/>
	<path class="st0" d="M69.6,30.4c-1.6-1.6-3.6-2.5-6-2.5c-2.7,0-4.7,1-6,3V22h-2.2v17.4c0,2.3-0.1,4.3-0.2,5.9l0,0.1h2.1l0.2-2.7
		c1.4,2.1,3.5,3.2,6.2,3.2c2.4,0,4.5-0.8,6-2.5c1.6-1.7,2.3-3.8,2.3-6.5C71.9,34.2,71.1,32,69.6,30.4 M69.6,36.9
		c0,1.9-0.5,3.6-1.5,4.9c-1.1,1.5-2.6,2.2-4.5,2.2c-1.8,0-3.3-0.7-4.4-2c-1.1-1.3-1.6-3-1.6-5c0-1.9,0.5-3.6,1.5-4.9
		c1.1-1.5,2.6-2.2,4.5-2.2c1.8,0,3.3,0.7,4.5,2.1C69.1,33.2,69.6,34.9,69.6,36.9"/>
	<path class="st0" d="M87.6,30.4c-1.6-1.7-3.6-2.5-6-2.5c-2.4,0-4.4,0.8-6,2.5c-1.6,1.7-2.4,3.8-2.4,6.5c0,2.6,0.8,4.8,2.4,6.4
		c1.6,1.7,3.6,2.5,6,2.5h0c2.8,0,5-0.9,6.4-2.7c0.7-0.9,1.2-2,1.4-3.3l0-0.1h-2.2l0,0.1c-0.2,0.9-0.6,1.7-1.3,2.5
		c-1,1.1-2.5,1.7-4.3,1.7c-1.8,0-3.2-0.7-4.4-2c-1-1.2-1.5-2.6-1.6-4.4h14.3v-0.6h0C89.9,34.2,89.1,32.1,87.6,30.4 M75.6,35.7
		c0.1-1.7,0.7-3,1.8-4.2c1.1-1.1,2.5-1.7,4.1-1.7c1.7,0,3.1,0.6,4.3,1.8c1,1.1,1.6,2.5,1.7,4H75.6z"/>
	<polygon class="st0" points="98.3,36.5 104.4,28.4 102,28.4 97.1,34.9 92.2,28.4 92.1,28.4 89.7,28.4 95.8,36.6 89.2,45.4
		91.6,45.4 97,38.1 102.4,45.4 105,45.4 	"/>
</g>
</svg>
