<?xml version="1.0" encoding="utf-8"?>
<!-- Generator: Adobe Illustrator 23.0.3, SVG Export Plug-In . SVG Version: 6.00 Build 0)  -->
<svg version="1.1" id="Layer_1" xmlns="http://www.w3.org/2000/svg" xmlns:xlink="http://www.w3.org/1999/xlink" x="0px" y="0px"
	 viewBox="0 0 120 60" style="enable-background:new 0 0 120 60;" xml:space="preserve">
<style type="text/css">
	.st0{fill:#001E64;}
</style>
<g>
	<polygon class="st0" points="53.1,33.2 53.1,26.3 49.9,33.6 	"/>
	<path class="st0" d="M83.4,21c-0.3-0.6-0.5-1.3-0.9-1.8c-0.5-0.8-1.1-1.5-1.7-2.1c-0.2-0.2-0.5-0.4-0.7-0.6
		c-0.3-0.2-0.5-0.5-0.8-0.7c-0.5-0.5-1.1-0.8-1.7-1.2c-1.7-1-3.6-1.7-5.5-2.1C69.3,12,66.6,11.8,64,12c-1.5,0.1-2.9,0.3-4.3,0.6
		c-1.7,0.4-3.5,0.9-5.2,1.5c-0.8,0.3-1.5,0.6-2.3,1c-2.5,1.1-4.7,2.5-6.7,4.1c-0.5,0.3-0.9,0.7-1.3,1.1c-0.3,0.2-0.5,0.4-0.7,0.7
		c-0.7,0.6-1.3,1.3-1.9,1.9c-0.5,0.5-0.9,1.1-1.3,1.6c-1.5,2-2.6,4.3-3.2,6.7c-0.5,2.5-0.5,5,0.4,7.3c0.1,0.2,0.1,0.3,0.2,0.5
		c0.2,0.5,0.5,1.1,0.8,1.5c0.3,0.5,0.7,1,1.1,1.4c0.4,0.6,0.8,1,1.3,1.4c0.4,0.3,0.8,0.7,1.2,0.9c1.9,1.4,4.3,2.4,6.9,3
		c2.8,0.6,5.7,0.7,8.6,0.5c1.3-0.1,2.5-0.3,3.9-0.6c1.7-0.3,3.4-0.9,5-1.5c0.8-0.3,1.7-0.7,2.5-1.1c1.9-0.9,3.7-1.9,5.4-3.1
		c0.6-0.4,1.1-0.9,1.7-1.3c0.7-0.5,1.3-1.1,1.9-1.7c0.5-0.5,1-1,1.5-1.6c0.4-0.5,0.7-0.9,1.1-1.4c1.7-2.3,2.8-4.7,3.3-7.1
		C84.4,25.9,84.3,23.3,83.4,21z M56.1,38.9c-0.3,0.1-2,0.3-2.4,0.4c-0.4,0-0.4-0.1-0.4-0.3c0-0.5-0.1-3.3-0.1-3.3l-4.4,0.7
		c0,0-1.6,3.6-1.6,3.7c-0.1,0.2-0.2,0.3-0.4,0.3c-0.6,0.1-2.8,0.5-3.1,0.5s-0.5-0.1-0.3-0.4c0.1-0.2,10.1-20.3,10.8-21.8
		c0.2-0.4,0.6-0.5,0.7,0.1c0.1,1.4,1.4,19.4,1.7,19.5C56.6,38.7,56.6,38.8,56.1,38.9z M65.2,25.5c0,0.2-0.7,2.1-0.7,2.1
		s-1-0.7-1.5-0.7s-0.8,0.2-1.1,0.5c-0.3,0.3-0.5,1-0.2,1.5c0.2,0.3,0.4,0.5,1.9,1.9c1.9,1.7,1.5,4,0.9,5.1c-0.6,1.1-1.8,2.1-3.1,2.4
		c-1.9,0.4-3.2,0.2-3.8-0.1c-0.5-0.2-0.5-0.4-0.4-0.9c0.2-0.4,0.7-2.3,0.7-2.3s0.4,0.7,1.5,1c1.2,0.3,2-0.2,2.3-0.8
		c0.3-0.5,0.4-1.6-1.3-3.1c-0.8-0.7-1.3-1.4-1.5-2.1c-0.2-0.6-0.3-1.9,0.3-3.1c0.6-1.2,1.8-1.9,3.5-2.1c1.1-0.2,2,0.1,2.5,0.3
		C65.5,25.3,65.6,25.4,65.2,25.5z M73,30.2c0,0,1.9,5.4,2,5.7c0,0.2,0,0.2-0.3,0.3c-0.2,0.1-1.7,0.3-2.4,0.4c-0.3,0-0.3-0.1-0.4-0.3
		c0-0.2-1.9-5.5-1.9-5.5s-1.1,5.8-1.2,6.1c0,0.3-0.1,0.3-0.3,0.3c-0.6,0.1-2,0.3-2.3,0.4c-0.5,0.1-0.5,0.1-0.4-0.5
		c0-0.4,3.6-20.3,3.7-20.6c0.1-0.5,0.2-0.6,0.6-0.7c0.2,0,1.9-0.2,2.3-0.2c0.3,0,0.4,0.1,0.3,0.6C72.5,16.6,70,30.1,70,30.1
		s3.3-5.6,3.4-5.8c0.1-0.2,0.2-0.3,0.5-0.3c0.7-0.1,2.1-0.3,2.4-0.3c0.2,0,0.2,0,0.3,0c0,0,0,0.1,0.1,0.4C76.5,24.4,73,30.2,73,30.2
		z"/>
</g>
</svg>
