<?xml version="1.0" encoding="utf-8"?>
<!-- Generator: Adobe Illustrator 23.0.3, SVG Export Plug-In . SVG Version: 6.00 Build 0)  -->
<svg version="1.1" id="Layer_1" xmlns="http://www.w3.org/2000/svg" xmlns:xlink="http://www.w3.org/1999/xlink" x="0px" y="0px"
	 viewBox="0 0 120 60" style="enable-background:new 0 0 120 60;" xml:space="preserve">
<style type="text/css">
	.st0{fill:#063359;}
</style>
<g id="layer1" transform="translate(620.34041,-56.426733)">
	<g id="logotype" transform="translate(0.4494891,0.3945659)">
		<g id="g17202">
			<g id="logo">
				<path id="logo-ne" class="st0" d="M-523.8,76.8c-0.4,0-0.6,0.3-0.6,0.6v4.5h11.8l-5.4-5.1H-523.8"/>
				<path id="logo-se" class="st0" d="M-512.2,83.2c0-0.4-0.3-0.6-0.6-0.6h-4.5v11.8l5.1-5.4V83.2"/>
				<path id="logo-sw" class="st0" d="M-518.7,94.8c0.4,0,0.6-0.3,0.6-0.6v-4.5h-11.8l5.4,5.1H-518.7"/>
				<path id="logo-nw" class="st0" d="M-530.3,88.3c0,0.4,0.3,0.6,0.6,0.6h4.5V77.2l-5.1,5.4V88.3"/>
			</g>
			<g id="type">
				<path id="H" class="st0" d="M-584.4,79v5.5h-7.6V79h-2.8v13.8h2.8v-5.9h7.6v5.9h2.8V79H-584.4"/>
				<path id="E" class="st0" d="M-547.6,79v13.8h12.1l-1.5-2.4h-7.8v-3.5h7.6v-2.3h-7.6v-3.2h7.8l1.5-2.3L-547.6,79"/>
				<path id="C" class="st0" d="M-605.1,78.9c-2.9,0-4.3,1.7-4.3,4.3v5.1c0,3,1.9,4.3,4.3,4.3h8.6l-1.6-2.5h-6.6c-1.3,0-2-0.5-2-2.1
					v-4.7c0-1.5,0.5-2.1,2.1-2.1h6.6l1.5-2.4H-605.1"/>
				<path id="S" class="st0" d="M-559.7,78.9c-1.6,0-3.3,1-3.3,3.6v0.6c0,2.7,1.6,3.7,3.2,3.7h5.8c0.6,0,1.1,0.1,1.1,1.1V89
					c0,0.9-0.5,1.1-1.1,1.1h-7.6l-1.5,2.4h9.3c2.2,0,3.8-1.1,3.8-3.7v-1c0-2.5-1.4-3.7-3.6-3.7h-5.5c-0.6,0-1-0.2-1-1.1v-1
					c0-0.8,0.3-1.1,1-1.1h7.2l1.5-2.3L-559.7,78.9"/>
				<path id="A" class="st0" d="M-573.6,79l-6.5,13.8h3.1l1.3-2.9h7.1l1.3,2.9h3.1l-6.6-13.8H-573.6z M-572.2,81.8l2.5,5.8h-5
					L-572.2,81.8"/>
			</g>
		</g>
	</g>
</g>
</svg>
