<?xml version="1.0" encoding="utf-8"?>
<!-- Generator: Adobe Illustrator 23.0.3, SVG Export Plug-In . SVG Version: 6.00 Build 0)  -->
<svg version="1.1" id="Layer_1" xmlns="http://www.w3.org/2000/svg" xmlns:xlink="http://www.w3.org/1999/xlink" x="0px" y="0px"
	 viewBox="0 0 120 60" style="enable-background:new 0 0 120 60;" xml:space="preserve">
<style type="text/css">
	.st0{fill:#001E64;}
</style>
<path id="e" class="st0" d="M31,20.9c-5.7,0-10.5,2.4-10.5,9.7c0,5.8,3.2,9.4,10.6,9.4c8.7,0,9.3-5.8,9.3-5.8h-4.2
	c0,0-0.9,3.1-5.3,3.1c-3.6,0-6.2-2.4-6.2-5.8h16.2v-2.1C40.9,26,38.7,20.9,31,20.9L31,20.9z M30.8,23.6c3.4,0,5.8,2.1,5.8,5.2H24.8
	C24.8,25.5,27.8,23.6,30.8,23.6z"/>
<path id="b" class="st0" d="M40.9,13.8v22.6c0,1.3-0.1,3.1-0.1,3.1h4c0,0,0.1-1.3,0.1-2.5c0,0,2,3.1,7.4,3.1c5.7,0,9.6-4,9.6-9.6
	c0-5.3-3.6-9.5-9.6-9.5c-5.6,0-7.4,3-7.4,3V13.8L40.9,13.8z M51.3,23.7c3.9,0,6.3,2.9,6.3,6.7c0,4.1-2.8,6.9-6.3,6.9
	c-4.1,0-6.4-3.2-6.4-6.8C45,27.1,47,23.7,51.3,23.7z"/>
<path id="a" class="st0" d="M72,20.9c-8.6,0-9.1,4.7-9.1,5.5h4.3c0,0,0.2-2.7,4.6-2.7c2.8,0,5,1.3,5,3.8v0.9h-5
	c-6.7,0-10.2,1.9-10.2,5.9c0,3.9,3.3,6,7.6,6c6,0,7.9-3.3,7.9-3.3c0,1.3,0.1,2.6,0.1,2.6H81c0,0-0.1-1.6-0.1-2.6v-8.9
	C80.8,22.1,76.1,20.9,72,20.9L72,20.9z M76.7,30.9v1.2c0,1.5-0.9,5.4-6.5,5.4c-3.1,0-4.4-1.5-4.4-3.3C65.8,30.9,70.2,30.9,76.7,30.9
	L76.7,30.9z"/>
<path id="y" class="st0" d="M78.5,21.6h4.8l6.9,13.8l6.9-13.8h4.4L88.9,46.2h-4.6l3.6-6.9L78.5,21.6z"/>
</svg>
