<?xml version="1.0" encoding="UTF-8" standalone="no"?>
<svg
   xmlns:dc="http://purl.org/dc/elements/1.1/"
   xmlns:cc="http://creativecommons.org/ns#"
   xmlns:rdf="http://www.w3.org/1999/02/22-rdf-syntax-ns#"
   xmlns:svg="http://www.w3.org/2000/svg"
   xmlns="http://www.w3.org/2000/svg"
   xmlns:sodipodi="http://sodipodi.sourceforge.net/DTD/sodipodi-0.dtd"
   xmlns:inkscape="http://www.inkscape.org/namespaces/inkscape"
   version="1.1"
   id="Layer_1"
   x="0px"
   y="0px"
   viewBox="0 0 103 51.000001"
   xml:space="preserve"
   sodipodi:docname="elkjopnordic.svg"
   inkscape:version="1.0.2 (e86c870879, 2021-01-15, custom)"
   width="103"
   height="51"><metadata
   id="metadata1269"><rdf:RDF><cc:Work
       rdf:about=""><dc:format>image/svg+xml</dc:format><dc:type
         rdf:resource="http://purl.org/dc/dcmitype/StillImage" /><dc:title></dc:title></cc:Work></rdf:RDF></metadata><defs
   id="defs1267" /><sodipodi:namedview
   pagecolor="#ffffff"
   bordercolor="#666666"
   borderopacity="1"
   objecttolerance="10"
   gridtolerance="10"
   guidetolerance="10"
   inkscape:pageopacity="0"
   inkscape:pageshadow="2"
   inkscape:window-width="2256"
   inkscape:window-height="1410"
   id="namedview1265"
   showgrid="false"
   inkscape:zoom="9.7454545"
   inkscape:cx="38.99524"
   inkscape:cy="34.363434"
   inkscape:window-x="-11"
   inkscape:window-y="-11"
   inkscape:window-maximized="1"
   inkscape:current-layer="Layer_1"
   units="px"
   width="103in"
   showguides="false" />
<style
   type="text/css"
   id="style1222">
	.st0{fill:#1E1D5A;}
	.st1{fill:url(#SVGID_1_);}
	.st2{fill:url(#SVGID_2_);}
</style>




<linearGradient
   id="SVGID_1_"
   gradientUnits="userSpaceOnUse"
   x1="468.03189"
   y1="-313.3692"
   x2="546.03192"
   y2="-236.3692"
   gradientTransform="matrix(1,0,0,-1,0,-116.1102)">
	<stop
   offset="0.2808"
   style="stop-color:#96C340"
   id="stop1232" />
	<stop
   offset="0.292"
   style="stop-color:#92C141"
   id="stop1234" />
	<stop
   offset="0.533"
   style="stop-color:#509846"
   id="stop1236" />
	<stop
   offset="0.7397"
   style="stop-color:#088048"
   id="stop1238" />
	<stop
   offset="0.9021"
   style="stop-color:#007349"
   id="stop1240" />
	<stop
   offset="1"
   style="stop-color:#026E48"
   id="stop1242" />
</linearGradient>

<linearGradient
   id="SVGID_2_"
   gradientUnits="userSpaceOnUse"
   x1="470.99121"
   y1="-139.1218"
   x2="579.99121"
   y2="-245.1218"
   gradientTransform="matrix(1,0,0,-1,0,-116.1102)">
	<stop
   offset="0"
   style="stop-color:#026E48"
   id="stop1247" />
	<stop
   offset="0.106"
   style="stop-color:#037048"
   id="stop1249" />
	<stop
   offset="0.2349"
   style="stop-color:#007948"
   id="stop1251" />
	<stop
   offset="0.3755"
   style="stop-color:#248548"
   id="stop1253" />
	<stop
   offset="0.5247"
   style="stop-color:#559A45"
   id="stop1255" />
	<stop
   offset="0.679"
   style="stop-color:#85BB40"
   id="stop1257" />
	<stop
   offset="0.7192"
   style="stop-color:#96C340"
   id="stop1259" />
</linearGradient>
<g
   id="g1862"
   transform="matrix(1.2306659,0,0,1.2306659,2.3854344,6.4655506)"><path
     class="st0"
     d="m 60.739145,14.007501 v -0.02352 c 0,-1.977104 -1.400447,-3.342244 -3.707068,-3.342244 h -2.883269 c -0.588422,0 -1.059162,0.470739 -1.059162,1.059162 v 8.602746 h 1.082696 c 0.564888,0 1.047388,-0.411894 1.047388,-0.941475 v -6.790404 h 1.930042 c 0.8944,0.08239 1.447515,0.588422 1.447515,1.447521 v 0.02352 c 0,0.764952 -0.529581,1.365141 -1.447515,1.459289 h -0.0236 c -0.364819,0 -0.694343,0.15299 -0.929707,0.400131 -0.21183,0.223598 -0.341285,0.541349 -0.341285,0.870867 v 0.62373 h 0.965014 l 0.482501,-0.02352 c 1.930028,-0.152989 3.436397,-1.294532 3.436397,-3.365783 m -34.90527,5.354654 c 0,0.517814 -0.47074,0.941475 -1.047395,0.941475 h -1.059158 v -8.614512 c 0,-0.576657 0.447201,-1.035629 1.012084,-1.047396 h 1.094469 z m 5.907775,-7.037541 -3.048038,3.142181 v 0 l 3.048038,3.142181 c 0.411887,0.411894 0.411887,1.04739 0.02347,1.471056 l -0.03527,0.02352 c -0.411894,0.388361 -1.059157,0.376593 -1.459284,-0.02352 l -4.366104,-4.601471 4.366104,-4.613237 c 0.411894,-0.400131 1.04739,-0.411898 1.459284,-0.02352 l 0.03527,0.02352 c 0.388366,0.411894 0.376592,1.059162 -0.02347,1.45929 m 7.437657,4.636776 v -6.319668 h -1.094456 c -0.576662,0.0118 -1.035629,0.482507 -1.035629,1.059162 v 5.166358 c 0,1.118004 -0.494274,1.600512 -1.329833,1.600512 -0.482514,0 -0.859106,-0.164762 -1.282765,-0.482508 -0.21183,-0.15299 -0.376593,-0.223603 -0.635503,-0.223603 -0.564875,0 -1.012082,0.458974 -1.012082,1.023857 0,0.329518 0.176523,0.647268 0.400126,0.812025 0.611956,0.47074 1.447528,0.847327 2.553758,0.847327 1.047389,0 1.918255,-0.305979 2.51845,-0.894401 0.588422,-0.588423 0.917934,-1.447521 0.917934,-2.589061"
     id="path1224"
     style="fill:#001e64;fill-opacity:1;stroke-width:0.117685" /><path
     class="st0"
     d="m 22.23273,18.361834 h -4.907452 v -7.731879 h -1.094466 c -0.576655,0.0118 -1.035627,0.482507 -1.035627,1.059162 v 8.602746 h 6.060764 c 0.529576,0 0.96501,-0.411895 0.96501,-0.941476 z"
     id="path1226"
     style="fill:#001e64;fill-opacity:1;stroke-width:0.117685" /><path
     class="st0"
     d="m 8.0752673,18.361834 h 5.3311157 v 0.988553 c 0,0.529581 -0.423667,0.941476 -0.953248,0.941476 H 5.9569423 v -8.602746 c 0,-0.588423 0.47074,-1.059162 1.059162,-1.059162 H 13.39461 v 0.953242 c 0,0.529581 -0.423662,0.94148 -0.953243,0.94148 H 8.0752673 v 1.965331 h 3.6835297 c 0.529577,0 0.953242,0.423666 0.953242,0.953247 0,0.529581 -0.423665,0.941479 -0.953242,0.941479 H 8.0752673 Z"
     id="path1228"
     style="fill:#001e64;fill-opacity:1;stroke-width:0.117685" /><path
     class="st0"
     d="m 43.404196,16.6201 c -0.152989,-0.376588 -0.223603,-0.776718 -0.223603,-1.188612 0,-0.411899 0.08233,-0.800258 0.223603,-1.176845 0.152989,-0.388361 0.388366,-0.741418 0.694344,-1.035629 0.294204,-0.294211 0.647262,-0.529581 1.035628,-0.694337 0.376592,-0.15299 0.776718,-0.223603 1.176844,-0.223603 0.4119,0 0.812025,0.08237 1.176844,0.223603 0.117735,0.04708 0.235377,0.07062 0.353059,0.07062 0.27067,0 0.506047,-0.105909 0.68257,-0.294211 l 0.835559,-0.823793 c -0.376592,-0.305979 -0.729651,-0.51781 -1.070936,-0.682571 -0.03527,-0.0118 -0.05887,-0.03529 -0.09414,-0.04708 -0.600182,-0.247137 -1.247445,-0.36482 -1.894721,-0.36482 -0.659036,0 -1.294526,0.129456 -1.894721,0.36482 -0.62373,0.25891 -1.188618,0.62373 -1.671118,1.106238 -0.482514,0.482507 -0.859106,1.047394 -1.106243,1.671123 -0.247137,0.600191 -0.364819,1.247455 -0.364819,1.894723 0,0.659031 0.129402,1.294528 0.364819,1.894723 0.02347,0.04708 0.07067,0.141222 0.09413,0.211831 0.176523,0.305983 0.353059,0.576655 0.62373,0.941479 0,0 0.553115,-0.541353 0.753184,-0.753183 0.129402,-0.09415 0.223603,-0.223603 0.294204,-0.376592 0.105935,-0.223598 0.105935,-0.482507 0.01193,-0.717878 m 7.567125,-3.095103 c -0.129402,-0.282444 -0.282444,-0.564887 -0.47074,-0.823792 -0.01193,-0.02352 -0.247137,-0.329518 -0.235377,-0.341285 l -0.823786,0.835559 c -0.188296,0.176525 -0.294217,0.423662 -0.294217,0.682572 0,0.117681 0.02347,0.247137 0.07067,0.353051 0.152989,0.376593 0.223604,0.77672 0.223604,1.176846 0,0.411899 -0.08234,0.812025 -0.223604,1.176851 -0.152989,0.388359 -0.388365,0.74141 -0.694343,1.035623 -0.294218,0.294211 -0.647263,0.529581 -1.035629,0.694338 -0.376592,0.152993 -0.776718,0.223602 -1.176844,0.223602 -0.411899,0 -0.812025,-0.08237 -1.188617,-0.223602 -0.235364,-0.09415 -0.494274,-0.09415 -0.729638,0 -0.152989,0.05884 -0.282444,0.164761 -0.376592,0.282443 -0.188296,0.176529 -0.776718,0.776719 -0.776718,0.776719 0.400126,0.31775 0.764944,0.529582 1.118003,0.68257 0,0 0.03527,0.0118 0.04707,0.02352 0.600196,0.247137 1.247459,0.36482 1.894722,0.36482 0.659036,0 1.294539,-0.129455 1.894734,-0.36482 0.623729,-0.258905 1.188618,-0.623731 1.671118,-1.106238 0.482514,-0.482507 0.859106,-1.047394 1.106243,-1.671119 0.247137,-0.600194 0.364819,-1.247459 0.364819,-1.894727 0.02347,-0.659032 -0.105935,-1.294528 -0.364819,-1.882952"
     id="path1230"
     style="stroke-width:0.117685" /><path
     class="st1"
     d="M 67.576619,17.079073 64.740431,20.0918 c -1.718199,1.718197 -2.012417,3.907132 -2.012417,4.754459 -0.01193,0.08237 -0.01193,0.164761 -0.01193,0.258909 v 0.02352 c 0,0.717877 0.164762,1.647585 0.25891,1.906489 l 0.21183,0.659037 5.990142,-6.0843 c 0.847332,-0.847327 1.259232,-2.012404 1.15331,-3.201021 -0.09413,-0.917941 -0.494274,-1.788808 -1.15331,-2.436071 l -0.741413,-0.741411 -0.317751,-0.329519 c 0.01193,0.03529 0.305991,1.153311 -0.541342,2.177167"
     id="path1245"
     style="fill:#001e64;fill-opacity:1;stroke-width:0.117685" /><path
     class="st2"
     d="m 62.998698,3.8748527 c 0,0.023521 -0.47074,1.7652727 0.141216,3.9306713 0.494274,1.741728 1.918255,3.354012 1.918255,3.354012 l 5.90778,5.931305 c 1.000322,1.00032 0.717878,2.259546 0.694331,2.294852 v 0 l 0.25891,-0.294215 0.764958,-0.741412 c 0.659023,-0.659031 1.059162,-1.51813 1.15331,-2.436071 0.01193,-0.129455 0.02347,-0.247138 0.02347,-0.364825 v -0.03529 c 0,-1.047395 -0.42366,-2.047717 -1.165084,-2.800896 L 63.139861,3.2393633 Z"
     id="path1262"
     style="fill:#001e64;fill-opacity:1;stroke-width:0.117685" /></g>
</svg>
