<?xml version="1.0" encoding="utf-8"?>
<!-- Generator: Adobe Illustrator 23.0.3, SVG Export Plug-In . SVG Version: 6.00 Build 0)  -->
<svg version="1.1" id="Layer_1" xmlns="http://www.w3.org/2000/svg" xmlns:xlink="http://www.w3.org/1999/xlink" x="0px" y="0px"
	 viewBox="0 0 120 60" style="enable-background:new 0 0 120 60;" xml:space="preserve">
<style type="text/css">
	.st0{fill:#063359;}
</style>
<g id="logo" transform="translate(-1.7904383e-4,9.9926053e-4)">
	<g id="g8095">
		<g id="g8097">
			<path id="path8099" class="st0" d="M58.1,37.9H55l0,0l-2.7-3.2l-2.7,3.2l0,0h-2.5l0,0l0,0l3.9-4.8l-3.9-4.8l0,0l0,0h3.1l0,0
				l2.3,2.8l2.4-2.8l0,0h2.5l0,0l0,0l-3.7,4.4L58.1,37.9C58.2,37.9,58.2,37.9,58.1,37.9L58.1,37.9L58.1,37.9z"/>
			<path id="path8101" class="st0" d="M79.2,33.7L79.2,33.7h-7.1c0.2,1.6,1.2,2.6,2.9,2.6c1.1,0,2.2-0.4,3.8-1.2h0.1v2.2l0,0
				c-1.5,0.6-2.9,1-4.1,1l0,0c-3,0-5.2-2.2-5.2-5.2s2.2-5.2,5.2-5.2c2.7,0,4.6,1.8,4.6,4.4C79.2,32.7,79.2,33.7,79.2,33.7z
				 M74.8,29.9c-1.4,0-2.3,0.8-2.6,2.3h4.7v-0.1C76.8,31,75.9,29.9,74.8,29.9L74.8,29.9z"/>
			<path id="path8103" class="st0" d="M92.3,37.9C92.2,37.9,92.2,37.9,92.3,37.9v-9.6l0,0h2.6l0,0v9.6l0,0H92.3z M93.4,26.2
				c-0.8,0-1.6-0.7-1.6-1.6s0.7-1.6,1.6-1.6c0.8,0,1.6,0.7,1.6,1.6C95,25.6,94.4,26.2,93.4,26.2L93.4,26.2z"/>
			<path id="path8105" class="st0" d="M63.4,27.9c-0.7,0-1.5,0.1-2.2,0.4h-2.6l0,0V44c0.7-0.1,1.7-0.4,2.6-1v-4.8
				c0.6,0.1,1.1,0.2,1.6,0.2c3.5,0,5.7-2.1,5.7-5.3C68.6,30,66.5,27.9,63.4,27.9z M62.7,36.5c-0.5,0-0.9-0.1-1.5-0.2v-6.1
				c0.6-0.2,1.2-0.3,1.7-0.3c1.7,0,2.9,1.3,2.9,3.2C66,35.1,64.7,36.5,62.7,36.5z"/>
			<path id="path8107" class="st0" d="M87.6,23.1v5c-0.7-0.2-1.4-0.3-2-0.3c-3,0-5.3,2.3-5.3,5.3s2,5.2,4.8,5.2
				c0.9,0,1.8-0.3,2.9-0.8v0.8c0.7-0.1,1.5-0.4,2.3-1V22.1C89.4,22.2,88.5,22.5,87.6,23.1z M87.6,35.7c-0.8,0.5-1.5,0.6-2.2,0.6
				c-1.6,0-2.5-1.1-2.5-2.9c0-2.1,1.2-3.6,3-3.6c0.5,0,1,0.1,1.6,0.4C87.6,30.2,87.6,35.7,87.6,35.7z"/>
			<path id="path8109" class="st0" d="M106.2,28.2C106.2,28.1,106.1,28.1,106.2,28.2l-2.1-0.1c-0.1,0-0.1,0.1-0.1,0.1v0.4h-0.1
				c-0.9-0.5-1.7-0.6-2.6-0.6c-2.8,0-5,2.4-5,5.4s2,5.1,4.9,5.1c0.8,0,1.8-0.1,2.7-1.2v1.2c0.6-0.2,1.5-0.5,2.2-1
				C106.2,37.4,106.2,28.2,106.2,28.2z M103.6,35.7c-0.7,0.5-1.5,0.6-2,0.6c-1.6,0-2.7-1.1-2.7-2.9c0-2.1,1.2-3.6,2.9-3.6
				c0.5,0,1,0.2,1.7,0.5L103.6,35.7L103.6,35.7z"/>
			<path id="path8111" class="st0" d="M40.2,35.5h6.4c-0.1,0.7-0.4,1.6-0.9,2.4h-5.5h-1.1H39c-0.8,0-1.5-0.6-1.6-1.5l0,0v-6.5v-6
				l0,0c0.1-0.8,0.7-1.5,1.6-1.5h0.1h7.4c-0.1,0.7-0.4,1.6-0.9,2.4h-5.5v3.4h5.4l0,0v2.4l0,0h-5.4L40.2,35.5L40.2,35.5z"/>
		</g>
		<g id="g8113">
			<path id="path8115" class="st0" d="M32.1,35.8c-0.6,0-1.2,0.5-1.2,1.2s0.5,1.2,1.2,1.2c0.6,0,1.2-0.5,1.2-1.2
				S32.8,35.8,32.1,35.8z M32.1,38.1c-0.6,0-1-0.5-1-1.1s0.5-1.1,1-1.1s1,0.5,1,1.1C33.1,37.7,32.8,38.1,32.1,38.1z"/>
			<path id="path8117" class="st0" d="M32.8,36.7c0-0.3-0.2-0.5-0.5-0.5h-0.5v1.5H32v-0.6h0.2l0.4,0.6h0.3l-0.4-0.6
				C32.6,37.1,32.8,37,32.8,36.7z M31.9,36.9v-0.5h0.3c0.2,0,0.4,0,0.4,0.2s-0.2,0.3-0.4,0.3H31.9L31.9,36.9z"/>
		</g>
		<g id="g8119">
			<path id="path8121" class="st0" d="M108.3,27.5c-0.6,0-1.2,0.5-1.2,1.2s0.5,1.2,1.2,1.2c0.6,0,1.2-0.5,1.2-1.2
				S108.9,27.5,108.3,27.5z M108.3,29.8c-0.6,0-1-0.5-1-1.1s0.5-1.1,1-1.1s1,0.5,1,1.1C109.3,29.4,108.8,29.8,108.3,29.8z"/>
			<path id="path8123" class="st0" d="M108.8,28.4c0-0.3-0.2-0.5-0.5-0.5h-0.5v1.5h0.3v-0.6h0.2l0.4,0.6h0.3l-0.4-0.6
				C108.7,28.8,108.8,28.7,108.8,28.4z M108,28.6v-0.5h0.3c0.2,0,0.4,0,0.4,0.2s-0.2,0.3-0.4,0.3H108L108,28.6z"/>
		</g>
		<g id="g8125">
			<path id="path8127" class="st0" d="M24,24.8l-0.5-1.3l-3.9-5.2l0.7-0.2l6.8,5.9l3.9-1.1c0.5-0.1,1-0.2,1.4-0.2
				c-1.3-2.7-3.6-4.9-6.6-6c-6-2.2-12.6,0.9-14.7,6.9c-0.6,1.8-0.8,3.8-0.5,5.6l9.5-3.3L24,24.8z"/>
			<path id="path8129" class="st0" d="M32.9,23.7c-0.4,0.2-0.8,0.5-1.4,0.7l-4,1.1L24.8,34l-0.7,0.2l0.5-6.5l-0.3-1.4l-3.8,1.1
				l-9.8,2.4c0.8,3.8,3.5,7.1,7.4,8.5c6,2.1,12.6-1,14.7-7C33.7,28.7,33.7,26.1,32.9,23.7z"/>
		</g>
	</g>
</g>
</svg>
