<?xml version="1.0" encoding="utf-8"?>
<!-- Generator: Adobe Illustrator 23.0.3, SVG Export Plug-In . SVG Version: 6.00 Build 0)  -->
<svg version="1.1" id="Layer_1" xmlns="http://www.w3.org/2000/svg" xmlns:xlink="http://www.w3.org/1999/xlink" x="0px" y="0px"
	 viewBox="0 0 120 60" style="enable-background:new 0 0 120 60;" xml:space="preserve">
<style type="text/css">
	.st0{fill:#063359;}
</style>
<g>
	<path class="st0" d="M41.2,48c-9.9,0-18-8-18-18s8-18,18-18c8,0,15.1,5.3,17.3,13c0.1,0.3-0.2,0.7-0.6,0.7c-0.2,0-0.6-0.1-0.7-0.3
		c-2.5-8.9-11.8-14-20.7-11.5S22.6,25.7,25.1,34.7s11.8,14,20.7,11.4c5.6-1.6,9.9-6,11.5-11.5c0.1-0.3,0.5-0.5,0.8-0.4
		s0.5,0.4,0.4,0.7C56.3,42.6,49.2,48,41.2,48z"/>
	<path class="st0" d="M35.7,24.5L35.7,24.5c1.1,0,1.9,0.8,1.9,1.8l0,0c0.8-1.2,2.2-1.9,3.7-1.9c3.5,0,5.4,2.9,5.4,5.6
		c0,2.6-2,5.3-5.2,5.3c-2.2,0-3.3-1.1-3.7-1.8h-0.1V39c-1.1,0-2-0.9-2-2l0,0L35.7,24.5L35.7,24.5z M41.2,26.2c-2,0-3.4,1.8-3.4,3.7
		c0,2.1,1.6,3.7,3.5,3.7c2,0,3.5-1.6,3.5-3.6v-0.1C44.8,28.1,43.3,26.2,41.2,26.2z"/>
	<path class="st0" d="M50.6,35.2h-2V21.2h2V35.2z"/>
	<path class="st0" d="M61.7,35.2v-1.6l0,0c-0.7,1.3-2.1,1.9-3.5,1.9c-3.5,0-5.5-2.7-5.5-5.4c0-2.5,1.8-5.5,5.5-5.5
		c1.5,0,2.8,0.6,3.5,1.7l0,0v-1.5h2v10.4C63.6,35.2,61.7,35.2,61.7,35.2z M58.1,26.2c-2.4,0-3.6,2-3.6,3.7c0,1.9,1.5,3.7,3.5,3.7
		c2,0,3.6-1.6,3.6-3.6l0,0C61.7,27.8,60.2,26.2,58.1,26.2L58.1,26.2z"/>
	<path class="st0" d="M73.4,35.2v-5.6c0-0.8,0-3.3-2.6-3.3c-1.6,0-2.7,1.1-2.7,3.2v5.6h-2V24.8h1.8v1.1l0,0c0.7-0.9,1.9-1.5,3-1.4
		c1.6,0,2.9,0.7,3.7,1.9c0.5,0.8,0.7,1.7,0.7,2.7v6.1L73.4,35.2L73.4,35.2z"/>
	<path class="st0" d="M92.2,35.2L92.2,35.2c-1.1,0-2-0.9-2-2l0,0v-6.6h-1.4v-1.8h1.4v-3.5l0,0c1.1,0,2,0.9,2,2l0,0v1.6H94v1.8h-1.7
		V35.2z"/>
	<path class="st0" d="M88,29.8c0-2.9-2.5-5.3-5.4-5.2c-2.9,0.1-5.3,2.5-5.2,5.4c0,0.2,0,0.3,0,0.5l0,0c0.3,2.9,2.8,5,5.6,4.9
		c1.8,0,3.4-0.8,4.5-2.1l-1.6-0.9c-0.7,0.8-1.9,1.3-3,1.3c-1.6,0-3.3-1-3.7-2.9h8.6C87.9,30.7,88,30.2,88,29.8z M79.3,29.3
		c0.2-1.9,1.8-3.2,3.7-3c1.6,0.2,2.9,1.5,3,3H79.3z"/>
	<path class="st0" d="M96.8,34.2c0,0.6-0.4,1.1-1.1,1.1c-0.6,0-1.1-0.4-1.1-1.1c0-0.6,0.4-1.1,1.1-1.1l0,0
		C96.3,33.1,96.8,33.6,96.8,34.2L96.8,34.2"/>
</g>
</svg>
