<?xml version="1.0" encoding="utf-8"?>
<!-- Generator: Adobe Illustrator 23.0.3, SVG Export Plug-In . SVG Version: 6.00 Build 0)  -->
<svg version="1.1" id="Layer_1" xmlns="http://www.w3.org/2000/svg" xmlns:xlink="http://www.w3.org/1999/xlink" x="0px" y="0px"
	 viewBox="0 0 120 60" style="enable-background:new 0 0 120 60;" xml:space="preserve">
<style type="text/css">
	.st0{fill:#063359;}
</style>
<g transform="matrix(1.25 0 0 -1.25 -279.62 519.24)">
	<g transform="matrix(.25 0 0 .25 224.45 297.78)">
		<path class="st0" d="M33,396.3c0,0,7.8-31.8,9-37c1.4-6,4.1-8.2,11.6-6.7l4.8,19.7c1.2,4.9,2.1,8.4,2.8,13.4h0.1
			c0.6-5,1.3-8.5,2.4-13.4c0,0,2-9,3-13.7c1-4.7,3.8-7.7,11.2-6.1l11.6,43.7h-9.3l-3.9-18.9c-1.1-5.5-2-9.8-2.8-14.8h-0.1
			c-0.7,5-1.5,9.1-2.6,14.5l-4.1,19.3h-9.7l-4.4-18.8c-1.2-5.7-2.4-10.3-3.1-15.2h-0.1c-0.8,4.6-1.8,10.4-2.9,15.9
			c0,0-2.6,13.4-3.5,18.1L33,396.3L33,396.3z M121.9,396.3v-43.7h8.9v9.3v34.4L121.9,396.3L121.9,396.3z M246.9,396.3v-32.3
			c0-4.4,0.8-7.6,2.6-9.5c1.6-1.7,4.1-2.7,7.2-2.7c2.6,0,5.2,0.5,6.4,1l-0.1,6.9c-0.9-0.2-1.9-0.4-3.4-0.4c-3,0-4,1.9-4,5.9v12.3
			h7.7v8.4h-7.7v10.3L246.9,396.3L246.9,396.3z M102,386.2c-5.5,0-9.9-1.5-12.3-2.9l1.7-6c2.2,1.4,5.7,2.5,9,2.5
			c5.5,0,6.3-3.1,6.3-5.1v-0.5c-11.9,0-19.4-4.1-19.4-12.5c0-5.1,3.8-9.9,10.5-9.9c4.1,0,7.5,1.6,9.6,4.2h0.2c0,0,1.4-5.7,8.8-3.5
			c-0.4,2.4-0.5,4.9-0.5,7.9v11.7C116,379.6,112.8,386.2,102,386.2L102,386.2z M155.1,386.2c-5.6,0-8.1-2.8-9.6-5.2h-0.1v4.5H137
			v-32.8h8.9v19.3c0,0.9,0.1,1.9,0.4,2.7c0.7,1.9,2.5,4.2,5.4,4.2c3.6,0,5.3-3,5.3-7.4v-18.7h8.9v19.5c0,0.9,0.1,1.9,0.4,2.7
			c0.7,2.2,2.7,4,5.4,4c3.7,0,5.4-3,5.4-8.2v-18h8.9v19.3c0,10.2-5.2,14.2-11,14.2c-2.6,0-4.6-0.6-6.5-1.8c-1.6-1-2.9-2.3-4.2-4.1
			h-0.1C162.8,383.8,159.5,386.2,155.1,386.2L155.1,386.2z M204.2,386.2c-5.5,0-9.9-1.5-12.3-2.9l1.7-6c2.2,1.4,5.7,2.5,9,2.5
			c5.5,0,6.3-3.1,6.3-5.1v-0.5c-11.9,0-19.4-4.1-19.4-12.5c0-5.1,3.8-9.9,10.5-9.9c4.1,0,7.5,1.6,9.6,4.2h0.2c0,0,1.4-5.7,8.8-3.5
			c-0.4,2.4-0.5,4.9-0.5,7.9v11.7C218.1,379.6,214.9,386.2,204.2,386.2L204.2,386.2z M241.2,386.2c-3.4,0-7.3-2.2-8.9-6.9H232v6.2
			h-8v-32.8h9.2v16.8c0,0.9,0.1,1.7,0.2,2.4c0.7,3.5,3.4,5.8,7.2,5.8c1.1,0,1.8-0.1,2.6-0.2v8.6
			C242.6,386.1,242.1,386.2,241.2,386.2L241.2,386.2z M107.1,368.4v-4.1c0-0.6-0.1-1.2-0.2-1.8c-0.7-2.3-3-4.2-6-4.2
			c-2.5,0-4.4,1.4-4.4,4.3C96.5,367.2,101.4,368.4,107.1,368.4L107.1,368.4z M209.2,368.4v-4.1c0-0.6-0.1-1.2-0.2-1.8
			c-0.7-2.3-3-4.2-6-4.2c-2.5,0-4.4,1.4-4.4,4.3C198.6,367.2,203.6,368.4,209.2,368.4L209.2,368.4z"/>
		<path class="st0" d="M311.4,412.1c-2.9,0-5.1-1.6-5.1-3.5l1.7-19.7c0.2-1.2,1.6-2.1,3.4-2.1c1.8,0,3.2,0.9,3.4,2.1l1.7,19.7
			C316.6,410.5,314.3,412.1,311.4,412.1L311.4,412.1z M283.1,396.3c-1.5,0-3.2-1.2-4.3-3c-1.4-2.5-1.2-5.3,0.5-6.2l17.9-8.4
			c1.1-0.4,2.6,0.4,3.5,1.9c0,0,0,0,0,0c0.9,1.5,0.8,3.2-0.1,4L284.4,396C284,396.2,283.5,396.3,283.1,396.3L283.1,396.3z
			 M339.8,396.3c-0.5,0-1-0.1-1.4-0.3l-16.2-11.4c-0.9-0.8-1-2.5-0.1-4l0,0c0.9-1.5,2.4-2.3,3.5-1.9l17.9,8.4c1.7,1,1.9,3.7,0.5,6.2
			C343,395.1,341.3,396.3,339.8,396.3L339.8,396.3z M297.9,370.3c-0.2,0-0.5,0-0.7-0.1l-17.9-8.3c-1.7-1-1.9-3.8-0.5-6.2
			c1.4-2.5,4-3.7,5.6-2.7l16.2,11.4c0.9,0.8,1,2.5,0.1,4l0,0C300.1,369.5,298.9,370.3,297.9,370.3L297.9,370.3z M324.9,370.3
			c-1,0-2.1-0.8-2.9-2l0,0c-0.9-1.5-0.8-3.2,0.1-4l16.2-11.4c1.7-1,4.2,0.2,5.6,2.7c1.4,2.5,1.2,5.3-0.5,6.2l-17.9,8.3
			C325.4,370.3,325.2,370.3,324.9,370.3L324.9,370.3z M311.4,362.1c-1.8,0-3.2-0.9-3.4-2.1l-1.7-19.7c0-2,2.3-3.5,5.1-3.5
			c2.9,0,5.2,1.6,5.2,3.5l-1.7,19.7C314.6,361.2,313.2,362.1,311.4,362.1L311.4,362.1L311.4,362.1z"/>
	</g>
</g>
</svg>
