<svg width="139" height="163" viewBox="0 0 139 163" fill="none" xmlns="http://www.w3.org/2000/svg">
<path d="M69.1491 163C144.697 134.525 138.156 31.5605 138.156 31.5605C90.6607 14.7296 69.1491 0 69.1491 0C69.1491 0 47.6375 14.7296 0.142523 31.5605C0.142523 31.5605 -6.39876 134.525 69.1491 163Z" fill="#64F9BF"/>
<path d="M69.0281 134.201C116.564 115.715 112.445 48.879 112.445 48.879C82.565 37.9561 69.0281 28.3936 69.0281 28.3936C69.0281 28.3936 55.4913 37.9561 25.6113 48.879C25.6113 48.879 21.4927 115.715 69.0281 134.201Z" fill="#41F6AF"/>
<path d="M84.7149 138.231C84.7956 138.545 84.8461 138.87 84.8461 139.205C84.8461 141.469 83.019 143.306 80.7679 143.306C78.5168 143.306 76.6897 141.469 76.6897 139.205C76.6897 136.942 78.5168 135.104 80.7679 135.104C81.6865 135.104 82.5243 135.419 83.2108 135.937C96.5053 126.973 111.99 109.655 118.612 76.4396L118.824 75.3534L130.645 75.2011C134.663 54.9492 134.299 38.0066 134.138 33.9968C94.2442 19.7444 73.3484 6.92322 69.2197 4.25342C65.091 6.91307 44.2053 19.7444 4.3014 34.0171C4.13989 38.0168 3.78658 54.9593 7.79413 75.2011H19.5846L19.8067 76.2974C23.6023 95.4429 32.8388 120.902 55.2387 135.937C55.9251 135.419 56.763 135.104 57.6816 135.104C59.9327 135.104 61.7598 136.942 61.7598 139.205C61.7598 141.469 59.9327 143.306 57.6816 143.306C55.4305 143.306 53.6034 141.469 53.6034 139.205C53.6034 138.86 53.6538 138.535 53.7346 138.221C31.0016 122.963 21.4016 97.463 17.3638 77.9318H7.01685C7.40044 79.7286 7.82441 81.5558 8.27867 83.3932C8.65217 83.2816 9.04586 83.2003 9.45974 83.2003C11.7108 83.2003 13.5379 85.0377 13.5379 87.3015C13.5379 88.743 12.801 90.0017 11.6805 90.7326C21.9064 124.75 41.2274 147.468 69.2197 158.229C97.212 147.468 116.533 124.75 126.759 90.7326C125.648 90.0017 124.901 88.743 124.901 87.3015C124.901 85.0377 126.729 83.2003 128.98 83.2003C129.394 83.2003 129.787 83.2816 130.161 83.3932C130.615 81.5558 131.039 79.7286 131.423 77.9318L121.045 78.0638C116.987 97.6254 107.377 123.004 84.7048 138.221L84.7149 138.231ZM78.0524 17.6532C80.3035 17.6532 82.1307 19.4906 82.1307 21.7543C82.1307 22.3025 82.0196 22.8304 81.8177 23.3075C90.5193 27.835 104.157 34.1694 123.236 40.9606L124.084 41.2652L124.144 42.1687C124.165 42.5544 124.669 51.0003 123.367 63.2022C124.679 63.8824 125.588 65.2426 125.588 66.8364C125.588 69.1001 123.761 70.9375 121.51 70.9375C119.259 70.9375 117.431 69.1001 117.431 66.8364C117.431 64.867 118.814 63.2225 120.662 62.8266C121.691 53.1118 121.55 45.7115 121.459 43.2447C102.199 36.3418 88.5205 29.9261 79.8897 25.3986C79.3344 25.6829 78.7086 25.8656 78.0423 25.8656C75.7913 25.8656 73.9641 24.0282 73.9641 21.7645C73.9641 19.5007 75.7913 17.6633 78.0423 17.6633L78.0524 17.6532ZM16.9297 70.9172C14.6786 70.9172 12.8515 69.0798 12.8515 66.8161C12.8515 65.2223 13.76 63.8621 15.0723 63.1819C13.7701 50.9902 14.2749 42.5443 14.295 42.1484L14.3556 41.2449L15.2036 40.9403C34.2318 34.1694 47.8595 27.8451 56.6216 23.2872C56.4298 22.8101 56.3087 22.2822 56.3087 21.734C56.3087 19.4703 58.1358 17.6329 60.3869 17.6329C62.638 17.6329 64.4651 19.4703 64.4651 21.734C64.4651 23.9978 62.638 25.8352 60.3869 25.8352C59.7207 25.8352 59.0948 25.6524 58.5396 25.3682C49.8583 29.9261 36.1801 36.3316 16.9701 43.2142C16.8793 45.6912 16.7379 53.0813 17.7676 62.7962C19.6149 63.1819 20.9978 64.8264 20.9978 66.8059C20.9978 69.0697 19.1707 70.9071 16.9196 70.9071L16.9297 70.9172ZM69.0279 134.383C21.4925 115.898 25.6111 49.0614 25.6111 49.0614C55.491 38.1386 69.0279 28.576 69.0279 28.576C69.0279 28.576 82.5647 38.1386 112.445 49.0614C112.445 49.0614 116.563 115.898 69.0279 134.383Z" fill="#000C3F"/>
<path d="M109.991 51.0002C86.5215 42.2802 73.4894 34.5753 69.2295 31.8547C64.9696 34.5753 51.9274 42.2802 28.4676 51.0002C28.3666 55.7307 28.4978 69.3538 32.3641 84.2458C38.552 108.081 50.9583 123.958 69.2295 131.45C87.5108 123.968 99.9069 108.091 106.095 84.2458C109.961 69.3538 110.092 55.7307 109.991 51.0002Z" fill="#000C3F"/>
<path d="M69.2197 31.8448C64.9598 34.5654 51.9176 42.2703 28.4578 50.9903C28.3568 55.7208 28.4881 69.3439 32.3543 84.2359C38.5423 108.071 50.9485 123.948 69.2197 131.44" fill="#1C445F"/>
<path d="M92.4678 60.167V80.0433L96.223 82.1446V62.2886L92.4678 60.167Z" fill="url(#paint0_linear_540_1505)"/>
<path d="M42.3076 82.1446L46.0628 80.0433V60.167L42.3076 62.2886V82.1446Z" fill="url(#paint1_linear_540_1505)"/>
<path d="M60.6494 81.9519L77.8809 91.6768V87.4539L61.7598 78.3481L60.6494 78.9674V81.962V81.9519Z" fill="#2BEDA7"/>
<path d="M78.8607 97.3005L60.6501 87.0273V91.2503L65.5157 93.9912L59.681 97.3005C59.2873 97.5137 59.2873 98.0821 59.681 98.2953L62.5479 99.9094L69.281 96.1128L76.0141 99.9094L78.8809 98.2953C79.2746 98.0821 79.2746 97.534 78.8809 97.3005H78.8607Z" fill="#2BEDA7"/>
<path d="M92.4678 72.0137V89.6161C92.4678 90.0628 92.9624 90.3369 93.3561 90.1237L95.9201 88.6822C96.0917 88.5807 96.223 88.3878 96.223 88.1746V69.8921L92.4678 72.0137Z" fill="url(#paint2_linear_540_1505)"/>
<path d="M85.1286 94.783L87.5412 93.4227C87.8238 93.2704 87.9752 92.976 87.9752 92.6816V74.5717L84.2402 76.6933V94.2957C84.2402 94.7221 84.7147 94.9961 85.1286 94.783Z" fill="url(#paint3_linear_540_1505)"/>
<path d="M75.9932 99.9195L79.4455 97.9704C79.6171 97.8689 79.7484 97.676 79.7484 97.4629V79.1803L76.0134 81.3019V99.9195H75.9932Z" fill="url(#paint4_linear_540_1505)"/>
<path d="M59.0848 97.9804L62.5372 99.9295V81.3322L58.8022 79.2106V97.4931C58.782 97.686 58.893 97.8789 59.0848 97.9804Z" fill="url(#paint5_linear_540_1505)"/>
<path d="M50.9888 93.4226L53.4014 94.7829C53.795 94.9961 54.2897 94.722 54.2897 94.2753V76.6729L50.5547 74.5513V92.6612C50.5547 92.9759 50.7061 93.2602 50.9888 93.4226Z" fill="url(#paint6_linear_540_1505)"/>
<path d="M42.7619 88.7733L45.1745 90.1336C45.5682 90.3468 46.0628 90.0727 46.0628 89.626V72.0236L42.3076 69.902V88.012C42.3076 88.3266 42.4792 88.6109 42.7619 88.7733Z" fill="url(#paint7_linear_540_1505)"/>
<path d="M96.2231 62.2886L92.4679 60.167L85.7348 63.9636L81.2427 61.4359L87.1077 58.1266C87.5014 57.9134 87.5014 57.3449 87.1077 57.1318L84.6951 55.7715C84.4124 55.6192 84.0894 55.6192 83.8067 55.7715L77.5077 59.3143L73.0156 56.7866L78.8806 53.4773C79.2743 53.2641 79.2743 52.6956 78.8806 52.4825L76.468 51.1222C76.1853 50.9699 75.8623 50.9699 75.5797 51.1222L69.2806 54.665L62.9816 51.1019C62.699 50.9496 62.3759 50.9496 62.0933 51.1019L59.6605 52.4825C59.2668 52.6956 59.2668 53.2641 59.6605 53.4773L92.4578 72.0136L96.1928 69.892L89.4597 66.0954L96.213 62.2988L96.2231 62.2886Z" fill="#2BEDA7"/>
<path d="M53.856 55.7717L51.4232 57.132C51.0295 57.3451 51.0295 57.9136 51.4232 58.1268L84.2205 76.6631L87.9757 74.5415L54.7443 55.7717C54.4617 55.6194 54.1184 55.6194 53.856 55.7717Z" fill="#2BEDA7"/>
<path d="M42.3076 62.2887L49.0609 66.0853L42.3076 69.9124L46.0628 72.0137L52.7959 68.2171L57.288 70.7448L50.5549 74.5718L54.2899 76.6731L61.0432 72.8765L65.5151 75.4042L58.782 79.2313L62.5372 81.3326L69.2703 77.536L76.0033 81.3326L79.7585 79.2313L46.0729 60.1874L42.3177 62.309L42.3076 62.2887Z" fill="#2BEDA7"/>
<path d="M17.3941 78.0739L7.01685 77.942C7.40044 79.7387 7.82441 81.566 8.27867 83.4034C8.65217 83.2917 9.04586 83.2105 9.45974 83.2105C11.7108 83.2105 13.5379 85.0479 13.5379 87.3116C13.5379 88.7531 12.801 90.0119 11.6805 90.7428C21.9064 124.76 41.2274 147.479 69.2197 158.239C69.3812 158.178 69.5326 158.107 69.6941 158.046V134.282C69.6033 134.322 69.5124 134.363 69.4115 134.394C21.8761 115.898 25.9947 49.0614 25.9947 49.0614C55.8746 38.1386 69.4115 28.576 69.4115 28.576C69.4115 28.576 69.5124 28.6471 69.6941 28.7689V4.55796C69.5225 4.44629 69.361 4.34478 69.2197 4.25342C65.091 6.91307 44.2053 19.7444 4.3014 34.0171C4.13989 38.0168 3.78658 54.9695 7.79413 75.2214L19.6149 75.3737L19.8269 76.4599C26.4489 109.665 41.934 126.983 55.2286 135.957C55.915 135.439 56.7529 135.124 57.6715 135.124C59.9226 135.124 61.7497 136.962 61.7497 139.226C61.7497 141.489 59.9226 143.327 57.6715 143.327C55.4204 143.327 53.5933 141.489 53.5933 139.226C53.5933 138.891 53.6437 138.566 53.7245 138.251C31.0521 123.034 21.442 97.6559 17.384 78.0942L17.3941 78.0739ZM16.9802 43.2244C16.8893 45.7013 16.748 53.0915 17.7777 62.8063C19.625 63.1921 21.0079 64.8366 21.0079 66.8161C21.0079 69.0798 19.1808 70.9172 16.9297 70.9172C14.6786 70.9172 12.8515 69.0798 12.8515 66.8161C12.8515 65.2223 13.76 63.8621 15.0723 63.1819C13.7701 50.9902 14.2749 42.5443 14.295 42.1484L14.3556 41.2449L15.2036 40.9403C34.2823 34.1491 47.91 27.8147 56.6216 23.2872C56.4298 22.8101 56.3087 22.2822 56.3087 21.734C56.3087 19.4703 58.1358 17.6329 60.3869 17.6329C62.638 17.6329 64.4651 19.4703 64.4651 21.734C64.4651 23.9978 62.638 25.8352 60.3869 25.8352C59.7207 25.8352 59.0948 25.6524 58.5396 25.3682C49.9188 29.8957 36.2306 36.3113 16.9701 43.2142L16.9802 43.2244Z" fill="#1C445F"/>
<defs>
<linearGradient id="paint0_linear_540_1505" x1="94.3454" y1="60.167" x2="94.3454" y2="82.1446" gradientUnits="userSpaceOnUse">
<stop stop-color="#2BEDA7"/>
<stop offset="1" stop-color="#018AFD"/>
</linearGradient>
<linearGradient id="paint1_linear_540_1505" x1="44.1852" y1="-1016.59" x2="44.1852" y2="-1016.59" gradientUnits="userSpaceOnUse">
<stop stop-color="#2BEDA7"/>
<stop offset="1" stop-color="#018AFD"/>
</linearGradient>
<linearGradient id="paint2_linear_540_1505" x1="0.00135809" y1="69.8921" x2="1.02217" y2="90.2043" gradientUnits="userSpaceOnUse">
<stop stop-color="#2BEDA7"/>
<stop offset="1" stop-color="#018AFD"/>
</linearGradient>
<linearGradient id="paint3_linear_540_1505" x1="86.1077" y1="74.5615" x2="86.1077" y2="94.854" gradientUnits="userSpaceOnUse">
<stop stop-color="#2BEDA7"/>
<stop offset="1" stop-color="#018AFD"/>
</linearGradient>
<linearGradient id="paint4_linear_540_1505" x1="77.8708" y1="79.2006" x2="77.8708" y2="99.9296" gradientUnits="userSpaceOnUse">
<stop stop-color="#2BEDA7"/>
<stop offset="1" stop-color="#018AFD"/>
</linearGradient>
<linearGradient id="paint5_linear_540_1505" x1="60.6697" y1="79.2106" x2="60.6697" y2="99.9396" gradientUnits="userSpaceOnUse">
<stop stop-color="#2BEDA7"/>
<stop offset="1" stop-color="#018AFD"/>
</linearGradient>
<linearGradient id="paint6_linear_540_1505" x1="52.4222" y1="74.5411" x2="52.4222" y2="94.8539" gradientUnits="userSpaceOnUse">
<stop stop-color="#2BEDA7"/>
<stop offset="1" stop-color="#018AFD"/>
</linearGradient>
<linearGradient id="paint7_linear_540_1505" x1="44.1852" y1="69.8918" x2="44.1852" y2="90.2046" gradientUnits="userSpaceOnUse">
<stop stop-color="#2BEDA7"/>
<stop offset="1" stop-color="#018AFD"/>
</linearGradient>
</defs>
</svg>
