<svg width="850" height="500" viewBox="0 0 850 500" fill="none" xmlns="http://www.w3.org/2000/svg">
<g clip-path="url(#clip0_566_1003)">
<path d="M850 0H0V500H850V0Z" fill="white"/>
<path d="M0 0L850 144.954V367.431L350.779 500L0 0Z" fill="url(#paint0_linear_566_1003)"/>
<g filter="url(#filter0_f_566_1003)">
<path d="M645.412 289.807L427.063 361.927L335.32 223.394L523.394 203.211L645.412 289.807Z" fill="#024280" fill-opacity="0.1"/>
</g>
<path d="M701.743 261.236L457.431 281.026L386.631 163.235L587.248 147.323L701.743 261.236Z" fill="#E4F2FE"/>
<path d="M533 227.719C596.367 203.836 590.88 117.472 590.88 117.472C551.043 103.355 533 91 533 91C533 91 514.957 103.355 475.12 117.472C475.12 117.472 469.633 203.836 533 227.719Z" fill="#64F9BF"/>
<path d="M532.9 203.563C572.771 188.058 569.317 131.998 569.317 131.998C544.254 122.836 532.9 114.815 532.9 114.815C532.9 114.815 521.546 122.836 496.484 131.998C496.484 131.998 493.029 188.058 532.9 203.563Z" fill="#41F6AF"/>
<path d="M546.056 206.943C546.124 207.207 546.166 207.48 546.166 207.761C546.166 209.66 544.633 211.201 542.745 211.201C540.857 211.201 539.325 209.66 539.325 207.761C539.325 205.862 540.857 204.321 542.745 204.321C543.516 204.321 544.219 204.585 544.794 205.019C555.945 197.501 568.934 182.975 574.488 155.115L574.666 154.204L584.581 154.076C587.951 137.09 587.646 122.879 587.51 119.515C554.049 107.561 536.522 96.807 533.059 94.5676C529.596 96.7985 512.078 107.561 478.608 119.532C478.472 122.887 478.176 137.098 481.537 154.076H491.427L491.613 154.996C494.797 171.054 502.544 192.409 521.332 205.019C521.908 204.585 522.611 204.321 523.381 204.321C525.269 204.321 526.802 205.862 526.802 207.761C526.802 209.66 525.269 211.201 523.381 211.201C521.493 211.201 519.961 209.66 519.961 207.761C519.961 207.471 520.003 207.199 520.071 206.935C501.003 194.137 492.951 172.749 489.564 156.367H480.885C481.207 157.874 481.563 159.406 481.944 160.948C482.257 160.854 482.587 160.786 482.934 160.786C484.823 160.786 486.355 162.327 486.355 164.226C486.355 165.435 485.737 166.491 484.797 167.104C493.374 195.636 509.58 214.692 533.059 223.717C556.538 214.692 572.744 195.636 581.321 167.104C580.39 166.491 579.763 165.435 579.763 164.226C579.763 162.327 581.296 160.786 583.184 160.786C583.531 160.786 583.861 160.854 584.174 160.948C584.555 159.406 584.911 157.874 585.233 156.367L576.529 156.477C573.125 172.885 565.064 194.172 546.047 206.935L546.056 206.943ZM540.468 105.807C542.356 105.807 543.888 107.348 543.888 109.247C543.888 109.707 543.795 110.149 543.626 110.55C550.924 114.347 562.363 119.66 578.366 125.356L579.077 125.612L579.128 126.37C579.145 126.693 579.568 133.777 578.476 144.012C579.577 144.582 580.339 145.723 580.339 147.06C580.339 148.959 578.806 150.5 576.918 150.5C575.03 150.5 573.497 148.959 573.497 147.06C573.497 145.408 574.657 144.029 576.207 143.697C577.071 135.548 576.952 129.341 576.876 127.272C560.721 121.482 549.248 116.101 542.009 112.304C541.543 112.542 541.018 112.695 540.459 112.695C538.571 112.695 537.039 111.154 537.039 109.255C537.039 107.357 538.571 105.815 540.459 105.815L540.468 105.807ZM489.2 150.483C487.312 150.483 485.779 148.942 485.779 147.043C485.779 145.706 486.541 144.565 487.642 143.995C486.55 133.769 486.973 126.685 486.99 126.353L487.041 125.595L487.752 125.339C503.712 119.66 515.143 114.356 522.492 110.533C522.331 110.132 522.23 109.69 522.23 109.23C522.23 107.331 523.762 105.79 525.65 105.79C527.539 105.79 529.071 107.331 529.071 109.23C529.071 111.129 527.539 112.67 525.65 112.67C525.092 112.67 524.567 112.516 524.101 112.278C516.819 116.101 505.347 121.474 489.234 127.247C489.158 129.324 489.039 135.523 489.903 143.671C491.452 143.995 492.612 145.374 492.612 147.035C492.612 148.933 491.08 150.475 489.192 150.475L489.2 150.483ZM532.898 203.716C493.027 188.211 496.482 132.151 496.482 132.151C521.544 122.989 532.898 114.969 532.898 114.969C532.898 114.969 544.252 122.989 569.315 132.151C569.315 132.151 572.769 188.211 532.898 203.716Z" fill="#000C3F"/>
<path d="M567.256 133.777C547.57 126.463 536.639 120 533.066 117.719C529.493 120 518.554 126.463 498.876 133.777C498.792 137.745 498.902 149.171 502.145 161.662C507.335 181.655 517.741 194.972 533.066 201.255C548.4 194.98 558.797 181.663 563.988 161.662C567.231 149.171 567.341 137.745 567.256 133.777Z" fill="#000C3F"/>
<path d="M533.058 117.711C529.485 119.993 518.546 126.455 498.869 133.769C498.784 137.737 498.894 149.164 502.137 161.655C507.327 181.647 517.733 194.964 533.058 201.247" fill="#1C445F"/>
<path d="M552.561 141.466V158.138L555.71 159.9V143.246L552.561 141.466Z" fill="url(#paint1_linear_566_1003)"/>
<path d="M510.486 159.9L513.636 158.138V141.466L510.486 143.246V159.9Z" fill="url(#paint2_linear_566_1003)"/>
<path d="M525.869 159.739L540.322 167.895V164.353L526.801 156.716L525.869 157.235V159.747V159.739Z" fill="#2BEDA7"/>
<path d="M541.147 172.613L525.873 163.996V167.538L529.954 169.837L525.06 172.613C524.73 172.791 524.73 173.268 525.06 173.447L527.465 174.801L533.112 171.616L538.76 174.801L541.164 173.447C541.495 173.268 541.495 172.808 541.164 172.613H541.147Z" fill="#2BEDA7"/>
<path d="M552.561 151.403V166.167C552.561 166.542 552.975 166.771 553.306 166.593L555.456 165.384C555.6 165.298 555.71 165.137 555.71 164.958V149.623L552.561 151.403Z" fill="url(#paint3_linear_566_1003)"/>
<path d="M546.405 170.501L548.429 169.36C548.666 169.232 548.793 168.985 548.793 168.738V153.548L545.66 155.328V170.092C545.66 170.45 546.058 170.68 546.405 170.501Z" fill="url(#paint4_linear_566_1003)"/>
<path d="M538.74 174.809L541.636 173.174C541.78 173.089 541.89 172.927 541.89 172.749V157.414L538.757 159.193V174.809H538.74Z" fill="url(#paint5_linear_566_1003)"/>
<path d="M524.559 173.183L527.455 174.818V159.219L524.322 157.439V172.774C524.305 172.936 524.398 173.098 524.559 173.183Z" fill="url(#paint6_linear_566_1003)"/>
<path d="M517.766 169.36L519.79 170.501C520.12 170.68 520.535 170.45 520.535 170.075V155.311L517.402 153.531V168.721C517.402 168.985 517.529 169.224 517.766 169.36Z" fill="url(#paint7_linear_566_1003)"/>
<path d="M510.867 165.46L512.891 166.601C513.221 166.78 513.636 166.55 513.636 166.175V151.411L510.486 149.632V164.822C510.486 165.086 510.63 165.324 510.867 165.46Z" fill="url(#paint8_linear_566_1003)"/>
<path d="M555.708 143.246L552.558 141.466L546.911 144.651L543.143 142.531L548.062 139.755C548.393 139.576 548.393 139.099 548.062 138.92L546.039 137.779C545.802 137.652 545.531 137.652 545.294 137.779L540.01 140.751L536.242 138.631L541.162 135.855C541.492 135.676 541.492 135.199 541.162 135.021L539.138 133.88C538.901 133.752 538.63 133.752 538.393 133.88L533.11 136.851L527.826 133.863C527.589 133.735 527.318 133.735 527.081 133.863L525.041 135.021C524.71 135.199 524.71 135.676 525.041 135.855L552.55 151.403L555.683 149.623L550.035 146.439L555.7 143.254L555.708 143.246Z" fill="#2BEDA7"/>
<path d="M520.173 137.779L518.132 138.92C517.802 139.099 517.802 139.576 518.132 139.755L545.642 155.302L548.791 153.523L520.918 137.779C520.681 137.652 520.393 137.652 520.173 137.779Z" fill="#2BEDA7"/>
<path d="M510.486 143.246L516.151 146.43L510.486 149.64L513.636 151.403L519.284 148.218L523.051 150.338L517.404 153.548L520.537 155.311L526.201 152.126L529.952 154.247L524.304 157.457L527.454 159.219L533.102 156.035L538.749 159.219L541.899 157.457L513.645 141.483L510.495 143.263L510.486 143.246Z" fill="#2BEDA7"/>
<path d="M489.589 156.486L480.885 156.375C481.207 157.882 481.563 159.415 481.944 160.956C482.257 160.862 482.587 160.794 482.934 160.794C484.823 160.794 486.355 162.335 486.355 164.234C486.355 165.443 485.737 166.499 484.797 167.112C493.374 195.645 509.58 214.7 533.059 223.726C533.195 223.675 533.322 223.615 533.457 223.564V203.631C533.381 203.665 533.305 203.699 533.22 203.725C493.349 188.211 496.803 132.151 496.803 132.151C521.866 122.989 533.22 114.969 533.22 114.969C533.22 114.969 533.305 115.028 533.457 115.13V94.8231C533.313 94.7294 533.178 94.6443 533.059 94.5676C529.596 96.7985 512.078 107.561 478.608 119.532C478.472 122.887 478.176 137.107 481.537 154.093L491.452 154.221L491.63 155.132C497.184 182.983 510.173 197.509 521.324 205.036C521.9 204.602 522.602 204.338 523.373 204.338C525.261 204.338 526.793 205.879 526.793 207.778C526.793 209.677 525.261 211.218 523.373 211.218C521.485 211.218 519.952 209.677 519.952 207.778C519.952 207.497 519.994 207.224 520.062 206.96C501.045 194.197 492.985 172.911 489.581 156.503L489.589 156.486ZM489.242 127.255C489.166 129.333 489.048 135.531 489.911 143.68C491.461 144.003 492.621 145.383 492.621 147.043C492.621 148.942 491.088 150.483 489.2 150.483C487.312 150.483 485.779 148.942 485.779 147.043C485.779 145.706 486.541 144.565 487.642 143.995C486.55 133.769 486.973 126.685 486.99 126.353L487.041 125.595L487.752 125.339C503.755 119.643 515.185 114.33 522.492 110.533C522.331 110.132 522.23 109.69 522.23 109.23C522.23 107.331 523.762 105.79 525.65 105.79C527.539 105.79 529.071 107.331 529.071 109.23C529.071 111.129 527.539 112.67 525.65 112.67C525.092 112.67 524.567 112.516 524.101 112.278C516.87 116.076 505.389 121.457 489.234 127.247L489.242 127.255Z" fill="#1C445F"/>
</g>
<defs>
<filter id="filter0_f_566_1003" x="305.32" y="173.211" width="370.092" height="218.716" filterUnits="userSpaceOnUse" color-interpolation-filters="sRGB">
<feFlood flood-opacity="0" result="BackgroundImageFix"/>
<feBlend mode="normal" in="SourceGraphic" in2="BackgroundImageFix" result="shape"/>
<feGaussianBlur stdDeviation="15" result="effect1_foregroundBlur_566_1003"/>
</filter>
<linearGradient id="paint0_linear_566_1003" x1="209.645" y1="113.761" x2="815.99" y2="352.343" gradientUnits="userSpaceOnUse">
<stop stop-color="#D4FDED" stop-opacity="0"/>
<stop offset="0.451127" stop-color="#D4FDED" stop-opacity="0.65"/>
<stop offset="1" stop-color="#D4FDED" stop-opacity="0"/>
</linearGradient>
<linearGradient id="paint1_linear_566_1003" x1="554.135" y1="141.466" x2="554.135" y2="159.9" gradientUnits="userSpaceOnUse">
<stop stop-color="#2BEDA7"/>
<stop offset="1" stop-color="#018AFD"/>
</linearGradient>
<linearGradient id="paint2_linear_566_1003" x1="512.061" y1="-761.678" x2="512.061" y2="-761.678" gradientUnits="userSpaceOnUse">
<stop stop-color="#2BEDA7"/>
<stop offset="1" stop-color="#018AFD"/>
</linearGradient>
<linearGradient id="paint3_linear_566_1003" x1="475.003" y1="149.623" x2="475.859" y2="166.66" gradientUnits="userSpaceOnUse">
<stop stop-color="#2BEDA7"/>
<stop offset="1" stop-color="#018AFD"/>
</linearGradient>
<linearGradient id="paint4_linear_566_1003" x1="547.227" y1="153.54" x2="547.227" y2="170.561" gradientUnits="userSpaceOnUse">
<stop stop-color="#2BEDA7"/>
<stop offset="1" stop-color="#018AFD"/>
</linearGradient>
<linearGradient id="paint5_linear_566_1003" x1="540.315" y1="157.431" x2="540.315" y2="174.818" gradientUnits="userSpaceOnUse">
<stop stop-color="#2BEDA7"/>
<stop offset="1" stop-color="#018AFD"/>
</linearGradient>
<linearGradient id="paint6_linear_566_1003" x1="525.889" y1="157.439" x2="525.889" y2="174.826" gradientUnits="userSpaceOnUse">
<stop stop-color="#2BEDA7"/>
<stop offset="1" stop-color="#018AFD"/>
</linearGradient>
<linearGradient id="paint7_linear_566_1003" x1="518.969" y1="153.523" x2="518.969" y2="170.56" gradientUnits="userSpaceOnUse">
<stop stop-color="#2BEDA7"/>
<stop offset="1" stop-color="#018AFD"/>
</linearGradient>
<linearGradient id="paint8_linear_566_1003" x1="512.061" y1="149.623" x2="512.061" y2="166.661" gradientUnits="userSpaceOnUse">
<stop stop-color="#2BEDA7"/>
<stop offset="1" stop-color="#018AFD"/>
</linearGradient>
<clipPath id="clip0_566_1003">
<rect width="850" height="500" fill="white"/>
</clipPath>
</defs>
</svg>
