<svg width="931" height="545" viewBox="0 0 931 545" fill="none" xmlns="http://www.w3.org/2000/svg">
<g clip-path="url(#clip0_557_897)">
<path d="M930.5 0H0V545H930.5V0Z" fill="white"/>
<path d="M0 0L930.5 158V400.5L384 545L0 0Z" fill="url(#paint0_linear_557_897)"/>
<path d="M572.508 247.068L572.589 247.911L572.75 247.462C572.669 247.328 572.598 247.193 572.508 247.068Z" fill="#0085FD"/>
<path d="M572.508 247.068L572.589 247.911L572.75 247.462C572.669 247.328 572.598 247.193 572.508 247.068Z" fill="white"/>
<path d="M599.494 216.443C599.647 216.183 599.79 215.923 599.898 215.654C599.781 215.923 599.647 216.183 599.494 216.443Z" fill="white"/>
<g filter="url(#filter0_f_557_897)">
<path d="M742 342.706L504 404.921L404 285.412L609 268L742 342.706Z" fill="#024280" fill-opacity="0.1"/>
</g>
<path d="M758.9 319.747L492.6 341.318L415.428 212.926L634.101 195.582L758.9 319.747Z" fill="#E4F2FE"/>
<path d="M573.434 271.101C653.664 240.862 646.717 131.516 646.717 131.516C596.279 113.642 573.434 98 573.434 98C573.434 98 550.59 113.642 500.151 131.516C500.151 131.516 493.205 240.862 573.434 271.101Z" fill="#64F9BF"/>
<path d="M573.306 240.517C623.788 220.886 619.414 149.908 619.414 149.908C587.682 138.308 573.306 128.153 573.306 128.153C573.306 128.153 558.931 138.308 527.199 149.908C527.199 149.908 522.825 220.886 573.306 240.517Z" fill="#41F6AF"/>
<path d="M589.965 244.797C590.051 245.131 590.105 245.476 590.105 245.832C590.105 248.236 588.164 250.187 585.774 250.187C583.383 250.187 581.443 248.236 581.443 245.832C581.443 243.428 583.383 241.477 585.774 241.477C586.749 241.477 587.639 241.811 588.368 242.361C602.486 232.842 618.931 214.45 625.964 179.177L626.189 178.023L638.742 177.861C643.009 156.355 642.623 138.362 642.451 134.104C600.085 118.968 577.894 105.352 573.51 102.517C569.125 105.342 546.945 118.968 504.568 134.125C504.397 138.373 504.022 156.365 508.278 177.861H520.799L521.035 179.026C525.065 199.358 534.874 226.395 558.662 242.361C559.391 241.811 560.281 241.477 561.257 241.477C563.647 241.477 565.588 243.428 565.588 245.832C565.588 248.236 563.647 250.187 561.257 250.187C558.866 250.187 556.926 248.236 556.926 245.832C556.926 245.466 556.979 245.121 557.065 244.786C532.923 228.583 522.728 201.503 518.44 180.761H507.452C507.86 182.67 508.31 184.61 508.792 186.561C509.189 186.443 509.607 186.356 510.046 186.356C512.437 186.356 514.377 188.308 514.377 190.712C514.377 192.243 513.595 193.579 512.405 194.356C523.264 230.481 543.783 254.607 573.51 266.035C603.237 254.607 623.755 230.481 634.615 194.356C633.435 193.579 632.642 192.243 632.642 190.712C632.642 188.308 634.583 186.356 636.973 186.356C637.413 186.356 637.831 186.443 638.227 186.561C638.71 184.61 639.16 182.67 639.567 180.761L628.547 180.902C624.238 201.675 614.032 228.627 589.955 244.786L589.965 244.797ZM582.89 116.747C585.281 116.747 587.221 118.699 587.221 121.103C587.221 121.685 587.103 122.245 586.889 122.752C596.129 127.56 610.612 134.287 630.873 141.499L631.774 141.823L631.838 142.782C631.86 143.192 632.396 152.161 631.013 165.119C632.406 165.841 633.371 167.286 633.371 168.978C633.371 171.382 631.431 173.334 629.04 173.334C626.65 173.334 624.709 171.382 624.709 168.978C624.709 166.887 626.178 165.141 628.14 164.72C629.233 154.403 629.083 146.544 628.987 143.925C608.533 136.594 594.007 129.781 584.841 124.973C584.251 125.275 583.587 125.469 582.879 125.469C580.489 125.469 578.548 123.517 578.548 121.113C578.548 118.709 580.489 116.758 582.879 116.758L582.89 116.747ZM517.979 173.312C515.589 173.312 513.648 171.361 513.648 168.957C513.648 167.264 514.613 165.82 516.007 165.097C514.624 152.15 515.16 143.181 515.181 142.76L515.246 141.801L516.146 141.478C536.354 134.287 550.826 127.571 560.131 122.73C559.927 122.224 559.799 121.663 559.799 121.081C559.799 118.677 561.739 116.726 564.13 116.726C566.52 116.726 568.461 118.677 568.461 121.081C568.461 123.485 566.52 125.436 564.13 125.436C563.422 125.436 562.758 125.242 562.168 124.94C552.949 129.781 538.423 136.583 518.022 143.892C517.926 146.523 517.776 154.371 518.869 164.688C520.831 165.097 522.3 166.844 522.3 168.946C522.3 171.35 520.359 173.301 517.969 173.301L517.979 173.312ZM573.306 240.711C522.825 221.08 527.199 150.102 527.199 150.102C558.93 138.502 573.306 128.347 573.306 128.347C573.306 128.347 587.682 138.502 619.414 150.102C619.414 150.102 623.787 221.08 573.306 240.711Z" fill="#000C3F"/>
<path d="M616.808 152.161C591.884 142.9 578.044 134.718 573.52 131.829C568.997 134.718 555.146 142.9 530.232 152.161C530.125 157.184 530.265 171.652 534.37 187.467C540.942 212.779 554.117 229.64 573.52 237.596C592.935 229.65 606.099 212.79 612.671 187.467C616.776 171.652 616.916 157.184 616.808 152.161Z" fill="#000C3F"/>
<path d="M573.509 131.819C568.985 134.708 555.134 142.89 530.221 152.15C530.114 157.174 530.253 171.641 534.359 187.456C540.93 212.769 554.105 229.629 573.509 237.585" fill="#1C445F"/>
<path d="M598.199 161.896V183.004L602.187 185.235V164.149L598.199 161.896Z" fill="url(#paint1_linear_557_897)"/>
<path d="M544.93 185.235L548.918 183.004V161.896L544.93 164.149V185.235Z" fill="url(#paint2_linear_557_897)"/>
<path d="M564.408 185.031L582.708 195.358V190.874L565.587 181.204L564.408 181.861V185.041V185.031Z" fill="#2BEDA7"/>
<path d="M583.748 201.33L564.409 190.421V194.905L569.576 197.816L563.38 201.33C562.962 201.557 562.962 202.161 563.38 202.387L566.424 204.101L573.575 200.069L580.725 204.101L583.77 202.387C584.188 202.161 584.188 201.578 583.77 201.33H583.748Z" fill="#2BEDA7"/>
<path d="M598.199 174.476V193.17C598.199 193.644 598.725 193.935 599.143 193.709L601.866 192.178C602.048 192.07 602.187 191.865 602.187 191.639V172.223L598.199 174.476Z" fill="url(#paint3_linear_557_897)"/>
<path d="M590.404 198.657L592.966 197.212C593.267 197.051 593.427 196.738 593.427 196.425V177.193L589.461 179.446V198.139C589.461 198.592 589.965 198.883 590.404 198.657Z" fill="url(#paint4_linear_557_897)"/>
<path d="M580.703 204.112L584.369 202.042C584.552 201.934 584.691 201.729 584.691 201.503V182.087L580.725 184.34V204.112H580.703Z" fill="url(#paint5_linear_557_897)"/>
<path d="M562.746 202.052L566.412 204.122V184.372L562.446 182.119V201.535C562.424 201.74 562.542 201.945 562.746 202.052Z" fill="url(#paint6_linear_557_897)"/>
<path d="M554.148 197.212L556.711 198.657C557.129 198.883 557.654 198.592 557.654 198.118V179.424L553.688 177.171V196.404C553.688 196.738 553.848 197.04 554.148 197.212Z" fill="url(#paint7_linear_557_897)"/>
<path d="M545.412 192.275L547.974 193.719C548.392 193.946 548.918 193.655 548.918 193.18V174.487L544.93 172.234V191.466C544.93 191.8 545.112 192.102 545.412 192.275Z" fill="url(#paint8_linear_557_897)"/>
<path d="M602.185 164.149L598.197 161.896L591.047 165.928L586.276 163.243L592.505 159.729C592.923 159.502 592.923 158.899 592.505 158.672L589.943 157.228C589.642 157.066 589.299 157.066 588.999 157.228L582.31 160.99L577.539 158.306L583.768 154.791C584.186 154.565 584.186 153.961 583.768 153.735L581.206 152.29C580.905 152.129 580.562 152.129 580.262 152.29L573.573 156.053L566.883 152.269C566.583 152.107 566.24 152.107 565.94 152.269L563.357 153.735C562.938 153.961 562.938 154.565 563.357 154.791L598.186 174.476L602.153 172.223L595.002 168.191L602.174 164.16L602.185 164.149Z" fill="#2BEDA7"/>
<path d="M557.194 157.228L554.61 158.673C554.192 158.899 554.192 159.503 554.61 159.729L589.44 179.414L593.428 177.161L558.137 157.228C557.837 157.066 557.473 157.066 557.194 157.228Z" fill="#2BEDA7"/>
<path d="M544.93 164.149L552.101 168.18L544.93 172.245L548.918 174.476L556.068 170.444L560.838 173.129L553.688 177.193L557.655 179.424L564.826 175.393L569.575 178.077L562.425 182.141L566.413 184.373L573.563 180.341L580.714 184.373L584.701 182.141L548.928 161.917L544.94 164.17L544.93 164.149Z" fill="#2BEDA7"/>
<path d="M518.473 180.912L507.452 180.772C507.86 182.68 508.31 184.621 508.792 186.572C509.189 186.453 509.607 186.367 510.046 186.367C512.437 186.367 514.377 188.319 514.377 190.723C514.377 192.253 513.595 193.59 512.405 194.366C523.264 230.492 543.783 254.618 573.51 266.045C573.681 265.981 573.842 265.905 574.014 265.841V240.604C573.917 240.647 573.821 240.69 573.714 240.722C523.232 221.08 527.606 150.102 527.606 150.102C559.338 138.502 573.714 128.347 573.714 128.347C573.714 128.347 573.821 128.422 574.014 128.552V102.841C573.831 102.722 573.66 102.614 573.51 102.517C569.125 105.342 546.945 118.968 504.568 134.125C504.397 138.373 504.022 156.376 508.278 177.883L520.831 178.045L521.056 179.198C528.089 214.461 544.533 232.852 558.652 242.382C559.381 241.833 560.27 241.498 561.246 241.498C563.637 241.498 565.577 243.45 565.577 245.854C565.577 248.258 563.637 250.209 561.246 250.209C558.855 250.209 556.915 248.258 556.915 245.854C556.915 245.498 556.969 245.153 557.054 244.819C532.977 228.659 522.771 201.708 518.462 180.934L518.473 180.912ZM518.033 143.903C517.937 146.534 517.786 154.382 518.88 164.699C520.842 165.108 522.31 166.855 522.31 168.957C522.31 171.361 520.37 173.312 517.979 173.312C515.589 173.312 513.648 171.361 513.648 168.957C513.648 167.264 514.613 165.82 516.007 165.097C514.624 152.15 515.16 143.181 515.181 142.76L515.246 141.801L516.146 141.478C536.407 134.265 550.88 127.538 560.131 122.73C559.927 122.224 559.799 121.663 559.799 121.081C559.799 118.677 561.739 116.726 564.13 116.726C566.52 116.726 568.461 118.677 568.461 121.081C568.461 123.485 566.52 125.436 564.13 125.436C563.422 125.436 562.758 125.242 562.168 124.94C553.013 129.748 538.476 136.562 518.022 143.892L518.033 143.903Z" fill="#1C445F"/>
</g>
<defs>
<filter id="filter0_f_557_897" x="374" y="238" width="398" height="196.921" filterUnits="userSpaceOnUse" color-interpolation-filters="sRGB">
<feFlood flood-opacity="0" result="BackgroundImageFix"/>
<feBlend mode="normal" in="SourceGraphic" in2="BackgroundImageFix" result="shape"/>
<feGaussianBlur stdDeviation="15" result="effect1_foregroundBlur_557_897"/>
</filter>
<linearGradient id="paint0_linear_557_897" x1="229.5" y1="124" x2="892.5" y2="386" gradientUnits="userSpaceOnUse">
<stop stop-color="#D4FDED" stop-opacity="0"/>
<stop offset="0.451127" stop-color="#D4FDED" stop-opacity="0.65"/>
<stop offset="1" stop-color="#D4FDED" stop-opacity="0"/>
</linearGradient>
<linearGradient id="paint1_linear_557_897" x1="600.193" y1="161.896" x2="600.193" y2="185.235" gradientUnits="userSpaceOnUse">
<stop stop-color="#2BEDA7"/>
<stop offset="1" stop-color="#018AFD"/>
</linearGradient>
<linearGradient id="paint2_linear_557_897" x1="546.924" y1="-981.584" x2="546.924" y2="-981.584" gradientUnits="userSpaceOnUse">
<stop stop-color="#2BEDA7"/>
<stop offset="1" stop-color="#018AFD"/>
</linearGradient>
<linearGradient id="paint3_linear_557_897" x1="500.003" y1="172.223" x2="501.087" y2="193.794" gradientUnits="userSpaceOnUse">
<stop stop-color="#2BEDA7"/>
<stop offset="1" stop-color="#018AFD"/>
</linearGradient>
<linearGradient id="paint4_linear_557_897" x1="591.444" y1="177.182" x2="591.444" y2="198.732" gradientUnits="userSpaceOnUse">
<stop stop-color="#2BEDA7"/>
<stop offset="1" stop-color="#018AFD"/>
</linearGradient>
<linearGradient id="paint5_linear_557_897" x1="582.697" y1="182.109" x2="582.697" y2="204.122" gradientUnits="userSpaceOnUse">
<stop stop-color="#2BEDA7"/>
<stop offset="1" stop-color="#018AFD"/>
</linearGradient>
<linearGradient id="paint6_linear_557_897" x1="564.429" y1="182.119" x2="564.429" y2="204.133" gradientUnits="userSpaceOnUse">
<stop stop-color="#2BEDA7"/>
<stop offset="1" stop-color="#018AFD"/>
</linearGradient>
<linearGradient id="paint7_linear_557_897" x1="555.671" y1="177.161" x2="555.671" y2="198.732" gradientUnits="userSpaceOnUse">
<stop stop-color="#2BEDA7"/>
<stop offset="1" stop-color="#018AFD"/>
</linearGradient>
<linearGradient id="paint8_linear_557_897" x1="546.924" y1="172.223" x2="546.924" y2="193.795" gradientUnits="userSpaceOnUse">
<stop stop-color="#2BEDA7"/>
<stop offset="1" stop-color="#018AFD"/>
</linearGradient>
<clipPath id="clip0_557_897">
<rect width="931" height="545" fill="white"/>
</clipPath>
</defs>
</svg>
